<svg width="391" height="780" viewBox="0 0 391 780" fill="none" xmlns="http://www.w3.org/2000/svg">
<path fill-rule="evenodd" clip-rule="evenodd" d="M124.965 390.844C124.743 391.942 124.409 393.131 124.061 394.196C125.795 395.862 128.25 398.095 130.012 399.709C128.269 388.967 133.572 379.052 136.817 368.891C135.593 367.324 131.33 365.721 131.467 363.984C131.796 357.55 132.281 350.369 132.981 342.314C135.351 317.159 137.708 290.927 132.116 265.695C131.734 262.953 131.154 260.069 127.468 260.005C116.582 303.245 125.403 346.78 125.163 390.292L125.48 390.575L124.965 390.844ZM108.663 745.121C99.7183 745.124 91.4955 743.502 83.5348 740.216C81.2376 739.41 78.3839 738.408 77.9859 736.785C77.3313 732.344 77.7845 727.978 78.264 723.357C79.0223 715.43 78.9467 709.268 81.0903 700.732C83.3845 692.805 85.3397 686.61 83.1009 678.413C82.9214 675.973 84.8336 673.49 86.0968 671.208C87.8851 667.877 88.7926 664.409 90.213 660.993C87.4225 660.506 84.5249 659.839 81.8458 659.012L81.396 660.628C81.2972 660.983 81.0248 661.163 80.5868 661.163C80.3159 661.163 79.6226 661.033 79.5215 660.455C79.9418 654.213 80.5508 648.003 81.1903 641.662C87.831 580.577 97.8865 530.222 114.773 480.001C118.829 468.239 122.972 455.995 123.001 443.216C120.695 442.723 118.128 442.439 115.777 442.764C99.0322 438.891 102.342 403.541 103.008 392.961C101.827 392.607 100.506 392.107 99.5259 391.436L99.1296 391.629C82.502 350.446 89.3303 282.355 93.1337 236.58C95.6292 220.126 92.1191 190.404 106.738 182.273C118.541 178.102 130.292 175.757 142.626 173.006C144.91 171.698 147.729 170.951 150.278 170.104L148.961 168.257C147.234 165.829 147.464 161.066 149.723 159.393C151.111 159.47 153.062 160.861 154.388 161.515C156.296 157.577 158.063 153.458 159.331 148.727L159.786 148.889C161.12 135.506 178.508 133.171 188.313 137.643C199.015 143.506 193.441 156.77 198.307 166.344L200.07 163.998C202.794 163.948 208.555 167.511 209.942 168.849C210.935 169.311 210.217 172.42 210.361 173.671C224.719 176.915 244.371 177.805 248.935 193.888C256.528 224.128 255.46 255.131 264.075 285.264C273.094 309.69 286.34 339.579 286.451 361.948C286.708 366.141 287.274 389.852 283.796 388.899L281.501 391.184C284.628 396.165 282.146 403.619 280.948 409.516C277.997 422.028 272.23 435.51 259.913 429.514C246.665 502.516 213.368 576.158 224.727 651.454C224.863 651.894 224.587 652.377 224.114 652.185L223.555 651.928C222.11 652.373 220.277 652.529 218.768 652.866C220.052 657.668 220.741 662.407 221.407 667.718C222.215 668.199 221.838 669.471 221.879 670.24C233.932 669.664 240.692 682.26 249.336 689.187C255.044 694.268 261.543 699.106 268.656 703.567C274.534 706.9 279.494 710.716 278.601 717.011C278.686 717.001 280.499 716.721 280.588 716.713C283.322 725.792 274.345 727.67 265.099 728.764C242.504 731.031 223.19 726.021 197.031 716.527C193.823 716.907 191.323 712.147 190.896 708.919C190.473 706.756 191.674 704.556 190.758 702.229C187.603 695.54 185.961 677.833 190.409 669.889C191.97 668.089 193.972 666.427 193.712 663.32C193.639 660.207 193.346 657.096 193.61 654.038C188.265 653.522 182.973 652.373 178.31 650.509C177.484 650.826 176.547 650.436 176.489 649.404C175.594 635.171 174.523 619.617 174.291 605.046C173.217 573.334 180.484 542.39 186.045 511.634C186.431 501.767 188.256 492.236 188.831 482.364C189.45 473.003 189.56 463.838 190.098 454.49L186.889 453.795C160.243 522.349 139.377 590.96 124.772 658.095C125.103 658.377 126.042 658.694 126.002 659.267C125.991 659.572 125.998 659.592 125.789 659.623C122.26 660.331 118.769 660.85 115.272 661.254C116.258 669.631 110.999 679.314 115.653 687.16C116.889 689.051 116.942 689.447 116.185 690.747C122.966 703.342 127.168 713.823 129.892 725.082L131.646 723.601C134.19 725.445 134.243 728.929 134.299 732.61C134.118 734.755 135.167 737.002 133.56 738.807C129.69 743.32 116.205 745.096 108.663 745.121Z" fill="#D08B5B"/>
<path fill-rule="evenodd" clip-rule="evenodd" d="M117.558 688.04C117.697 688.615 115.254 688.876 115.396 689.394C116.875 694.339 121.062 696.389 122.955 701.153L123.841 703.386C126.232 709.419 128.549 715.479 129.982 721.878L130.221 722.945C130.221 722.945 134.844 727.369 134.972 730.429C134.972 730.429 135.464 738.217 133.974 739.341C123.111 746.73 108.421 746.518 95.8645 744.577C90.8588 743.666 85.9721 742.144 81.3322 740.061C79.5784 739.468 78.2666 738.84 77.4642 737.808C76.7828 736.933 76.5009 735.769 76.6115 734.153C76.323 731.411 76.5347 728.792 76.7761 726.178L76.8894 724.956C77.0919 722.75 77.2669 720.54 77.1575 718.316C77.4955 709.693 80.234 701.131 82.1717 692.714L84.2534 689.394C84.2534 689.394 87.6112 684.471 91.9088 684.485C91.9088 684.485 99.271 680.693 104.971 681.404C110.67 682.115 117.558 688.04 117.558 688.04ZM194.288 667.837C196.716 675.986 200.331 680.061 205.133 680.061C212.335 680.061 213.29 670.575 218.936 670.575C218.936 670.575 223.513 670.343 228.42 669.961C233.29 671.699 237.305 675.65 241.157 679.694L243.23 681.88C245.38 684.143 247.516 686.336 249.745 688.124C255.715 693.44 262.176 698.17 268.947 702.416L269.481 702.731C272.111 704.291 274.989 706.128 276.974 708.514C278.417 710.249 279.38 712.282 279.355 714.724L279.346 715.562C279.346 715.562 281.633 717.739 281.655 718.661L281.663 718.972C281.669 719.221 280.438 724.501 278.448 725.818C275.65 727.669 265.356 729.3 264.998 729.357C242.183 731.798 219.087 725.72 197.937 717.415L197.116 717.092C197.059 717.102 197 717.111 196.941 717.119C195.242 717.343 193.78 716.439 192.624 715.131C191.027 713.325 189.987 710.713 189.738 708.686C189.549 707.833 190.049 703.416 189.7 702.331C186.758 695.657 186.372 688.398 186.793 681.286C186.683 672.922 188.506 670.263 190.102 668.33L190.513 667.837L194.288 667.837Z" fill="white"/>
<path fill-rule="evenodd" clip-rule="evenodd" d="M149.892 158.127L149.958 158.137L191.422 181.981L202.042 166.221L205.009 164.283L205.288 164.425C207.281 165.451 209.155 166.727 210.142 167.628C210.686 167.988 210.935 168.346 211.065 168.75C211.235 169.281 211.228 169.872 211.192 170.472L211.161 170.953C211.139 171.297 211.116 171.641 211.112 171.976C211.11 172.173 211.113 172.372 211.12 172.572L211.689 172.683C212.302 172.802 212.921 172.92 213.546 173.037L217.348 173.745C225.87 175.342 234.88 177.232 241.439 181.865C246.371 185.348 249.886 190.403 250.708 198.087C253.314 209.192 254.697 220.412 255.979 231.637L256.235 233.862L256.922 239.844C258.86 256.609 261.024 273.408 266.241 289.515L266.709 290.658C266.942 291.224 267.172 291.783 267.401 292.34L268.866 295.895C276.913 315.445 284.832 335.293 286.764 356.526C287.856 367.096 287.689 377.775 285.877 388.252C285.771 388.817 285.323 389.213 284.812 389.421C284.251 389.649 283.577 389.67 283.074 389.353L282.092 390.335C285.387 395.509 283.112 404.294 281.147 411.104L280.351 413.845C280.16 414.506 279.98 415.137 279.818 415.731C278.26 420.888 275.739 426.503 271.779 429.482C270.281 430.61 268.573 431.35 266.629 431.515C264.844 431.666 262.864 431.333 260.671 430.398C260.396 430.28 260.13 430.159 259.873 430.036L259.693 430.908C259.439 432.143 259.183 433.376 258.925 434.609L238.067 407.153L215.956 386.509L187.895 403.132L133.231 365.8L132.96 366.951L132.739 366.807C131.967 366.299 131.224 365.763 130.746 365.084C130.382 364.569 130.194 363.962 130.32 363.135C130.663 356.952 131.085 350.771 131.591 344.599L132.328 336.459C134.293 314.584 135.937 292.507 132.006 270.768C131.852 269.89 131.678 269.02 131.499 268.151L131.392 267.63C131.247 266.929 131.103 266.228 130.968 265.525L130.942 265.375L130.853 264.821C130.728 264.069 130.529 263.047 130.173 262.276C129.806 261.48 129.268 260.97 128.624 260.858C128.396 260.819 128.165 260.83 127.933 260.889L127.85 261.222C127.837 261.278 127.823 261.335 127.809 261.391C120.876 289.888 122.529 318.954 124.275 347.971L124.515 351.961C125.259 364.406 125.947 376.836 125.901 389.202L125.899 389.597C125.983 389.623 126.063 389.667 126.135 389.732C126.21 389.799 126.262 389.878 126.296 389.962C123.045 392.506 118.813 393.949 113.598 394.29L113.129 394.319C108.244 394.61 104.456 394.374 101.765 393.611L101.792 393.264C101.615 393.215 101.44 393.161 101.264 393.103C100.675 392.906 100.11 392.664 99.5974 392.36L99.1763 392.11L98.7918 392.413C98.6057 392.421 98.4966 392.311 98.3754 392.182C97.8793 391.657 97.3888 390.701 96.9005 389.528L96.797 389.276C95.1451 385.193 93.6775 378.812 93.1977 376.71L93.1349 376.435C84.17 335.887 87.228 294.113 90.5809 252.987L90.8925 249.173C91.14 246.146 91.3872 243.124 91.6296 240.106C92.3487 234.726 92.64 229.223 92.9158 223.705L93.0523 220.984C93.6137 209.973 94.3798 198.97 98.7317 188.854C101.7 181.308 109.851 179.324 117.047 177.715L118.548 177.379C121.76 176.424 124.987 175.651 128.214 174.908L131.886 174.067C137.235 172.837 142.553 171.539 147.653 169.533C147.959 169.412 148.263 169.29 148.567 169.165C148.35 168.943 148.15 168.707 147.97 168.457C146.978 167.078 146.589 165.273 146.691 163.483C146.797 161.625 147.432 159.773 148.521 158.401C148.91 158.115 149.361 158.062 149.823 158.118L149.892 158.127Z" fill="#9DDADB"/>
<path fill-rule="evenodd" clip-rule="evenodd" d="M158.222 146.71C160.072 148.205 158.142 158.991 156.652 161.192C166.732 167.671 176.918 174.001 187.316 179.935L188.392 180.548L188.359 180.538C188.791 180.732 189.522 180.903 189.95 180.818L190.244 180.721C190.305 180.702 190.34 180.693 190.323 180.707C190.497 180.614 190.665 180.517 190.829 180.406C193.794 177.706 195.954 173.131 198.277 169.572C194.322 166.09 196.293 159.304 196.453 154.669C197.2 154.65 197.288 157.018 197.502 157.705L197.623 158.36C197.908 159.894 198.233 161.457 198.821 162.884C200.531 160.721 209.189 165.831 210.811 167.475C212.578 168.599 212.036 170.599 212.013 172.357C228.444 175.548 249.397 177.793 251.605 198.383C254.203 209.428 255.591 220.67 256.875 231.927L257.084 233.724C259.328 253.094 261.32 272.704 267.657 291.251L270.077 297.015C275.316 309.516 280.426 322.119 283.77 335.273C286.364 340.886 293.269 394.458 282.882 390.325C286.434 396.11 283.775 403.722 282.542 409.907C279.987 420.058 274.886 436.647 261.161 431.755C250.813 486.97 230.315 540.166 225.132 596.342C223.449 614.6 223.485 633.078 226.343 651.224C226.729 652.948 225.078 654.471 223.391 653.715C222.544 653.957 221.648 654.029 220.779 654.193C221.779 658.211 222.365 662.406 222.898 666.513L222.957 666.969L222.959 666.971C223.374 667.431 223.578 668.014 223.56 668.672C229.83 668.695 235.076 672.736 239.253 677.029C246.497 684.598 254.146 691.813 262.815 697.753C269.02 702.789 279.906 705.741 280.256 715.103C283.423 714.568 282.665 721.478 282.103 723.303C281.445 725.349 279.534 726.527 277.7 727.438C251.333 736.26 222.291 727.668 197.222 718.196C192.829 718.776 189.689 712.971 189.219 709.144C188.741 707.032 189.865 704.979 189.209 702.92L188.993 702.355C188.204 700.286 187.459 698.263 187.009 696.071L186.944 695.614C185.875 688.041 185.014 675.216 189.078 668.881C193.819 664.824 191.365 660.937 191.841 655.533C187.16 655 182.531 653.942 178.152 652.259C176.425 652.627 174.919 651.23 174.805 649.559L174.636 646.885C173.752 632.97 172.832 619.041 172.602 605.097C171.521 573.459 178.702 542.497 184.357 511.594C184.913 499.681 187.191 487.917 187.511 475.974C187.751 468.778 188.05 461.601 188.411 454.418C162.767 520.388 141.72 588.199 126.614 657.353C128.004 658.294 128.156 660.861 126.087 661.273C123.061 661.875 120.014 662.368 116.956 662.74C117.445 670.166 113.02 680.21 117.119 686.505L117.283 686.757C118.061 687.963 118.822 689.341 118.027 690.743C123.354 700.724 127.972 711.139 130.813 722.133C134.059 720.803 135.909 727.389 135.813 729.769C135.604 732.888 137.288 738.146 134.594 740.279C120.442 749.385 101.231 747.973 85.8062 742.93C82.9452 741.706 79.6664 740.872 77.2141 738.915C76.1026 737.789 76.1786 735.938 76.0882 734.476L76.0605 733.719C75.915 729.51 75.9292 725.221 77.0835 721.076C76.7747 715.069 77.6724 708.983 78.8551 703.108C79.6125 698.365 81.7934 693.859 82.0869 689.072C83.6351 684.789 80.8429 680.784 81.5934 676.503C82.2058 673.894 84.1255 671.641 85.2369 669.211L85.3149 669.037C86.3206 666.828 87.0412 664.539 87.913 662.273C86.2434 661.956 84.5953 661.564 82.9708 661.095C82.1938 663.906 77.6962 663.112 77.8292 660.247C81.5231 614.036 88.8637 568.082 100.226 523.125C105.527 496.536 119.217 471.745 121.28 444.61C119.638 444.303 117.767 444.224 116.157 444.409L115.965 444.433C114.937 444.56 113.949 444.741 112.846 444.222C98.699 435.5 100.153 408.775 101.227 394.149C100.588 393.935 99.9775 393.672 99.4217 393.343C98.9301 393.708 98.1844 393.729 97.897 393.056C97.1727 391.357 96.2417 389.698 95.6119 387.97C79.2197 331.707 89.687 272.417 92.9874 215.063C94.2734 203.281 94.2832 187.283 106.01 180.79C109.945 178.929 114.386 178.13 118.58 177.057C128.205 174.192 138.258 172.908 147.58 169.243C145.411 166.235 145.927 161.849 147.734 158.824C149.167 156.646 151.919 158.312 153.619 159.238C155.582 155.234 156.929 150.965 158.222 146.71ZM131.406 724.702L131.493 725.105C131.952 727.26 132.349 729.525 132.118 731.717C138.215 737.65 110.121 738.401 107.02 738.387C99.9263 738.314 79.069 735.954 78.0374 727.418L78.0492 727.622C78.1872 730.338 77.726 735.408 79.2058 737.415C90.3901 743.223 103.404 745.52 115.922 744.089L116.372 744.03C121.362 743.345 130.84 741.33 133.302 737.178C132.757 733.312 134.094 727.774 131.406 724.702ZM111.176 686.353C104.329 678.914 93.0826 684.352 85.8624 688.501C85.5898 691.759 83.3018 692.957 83.2092 696.374C81.6707 706.812 78.126 718.612 82.6421 728.691C96.1049 735.884 112.115 735.397 126.68 732.3C127.061 731.805 127.543 731.656 128.23 731.468C128.664 728.41 127.788 725.336 127.209 722.367C125.753 716.128 123.869 710.001 122.194 703.819C119.191 701.883 118.094 697.817 116.527 694.751C116.102 693.891 115.667 693.03 115.211 692.177C112.767 691.377 112.127 688.464 111.176 686.353ZM191.441 706.874C190.704 714.376 198.036 717.367 203.963 719.168C210.634 721.535 217.469 723.5 224.342 725.199C238.423 728.82 253.102 730.406 267.535 728.136L267.786 728.092C271.95 727.36 279.41 726.481 280.357 721.668L280.367 721.558C280.431 720.77 280.554 717.801 280.257 717.041C280.148 717.039 280.041 717.016 279.939 716.966C278.732 720.817 274.336 723.159 270.099 723.763C268.101 725.766 264.42 725.023 261.756 725.138C244.174 724.964 227.271 719.531 210.61 714.48C205.309 712.641 194.742 711.323 191.441 706.874ZM192.949 668.255C189.897 667.182 189.318 675.714 188.928 677.798C187.945 686.607 187.967 700.344 195.112 706.592C202.567 709.779 210.613 711.242 218.303 713.749L220.123 714.283C234.699 718.543 249.678 722.526 264.977 721.898C266.132 719.593 273.457 721.509 276.251 717.402C279.998 710.881 270.536 706.68 266.058 703.902C257.458 698.392 249.426 691.985 242.183 684.789C238.777 681.407 235.661 677.534 231.662 674.816L231.454 674.676C228.027 672.408 223.629 671.002 219.605 672.491C215.686 673.939 214.247 678.407 210.96 680.715C203.636 685.454 196.135 677.964 193.756 671.186L193.685 670.981C193.6 670.77 193.832 670.642 194.008 670.699C193.991 670.633 193.98 670.564 193.965 670.497C193.042 670.256 192.954 669.108 192.949 668.255ZM88.7768 662.432C89.7336 667.83 87.0379 672.673 85.0263 677.449C84.4848 680.614 86.475 683.649 86.0148 686.87C92.5994 681.71 102.565 677.135 110.509 681.848C110.552 677.297 112.121 672.88 113.485 668.578L114.039 666.87C114.47 665.544 114.909 664.224 115.395 662.92C106.549 663.842 97.5926 663.934 88.7768 662.432ZM218.343 654.563C210.6 655.629 202.773 656.242 194.978 655.812L195.864 669.23C195.9 669.779 195.667 670.161 195.323 670.379C196.472 674.738 200.09 678.618 204.575 679.561C211.503 680.455 212.435 671.285 218.319 669.59C217.192 667.064 217.999 663.743 217.889 660.993C217.951 658.83 218.062 656.687 218.343 654.563ZM192.847 666.705C192.697 667.013 192.522 667.3 192.329 667.577C192.533 667.596 192.731 667.658 192.916 667.769C192.894 667.416 192.871 667.06 192.847 666.705ZM123.12 393.331C116.344 395.675 108.95 396.154 101.97 394.374C103.501 405.829 105.039 432.963 114.794 439.579C116.442 439.342 118.097 439.226 119.762 439.392C120.753 439.49 121.732 439.65 122.714 439.801C123.083 439.853 123.818 439.891 124.287 439.858L124.367 439.851C124.243 439.86 124.146 439.859 124.276 439.85L124.476 439.839L124.579 439.832C127.961 439.528 131.014 434.759 134.361 437.048C134.852 436.305 135.595 435.829 136.166 435.168C138.706 430.727 136.007 425.012 137.705 420.331C137.063 419.457 137.275 418.146 138.282 417.397C139.851 415.958 143.168 417.03 144.072 414.963C144.01 415.075 144.005 414.945 144.029 414.878L144.035 414.864L143.876 414.732C136.943 409.002 130.24 402.599 125.697 394.649L125.545 394.381C124.676 395.223 123.248 394.58 123.12 393.331ZM281.411 389.444C276.637 392.051 271.498 393.94 266.166 395.032C265.071 405.5 263.812 415.972 262.096 426.353L262.502 426.426C264.883 426.861 267.391 427.447 269.448 425.808C276.22 419.238 278.661 406.023 281.32 397.099L281.425 396.693C281.984 394.504 282.625 391.476 281.411 389.444ZM211.998 173.09C211.287 176.643 215.21 215.327 208.056 208.71C203.215 201.119 197.676 194.016 192.726 186.504C192.044 189.19 194.04 192.381 193.097 194.657C205.695 257.68 214.834 321.674 218.221 385.875C223.789 389.778 228.671 394.511 233.458 399.306C234.949 400.573 236.032 402.643 237.885 403.371C245.405 394.882 254.091 387.523 261.997 379.404C261.923 378.847 261.84 378.293 261.745 377.738C261.351 375.432 264.322 374.264 265.469 375.678C267.867 369.601 268.091 362.456 267.497 355.935C266.331 344.974 262.235 334.501 259.308 323.937C250.873 291.621 245.035 257.719 247.798 224.265C247.838 223.954 248.251 223.95 248.288 224.265C250.58 259.608 254.152 295.05 264.797 329.021L265.05 329.86C269.209 343.591 274.354 358.146 270.794 372.545C271.089 374.484 270.157 376.416 268.749 377.809C268.122 379.324 267.424 380.824 266.595 382.237C266.881 385.516 266.742 388.802 266.452 392.065C271.924 390.897 277.028 388.66 281.908 385.965C282.198 384.32 282.452 382.67 282.649 381.014C286.437 350.29 274.883 320.412 263.322 292.521C252.307 260.018 254.458 224.745 245.252 191.865C239.428 179.044 223.519 178.036 211.998 173.09ZM149.558 170.707L149.179 170.84C146.527 171.772 143.868 172.853 141.032 172.933C132.133 175.889 123.009 178.159 113.962 180.626L113.087 180.865C109.225 181.925 105.326 183.136 102.721 186.374C100.222 189.478 99.1772 193.477 98.3608 197.295C94.5348 230.659 92.367 264.36 90.4232 297.923C89.4701 325.868 90.0133 354.28 97.1681 381.473C98.1781 385.199 99.4071 388.937 99.8422 392.764C100.362 392.771 100.885 392.807 101.41 392.859C101.417 392.609 101.798 392.65 101.771 392.895C108.723 393.99 115.949 393.342 122.473 390.65C120.861 341.696 110.387 288.564 134.112 243.149C134.209 242.977 134.504 243.095 134.437 243.287L133.852 244.971C131.971 250.399 130.132 255.835 128.809 261.432C130.694 261.153 132.07 265.561 132.426 266.642C142.709 297.808 136.376 331.064 135.067 363.072C152.771 375.922 170.649 388.562 189.048 400.405C197.405 394.985 204.89 387.875 213.476 382.959C211.022 316.834 197.506 251.409 190.159 186.101C187.434 189.482 184.659 192.823 181.888 196.165C178.323 200.533 174.877 205.015 171.362 209.425C170.635 210.34 169.051 209.985 168.534 209.063C161.611 196.575 157.209 182.782 149.558 170.707ZM128.689 261.931C118.476 303.903 126.962 347.127 126.801 389.577C127.561 390.248 127.279 391.52 126.393 391.98C126.262 392.565 126.108 393.146 125.927 393.727C126.64 394.402 127.357 395.073 128.081 395.737C127.53 386.496 132.19 378.101 134.89 369.424C132.949 367.696 129.312 366.624 129.796 363.468C130.171 356.604 130.651 349.745 131.232 342.898L131.592 339.064C133.855 314.762 135.778 290.064 130.456 266.031L130.424 265.848C130.251 264.797 129.919 262.144 128.689 261.931ZM281.868 389.195L281.785 389.24L281.971 389.396C281.933 389.333 281.899 389.264 281.868 389.195ZM220.777 374.894C218.409 372.579 222.064 368.907 224.401 371.277C226.766 373.597 223.109 377.269 220.777 374.894ZM219.217 347.356C218.694 345.987 220.149 343.814 221.687 344.725L221.735 344.754L221.756 344.725C223.212 345.583 222.675 347.361 221.82 348.42C220.873 349.394 219.693 348.238 219.217 347.356ZM216.994 315.651C212.876 310.267 221.527 308.059 220.11 314.687C219.807 315.926 217.317 317.734 216.994 315.651ZM210.902 285.653C208.717 282.987 213.416 280.692 214.398 283.875C214.961 285.998 212.307 287.307 210.902 285.653ZM232.769 219.52C234.063 219.72 240.605 218.386 238.922 221.105C241.554 234.233 248.957 250.249 238.388 261.72L238.293 261.812C236.734 263.367 234.242 267.061 231.856 265.538C226.561 261.08 219.739 257.895 215.693 252.19C213.992 247.714 215.44 242.712 214.99 238.03C214.798 232.107 213.81 226.239 213.598 220.326C213.589 220.039 213.9 219.946 214.095 220.067C220.304 219.575 226.546 219.684 232.769 219.52ZM214.307 220.481C217.116 229.608 217.18 239.366 217.105 248.825C217.148 249.801 217.321 250.75 217.831 251.495C221.847 256.221 227.568 259.182 232.335 263.108C234.265 261.849 235.793 260.241 237.161 258.417C245.537 247.477 237.947 233.707 237.956 221.525L236.883 221.527C229.364 221.537 221.774 221.438 214.307 220.481ZM207.986 254.376L208.059 254.377C210.94 254.384 210.279 259.257 207.56 258.589C205.268 258.047 205.618 254.406 207.986 254.376ZM202.336 229.505C200.34 226.11 206.926 224.797 206.233 228.718L206.248 228.557C206.251 228.526 206.254 228.499 206.257 228.474L206.207 228.841C205.967 230.575 202.537 231.818 202.336 229.505ZM197.912 201.391C199.743 200.907 201.093 203.474 199.523 204.623C197.188 206.381 195.179 202.002 197.912 201.391ZM153.03 161.628L152.807 161.422C150.418 159.232 148.627 158.137 148.097 162.599C147.728 164.775 148.045 167.52 150.135 168.807C160.141 178.681 163.934 192.779 170.381 204.925C176.203 197.887 181.621 190.561 187.252 183.381C179.495 178.663 171.661 173.981 164.009 169.058C160.352 166.631 156.417 164.422 153.03 161.628ZM203.401 167.449C200.392 172.352 197.613 177.655 193.776 181.994C193.286 182.484 192.778 182.873 192.253 183.169C193.005 182.953 193.998 183.514 193.904 184.336C199.49 189.893 204.056 196.359 208.419 202.901C209.254 192.079 207.664 181.212 208.279 170.373C206.861 169.072 205.173 168.181 203.401 167.449Z" fill="black"/>
<path fill-rule="evenodd" clip-rule="evenodd" d="M223.881 109.781C223.786 104.472 223.682 99.056 222.893 93.7982C222.121 88.6579 219.999 84.0116 216.351 80.2789C208.603 72.3502 197.372 70.4136 186.918 68.6389L169.045 65.6044C163.592 64.6789 157.775 63.1995 152.265 64.5121C149.551 65.1589 147.245 66.6615 145.138 68.4393C143.107 70.1529 140.923 71.993 139.547 74.2984C138.169 76.6072 137.695 79.306 137.246 81.9171C136.741 84.861 136.348 87.8279 136.069 90.8019C135.51 96.7604 135.434 102.764 135.839 108.734C136.036 111.63 136.348 114.518 136.748 117.393C136.945 118.819 137.169 120.241 137.422 121.658C137.496 122.076 137.553 122.538 137.629 123.006C137.065 124.609 136.745 126.27 136.771 127.924C136.847 132.795 140.958 135.861 145.102 137.508C147.505 138.463 150.018 139.111 152.379 140.178C154.863 141.3 156.553 143.118 158.252 145.193C161.491 149.149 165.146 152.705 169.319 155.672C178.168 161.963 189.376 164.938 200.112 162.68C202.688 162.138 205.287 161.297 207.603 160.029C210.047 158.69 211.886 156.751 213.429 154.458C216.296 150.201 218.351 145.407 219.907 140.529C221.493 135.554 222.619 130.569 223.233 125.38C223.845 120.209 223.973 114.985 223.881 109.781Z" fill="#D08B5B"/>
<path fill-rule="evenodd" clip-rule="evenodd" d="M166.845 47.1091C174.241 46.0916 184.45 49.3986 188.133 56.0667C205.719 51.9204 227.9 51.7846 242.394 65.5874C257.519 81.9605 238.522 103.549 225.925 108.416C226.842 112.873 225.412 141.429 215.294 154.167C207.264 164.96 188.564 169.94 179.911 157.05L179.843 156.943C178.916 155.454 179.714 155.502 180.666 156.61C189.139 164.062 200.66 164.189 209.538 156.325C226.176 141.95 224.461 106.704 216.544 86.3139C193.999 83.8376 169.861 90.6713 154.289 107.643L155.342 113.983C155.522 115.063 155.725 116.142 155.881 117.226C155.98 117.92 155.992 118.611 155.511 119.173C153.922 121.029 151.245 118.24 149.042 117.131C148.392 117.04 147.74 117.004 147.101 117.049C136.518 118.413 138.603 138.945 150.235 135.346C151.212 134.737 152.052 134.923 152.431 135.806C155.204 138.346 157.032 142.876 161.638 147.239C163.263 148.875 164.742 150.245 166.571 151.557C167.644 152.643 170.884 153.751 169.857 155.609C167.915 159.838 156.461 146.555 154.436 142.881C148.091 145.387 141.06 144.536 134.484 143.923C99.7964 142.12 104.427 105.551 132.86 82.4639C138.212 78.5234 144.117 75.3088 150.256 72.8351C151.094 72.4974 150.727 71.1213 149.878 71.4638C145.816 73.1008 141.857 75.0493 138.082 77.3044L138.077 75.9562C138.071 73.6853 138.107 71.3212 138.501 69.2463C138.698 67.8086 139.03 66.273 139.54 65.1179C140.171 61.5762 150.057 49.4195 166.845 47.1091ZM146.639 121.763C147.174 121.254 148.174 121.861 148.651 121.846C149.87 122.013 151.029 122.528 151.932 123.163C152.529 123.498 152.947 123.811 153.296 124.1L153.306 124.098C153.303 124.098 153.3 124.1 153.297 124.101L153.33 124.123C153.838 124.484 155.7 126.52 154.524 125.973C154.436 125.859 154.346 125.749 154.256 125.642C154.246 125.657 154.233 125.671 154.216 125.685L154.283 125.783C155.282 127.287 153.556 125.703 153.291 125.282C153.278 125.292 153.264 125.299 153.25 125.306L153.596 125.727C153.644 125.787 153.682 125.834 153.714 125.875L153.787 125.945C154.943 127.082 154.979 128.104 153.636 126.424C153.688 126.503 153.731 126.587 153.737 126.662L153.816 126.763C154.871 128.122 154.013 127.64 153.489 127.059L153.445 127.009L153.454 127.023C153.942 127.774 152.975 127.247 152.804 126.845L152.796 126.827C152.61 126.675 152.496 126.504 152.456 126.461L152.449 126.454C151.542 125.525 150.228 124.739 149.112 124.382C148.95 124.351 148.786 124.326 148.62 124.309C147.949 124.159 147.27 124.056 146.585 124.001C146.501 123.991 146.416 123.929 146.352 123.85C145.315 123.815 145.635 123.389 146.065 123.311L146.073 123.309L145.988 123.302C145.322 123.237 144.867 122.998 145.54 122.852L145.626 122.835C145.615 122.818 145.606 122.802 145.597 122.786C145.021 122.722 145.397 122.162 145.717 122.298C145.582 121.858 146.197 122.077 146.274 122.012C146.333 121.947 146.405 121.89 146.447 121.886C146.633 121.756 146.543 121.767 146.639 121.763ZM150.165 114.637L150.03 114.716C149.921 114.78 149.808 114.822 149.696 114.847C149.855 114.915 150.012 114.988 150.168 115.066C150.165 114.971 150.164 114.875 150.164 114.78L150.165 114.637Z" fill="black"/>
<path fill-rule="evenodd" clip-rule="evenodd" d="M215.316 131.935C213.75 131.641 212.131 131.724 210.576 131.382C209.058 131.048 207.853 130.056 206.387 129.594C205.096 129.187 203.584 129.463 202.579 130.251C201.646 129.82 200.585 129.727 199.523 129.87C197.912 130.085 196.409 130.765 194.975 131.501C194.808 131.586 194.642 131.668 194.476 131.75C191.825 131.684 189.107 131.689 186.506 132.256C184.203 132.758 182.025 133.927 180.651 135.88C179.114 138.065 178.836 140.848 178.599 143.431C178.449 145.07 180.73 145.402 181.503 144.215C182.304 142.985 183.139 141.751 184.207 140.732C185.42 139.573 186.895 139.117 188.549 139.012C192.199 138.778 195.873 138.974 199.526 138.813C201.644 138.719 204.002 137.906 204.855 136.069C205.766 137.494 207.83 138.341 209.528 138.469C211.322 138.605 213.144 138.28 214.921 138.653C216.618 139.009 218.635 140.271 218.258 142.288C218.036 143.473 219.537 144.172 220.228 143.117C223.049 138.808 220.269 132.864 215.316 131.935Z" fill="black"/>
<path fill-rule="evenodd" clip-rule="evenodd" d="M185.666 136.607C189.644 133.946 209.778 134.467 211.636 136.508C213.495 138.549 217.79 144.374 208.59 147.235C199.391 150.096 188.003 149.093 185.036 145.591L184.861 145.382C182.056 141.976 181.767 139.214 185.666 136.607Z" fill="white"/>
<path fill-rule="evenodd" clip-rule="evenodd" d="M203.01 120.962C204.803 122.05 207.536 124.587 205.606 127.284C203.335 129.662 200.066 126.935 198.455 125.702C196.961 124.746 195.282 127.204 196.668 128.32C208.311 136.923 213.036 121.247 203.917 119.683C202.913 119.511 202.54 120.626 203.01 120.962ZM186.806 100.215L187.252 100.137L187.481 100.099C188.817 99.8782 190.4 99.7308 191.322 100.777C191.84 101.364 192.018 102.455 191.322 103.016C190.099 104.005 188.746 103.622 187.28 103.705C186.071 103.775 184.91 103.974 183.746 104.306C181.193 105.034 179.112 106.364 176.931 107.824C176.645 108.016 176.353 107.65 176.489 107.383C177.748 104.922 180.188 102.901 182.632 101.669C183.936 101.011 185.364 100.465 186.806 100.215ZM198.619 134.212C202.521 134.495 210.978 132.636 214.49 135.424C227.724 151.917 175.256 156.157 180.922 137.911C184.531 132.011 192.833 134.382 198.619 134.212ZM197.949 144.168C196.984 144.09 195.813 144.853 195.53 145.442C195.246 146.032 195.356 147.278 195.364 147.494C197.052 147.664 198.754 147.69 200.446 147.579C200.006 146.128 199.992 144.388 197.949 144.168ZM205.74 146.603C205.469 144.802 204.178 144.375 203.133 144.646C202.064 144.922 201.437 146.15 201.505 147.243C201.509 147.319 201.466 147.383 201.437 147.443C202.89 147.272 204.329 146.99 205.74 146.603ZM193.772 144.495C193.164 143.571 191.71 143.125 190.779 143.288C189.258 143.607 189.078 145.536 189.078 145.929C190.48 146.462 191.968 146.816 193.391 147.098C193.677 147.154 193.964 147.205 194.25 147.252L194.269 147.018C194.304 146.517 194.329 145.34 193.772 144.495ZM210.974 144.342C209.415 141.935 206.063 143.658 206.34 146.288C206.638 146.195 206.935 146.097 207.23 145.994C208.455 145.568 209.798 145.062 210.974 144.342ZM198.699 136.048C196.601 135.859 194.881 135.923 193.513 136.176L193.471 136.632C193.32 138.213 193.125 139.768 193.957 140.404C194.632 140.92 196.875 140.871 198.379 140.497C198.75 140.404 199.233 137.125 198.699 136.048ZM201.942 135.859C201.606 137.418 201.448 139.31 202.123 139.872C202.836 140.465 205.13 140.385 205.73 139.989C206.256 139.643 206.242 138.052 206.047 136.266C204.885 135.992 202.862 135.859 201.942 135.859ZM192.585 136.192L191.899 136.198L191.51 136.203C190.527 136.22 189.466 136.277 188.464 136.495C186.472 140.791 193.745 141.532 192.622 136.351L192.585 136.192ZM206.972 136.295L206.96 136.539C206.9 137.745 206.939 139.334 207.609 139.763C208.595 140.394 210.445 140.272 211.448 137.353C211.116 136.482 207.597 136.359 206.972 136.295ZM187.67 110.684C188.091 110.684 188.494 110.826 188.861 111.09C189.222 111.35 189.549 111.729 189.821 112.202C190.336 113.097 190.658 114.333 190.658 115.699C190.658 117.065 190.336 118.301 189.821 119.196C189.549 119.669 189.222 120.048 188.861 120.307C188.494 120.571 188.091 120.714 187.67 120.714C187.249 120.714 186.846 120.571 186.479 120.307C186.118 120.048 185.792 119.669 185.519 119.196C185.004 118.301 184.682 117.065 184.682 115.699C184.682 114.333 185.004 113.097 185.519 112.202C185.792 111.729 186.118 111.35 186.479 111.09C186.846 110.826 187.249 110.684 187.67 110.684ZM214.326 110.684C214.747 110.684 215.15 110.826 215.517 111.09C215.878 111.35 216.204 111.729 216.477 112.202C216.992 113.097 217.314 114.333 217.314 115.699C217.314 117.065 216.992 118.301 216.477 119.196C216.204 119.669 215.878 120.048 215.517 120.307C215.15 120.571 214.747 120.714 214.326 120.714C213.905 120.714 213.502 120.571 213.135 120.307C212.774 120.048 212.447 119.669 212.175 119.196C211.66 118.301 211.338 117.065 211.338 115.699C211.338 114.333 211.66 113.097 212.175 112.202C212.447 111.729 212.774 111.35 213.135 111.09C213.502 110.826 213.905 110.684 214.326 110.684ZM210.699 99.1128L211.041 99.1825L211.267 99.2304C214.948 100.021 219.615 101.578 221.338 105.145C221.405 105.66 221.334 105.77 221.276 105.842L221.257 105.866C221.21 105.928 221.172 106.013 220.948 106.083C220.886 106.068 220.824 106.052 220.76 106.036C219.954 105.825 219.316 105.534 218.699 105.233L218.03 104.904C217.253 104.524 216.469 104.158 215.639 103.887C213.867 103.31 212.044 102.904 210.193 102.687C209.792 102.64 209.405 102.505 209.1 102.273C208.811 102.053 208.59 101.749 208.489 101.344C208.359 100.821 208.396 100.425 208.678 99.9522C208.889 99.5975 209.192 99.3516 209.54 99.2104C209.895 99.0665 210.298 99.0326 210.699 99.1128Z" fill="black"/>
</svg>
