<svg width="391" height="780" viewBox="0 0 391 780" fill="none" xmlns="http://www.w3.org/2000/svg">
<path fill-rule="evenodd" clip-rule="evenodd" d="M264.541 331.676C262.067 309.306 258.325 286.359 248.873 265.639C245.626 238.844 251.097 200.469 226.232 182.4C226.55 179.192 220.791 176.428 218.121 174.715C213.785 171.879 207.919 166.306 202.786 169.428C201.167 168.935 197.173 170.954 195.335 166.574C193.452 162.087 193.725 153.091 192.224 152.269C192.886 145.786 163.693 141.448 156.074 150.612C152.456 157.642 156.612 159.879 148.454 169.119C144.852 169.34 141.415 170.252 138.093 171.502C135.35 171.881 132.621 172.341 129.905 172.821C95.2581 176.022 92.6387 201.618 89.5679 229.105C86.9388 266.027 75.5181 302.812 80.4556 340.025C77.7267 353.332 77.5472 367.531 80.8057 380.711C70.1215 396.29 77.8662 404.91 84.53 419.723C85.6578 422.387 86.6393 425.132 87.1385 427.975C87.0068 430.178 87.0214 432.383 87.4092 434.569C88.5401 439.551 96.8583 438.854 97.2289 433.821C97.8795 430.515 97.6779 427.086 98.1824 423.763C98.1531 423.937 98.1019 424.269 98.1019 424.294C99.3219 415.935 101.288 412.694 106.72 406.315C113.694 396.249 109.405 383.601 110.997 372.335C111.433 368.571 112.01 364.856 112.396 361.085C114.748 362.466 117.304 363.618 119.975 364.338C118.292 377.301 121.219 390.326 124.474 402.865C133.282 435.168 144.96 468.337 139.888 502.235C139.89 502.219 134.357 529.94 129.987 543.623C124.703 560.975 120.449 578.358 112.973 594.997C108.97 606.973 100.499 618.335 100.828 631.228C97.9037 635.546 103.169 640.733 107.81 640.72C107.81 646.566 104.718 657.58 104.718 657.58C104.232 661.663 102.14 666.863 105.303 670.331C101.002 681.263 99.4916 693.093 98.3114 704.663C97.8605 710.152 97.3435 716.767 103.23 719.879C108.714 722.247 115.099 721.206 120.955 721.912C126.621 721.92 132.484 723.403 138.056 722.122C144.456 720.303 145.745 713.384 144.54 707.851C143.762 702.089 142.831 696.346 141.812 690.619C138.788 678.15 137.941 664.314 134.067 652.318C136.237 651.913 138.415 650.821 139.888 649.229C143.629 649.107 146.387 646.328 147.303 643.042C147.965 640.924 150.813 640.489 152.731 639.815C153.09 641.644 154.138 643.181 154.992 644.845C154.263 648.376 156.696 652.505 160.712 652.587C161.293 653.144 161.832 653.712 162.424 654.243C157.857 660.952 154.47 668.528 153.612 676.518C152.578 682.647 151.496 692.468 159.625 694.283C162.694 694.687 165.996 695.471 169.003 694.356C172.356 695.857 175.92 696.577 179.53 697.22C195.001 699.826 209.922 699.607 225.522 701.357C229.638 701.929 246.129 703.618 248.873 701.357C252.221 702.04 250.197 699.549 251.605 697.22C252.727 695.471 255.723 692.122 253.789 691.152C249.732 689.405 246.135 685.967 242.423 684.016C225.075 674.161 187.656 657.379 187.916 656.906C187.865 657.241 188.143 648.804 189.53 646.566C191.481 644.635 195.369 644.975 197.406 643.128C198.698 643.189 208.395 640.405 207.565 635.741C206.501 632.019 209.976 627.457 207.565 624.315C215.548 551.541 234.123 480.961 244.374 408.576C244.601 408.377 244.825 408.176 245.052 407.977C250.338 408.859 254.445 403.561 256.05 399.388C256.823 398.605 257.566 397.798 258.249 396.923C262.557 391.333 262.634 384.052 263.124 377.4C264.189 376.619 264.875 375.405 264.933 373.97C265.104 369.694 265.285 365.419 265.465 361.146C265.467 361.146 265.467 361.146 265.467 361.144C266.794 359.018 266.974 356.626 266.596 354.189C266.735 346.309 267.952 338.927 264.541 331.676Z" fill="#D08B5B"/>
<path fill-rule="evenodd" clip-rule="evenodd" d="M99.5588 704.841L101.684 705.699C113.817 710.596 128.057 712.112 143.711 710.741L144.186 710.698L147.034 710.439L146.011 713.104C145.203 715.208 143.608 716.729 141.332 717.72L141.148 717.798L141.09 717.818C135.432 719.761 124.249 720.49 115.152 718.87C107.713 717.545 101.668 714.022 101.179 713.546C99.5661 711.981 98.9021 709.902 99.2333 707.241L99.2507 707.108L99.5588 704.841ZM154.595 685.43L154.087 682.925L156.617 683.321C173.879 686.025 188.98 687.768 217.98 690.65L232.3 692.072C240.001 692.843 244.939 693.357 250.579 693.974L251.915 694.121L252.372 694.856C252.418 694.929 252.479 694.996 252.553 695.052L252.599 695.085L251.542 698.345L251.407 698.431C251.157 698.592 250.993 698.688 250.78 698.785L250.707 698.817L250.407 698.946L250.082 698.961C231.119 699.823 213.208 699.343 196.11 697.368L195.484 697.295L194.768 697.21C185.762 696.158 159.303 690.917 157.962 690.09C156.217 689.014 155.051 687.511 154.62 685.548L154.595 685.43Z" fill="white"/>
<path fill-rule="evenodd" clip-rule="evenodd" d="M268.721 357.5C266.174 359.168 233.041 374.386 196.426 375.307C170.882 375.949 126.344 364.521 113.52 363.573C109.027 363.241 112.853 376.737 113.63 377.474C113.329 380.323 111.375 385.094 111.589 387.977C107.926 387.031 96.4203 385.141 81.4585 377.557C79.3162 376.471 78.0643 317.583 81.4815 288.324C86.2087 247.848 88.6614 210.853 92.1455 208.806C92.1863 209.835 89.3237 181.142 113.52 176.572C117.913 175.743 143.443 169.936 143.443 169.936C153.893 183.209 170.521 194.348 180.017 194.348C196.878 194.348 206.416 169.879 208.04 170.173C243.426 176.572 240.359 218.837 248.889 265.688C256.337 306.601 268.052 346.531 268.721 357.5Z" fill="white"/>
<path d="M246.792 362.71L249.391 362.013L248.823 366.055L247.041 378.389C246.692 380.821 227.452 488.879 227.452 488.879C227.452 488.879 207.724 611.08 206.794 626.858C206.751 627.594 205.578 637.826 204.258 638.688L204.163 638.75L204.069 638.808C203.646 639.068 200.453 641.326 187.141 643.482C179.606 644.703 154.67 647.005 154.67 647.005L154.747 644.801C154.816 642.924 154.952 639.756 155.039 637.523L155.062 636.913L155.099 635.891L155.057 635.882C154.523 635.781 154.003 636.009 153.09 636.928C151.547 638.481 149.611 641.575 147.177 646.565L146.48 648.001C146.48 648.001 110.18 638.62 102.294 633.887L102.05 633.741L100.944 633.07L101.349 631.36C103.22 623.497 128.219 549.055 131.161 539.155L131.435 538.232L131.591 537.703C135.625 523.959 142.962 462.173 137.743 443.683C128.244 410.027 120.044 372.497 118.886 368.679L118.716 368.122L118.544 367.567L117.631 364.645L120.627 365.301C161.995 374.373 205.205 373.636 245.57 363.034L246.792 362.71Z" fill="#E86BBB"/>
<path fill-rule="evenodd" clip-rule="evenodd" d="M155.9 149.835C155.98 149.138 156.912 149.148 157.001 149.835C157.982 158.139 154.697 167.673 146.616 171.542C152.675 176.884 156.94 184.025 164.21 188.057C179.466 197.976 201.511 188.695 204.904 171.202C201.139 170.34 194.123 170.413 192.98 166.023C192.427 165.458 192.143 160.615 192.177 157.043C192.142 156.379 192.121 155.714 192.098 155.054C192.041 154.519 192.024 153.974 192.03 153.426C192.042 152.237 193.826 152.26 193.9 153.426C193.931 153.905 193.952 154.389 193.971 154.875C193.984 155.003 194.002 155.131 194.018 155.259C194.263 156.149 194.433 157.078 194.634 157.923C194.741 158.377 194.853 158.837 194.973 159.295C195.145 160.498 195.452 161.673 195.98 162.786C197.381 165.745 200.837 168.285 204.243 168.313C204.973 168.319 205.699 168.211 206.429 168.23C207.619 168.26 208.59 168.73 209.652 169.209C210.61 169.642 211.51 169.934 212.434 169.933C250.57 182.841 245.319 230.092 251.127 262.038C257.048 293.765 269.277 324.352 271.077 356.775C271.617 360.137 267.896 361.385 265.588 362.975C264.973 371.434 268.539 379.996 266.066 388.367C263.778 395.212 254.553 411.668 245.738 409.076C235.743 484.89 212.512 555.152 210.314 631.889C212.54 638.305 206.15 642.964 200.257 643.902L199.453 644.364C196.767 645.903 193.99 647.41 191.051 648.362C190.977 648.404 190.904 648.448 190.829 648.488C190.686 648.566 190.532 648.613 190.376 648.637C190.54 650.601 191.162 652.445 191.964 654.239C204.192 657.054 214.931 664.446 226.429 669.28C233.846 673.834 256.488 680.413 258.207 688.412L258.253 688.655C258.944 692.24 257.013 696.661 252.924 697C255.058 698.578 253.66 701.763 251.335 702.378C248.541 703.12 245.508 702.804 242.632 703.034C215.5 703.884 188.129 701.492 161.683 695.42C159.462 694.908 157.149 694.239 155.277 692.915C143.8 683.849 155.746 664.659 158.567 652.897C157.542 652.736 156.53 652.512 155.534 652.217L155.312 652.15C154.345 651.858 153.345 651.508 152.594 650.826C152.563 650.798 152.537 650.766 152.508 650.737C147.673 650.669 152.598 640.041 153.032 637.198C151.067 641.374 149.463 645.833 147.11 649.81C145.489 652.262 141.936 650.561 139.549 650.389C140.343 664.926 143.819 679.1 147.389 693.185C150.288 704.881 155.266 718.936 138.841 722.492C127.529 725.45 100.572 724.32 95.7496 711.956C94.3276 701.89 97.4419 691.688 98.9821 681.767L99.2523 680.356C101.091 670.712 102.791 661.022 105.457 651.558C105.824 650.017 106.276 648.506 106.762 647.007C106.825 646.132 106.871 645.255 106.815 644.377C106.74 643.226 106.522 642.099 106.291 640.971C106.261 640.827 106.235 640.661 106.207 640.482C101.444 638.289 97.9069 635.808 97.4505 633.13C96.9834 630.59 97.9276 628.015 98.6276 625.59L98.6685 625.448C114.009 571.674 143.19 523.216 138.217 465.855C136.387 437.643 123.003 411.695 120.744 383.556C119.445 377.943 118.272 372.272 118.083 366.486C117.281 366.297 116.472 366.126 115.674 365.919C115.206 368.421 114.613 370.902 113.642 373.237C113.268 377.854 113.507 382.522 114.312 387.088C114.498 388.14 113.985 389.056 113.116 389.392C115.203 395.886 115.615 404.03 110.232 409.06L109.786 409.355C105.109 412.463 104.62 413.342 103.532 419.133L99.9517 433.767C99.5027 435.578 98.9648 437.423 97.6711 438.845C94.2379 442.618 88.7733 440.156 87.0028 436.134C85.3868 432.013 85.3991 427.477 84.2192 423.234C83.3224 418.851 80.8354 415.107 78.3705 411.432C72.8603 402.995 72.4205 391.247 78.5645 382.984C79.1011 381.617 79.5925 380.271 80.1625 378.926C78.0364 376.437 79.4047 372.515 79.1606 369.469C79.1565 366.953 79.1103 364.438 79.0335 361.924C78.5851 347.075 77.053 332.318 76.9974 317.467C76.4015 297.452 81.678 278.064 84.7372 258.433C87.3676 239.047 87.2275 219.283 91.531 200.123C99.5399 162.515 144.482 176.853 152.085 162.033C154.382 158.324 155.411 154.104 155.9 149.835ZM101.004 707.346C100.324 712.347 103.843 713.548 107.877 715.068C118.165 718.835 130.043 719.728 140.499 716.137C142.352 715.355 143.678 714.184 144.336 712.468C129.824 713.791 114.586 712.829 101.004 707.346ZM156.328 685.077C157.239 689.569 163.036 690.098 166.918 690.853C176.189 692.789 185.55 694.345 194.963 695.444C213.204 697.641 231.657 698.018 249.988 697.185C250.483 696.971 250.801 696.561 251.426 696.562L251.502 696.564C251.538 696.564 251.571 696.567 251.606 696.568C251.301 696.368 251.04 696.104 250.846 695.793C219.339 692.336 187.64 689.982 156.328 685.077ZM187.132 646.565C179.564 647.877 171.84 648.569 164.199 647.377C163.684 653.689 161.236 659.82 159.31 665.859C169.867 668.645 176.854 656.954 186.298 654.727C185.763 651.935 185.952 649 187.132 646.565ZM109.133 641.739C109.159 641.783 109.172 641.836 109.167 641.899C109.13 649.254 108.383 656.583 107.298 663.862C114.005 656.645 125.232 654.817 134.478 657.818L134.437 657.349C134.2 654.684 133.844 651.955 134.28 649.315L133.856 649.197C129.087 647.883 117.874 645.248 109.133 641.739ZM247.299 364.368C205.994 375.437 162.026 376.132 120.29 366.979C122.371 373.643 123.935 380.427 125.039 387.304C127.405 404.992 133.925 421.708 138.316 438.941C143.383 459.28 144.59 476.407 142.068 497.182L141.991 497.812C136.439 544.401 113.702 586.932 103.02 632.163C115.591 639.781 131.12 642.758 145.534 645.908C154.593 627.254 162.248 608.124 167.264 588.038C185.335 524.991 209.146 465.628 203.857 399.063C202.678 398.291 203.061 396.661 203.709 395.62C203.485 390.818 203.176 386.021 202.668 381.245C202.651 381.083 202.922 381.051 202.955 381.207C203.794 385.297 204.675 389.377 205.411 393.488C210.49 388.328 213.774 381.879 218.239 376.281C218.875 380.461 210.169 396.653 206.339 399.158C214.501 449.212 200.909 495.033 186.228 542.637C176.349 576.818 166.751 611.099 156.559 645.186C156.682 645.187 156.806 645.19 156.93 645.194C156.317 644.067 169.288 644.844 170.354 644.279C179.907 643.376 189.256 641.116 198.548 638.85L199.688 638.556C202.003 637.949 204.691 637.075 205.108 634.604L205.114 634.292C205.116 634.2 205.121 634.127 205.128 634.12L205.062 633.842C205.047 633.778 205.037 633.728 205.039 633.713L204.947 633.576C204.841 633.422 204.741 633.286 204.882 633.442C203.833 632.297 203.738 630.527 204.949 629.432C207.22 546.173 234.075 469.972 244.021 387.645C245.007 379.871 246.21 372.128 247.299 364.368ZM82.7678 380.488C77.9919 386.411 77.1715 394.676 79.0545 401.895C80.0432 405.477 82.0422 408.494 84.1032 411.566C87.7173 416.688 89.4029 422.638 90.3223 428.737L90.3482 428.852C90.7676 430.813 91.0278 436.221 93.8015 435.612C94.53 435.145 94.879 433.09 95.1352 432.015L98.3371 418.928C99.264 415.138 99.8198 410.635 103.104 408.012L103.492 407.765C106.175 406.043 108.791 404.045 109.212 400.688C110.137 396.574 108.418 392.591 107.776 388.591C99.2117 386.635 90.8501 383.874 82.7678 380.488ZM264.541 363.578L264.254 363.719C260.96 365.358 251.131 370.661 248.597 368.625C248.656 380.747 247.684 392.81 246.259 404.835C246.623 404.755 246.999 404.765 247.336 404.888C254.482 402.913 262.246 389.426 262.846 382.496C263.334 376.187 262.079 369.607 264.541 363.578ZM147.052 177.775L146.688 177.295C142.819 172.213 140.648 170.398 133.958 173.109C134.857 174.22 135.281 175.709 134.897 177.251L134.872 177.349C132.761 186.017 121.934 191.039 114.009 186.323C111.24 187.042 108.353 185.056 108.242 182.24C100.4 186.847 96.7764 195.289 95.306 203.768C100.454 201.063 107.376 203.645 109.431 209.023C113.934 218.854 100.81 229.08 92.8075 220.802C91.0735 237.383 90.2596 254.092 87.1009 270.5C89.4419 266.657 95.0233 265.753 98.3515 268.915C109.249 278.305 96.7151 299.636 83.5413 289.467C81.9447 298.601 81.3814 307.864 81.4562 317.105C85.6777 315.481 87.9887 322.763 88.2947 325.845C88.6769 329.555 86.758 337.333 82.2613 337.771L82.6311 343.704C83.2594 353.871 83.8177 364.029 83.678 374.222C83.9041 374.278 84.0967 374.381 84.2578 374.514C84.2696 374.809 84.3087 375.103 84.3648 375.395C84.4202 375.683 84.6041 375.836 84.8209 375.884L84.8283 375.896C84.8185 376.1 84.7785 376.304 84.7017 376.497C92.9555 379.946 101.476 382.794 110.154 385.036C109.941 382.153 109.995 379.278 110.296 376.429C107.014 373.315 111.05 362.01 111.437 357.616C112.953 348.813 114.107 339.954 115.128 331.084C112.082 330.824 110.522 327.65 109.721 325.067C108.677 322.222 108.047 319.185 108.782 316.195C109.528 312.634 113.525 309.231 117.295 310.485L117.532 308.1C119.024 292.993 120.329 277.861 122.563 262.837C115.266 266.901 108.375 258.064 110.137 251.204C110.654 248.292 112.43 245.471 115.052 243.958C117.371 242.628 122.164 241.31 123.684 244.237C124.396 244.328 125.063 244.674 125.568 245.186C127.144 237.039 129.061 228.828 132.112 221.106C122.469 215.06 124.273 199.838 136.965 199.818C154.082 201.281 149.528 226.2 133.02 221.514C127.834 252.7 124.846 284.144 122.194 315.618C124.19 318.865 123.874 323.682 121.135 326.414C119.944 337.8 118.499 349.162 116.601 360.456C129.157 363.249 141.868 365.559 154.717 366.623C155.335 362.657 159.658 360.541 163.394 360.222C165.868 359.957 168.56 360.894 170.923 361.342C173.778 362.433 176.115 364.94 177.158 367.675C189.153 367.747 201.155 366.991 213.038 365.44C211.837 359.475 220.538 354.927 225.835 355.855C227.954 356.115 230.022 356.916 231.611 358.345C233.163 358.673 234.621 360.011 235.006 361.621C239.213 360.622 243.523 359.862 247.587 358.378C251.576 357.073 252.879 353.796 251.846 349.923C240.566 354.432 230.995 336.545 241.758 330.074C243.136 329.056 246.007 328.398 246.815 330.323C246.952 330.346 247.089 330.375 247.225 330.408C246.329 326.727 245.428 323.048 244.527 319.368C239.356 318.875 237.629 311.304 241.924 308.644C240.463 302.54 239.045 296.424 237.715 290.291C230.627 291.749 224.753 282.953 226.253 276.598L226.3 276.406C227.147 272.952 229.723 269.555 233.528 268.981C232.629 263.791 231.826 258.582 231.15 253.357C230.169 252.316 229.73 250.764 230.112 249.39C230.388 239.346 228.347 229.004 229.17 218.816C221.649 227.936 205.978 221.729 209.558 209.695C209.348 198.547 225.231 194.596 230.586 204.451C231.16 202.349 231.897 200.257 232.258 198.09C232.312 197.841 232.698 197.891 232.72 198.125L232.721 198.151C233.52 212.407 232.932 226.757 234.466 240.997C240.197 241.278 242.538 254.915 236.312 255.894C238.666 271.748 242.203 287.395 246.047 302.969C252.725 301.258 255.308 315.578 249.809 317.987C251.409 324.318 253.001 330.648 254.556 336.99L254.586 336.976C255.393 335.592 257.545 335.746 258.929 336.01C263.499 337.69 261.567 345.942 256.591 345.437C259.305 353.586 257.585 361.147 248.529 363.946L248.534 364.206C248.814 363.987 249.155 363.81 249.567 363.694C255.226 362.109 260.511 359.647 265.387 356.455C263.952 332.926 257.124 310.116 251.599 287.293C245.249 286.283 243.224 276.137 248.177 272.4C244.748 257.247 243.761 241.751 242.083 226.362C237.51 225.367 236.354 218.047 240.483 215.804C237.867 196.693 228.015 180.584 209.634 172.391C209.038 175.111 208.049 177.752 206.726 180.224C206.85 180.231 206.969 180.246 207.087 180.266C207.117 180.32 207.155 180.375 207.205 180.427C208.201 181.442 208.839 182.586 209.243 183.809C209.282 184.072 209.326 184.335 209.37 184.597C209.326 184.705 209.276 184.811 209.219 184.915C211.188 192.383 201.958 196.2 195.725 194.53C194.759 194.34 194.128 193.8 193.791 193.118C182.757 199.035 168.356 197.788 158.416 189.964C151.191 193.812 141.888 184.825 147.052 177.775ZM95.2732 345.207C105.831 343.658 109.284 360.58 100.775 365.279C98.0314 366.904 94.2586 367.044 91.5573 365.249C84.3644 360.906 86.3651 346.099 95.2732 345.207ZM135.461 335.081C148.898 335.024 150.048 355.582 138.328 359.284C129.612 361.792 121.074 352.162 125.544 344.132C125.957 339.137 130.292 335.154 135.461 335.081ZM177.33 336.947C178.029 331.636 183.613 326.562 189.233 328.024C194.383 329.318 195.726 335.304 196.639 339.737C198.715 348.916 188.257 358.222 179.444 353.167C173.815 349.818 172.992 341.623 177.33 336.947ZM207.341 305.954C209.224 302.974 213.443 301.662 216.888 302.7C226.335 305.697 225.213 320.744 217.611 325.229C204.552 332.02 194.137 312.496 207.341 305.954ZM145.81 314.744C145.589 305.803 154.876 297.663 163.599 302.746C177.718 312.146 163.259 333.713 149.712 321.626C147.298 320.078 145.871 317.565 145.81 314.744ZM128.244 291.93C121.71 281.819 132.932 266.829 143.643 276.517C147.316 280.263 147.152 287.132 145.025 291.585C141.566 297.534 131.96 297.673 128.244 291.93ZM175.693 272.968C180.793 268.104 189.704 268.053 193.579 274.471C198.172 282.388 192.69 295.933 182.337 295.289C171.58 294.531 168.633 279.508 175.693 272.968ZM148.975 257.159C140.792 248.831 149.677 235.473 160.775 238.69C178.913 245.32 163.172 270.269 148.975 257.159ZM193.643 255.28C186.355 242.072 204.061 230.195 213.071 242.909C219.983 254.424 201.324 267.716 193.643 255.28ZM169.871 217.705C163.564 206.696 174.585 194.462 186.165 200.924C202.642 212.292 181.551 234.156 169.871 217.705Z" fill="black"/>
<path fill-rule="evenodd" clip-rule="evenodd" d="M182.697 56.5757C193.307 56.5757 206.038 61.7199 207.12 61.8228L207.149 61.8243C207.719 61.8243 209.944 63.5197 213.825 66.9105L209.621 75.1096L209.961 75.4345C211.589 76.9952 212.979 78.4179 214.076 79.5393C223.032 88.696 224.642 124.648 222.531 137.186C220.42 149.723 216.511 161.992 198.311 161.992C180.11 161.992 159.862 151.047 156.743 147.639C154.663 145.367 152.328 144.278 149.736 144.373C149.629 144.239 149.523 144.105 149.419 143.971L149.037 143.917C145.45 143.397 142.879 142.698 141.326 141.819C138.292 140.102 134.957 131.077 134.957 129.089C134.957 127.121 129.977 112.802 129.878 111.287L129.876 111.245C129.876 109.979 123.37 104.156 123.37 102.307C123.37 100.457 122.059 100.57 123.37 94.0534L123.751 92.1391C125.147 85.2012 127.878 73.713 138.292 68.7211C149.736 63.2354 171.979 56.5757 182.697 56.5757Z" fill="#D08B5B"/>
<path fill-rule="evenodd" clip-rule="evenodd" d="M212.447 69.6651L213.228 68.1421C209.844 68.2378 205.853 68.3873 201.64 68.6211C195.784 68.9461 189.489 69.4346 183.796 70.168C178.119 70.8993 172.985 71.881 169.478 73.2119C165.819 74.6008 162.923 77.8948 160.637 81.8965C158.343 85.9133 156.604 90.7478 155.304 95.3838C154.003 100.025 153.133 104.498 152.588 107.809C152.316 109.464 152.125 110.832 152.001 111.786C151.941 112.251 151.897 112.619 151.868 112.874C151.741 112.937 151.585 113.016 151.403 113.11C150.872 113.385 150.115 113.788 149.208 114.308C147.396 115.347 144.975 116.856 142.55 118.73C141.336 119.669 140.542 120.406 140.043 120.994C139.567 121.556 139.265 122.089 139.257 122.607C139.249 123.15 139.551 123.484 139.833 123.662C139.831 123.869 139.829 124.129 139.831 124.432C139.834 125.232 139.855 126.333 139.922 127.535C139.99 128.736 140.103 130.048 140.296 131.266C140.488 132.471 140.765 133.639 141.178 134.521C141.657 135.542 142.67 136.262 143.746 136.78C144.843 137.309 146.134 137.688 147.343 137.96C148.558 138.233 149.721 138.405 150.578 138.508C150.937 138.551 151.244 138.582 151.48 138.604L152.77 142.924L152.598 144.854C153.092 145.021 153.575 145.239 154.047 145.506L154.278 142.914L154.291 142.771L154.25 142.633L152.772 137.685L152.623 137.184L152.101 137.15H152.096L152.08 137.149L152.071 137.149C152.056 137.148 152.036 137.146 152.011 137.145C151.95 137.14 151.859 137.132 151.742 137.122C151.507 137.101 151.168 137.068 150.756 137.019C149.932 136.919 148.822 136.756 147.672 136.497C146.517 136.237 145.349 135.889 144.397 135.43C143.423 134.96 142.793 134.433 142.536 133.884C142.213 133.195 141.962 132.194 141.778 131.031C141.595 129.881 141.485 128.624 141.419 127.452C141.354 126.282 141.334 125.206 141.331 124.424C141.329 124.033 141.331 123.716 141.333 123.497C141.335 123.388 141.336 123.303 141.337 123.246C141.338 123.229 141.338 123.214 141.339 123.202C141.339 123.194 141.339 123.187 141.339 123.182V123.161L141.358 122.43L140.862 122.404C140.925 122.299 141.026 122.154 141.187 121.965C141.59 121.49 142.293 120.826 143.468 119.917C145.823 118.096 148.182 116.626 149.955 115.609C150.84 115.102 151.577 114.708 152.091 114.442C152.348 114.31 152.55 114.209 152.686 114.142C152.707 114.131 152.727 114.121 152.746 114.112C152.785 114.093 152.817 114.078 152.84 114.066L152.878 114.048C152.882 114.046 152.885 114.045 152.887 114.044L152.889 114.043L153.272 113.861L153.315 113.441L152.569 113.365L153.315 113.44V113.436L153.317 113.418L153.325 113.347L153.327 113.327C153.334 113.264 153.343 113.176 153.356 113.064C153.385 112.816 153.428 112.448 153.489 111.979C153.61 111.039 153.8 109.689 154.069 108.053C154.607 104.777 155.466 100.361 156.749 95.7891C158.032 91.2113 159.731 86.5067 161.94 82.6396C164.157 78.7575 166.83 75.8214 170.01 74.6143C173.343 73.3493 178.331 72.3841 183.989 71.6553C189.631 70.9284 195.886 70.4431 201.723 70.1191C205.583 69.9049 209.258 69.7613 212.447 69.6651ZM154.25 142.633L153.532 142.847H153.531L154.25 142.633Z" fill="#9DDADB"/>
<path fill-rule="evenodd" clip-rule="evenodd" d="M136.526 68.4632C142.233 62.4048 174.635 53.0339 191.028 55.0203L191.519 55.084C192.828 55.2499 194.117 55.5012 195.389 55.8425C199.502 56.8031 203.75 58.2576 207.148 60.6872C209.985 62.6747 218.935 65.9206 216.297 71.1201C217.275 72.9733 217.64 75.2628 216.979 77.088C216.896 77.7185 216.702 78.2992 216.453 78.9012C218.542 81.9849 220.197 85.4723 221.536 88.7892C223.876 97.137 225.333 105.824 225.546 114.341C226.255 130.522 224.481 149.851 210.39 160.314C201.877 166.945 188.542 167.167 178.975 158.947C178.432 158.304 175.879 156.57 176.731 156.266C176.985 156.534 177.246 156.795 177.511 157.05C177.499 157.022 177.497 156.994 177.501 156.963L177.252 156.737C176.782 156.302 176.173 155.671 176.866 155.794C176.897 155.83 176.93 155.861 176.963 155.896C177.11 155.984 177.221 156.061 177.308 156.128L177.352 156.164L177.338 156.149C176.939 155.723 176.699 155.289 177.297 155.566L177.376 155.605C177.641 155.884 177.911 156.152 178.186 156.413C178.182 156.382 178.186 156.351 178.203 156.318L177.947 156.07C177.696 155.825 177.735 155.824 177.857 155.626C177.325 154.881 178.318 155.323 178.388 155.614C179.009 155.467 179.554 156.633 179.954 156.776C197.491 170.259 222.94 158.295 222.528 120.723L222.522 119.988C222.402 107.974 221.391 95.6259 216.422 84.7506C215.939 83.703 215.398 82.6838 214.803 81.6979C214.393 80.9584 213.955 80.2379 213.483 79.5364C212.163 79.4297 210.86 79.1879 209.576 78.8135C209.134 78.7021 208.698 78.5788 208.263 78.4343C201.892 78.7817 195.664 79.1597 189.276 79.5181L187.281 79.6424C181.869 79.9903 176.273 80.5476 171.906 83.895C167.621 86.9424 167.602 92.9518 163.934 96.2977C158.704 99.8479 158.665 103.049 157.658 108.281C157.733 112.225 160.467 117.955 155.449 119.615C156.296 120.822 155.116 120.242 155.023 119.819C155.014 119.821 155.004 119.823 154.997 119.823C155.751 121.226 154.643 120.343 154.544 119.892C154.485 119.875 154.426 119.833 154.367 119.774C155.127 121.002 153.898 120.142 153.971 119.918C152.502 117.661 149.48 117.31 147.349 117.908C147.323 117.989 147.229 117.996 147.169 117.953C138.11 119.917 140.447 138.673 149.731 136.86C150.129 136.779 150.119 136.969 150.198 136.988C149.984 136.424 150.588 136.654 150.582 136.772L150.619 136.77C150.648 136.768 150.636 136.764 150.658 136.772C150.45 135.62 151.617 137.289 151.525 137.357C151.561 137.336 151.601 137.324 151.637 137.319L151.596 137.21C151.403 136.694 151.419 136.909 151.421 136.613C151.275 136.248 151.265 136.408 151.299 136.17C151.81 135.773 151.961 136.976 152.132 137.063C151.839 136.656 152.072 136.323 152.348 136.544C154.438 140.943 157.139 145.075 160.63 148.331C161.012 148.632 161.398 148.928 161.798 149.208C163.283 150.501 165.561 151.333 166.951 152.479C166.951 152.498 166.941 152.521 166.927 152.545L166.959 152.574L166.991 152.604L167.475 152.836C167.617 152.957 167.745 153.092 167.858 153.242C167.979 153.382 168.086 153.536 168.176 153.699C168.221 153.898 168.121 153.981 167.932 153.896C167.849 153.867 167.766 153.834 167.683 153.803C167.688 153.811 167.69 153.815 167.695 153.82C167.722 153.861 167.906 154.288 167.694 154.219L167.669 154.209C167.552 154.166 167.437 154.119 167.323 154.074C167.458 154.242 167.581 154.424 167.69 154.578C167.806 154.699 167.877 154.842 167.906 155.003C167.901 155.093 167.851 155.131 167.761 155.119C167.624 155.074 167.489 155.026 167.353 154.977L167.392 155.05C167.488 155.238 167.623 155.554 167.382 155.448C167.176 155.384 166.977 155.311 166.778 155.23C166.761 155.263 166.728 155.275 166.662 155.244C166.029 155.019 165.417 154.744 164.832 154.42C164.318 154.045 163.799 153.678 163.282 153.306C162.796 153.014 162.327 152.689 161.879 152.325C158.882 150.389 156.259 147.929 154.177 145.191C150.696 148.206 143.736 145.325 139.43 142.965C135.622 140.856 134.126 136.955 133.739 132.75C132.934 127.089 128.308 125.151 128.63 112.73C128.623 112.732 128.615 112.732 128.606 112.732C128.438 112.682 128.274 112.616 128.12 112.531C127.961 112.455 127.812 112.365 127.672 112.256L127.499 112.016C127.409 111.966 127.329 111.914 127.267 111.862L127.235 111.903C127.134 112.025 127.202 111.842 127.208 111.805L126.907 111.397C126.195 110.424 125.413 109.332 124.776 108.459L124.756 108.494C124.742 108.521 124.734 108.54 124.741 108.549C123.225 106.371 121.8 103.741 121.404 101.194C120.936 99.2328 121.119 97.2116 121.527 95.3947C123.276 89.0322 129.004 74.6343 136.526 68.4632ZM177.655 156.454L177.56 156.369L177.643 156.474C177.687 156.528 177.732 156.577 177.805 156.626C177.8 156.61 177.8 156.593 177.802 156.574C177.754 156.537 177.704 156.497 177.655 156.454ZM190.954 58.2172C179.838 57.2614 168.904 59.7106 158.296 62.6754L157.564 62.8858C151.532 64.607 145.154 66.1559 140.057 69.8402C132.935 75.2955 129.257 83.9738 126.048 91.9864C123.246 97.9396 124.678 104.652 128.901 108.809C129.341 104.679 130.09 100.669 131.261 96.6908C131.505 96.0694 131.32 95.8658 131.847 95.7848C132.642 106.504 128.725 114.424 136.477 127.128C139.84 133.123 135.947 137.509 145.445 140.663L145.702 140.762C147.681 141.508 149.842 142.098 151.78 141.68L151.607 141.398C151.429 141.107 151.376 140.966 151.633 140.841C151.626 140.827 151.617 140.813 151.607 140.796C151.399 140.403 151.197 140.005 151.005 139.602C150.927 139.628 150.849 139.647 150.768 139.668C150.821 139.765 150.828 139.862 150.681 139.896C150.159 140.075 149.622 140.147 149.073 140.113L148.956 140.104C148.335 140.066 147.945 139.953 147.595 139.848C147.479 139.829 147.363 139.81 147.249 139.787C146.124 139.537 144.934 138.903 144.164 138.274C135.381 133.286 136.289 116.304 147.114 114.699C147.336 104.007 152.421 85.9687 160.86 75.7804C168.489 66.4088 189.314 62.3469 203.802 63.7792C204.013 63.8491 204.225 63.9197 204.436 63.991C206.671 64.1897 208.801 65.1856 211.038 65.6482C209.432 64.4444 207.61 63.6426 205.733 62.9612C201.994 60.6739 197.708 59.4362 193.566 58.5633C192.708 58.3523 191.839 58.2362 190.954 58.2172ZM146.62 123.288C147.202 122.972 147.135 123.277 147.269 123.189C151.456 122.847 155.97 126.513 158.311 129.569C158.126 129.761 157.626 129.192 157.538 129.102C157.526 129.114 157.512 129.124 157.498 129.128L157.563 129.22C158.511 130.582 156.631 128.98 156.455 128.649C156.424 128.666 156.393 128.676 156.358 128.668C156.507 128.815 156.962 129.196 157.04 129.467L157.161 129.568C158.299 130.542 158.205 131.276 156.913 129.891C156.943 129.955 156.955 130.015 156.934 130.062L156.978 130.092C157.614 130.536 158.136 131.774 156.808 130.503C156.946 131.431 155.492 129.637 155.445 129.65C152.929 127.674 149.224 125.753 146.068 125.495L145.959 125.482C145.38 125.408 145.106 125.236 145.309 124.857C144.596 124.688 144.763 124.336 145.101 124.348C144.598 124.017 145.051 123.7 145.343 123.824C145.142 123.268 145.947 123.638 146.02 123.561C146.438 122.916 146.551 123.454 146.62 123.288ZM137.844 88.839C139.855 88.1024 145.795 90.3075 145.32 93.228C145.037 93.8985 144.104 94.2827 143.449 93.9042L142.594 93.3297C141.105 92.3329 139.763 91.4587 138.165 90.5893C137.295 90.1577 136.921 89.2415 137.844 88.839ZM149.284 84.499L148.508 83.9936C144.317 81.2505 138.392 77.0942 148.899 81.3944C150.097 81.908 151.688 82.2119 152.341 83.3524C153.368 85.4544 150.666 85.5957 149.284 84.499ZM149.756 72.1913C149.419 70.915 153.604 72.4127 154.822 72.8075L155.008 72.8776C156.193 73.3192 157.551 73.7288 158.26 74.7515C159.09 76.1645 157.409 76.4573 156.368 75.819C154.234 74.4239 151.893 73.3714 149.756 72.1913ZM160.396 66.2459C158.041 63.6735 164.344 66.1378 165.289 66.8218L165.316 66.842C166.02 67.338 165.877 68.4065 165.215 68.7203C163.332 68.7561 161.946 67.1861 160.396 66.2459ZM171.114 63.4277C167.37 60.7364 172.302 62.0165 174.015 63.0712C175.183 64.101 173.98 65.8395 171.114 63.4277Z" fill="black"/>
<path fill-rule="evenodd" clip-rule="evenodd" d="M181.852 145.333C183.775 140.837 187.971 137.533 192.803 136.325C196.351 135.441 200.075 135.469 203.692 135.82C205.587 136.003 207.619 136.153 209.405 136.855C210.93 137.455 212.173 138.589 213.108 139.92C214.22 141.498 214.977 143.303 215.508 145.154C215.583 145.417 215.654 145.682 215.72 145.949C215.489 147.345 214.999 148.533 213.703 149.411C212.438 150.269 210.929 150.619 209.425 150.744C209.278 150.673 209.135 150.6 209.005 150.526C206.661 149.187 205.011 146.022 202.052 146.45C199.412 146.833 197.674 150.148 196.104 152.092C191.064 152.678 186.028 151.167 181.927 148.291C181.719 147.307 181.707 146.314 181.852 145.333ZM219.146 141.923C218.743 140.793 218.235 139.7 217.633 138.67C215.643 135.263 212.588 132.548 208.962 130.997C200.383 127.331 189.283 129.915 182.355 135.927C179.989 137.982 177.596 141.002 176.872 144.251C176.656 144.293 176.452 144.406 176.285 144.564C171.279 141.419 166.125 138.393 162.091 134.033C159.162 130.866 157.125 127.118 155.877 122.998C155.775 122.659 155.227 122.709 155.244 123.084C155.249 123.172 155.254 123.259 155.258 123.347C155.206 123.186 154.959 123.269 154.94 123.425C154.269 128.429 153.43 133.735 154.203 138.765C154.665 141.766 156.031 143.963 157.858 146.336C159.814 148.879 162.03 151.245 164.295 153.513C165.732 154.953 167.233 156.614 168.993 157.67C171.04 158.896 173.362 159.829 175.546 160.775C177.769 161.741 180.024 162.633 182.322 163.407C186.916 164.958 191.665 166.031 196.496 166.501C200.364 166.876 204.785 167.284 208.492 165.832C211.333 164.719 213.627 162.707 215.446 160.287C217.426 157.651 218.992 154.648 219.857 151.482C220.757 148.193 219.335 142.453 219.146 141.923Z" fill="black"/>
<path fill-rule="evenodd" clip-rule="evenodd" d="M197.255 143.847C195.659 143.197 194.235 142.113 193.193 140.728C192.831 140.247 192.737 139.738 192.813 139.273C192.899 138.75 193.208 138.277 193.631 137.959C194.055 137.64 194.586 137.483 195.099 137.563C195.544 137.632 195.988 137.876 196.339 138.381L196.412 138.482C197.031 139.318 197.838 140.004 198.757 140.446C199.643 140.872 200.634 141.071 201.66 140.955C203.613 140.735 204.959 139.681 206.39 138.249C206.567 138.069 206.745 137.882 206.923 137.693C207.036 137.521 207.192 137.411 207.365 137.353C207.558 137.289 207.776 137.292 207.976 137.362C208.168 137.429 208.34 137.556 208.456 137.725C208.565 137.886 208.628 138.084 208.607 138.313C208.476 139.796 207.699 141.12 206.595 142.16C205.369 143.314 203.744 144.113 202.214 144.393C200.528 144.702 198.811 144.481 197.255 143.847ZM203.009 120.962C204.803 122.05 207.535 124.587 205.606 127.284C203.335 129.662 200.065 126.935 198.454 125.702C196.96 124.746 195.282 127.204 196.668 128.32C208.31 136.922 213.035 121.246 203.916 119.683C202.912 119.51 202.539 120.625 203.009 120.962ZM182.146 110.955C182.344 108.5 186.09 107.943 186.462 110.372C186.796 112.548 186.403 114.546 185.421 116.505C184.483 118.377 182.124 117.504 181.946 115.8C181.707 113.515 182.022 112.482 182.146 110.955ZM210.66 109.868C211.182 109.186 211.936 108.72 212.839 108.983C215.662 109.806 214.83 113.805 213.839 115.752C213.3 116.809 211.559 117.077 210.772 116.146C209.49 114.628 208.876 111.597 210.506 110.102C210.55 110.025 210.599 109.947 210.66 109.868ZM185.381 100.215L185.827 100.137C187.207 99.8986 188.922 99.6699 189.897 100.777C190.415 101.363 190.593 102.454 189.897 103.016C188.674 104.004 187.321 103.621 185.855 103.705C184.646 103.774 183.485 103.974 182.321 104.306C179.768 105.034 177.687 106.364 175.506 107.824C175.22 108.015 174.928 107.65 175.064 107.383C176.323 104.922 178.763 102.9 181.207 101.668C182.511 101.01 183.938 100.465 185.381 100.215ZM208.086 99.1123L208.428 99.182C212.141 99.9567 216.966 101.504 218.725 105.145C218.792 105.659 218.721 105.77 218.664 105.842L218.644 105.866C218.597 105.927 218.559 106.012 218.336 106.082C218.273 106.067 218.211 106.052 218.148 106.035C217.341 105.824 216.704 105.534 216.086 105.233L215.417 104.903C214.64 104.523 213.856 104.157 213.026 103.887C211.254 103.31 209.431 102.903 207.58 102.686C207.179 102.639 206.792 102.504 206.488 102.273C206.198 102.053 205.977 101.749 205.876 101.344C205.746 100.82 205.783 100.424 206.065 99.9517C206.277 99.597 206.579 99.3511 206.927 99.2099C207.282 99.066 207.685 99.0321 208.086 99.1123Z" fill="black"/>
<path fill-rule="evenodd" clip-rule="evenodd" d="M230.587 102.917C230.392 102.885 230.196 102.854 230.001 102.825C229.848 102.739 229.669 102.672 229.46 102.632C228.984 102.512 228.511 102.43 228.039 102.386C221.263 100.865 205.587 103.025 204.94 108.796C202.782 109.515 200.915 108.871 198.414 108.935C196.51 100.994 163.598 102.115 162.015 106.903C162.009 106.901 162.004 106.9 161.997 106.898C160.476 106.428 158.234 106.541 156.494 106.467C152.777 106.389 149.055 106.72 145.419 107.502C138.609 108.582 129.315 109.846 134.051 118.333C134.052 118.335 134.052 118.336 134.054 118.338L134.054 118.337C134.871 119.172 136.256 118.5 136.307 117.369C134.715 113.349 138.312 112.866 141.079 111.711C147.964 109.242 154.975 108.9 162.096 109.663C162.632 110.293 163.445 110.842 164.304 111.129C169.065 111.918 166.556 115.443 169.566 115.955C169.013 128.242 183.961 134.949 192.622 126.872C196.08 123.498 196.904 118.5 197.706 113.994C198.13 113.899 198.399 113.668 198.557 113.362C199.576 112.346 200.217 111.408 202.233 111.129C204.249 110.85 205.801 111.41 206.011 111.581C206.064 111.688 206.121 111.794 206.187 111.901C206.279 112.06 206.404 112.187 206.547 112.287C204.556 124.522 214.074 132.26 223.682 125.914C227.857 121.994 228.739 115.994 228.914 110.638C229.48 110.297 229.838 109.637 229.642 108.806C229.372 107.661 230.005 106.67 231.014 106.172C232.324 105.526 232.092 103.166 230.587 102.917ZM189.3 108.722C188.107 108.46 187.598 110.295 188.795 110.558C189.642 110.743 190.36 111.17 190.845 111.892L190.896 111.971C191.547 113.005 193.193 112.05 192.538 111.01C191.8 109.839 190.654 109.019 189.3 108.722ZM224.232 107.584C223.811 107.288 223.175 107.508 222.931 107.925C222.662 108.385 222.838 108.897 223.232 109.198L223.272 109.228C223.633 109.482 223.985 109.937 224.029 110.404L224.033 110.462C224.081 111.683 225.982 111.689 225.935 110.462C225.888 109.261 225.192 108.258 224.232 107.584Z" fill="black"/>
</svg>
