<svg width="391" height="780" viewBox="0 0 391 780" fill="none" xmlns="http://www.w3.org/2000/svg">
<path fill-rule="evenodd" clip-rule="evenodd" d="M84.3016 364.501C84.3418 367.225 84.6152 373.479 85.2999 376.116C77.672 363.91 66.2422 350.569 64.5039 335.619C65.0456 335.471 67.4493 335.25 67.8689 334.936C71.8154 336.766 71.0688 331.133 71.6521 328.527C73.2272 323.011 76.5364 317.586 77.9742 312.033C81.7538 310.401 74.1638 309.71 73.0611 309.678C77.6455 304.582 79.7543 297.577 83.0184 291.633C87.8147 281.531 92.1103 271.203 95.9459 260.714C96.7843 267.287 96.9346 273.93 96.4237 280.539C94.8465 308.845 84.1948 336.063 84.3016 364.501ZM349.042 314.218C346.669 314.617 342.714 314.994 340.346 315.187C343.454 313.337 352.642 309.813 346.852 306.645C345.067 305.994 343.151 306.923 341.351 307.21C333.874 308.438 324.643 308.373 317.079 307.754C319.836 305.495 323.466 302.241 326.157 299.903C327.587 298.661 328.974 298.19 327.365 296.335C324.53 293.699 319.459 295.64 316.181 296.799C307.138 301.857 296.928 307.343 287.222 311.234C287.121 309.877 287.183 308.122 285.872 307.21C282.027 305.4 279.195 305.929 275.103 305.448C270.334 304.734 266.094 303.922 261.371 302.663C258.282 300.311 256.398 293.374 251.458 294.149C255.833 283.157 249.164 271.689 246.659 261.164C243.533 250.393 241.891 239.207 241.846 228.007C241.815 210.076 231.412 196.318 216.38 187.117C210.454 183.122 206.474 173.404 199.138 171.457C198.204 167.883 198.148 166.313 197.328 162.712C196.917 161.677 196.611 156.063 195.577 156.255C194.436 150.694 188.623 148.464 183.592 147.299C177.051 145.946 167.923 144.307 162.043 148.125C160.34 149.54 159.592 151.909 159.467 154.025C158.814 156.843 157.455 159.763 155.87 162.208C153.167 161.296 154.697 159.597 152.023 159.201C127.609 155.588 100.508 173.47 84.6677 190.914C55.9541 220.351 33.0156 260.536 36.7704 302.491C35.7606 302.342 31.2847 301.642 31.3493 303.054C31.5685 309.193 32.7 314.314 33.0123 320.449C32.7019 328.576 41.1594 329.555 47.269 331.56C46.8928 355.139 55.4734 378.725 68.9034 398.107C72.1661 401.921 77.0619 415.157 83.0174 409.884C83.7192 409.065 78.2764 403.388 77.3081 401.985C74.0017 397.83 65.2434 377.254 71.4332 373.145C72.8093 377.586 86.1339 398.943 88.5091 386.821C91.6638 388.649 96.8768 389.897 100.648 389.708C107.738 393.542 114.636 397.683 121.444 401.985C124.616 408.203 129.267 414.175 133.164 420.145C106.194 482.342 79.8689 584.71 45.1612 643.292C42.135 647.117 58.7827 653.62 61.7232 655.023C56.1 664.139 55.3959 674.702 51.1179 684.518C50.303 684.387 49.481 684.56 48.746 684.952C43.4688 688.52 41.4774 701.293 41.1765 707.591C41.4201 710.401 40.3771 714.649 42.6537 716.718C42.3355 717.062 42.098 717.482 41.9289 717.911C40.3267 719.156 40.5241 721.908 41.3805 723.614C44.3938 729.858 66.4196 729.278 73.5673 730.614C98.886 732.755 120.136 733.092 145.452 730.752C148.559 730.102 146.209 725.262 144.675 723.95C145.384 723.519 145.837 722.733 145.527 721.723C139.772 705.291 118.971 706.403 106.385 697.628C109.694 695.717 107.558 696.327 105.479 697.07C103.272 695.686 101.125 694.128 99.1367 692.406C100.664 691.465 99.9107 690.843 98.2584 691.631C95.6543 689.546 93.626 686.323 90.3087 685.313C87.0595 684.518 87.0595 683.131 87.0595 682.256C88.9932 674.494 91.1054 666.533 92.191 658.661C93.3491 660.366 103.341 646.703 105.479 643.292C113.786 630.157 113.763 617.213 119.577 602.929C131.514 571.823 155.967 506.628 170.879 476.878C205.771 533.642 188.776 610.415 210.301 670.945C211.257 672.763 213.056 679.584 215.548 677.616C216.516 677.843 217.545 677.964 218.468 678.095C218.201 684.712 217.705 691.311 216.604 697.859C215.578 698.13 214.706 698.667 214.254 699.607C212.527 698.341 209.219 717.025 208.936 718.929C208.932 721.384 206.812 726.85 208.748 728.31C205.959 729.449 205.503 733.661 207.465 735.827C213.29 743.644 241.685 741.496 252.161 742.806C265.408 742.478 320.826 747.43 324.674 734.883C325.439 732.019 324.128 728.403 321.461 727.301C322.528 724.814 319.972 722.412 318.409 720.667C309.189 711.092 295.011 709.584 282.736 705.417C283.193 704.948 266.711 696.517 263.138 694.433C263.374 691.602 257.481 694.44 257.465 694.433C254.655 689.475 252.665 681.762 250.781 676.414C254.258 675.338 262.635 674.382 264.187 670.945C269.177 669.274 264.172 662.049 263.138 658.661C233.889 585.595 261.639 493.434 218.468 424.471C226.381 419.947 235.46 410.044 227.643 401.738C226.079 399.741 222.252 393.524 222.315 394.609C220.861 388.689 217.615 378.493 216.604 372.507C212.89 350.531 215.324 329.949 218.468 307.754C222.832 324.455 237.875 338.369 253.178 345.999C259.15 348.459 267.037 353.537 273.593 351.935C279.511 350.187 290.259 338.059 291.525 332.234C308.776 334.281 326.688 332.638 343.174 327.224C345.291 326.424 347.795 326.492 347.141 323.494C346.488 320.949 341.835 321.598 339.834 322.07C342.892 320.378 350.832 319.935 350.771 315.509C350.668 314.587 349.986 314.06 349.042 314.218Z" fill="#D08B5B"/>
<path fill-rule="evenodd" clip-rule="evenodd" d="M121.578 403.796L124.672 405.898L125.768 406.639C132.902 411.451 139.026 415.307 145.08 418.709L145.695 419.054L146.311 419.395C154.707 424.036 162.616 427.569 170.276 429.959C188.23 435.562 204.377 434.731 218.988 426.183L219.43 425.922L220.126 425.506L220.724 426.88L221.29 428.188C224.398 435.392 226.648 441.02 228.583 446.594L228.67 446.843L228.832 447.316C234.463 462.902 238.167 479.61 240.565 498.753L240.725 500.047C242.372 513.518 243.23 525.878 244.277 547.908L244.378 550.047L244.862 560.464C245.28 569.303 245.568 574.762 245.931 580.389L246.023 581.802L246.174 584.042L246.251 585.142C246.949 595 247.802 603.76 248.918 612.086L249.067 613.181C251.906 633.828 256.412 651.713 263.366 668.278L263.577 668.779L263.783 669.264L263.379 669.601C263.212 669.74 263.084 669.996 263.061 670.26L263.058 670.313L263.038 670.938L262.414 670.998C260.844 671.15 259.377 671.499 256.917 672.238L255.446 672.684L254.879 672.853C253.436 673.279 252.511 673.52 251.538 673.711L251.355 673.746L251.046 673.802L250.48 673.932L249.907 674.06C240.632 676.111 231.03 676.903 217.608 677.086L216.615 677.098L216.507 677.054L216.498 677.052L216.462 677.046C216.387 677.038 216.272 677.039 216.085 677.054L215.975 677.063L214.989 677.155L214.733 676.159C214.122 673.809 213.495 671.655 212.442 668.251L212.256 667.649L210.97 663.525C208.898 656.847 207.914 653.284 207.109 649.18L207.031 648.776L206.948 648.342L206.944 648.317C204.805 634.059 203.05 620.57 201.382 606.032L201.162 604.106C200.63 599.386 199.691 590.689 198.897 583.279L197.515 570.341L197.407 569.358C194.509 543.081 191.996 528.36 187.25 512.978C183.634 501.258 178.774 489.865 172.077 477.607L171.828 477.153L171.745 477.003L171.527 477.18C169.395 478.911 168.136 480.081 167.836 480.577L167.822 480.601L167.453 481.298L167.141 481.882L165.271 485.338C165.075 485.702 164.905 486.021 164.747 486.32L164.455 486.875L164.038 487.683L163.738 488.274L163.531 488.684L163.298 489.152L162.812 489.878L162.595 490.203L162.184 490.825L161.98 491.139C158.809 496.068 156.325 501.38 153.056 509.778L152.634 510.867L151.965 512.618L149.963 517.906L149 520.434L148.539 521.63C148.088 522.796 147.664 523.876 147.246 524.924L147.037 525.445L146.695 526.29L146.162 527.6L145.79 528.516C141.513 539.083 137.093 550.783 132.359 563.963L131.452 566.495L130.792 568.346C128.149 575.775 125.455 583.524 122.336 592.627L121.548 594.932L120.397 598.303L112.558 621.339L111.254 625.158L110.085 628.565L109.746 629.295L109.415 630.002C105.453 638.438 101.773 645.073 97.5533 651.047L97.4058 651.255L97.3223 651.409L97.2443 651.545C96.9525 652.041 96.5912 652.513 96.0024 653.199L95.9206 653.295L95.2543 654.061L95.1045 654.237C93.9876 655.561 93.5792 656.289 93.5261 657.179L93.5113 657.518L92.3458 658.66L91.8861 658.42L91.7845 658.369C90.863 657.921 89.3182 657.606 86.7623 657.286L86.4686 657.25L85.7871 657.169L83.5747 656.919C81.6103 656.691 80.5047 656.52 79.6848 656.28L79.5794 656.249L79.471 656.214L79.1342 656.148C68.3172 653.994 57.8808 650.115 48.3362 644.697L47.9997 644.505L47.664 644.311L47.0942 643.982L47.7022 642.712C49.3233 639.317 50.9637 635.798 52.6249 632.153C63.2043 608.938 74.2177 581.637 87.3929 546.632L87.7928 545.569L88.8044 542.874L89.6312 540.66C96.3194 522.715 113.644 475.44 119.778 458.905L120.849 456.026L121.141 455.245L125.666 444.099L125.937 443.44C126.077 443.103 126.222 442.753 126.376 442.385L126.78 441.421L128.251 437.935L128.86 436.481C130.03 433.671 130.775 431.783 131.482 429.812L131.569 429.571L131.827 428.838C132.096 428.065 132.058 425.615 131.638 423.065L131.596 422.818L131.551 422.567C130.906 419.058 129.662 415.848 127.838 413.475L127.773 413.391L127.75 413.371L127.073 412.386C125.617 410.258 124.536 408.62 123.538 407.003L123.455 406.868L121.578 403.796Z" fill="#FFCF77"/>
<path fill-rule="evenodd" clip-rule="evenodd" d="M262.635 692.787C263.697 693.837 271.846 700.081 282.851 705.342C289.577 708.557 297.774 710.218 304.7 713.4C312.173 716.833 318.258 721.792 321.975 725.378L325.802 735.587C325.22 739.288 308.014 741.633 289.957 742.23C263.504 743.105 230.637 740.571 227.496 740.237C222.079 739.74 205.199 740.294 208.31 731.466C209.194 731.745 209.473 726.069 210.095 725.522L210.63 721.195C212.167 708.848 213.069 702.204 213.335 701.263C213.404 701.155 213.475 701.049 213.553 700.949C214.468 699.768 216.016 699.437 217.442 699.524C217.557 699.531 217.674 699.546 217.791 699.563C217.985 699.664 218.172 699.783 218.349 699.925L218.499 699.945C218.524 699.949 218.549 699.952 218.574 699.957C218.626 699.965 218.672 699.979 218.715 699.996C218.75 699.937 218.781 699.873 218.813 699.809C219.696 700.078 220.594 700.442 221.456 700.483L222.078 700.757L222.885 701.115L225.212 702.16L225.733 702.391C228.733 703.705 236.264 706.524 243.191 705.579C249.898 704.663 255.531 698.01 257.605 696.258C259.112 694.877 261.23 694.233 262.635 692.787ZM89.4433 684.824C90.1025 684.997 93.0149 686.764 95.5238 689.158C97.8942 691.42 99.7768 694.242 103.309 696.809C108.41 700.518 128.001 707.599 138.683 714.398C144.222 717.923 147.753 729.423 147.845 729.954C114.231 731.879 74.1415 731.503 40.8491 726.199C40.216 726.015 40.4861 711.41 41.9905 701.608L42.0365 701.313C43.1217 694.428 44.3553 690.643 44.4305 690.481L44.5155 690.339C45.8975 688.088 49.6779 685.67 52.1261 687.315L52.1491 687.335L52.6073 687.748C54.7943 689.708 63.933 697.561 70.2777 695.655C72.3552 694.981 74.0801 693.635 75.8874 692.461C80.7507 689.326 83.9563 686.709 89.4433 684.824ZM90.4159 684.39C90.8623 684.677 91.2871 685.001 91.6975 685.348C91.1633 685.028 90.5971 684.763 89.9873 684.574C90.1204 684.525 90.2493 684.471 90.3733 684.411L90.4159 684.39Z" fill="white"/>
<path fill-rule="evenodd" clip-rule="evenodd" d="M149.034 158.069L149.419 158.116C150.917 158.311 152.172 158.636 153.238 159.172L153.36 159.235L153.848 159.491L153.966 160.029C154.338 161.715 155.722 165.518 156.469 167.01L156.509 167.088L156.534 167.136L156.622 167.299L156.807 167.723C160.435 175.987 165.336 183.843 171.309 191.053L171.603 191.406L171.789 191.656C177.225 198.897 184.138 204.098 189.889 204.237L190.062 204.24L190.369 204.237C193.657 204.162 196.588 202.437 199.118 198.775C200.849 196.231 201.835 193.067 202.205 189.274C202.499 186.252 202.405 183.026 202.004 178.982L201.977 178.717L201.912 178.089L201.866 177.665C201.846 177.485 201.813 177.444 201.747 177.439L201.732 177.438L201.706 177.438L201.691 177.439L201.677 177.44L201.651 177.445L200.433 177.934L199.976 176.549L199.879 176.262L199.771 175.949L199.333 174.695L199.194 174.29L199.083 173.96C198.926 173.483 198.795 173.055 198.68 172.631L198.637 172.472L198.005 169.997L200.115 170.761C200.226 170.802 200.336 170.843 200.445 170.887L200.608 170.953L200.762 171.018L200.892 171.121C201.338 171.478 201.788 171.768 202.583 172.222L202.684 172.279L203.728 172.868L203.96 173.064L204.118 173.202C205.083 174.05 205.9 174.957 207.15 176.495L207.252 176.621L208.158 177.747L208.588 178.274L208.836 178.682L209.022 178.994L209.127 179.171L209.717 180.179L209.994 180.648C210.699 181.832 211.15 182.508 211.705 183.194L211.811 183.322L211.887 183.414C212.808 184.503 213.954 185.475 215.667 186.693L215.966 186.905L216.412 187.216L216.578 187.355C216.98 187.689 217.364 187.97 217.74 188.201L217.848 188.266L217.979 188.314L218.549 188.72L218.986 189.034C222.08 191.272 224.391 193.182 226.503 195.331C227.976 196.829 229.347 198.386 230.606 199.993L230.856 200.315C231.065 200.586 231.258 200.843 231.481 201.149L231.716 201.473L232.84 203.047L233.144 203.465C233.575 204.055 233.903 204.48 234.251 204.896L234.309 204.965L234.468 205.151L234.626 205.283L234.735 205.491C235.918 207.732 236.832 210.054 237.476 212.506L237.535 212.736L237.604 212.933C238.462 215.42 239.015 218.051 239.351 221.012L239.383 221.309L239.439 221.848C239.62 223.676 239.71 225.285 239.784 227.907L239.808 228.8L239.891 232.361L239.913 233.182C240.011 236.512 240.158 238.725 240.468 240.983L240.487 241.119L240.524 241.381L240.529 241.416C241.719 251.765 244.142 261.876 247.763 271.574L247.934 272.028L248.061 272.363L248.988 274.778L249.2 275.339C250.186 277.957 250.776 279.767 251.219 281.683C251.832 284.334 252.014 286.753 251.695 289.074L251.668 289.258L251.653 289.38C251.473 290.855 251.44 292.241 251.534 293.267L251.546 293.399L251.887 293.402C253.004 293.41 253.915 293.768 254.641 294.462L254.711 294.53L254.78 294.601C255.329 295.178 255.721 295.88 256.175 296.974L256.283 297.241C256.414 297.574 256.746 298.415 256.989 299.012L257.163 299.43L257.276 299.689C257.44 300.055 258.674 301.504 260.762 302.425C261.983 302.963 265.304 303.519 265.304 303.519L265.518 303.606C268.512 304.802 271.196 305.376 276.474 306.089L277.444 306.218L279.631 306.501C281.828 306.789 283.215 306.997 284.638 307.267L285.047 307.346L287.922 307.919L285.711 309.509C281.911 312.242 268.111 326.996 267.412 332.051C266.582 338.055 279.374 334.089 281.152 332.138L281.352 331.918L281.546 331.701L282.14 331.027L282.726 331.067L283.304 331.109C284.468 331.196 285.676 331.307 286.968 331.444L289.216 331.687L287.624 334.125L287.208 334.758L286.924 335.187L286.634 335.623L286.338 336.062C282.236 342.149 278.767 346.126 274.469 349.076L274.324 349.174L274.244 349.233C273.161 349.997 271.969 350.387 270.665 350.451L270.534 350.456L270.402 350.459L270.298 350.46C269.578 350.46 268.834 350.366 268.038 350.186L267.856 350.144C267.129 349.971 266.439 349.753 265.426 349.392L265.166 349.298L264.32 348.991L263.666 348.757L263.465 348.688C260.592 347.662 257.788 346.501 255.062 345.208C237.531 336.982 224.172 324.529 218.639 309.351L218.474 308.89L218.293 308.37L215.427 308.994L215.351 309.651C211.887 339.892 212.574 363.944 218.77 386.354L218.96 387.033L219.137 387.656L219.435 388.373C220.329 390.514 221.304 392.726 222.533 395.421L223.042 396.533L223.396 396.641L223.621 397.117C223.905 397.72 224.233 398.312 224.603 398.893L224.693 399.032C225.068 399.607 225.455 400.115 226.123 400.919L226.289 401.118L227.277 402.291L227.492 402.551C227.537 402.605 227.58 402.658 227.622 402.71L227.748 402.865L227.957 403.129C228.054 403.252 228.144 403.37 228.231 403.485L228.358 403.656L228.49 403.887C229.03 404.847 229.426 405.705 229.707 406.579L229.758 406.743L229.784 406.828L229.797 406.915C230.554 412.026 228.346 416.592 223.852 420.568C220.5 423.533 216.049 426.031 211.03 428.073L210.739 428.19C204.372 430.579 197.996 431.796 191.533 431.925L191.21 431.931L190.392 431.937C180.671 431.937 170.874 429.519 160.229 424.86L159.756 424.652C152.207 421.315 145.28 417.459 134.131 410.641L133.428 410.211L131.928 409.29L127.818 406.756L127.729 406.552L127.535 406.397L127.405 406.296C126.603 405.682 125.735 405.17 124.215 404.376L123.962 404.245L123.221 403.863L122.371 403.421L121.767 403.056L120.858 402.508C117.566 400.529 114.696 398.862 111.953 397.349L111.704 397.211L111.017 396.835L110.978 396.813C109.328 395.831 107.703 394.882 106.095 393.962L105.448 393.593L104.9 393.214L104.412 392.88L103.92 392.546L103.549 392.297C101.285 390.785 99.4972 389.752 97.647 388.943C95.7729 388.124 94.1747 387.584 92.6787 387.34L92.5243 387.315L92.2836 387.279L92.0765 387.151C91.2021 386.611 90.422 386.032 89.7233 385.391C88.0764 383.881 87.1163 382.068 86.6558 379.848L86.6265 379.702L86.534 379.23L86.7971 378.828C86.8409 378.761 86.8825 378.498 86.9006 377.967L86.9046 377.828L86.915 377.412L86.9213 377.231C86.9422 376.712 86.9815 376.394 87.0835 376.079L87.1096 376.002L87.1326 375.817C87.4487 373.234 87.6264 370.965 87.8377 367.036L87.8812 366.213L88.1055 361.762C88.2249 359.477 88.3299 357.805 88.4619 356.2L88.507 355.666L88.5748 354.913L88.6382 354.162C89.3192 346.275 90.4074 339.631 93.0486 325.982L94.4293 318.862C95.1571 315.075 95.6429 312.443 96.0907 309.83L96.2723 308.759L96.5389 307.146L96.6721 306.318C98.0503 297.665 98.7576 290.34 98.7762 283.333C98.7977 275.178 97.8607 267.625 95.8097 260.391L95.708 260.036L95.6689 259.902L93.5325 261.945C93.5325 261.945 80.0215 289.951 73.5275 302.538L73.2197 303.132L73.1592 303.281C72.8704 304.03 72.8071 305.987 73.0221 307.963L73.0481 308.191L73.0772 308.423L73.1121 308.677C73.2635 309.728 73.4814 310.644 73.7327 311.277C73.8132 311.48 73.893 311.643 73.9646 311.76L73.9911 311.801L74.0084 311.827L74.1403 311.827C74.3545 311.826 74.5682 311.824 74.7811 311.821L75.0999 311.815L75.5755 311.805L78.4002 311.722L76.9277 313.688C72.6822 319.356 69.4251 326.006 67.459 332.96L67.373 333.267L67.0269 334.529L65.9154 334.425L65.715 334.409L65.0976 334.362L64.367 334.294L64.1332 333.928L63.6955 334.2L62.8988 334.048L62.2571 333.922C57.3026 332.932 52.7253 331.644 45.0378 329.205L44.284 328.965L41.4298 328.053L39.9013 327.565L39.6793 327.489L39.4819 327.42L39.2938 327.351C37.1304 326.547 35.8959 325.479 35.2918 323.495L35.2465 323.341L35.2024 323.111L33.1406 312.297L32.8046 310.57C32.4413 308.715 32.1086 307.059 31.7776 305.462L31.5292 304.273L31.0952 302.228L33.225 302.047L33.4755 302.024C34.1251 301.961 34.6292 301.892 35.0526 301.799L35.1464 301.778L35.166 301.283L35.185 300.846C35.2084 300.329 35.2359 299.789 35.2687 299.218L35.2981 298.721L35.343 298.011C35.5931 294.194 36.006 289.989 36.6295 285.443C38.4279 272.334 41.5654 259.245 46.3921 247.004C50.0443 237.742 55.7073 228.151 63.0304 218.307C68.8406 210.497 75.3808 202.926 82.6807 195.271C92.132 185.211 99.635 178.261 107.724 172.593C117.742 165.572 127.859 161.272 138.628 159.929L138.905 159.895L139.352 159.807C139.979 159.687 140.596 159.579 141.437 159.442L141.588 159.418L144.398 158.972L145.163 158.847C146.172 158.678 146.938 158.536 147.688 158.377L148.009 158.307L148.355 158.229L149.034 158.069Z" fill="#9DDADB"/>
<path fill-rule="evenodd" clip-rule="evenodd" d="M159.527 150.264C159.79 150.37 159.969 150.769 160.075 151.367C160.367 151.458 160.617 151.674 160.693 151.998C160.914 152.952 160.655 153.947 160.456 154.898L160.433 155.008C160.244 155.929 160.014 156.844 159.731 157.741L159.69 157.968C159.003 161.677 157.68 165.203 156.125 164.604L156.484 165.257C162.585 176.311 180.01 205.992 193.615 201.761C201.538 198.591 201.425 188.285 200.845 181.112C194.963 184.715 193.862 157.137 195.068 154.089C196.028 153.384 196.491 159.728 196.849 160.603C197.628 164.083 198.584 167.518 199.481 170.968C201.378 171.343 203.172 172.098 204.758 173.18C204.834 173.224 204.912 173.263 204.986 173.308C205.938 173.886 206.68 174.624 207.343 175.441C208.091 176.277 208.731 177.192 209.335 178.133C210.664 179.64 211.93 181.203 213.239 182.726C213.86 183.449 214.496 184.15 215.146 184.833L215.647 185.253C215.731 185.323 215.815 185.393 215.899 185.462C230.93 194.831 241.335 208.851 241.365 227.111C241.409 238.519 243.051 249.913 246.178 260.885C248.683 271.605 256.776 282.563 252.401 293.759C257.341 292.969 257.8 299.31 260.889 301.706L261.86 301.969C266.199 303.135 270.18 304.107 274.62 304.784C278.713 305.275 283.444 304.736 287.289 306.579C288.6 307.508 288.131 309.184 288.233 310.566C297.938 306.602 306.654 301.126 315.697 295.975L316 295.866C319.347 294.68 325.318 292.897 328.068 295.502C329.677 297.392 328.053 299.078 326.623 300.344C323.932 302.725 321.078 304.909 318.321 307.211C325.749 307.83 333.201 307.336 340.548 306.133L340.948 306.066C342.748 305.774 344.871 305.074 346.656 305.737C352.445 308.964 345.746 312.73 342.638 314.615C345.006 314.417 347.371 314.123 349.744 313.718C350.688 313.556 351.37 314.093 351.474 315.033C351.534 319.54 345.588 319.783 342.529 321.507L342.775 321.449C344.774 320.987 347.649 320.581 348.275 323.069C348.93 326.124 344.806 327.358 342.689 328.172C326.204 333.686 308.292 335.361 291.042 333.275C289.776 339.208 279.028 351.562 273.111 353.343C266.554 354.975 258.668 349.802 252.696 347.296C237.394 339.524 223.215 326.703 218.851 309.693C215.183 336.068 216.666 362.659 222.171 388.609C223.063 390.632 224.003 392.624 225.061 394.565C225.381 394.616 225.651 394.83 225.714 395.261C225.746 395.498 225.794 395.728 225.848 395.954C226.901 397.742 228.056 399.459 229.128 401.236C229.35 401.602 229.568 401.984 229.768 402.374C236.905 410.778 228.207 421.608 220.427 426.139C263.597 496.382 235.714 584.904 264.963 659.327L265.028 659.539C266.138 663.078 269.519 670.364 264.629 672.032C263.077 675.533 255.253 675.946 251.777 677.042C253.661 682.489 255.755 687.877 258.565 692.927L258.615 692.949C259.734 692.127 262.134 691.279 263.126 692.174C263.367 692.204 263.607 692.272 263.842 692.389C265.377 693.15 266.612 694.606 268.08 695.523C268.874 696.019 269.699 696.469 270.549 696.862C271.34 697.228 272.181 697.469 272.826 698.073C273.03 698.263 273.082 698.505 273.031 698.728C273.541 698.992 274.05 699.257 274.558 699.523L274.833 699.351C279.32 696.56 282.927 695.048 276.401 700.41C278.739 701.489 281.138 702.434 283.551 703.318C285.384 702.438 287.341 701.795 289.358 701.707C289.721 702.155 286.948 703.886 286.49 704.363C298.766 708.607 312.267 711.931 321.487 721.684L321.589 721.799C323.159 723.567 325.583 725.962 324.539 728.441C327.206 729.564 328.517 733.247 327.752 736.164C323.904 748.943 264.926 743.9 251.679 744.234C241.204 742.899 212.81 745.088 206.984 737.125C205.023 734.919 205.478 730.629 208.268 729.468C206.332 727.982 208.451 722.414 208.456 719.913L208.501 719.624C208.797 717.757 210.083 710.45 211.417 705.343C211.444 704.941 211.497 704.529 211.562 704.114L211.604 703.85C211.869 702.223 212.276 700.567 213.329 699.258C214.085 698.318 215.133 697.738 216.27 697.528C216.575 695.584 216.825 693.635 217.04 691.683C217.191 689.388 217.248 687.089 217.222 684.789C217.209 683.628 217.178 682.467 217.121 681.307C217.08 680.453 217.129 679.439 216.911 678.566C216.767 678.714 216.561 678.793 216.33 678.715C215.84 678.547 215.389 678.238 214.94 677.985C214.923 677.975 214.909 677.964 214.895 677.954C212.493 679.511 210.755 672.847 209.82 671.038C188.297 609.382 205.291 538.426 170.4 480.607C165.583 490.93 161.444 500.4 156.808 510.795C142.329 543.259 124.454 600.443 112.467 634.817C109.205 641.844 105.372 648.636 100.815 654.91C99.358 656.56 98.3805 658.987 96.2716 659.873L96.0871 659.901C95.5243 660.952 94.7429 661.836 93.5811 661.807C93.2961 661.799 93.0054 661.767 92.7119 661.717C91.6822 668.87 90.3874 676.068 88.666 683.106L88.8983 683.009C90.0249 682.544 91.2097 682.148 92.3661 682.252C95.1723 682.961 94.1333 685.411 91.9151 686.219C94.6762 687.076 96.5445 689.492 98.5948 691.503C100.327 690.57 102.27 690.087 104.345 690.291C104.663 690.322 104.905 690.46 105.073 690.651C105.192 690.652 105.308 690.658 105.418 690.676L105.192 690.812C105.561 691.432 105.297 692.374 104.345 692.379C103.597 692.383 102.878 692.451 102.182 692.579C101.698 692.862 101.217 693.147 100.743 693.445C102.343 694.856 104.047 696.157 105.801 697.347C106.727 696.874 107.707 696.478 108.726 696.16C110.041 695.75 110.616 697.838 109.294 698.217C109.014 698.297 108.736 698.387 108.46 698.482L108.189 698.646C108.125 698.684 108.059 698.723 107.991 698.764C120.577 707.702 141.851 706.569 147.606 723.307C147.797 723.938 147.699 724.483 147.431 724.912C148.678 726.055 149.254 728.109 148.973 729.685L148.997 729.817C149.211 731.093 148.903 732.212 147.531 732.503C138.378 733.354 129.248 733.896 120.055 734.063L119.313 734.069C106.142 734.157 42.0786 733.679 39.1889 725.232C38.4183 723.668 38.1808 721.242 39.3084 719.847C39.4392 719.097 39.6969 718.414 40.155 717.879C38.2995 716.007 39.2122 711.288 38.9852 708.912C39.3925 700.979 41.0041 692.472 45.8593 685.979C45.9386 685.877 46.0346 685.813 46.1336 685.783C46.9814 684.932 48.0955 684.394 49.3694 684.322C49.409 684.223 49.4494 684.124 49.4881 684.025C50.4785 681.693 51.4192 679.318 52.3537 676.931C53.0471 674.22 53.7705 671.515 54.4951 668.825C55.2192 666.138 55.9277 663.446 56.6206 660.751C57.1726 658.602 57.6473 656.181 58.6025 654.127C58.5766 654.039 58.5517 653.952 58.5232 653.864L57.5292 653.463C51.0187 650.819 40.703 646.362 42.9695 643.418C67.1219 593.293 90.7638 521.933 112.928 469.968C113.274 468.949 113.641 467.936 114.043 466.932C115.022 464.489 116.013 462.05 117.019 459.617L117.624 458.158L127.28 434.954C128.291 432.525 129.43 430.109 130.227 427.599C130.994 425.182 131.2 422.776 129.742 420.576C128.437 418.608 126.599 416.979 125.128 415.13C124.015 413.731 122.931 412.238 121.959 410.668C121.077 409.506 120.339 408.176 119.681 407.104C118.626 405.386 117.285 403.484 116.52 401.499C115.532 400.878 114.543 400.259 113.551 399.647C111.836 398.687 110.149 397.682 108.507 396.595C106.434 395.363 104.347 394.154 102.243 392.971C101.484 392.594 100.724 392.219 99.9634 391.846C97.6845 392.043 91.3886 389.237 89.2439 387.339C88.9988 387.29 88.7549 387.234 88.5124 387.173C88.4155 388.386 88.0189 389.484 87.0948 390.298C80.9493 393.344 73.1164 379.549 70.9576 374.946C66.6676 379.132 76.9039 399.838 80.2105 404.07L80.3869 404.333C81.2713 405.656 82.1985 407.142 83.4529 408.12L83.5795 408.216C84.4394 408.852 84.599 409.844 83.8975 410.679C77.942 416.049 71.6903 404.258 68.4277 400.373C54.9986 380.63 46.4179 356.606 46.794 332.588C40.6849 330.547 32.2274 329.549 32.5378 321.271C32.2255 315.022 31.0941 308.84 30.8742 302.587C30.8105 301.149 35.2863 301.862 36.2963 302.014C34.8084 287.645 37.0565 273.057 41.066 259.248C51.5925 223.913 94.9398 160.227 137.605 157.928C137.568 157.858 137.585 157.765 137.681 157.74C139.612 157.239 141.746 157.319 143.731 157.382C145.796 157.448 147.895 157.462 149.95 157.695C152.079 157.936 154.334 158.718 155.764 160.265L156.26 159.372C156.835 158.329 157.389 157.276 157.808 156.126C158.02 155.545 158.186 154.942 158.337 154.334C158.509 153.465 158.552 152.561 158.963 151.772C158.974 151.752 158.988 151.735 158.999 151.716C159.147 151.219 159.317 150.732 159.527 150.264ZM211.892 729.438C211.282 730.057 210.225 730.327 209.289 730.031C206.177 738.859 223.057 738.305 228.475 738.802C234.252 739.417 339.483 744.882 321.686 731.939C300.808 739.886 230.976 740.762 211.892 729.438ZM263.138 694.433C261.733 695.879 259.615 696.523 258.108 697.903C253.848 701.502 250.422 706.565 244.534 707.518C236.8 708.96 229.827 705.148 222.908 702.129C222.047 702.088 221.148 701.724 220.265 701.455C220.234 701.519 220.203 701.583 220.167 701.642C220.124 701.625 220.078 701.611 220.027 701.603C219.95 701.59 219.877 701.582 219.802 701.571C219.624 701.429 219.437 701.31 219.243 701.209C219.126 701.192 219.01 701.177 218.894 701.17C217.468 701.083 215.921 701.414 215.006 702.594C214.927 702.695 214.856 702.801 214.788 702.909C214.344 704.478 214.288 706.377 214.502 707.704C214.571 708.138 214.39 708.564 214.084 708.81C213.81 715.378 213.07 721.974 212.553 728.454C215.14 729.383 217.825 730.09 220.513 730.538C239.058 732.814 257.801 733.872 276.488 733.3C287.612 732.898 298.721 731.906 309.73 730.255C313.289 729.921 316.932 728.546 320.488 729.101C320.64 728.816 320.876 728.571 321.204 728.405C312.088 715.939 296.507 712.569 282.923 707.104C280.68 708.536 279.299 711.519 276.8 712.407C275.83 712.553 274.481 711.981 274.623 710.752C275.026 708.236 277.748 707.089 279.58 705.629C277.614 704.711 275.685 703.714 273.803 702.606C271.954 704.27 269.766 705.536 268.036 707.31C269.02 709.709 264.918 709.502 264.872 706.948C265.156 704.125 269.637 702.929 271.638 701.282C268.512 699.382 265.72 696.986 263.138 694.433ZM42.9013 719.113C42.7923 719.328 42.6144 719.523 42.351 719.675C41.8951 719.938 42.1142 721.331 42.1371 721.801L42.1385 721.835C42.1634 722.678 42.2161 723.518 42.2893 724.357C43.0587 725.05 44.0427 725.577 45.1358 725.894C78.4283 731.198 112.36 731.629 145.973 729.703C145.819 728.811 145.165 728.077 144.587 727.332C123.337 729.136 101.576 727.249 80.2902 725.492C67.8462 723.858 54.8081 723.182 42.9013 719.113ZM91.3724 686.47C85.8855 688.356 80.7799 690.972 75.9166 694.107C74.1093 695.281 72.3844 696.627 70.3069 697.301C63.1133 699.463 52.3282 689.078 52.1553 688.962C49.6572 687.282 47.0082 688.848 45.6491 691.175C45.5234 691.391 43.4399 703.295 43.5029 709.127C43.1291 711.109 44.1265 714.35 43.5957 716.511C44.013 717.013 44.6079 717.249 45.0086 717.773C45.1537 717.963 45.1126 718.178 44.9872 718.34C64.4129 719.936 83.7255 722.965 103.244 723.605C116.602 724.31 129.986 724.148 143.346 723.986C140.306 715.075 129.953 712.721 122.044 709.788C116.069 707.644 110.568 704.45 105.727 700.345C103.628 701.817 101.973 703.879 100.486 705.95C99.8102 706.792 98.4225 707.428 97.6989 706.261C96.9537 705.051 98.4085 703.521 100.205 702.18C101.15 700.783 102.341 699.593 103.713 698.612C102.196 697.262 100.736 695.856 99.3675 694.36C96.5302 696.28 94.4458 699.041 92.4048 701.721C91.424 702.789 89.5896 701.377 90.3942 700.173C91.039 699.342 91.7647 698.577 92.5418 697.859C93.7131 695.653 95.3995 693.616 97.4455 692.205L97.2895 692.007C95.5804 689.817 94.103 687.189 91.3724 686.47ZM43.0289 717.715C42.9819 717.773 42.9325 717.829 42.8798 717.882C42.9268 717.978 42.9629 718.078 42.9895 718.181L43.488 718.221C43.3148 718.077 43.1624 717.903 43.0289 717.715ZM249.953 677.403C239.775 679.322 229.261 680.06 218.988 678.475C220.178 685.1 220.923 691.766 220.533 698.493C235.893 702.921 242.274 710.303 255.054 695.549C254.436 694.611 254.08 693.458 253.666 692.346C251.9 687.522 250.44 682.533 249.953 677.403ZM63.0159 655.675C62.8708 655.996 62.6091 656.259 62.2319 656.376C62.0975 656.969 61.9586 657.562 61.8104 658.153C61.561 661.205 60.4073 664.231 59.2142 667.047C59.1322 667.241 59.0517 667.436 58.9707 667.63C58.1837 669.972 57.3586 672.309 56.5448 674.649C55.9282 677.08 55.3851 679.53 54.8175 681.973C54.708 683.63 54.4724 685.273 54.1103 686.896C54.0934 686.972 54.0708 687.042 54.0459 687.108C54.6147 687.362 55.1638 687.655 55.6815 687.951C71.2646 699.641 68.5734 691.826 83.5354 685.281C83.4494 684.652 83.7647 684.085 84.0219 683.434L84.0551 683.349C84.0707 683.308 84.0862 683.266 84.1019 683.225C84.0772 682.977 84.0916 682.71 84.1574 682.427C85.6728 676.238 87.7829 670.157 89.7579 664.102C90.074 663.19 90.44 662.299 90.814 661.409C81.3273 661.287 71.9436 658.765 63.0159 655.675ZM121.851 404.892C207.923 512.054 189.067 524.691 207.6 648.234C209.4 657.852 213.059 666.979 215.48 676.414L215.814 676.381C216.145 676.349 216.46 676.33 216.694 676.404L216.703 676.408L217.657 676.396C228.793 676.243 239.977 675.662 250.854 673.128C254.7 672.453 258.448 670.684 262.297 670.313C262.313 669.814 262.55 669.348 262.873 669.079C233.186 598.969 253.87 518.881 228.114 447.579C225.669 440.444 222.758 433.468 219.747 426.554C186.643 446.316 149.647 423.937 121.851 404.892ZM58.9144 658.682C58.7308 659.49 58.5309 660.288 58.3487 661.059L58.0801 662.208C58.4622 661.046 58.7636 659.867 58.9144 658.682ZM133.402 423.869C133.459 425.641 133.031 427.427 132.451 429.093C130.593 434.432 128.212 439.634 126.081 444.87C124.635 448.423 123.201 451.982 121.753 455.535C100.296 512.767 73.9581 589.481 47.9725 643.718C57.7632 649.376 68.4984 653.379 79.6044 655.548C82.1833 656.409 89.558 656.447 92.1683 657.812L92.7627 657.23C92.8656 654.788 95.6378 653.048 96.7476 650.906C101.758 643.859 105.751 636.153 109.374 628.322L109.966 626.603C119.598 598.6 132.167 560.051 145.41 527.462L145.819 526.456C151.307 513.016 154.914 500.626 161.538 490.459C161.899 489.912 162.264 489.364 162.632 488.816C162.902 488.273 163.176 487.731 163.454 487.189C164.641 484.878 165.922 482.616 167.13 480.316C167.645 479.335 168.156 478.229 168.426 477.096C157.905 458.643 145.368 441.396 133.402 423.869ZM149.158 159.438C145.856 160.24 142.473 160.567 139.152 161.233C116.265 163.958 98.7187 180.161 83.6042 196.249C54.9727 226.273 38.3145 263.215 39.5439 304.969C49.7686 306.828 59.8878 309.55 70.3052 310.145C68.7912 307.855 71.3267 304.992 72.1994 302.8C87.2674 273.735 98.9018 241.65 108.349 211.051L108.093 212.386C105.126 227.744 101.671 243.036 96.3965 257.788C97.9243 256.288 123.022 236.36 121.06 242.95C113.392 248.933 104.732 253.674 96.6972 259.165C106.25 291.024 92.4395 323.305 89.8155 355.177C89.1562 362.264 89.2134 369.4 88.3273 376.46C87.9903 377.258 88.3452 378.882 87.849 379.642C88.2164 381.516 88.9892 383.223 90.584 384.686C91.2553 385.302 91.9882 385.835 92.7587 386.311C94.6821 386.6 96.6141 387.34 98.1805 388.025C101.666 389.549 104.734 391.796 107.849 393.942L107.933 393.998C112.956 396.575 117.975 399.503 123.012 402.556L123.237 402.673C125.11 403.655 127.026 404.54 128.658 405.902C128.733 405.964 128.782 406.035 128.815 406.109L131.874 407.996C156.38 423.094 181.647 438.026 210.378 427.248C218.451 424.002 230.186 417.425 228.679 407.255C228.382 406.28 227.93 405.364 227.419 404.472C227.277 404.28 227.131 404.092 226.984 403.907C225.871 402.502 224.625 401.213 223.658 399.696C223.265 399.078 222.912 398.443 222.603 397.789C222.385 397.723 222.192 397.569 222.069 397.303C220.687 394.292 219.332 391.276 218.07 388.211C202.776 334.98 221.34 277.785 226.592 224.095C226.957 221.02 227.493 217.914 227.491 214.818C227.491 214.672 227.702 214.677 227.714 214.818C229.566 228.521 228.161 242.352 226.4 255.994C224.145 273.059 221.182 290.054 219.146 307.151C224.558 324.384 239.712 336.836 255.624 344.303C258.332 345.587 261.1 346.731 263.922 347.739L264.112 347.805C267.213 348.888 270.714 350.563 273.706 348.368C279.448 344.477 283.501 338.541 287.223 332.824C285.717 332.661 284.21 332.52 282.701 332.417C278.997 336.646 274.459 340.236 269.67 343.171C267.718 344.287 265.501 343.815 264.599 341.629C263.747 339.567 264.79 337.157 265.545 335.169L265.654 334.878C269.476 324.589 276.113 315.159 285.074 308.715C278.313 307.366 271.291 307.407 264.805 304.74C265.159 305.111 264.696 305.526 264.471 305.84C264.551 306.45 264.107 306.896 263.561 307.059C258.27 313.961 254.259 322.135 253.422 330.889C253.644 333.871 250.972 337.314 248.399 334.183C246.386 325.469 254.303 311.85 261.265 306.473C254.284 301.689 256.319 294.786 251.936 294.754C250.803 296.924 249.325 299.002 247.463 300.614C246.621 301.298 245.598 301.813 244.695 302.419C243.744 303.057 242.755 301.654 243.507 300.884L243.706 300.645C246.565 297.232 249.959 293.876 250.55 289.258C251.403 283.571 248.843 277.81 246.88 272.615C243.118 262.655 240.622 252.293 239.406 241.718C238.029 232.243 239.704 222.415 236.455 213.247C235.809 210.694 234.88 208.368 233.742 206.21C233.715 206.187 233.688 206.164 233.663 206.136C232.312 204.575 231.232 202.839 229.972 201.205C228.654 199.495 227.226 197.867 225.712 196.328C223.183 193.755 220.391 191.608 217.48 189.54C217.427 189.521 217.372 189.496 217.318 189.464C216.772 189.142 216.249 188.751 215.743 188.322L215.694 188.288C214.002 187.114 212.274 185.839 210.953 184.245C209.656 182.679 208.734 180.854 207.675 179.13C206.228 177.367 204.848 175.479 203.103 174.01C202.115 173.448 201.088 172.918 200.207 172.214C200.063 172.154 199.916 172.097 199.767 172.043C200.143 173.571 200.711 174.977 201.222 176.529C201.964 176.217 202.979 176.563 203.103 177.703L203.149 178.129C203.894 185.112 204.271 193.562 200.157 199.608C191.099 212.719 177.569 201.525 170.726 192.306C164.585 184.953 159.423 176.774 155.61 167.985L155.547 167.868C154.837 166.523 153.299 162.422 152.864 160.451C151.765 159.873 150.427 159.593 149.158 159.438ZM120.156 403.806C120.128 403.841 120.097 403.87 120.063 403.897C121.348 405.718 122.572 407.602 123.833 409.43C122.799 407.742 121.827 406.042 120.966 404.322C120.696 404.149 120.426 403.978 120.156 403.806ZM48.2581 333.042C53.1679 359.65 60.1845 387.644 79.7356 407.538C73.6509 398.983 68.9192 388.996 67.5424 378.535C67.4854 375.728 68.5097 372.762 71.6218 372.346C72.1529 372.275 72.5564 372.75 72.7461 373.172L72.7644 373.214C73.9886 376.132 75.5805 378.906 77.4655 381.448L77.6503 381.688C79.0727 383.524 85.1102 391.009 85.9524 387.431C85.3359 369.346 66.6115 361.89 63.545 336.983C58.2984 336.429 53.3197 334.439 48.2581 333.042ZM88.5085 385.82C88.5287 386.104 88.5384 386.385 88.5341 386.662C88.8122 386.548 89.0982 386.456 89.3905 386.384C89.0937 386.201 88.8001 386.012 88.5085 385.82ZM88.233 383.872C88.3359 384.391 88.4228 384.916 88.4762 385.435C89.0106 385.604 89.5392 385.79 90.0651 385.983C89.7463 385.697 89.4431 385.395 89.1588 385.073C88.8275 384.697 88.5168 384.294 88.233 383.872ZM95.4676 260.427C91.6323 271.11 87.3366 281.63 82.5405 291.92C79.3202 297.941 77.1716 304.958 72.7154 310.183C72.6719 310.225 72.6282 310.263 72.5836 310.3L72.6574 310.303C73.9853 310.361 81.2003 311.07 77.4967 312.699C76.0588 318.355 74.1747 323.881 72.5995 329.5L72.5644 329.663C71.988 332.38 71.2592 337.854 67.3916 336.027C66.9719 336.347 66.4682 336.573 65.9265 336.723C67.6649 351.951 77.3144 361.864 84.9423 374.297C83.2371 367.735 83.7354 360.883 84.3292 354.184L84.4763 352.535C87.628 321.817 99.1942 291.611 95.4676 260.427ZM127.499 358.069C121.283 350.334 90.7049 273.754 112.314 320.149C119.994 336.3 126.316 353.591 138.986 366.678C139.862 367.618 138.708 369.269 137.569 368.51C133.48 365.785 130.169 362.17 127.499 358.069ZM105.37 265.511C105.344 265.387 105.504 265.318 105.574 265.425C113.882 281.795 119.814 299.387 129.201 315.262C134.868 325.092 141.667 334.255 149.454 342.518C150.039 343.138 149.158 343.996 148.525 343.445C126.298 322.978 115.491 293.227 105.37 265.511ZM269.194 332.908L269.181 332.91L268.976 333.438C268.907 333.615 268.836 333.795 268.765 333.976C268.799 333.961 268.833 333.947 268.867 333.933C268.94 333.86 269.013 333.786 269.086 333.708C269.07 333.438 269.103 333.168 269.194 332.908ZM36.3832 302.657C35.2547 303.099 33.8682 303.182 32.6207 303.29C34.0174 309.857 35.2231 316.475 36.4872 323.059C37.0717 325.081 38.4458 325.79 40.3476 326.431L41.8762 326.919C49.0119 329.201 56.1879 331.545 63.5458 332.944C64.0631 332.608 64.7979 332.625 65.1413 333.163C65.4992 333.197 65.8666 333.216 66.2297 333.251C68.1957 326.005 71.5597 318.984 76.0613 312.973C63.4789 313.378 50.8055 310.067 38.8355 306.364C38.3508 306.599 37.7125 306.452 37.508 305.896L37.3236 305.843C35.3141 305.248 32.6496 303.787 36.8727 304.529C36.6176 303.936 36.4761 303.298 36.3832 302.657ZM325.706 297.295C317.366 295.919 310.992 302.663 303.874 305.759C299.612 307.584 288.255 313.242 284.126 311.36C278.466 316.798 273.686 323.152 270.344 330.28C271.255 330.226 272.167 330.186 273.078 330.157C274.728 329.628 276.49 329.601 278.203 330.11C295.367 330.299 312.542 333.627 329.637 329.409L330.03 329.335C333.542 328.67 345.531 326.141 346.213 323.663C346.034 322.584 342.81 323.724 342.191 323.846C337.264 324.814 332.258 325.276 327.265 325.762C325.877 325.896 325.894 323.74 327.265 323.603C333.275 323.006 338.969 320.755 344.483 318.412C345.069 318.153 346.622 317.616 347.696 316.918C342.601 317.783 337.351 317.933 332.196 317.75C330.422 317.52 330.296 314.83 332.196 314.883C335.676 315.267 339.001 313.552 341.842 311.743L342.461 311.342C347.196 308.261 346.866 308.128 340.881 309.273C332.086 310.871 323.186 310.812 314.305 310.202C313.037 310.181 312.162 308.478 313.211 307.567C317.3 304.042 321.684 300.9 325.706 297.295ZM285.393 310.13L285.297 310.222C285.093 310.417 284.925 310.59 284.832 310.682L284.794 310.719C284.668 310.836 284.546 310.958 284.422 311.077C284.967 311.26 285.569 311.27 286.189 311.174C285.815 310.941 285.536 310.559 285.393 310.13ZM128.7 281.946L128.679 281.921L128.726 281.971C134.091 287.765 139.529 297.161 143.974 304.571C144.56 310.645 131.418 285.446 128.7 281.946ZM263.706 304.338C263.758 304.402 263.808 304.468 263.857 304.536L263.928 304.638L264.044 304.567C264.086 304.542 264.131 304.526 264.176 304.515C264.019 304.457 263.863 304.397 263.706 304.338ZM239.16 284.559C243.987 285.315 234.116 291.3 232.813 292.158C231.979 292.474 224.047 299.01 224.528 296.889C228.241 292.131 233.366 286.585 239.16 284.559ZM50.3245 272.015C52.1099 269.145 61.8268 272.923 64.8983 273.376C66.6248 273.831 68.3326 274.369 70.0777 274.751C71.4413 275.245 77.7999 274.766 75.4663 277.457C73.0313 278.763 69.8523 277.753 67.3587 277.06C62.3973 275.707 57.4188 274.129 52.3382 273.378C52.1857 273.302 52.1764 273.354 52.3099 273.533C53.4028 275.957 55.7013 278.231 58.2901 279.012C58.469 279.064 58.3937 279.336 58.2127 279.29L58.0388 279.254C55.1271 278.605 48.8366 275.53 50.3245 272.015Z" fill="black"/>
<path fill-rule="evenodd" clip-rule="evenodd" d="M223.881 109.781C223.786 104.472 223.682 99.056 222.893 93.7982C222.121 88.6579 219.999 84.0116 216.351 80.2789C208.603 72.3502 197.372 70.4136 186.918 68.6389L169.045 65.6044C163.592 64.6789 157.775 63.1995 152.265 64.5121C149.551 65.1589 147.245 66.6615 145.138 68.4393C143.107 70.1529 140.923 71.993 139.547 74.2984C138.169 76.6072 137.695 79.306 137.246 81.9171C136.741 84.861 136.348 87.8279 136.069 90.8019C135.51 96.7604 135.434 102.764 135.839 108.734C136.036 111.63 136.348 114.518 136.748 117.393C136.945 118.819 137.169 120.241 137.422 121.658C137.496 122.076 137.553 122.538 137.629 123.006C137.065 124.609 136.745 126.27 136.771 127.924C136.847 132.795 140.958 135.861 145.102 137.508C147.505 138.463 150.018 139.111 152.379 140.178C154.863 141.3 156.553 143.118 158.252 145.193C161.491 149.149 165.146 152.705 169.319 155.672C178.168 161.963 189.376 164.938 200.112 162.68C202.688 162.138 205.287 161.297 207.603 160.029C210.047 158.69 211.886 156.751 213.429 154.458C216.296 150.201 218.351 145.407 219.907 140.529C221.493 135.554 222.619 130.569 223.233 125.38C223.845 120.209 223.973 114.985 223.881 109.781Z" fill="#D08B5B"/>
<path fill-rule="evenodd" clip-rule="evenodd" d="M166.845 47.1091C174.241 46.0916 184.45 49.3986 188.134 56.0667C205.72 51.9204 227.9 51.7846 242.394 65.5874C257.519 81.9605 238.522 103.549 225.925 108.416C226.842 112.873 225.412 141.429 215.294 154.167C207.264 164.96 188.564 169.94 179.911 157.05L179.843 156.943C178.916 155.454 179.715 155.502 180.666 156.61C189.14 164.062 200.66 164.189 209.538 156.325C226.177 141.95 224.461 106.704 216.544 86.3139C193.999 83.8376 169.861 90.6713 154.29 107.643L155.342 113.983C155.522 115.063 155.726 116.142 155.881 117.226C155.981 117.92 155.992 118.611 155.511 119.173C153.922 121.029 151.245 118.24 149.042 117.131C148.392 117.04 147.74 117.004 147.101 117.049C136.518 118.413 138.603 138.945 150.235 135.346C151.212 134.737 152.052 134.923 152.431 135.806C155.204 138.346 157.032 142.876 161.638 147.239C163.264 148.875 164.743 150.245 166.571 151.557C167.645 152.643 170.885 153.751 169.858 155.609C167.915 159.838 156.461 146.555 154.436 142.881C148.091 145.387 141.06 144.536 134.485 143.923C99.7967 142.12 104.427 105.551 132.86 82.4639C138.212 78.5234 144.118 75.3088 150.256 72.8351C151.094 72.4974 150.728 71.1213 149.878 71.4638C145.816 73.1008 141.857 75.0493 138.083 77.3044L138.077 75.9562C138.071 73.6853 138.107 71.3212 138.501 69.2463C138.699 67.8086 139.03 66.273 139.541 65.1179C140.172 61.5762 150.058 49.4195 166.845 47.1091ZM146.639 121.763C147.175 121.254 148.174 121.861 148.651 121.846C149.871 122.013 151.029 122.528 151.932 123.163C152.529 123.498 152.947 123.811 153.296 124.1L153.306 124.098C153.303 124.098 153.3 124.1 153.297 124.101L153.33 124.123C153.839 124.484 155.7 126.52 154.524 125.973C154.436 125.859 154.347 125.749 154.256 125.642C154.246 125.657 154.233 125.671 154.217 125.685L154.283 125.783C155.283 127.287 153.556 125.703 153.291 125.282C153.278 125.292 153.264 125.299 153.25 125.306L153.596 125.727C153.644 125.787 153.682 125.834 153.714 125.875L153.787 125.945C154.943 127.082 154.979 128.104 153.636 126.424C153.689 126.503 153.731 126.587 153.737 126.662L153.817 126.763C154.871 128.122 154.013 127.64 153.489 127.059L153.446 127.009L153.455 127.023C153.942 127.774 152.975 127.247 152.804 126.845L152.797 126.827C152.61 126.675 152.496 126.504 152.457 126.461L152.449 126.454C151.543 125.525 150.228 124.739 149.112 124.382C148.95 124.351 148.786 124.326 148.621 124.309C147.949 124.159 147.271 124.056 146.585 124.001C146.501 123.991 146.416 123.929 146.352 123.85C145.315 123.815 145.635 123.389 146.066 123.311L146.073 123.309L145.988 123.302C145.322 123.237 144.868 122.998 145.541 122.852L145.626 122.835C145.615 122.818 145.606 122.802 145.597 122.786C145.021 122.722 145.397 122.162 145.717 122.298C145.582 121.858 146.198 122.077 146.274 122.012C146.333 121.947 146.406 121.89 146.448 121.886C146.633 121.756 146.543 121.767 146.639 121.763ZM150.165 114.637L150.03 114.716C149.921 114.78 149.809 114.822 149.696 114.847C149.855 114.915 150.012 114.988 150.168 115.066C150.166 114.971 150.164 114.875 150.164 114.78L150.165 114.637Z" fill="black"/>
<path fill-rule="evenodd" clip-rule="evenodd" d="M181.852 145.333C183.775 140.838 187.971 137.534 192.803 136.326C196.351 135.441 200.075 135.469 203.692 135.82C205.587 136.003 207.619 136.153 209.405 136.855C210.93 137.455 212.173 138.589 213.108 139.921C214.22 141.498 214.977 143.304 215.508 145.154C215.583 145.417 215.654 145.682 215.72 145.949C215.489 147.345 214.999 148.534 213.703 149.412C212.438 150.269 210.929 150.619 209.425 150.744C209.278 150.673 209.135 150.601 209.005 150.526C206.661 149.187 205.011 146.022 202.052 146.451C199.412 146.833 197.674 150.148 196.104 152.093C191.064 152.679 186.028 151.167 181.927 148.291C181.719 147.307 181.707 146.314 181.852 145.333ZM219.146 141.923C218.743 140.794 218.235 139.7 217.633 138.67C215.643 135.263 212.588 132.548 208.962 130.997C200.383 127.331 189.283 129.915 182.355 135.927C179.989 137.982 177.596 141.002 176.872 144.251C176.656 144.294 176.452 144.406 176.285 144.564C171.279 141.419 166.125 138.393 162.091 134.034C159.162 130.866 157.125 127.118 155.877 122.999C155.775 122.66 155.227 122.709 155.244 123.084C155.249 123.172 155.254 123.26 155.258 123.347C155.206 123.186 154.959 123.269 154.94 123.426C154.269 128.43 153.43 133.735 154.203 138.765C154.665 141.766 156.031 143.963 157.858 146.336C159.814 148.879 162.03 151.245 164.295 153.513C165.732 154.953 167.233 156.614 168.993 157.67C171.04 158.897 173.362 159.829 175.546 160.776C177.769 161.741 180.024 162.633 182.322 163.407C186.916 164.959 191.665 166.031 196.496 166.501C200.364 166.876 204.785 167.284 208.492 165.832C211.333 164.719 213.627 162.707 215.446 160.287C217.426 157.651 218.992 154.648 219.857 151.482C220.757 148.193 219.335 142.453 219.146 141.923Z" fill="black"/>
<path fill-rule="evenodd" clip-rule="evenodd" d="M203.063 143.666C201.314 144.171 199.436 144.217 197.652 143.694C196.035 143.221 194.374 142.178 193.184 140.799C192.126 139.573 191.441 138.084 191.468 136.494C191.471 136.313 191.536 136.161 191.636 136.044C191.744 135.917 191.894 135.83 192.056 135.792C192.221 135.753 192.397 135.767 192.546 135.835C192.681 135.896 192.797 136 192.869 136.152C193.052 136.392 193.234 136.628 193.417 136.858C194.888 138.671 196.313 140.025 198.525 140.511C199.725 140.775 200.923 140.658 202.023 140.256C203.2 139.825 204.265 139.068 205.099 138.099C205.476 137.661 205.92 137.482 206.356 137.479C206.849 137.476 207.336 137.705 207.703 138.07C208.064 138.429 208.306 138.917 208.327 139.428C208.347 139.876 208.2 140.344 207.81 140.762C206.527 142.138 204.863 143.145 203.063 143.666ZM203.009 120.962C204.803 122.05 207.535 124.587 205.606 127.284C203.335 129.662 200.066 126.935 198.454 125.702C196.96 124.746 195.282 127.204 196.668 128.32C208.311 136.923 213.035 121.247 203.917 119.683C202.912 119.511 202.54 120.625 203.009 120.962ZM186.233 116.175C185.657 115.807 184.979 115.681 184.228 116.022C183.64 116.289 182.61 117.177 181.894 118.345C181.403 119.144 181.056 120.081 181.128 121.058C181.145 121.284 181.061 121.452 180.928 121.575C180.824 121.673 180.673 121.745 180.495 121.767C180.345 121.786 180.176 121.769 180.039 121.726C179.778 121.645 179.64 121.476 179.588 121.338C179.086 120.008 179.302 118.524 179.865 117.185C180.624 115.378 182.002 113.864 182.906 113.376C184.451 112.54 186.274 112.502 187.822 113.353C189.139 114.077 189.963 115.247 190.783 116.439C190.957 116.692 191.13 116.944 191.308 117.191C191.666 117.686 191.702 118.177 191.563 118.599C191.41 119.065 191.018 119.459 190.528 119.665C190.076 119.856 189.55 119.882 189.085 119.687C188.693 119.521 188.332 119.199 188.104 118.652C187.72 117.731 187.08 116.715 186.233 116.175ZM215.507 118.224C215.112 118.429 214.804 118.491 214.366 118.36C214.123 118.288 213.884 118.148 213.697 117.961C213.511 117.776 213.377 117.546 213.325 117.29C213.197 116.659 212.851 116.068 212.358 115.683C211.937 115.354 211.405 115.18 210.815 115.278C210.178 115.384 209.572 115.792 209.154 116.272C209.014 116.433 208.905 116.615 208.795 116.797C208.589 117.136 208.389 117.451 208.105 117.7C207.998 117.795 207.836 117.86 207.679 117.86C207.615 117.86 207.55 117.85 207.488 117.831C206.855 117.196 206.733 116.715 206.753 116.237C206.775 115.736 206.972 115.229 207.292 114.756C208.042 113.647 209.466 112.737 210.427 112.531C211.742 112.249 213.049 112.587 214.097 113.321C215.175 114.075 215.974 115.247 216.223 116.567C216.283 116.885 216.257 117.229 216.136 117.526C216.017 117.817 215.811 118.066 215.507 118.224ZM189.135 104.344C188.345 105.112 187.411 105.231 186.465 105.337C185.94 105.396 185.521 105.444 185.108 105.537C183.974 105.792 182.852 106.177 181.829 106.731C180.76 107.311 179.595 108.01 178.756 108.905C178.557 109.118 178.369 109.341 178.181 109.565C178.009 109.77 177.844 109.966 177.67 110.156C177.47 110.374 177.28 110.602 177.091 110.83C176.974 111.022 176.951 111.069 176.927 111.118C176.892 111.192 176.851 111.275 176.804 111.364C176.739 111.485 176.664 111.618 176.585 111.739C176.453 111.959 176.383 112.02 176.322 112.047C176.22 112.092 176.124 112.114 176.031 112.102C175.944 112.091 175.862 112.049 175.781 111.981C175.375 111.639 175.256 111.078 175.268 110.482C175.287 109.579 175.621 108.578 175.928 107.963C176.644 106.534 177.637 105.048 178.831 103.982C180.193 102.764 181.684 101.843 183.395 101.207C184.459 100.813 185.691 100.45 186.85 100.496C187.684 100.529 188.48 100.776 189.138 101.394C189.542 101.774 189.736 102.313 189.736 102.853C189.736 103.403 189.534 103.956 189.135 104.344ZM217.113 111.375C217.063 111.457 216.994 111.514 216.916 111.548C216.835 111.583 216.745 111.594 216.658 111.579C216.571 111.565 216.489 111.525 216.424 111.466C216.362 111.408 216.314 111.332 216.293 111.239C215.768 108.941 214.75 107.232 212.578 106.129C211.509 105.587 210.28 105.242 209.116 104.967C208.778 104.888 208.421 104.836 208.061 104.783C206.934 104.619 205.798 104.431 205.063 103.521C204.62 102.973 204.434 102.273 204.539 101.632C204.638 101.029 204.991 100.475 205.634 100.144C207.233 99.3187 209.219 100.128 210.834 100.818C210.954 100.869 211.071 100.919 211.186 100.968C212.765 101.633 214.206 102.511 215.389 103.766C216.329 104.763 217.199 106.235 217.549 107.75C217.841 109.01 217.772 110.297 217.113 111.375Z" fill="black"/>
</svg>
