<svg width="391" height="780" viewBox="0 0 391 780" fill="none" xmlns="http://www.w3.org/2000/svg">
<path fill-rule="evenodd" clip-rule="evenodd" d="M190.67 437.345C189.744 446.694 187.997 456.132 186.595 465.307C186.539 466.911 184.331 467.691 183.264 466.498C183.292 445.638 188.869 424.233 186.894 402.936C188.486 402.048 190.108 401.065 191.654 400.083C193.741 402.834 193.971 406.01 193.629 408.892C193.367 418.405 191.828 427.887 190.67 437.345ZM101.564 310.712L99.2265 310.48C98.0761 291.341 101.31 272.539 105.087 254.044L107.437 254.183C108.266 264.841 113.715 274.937 111.219 285.905C108.834 294.569 103.778 302.036 101.564 310.712ZM368.247 214.325L366.878 214.618C369.428 209.787 367.05 208.198 364.165 204.204L363.851 204.93L362.741 202.504C362.521 201.888 362.296 201.365 361.687 201.134C361.092 198.116 359.322 195.352 356.965 193.85L356.513 194.357C355.579 193.541 354.453 193.23 353.381 192.852C355.682 189.377 357.163 184.87 358.715 181.145C359.978 177.232 361.954 173.435 362.325 169.468C362.026 165.655 358.423 168.132 356.665 170.033C351.296 174.741 346.672 182.198 343.207 191.253C337.257 189.705 333.844 191.338 332.191 199.468C330.669 204.991 329.114 210.655 328.908 216.381C328.109 216.107 326.692 215.076 325.927 215.885C312.702 230.353 297.087 241.5 281.986 253.699C270.574 245.305 264.635 228.697 258.359 216.231C247.41 194.832 236.46 163.506 208.297 163.616C204.564 163.227 200.919 162.781 197.396 161.697C196.031 161.326 194.345 160.88 193.882 160.051C193.047 157.382 192.889 154.494 191.422 152.047C187.395 145.503 178.672 144.988 171.837 146.409C160.232 148.56 160.524 147.304 159.686 159.509C159.435 162.407 157.189 162.822 154.791 163.422C152.069 164.28 149.296 164.981 146.498 165.546C146.788 165.464 147.079 165.384 147.369 165.302C101.948 166.021 71.7904 218.703 65.8076 255.973C58.8586 294.104 67.8464 336.54 82.0556 368.566C81.4455 380.229 83.7337 391.944 85.1824 403.44C86.0918 406.316 89.2399 406.596 90.14 403.264L91.2496 398.879L92.4372 403.244C93.1903 405.945 94.4006 406.266 95.4895 406.284C96.8403 406.284 97.5808 405.618 97.6252 402.107L99.8626 401.569C100.725 403.212 101.581 404.664 102.935 405.674C105.659 425.474 107.369 446.062 113.981 465.222C116.618 472.332 120.667 478.788 123.64 485.764C109.62 517.405 107.27 552.469 103.903 586.348C104.174 586.369 105.566 586.491 105.863 586.517L135.131 593.236C134.926 593.323 132.886 597.433 130.857 597.265C122.534 596.579 103.368 590.138 103.113 590.969C102.405 590.911 99.4548 590.933 99.6192 591.608C99.9604 595.589 101.077 598.429 103.192 600.501C103.221 601.14 103.26 601.791 103.309 602.395C99.1133 617.034 96.0385 632.641 94.1702 648.733C91.7951 651.018 91.2006 658.535 94.743 660.54C104.522 667.272 117.659 670.469 130.027 669.255C143.413 667.989 159.377 662.656 152.971 647.392C152.889 646.918 152.238 646.895 151.726 646.999C150.591 645.898 149.361 645.066 148.03 644.598C145.386 637.995 143.008 631.072 140.934 624.161C139.924 620.986 138.879 617.704 138.965 614.223C139.465 605.674 140.345 602.141 146.286 595.408C149.964 597.176 156.974 584.372 158.58 581.684C161.959 573.733 166.265 566.505 169.874 558.704C170.431 557.387 172.379 557.358 173.141 558.5C173.484 558.981 173.57 559.576 173.377 560.133C170.234 569.198 165.956 577.854 161.828 586.311C163.235 591.223 163.79 599.427 167.307 603.083C169.22 615.809 156.129 621.64 164.565 635.754C161.71 635.95 161.443 637.091 161.493 640.558C161.484 643.047 161.419 645.659 161.888 647.986C162.458 650.845 165.096 651.611 169.057 652.454C172.267 653.164 175.358 653.975 178.543 654.741C181.765 655.812 185.159 655.724 186.484 652.466C202.437 657.872 248.426 657.254 263.636 650.09C267.837 648.409 270.8 647.459 266.942 642.726C264.818 629.219 230.149 638.876 225.251 624.061C224.553 622.137 223.543 621.126 221.579 620.775C221.878 619.247 221.478 617.548 219.777 617.108C219.265 616.955 218.719 616.916 218.192 616.434C216.883 613.738 214.736 612.103 212.235 610.669C213.256 609.2 212.431 608.515 211.971 606.871C211.504 603.725 212.576 600.711 212.522 597.654C213.096 596.69 213.54 595.34 214.46 594.671C215.312 594.07 213.597 594.848 213.265 594.184C213.436 594.033 201.935 597.98 195.691 598.687C192.676 599.029 193.469 595.435 193.554 595.369C194.55 594.274 215.489 589.515 214.211 589.392C214.054 588.864 213.867 588.251 213.748 587.727C217.28 577.111 221.448 563.327 222.832 548.723C224.171 525.363 222.915 505.669 230.035 481.929C239.987 444.339 259.32 409.064 259.581 369.287C259.249 362.693 261.077 355.672 259.42 349.201L261.478 348.13C261.775 348.472 262.31 348.462 262.417 347.998C263.768 345.807 262.254 343.179 261.943 340.78C262.65 340.023 262.297 339.334 261.444 338.921C252.299 306.648 237.003 301.934 241.213 261.593C248.084 276.145 263.303 290.877 280.079 288.711C296.979 291.236 336.402 250.081 344.016 236.777C345.411 236.885 345.428 235.885 345.641 234.943C352.595 235.76 359.104 230.304 359.234 223.628C365.336 227.41 371.857 222.009 368.624 215.413C368.497 215.057 368.368 214.693 368.247 214.325Z" fill="#D08B5B"/>
<path fill-rule="evenodd" clip-rule="evenodd" d="M150.558 645.932L152.203 651.277C153.679 656.072 151.915 660.109 147.401 662.642C133.374 670.077 114.867 669.548 99.7598 661.899C98.4804 661.239 97.2431 660.537 96.0513 659.792L95.6952 659.568L95.3971 659.378L95.2472 659.281C94.6306 658.874 94.2347 658.505 93.964 657.985L93.9262 657.91L93.9073 657.871L93.8933 657.83C93.8268 657.635 93.7662 657.439 93.7111 657.239L93.6688 657.083L93.6281 656.925C93.3523 655.823 93.2632 654.826 93.2002 652.878L93.1716 651.952L93.0959 649.674L94.456 651.506C95.012 652.254 95.769 652.894 97.0107 653.73L97.5564 654.09L98.6195 654.788L98.6499 654.808C101.332 656.601 104.328 658.105 107.633 659.357C119.597 663.795 133.223 663.242 143.825 657.577L144.138 657.408L144.973 656.907L145.233 656.75C146.843 655.763 147.802 655.027 148.546 654.11L148.603 654.039L148.659 653.967L148.883 653.677L149.25 653.69C150.238 653.728 150.846 652.841 150.813 651.588L150.811 651.518L150.558 645.932ZM164.203 634.888L165.231 635.542C176.673 642.818 187.11 647.403 197.753 649.272C203.829 650.279 210.252 650.557 217.602 650.247L218.458 650.208L219.165 650.174C223.575 649.949 227.642 649.58 235.126 648.787L237.932 648.489L241.433 648.033L242.924 647.835C249.536 646.949 253.744 646.268 258.119 645.32L258.591 645.217L258.604 645.207C258.723 645.121 258.853 645.042 259.041 644.936L259.204 644.844C259.646 644.598 259.812 644.475 259.896 644.32L259.907 644.299L260.118 643.869L260.769 643.915L260.779 643.909C260.914 643.835 261.05 643.763 261.189 643.692L261.398 643.586L261.611 643.481L261.699 643.439L261.952 643.393L262.223 643.341C262.731 643.24 263.218 643.122 263.939 642.929L264.514 642.773L264.725 642.715L264.932 642.785C266.611 643.355 267.056 644.944 266.08 646.165L266.038 646.217L266.007 646.252L266.003 646.287C265.944 646.686 265.667 646.982 265.248 647.249L265.188 647.287L265.097 647.34L265.023 647.382L264.996 647.419C264.934 647.498 264.864 647.571 264.785 647.638L264.724 647.688L264.661 647.735L264.632 647.753L264.06 648.123L263.871 648.242C263.446 648.505 263.126 648.671 262.783 648.79L262.706 648.816L262.701 648.82C261.297 650.182 259.135 650.922 255.889 651.539L255.55 651.603L255.38 651.634L254.866 651.726C238.09 654.723 220.872 655.546 203.77 654.183C201.112 653.97 198.467 653.705 195.843 653.39L194.969 653.283L193.93 653.151L192.796 653.015L192.499 652.977L192.206 652.938C189.609 652.581 188.084 652.073 186.719 650.863L186.645 650.796L186.543 650.702C185.986 650.173 184.919 650.539 184.904 651.226L184.905 651.265L184.907 651.31C184.98 652.338 184.347 652.988 183.328 653.173C182.64 653.298 181.761 653.231 180.698 653.019C180.286 652.936 179.856 652.834 179.402 652.713L179.079 652.625L178.637 652.497C178.574 652.478 178.509 652.459 178.444 652.44L177.475 652.149L176.282 651.822C175.827 651.696 175.327 651.555 174.692 651.376L171.294 650.418L170.472 650.191C169.752 649.993 169.143 649.83 168.503 649.664L168.195 649.584L167.45 649.44L167.184 649.386L166.944 649.334C164.423 648.773 163.995 648.083 163.943 644.922L163.939 644.641L163.805 643.432L163.723 642.733C163.63 641.955 163.543 641.299 163.447 640.671L163.391 640.311L163.371 640.191L163.296 639.745C163.29 639.712 163.178 639.198 163.134 638.978C163.074 638.672 163.027 638.387 162.995 638.114C162.921 637.484 162.93 636.971 163.067 636.559C163.234 636.052 163.604 635.728 164.084 635.67L164.14 635.665L164.16 635.663L164.203 634.888Z" fill="white"/>
<path fill-rule="evenodd" clip-rule="evenodd" d="M203.318 161.792L212.577 162.802L213.129 162.864C216.898 163.296 219.528 163.771 222.062 164.581C225.257 165.603 227.968 167.108 230.298 169.277C241.916 180.009 254.519 201.118 268.206 232.663L268.591 233.552L268.695 233.742L268.844 234.011C270.423 236.829 273.145 240.789 276.183 244.779L276.48 245.168L276.917 245.736L277.195 246.094C278.44 247.693 279.626 249.152 280.605 250.288L280.819 250.534L281.105 250.861L281.29 251.068C281.471 251.269 281.638 251.451 281.79 251.612L281.865 251.691L282.011 251.843L282.033 251.834L282.277 252.029L282.315 251.712L283.2 251.289C290.654 247.727 297.924 243.04 305.398 237.131L305.76 236.844C311.963 231.913 318.036 226.396 325.597 218.995L327.725 216.91L328.754 219.291C332.648 228.294 337.913 234.098 344.666 235.144L344.872 235.174L348.893 235.737L345.622 238.416L345.25 238.723C341.502 241.819 338.389 244.693 332.651 250.258L331.481 251.394L328.908 253.9C326.709 256.037 325.245 257.445 323.82 258.784L323.471 259.112L322.367 260.139L321.685 260.747C315.233 266.481 310.535 270.411 305.701 273.967L305.169 274.356L304.814 274.614C298.44 279.228 292.306 282.777 286.008 285.34L285.65 285.485L285.464 285.552L285.283 285.615C284.386 285.92 283.56 286.11 282.148 286.367L282.005 286.393L280.815 286.603C280.536 286.653 280.305 286.697 280.088 286.74L279.946 286.769L279.631 286.835L279.233 286.838C272.547 286.858 266.411 284.783 260.401 280.826L260.092 280.621C255.832 277.773 252.024 274.344 246.803 268.935L246.232 268.341L245.661 267.744L242.742 264.662L242.696 264.9C241.22 272.634 240.315 281.625 240.761 285.978L240.775 286.109L240.794 286.271L240.822 286.588C241.253 291.265 242.469 295.965 244.44 300.947C245.994 304.872 247.921 308.789 250.645 313.724L250.794 313.995L251.244 314.803L251.264 314.841C255.742 323.336 259.062 332.347 261.101 341.59L261.195 342.017L261.279 342.409L261.187 342.799C260.517 345.645 258.51 347.88 255.394 349.916L255.251 350.008L254.966 350.189C250.978 352.651 246.659 354.18 239.993 355.845C217.868 361.519 196.751 363.421 176.753 361.008C166.771 359.713 156.467 357.757 145.122 355.085L144.534 354.947L142.862 354.547C135.031 352.662 127.635 350.698 116.665 347.632L114.472 347.018L110.64 345.939L110.07 345.767L108.512 345.307L107.948 345.137L107.74 345.074L107.375 344.96L106.994 344.838C105.684 344.414 104.627 344.007 103.641 343.525L103.203 343.307L102.979 343.061C102.966 343.047 102.944 343.029 102.915 343.009L102.891 342.995L102.092 342.519L101.959 340.658C101.905 339.924 101.849 339.195 101.783 338.356L101.719 337.548L101.116 330.158C101.066 329.531 101.02 328.949 100.978 328.393L100.881 327.096L100.8 325.969L100.822 325.542C101.341 315.88 103.946 306.148 108.379 296.661L108.544 296.31L108.678 296.055C112.202 289.289 113.568 283.672 113.309 277.774L113.296 277.487C113.063 272.911 112.088 268.814 109.359 260.048L109.186 259.494L108.909 258.613L108.895 258.565C107.968 255.303 107.373 252.314 107.146 249.476L107.124 249.188L107.025 249.535C102.011 267.291 99.3917 285.238 99.4125 302.737L99.4139 303.267L99.4183 303.974L99.4361 304.921C99.5418 310.026 99.8094 314.986 100.341 322.461L100.381 323.019L100.575 325.69L100.517 326.507L100.494 326.849L100.472 327.194L100.453 327.529C100.304 330.28 100.446 332.109 101.045 333.793L101.176 334.152L101.205 334.764C101.243 335.509 101.292 336.215 101.374 337.198L101.4 337.501L101.666 340.486L101.717 341.083C101.937 343.748 102.013 345.624 101.934 347.535L101.928 347.675L101.911 348.032L101.855 348.431C101.204 352.887 99.7028 355.973 96.6001 358.869L96.5087 358.954L96.3525 359.112C93.2191 362.25 89.7585 364.734 85.9727 366.496L85.7357 366.606L85.5026 366.711L83.721 367.506L83.0898 365.663C73.5259 337.738 68.0707 314.396 66.7046 292.045C65.0969 265.74 69.3786 241.66 80.5349 219.079L80.875 218.395L81.2356 217.646C93.4496 192.51 112.924 173.784 136.321 167.185L137.031 166.989L137.758 166.796L143.52 165.303L139.527 169.709C137.218 172.255 138.181 176.489 141.393 181.243L141.491 181.388L141.66 181.634C147.315 190 156.532 195.834 168.048 198.874C178.35 201.593 190.006 201.898 200.479 199.908L200.796 199.847L201.146 199.785C211.248 197.954 218.659 191.644 219.58 182.96L219.606 182.696L219.648 182.172C220.105 175.869 216.554 169.446 210.9 166.127L210.728 166.027L203.318 161.792Z" fill="#78E185"/>
<path fill-rule="evenodd" clip-rule="evenodd" d="M319.985 259.196L319.33 259.779C308.617 269.301 297.254 278.804 283.842 284.185C282.025 284.847 280.131 285.025 278.265 285.419C262.666 285.574 252.073 273.502 242.195 263.093C243.023 245.28 242.339 226.888 235.296 210.242L235.128 209.814C233.404 205.46 231.298 201.143 227.929 197.815C227.846 197.735 227.732 197.856 227.803 197.941C230.678 201.46 232.352 205.759 233.554 210.095L233.615 210.315C237.714 225 238.427 240.408 237.887 255.575L237.871 256.035C237.503 266.283 236.617 276.586 237.852 286.813C238.752 297.368 243.427 306.913 248.518 316.029C252.955 324.449 256.272 333.449 258.283 342.752C257.636 345.497 255.294 347.51 252.859 349.038C248.458 351.753 243.359 353.24 238.379 354.484C218.002 359.71 196.777 362.135 175.812 359.605C153.445 356.704 131.616 350.701 109.954 344.589C107.726 343.906 105.254 343.288 103.126 342.226C102.984 342.069 102.815 341.937 102.632 341.828C102.264 336.636 101.777 331.49 101.414 326.31C101.904 316.278 104.694 306.522 108.969 297.462C116.78 282.608 114.2 273.575 109.438 258.44C108.344 254.589 107.563 250.56 107.66 246.59C108.159 244.089 108.641 241.586 109.085 239.077C109.27 238.595 109.472 238.119 109.698 237.645C109.74 237.555 109.619 237.484 109.562 237.567C109.463 237.709 109.368 237.854 109.273 238.001C109.603 236.085 109.909 234.168 110.177 232.246C110.213 231.992 109.885 231.893 109.79 232.139C101.231 255.137 96.2624 279.788 96.4668 304.363C96.5882 311.599 97.0869 318.833 97.6189 326.052L97.5694 326.748C97.3809 329.48 97.2817 332.264 98.2388 334.867C98.4425 339.332 99.2011 343.743 98.9655 348.222C98.4131 352.311 97.1781 355.204 94.1038 358.032C91.0592 361.12 87.5745 363.676 83.6047 365.448C67.1003 317.258 57.4307 267.2 81.2977 219.55C92.3749 196.349 111.444 175.506 137.035 168.877C133.388 172.9 136.231 178.92 138.853 182.756L139.013 182.988C151.572 201.567 179.227 205.993 199.967 201.952C210.014 200.231 219.435 193.737 220.237 182.876C220.86 175.603 216.712 168.428 210.443 164.845L211.207 164.928C217.308 165.605 223.234 166.582 227.917 170.941C245.179 186.887 253.187 209.596 263.384 230.156L263.79 230.904C268.157 238.99 272.377 247.722 279.633 253.586L278.277 254.741C278.106 254.887 278.289 255.22 278.505 255.132C279.203 254.85 279.897 254.553 280.588 254.253C281.563 255.033 282.682 254.243 282.799 253.252C299.207 245.41 313.075 232.972 325.948 220.355C329.199 227.87 334.68 236.067 343.454 237.294C335.17 244.08 327.839 251.925 319.985 259.196ZM188.095 403.281C189.16 402.676 190.211 402.047 191.249 401.396C192.961 404.131 192.526 406.536 192.341 409.557C191.95 414.598 192.037 419.725 191.014 424.687C189.24 437.346 188.19 450.574 185.555 462.911C185.496 463.601 185.435 464.29 185.382 464.98C185.311 465.888 183.886 465.892 183.957 464.98C185.691 444.501 189.374 423.902 188.095 403.281ZM197.753 649.983C211.121 652.199 224.767 650.627 238.141 649.203L240.104 648.949C246.434 648.127 252.801 647.265 259.018 645.886C259.542 645.453 260.35 645.262 260.664 644.622L261.048 644.648C261.372 644.465 261.703 644.293 262.039 644.131C263.015 643.957 263.811 643.744 264.82 643.468C266.188 643.932 266.331 645.134 265.402 645.985C265.495 646.419 264.975 646.667 264.635 646.859C264.581 646.969 264.496 647.073 264.369 647.162C263.759 647.546 263.143 648.006 262.445 648.196C260.739 649.967 257.075 650.641 255.057 651L254.858 651.035C238.086 654.032 220.928 654.838 203.945 653.484C201.017 653.249 198.091 652.95 195.176 652.587L194.381 652.486C191.864 652.161 189.087 652.035 187.152 650.196C186.188 649.281 184.257 649.859 184.311 651.313L184.314 651.369C184.483 653.758 178.889 651.782 177.782 651.473L177.75 651.464C174.653 650.625 171.575 649.698 168.469 648.9L167.707 648.752C165.008 648.217 164.798 647.946 164.768 644.607L164.668 643.699C164.533 642.489 164.387 641.284 164.191 640.083L164.115 639.633C164.027 639.128 163.168 636.004 164.6 636.419C164.78 636.471 164.956 636.326 164.966 636.151C175.028 642.55 185.917 647.904 197.753 649.983ZM144.606 658.037L145.46 657.526C146.89 656.662 148.327 655.724 149.341 654.411C151.015 654.474 151.704 652.899 151.64 651.495C153.045 656.06 151.303 659.713 147.185 662.023C132.839 669.628 114.485 668.508 100.205 661.277C98.8346 660.57 97.4951 659.805 96.1961 658.978L95.9038 658.792C95.4169 658.48 94.9449 658.145 94.6856 657.61C94.0608 655.781 94.0693 653.978 94.0017 651.939C95.0837 653.396 96.8793 654.405 98.3715 655.408C101.219 657.312 104.304 658.821 107.503 660.033C119.349 664.427 133.419 664.159 144.606 658.037ZM101.219 283.236C102.363 273.318 104.324 263.538 106.223 253.747C106.995 264.27 112.465 274.518 110.033 285.163C107.655 293.732 102.56 301.334 100.383 309.978C99.9601 301.051 100.22 292.118 101.219 283.236ZM115.316 369.285C114.029 369.52 112.706 369.515 111.404 369.422C106.129 368.784 105.295 371.975 105.313 376.436C105.153 379.319 104.976 382.203 104.825 385.088L104.738 386.819C104.629 389.125 104.339 391.704 104.629 394.114C103.673 396.303 103.157 398.585 103.005 400.978C102.565 400.859 102.095 400.916 101.758 401.146C99.8222 397.7 99.3591 393.493 98.9601 389.613C98.7654 387.705 95.9583 387.618 95.9155 389.613C95.8609 392.327 95.8205 395.043 95.773 397.757L95.6994 401.945L95.6996 402.007C95.7114 402.604 95.9813 404.11 95.2473 404.052L95.2054 404.047C93.8394 403.945 93.7765 399.089 93.481 397.878L92.3413 389.756C92.0852 387.938 89.4696 388.531 89.2898 390.116L89.2848 390.168C88.9649 393.88 88.6405 397.592 88.3657 401.308C88.2791 401.95 88.2674 403.113 87.5654 403.393C86.9453 402.837 86.8278 401.9 86.6959 401.122C85.5284 390.404 83.3362 379.824 81.9844 369.131C82.8607 369.006 83.6634 368.46 83.9199 367.621C90.9529 366.186 98.3336 362.23 101.867 355.804C102.572 356.425 103.123 357.238 103.807 357.875C104.888 358.887 106.075 359.8 107.211 360.746C110.392 363.437 113.586 365.978 116.703 368.752C116.247 368.901 115.831 369.193 115.316 369.285ZM191.835 149.877C191.871 149.738 192.066 149.778 192.075 149.911C192.27 152.613 192.918 155.464 193.906 158.114C194.26 158.17 194.6 158.37 194.847 158.756C195.179 159.275 196.77 159.637 197.599 159.881L197.718 159.917C201.163 160.98 204.758 161.409 208.331 161.788C225.135 162.716 231.252 167.978 240.732 181.272C251.985 196.249 258.299 214.023 266.782 230.553C268.87 234.573 271.123 238.498 273.6 242.292L273.837 242.653C276.049 246.017 278.497 249.425 281.877 251.695C290.056 244.844 298.802 238.727 306.893 231.77L307.649 231.115C313.719 225.872 319.517 220.317 325.034 214.496C325.684 213.809 326.905 213.628 327.807 214.031C328.16 208.792 329.641 203.653 331.007 198.59C332.44 192.069 334.931 187.662 342.444 189.276C345.468 181.668 349.518 174.243 355.649 168.689L356.042 168.335C357.347 167.15 359.061 165.452 360.894 165.605C362.559 165.743 363.414 167.248 363.481 168.779C363.557 170.595 362.764 172.444 362.196 174.146L362.148 174.292C361.417 176.527 360.628 178.743 359.795 180.942C358.992 183.059 358.132 185.154 357.232 187.23C356.315 188.967 355.64 191.843 353.969 192.892C353.107 193.405 352.218 192.716 352.126 191.835C351.996 190.681 352.661 189.667 353.15 188.662C353.601 187.737 354.043 186.808 354.473 185.875C356.2 182.115 357.75 178.278 359.082 174.363C359.478 173.045 361.098 169.62 360.536 168.436C359.973 168.44 358.815 169.628 358.405 169.981C351.965 175.31 347.779 182.675 342.99 189.394C345.995 190.252 349.257 190.655 351.753 192.67C356.887 197.145 352.765 206.006 345.883 204.357C347.803 208.434 349.455 215.021 346.051 218.705C345.028 219.663 343.04 219.357 342.729 217.831C342.396 216.21 342.795 214.821 343.161 213.249C343.824 210.051 344.225 206.774 343.774 203.518L343.632 203.433C342.465 202.726 341.732 201.932 341.767 200.47C341.615 199.413 342.743 197.988 343.876 198.853C344.244 199.133 344.693 199.154 345.08 199.436C345.737 200.06 346.552 200.551 347.483 200.543L347.574 200.541C348.771 200.531 349.654 199.811 350.02 198.692C351.022 195.623 347.552 194.592 345.296 194.002L344.713 193.822C338.555 191.942 336.323 191.911 334.775 199.14C333.099 204.533 331.622 210.086 328.788 215.015L329.141 215.857C331.99 222.635 335.567 230.439 343.228 232.518C343.499 230.254 345.951 230.172 347.726 230.229C350.016 230.105 352.316 228.944 353.934 227.275C355.347 225.854 356.058 223.872 357.622 222.604C356.914 220.997 358.512 219.224 360.182 220.149C361.308 220.77 361.987 221.656 363.345 221.836C364.549 221.998 365.658 221.578 366.573 220.807C368.96 218.793 367.824 215.833 368.409 213.195C367.639 214.524 366.361 215.543 364.993 216.247C355.859 221.466 355.951 211.234 360.999 212.915C366.483 211.669 366.39 209.689 364.34 205.042L364.304 204.932C363.971 203.957 363.226 202.232 363.918 201.181C363.956 201.129 364.024 201.112 364.074 201.16C364.701 201.776 364.948 202.809 365.478 203.534L366.109 204.287C368.026 206.594 370.031 209.335 368.786 212.415C368.919 212.387 369.064 212.443 369.109 212.605C369.698 214.745 370.869 216.847 370.627 219.137C370.12 224.154 364.675 226.909 360.165 224.818C359.298 231.268 352.93 235.91 346.548 235.623C346.346 236.507 345.69 237.285 344.676 237.365C335.284 252.394 298.362 291.059 280.255 289.443C278.524 290.228 276.32 289.834 274.486 289.598C260.424 287.766 248.672 277.493 242.116 265.318C239.707 305.199 253.324 304.715 262.436 337.755C263.348 338.327 263.88 339.573 263.172 340.628C263.563 342.627 264.364 344.675 264.056 346.726C263.904 347.312 263.597 347.845 263.32 348.381C262.748 349.474 261.24 349.342 260.534 348.492C261.731 352.819 261.221 357.361 260.914 361.772C260.726 364.362 260.74 366.917 260.738 369.51C260.381 408.982 241.076 444.572 231.152 482.019C228.344 492.516 226.188 503.212 225.34 514.055C224.44 525.591 225.067 537.19 223.984 548.711C222.729 562.054 219.161 575.023 214.952 587.707C215.204 588.735 215.727 589.904 215.404 590.789C209.391 591.802 203.588 593.642 197.749 595.351C197.52 595.417 197.377 595.559 197.305 595.727L195.971 596.17C195.105 596.458 195.476 597.832 196.349 597.542L197.808 597.057C202.798 595.408 207.846 593.833 213.036 593.093L213.196 593.028C214.233 592.614 215.454 592.31 216.001 593.451C216.279 594.03 216.059 594.613 215.663 595.071C215.328 595.458 214.902 595.696 214.609 596.134C214.281 596.711 214.004 597.319 213.679 597.904C213.682 600.802 212.727 603.67 213.098 606.56C213.376 607.76 214.35 608.91 213.732 610.194L214.013 610.373C215.651 611.424 217.215 612.576 218.292 614.199C218.527 614.555 218.705 615.287 218.973 615.538C219.253 615.799 219.776 615.83 220.12 615.953C221.864 616.483 222.961 618.055 222.811 619.88C226.895 621.054 225.488 625.196 229.703 628.078C234.03 631.209 239.889 631.553 245 632.366L253.708 633.753L254.215 633.814C259.727 634.493 266.916 635.772 268.025 642.202L268.114 642.306C269.446 643.894 270.727 646.91 269.083 648.634C267.746 649.818 265.921 650.375 264.302 651.065C262.057 652.685 258.822 653.439 256.359 653.896C235.066 657.833 213.131 658.29 191.695 655.235L191.337 655.183C189.839 654.959 188.292 654.655 186.924 654.014C185.011 657.23 181.328 656.825 178.227 655.913C175.793 655.311 173.359 654.719 170.924 654.126L170.696 654.066C166.936 653.102 161.604 652.81 160.693 648.229C160.223 645.871 160.254 643.247 160.278 640.851L160.272 640.064C160.269 638.046 160.428 635.309 162.717 634.883C159.538 629.001 160.23 621.769 163.191 615.939L163.348 615.653C165.527 611.662 166.888 608.33 166.165 603.617C164.714 602.251 164.037 600.291 163.5 598.364C162.373 594.308 161.388 590.209 160.554 586.082L161.848 583.429C165.64 575.645 169.391 567.828 172.224 559.639C172.485 558.887 171.261 558.356 170.922 559.091C167.339 566.857 162.957 574.235 159.622 582.118C157.41 586.24 154.755 590.115 151.778 593.724L151.646 593.907C150.49 595.489 149.522 596.016 147.624 596.667C147.32 596.795 147.011 596.798 146.722 596.715C144.91 599.167 142.712 601.109 141.761 604.036C140.723 607.274 140.326 610.834 140.122 614.218C140.013 618.628 141.852 622.791 143.007 626.979C144.774 632.62 146.741 638.2 148.918 643.698C150.08 644.168 151.135 644.89 152.108 645.78C152.919 645.701 153.773 646.069 154.077 647.056L154.203 647.468C155.274 651.019 156.184 655.12 154.792 658.677C150.945 667.294 138.582 669.443 130.126 670.475C117.603 671.662 104.467 668.674 94.0418 661.547C92.5694 660.516 91.5648 659.343 91.3202 657.515L91.2945 657.287C90.958 654.231 90.8798 650.605 93.004 648.236C94.8199 632.735 97.7944 617.24 102.078 602.225C102.045 601.801 102.019 601.377 101.998 600.95C99.6064 598.463 98.6705 594.963 98.4021 591.6C98.371 590.188 99.8021 589.893 100.912 589.72L101.321 589.717C104.937 589.691 108.669 589.868 111.896 591.216L111.737 591.223C111.574 591.231 111.403 591.25 111.28 591.335C112.896 591.852 114.66 592.083 116.205 592.763C117.35 592.819 118.348 593.362 119.508 593.46L119.692 593.471C119.898 593.489 120.055 593.429 120.168 593.326C123.282 593.881 126.379 594.628 129.489 595.084C130.386 595.216 130.773 593.846 129.868 593.713C125.707 593.102 121.566 591.981 117.377 591.462C116.451 591.103 115.556 590.643 114.627 590.272C114.573 590.149 114.472 590.039 114.307 589.962C113.288 589.484 112.23 589.092 111.148 588.763C108.374 587.904 105.46 587.543 102.571 587.372L102.776 585.309C106.1 551.585 108.525 516.958 122.315 485.553C119.385 478.791 115.4 472.35 112.837 465.395C111.773 462.615 111.127 459.78 110.284 456.943C109.736 455.584 109.283 454.208 109.063 452.75C105.687 437.32 103.778 421.623 101.786 405.972C100.445 404.864 99.5594 403.268 98.7821 401.8L98.7786 402.023C98.7327 404.44 98.3911 407.223 95.3457 407.152C92.8876 407.093 91.8116 405.261 91.2608 403.234C90.1902 407.471 85.4331 407.703 84.0388 403.53C83.4166 401.848 83.4427 399.928 83.2574 398.162C82.2635 388.471 80.1893 378.787 80.7852 369.029C80.1582 368.816 79.612 368.337 79.3458 367.538C67.471 331.6 56.9032 293.139 64.6119 255.216C72.3199 218.061 93.1947 176.468 132.643 165.933C140.63 163.916 148.743 163.232 156.929 162.712C158.11 160.428 158.874 157.831 159.028 155.246C159.076 154.499 159.04 153.76 159.038 153.013C159.036 152.323 159.33 151.501 159.192 150.857C159.159 150.7 159.373 150.648 159.43 150.792C159.603 151.245 159.957 151.473 160.197 151.854C160.793 152.933 160.951 154.213 161.109 155.419C161.701 160.124 160.354 164.966 157.505 168.744L157.406 168.874C156.523 170.054 154.841 172.192 153.103 171.168C151.588 170.274 152.558 168.452 153.462 167.477L153.531 167.404C154.754 166.134 155.78 164.776 156.613 163.295C152.909 164.281 149.234 165.367 145.541 166.395L145.366 166.491C142.474 168.064 138.177 169.749 138.557 173.65C146.247 196.836 180.268 202.794 201.294 197.258L201.63 197.167C205.653 196.059 209.681 194.278 212.419 191.031L212.532 190.894C217.392 185.145 217.02 175.647 210.934 170.926C207.32 167.968 202.325 166.397 197.815 165.373C199.127 167.549 202.028 169.086 202.555 171.663C202.691 172.547 202.202 173.389 201.226 173.408C198.746 173.455 196.917 170.81 195.616 169.033C192.9 165.314 191.359 160.818 191.03 156.239C190.866 154.011 191.277 152.003 191.835 149.877ZM355.887 191.707C355.756 191.618 355.829 191.35 356.006 191.423C362.746 194.214 365.497 204.209 360.423 209.713C358.74 211.488 356.215 212.514 353.916 211.583C351.091 211.106 349.44 208.255 349.079 205.629C349.054 205.507 349.191 205.451 349.269 205.528L349.283 205.544C350.35 206.859 352.033 207.739 353.567 208.412C353.997 208.18 354.467 207.995 354.94 207.886C355.612 207.734 356.301 208.26 356.237 208.945C359.409 208.365 360.681 204.593 360.777 201.732L360.78 201.645C360.908 197.685 359.115 194.023 355.887 191.707Z" fill="black"/>
<path fill-rule="evenodd" clip-rule="evenodd" d="M218.885 100.435C218.322 93.1479 219.195 85.5105 216.386 78.5846C211.488 67.0932 197.753 63.2616 187.105 58.8867C182.839 57.6261 168.485 57.4499 163.49 55.7815C152.185 52.0055 149.485 47.5065 140.502 54.6961C138.986 55.9243 138.037 57.2591 137.345 59.0829L137.374 59.0907C137.176 59.8511 137.388 60.6097 137.833 61.1892C133.939 65.1705 132.309 71.1394 134.307 76.4392C140.828 90.2305 140.522 97.6876 138.421 112.514C135.677 126.355 141.947 131.412 152.331 138.943C151.908 139.763 151.82 140.852 152.371 141.575C164.379 158.45 187.019 166.507 206.417 157.942C214.291 154.437 217.806 146.051 219.812 138.484C222.149 130.011 222.868 121.083 220.965 112.452C220.198 108.46 219.198 104.498 218.885 100.435Z" fill="#D08B5B"/>
<path fill-rule="evenodd" clip-rule="evenodd" d="M132.883 79.764L140.023 84.5207L165.579 57.5757L157.075 50.8813C157.075 50.8813 141.645 62.2859 138.611 65.2958C135.578 68.3057 132.883 79.764 132.883 79.764Z" fill="#9FD8E5"/>
<path fill-rule="evenodd" clip-rule="evenodd" d="M149.624 19.7041C151.081 19.4852 152.182 20.3896 152.705 21.6643L152.733 21.7329C152.901 22.1666 153.088 22.5885 153.29 23.0033C156.937 21.2139 162.141 21.6737 164.45 25.2975C166.097 27.8857 165.092 30.9573 164.471 33.7019L164.063 35.5103C164.851 36.0118 165.445 36.9098 165.418 37.8396L165.414 37.9112L165.248 40.433C165.774 39.8997 166.255 39.3191 166.684 38.7005C166.981 38.1577 167.301 37.6244 167.644 37.1078C169.666 34.0669 174.204 36.7096 172.536 39.9661C172.216 40.5942 171.856 41.1891 171.469 41.7626C171.033 42.6088 170.675 43.4786 170.4 44.3721C171.19 44.7158 171.796 45.479 171.86 46.6308C172.01 49.3209 170.597 51.5654 168.35 52.9756C167.689 53.3903 167.007 53.4709 166.388 53.3169C166.279 53.4638 166.17 53.6108 166.066 53.7601C166.962 54.4877 167.77 55.3172 168.464 56.2368C170.554 55.924 172.657 55.777 174.759 55.7723C177.328 54.5138 180.404 54.5398 183.165 55.0115C184.942 55.3149 186.648 55.905 188.397 56.3293C190.241 56.7748 192.113 56.7914 193.978 57.0948C196.329 57.4764 198.391 58.5619 199.687 60.2944C201.112 60.3371 202.61 60.9202 203.851 61.7118C206.743 63.5557 209.617 65.4257 212.501 67.2815C213.608 67.994 214.022 69.1314 213.819 70.4L213.805 70.4811L213.708 71.0073L213.936 71.3312C214.818 72.5777 215.779 73.8834 216.35 75.2593C217.407 76.7832 218.362 78.3807 219.208 80.0279C220.348 82.2416 221.289 84.588 221.926 86.996C222.085 87.6051 222.244 88.219 222.348 88.8399C222.498 89.7169 222.268 90.3971 222.142 91.2385C221.986 92.305 221.929 93.3858 221.763 94.4547C221.652 95.1634 221.05 95.5118 220.419 95.5307C220.656 97.3344 220.827 99.1499 220.99 100.951C221.22 103.525 221.377 106.106 221.512 108.687C222.208 109.699 223.633 110.5 224.661 110.778C226.086 111.159 227.579 110.744 228.925 110.259C229.771 109.953 230.465 111.017 230.053 111.728C228.756 113.961 225.984 113.951 223.884 112.963C222.995 112.546 222.216 111.941 221.637 111.154C221.673 111.903 221.711 112.652 221.749 113.404L221.784 114.084C222.211 122.032 223.133 130.252 221.64 138.121C219.054 151.752 207.775 162.13 193.997 162.936C186.767 163.359 180.747 161.224 177.753 160.032C174.759 158.841 175.922 156.412 178.001 157.106C181.581 158.302 188.158 160.084 194.045 159.315C207.918 157.501 219.682 150.566 218.474 120.699C218.302 116.463 217.774 112.226 217.661 107.99C217.552 103.85 217.592 99.7068 217.409 95.5686L217.349 94.1567C217.277 92.507 217.201 90.8495 217.078 89.1978C216.928 88.5579 216.805 87.9085 216.623 87.2804C216.127 85.5716 215.48 83.9101 214.677 82.3245C214.499 82.4596 214.3 82.5568 214.084 82.5947C212.447 82.8886 210.911 82.8057 209.378 82.1231C208.662 81.8078 208.032 81.3883 207.444 80.8693C207.164 80.6252 206.977 80.3882 206.83 80.1417C206.089 80.1535 205.347 79.9307 204.882 79.3975C204.352 78.7896 204.264 78.1618 204.472 77.5807L204.494 77.5227L204.441 77.5037C203.816 79.1225 202.569 80.547 201.202 81.5092C199.04 83.0356 196.336 83.4764 193.744 83.5167C190.881 83.5593 187.862 83.1185 185.037 82.6682C184.29 82.5497 183.549 82.4146 182.821 82.2321C182.793 82.2605 182.764 82.2937 182.733 82.3222C180.309 84.6425 176.899 85.2398 173.823 83.9149C172.045 83.1493 170.554 81.9169 169.237 80.5043C169.218 81.2438 169.18 81.9832 169.116 82.7156L169.089 83.0064C168.958 84.3704 168.706 85.8173 167.675 86.8017C166.009 88.3967 163.592 87.7568 161.67 86.7187C161.672 86.7685 161.672 86.8206 161.672 86.8727C162.191 88.6361 162.713 90.4018 163.234 92.1676L163.346 92.5437C163.725 93.7975 164.141 95.0528 164.255 96.365C164.473 98.8726 162.805 101.349 160.018 100.508C158.556 100.068 157.385 98.8389 156.261 97.8543L155.553 97.2419C157.385 103.231 158.655 109.434 158.774 115.684C158.781 116.023 158.489 116.279 158.167 116.29C157.413 116.321 156.603 116.172 155.845 115.871C155.802 115.869 155.759 115.866 155.714 115.859C154.42 115.672 153.219 115.205 152.159 114.515C152.404 115.29 152.513 116.122 152.449 116.992C152.432 117.203 152.103 117.276 152.055 117.044C151.444 114.036 147.924 111.764 144.891 112.339C141.635 112.958 139.236 115.76 138.649 118.947C138.018 122.372 139.225 126.333 141.459 128.975C142.488 130.193 143.841 131.21 145.448 131.466C146.183 131.582 146.946 131.542 147.659 131.333C147.962 131.243 148.247 131.118 148.536 130.999C148.958 130.829 149.451 130.803 149.849 130.622C150.752 130.217 151.659 131.049 151.202 131.976C150.804 132.784 150.446 133.329 149.785 133.746C150.32 134.4 150.806 135.31 150.986 135.555C151.906 136.797 152.84 137.97 153.887 139.105C154.954 140.257 156.117 141.309 157.347 142.283L157.864 142.692C159.049 143.632 160.08 144.502 160.916 145.85C161.575 146.914 160.722 148.358 159.487 148.341C155.624 148.287 152.816 144.893 150.816 141.928C150.531 141.504 150.264 141.056 150.015 140.596C149.925 140.74 149.825 140.875 149.714 140.999L149.934 141.591C150.588 143.336 147.77 144.476 146.953 142.847C146.358 141.667 145.668 140.544 144.9 139.482C144.448 139.418 144.005 139.143 143.758 138.787C143.135 137.884 142.436 136.972 141.846 136.01C141.519 135.699 141.182 135.401 140.838 135.109C140.739 135.197 140.637 135.284 140.54 135.377C140.109 136.36 139.575 137.259 138.914 138.105L138.772 138.285C137.506 139.882 135.856 141.516 133.814 141.906C133.191 142.025 132.591 141.25 133.143 140.755C134.573 139.47 136.262 138.595 137.58 137.162C138.229 136.455 138.825 135.677 139.338 134.862L139.454 134.673C139.54 134.533 139.627 134.393 139.718 134.251C139.123 133.846 138.528 133.438 137.933 133.03C136.295 134.43 134.163 135.07 132.352 136.229L132.172 136.346C130.534 137.441 128.809 135.019 130.122 133.689C131.569 132.229 132.777 130.488 134.059 128.865C133.457 127.754 133.171 126.441 133.064 125.114C133.022 124.738 132.989 124.362 132.956 123.986C132.037 124 131.112 123.685 130.33 123.142L130.034 122.931C129.084 123.235 128.086 123.382 127.131 123.356C124.884 123.289 123.965 120.723 125.37 119.099C126.804 117.44 129.314 117.077 131.302 117.883C131.366 117.85 131.432 117.814 131.496 117.779C131.402 117.343 131.423 116.947 131.531 116.6L131.499 116.388C131.062 115.717 130.775 114.951 130.666 114.141C130.579 113.5 130.597 112.865 130.745 112.232C130.794 112.021 130.897 111.803 130.975 111.583C130.814 111.175 130.719 110.753 130.689 110.329C130.644 110.275 130.599 110.22 130.556 110.16C129.57 108.775 129.769 107.106 130.708 105.985C130.712 105.913 130.719 105.842 130.729 105.771C130.674 105.647 130.623 105.522 130.577 105.396C129.66 104.471 128.986 103.357 129.112 101.977C129.186 101.165 129.519 100.434 130.024 99.8875C129.935 99.6225 129.926 99.3155 130.035 99.0593C129.229 96.9153 129.331 94.3331 129.911 91.9353C129.783 91.5703 129.717 91.1745 129.731 90.755C129.797 88.975 131.338 87.3397 133.162 87.361C133.382 87.3629 133.588 87.3916 133.785 87.4335L133.788 87.3911C133.858 86.8569 134.005 86.3632 134.219 85.9202C134.114 85.882 134.016 85.8273 133.931 85.7545C132.761 86.3783 131.524 86.8552 130.227 87.1802C129.273 87.4191 128.296 86.3347 128.889 85.4393C129.164 85.0238 129.468 84.6508 129.795 84.31C129.33 84.3126 128.858 84.3441 128.38 84.4055C127.522 84.5169 126.565 83.9315 126.008 83.1398C125.316 83.813 124.621 84.4837 123.927 85.1544C122.169 86.8585 119.512 85.6048 119.235 83.3579C118.711 83.2181 118.223 82.981 117.794 82.6421C115.021 83.8461 112.037 84.5074 108.987 84.633C106.797 84.7231 105.518 82.1728 106.542 80.3716C107.229 79.1628 108.082 78.0773 109.065 77.134C107.539 77.6009 105.963 77.9375 104.354 78.1532C103.484 78.2693 102.254 77.5488 101.906 76.7501C100.574 73.6784 100.688 70.4764 102.221 67.4877C102.28 67.3692 102.347 67.2554 102.411 67.1417C102.57 66.7459 102.743 66.3548 102.93 65.9708C101.043 64.0037 100.88 61.079 101.897 58.6306C101.489 57.9694 101.333 57.173 101.61 56.4525C102.399 54.3787 103.537 52.4636 104.973 50.8188C104.835 50.5533 104.714 50.2713 104.612 49.9679C103.804 47.5149 104.74 44.5546 106.629 42.8458C107.817 41.7697 109.182 41.1251 110.639 40.7127C111.253 39.6272 112.042 38.6483 112.962 37.8235C112.997 37.7453 113.033 37.6671 113.073 37.5889C114.504 34.8917 117.111 33.446 119.905 33.1118C120.014 32.0571 120.725 31.0498 121.759 30.7227C122.043 29.8102 122.467 28.938 123.05 28.1464C123.967 26.8997 125.491 26.3119 126.927 27.1296C127.714 27.5776 128.468 28.0919 129.174 28.6607C129.491 28.5119 129.851 28.4157 130.256 28.385L130.359 28.3787L132.696 28.2602C133.674 27.8264 134.651 27.3714 135.629 26.9282C136.217 26.4423 136.874 26.037 137.589 25.736C138.4 25.3971 139.229 25.2051 140.061 25.1411C140.737 24.9207 141.417 24.7264 142.109 24.5747C143.734 24.2192 145.436 24.0201 147.123 24.0367C147.158 23.5999 147.175 23.1579 147.172 22.7107L147.168 22.4866C147.131 21.0527 148.275 19.9079 149.624 19.7041ZM147.986 134.429C147.754 134.479 147.519 134.519 147.285 134.547C147.356 134.723 147.427 134.898 147.496 135.074C147.685 135.18 147.877 135.282 148.069 135.377C148.012 135.055 147.979 134.73 147.986 134.429ZM135.81 130.81L135.653 131.101C135.627 131.148 135.602 131.195 135.577 131.241C135.912 131.215 136.248 131.222 136.58 131.26L136.579 131.225C136.536 131.21 136.494 131.197 136.453 131.177C136.224 131.067 136.011 130.944 135.81 130.81ZM142.391 117.573C144.488 117.695 146.264 118.016 148.171 118.934L148.335 119.014C150.02 119.85 152.807 121.396 152.572 123.612C152.506 124.242 152.048 124.906 151.328 124.856C149.354 124.721 148.226 122.73 146.889 121.488C145.541 120.237 143.884 118.95 142.251 118.089C142.02 117.968 142.111 117.585 142.362 117.573L142.391 117.573ZM132.883 88.3755C132.38 88.3921 132.549 88.8803 132.807 88.4727C132.828 88.4395 132.854 88.4063 132.883 88.3755ZM160.003 55.7814C155.245 55.9065 150.456 58.7163 146.891 61.5564C143.79 64.0272 141.112 66.9661 138.741 70.1338C138.131 71.7113 137.608 73.3218 137.165 74.9441C136.874 76.0154 136.691 77.0985 136.447 78.1793L136.371 78.5107C136.18 78.869 136.037 79.2546 135.933 79.653C136.365 80.0863 136.926 80.3965 137.543 80.5437C137.742 80.5911 137.907 80.6938 138.038 80.8298C138.534 80.0007 138.968 79.1257 139.221 78.198L139.23 78.1551C140.185 76.5911 141.222 75.0757 142.334 73.6121C145.4 69.5711 148.778 65.888 152.837 62.8234C155.916 60.5007 159.357 58.6805 163.016 57.4978C162.12 56.7752 161.103 56.2035 160.003 55.7814Z" fill="black"/>
<path fill-rule="evenodd" clip-rule="evenodd" d="M203.063 143.666C201.314 144.172 199.436 144.217 197.653 143.695C196.035 143.221 194.374 142.178 193.184 140.799C192.126 139.573 191.441 138.084 191.468 136.494C191.471 136.313 191.536 136.161 191.636 136.044C191.744 135.917 191.895 135.83 192.056 135.792C192.222 135.754 192.397 135.767 192.546 135.835C192.681 135.896 192.797 136 192.869 136.152C193.052 136.392 193.234 136.628 193.417 136.858C194.888 138.671 196.313 140.026 198.525 140.511C199.725 140.775 200.924 140.658 202.023 140.256C203.201 139.825 204.265 139.068 205.099 138.099C205.476 137.661 205.921 137.483 206.356 137.48C206.849 137.476 207.336 137.705 207.703 138.07C208.064 138.429 208.306 138.918 208.328 139.428C208.347 139.876 208.2 140.344 207.811 140.762C206.527 142.138 204.863 143.146 203.063 143.666ZM203.01 120.962C204.803 122.05 207.536 124.587 205.606 127.284C203.335 129.662 200.066 126.935 198.455 125.702C196.961 124.747 195.282 127.204 196.668 128.32C208.311 136.923 213.036 121.247 203.917 119.683C202.913 119.511 202.54 120.626 203.01 120.962ZM186.234 116.175C185.657 115.807 184.979 115.681 184.228 116.022C183.641 116.289 182.611 117.177 181.894 118.345C181.403 119.144 181.056 120.082 181.128 121.058C181.145 121.285 181.061 121.452 180.929 121.576C180.824 121.673 180.673 121.745 180.495 121.767C180.345 121.786 180.176 121.769 180.039 121.726C179.778 121.645 179.64 121.476 179.588 121.339C179.086 120.008 179.303 118.524 179.865 117.185C180.624 115.378 182.003 113.864 182.906 113.376C184.451 112.54 186.275 112.502 187.822 113.353C189.14 114.078 189.964 115.247 190.783 116.439C190.957 116.693 191.13 116.944 191.309 117.191C191.667 117.687 191.702 118.178 191.564 118.599C191.41 119.065 191.018 119.459 190.529 119.665C190.076 119.856 189.55 119.883 189.086 119.687C188.693 119.522 188.332 119.199 188.104 118.652C187.72 117.732 187.08 116.716 186.234 116.175ZM215.507 118.224C215.113 118.429 214.804 118.491 214.366 118.36C214.124 118.288 213.884 118.149 213.697 117.962C213.511 117.776 213.377 117.546 213.325 117.29C213.197 116.659 212.851 116.069 212.358 115.684C211.937 115.354 211.405 115.18 210.815 115.278C210.179 115.384 209.572 115.792 209.154 116.272C209.015 116.433 208.905 116.616 208.795 116.797C208.589 117.136 208.389 117.451 208.106 117.7C207.998 117.795 207.836 117.861 207.679 117.861C207.615 117.861 207.55 117.85 207.488 117.831C206.855 117.196 206.733 116.715 206.753 116.237C206.775 115.737 206.973 115.23 207.292 114.757C208.042 113.647 209.466 112.737 210.427 112.531C211.743 112.249 213.049 112.588 214.097 113.321C215.175 114.076 215.974 115.247 216.223 116.568C216.283 116.886 216.257 117.229 216.136 117.527C216.018 117.817 215.811 118.066 215.507 118.224ZM189.135 104.344C188.346 105.112 187.411 105.231 186.466 105.337C185.94 105.396 185.521 105.444 185.108 105.537C183.974 105.793 182.853 106.177 181.83 106.732C180.76 107.311 179.595 108.01 178.757 108.905C178.557 109.118 178.369 109.342 178.181 109.566C178.01 109.77 177.844 109.967 177.67 110.156C177.47 110.374 177.28 110.602 177.091 110.83C176.974 111.022 176.951 111.069 176.927 111.119C176.892 111.192 176.851 111.275 176.804 111.364C176.739 111.485 176.664 111.618 176.585 111.739C176.453 111.96 176.383 112.02 176.322 112.047C176.221 112.092 176.125 112.115 176.032 112.103C175.944 112.091 175.862 112.049 175.781 111.981C175.375 111.639 175.256 111.078 175.268 110.483C175.287 109.579 175.621 108.578 175.929 107.963C176.645 106.534 177.637 105.049 178.831 103.982C180.193 102.765 181.684 101.843 183.396 101.208C184.459 100.813 185.691 100.45 186.85 100.496C187.684 100.529 188.481 100.777 189.138 101.395C189.542 101.774 189.736 102.314 189.736 102.853C189.736 103.403 189.535 103.956 189.135 104.344ZM217.114 111.375C217.063 111.457 216.994 111.514 216.917 111.548C216.835 111.584 216.745 111.594 216.658 111.579C216.572 111.565 216.489 111.526 216.424 111.466C216.362 111.409 216.314 111.333 216.293 111.24C215.769 108.942 214.751 107.232 212.578 106.129C211.509 105.587 210.28 105.242 209.117 104.968C208.778 104.888 208.421 104.836 208.061 104.784C206.934 104.619 205.798 104.431 205.063 103.522C204.62 102.974 204.434 102.273 204.539 101.632C204.638 101.029 204.992 100.476 205.634 100.144C207.233 99.3189 209.22 100.129 210.834 100.818C210.954 100.869 211.072 100.92 211.187 100.968C212.766 101.633 214.206 102.511 215.39 103.767C216.329 104.763 217.199 106.235 217.55 107.75C217.841 109.011 217.773 110.297 217.114 111.375Z" fill="black"/>
</svg>
