<svg width="391" height="780" viewBox="0 0 391 780" fill="none" xmlns="http://www.w3.org/2000/svg">
<path fill-rule="evenodd" clip-rule="evenodd" d="M270.006 388.609C276.261 388.749 273.579 330.391 269.402 319.637C268.817 317.457 268.334 314.479 268.432 311.805C273.597 312.322 273.041 308.786 272.775 304.522C272.862 301.137 273.098 294.152 267.916 296.872C252.383 265.773 269.178 185.385 228.28 177.813C223.352 176.616 218.258 175.378 214.109 171.961C209.718 163.845 207.482 162.808 200.207 162.283C198.86 154.973 196.342 147.163 188.838 144.318C181.967 141.626 173.971 141.411 166.808 142.848C160.878 144.782 160.336 155.804 159.019 161.238C151.033 159.12 141.191 154.666 136.891 164.763C134.809 164.14 132.879 164.544 130.763 165.237C113.028 168.095 95.8202 176.118 89.2422 192.859C85.1788 202.905 88.0625 213.841 89.5864 224.246C91.0076 235.575 87.26 246.071 85.5227 256.968C82.9361 271.974 82.4683 284.011 84.1563 295.164C79.6947 296.179 79.3657 300.238 81.1707 304.484C81.7008 305.921 82.2347 307.436 83.4068 308.248C85.7912 309.749 88.8728 308.02 91.4641 307.755C92.0031 313.747 93.0468 319.627 94.7736 326.31C94.2735 328.31 93.6999 330.544 93.1848 332.552L93.011 332.364C87.0951 357.144 69.5005 381.214 74.9689 407.55C75.2905 408.427 75.9007 408.244 76.3692 408.229C79.0837 409.261 81.5772 408.606 84.3146 408.712C90.8077 408.716 97.0809 409.548 102.9 410.272C103.964 417.221 107.423 428.598 113.59 431.247C113.694 431.283 115.522 430.902 115.675 430.891C99.256 497.467 69.7136 559.029 57.9788 626.946C57.9092 627.775 59.2578 627.337 59.7003 627.437C59.6397 629.322 60.8574 629.775 62.5625 630.445C60.3653 635.039 58.386 639.627 56.1986 644.232C55.1843 646.512 53.5314 648.763 53.2301 651.2C50.8086 652.748 49.1776 655.773 49.2208 658.597C42.6908 661.357 44.4656 674.989 42.9759 681.741C41.4694 691.8 34.3041 698.825 29.391 707.072C28.3898 708.727 27.3236 710.897 27.2763 712.976C24.2306 714.404 23.0949 717.523 23.2965 722.773C23.2856 728.916 25.0182 731.254 29.6901 731.403C42.3799 732.671 57.1878 732.155 69.9512 730.712C79.4991 729.498 87.96 730.506 85.8252 719.033C85.3859 716.255 86.2297 712.516 84.586 710.268C83.5724 703.577 84.1621 696.832 86.3475 690.222C87.6762 684.656 89.9208 673.159 88.9907 665.689C88.5605 662.234 81.508 660.333 80.2666 660.165C80.6615 657.564 80.4877 653.02 79.0884 651.212C81.6579 650.854 82.3037 650.175 82.8389 647.321C84.1177 642.699 84.2879 637.681 87.4548 633.787C93.1506 633.86 98.8273 632.415 104.52 632.239L104.803 631.585C108.17 631.542 111.519 630.947 114.714 629.781C115.423 630.116 116.33 630.404 116.728 629.331L118.629 623.386C140.759 552.959 165.29 482.363 189.208 412.452C190.604 409.053 192.283 405.441 194.467 402.412C195.206 445.188 204.167 487.917 204.937 530.672C205.976 560.085 205.709 589.188 208.475 618.705C209.187 624.952 209.944 624.744 210.877 624.361C211.251 624.419 212.13 624.607 212.511 624.687C211.888 630.895 211.17 640.972 208.508 647.321C202.624 648.229 203.677 652.744 204.983 656.487C203.579 657.686 203.778 660.481 204.195 662.028C198.658 662.033 197.451 666.537 197.832 669.379C198.359 674.131 198.064 681.527 201.235 685.586C203.103 690.762 206.143 695.647 207.33 701.223C208.077 705.326 207.788 711.302 208.508 715.372C206.697 716.208 207.465 717.519 207.159 720.056C205.592 731.669 211.109 729.695 220.863 730.495C226.71 731.786 271.221 734.355 269.298 726.629C269.626 723.482 268.162 722.101 267.536 719.003C267.254 718.181 261.709 708.666 258.401 705.064C247.308 694.64 247.792 680.647 248.144 664.528C247.491 660.159 244.13 655.975 239.842 656.446C241.073 651.779 238.791 647.723 234.022 646.373C234.498 641.09 235 633.912 236.744 629.342L235.101 627.67L237.3 627.933L238.03 626.095L238.826 628.109C242.601 628.109 246.86 627.272 250.476 626.878C251.053 626.911 250.795 626.126 250.89 625.823C254.305 625.116 254.679 623.302 254.075 618.978C254.871 548.784 254.525 479.248 253.438 408.923C258.775 409.161 263.978 407.214 269.223 405.917C271.086 407.086 271.614 402.922 271.396 402.024C271.1 397.371 270.524 392.833 270.006 388.609Z" fill="#D08B5B"/>
<path fill-rule="evenodd" clip-rule="evenodd" d="M219.596 334.742C219.596 334.742 224.484 368.799 227.036 381.896C227.089 382.169 227.589 382.456 227.984 382.386L228.025 382.377L228.561 382.245L229.455 382.579L230.204 382.858L236.552 385.196L238.297 385.844C244.23 388.056 247.633 389.436 251.489 391.23L253.806 392.316L252.634 394.038C252.626 394.05 252.618 394.066 252.61 394.087L252.601 394.109L252.597 394.125L252.665 394.311C253.769 397.368 253.968 400.096 253.754 404.793L253.734 405.195L253.685 406.166L253.648 406.928L253.647 406.991C253.644 407.163 253.632 407.316 253.609 407.519L253.598 407.609L253.531 408.125L253.514 408.277C253.511 408.307 253.509 408.335 253.507 408.36L253.502 408.43L253.5 408.488L253.5 408.502L253.916 408.965L253.868 409.71C253.709 412.158 251.912 611.403 253.14 621.036L253.178 621.29L253.202 621.426L253.204 621.564C253.211 621.935 253.169 622.268 253.082 622.671L253.047 622.824L252.948 623.243C252.925 623.342 252.91 623.412 252.9 623.467L252.894 623.512L252.887 623.568L253.017 623.878L252.948 625.016L252.936 625.222C252.93 625.355 252.925 625.477 252.922 625.596L252.883 627.323L250.653 627.455C246.813 627.674 243.448 627.78 237.584 627.882L236.896 627.893L230.4 627.996C223.855 628.106 219.564 628.245 215.206 628.532L213.767 628.631L213.204 628.121C213.172 628.092 213.083 628.073 213.028 628.082L213.007 628.088L210.294 629.166L210.59 626.108L210.486 626.086L210.69 624.388L210.707 624.225C210.815 623.131 210.764 622.006 210.568 620.094L210.442 618.892C210.324 617.727 210.268 617.015 210.249 616.279L210.247 616.2L210.242 615.883L210.156 614.702C209.291 602.714 206.255 525.478 206.255 525.478C205.679 514.611 194.462 408.767 194.462 408.767L194.418 406.991L194.4 406.363L194.217 406.675L194 407.049L193.723 407.529C190.506 413.133 187.826 418.795 186.567 423.106L186.494 423.36L185.784 425.251C163.654 484.258 142.361 545.929 116.759 624.036L114.945 629.576L114.24 629.901C109.419 632.123 104.384 632.563 97.4742 631.873L97.2457 631.85L96.7896 631.802C95.999 631.716 95.2862 631.631 94.3494 631.51L93.7252 631.428L90.5541 631.003C89.3448 630.843 88.554 630.745 87.7607 630.657L87.1175 630.588L86.1833 630.497L85.4212 630.425C75.8144 629.533 67.9563 629.373 60.482 630.096L60.1871 630.125L58.4718 630.301L58.053 628.716C57.9717 628.383 57.9295 628.033 57.9226 627.662L57.9216 627.522L57.9239 627.358L58.0544 626.691C61.27 610.41 84.2446 533.168 84.2446 533.168C86.8453 524.744 98.0955 488.655 101.783 476.701L102.203 475.337L102.726 473.633C108.127 455.991 111.038 445.747 111.771 441.528L111.813 441.277L111.824 441.209L111.84 441.142L112.283 439.285L112.48 439.005C113.026 438.232 113.289 437.334 113.45 435.814L113.476 435.561L113.498 435.317L113.787 431.772L116.353 433.634L116.552 433.777C118.234 434.965 119.501 435.435 120.289 435.34L120.343 435.332L120.341 435.318L123.779 434.445L124.053 435.221L124.192 435.61C124.496 436.432 125.118 436.989 125.656 437.075C126 437.13 126.275 436.97 126.524 436.329L126.548 436.265L126.56 436.231L126.576 436.151L126.615 435.939C127.048 433.541 127.072 431.306 126.829 427.064L126.807 426.684L126.7 424.907C126.527 421.945 126.488 420.361 126.584 418.54L126.602 418.228L127.533 402.76L130.713 421.424L131.936 428.554L132.126 429.701L132.176 429.992C132.82 433.688 133.603 435.664 135.131 436.641L135.211 436.691L135.208 436.095L135.2 434.921C135.195 434.325 135.188 433.715 135.18 433.086L135.157 431.472L135.132 429.967L134.882 417.352L138.154 419.714L138.237 419.773C138.378 419.871 138.5 419.95 138.604 420.011L138.666 420.047L138.75 419.911C140.506 417.019 140.879 413.792 140.069 410.042L140.032 409.876L139.996 409.718C139.263 406.558 137.868 403.397 135.379 398.842L135.265 398.634L134.898 397.968L133.8 396.002L133.022 394.605L132.702 394.024C132.499 393.654 132.316 393.315 132.141 392.987L132.076 392.864L130.781 390.405L133.321 390.077C134.968 389.865 132.127 362.609 151.043 350.301C171.959 336.692 219.596 334.742 219.596 334.742Z" fill="#FFCF77"/>
<path fill-rule="evenodd" clip-rule="evenodd" d="M93.9484 325.139C95.045 329.009 96.272 334.742 97.5575 338.561C99.8682 349.145 101.602 359.891 102.736 370.664C103.116 374.266 103.413 377.868 103.849 381.452C103.406 383.784 104.316 390.409 103.783 392.726C94.5436 394.44 81.6351 401.749 74.2289 407.582C71.8464 388.007 82.7789 366.082 87.4566 347.592C87.767 346.404 88.0763 345.204 88.3728 343.996C89.7098 340.236 92.3288 330.783 93.2563 327.001L93.3812 326.486L93.555 326.674L93.9484 325.139ZM213.446 171.353C214.485 172.005 215.566 172.556 216.676 173.033C225.311 177.998 240.47 178.15 245.689 187.87C259.171 215.905 259.591 263.345 267.176 296.737C267.594 298.579 271.501 296.609 271.926 298.396C272.98 302.832 271.881 307.097 273.113 311.117C268.304 312.355 255.824 313.168 251.027 314.435C252.214 318.542 265.026 351.783 270.11 399.167C268.269 398.754 266.472 398.156 264.714 397.469L264.039 397.176C254.148 392.873 238.603 386.18 227.87 384.455C221.072 343.078 214.86 299.117 214.085 256.86L214.052 254.909C213.823 242.409 212.29 230.021 210.365 217.686L210.259 216.819C209.216 208.228 208.329 199.28 210.351 190.797C211.005 190.997 209.131 186.432 208.279 180.602C207.751 176.991 209.214 172.817 207.091 169.225C204.144 164.238 200.133 170.615 200.441 169.225C200.596 168.527 196.548 160.038 198.067 160.93C199.723 161.904 205.904 161.878 208.279 164.248C213.468 169.427 214.414 173.366 213.526 171.519L213.446 171.353ZM125.169 167.37C127.328 166.949 133.594 164.838 135.844 164.959C134.525 167.775 137.744 155.242 147.956 158.086C148.403 158.21 158.924 159.814 158.88 161.878C158.852 163.262 147.278 164.898 146.293 166.618C145.137 168.639 147.106 174.718 146.293 176.81C143.853 183.093 145.006 184.832 145.742 184.16C146.324 185.06 146.405 186.34 146.523 187.534L146.656 188.829C148.801 209.258 153.251 229.377 154.873 249.868C157.217 272.794 152.148 295.428 150.516 318.2C149.183 338.716 150.986 360.699 150.258 381.214C150.159 382.352 149.805 383.894 149.087 384.897L149.016 384.993L149.009 384.995L148.725 385.052C143.518 386.102 135.748 389.377 130.39 389.347C125.39 379.636 119.972 354.8 121.595 337.976C122.801 325.47 124.444 309.298 124.444 306.217C124.444 300.644 92.1459 309.298 82.6463 308.113C79.5206 307.723 79.3724 304.162 79.0274 298.364C78.929 296.71 82.6001 295.965 82.6463 294.13C82.9807 280.838 82.9469 263.074 83.106 262.03C84.4535 251.626 87.9118 241.525 88.378 231.015C88.5334 220.406 84.1141 210.042 85.8989 199.404C88.4954 183.912 102.323 173.159 116.656 169.222C119.456 168.367 122.305 167.926 125.169 167.37Z" fill="#9FD8E5"/>
<path fill-rule="evenodd" clip-rule="evenodd" d="M236.292 648.69L236.496 648.799L236.546 648.831C237.596 649.493 238.306 650.649 239.3 652.825L239.855 654.071L240.806 654.328C244.468 655.319 247.197 657.711 249.664 663.294L249.738 663.464L249.814 663.638C250.643 665.567 250.957 667.7 250.881 670.215L250.875 670.404L250.864 670.672C250.797 672.174 250.649 673.413 250.244 676.036L249.949 677.921L249.864 678.471C249.355 681.809 249.177 683.68 249.227 685.788C249.266 687.443 249.478 688.962 249.889 690.394C251.562 696.223 254.839 702.299 259.061 708.135C260.521 710.154 267.161 721.407 267.219 721.642L267.335 722.117L267.445 722.576C267.463 722.651 267.48 722.726 267.498 722.801L267.635 723.389L267.719 723.762C268.008 725.05 268.22 726.148 268.351 727.069L268.368 727.194C268.604 728.924 268.595 729.948 268.012 730.776L267.973 730.83L267.877 730.959L267.759 731.069L267.687 731.134L267.613 731.197L267.392 731.379L267.126 731.483C266.188 731.848 262.928 732.771 259.504 733.495C253.948 734.67 248.173 735.358 242.466 735.323C240.793 735.313 239.053 735.25 237.249 735.139C232.377 734.838 227.227 734.198 221.775 733.292L220.827 733.132L219.826 732.956C216.281 732.323 211.188 731.328 210.271 731.161L210.184 731.145L210.148 731.145C208.046 731.079 206.697 729.67 206.187 727.537L206.165 727.442L206.145 727.349C205.805 725.748 205.889 723.707 206.298 721.42C206.641 719.509 207.457 708.724 207.457 708.724L204.397 698.544C204.397 698.544 197.935 669.244 198.955 665.315L198.978 665.23C199.115 664.744 204.885 661.274 205.191 660.547C205.502 659.809 204.758 651.308 205.07 650.437L205.101 650.357L205.13 650.285L205.143 650.256C205.463 649.536 208.509 646.498 216.828 646.089C219.983 645.934 226.14 645.483 230.128 646.089C233.843 646.654 235.477 648.257 236.292 648.69ZM75.1091 654.131L75.5184 654.226L75.6042 654.178C76.3265 653.779 76.9495 653.568 77.7369 653.606C78.7881 653.657 79.7231 654.207 80.489 655.187C80.9406 655.765 80.737 660.5 80.7322 660.727L80.7313 660.786L80.731 660.893L80.7313 660.924L80.7517 660.939C81.0615 661.147 81.7266 661.278 83.0423 661.353L83.3416 661.368L83.967 661.396C85.048 661.448 85.6036 661.5 86.2441 661.636L86.3107 661.65C87.4859 661.907 88.4201 662.404 89.0694 663.286C90.1075 664.696 90.306 666.67 90.0062 669.194C89.9018 670.073 82.9603 696.044 82.47 698.271C81.728 701.643 83.1491 719.508 83.3039 721.168C83.4902 723.164 83.5234 724.963 83.3651 726.407C83.1382 728.478 82.5509 729.927 81.1782 730.576L81.1039 730.61L80.944 730.681L80.512 730.778L80.2396 730.837C77.4297 731.437 74.7413 731.747 70.2578 732.076L66.8359 732.319L66.0862 732.375C65.0477 732.455 64.2586 732.523 63.4639 732.603L62.7613 732.676L62.7344 732.678C50.915 733.593 36.523 733.683 26.1414 732.784L25.5321 732.73L25.0774 732.715C23.4208 732.651 22.3899 731.535 21.8479 729.864L21.8203 729.778L21.7936 729.69C21.4902 728.67 21.342 727.465 21.2672 725.838L21.2411 725.176C21.2366 725.043 21.2326 724.907 21.2283 724.747L21.1868 723.058L21.1749 722.688C21.1668 722.463 21.1581 722.276 21.1477 722.103L21.1345 721.904L21.087 721.601C20.7673 719.519 39.9119 694.275 40.9577 691.464C42.2324 688.039 44.2971 661.598 45.1877 660.543L45.2169 660.509L47.9257 657.454L48.3204 661.483L48.3232 661.478C48.3877 661.34 48.4359 661.205 48.4646 661.082L48.4772 661.022L48.4865 660.964L48.4902 660.936L48.4949 660.908C48.9736 658.036 50.4906 655.863 52.8641 654.443C54.8578 653.25 57.3887 652.618 60.3832 652.443C64.7395 652.188 69.5755 652.856 75.1091 654.131Z" fill="white"/>
<path fill-rule="evenodd" clip-rule="evenodd" d="M160.416 151.449C161.209 152.076 161.126 153.811 161.204 154.783L161.21 154.847C161.459 157.782 161.122 160.731 160.406 163.581L160.345 163.818C159.985 165.216 159.666 166.964 158.544 167.944C157.329 169.005 155.398 168.318 155.354 166.607C155.332 165.812 155.597 165.046 155.933 164.301C153.579 165.209 151.224 166.108 148.86 166.984C147.35 179.473 164.797 194.763 174.898 200.116C189.609 208.258 201.986 195.786 203.869 181.125C204.185 179.178 204.397 177.176 204.439 175.202C204.473 173.552 204.137 171.25 205.242 169.84C204.459 169.821 203.764 169.931 202.997 170.051L203.034 170.115C203.468 170.892 204.083 172.824 202.707 172.971C199.738 172.659 198.357 167.454 197.633 164.958C197.162 163.258 196.514 156.205 197.95 155.374C198.383 157.049 198.212 158.868 198.739 160.549C199.937 161.031 202.218 161.162 202.746 161.25C208.917 161.322 212.415 165.751 214.916 170.935C222.247 176.952 232.785 175.918 240.702 180.873C264.927 198.433 257.016 266.79 269.082 295.871C271.498 294.872 273.96 296.873 274.283 299.315C274.617 301.194 274.517 303.205 274.544 305.108L274.555 305.346C274.752 309.238 275.425 313.613 270.168 313.698C270.176 315.871 270.585 317.974 271.11 320.071C274.021 332.768 275.292 345.845 275.579 358.861L275.593 359.817C275.688 366.658 275.771 387.822 271.838 390.326L272.022 391.817C272.477 395.545 272.906 399.283 273.146 403.03C273.523 404.975 272.239 409.635 269.618 408.402C264.811 409.59 260.071 411.344 255.077 411.353C256.287 451.609 255.685 491.906 255.864 532.178C255.478 561.864 257.084 591.795 255.681 621.367L255.731 621.784C256.128 625.105 256.247 627.992 252.408 629.129C252.353 629.942 251.728 630.376 250.986 630.471C248.882 630.754 246.779 631.023 244.672 631.281C242.71 631.427 240.611 631.915 238.656 631.682C238.845 631.874 238.332 631.903 238.276 631.764C236.493 636.237 235.976 641.113 235.534 645.885C239.862 647.534 242.223 651.244 241.517 655.895C245.883 656.072 249.072 660.923 249.683 665.011C250.075 667.833 249.761 670.634 249.635 673.461C249.031 683.119 250.45 693.524 256.686 701.228L256.946 701.536C260.957 706.251 266.041 710.572 267.77 716.736C268.249 716.96 268.644 717.393 268.817 718.07L269.937 722.467L270.494 724.665C270.902 726.268 271.265 727.908 271.046 729.567L271.023 729.728C269.932 740.238 226.842 735.172 218.432 734.417C215.051 733.887 211.342 734.176 208.298 732.386C204.564 729.922 204.097 724.924 204.738 720.83L204.791 720.446C205.051 718.616 205.431 716.696 207.168 715.672C206.583 711.879 206.81 707.998 206.114 704.219C205.063 698.873 201.885 694.234 200.263 689.101C197.896 686.47 197.816 682.367 197.321 679.002C196.946 675.738 196.64 672.451 196.513 669.167C196.17 664.826 198.054 661.246 202.62 660.678C202.408 659.856 202.988 659.145 203.564 658.618C202.203 653.784 201.828 647.148 207.733 645.499C209.969 639.953 210.62 633.944 211.215 628.029C211.144 628.014 211.074 628.002 211.003 627.99C208.062 629.214 207.45 623.411 207.253 621.141C204.469 591.706 204.725 562.097 203.679 532.572L203.577 530.437C202.66 510.983 202.115 491.358 198.75 472.164C195.364 450.771 194.479 429.029 193.321 407.412C191.958 409.53 191.225 411.962 190.122 414.219C175.805 456.276 161.117 498.206 146.963 540.319C136.705 570.81 126.905 601.463 117.075 632.096C116.574 633.664 114.993 633.989 113.837 633.487C110.893 634.508 107.803 635.088 104.694 635.188C104.506 635.619 104.122 635.934 103.559 635.873C101.896 635.69 99.9824 636.21 98.3194 636.404C94.5142 636.78 90.8202 637.364 86.9802 637.419C84.6013 640.426 84.4515 644.504 83.3549 648.083C82.7235 649.908 82.8226 654 80.6422 654.514C81.4238 655.718 81.526 657.163 81.3994 658.652C82.0775 658.806 82.7654 659.098 83.4033 659.396C84.0247 659.71 84.8453 659.683 85.2736 660.317C97.4521 662.524 88.5521 685.648 86.4352 693.296C84.3576 699.549 83.707 706.079 84.6551 712.607C86.1043 714.609 85.6188 717.586 85.8406 719.958C85.9575 722.076 86.1718 724.225 86.1525 726.344C85.9161 735.15 75.0444 733.718 68.9109 734.86C65.0809 735.306 61.2338 735.616 57.3867 735.857C47.6296 736.464 37.8178 736.51 28.0808 735.566C21.7939 735.367 20.4421 731.266 20.452 725.657L20.4424 725.425C20.3008 721.618 20.9147 717.021 24.5305 715.042C24.7106 713.031 25.7311 710.999 26.773 709.242C31.6179 701.096 38.8921 693.959 40.3228 684.184C41.7263 677.785 40.1361 663.7 46.6416 660.363C46.7923 657.482 48.5624 654.545 50.7541 652.988C51.177 650.587 52.7706 648.381 53.7563 646.176C55.767 641.964 57.627 637.687 59.627 633.472C58.5798 633.029 57.467 632.214 57.3209 631.057C56.3153 631.069 55.3219 630.419 55.4436 629.196C55.7989 625.644 56.5761 622.15 57.31 618.66L57.4015 618.223C70.4607 555.1 97.4282 496.073 113.206 433.759C111.083 434.143 109.099 431.716 107.925 430.135C104.134 425.031 101.895 418.855 100.91 412.589L99.1281 412.368C93.1852 411.639 87.2132 411 81.2207 411.172L79.7764 411.22C78.1719 411.269 76.5647 411.256 75.0395 410.679C73.9755 410.777 72.8676 410.206 72.6049 409.012C68.1664 386.894 79.0761 365.903 86.8901 345.916C88.7308 341.002 90.0408 336.017 91.2901 330.928C91.3313 330.763 91.5894 330.798 91.5821 330.968C91.3386 336.625 89.9361 342.329 88.5115 347.783C83.8338 366.273 74.0887 384.405 76.4712 403.98C83.8774 398.147 92.6736 394.096 101.913 392.382C102.446 390.065 103.036 387.766 103.479 385.435C103.043 381.85 102.746 378.248 102.366 374.647C101.231 363.873 99.4981 353.127 97.1874 342.543C93.6028 331.894 90.4732 321.1 89.3542 309.872L89.1505 309.912C86.6652 310.416 83.927 311.511 81.6212 309.929C80.1576 308.914 79.5246 307.233 78.9331 305.618C77.2443 301.702 76.9319 296.556 81.7111 294.918C79.9295 282.469 81.0873 269.473 83.2402 257.141C84.9648 246.331 88.7474 235.681 87.3313 224.614C85.7591 213.98 82.8282 202.842 87.0654 192.433C94.0289 175.06 111.663 166.818 129.006 164.165L129.287 164.083C131.433 163.447 133.386 162.778 135.622 163.259C140.894 153.475 149.446 157.454 157.796 159.635C158.36 157.976 158.83 156.279 159.272 154.583C159.547 153.719 159.456 151.726 160.416 151.449ZM208.748 720.419L208.726 720.846C208.505 725.426 208.754 729.351 214.433 729.321C218.341 729.738 222.25 730.145 226.165 730.498L227.633 730.628C239.251 731.664 251.008 732.171 262.604 730.615L263.087 730.549C264.056 730.412 265.85 730.439 266.618 729.722C267.542 728.478 266.472 726.105 266.247 724.661C248.154 724.45 230.037 723.783 211.932 724.013C210.028 724.023 209.169 722.396 209.344 720.914C209.13 720.768 208.928 720.601 208.748 720.419ZM25.0497 718.121C24.1602 721.25 24.3794 724.206 24.8819 727.339C25.1332 730.619 26.6937 730.829 29.5177 730.906C40.5418 731.923 51.6461 731.71 62.6734 730.857C68.5836 730.22 74.6574 730.244 80.4577 728.937C83.225 727.71 81.6274 723.854 81.7214 721.489C68.6951 729.884 48.9943 728.818 34.7892 723.961L34.5616 723.864C31.2014 722.452 26.9057 721.564 25.0497 718.121ZM46.6273 661.638C45.0689 663.396 45.0984 668.534 45.0278 669.96C44.8595 673.399 44.8863 676.846 44.7373 680.285C44.8471 694.768 36.4836 701.992 30.2724 713.636C28.5736 716.462 31.045 716.863 33.0553 717.779C46.0723 723.837 61.4698 724.763 75.0688 720.125C81.9045 718.139 80.4119 713.539 79.8317 707.912C79.2602 696.414 85.3104 686.055 87.1 674.932L87.1648 674.542C87.7002 671.208 88.5504 663.028 83.4012 664.799C82.269 665.496 81.2049 664.622 81.071 663.554C80.9364 663.576 80.7978 663.589 80.6644 663.591C80.063 667.308 79.4396 671.021 78.8407 674.738C79.3447 675.058 79.8171 675.42 80.2359 675.834C80.7447 676.338 80.3893 677.397 79.6223 677.333C79.2281 677.299 78.8382 677.239 78.4511 677.166C78.1441 680.397 73.0121 678.584 74.4944 675.994C67.1153 673.444 58.9857 673.647 51.4921 675.602L51.4612 675.616C50.8811 675.846 46.7099 676.682 48.0517 677.333C48.6109 677.401 47.3375 678.132 47.1142 677C47.0422 675.58 50.2844 674.882 51.2779 674.293C48.7724 670.707 47.0604 666.059 46.6273 661.638ZM235.671 650.284C228.72 646.52 220.177 647.917 212.637 648.583L212.321 648.619C210.402 648.825 207.728 648.953 206.847 650.929C205.572 654.095 207.685 661.179 208.349 664.701L208.65 665.932C209.173 668.083 209.657 670.221 209.837 672.446C209.842 672.52 209.771 672.572 209.706 672.572C207.065 669.75 205.878 665.955 204.644 662.335C204.118 662.635 203.604 662.96 203.119 663.317C201.227 669.823 200.593 676.748 202.092 683.384L202.145 683.618C203.997 691.819 209.761 698.525 210.31 707.095C210.676 710.559 210.594 714.11 211.59 717.474C212.157 717.599 212.651 718.017 212.873 718.543L216.123 718.547C231.83 718.573 247.542 718.716 263.239 719.362C262.732 714.948 258.837 711.031 256.093 708.005C247.673 699.382 244.031 686.995 245.418 675.056C246.148 669.083 249.481 659.699 241.327 657.493C240.732 662.36 239.927 667.212 239.482 672.099C241.021 672.841 240.926 674.798 239.046 674.76C238.202 677.599 235.373 676.452 235.679 673.773C225.331 669.951 219.394 668.67 209.314 674.428C209.031 674.387 210.088 673.255 210.222 673.054C213.407 669.619 218.3 668.004 222.891 667.946C227.441 667.945 231.72 669.66 236.012 670.986C236.657 666.375 237.092 661.735 237.603 657.108L237.714 656.116C237.982 653.687 237.884 651.68 235.671 650.284ZM69.3783 709.835C70.8928 709.498 72.2856 708.986 73.8244 709.333C79.2396 713.401 57.1131 714.548 55.2293 714.259C50.4333 714.118 45.6352 713.509 41.0196 712.154L40.6646 712.049C40.0559 711.879 35.6606 710.639 36.515 710.079C42.7578 710.632 48.8694 711.778 55.2293 711.48C58.4019 711.413 61.5867 711.189 64.7253 710.712C66.286 710.473 67.8395 710.182 69.3783 709.835ZM215.666 704.796C214.674 703.31 219.508 705.283 220.136 705.3C224.139 706.287 228.212 707.035 232.323 707.346C235.079 707.555 237.865 707.6 240.626 707.464C242.67 707.393 244.693 707.091 246.725 706.883L246.798 706.88C248.005 706.838 250.424 707.586 248.933 709.023C246.615 710.821 243.185 710.273 240.407 710.537C231.968 710.51 223.033 709.151 215.666 704.796ZM57.0315 693.995C59.4642 693.554 72.8533 693.411 71.5187 697.52C71.1949 698.301 70.4547 698.559 69.6755 698.437C61.3887 696.421 52.4498 695.366 44.1897 698.146C44.0558 698.193 43.9632 697.973 44.0947 697.915C48.1561 695.879 52.5016 694.456 57.0315 693.995ZM230.828 689.977C233.014 689.811 235.213 689.869 237.4 690.034L238.112 690.089C239.093 690.166 240.102 690.256 241.042 690.542L241.218 690.598C242.419 690.985 245.125 693.049 243.071 694.042C240.865 694.756 239 693.906 236.872 693.359C230.939 691.954 224.704 692.43 218.827 693.867L219.655 694.133C219.706 694.096 219.771 694.182 219.723 694.224C219.129 694.743 218.313 694.559 217.892 693.914C217.819 693.803 217.865 693.626 217.982 693.564C221.965 691.474 226.358 690.317 230.828 689.977ZM46.0722 689.453C52.7716 686.487 60.5334 686.159 67.718 687.019L68.2299 687.082C70.4713 687.345 73.3946 687.466 74.6772 689.554C75.1203 690.278 74.6626 691.107 73.9467 691.368C71.8381 692.139 69.3594 690.595 67.3336 690.022C61.3438 688.381 54.9461 688.209 48.8553 689.342C48.8979 689.568 47.8891 689.469 47.6695 689.549C47.3941 689.533 45.567 690.138 46.0722 689.453ZM215.013 684.822C220.857 681.979 227.614 681.302 233.924 682.769L234.187 682.844C236.982 683.629 241.484 684.555 242.485 687.516C242.702 688.183 242.232 689.084 241.528 689.219C239.145 689.675 236.98 687.934 234.823 687.097C228.476 684.711 221.291 684.141 214.728 685.896C214.684 686.154 214.64 686.41 214.594 686.669C214.706 686.595 214.823 686.76 214.733 686.851C213.685 687.585 212.595 685.733 215.013 684.822ZM61.131 679.825C65.8599 679.51 70.6286 680.112 75.1939 681.359L76.0523 681.596C77.3001 681.946 78.9164 682.496 79.0979 683.845C79.1685 684.382 79.0346 684.751 78.5988 685.083C77.0095 686.272 73.5527 683.781 71.5768 683.488C64.4029 681.332 56.7024 681.363 49.4355 683.012L49.1879 683.069L49.3632 684.318C49.5356 684.914 47.9381 683.507 48.5451 682.867C52.3813 680.913 56.8575 680.176 61.131 679.825ZM219.471 677.594C223.267 676.909 227.182 676.778 231.019 677.123L231.473 677.166C233.764 677.368 241.189 677.663 239.433 681.538C239.138 682.185 238.283 682.269 237.731 681.988C235.875 681.048 233.847 680.708 231.799 680.398C224.569 679.392 217.182 679.804 210.124 681.752C210.277 681.993 209.961 682.279 209.661 682.335C208.916 682.473 208.916 681.584 209.235 681.112C209.615 680.553 210.372 680.349 210.957 680.102C213.675 678.918 216.557 678.117 219.471 677.594ZM75.7244 656.035L75.2922 655.932C68.0496 654.227 51.9916 651.171 50.3287 661.151C49.7385 665.546 51.6854 669.833 51.5415 674.186C59.0519 671.131 67.357 671.163 75.1598 673.182C75.851 668.664 76.5109 664.142 77.217 659.627L77.3311 659.087C77.6453 657.564 77.7522 656.373 75.7244 656.035ZM59.5924 657.852C61.1707 656.498 63.8026 656.518 65.3509 657.995C66.7666 658.292 67.7654 659.796 67.7882 661.085C69.9407 664.869 67.3449 670.098 63.235 671.043C53.955 672.999 49.8062 660.249 59.5924 657.852ZM220.378 651.813C228.143 650.426 230.963 660.279 224.59 664.275C215.588 668.793 209.589 654.59 220.378 651.813ZM63.4344 629.927C63.5486 630.68 63.1785 631.217 62.7356 631.724C61.1437 638.252 58.7478 644.327 56.3855 650.585C64.0707 649.311 71.3317 650.423 78.1316 652.51C78.2129 650.601 79.0829 648.621 79.6872 646.821C80.8642 643.402 82.2866 640.072 83.9271 636.855L84.1333 636.454C84.7225 635.309 85.2899 634.112 85.9863 633.017C78.4647 631.989 70.9431 631.064 63.4344 629.927ZM214.918 628.536L214.718 629.444C213.855 633.384 213.035 637.362 211.75 641.19L211.733 641.269C211.536 642.235 211.094 646.708 210.815 643.551C210.601 644.026 210.372 644.496 210.129 644.959L211.457 644.8C218.566 643.956 226.01 643.226 232.997 645.016C232.29 639.537 233.331 634.302 234.85 629.122C228.191 628.969 221.591 629.018 214.918 628.536ZM88.8185 635.346C88.575 635.575 88.3364 635.809 88.1099 636.053C88.4167 635.974 88.7238 635.897 89.0084 635.831C88.9967 635.651 88.8699 635.516 88.8185 635.346ZM238.875 630.321L238.73 630.662C238.706 630.718 238.682 630.775 238.658 630.831C238.77 630.764 238.895 630.7 239.029 630.643C238.968 630.545 238.917 630.439 238.875 630.321ZM117.238 306.113C116.556 306.443 115.845 306.526 114.905 306.566C107.269 306.883 99.6569 307.767 92.1585 309.276C92.5724 315.345 94.418 321.224 96.1743 327.009L96.5385 328.277C102.473 349.007 107.653 370.668 106.609 392.35C106.668 392.372 106.724 392.402 106.777 392.429C106.683 392.695 106.615 392.967 106.519 393.23L106.458 393.387L106.102 394.272C105.905 394.764 105.714 395.257 105.548 395.762C105.256 395.868 104.898 395.945 104.557 395.994C102.824 407.473 104.472 420.344 112.278 429.32C109.038 422.541 107.794 414.111 109.13 406.708C109.855 407.493 109.906 409.304 110.184 410.48C110.946 414.497 111.481 418.572 112.626 422.506L112.75 422.901C114.034 426.929 116.181 432.125 119.904 434.205C120.606 434.415 121.693 434.153 122.025 435.015C122.217 435.784 121.859 436.734 121.07 436.974L121.014 436.989C118.747 437.632 116.824 435.923 115.37 434.121L115.298 435.062C115.158 436.844 114.963 438.554 113.929 440.02C113.807 440.529 113.688 441.041 113.564 441.551C110.764 458.833 106.552 476.699 98.8836 492.298L97.9917 494.988C83.4134 538.917 68.3151 582.818 59.5287 628.396C68.7608 627.424 78.0703 627.894 87.2838 628.809C95.9722 629.711 105.162 632.114 113.486 628.278C136.036 559.364 159.299 490.657 184.793 422.794C187.866 412.023 193.638 401.635 196.493 390.592L196.671 390.009C197.342 387.795 197.657 386.359 197.165 383.886L197.144 383.584C197.042 382.036 197.007 379.689 198.772 379.26C199.071 379.187 199.463 379.243 199.671 379.502C200.762 380.902 199.74 382.686 200.055 384.312C200.971 390.534 198.517 396.4 195.648 401.764C195.835 401.991 195.965 402.269 195.986 402.574C196.237 405.881 196.206 409.222 196.349 412.535C196.758 422.063 197.352 431.582 198.105 441.088C200.463 458.499 203.805 475.729 205.621 493.216C209.756 533.946 209.013 574.99 212.015 615.801C212.04 619.386 213.164 623.112 212.025 626.591C212.743 626.119 213.764 626.225 214.394 626.796C226.635 625.948 238.894 626.364 251.132 625.636C251.144 625.085 251.185 624.57 251.207 624.174C250.864 623.359 251.433 622.454 251.416 621.589C249.923 613.119 251.152 604.017 250.844 595.357C250.859 587.162 250.9 578.969 250.956 570.773C251.419 519.559 250.797 468.334 251.733 417.127C251.806 414.608 251.921 412.097 252.084 409.586C251.41 408.836 251.859 407.772 251.86 406.87L251.899 406.07C252.104 402.022 252.337 398.304 250.759 394.315C250.795 393.84 250.905 393.394 251.153 393.03C243.772 389.567 236.066 386.945 228.446 384.093C227.16 384.411 225.551 383.611 225.28 382.227C222.41 367.49 220.148 352.66 218.193 337.778C205.398 346.182 189.797 347.512 175.268 350.916L172.518 351.63C165.737 353.398 158.624 355.456 153.466 360.274C152.945 367.881 156.819 389.802 145.178 389.229C141.364 390.394 137.444 391.328 133.542 391.831C138.086 400.459 146.374 411.956 139.821 421.511C138.871 422.519 137.593 421.497 136.724 420.871C136.832 426.458 136.981 432.015 136.987 437.597C136.987 438.341 136.22 439.013 135.48 438.759C131.282 437.312 130.763 432.284 130.113 428.491C129.531 425.103 128.947 421.716 128.372 418.326C128.006 424.409 129.469 430.67 128.278 436.684C127.134 440.123 123.579 439.098 122.514 436.215L122.482 436.128C120.375 430.282 119.349 424.039 118.923 417.848L118.9 417.486C118.777 415.607 118.578 413.619 119.042 411.799C119.984 413.571 119.75 416.464 120.189 418.609C120.924 423.192 121.918 427.743 123.315 432.169L123.352 432.325C123.983 434.921 126.456 439.978 126.427 433.624C126.522 430.396 126.244 427.177 126.069 423.956L126.045 423.496C125.816 419.096 125.84 414.655 127.16 410.413C127.496 409.327 129.322 409.123 129.544 410.413C130.43 415.573 131.277 420.738 132.125 425.903C132.742 429.058 132.717 432.616 134.593 435.337C134.615 429.397 134.286 423.474 134.002 417.54L133.945 417.357C133.714 416.6 133.464 415.59 133.995 414.936C134.201 413.582 136.179 413.737 136.347 415.155C136.383 415.45 136.41 415.75 136.439 416.048C137.094 416.871 137.703 417.71 138.477 418.417C143.647 407.855 126.732 389.614 124.396 377.687C117.519 354.461 121.473 330.108 123.473 306.455C121.405 306.21 119.319 306.145 117.238 306.113ZM59.3206 629.203C59.2422 629.495 59.1821 629.817 59.0406 630.082C59.1526 630.102 59.267 630.124 59.3815 630.149C59.5203 629.868 59.6664 629.595 59.8246 629.326C59.6566 629.287 59.4886 629.248 59.3206 629.203ZM145.184 520.422C145.4 520.386 145.488 520.686 145.276 520.755C138.149 523.126 132.142 527.537 126.136 531.915C125.283 532.535 124.487 531.24 125.084 530.538C127.596 527.595 130.673 525.563 134.098 523.854L134.3 523.753C137.726 522.026 141.402 520.926 145.184 520.422ZM213.43 516.013C213.347 515.853 213.566 515.73 213.666 515.873C215.254 518.111 217.355 520.194 219.442 521.951C221.555 523.734 223.861 525.142 226.123 526.705C227.343 527.547 226.296 529.342 224.971 528.697C222.395 527.444 220.082 525.373 218.19 523.219C216.24 520.996 214.796 518.618 213.43 516.013ZM169.181 438.437C161.316 451.659 149.702 464.975 141.034 478.535C135.181 487.228 129.886 496.294 123.471 504.595C122.188 506.343 119.714 504.883 120.593 502.894C123.033 497.384 125.753 492.091 129.027 487.041L130.084 485.473C141.488 468.567 153.574 451.626 169.181 438.437ZM201.951 418.257C201.883 418.036 202.205 417.939 202.292 418.134L202.301 418.158C208.206 434.358 217.309 449.086 225.274 464.277C225.89 465.52 224.249 467.019 223.268 465.842C217.646 459.097 213.704 451.162 210.207 443.131C206.521 435.171 204.259 426.692 201.951 418.257ZM215.671 172.435C219.287 179.697 221.941 187.383 223.779 195.293C224.346 197.735 221.072 199.234 219.75 197.095L219.711 197.029C218.084 194.314 215.661 191.922 212.593 190.987C210.503 199.756 211.522 209.022 212.608 217.876C214.533 230.212 216.066 242.599 216.295 255.1L216.306 255.769C216.977 298.458 223.246 340.954 230.112 382.749C241.089 384.514 251.138 389.491 261.257 393.867C263.015 394.554 264.812 395.152 266.653 395.565C261.569 348.181 242.235 303.742 236.261 256.53C234.681 244.251 234.608 231.783 236.789 219.575C236.825 219.341 237.156 219.42 237.171 219.627C237.411 224.641 238.268 229.59 238.776 234.578C239.121 231.729 239.92 228.844 240.565 226.114C241.354 223.443 241.646 219.155 243.957 217.413L244.103 216.909C244.164 216.692 244.485 216.783 244.434 217C244.41 217.103 244.386 217.204 244.364 217.307C245.848 217.703 244.461 219.465 244.093 220.309C241.71 226.708 241.001 233.634 239.375 240.23C241.728 260.82 245.968 281.149 251.189 301.162C255.986 299.895 260.799 298.676 265.608 297.437C254.881 262.437 261.153 223.376 245.082 189.956C239.06 178.741 224.231 180.264 215.671 172.435ZM134.171 166.036C131.921 165.916 129.571 167.139 127.412 167.56C124.548 168.117 121.699 168.557 118.9 169.412C104.566 173.349 90.7385 184.102 88.142 199.594C86.3572 210.232 90.7765 220.597 90.6212 231.205C90.1549 241.715 86.6966 251.816 85.3492 262.22C83.7281 272.859 83.1702 283.994 84.5603 294.685C97.4179 291.029 110.846 290.801 124.03 292.688C122.93 276.485 124.373 260.201 125.172 244.009C125.746 233.61 126.73 223.164 126.382 212.746C126.374 212.514 126.749 212.458 126.785 212.689C130.74 233.968 128.42 255.57 128.021 277.03C127.767 282.452 128.437 287.926 128.166 293.318C134.161 294.612 133.944 301.616 132.111 306.233C131.786 307.344 130.683 307.151 129.791 307.016C128.823 308.035 126.516 306.706 125.201 306.706C124.171 333.344 117.917 361.796 130.733 386.693C136.091 386.723 141.248 384.87 146.456 383.82L146.74 383.763L146.747 383.761C147.512 382.762 147.887 381.157 147.989 379.982C148.717 359.467 146.439 338.907 147.772 318.39C149.404 295.618 154.473 272.985 152.128 250.058C150.507 229.567 146.057 209.448 143.912 189.019L143.803 187.962C143.67 186.702 143.619 185.311 142.997 184.35C139.379 187.655 136.342 191.584 134.169 196.005C132.965 198.14 129.741 197.19 129.691 194.779C129.227 190.474 129.159 186.153 129.628 181.847L129.671 181.467C130.253 176.078 131.878 170.933 134.171 166.036ZM268.694 313.875C264.034 314.122 259.368 314.64 254.699 314.579L255.169 316.347C260.821 337.555 266.839 358.725 270.387 380.425L270.515 378.39C270.644 376.355 270.767 374.319 270.847 372.279C271.853 352.777 270.316 333.3 268.694 313.875ZM255.059 313.895L254.507 313.868L254.541 313.988C254.654 313.965 254.77 313.945 254.886 313.925L255.059 313.895ZM270.248 299.571C270.161 299.544 270.012 299.544 269.847 299.551C269.608 300.103 269.126 300.558 268.566 300.709L263.894 301.974C260 303.028 256.104 304.078 252.204 305.098C252.859 307.629 253.524 310.16 254.195 312.688C259.516 310.966 265.406 311.357 270.831 310.248C270.764 307.327 270.605 304.391 270.555 301.464C270.543 300.987 270.64 300.219 270.397 299.79C270.244 299.517 270.397 299.618 270.248 299.571ZM91.5334 309.404L91.3871 309.436C91.4358 309.569 91.4796 309.702 91.521 309.838C91.5237 309.692 91.5259 309.55 91.5334 309.404ZM126.169 295.346C116.146 293.88 105.952 293.014 95.8426 294.012C91.2699 294.634 86.6281 295.298 82.1464 296.147C80.5881 298.552 82.3123 304.404 84.2526 306.255C84.8345 306.477 85.8353 306.046 86.3929 305.92C90.5765 304.971 94.8012 304.206 99.0469 303.609C99.1735 303.769 99.3586 303.872 99.5875 303.85L100.563 303.759C106.419 303.223 112.326 302.83 118.195 303.165L118.239 303.2C122.198 303.49 126.144 304.117 130.087 304.571C131.643 300.48 131.375 295.785 126.169 295.346ZM199.101 161.905C199.488 163.224 199.954 164.505 200.533 165.751C201.137 165.582 201.97 165.717 202.415 166.1L202.604 166.066C203.123 165.967 203.748 165.815 203.91 165.797C211.072 164.801 210.526 174.435 210.552 179.276C210.596 181.704 210.645 184.133 210.718 186.561C212.767 185.859 215.508 187.121 217.299 188.237C215.897 183.543 214.248 178.924 212.41 174.387L211.992 173.326C210.561 169.723 208.96 166.094 205.933 163.587C203.594 162.971 201.327 162.86 199.101 161.905ZM147.175 159.488C140.518 157.101 137.882 162.526 136.035 167.937C133.858 173.929 133.264 180.527 133.627 186.975L133.851 186.676C136.3 183.394 139.832 177.975 144.297 178.845C144.253 176.355 144.343 173.618 144.818 171.031C144.54 169.362 144.47 167.676 144.662 165.989C144.764 163.875 147.054 164.196 148.563 163.897C149.868 163.023 151.448 162.671 153.035 163.286C154.233 163.126 155.431 162.974 156.629 162.821C156.813 162.415 156.962 162.007 157.116 161.59C153.801 160.901 150.486 160.191 147.175 159.488Z" fill="black"/>
<path fill-rule="evenodd" clip-rule="evenodd" d="M227.037 106.667C226.139 91.9247 221.356 75.2105 207.278 67.9722C176.242 55.5154 135.436 86.8851 133.276 118.932C132.523 129.901 138.613 141.888 149.742 144.938C152.217 148.217 155.959 150.219 159.652 151.957C203.644 174.782 232.06 156.228 227.037 106.667Z" fill="#D08B5B"/>
<path fill-rule="evenodd" clip-rule="evenodd" d="M237.06 97.4965C235.505 93.1782 233.863 88.8931 232.135 84.6411C230.452 80.5029 228.933 76.2753 226.843 72.3332C214.363 48.7886 191.669 48.7886 179.938 51.865C173.855 49.2437 162.46 49.9831 156.126 52.3485C145.871 56.1779 133.37 71.2418 129.096 78.0098C119.659 92.9531 113.77 112.842 120.038 130.11C120.858 132.367 121.902 134.457 123.079 136.471C122.338 137.476 121.485 138.427 120.54 139.362C117.732 142.14 114.924 144.827 112.499 147.96C110.088 151.074 108.09 154.386 106.602 158.037C103.797 164.923 103.662 172.719 107.371 179.289C110.597 185.006 116.313 189.263 122.752 189.669C123.082 189.715 123.413 189.757 123.746 189.791C124.599 191.196 125.64 192.49 126.827 193.618C130.465 197.079 139.136 198.854 144.082 198.968C144.336 199.171 144.591 199.375 144.847 199.577C147.874 201.959 151.049 204.362 154.524 206.057C156.877 207.206 159.963 208.166 162.418 207.336C163.532 208.081 165.359 207.924 166.463 207.315C168.278 206.315 169.755 204.514 170.653 202.67C172.831 198.193 172.307 193.294 171.748 188.511C171.132 183.228 170.539 177.942 169.937 172.66C169.466 168.528 168.973 164.329 167.717 160.349C167.067 158.287 166.217 156.306 165.117 154.443C165.145 154.287 165.141 154.13 165.096 153.983C164.736 152.812 163.991 152.198 163.11 151.402C162.996 151.3 162.882 151.196 162.771 151.089C162.33 150.587 161.858 150.12 161.354 149.724C161.159 149.527 160.967 149.328 160.775 149.129C159.18 147.458 157.673 145.702 156.334 143.82C155.036 141.995 153.862 140.09 152.746 138.149C151.611 136.174 150.86 133.996 149.727 132.036C149.63 131.868 149.383 131.835 149.246 131.974C148.895 132.337 148.67 132.74 148.713 133.164L148.537 133.19C148.471 132.55 147.881 132.029 147.08 132.169C145.881 132.377 144.895 132.456 143.857 132.057C144.039 130.846 144.208 129.633 144.373 128.417C144.677 126.179 144.959 123.935 145.201 121.691C145.786 121.83 146.367 122.032 146.935 122.288C147.746 122.65 148.511 123.139 149.165 123.738C149.81 124.331 150.256 125.13 151.042 125.542C151.948 126.014 153.04 125.234 152.775 124.21C152.237 122.141 149.191 120.956 147.307 120.565C146.66 120.43 145.999 120.373 145.338 120.387C145.487 118.946 145.62 117.505 145.729 116.062C145.781 115.379 145.829 114.696 145.874 114.011C147.338 113.568 148.907 113.435 150.431 113.644C150.933 114.045 151.436 114.44 151.922 114.841C153.464 116.116 155 117.398 156.517 118.704C156.654 118.82 156.789 118.936 156.927 119.055C157.827 119.83 158.951 119.062 158.799 117.965C157.562 108.973 163.069 101.82 169.518 96.2783C176.656 90.1421 189.634 89.4276 198.122 78.7988C202.032 79.5946 210.761 81.9582 214.363 87.6985C219.406 95.7427 218.748 102.95 219.131 112.075C219.515 121.207 220.492 130.732 218.418 139.736C216.506 148.039 211.327 155.133 203.294 158.394C203.094 158.474 202.893 158.553 202.692 158.629C198.537 160.195 194.004 160.638 189.634 159.814C184.797 158.899 180.758 156.685 176.734 153.962C176.502 153.808 176.163 154.125 176.338 154.358C181.642 161.387 192.06 163.736 200.324 161.88C200.71 161.793 201.094 161.698 201.476 161.594C199.627 166.91 199.999 172.745 202.407 177.921C203.855 181.035 206.064 183.73 208.754 185.856C211.718 188.198 215.397 190.089 217.454 193.377C219.338 196.389 218.778 199.773 215.553 201.513C214.74 201.954 214.427 203.378 215.233 204.004C215.541 204.241 215.849 204.483 216.164 204.72C217.97 206.083 222.93 208.642 223.734 208.737C230.867 209.583 235.664 204.345 238.738 198.167C242.347 190.914 241.408 182.076 237.432 175.169C234.242 169.628 227.959 164.167 230.457 157.154C231.348 154.649 233.171 152.514 234.941 150.584C236.96 148.387 239.131 146.33 241.067 144.055C242.991 141.796 244.698 139.338 245.65 136.504C247.042 132.361 246.35 127.881 245.304 123.745C243.065 114.867 240.157 106.107 237.06 97.4965Z" fill="black"/>
<path fill-rule="evenodd" clip-rule="evenodd" d="M181.252 133.626C183.846 132.067 193.541 133.21 201.157 133.626C207.205 133.956 211.525 133.301 212.907 134.23C216.031 136.328 214.513 146.474 209.131 147.861C203.749 149.248 183.797 151.186 180.356 147.861C176.916 144.536 176.599 136.422 181.252 133.626Z" fill="white"/>
<path fill-rule="evenodd" clip-rule="evenodd" d="M184.612 130.942C188.683 130.449 192.629 131.693 196.609 132.32C198.71 132.651 200.814 132.898 202.94 132.99C203.368 133.009 203.796 133.019 204.224 133.028C204.264 132.652 204.475 132.307 204.932 132.1C205.868 131.676 206.618 131.485 207.646 131.526C208.587 131.563 209.532 131.66 210.459 131.829C212.142 132.137 213.833 132.836 215.064 134.05C217.913 136.859 217.479 141.372 215.278 144.432C210.729 150.755 202.428 151.048 195.318 150.965L194.662 150.957C188.188 150.865 178.926 151.828 175.985 144.477C174.903 141.774 175.053 138.641 176.378 136.049C177.957 132.956 181.282 131.346 184.612 130.942ZM204.834 141.47L204.776 141.472C201.791 141.587 198.807 141.668 195.82 141.721C195.91 142.486 196.001 143.252 196.105 144.015C196.187 144.616 196.275 145.217 196.366 145.816C196.404 146.07 196.546 146.464 196.506 146.716L196.492 146.815C196.645 146.884 196.784 146.996 196.888 147.158C196.924 147.214 196.95 147.27 196.976 147.326C199.294 147.344 201.79 147.299 204.153 146.879L204.158 146.828C204.201 146.526 204.326 146.323 204.493 146.184C204.659 145.223 204.644 144.199 204.708 143.246C204.748 142.654 204.792 142.062 204.834 141.47ZM193.539 141.761C191.388 141.798 189.236 141.826 187.085 141.8L186.108 141.785C186.315 142.889 186.539 143.989 186.725 145.1C186.92 146.259 185.898 146.995 185.014 146.965C185.114 146.981 185.213 146.998 185.312 147.012C188.074 147.402 190.943 147.299 193.746 147.296C193.595 146.417 193.656 145.426 193.634 144.692L193.63 144.579C193.587 143.639 193.557 142.7 193.539 141.761ZM178.926 141.559C179.001 142.133 179.146 142.695 179.363 143.218C180.282 145.428 182.387 146.459 184.615 146.893C184.228 146.76 183.921 146.44 183.844 145.892C183.651 144.529 183.581 143.143 183.576 141.76C182.024 141.745 180.461 141.712 178.926 141.559ZM212.93 141.087C211.824 141.347 210.54 141.228 209.455 141.277C208.44 141.323 207.423 141.363 206.407 141.404C206.455 142.096 206.502 142.788 206.552 143.48C206.618 144.374 206.624 145.319 206.796 146.209C208.84 145.513 210.672 144.396 212.047 142.61C212.389 142.165 212.696 141.643 212.93 141.087ZM184.145 134.568C182.305 135.003 180.563 135.922 179.628 137.602C179.072 138.599 178.828 139.781 178.875 140.945C180.43 140.764 182.012 140.696 183.586 140.639C183.591 140.356 183.598 140.074 183.606 139.792L183.631 139.069C183.673 137.69 183.695 135.959 184.145 134.568ZM193.668 134.737L192.858 134.646C190.608 134.39 188.36 134.121 186.11 134.275C185.784 134.298 185.454 134.333 185.123 134.382C185.52 135.814 185.487 137.496 185.653 138.913C185.717 139.461 185.798 140.005 185.888 140.546L186.278 140.528C188.692 140.398 191.109 140.317 193.525 140.222C193.525 139.769 193.527 139.316 193.534 138.863L193.543 138.41C193.571 137.252 193.496 135.948 193.668 134.737ZM204.966 134.553C202.609 134.932 200.174 135.013 197.86 135.016C196.935 135.017 196.011 134.96 195.088 134.879C195.148 135.369 195.179 135.866 195.224 136.35C195.316 137.328 195.42 138.304 195.533 139.279L195.634 140.133C198.604 139.999 201.573 139.853 204.542 139.703L204.961 139.68L205.078 138.04C205.158 136.946 205.246 135.853 205.37 134.764L205.277 134.73C205.168 134.685 205.064 134.624 204.966 134.553ZM205.989 134.96C206.119 136.506 206.19 138.059 206.286 139.609L208.243 139.504C208.569 139.487 208.896 139.468 209.222 139.45C210.49 139.377 212.12 138.993 213.374 139.351C213.469 138.213 213.143 137.105 212.115 136.341C210.309 134.999 208.009 135.477 205.989 134.96ZM199.302 121.134C202.216 119.469 209.529 117.766 209.992 123C210.205 125.409 208.411 127.405 206.315 128.296L206.237 128.328C204.271 129.135 200.788 130.045 199.088 128.297C197.672 126.842 199.549 124.232 201.308 125.425C202.212 126.037 204.115 125.586 205.123 125.294L205.187 125.276C206.275 124.957 207.726 123.935 207.276 122.598C206.878 121.414 205.183 121.198 204.122 121.16C202.537 121.103 200.996 121.47 199.426 121.59C199.177 121.609 199.1 121.249 199.302 121.134ZM211.374 112.717C215.33 112.533 217.79 116.843 216.881 120.374C216.724 120.984 216.041 121.582 215.381 121.514L215.215 121.498C215.131 121.49 215.046 121.48 214.968 121.458C214.342 121.285 213.781 120.635 213.826 119.962L213.839 119.765C213.931 118.097 213.75 116.175 211.763 115.771C210.078 115.428 209.137 117.047 209.117 118.536C209.113 118.801 208.816 118.986 208.581 118.843C207.363 118.104 207.152 116.632 207.617 115.365C208.207 113.759 209.683 112.796 211.374 112.717ZM182.02 113.642C184.899 112.683 188.004 114.215 189.398 116.755C189.887 116.896 190.376 117.272 190.308 117.848C190.21 118.676 190.062 119.199 189.486 119.827C188.586 120.81 186.899 120.307 186.525 119.097L186.509 119.043C186.084 117.479 184.359 116.447 182.788 116.994C180.952 117.634 181.005 119.569 179.717 120.696C179.566 120.828 179.385 120.85 179.203 120.762C177.835 120.103 178.081 118.117 178.569 116.981C179.208 115.49 180.451 114.164 182.02 113.642ZM178.1 104.918C180.432 102.543 186.515 100.244 188.111 104.631C188.415 105.466 187.767 106.593 186.896 106.766C185.469 107.049 184.202 106.431 182.784 106.542C181.637 106.632 180.439 107.015 179.522 107.725C176.98 109.69 176.421 113.014 174.65 115.515C174.564 115.637 174.397 115.586 174.381 115.442C173.977 111.801 175.545 107.52 178.1 104.918ZM208.521 102.58C210.069 102.034 211.822 102.081 213.378 102.565C214.945 103.053 216.384 103.979 217.493 105.189C217.996 105.738 218.461 106.345 218.834 106.99C219.033 107.332 219.241 108.039 219.467 108.459C220.686 109.162 221.207 110.763 220.116 111.902L220.066 111.952L219.92 112.096C219.333 112.676 218.449 112.927 217.648 112.696C215.855 112.178 215.637 110.769 215.017 109.274C214.607 108.286 213.904 107.412 213.053 106.77C211.041 105.253 207.741 104.77 205.319 105.484C205.19 105.523 205.038 105.359 205.13 105.24C205.589 104.646 205.854 104.159 206.468 103.68C207.092 103.194 207.773 102.843 208.521 102.58Z" fill="black"/>
<path fill-rule="evenodd" clip-rule="evenodd" d="M223.035 123.084C221.436 125.227 218.471 125.91 215.737 125.674C209.84 125.108 207.984 118.424 207.791 113.229C211.745 114.339 207.456 106.477 220.974 105.612C225.739 105.216 224.425 108.088 226.531 110.186C226.488 114.59 225.753 119.376 223.035 123.084ZM194.947 118.023C191.465 134.294 172.4 130.424 170.397 115.756C172.247 114.454 171.759 111.237 174.057 110.072C177.698 107.75 182.25 107.85 186.385 107.904C191.67 108.266 193.176 110.451 195.891 112.835C195.761 114.427 195.384 116.315 194.947 118.023ZM230.587 102.917C230.392 102.885 230.196 102.854 230 102.826C229.848 102.739 229.668 102.672 229.46 102.632C228.984 102.512 228.511 102.43 228.039 102.387C221.263 100.865 205.587 103.026 204.94 108.796C202.782 109.515 200.915 108.871 198.414 108.935C196.51 100.994 163.598 102.115 162.015 106.903C162.009 106.901 162.003 106.9 161.997 106.898C160.476 106.428 158.234 106.541 156.493 106.467C152.776 106.389 149.055 106.72 145.418 107.502C138.608 108.582 129.314 109.847 134.051 118.334C134.051 118.335 134.052 118.337 134.053 118.338L134.054 118.337C134.87 119.172 136.256 118.5 136.307 117.37C134.715 113.349 138.311 112.866 141.079 111.711C147.964 109.242 154.974 108.9 162.096 109.664C162.631 110.293 163.444 110.842 164.304 111.129C169.065 111.918 166.556 115.443 169.565 115.955C169.013 128.242 183.96 134.949 192.621 126.872C196.079 123.498 196.904 118.5 197.706 113.995C198.129 113.9 198.399 113.668 198.556 113.362C199.576 112.346 200.217 111.408 202.233 111.129C204.249 110.85 205.801 111.41 206.011 111.581C206.064 111.688 206.12 111.794 206.186 111.901C206.278 112.06 206.404 112.187 206.546 112.287C204.555 124.522 214.073 132.26 223.682 125.914C227.857 121.995 228.739 115.994 228.914 110.638C229.479 110.297 229.838 109.637 229.642 108.806C229.372 107.662 230.005 106.67 231.013 106.173C232.324 105.526 232.092 103.166 230.587 102.917Z" fill="black"/>
</svg>
