<svg width="391" height="780" viewBox="0 0 391 780" fill="none" xmlns="http://www.w3.org/2000/svg">
<path fill-rule="evenodd" clip-rule="evenodd" d="M124.919 275.77L124.583 279.772L124.332 279.303C124.296 287.375 123.098 295.535 121.777 303.589C118.323 300.753 115.483 298.254 116.304 293.414C118.381 286.516 121.045 279.788 123.198 272.927L123.559 274.726L124.981 275.012L124.919 275.77ZM371.602 700.999C370.966 698.194 370.272 695.224 369.622 692.412C369.558 692.175 368.962 692.121 368.77 692.057C365.332 683.653 362.323 681.737 355.664 680.594C344.925 678.655 334.328 674.451 324.184 668.22C324.421 667.293 325.068 665.692 325.657 663.983C325.58 664.009 325.502 664.032 325.423 664.047C325.287 664.074 325.159 664.08 325.036 664.071C324.348 665.684 323.6 667.1 323.204 667.622C321.937 666.807 320.527 665.91 319.285 665.043L319.29 665.027C318.185 664.263 316.819 663.318 315.737 662.729C315.535 661.612 313.893 661.265 313.036 660.527C311.372 659.34 310.449 658.728 308.922 660.243C305.629 655.974 302.977 651.46 300.37 645.625C298.739 642.214 297.937 638.437 295.743 635.392C295.785 635.368 297.18 634.935 297.214 634.895C272.285 579.767 268.291 518.425 262.973 459.498C261.8 446.32 260.573 433.021 258.287 420.23C257.973 418.293 257.691 416.385 256.523 414.841C270.533 403.318 270.669 380.983 263.884 364.418C279.486 322.405 248.903 277.784 251.16 234.907C252.425 205.822 247.18 172.123 214.268 165.145C210.186 162.8 205.293 162.45 201.399 162.387C197.893 160.618 197.34 156.715 196.092 153.506L194.872 153.513C194.514 152.061 194.16 150.468 193.852 149.005C193.389 148.077 193.663 146.868 192.205 147.125C188.9 142.349 162.451 139.948 162.151 147.638C161.196 148.2 161.008 149.297 160.785 150.629C159.319 160.074 149.214 167.607 140.109 166.088L139.962 165.955C101.201 164.521 85.9417 192.046 78.3674 229.559C72.4494 258.706 68.6878 290.294 73.3222 319.489C77.8499 332.72 91.5642 339.086 102.174 347.237C100.951 350.313 100.837 353.707 100.8 357.037C100.66 360.879 100.38 364.754 100.039 368.545C99.3415 373.351 98.212 381.622 104.765 382.183C107.303 439.614 112.606 496.894 104.504 554.493C97.7777 586.346 100.353 624.889 108.669 656.055C109.148 657.595 110.381 658.981 111.955 658.488C112.754 659.004 113.379 659.328 114.04 658.841C114.429 659.561 114.856 660.252 115.317 660.923C115.492 669.486 116.464 677.887 116.022 686.505C115.361 686.429 113.909 685.703 113.345 686.178L113.264 686.834L112.727 687.018C111.602 690.184 110.897 693.509 110.375 696.19C108.099 700.787 105.192 708.922 106.813 714.043C106.735 714.134 106.298 714.64 106.23 714.717C105.842 714.939 105.771 715.234 105.676 715.574C104.572 715.988 104.459 717.247 104.345 718.536C103.792 721.657 104.614 724.494 104.896 727.547L104.913 727.527C104.913 727.527 105.84 728.6 105.841 728.601C117.494 729.309 128.968 729.49 140.569 729.907C141.444 728.233 141.708 725.971 142.365 724.132C156.118 734.176 179.947 730.333 197.222 727.867C204.237 726.857 210.865 725.903 216.741 725.585C217.123 725.533 217.151 725.368 217.161 725.216C217.218 722.918 217.652 720.561 217.436 718.33C218.649 717.153 218.096 715.009 217.262 713.126C214.196 706.497 205.861 705.771 199.109 704.64C186.406 702.179 176.191 697.55 167.928 690.474C168.483 689.972 168.988 689.479 169.448 688.997C169.268 688.877 169.089 688.758 168.91 688.637C168.475 688.447 168.059 688.252 167.678 688.006C167.483 688.115 167.24 688.137 167 688.002C166.169 687.537 165.492 686.853 164.703 686.329C164.547 686.553 164.39 686.782 164.231 687.021C163.475 686.225 162.618 685.324 161.87 684.489C161.843 684.259 161.904 683.683 161.622 683.621C159.495 683.835 157.031 684.551 154.805 685.346C152.29 677.095 150.833 668.165 151.001 659.732C153.474 659.732 155.641 659.709 157.486 658.535C157.99 658.67 158.692 658.962 158.823 658.171C159.571 654.941 159.766 651.522 159.954 648.216C163.783 585.668 169.617 535.408 188.966 482.423C190.824 489.78 193.944 497.432 196.782 504.755C209.698 535.362 219.003 568.37 226.979 600.496C230.117 612.521 233.529 625.734 236.898 637.634C238.204 643.355 240.861 645.449 246.427 645.403C250.716 645.604 255.019 645.542 259.326 645.24C265.197 650.583 267.604 657.795 269.319 664.289C267.89 665.35 265.622 664.95 263.952 665.3C262.511 667.618 263.009 670.859 263.043 673.718C263.269 677.433 263.077 681.419 264.16 684.926C264.354 688.763 264.378 692.965 264.667 697.426C261.484 699.268 262.067 703.339 263.124 707.234C263.596 708.224 280.703 708.028 284.946 707.987C289.932 707.697 297.043 708.969 298.678 703.511C310.55 710.094 328.61 707.87 342.441 705.933C352.478 704.712 361.572 703.576 371.429 701.505C371.53 701.46 371.674 701.143 371.602 700.999Z" fill="#D08B5B"/>
<path fill-rule="evenodd" clip-rule="evenodd" d="M182.022 698.447L182.355 698.56C183.261 698.862 186.118 700.476 192.604 702.024C196.039 702.843 210.653 705.342 213.741 708.897C215.823 711.295 216.59 722.881 216.59 722.881C216.408 722.951 194.539 727.465 183.755 727.652C174.905 727.805 144.809 724.029 141.232 723.442L107.076 718.589L107.108 703.209L112.068 687.53L115.765 687.955C121.595 697.284 137.131 692.522 137.131 692.522C139.238 691.822 140.745 691.169 145.269 689.052C145.269 689.052 156.461 684.12 159.95 683.255L160.257 683.18L160.744 683.067C160.744 683.067 176.463 696.538 182.022 698.447ZM308.204 658.659L310.61 658.871C312.903 659.073 314.619 660.039 317.156 662.121L317.672 662.549L318.408 663.163L318.618 663.335L319.397 663.971L319.391 664.012L320.431 664.863L320.701 665.081L320.944 665.275C321.15 665.437 321.366 665.604 321.596 665.779L322.007 666.091L322.823 666.7L322.859 667.517L323.565 667.232L324.352 667.765C331.197 672.403 338.698 675.183 350.448 678.018L350.779 678.098L351.193 678.183C359.395 679.855 364.728 687.118 368.123 694.707L368.225 694.938L368.325 695.172L369.171 697.178L367.004 697.611L366.937 697.627L366.855 697.65C366.546 697.743 365.998 697.963 364.714 698.509L362.833 699.31L362.344 699.515C361.053 700.051 360.211 700.361 359.529 700.533L359.366 700.572L359.257 700.585C351.535 701.485 345.355 700.08 336.233 700.268L334.469 700.301L332.437 700.331C327.089 700.398 277.215 700.184 266.846 701.051L264.672 701.236L264.459 697.689C264.416 696.938 264.373 696.142 264.313 694.984L263.138 665.287L265.038 664.339L268.573 666.226L269.041 666.579L269.266 666.747L269.494 666.915C270.606 667.732 271.31 668.177 272.116 668.562L272.25 668.625L272.344 668.668L272.372 668.682C283.511 674.253 297.908 671.512 306.815 662.383L307.083 662.104L307.625 661.534L308.412 661.55C308.413 661.55 308.421 661.548 308.442 661.537C308.488 661.512 308.541 661.466 308.589 661.402C308.683 661.279 308.725 661.138 308.716 661.043L308.712 661.016L308.204 658.659Z" fill="white"/>
<path fill-rule="evenodd" clip-rule="evenodd" d="M205.766 161.145L205.833 161.167L206.023 161.233C207.357 161.686 208.802 162.034 210.471 162.321C210.855 162.387 211.207 162.536 211.506 162.754L211.574 162.805L211.602 162.828L211.685 162.854C229.422 168.348 239.967 178.261 245.221 192.852L245.379 193.296L245.536 193.752C247.691 200.074 250.576 256.422 252.127 264.289L252.212 264.719L252.404 265.668C252.96 268.395 263.567 297.393 265.513 322.808C267.244 345.411 260.402 364.833 259.927 365.726C257.336 370.6 253.498 374.633 247.849 377.925L247.649 378.041L247.618 378.059C240.324 382.064 231.897 384.037 222.368 384.294L221.013 384.326C215.092 384.455 203.076 384.602 195.454 382.534C191.839 381.554 189.118 377.646 188.665 377.174L188.512 377.016L188.26 376.761C187.423 375.921 186.589 375.172 185.257 374.057L184.555 373.473L182.908 372.119L182.36 371.664C180.111 369.79 178.842 368.621 177.589 367.2L177.435 367.024L177.2 366.75L176.949 366.427L176.699 366.101C174.886 363.719 173.46 361.448 171.038 357.237L170.729 356.699L169.345 354.274L168.723 353.194C167.371 350.858 166.472 349.39 165.448 347.873L165.258 347.593L164.702 346.784L164.778 346.123L164.79 346.012C164.833 345.538 164.76 345.423 164.549 345.412L164.525 345.411L164.474 345.412C164.156 345.424 163.997 345.578 164.028 345.915L164.033 345.958L164.067 346.202L164.032 346.446C163.67 349.002 162.444 351.174 160.485 353.048C159.001 354.467 145.321 361.768 142.349 363.716L141.963 363.971L141.8 364.08L142.551 368.618L142.674 369.321L142.819 370.122C143.247 372.431 143.608 373.888 143.883 374.377L143.898 374.402L145.302 376.748L142.585 377.079C140.112 377.38 109.387 375.174 104.251 375.833L103.774 375.895L103.696 375.903L103.609 375.91L103.404 375.922L101.825 376.184L101.401 374.636C101.233 374.023 101.449 364.452 102.05 345.925L101.815 345.781L101.511 345.598L101.286 345.465L100.521 345.021L98.2856 343.739L97.0717 343.04C93.601 341.021 90.7471 339.219 87.9371 337.189C79.3506 330.985 73.7758 324.411 72.2986 317.055L72.2227 316.664L72.2247 316.334L72.2246 314.827C72.2352 305.566 72.4839 256.407 76.8068 234.753C80.6945 213.875 85.5753 199.002 93.4508 187.468C103.202 173.188 117.083 165.392 136.161 164.916L136.741 164.904L137.445 164.892L137.967 165.364C139.03 166.324 139.605 167.321 140.379 169.194L140.486 169.455L140.767 170.145L140.87 170.39L140.931 170.534C140.951 170.58 140.971 170.624 140.99 170.667L141.071 170.844L141.169 171.036C143.239 175.046 146.265 178.749 150.059 182.046L150.267 182.225L150.463 182.392L150.715 182.596C159.444 189.577 173.762 195.825 185.666 197.287L186.026 197.33L186.392 197.37C193.246 198.105 199.028 197.241 203.299 194.687C207.958 191.901 210.862 187.094 211.747 179.984L211.762 179.867L211.762 179.721C211.759 179.014 211.714 178.298 211.627 177.594L211.593 177.33L211.558 177.094L211.495 176.679L211.624 176.279C211.816 175.686 211.782 174.77 211.536 173.514L211.442 173.048L211.508 172.703C211.584 172.307 211.463 171.693 211.134 170.968L211.094 170.88L210.512 169.644L210.601 169.569L210.512 169.454C209.452 168.127 207.945 167.262 205.217 166.194L205.07 166.136L204.774 166.022L203.579 165.571L203.307 165.3C202.51 164.504 202.387 163.317 202.861 162.374C203.387 161.326 204.563 160.758 205.766 161.145ZM121.832 272.562L116.607 285.123L114.47 295.315L118.032 300.529L122.545 302.188L123.969 283.227L123.257 274.695L121.832 272.562Z" fill="#8FA7DF"/>
<path fill-rule="evenodd" clip-rule="evenodd" d="M263.96 665.193C266.635 666.675 268.775 668.989 271.584 670.272C283.738 676.351 299.124 673.077 308.385 663.328C309.691 663.355 310.74 661.928 310.463 660.643C313.241 660.888 315.432 663.025 317.5 664.712C317.217 666.665 317.348 668.628 318.139 670.498C318.2 670.647 318.469 670.706 318.502 670.498C318.742 669.076 318.989 667.644 319.312 666.239C319.895 666.715 320.488 667.17 321.091 667.62C321.143 668.789 322.364 669.639 323.361 669.237C331.544 674.781 340.794 678.717 350.399 681.018C357.915 682.586 361.819 682.425 365.152 690.328C363.917 690.575 362.701 691.174 360.844 691.627C329.42 695.289 297.707 691.342 266.233 694.014C265.812 687.104 265.436 680.199 264.96 673.294C264.793 670.809 264.72 668.302 263.754 665.98C263.773 665.696 263.818 665.416 263.908 665.198C263.925 665.195 263.941 665.195 263.96 665.193ZM265.133 648.183C265.235 647.722 264.874 647.335 264.516 647.031C264.105 646.339 263.637 645.687 263.082 645.137C273.996 644.173 284.46 640.821 294.713 637.363C295.952 646.164 300.348 654.156 305.302 661.417C296.893 670.169 283.2 672.3 272.192 667.516C272.926 665.898 271.35 663.562 270.95 661.891C269.569 657.889 267.679 654.064 266.041 650.176C265.76 649.534 265.466 648.853 265.133 648.183ZM262.887 648.031C262.961 648.083 263.037 648.138 263.11 648.185C263.155 648.294 263.198 648.403 263.243 648.512C263.129 648.389 263.013 648.268 262.897 648.149C262.894 648.109 262.892 648.071 262.887 648.031ZM161.99 684.329C162.208 684.715 162.436 685.097 162.674 685.471C162.217 685.756 158.773 693.057 160.698 691.89C161.767 690.37 162.835 688.839 163.987 687.377C164.308 687.804 164.638 688.223 164.98 688.633C163.795 689.484 164.256 691.477 165.825 691.482C166.387 691.484 166.822 691.368 167.345 691.174C174.37 697.886 183.606 701.856 192.904 704.316C200.608 706.727 215.118 705.495 215.511 716.458C214.727 716.439 213.887 716.693 213.29 717.257C179.278 728.747 144.138 716.635 109.833 713.28C110.306 712.331 109.703 710.617 108.448 710.692C108.436 703.013 110.562 695.39 113.64 688.403C131.094 705.026 143.592 688.765 161.199 684.789C161.539 684.72 161.8 684.552 161.99 684.329ZM170.988 681.345C170.938 681.345 170.81 681.329 170.76 681.345C170.052 683.731 168.546 685.88 166.628 687.422C166.118 686.955 165.616 686.479 165.125 685.995C166.405 684.511 167.806 683.139 169.428 681.98C169.883 681.67 170.414 681.31 170.988 681.345ZM103.118 374.171C102.664 372.512 103.178 370.776 103.23 369.089C103.619 364.499 104.149 359.872 104.047 355.26C103.921 353.6 103.886 351.996 104.256 350.375C104.143 349.94 103.754 350.968 103.638 351.065C103.615 350.934 103.584 350.804 103.558 350.674C103.743 350.463 103.94 350.278 104.154 350.1C113.276 357.63 122.116 365.501 130.641 373.699C131.524 374.545 132.828 374.493 133.719 373.699C135.567 372.05 137.481 370.502 139.452 369.044C140.133 371.268 141.176 373.327 142.368 375.318C134.576 376.267 126.888 374.2 119.151 373.597C113.963 373.2 108.756 373.444 103.603 374.128C103.47 374.147 103.261 374.147 103.118 374.171ZM120.296 300.437C117.576 298.09 116.435 296.557 116.77 292.86C118.379 287.397 120.465 282.087 122.246 276.682C122.475 277.824 122.495 278.993 122.59 280.151C121.961 286.93 121.473 293.731 120.296 300.437ZM123.063 274.783C123.025 274.712 122.987 274.641 122.946 274.572C123.006 274.39 123.065 274.207 123.125 274.025C123.103 274.278 123.084 274.53 123.063 274.783ZM74.0041 316.506C74.0208 313.608 73.6408 310.69 73.4722 307.799C72.0807 283.476 73.7868 258.976 78.5568 235.082C84.8474 201.298 96.501 167.374 136.77 166.685C138.183 167.962 138.679 169.93 139.466 171.622C141.839 176.31 145.325 180.37 149.322 183.762C165.886 197.218 209.694 212.579 213.542 179.979C213.551 178.967 213.482 177.898 213.318 176.829C213.681 175.708 213.513 174.303 213.256 173.042C213.429 172.139 213.163 171.103 212.705 170.129C212.781 170.065 212.852 169.994 212.914 169.916C211.106 166.471 208.007 165.344 204.566 164.047C204.091 163.573 204.512 162.592 205.241 162.848C206.844 163.41 208.492 163.789 210.164 164.076C210.397 164.116 210.544 164.237 210.618 164.391C249.67 176.188 248.393 208.29 247.793 242.221C248.385 278.777 269.606 313.098 263.414 350.034C256.105 305.463 241.727 262.117 238.464 216.858C238.219 212.799 237.615 208.791 237.157 204.754C236.923 203.053 236.667 198.29 236.084 199.087C233.296 214.653 235.474 230.646 237.812 246.143C242.969 277.636 251.488 308.452 257.253 339.826C260.435 353.774 260.776 368.44 246.758 376.505C231.606 384.826 212.754 383.154 196.382 379.782C195.076 379.475 194.088 380.153 193.618 381.087C190.422 374.403 183.249 371.114 178.58 365.631C173.905 359.65 170.846 352.578 166.547 346.329C166.984 342.527 163.441 336.533 159.398 336.453C149.188 325.815 138.145 315.969 126.211 307.294C126.038 306.746 125.573 306.438 125.245 305.948C124.758 305.121 124.441 304.09 124.518 303.137C126.33 292.691 126.753 281.853 123.92 271.543C128.972 255.877 132.046 239.699 134.93 223.532C135.199 222.75 133.887 222.384 133.692 223.191C133.353 224.907 133.027 226.625 132.709 228.343C126.886 249.793 119.949 270.887 112.382 291.779C111.499 294.692 110.673 297.6 111.171 300.65C111.603 302.429 114.306 302.258 114.615 300.434C115.219 300.258 115.754 300.415 116.227 300.774C116.232 300.767 116.235 300.759 116.239 300.755C119.86 305.921 124.658 310.192 129.541 314.236C137.905 321.332 146.108 328.617 153.834 336.406C155.669 338.773 161.832 343.001 162.267 346.201C161.459 351.902 155.547 354.605 150.906 356.833C144.153 360.108 137.82 364.254 132.203 369.227C119.976 357.944 107.238 347.186 93.7751 337.396C86.0543 331.85 76.4911 326.352 74.0041 316.506ZM211.038 170.434C211.072 170.617 211.103 170.8 211.133 170.98C210.989 170.778 210.839 170.579 210.68 170.389C210.799 170.406 210.917 170.42 211.038 170.434ZM255.135 411.249C255.004 410.862 254.867 410.478 254.729 410.095C255.086 408.381 255.625 406.774 255.788 404.973C259.251 401.461 261.4 396.678 261.975 391.8C262.146 390.366 262.245 388.991 261.191 387.87C260.804 387.457 259.982 387.413 259.602 387.87C258.31 389.423 258.645 391.762 258.184 393.656C257.215 397.666 254.972 401.448 251.758 404.001C249.948 405.478 247.636 407.341 245.564 407.909C247.181 401.602 250.74 395.598 251.211 388.951C251.347 387.002 251.224 385.18 250.746 383.284C250.391 382.103 249.858 381.077 250.278 379.847C255.168 376.697 259.488 372.16 261.683 366.679C262.463 366.764 263.266 366.419 263.618 365.551C265.373 378.513 267.741 392.2 260.961 404.086C259.441 406.781 257.481 409.226 255.135 411.249ZM185.406 381.236C183.497 379.281 181.778 377.169 180.022 375.081C178.158 373.152 174.979 376.158 178.269 378.982C184.004 386.134 183.8 395.052 181.076 403.335C180.606 401.207 180.231 399.092 179.525 397.004C177.775 391.826 175.12 387 171.807 382.658C171.009 381.613 168.943 382.144 169.468 383.642C171.123 388.361 171.871 393.582 171.121 398.559C170.769 400.88 169.767 403.086 169.632 405.442C169.587 406.257 170.071 408.319 168.781 407.852C168.285 407.672 167.843 406.622 167.632 405.954C166.579 402.503 166.8 398.846 166.397 395.298C165.896 390.686 165.124 385.948 161.811 382.445C161.084 381.675 160.011 382.17 159.667 383.009C157.048 389.316 159.757 397.139 155.1 402.671C154.867 402.927 153.537 404.224 153.321 404.053C152.955 403.764 153.349 402.131 153.411 401.752C156.613 388.543 145.729 377.577 141.841 367.338C149.583 360.983 162.837 358.951 166.2 348.533C169.337 355.45 172.057 362.767 177.029 368.634C181.907 374.46 191.053 378.304 191.431 386.813C189.102 385.461 187.288 383.13 185.406 381.236ZM115.225 657.436C121.209 657.529 127.222 659.382 133.154 659.284C138.632 659.479 144.118 659.226 149.588 658.896C147.521 667.034 148.318 676.578 151.051 684.471C140.417 689.435 130.735 696.525 119.073 689.603C118.945 688.579 118.595 687.562 118.258 686.567C118.392 686.016 118.494 685.296 117.99 684.86C118.018 675.66 117.067 666.453 115.225 657.436ZM324.57 657.559C325.276 658.303 322.76 664.1 322.155 665.082C321.437 664.619 320.727 664.166 320.022 663.683C320.583 662.015 321.338 660.42 322.435 658.962C322.732 658.569 323.903 656.985 324.57 657.559ZM370.104 691.252C369.987 690.75 369.505 690.292 368.98 690.164C367.469 686.268 365.053 682.371 361.312 680.321C359.053 679.153 356.55 678.814 354.087 678.326C343.751 676.314 333.927 672.226 324.952 666.817C325.834 664.328 326.66 661.857 327.189 659.278C328.053 656.389 325.751 653.975 322.867 655.187C320.33 656.324 318.796 659.809 318.041 662.306C317.402 661.868 316.728 661.429 316.034 661.031C315.673 660.024 314.481 659.595 313.562 659.024C312.13 658.07 310.207 656.401 308.485 657.694C305.372 653.551 302.876 648.956 300.771 644.232C299.117 640.904 298.486 637.119 296.168 634.147C296.494 632.088 295.232 630.035 294.39 628.205C293.608 626.534 292.863 624.845 292.16 623.138C277.573 583.518 272.383 541.039 266.26 499.466C261.856 471.477 262.525 442.76 256.311 415.091C271.407 402.838 271.049 380.225 264.478 363.51C278.515 324.36 254.715 285.388 251.839 246.392C250.915 217.932 255.66 183.759 226.015 167.693C222.262 165.626 218.23 163.957 214.011 163.13C210.108 160.939 205.456 160.406 201.037 160.319C198.543 158.967 197.835 155.865 196.94 153.372C196.696 152.474 196.147 151.462 196.05 150.542C196.04 150.462 195.917 150.429 195.896 150.521C192.434 159.626 201.163 169.141 210.043 170.288C214.046 184.38 205.625 196.943 190.449 196.145C172.878 194.83 148.038 185.153 141.686 167.342C144.487 167.289 147.153 166.417 149.794 165.588C150.404 165.309 151.254 165.351 151.63 164.732C157.702 161.686 162.386 155.957 163.398 149.222C163.355 149.255 163.281 149.305 163.165 149.379C163.269 149.312 163.364 149.241 163.45 149.168C163.535 148.134 163.547 147.101 163.447 146.065C162.982 145.646 162.322 145.418 161.555 145.572C159.218 146.042 159.17 148.499 158.795 150.343C158.458 152.005 157.826 153.533 156.976 154.998C153.513 160.872 146.887 164.959 139.955 164.071C139.639 163.786 139.195 163.647 138.765 163.789C138.796 163.815 138.829 163.841 138.86 163.865C98.1485 162.373 83.6237 193.585 76.5339 228.415C70.8686 253.974 68.6331 280.294 69.9526 306.44C70.2753 309.463 69.8771 317.703 71.8549 319.481C76.2019 332.674 89.8245 338.873 100.097 346.765C99.0135 349.867 98.9895 353.17 98.9334 356.419C98.7719 360.133 98.5226 363.844 98.183 367.549C97.8766 370.891 97.0003 374.642 98.2138 377.894C98.988 379.946 100.721 382.087 103.013 382.36C103.63 387.967 103.83 393.64 104.315 399.251C104.894 450.645 110.782 502.311 102.654 553.424C99.6594 572.835 97.1948 592.494 99.235 612.136C100.766 626.728 103.662 641.164 106.844 655.471C107.424 657.362 108.922 659.161 111.036 658.836C111.764 659.276 112.652 659.615 113.442 659.232C113.553 668.372 114.739 677.499 114.083 686.645C113.644 686.382 113.199 686.123 112.753 685.872C112.496 685.324 111.983 684.795 111.364 685.123C111.228 685.062 111.053 685.18 111.083 685.32C109.955 688.375 109.194 691.697 108.568 694.907C106.37 699.128 105.037 703.833 104.593 708.587C104.375 710.443 104.057 712.84 105.69 714.169C105.123 714.188 104.418 714.235 104.248 714.894C103.445 716.86 102.132 728.95 105.115 728.897C116.672 729.6 128.28 729.788 139.85 730.203C140.48 730.226 141.081 729.74 141.242 729.146C141.61 727.797 142.007 726.455 142.392 725.112C160.761 735.173 204.63 729.309 215.697 727.063C217.977 727.063 218.125 719.976 217.977 717.816C219.265 716.188 218.457 713.463 217.666 711.742C214.329 704.516 205.589 703.744 198.66 702.589C187.969 700.533 177.494 696.502 169.043 689.525C171.324 687.363 174.027 683.796 173.736 680.539C173.431 679.122 172.156 678.335 170.76 678.421C167.579 678.686 165.264 682.026 163.471 684.317C163.096 683.922 162.728 683.523 162.362 683.121C162.322 682.27 161.754 681.44 160.761 681.559C158.795 681.793 156.883 682.272 155.012 682.907C154.549 680.757 153.694 678.658 153.216 676.498C151.956 671.086 151.659 665.554 151.54 660.01C153.836 659.974 155.156 659.863 156.94 658.919C157.909 659.204 159.006 658.846 159.306 657.549C160.282 653.338 160.334 648.986 160.631 644.682C163.931 590.106 169.879 535.139 188.854 483.489C190.833 489.715 193.439 495.718 195.668 501.858C211.234 542.342 220.912 584.699 232.158 626.499C233.11 630.009 234.077 633.514 235.067 637.013C236.45 642.977 239.347 645.724 245.697 645.699C249.867 645.893 254.046 645.845 258.213 645.569C263.136 650.214 265.52 656.422 267.245 662.773C265.988 663.399 262.27 662.478 262.105 664.179C260.546 666.725 261.211 670.013 261.181 672.86C261.412 676.681 261.215 680.728 262.352 684.389C262.416 688.245 262.568 692.101 262.773 695.955C259.372 698.404 260.39 703.28 261.324 706.729C261.131 709.173 281.393 708.073 284.28 708.287C289.032 707.897 296.035 709.374 298.55 704.212C314.313 711.956 336.155 706.441 353.13 704.872C359.11 703.996 365.064 702.961 370.989 701.778C371.849 701.605 372.265 700.626 372.087 699.849C371.436 696.981 370.766 694.118 370.104 691.252Z" fill="black"/>
<path fill-rule="evenodd" clip-rule="evenodd" d="M186.366 67.589C222.036 68.7183 224.187 85.6626 224.187 114.079C224.187 142.495 205.683 160.401 198.87 163.528C192.056 166.655 174.116 180.085 157.925 173.896C141.735 167.707 146.423 141.559 146.423 130.325C146.423 119.09 150.696 66.4596 186.366 67.589Z" fill="#D08B5B"/>
<path fill-rule="evenodd" clip-rule="evenodd" d="M151.89 112.685C159.265 82.6091 172.729 67.9351 192.281 68.6633C221.61 69.7555 221.301 99.6511 219.461 96.9252C218.258 95.1444 209.842 88.9231 194.211 78.2614L193.245 77.6031L151.89 112.685Z" fill="#9FD8E5"/>
<path fill-rule="evenodd" clip-rule="evenodd" d="M200.837 154.196C194.287 157.853 186.787 157.995 179.741 155.694C175.515 154.317 171.641 152.188 168.015 149.643C164.86 147.427 162.045 144.969 159.255 142.359C156.959 137.295 154.914 132.239 153.956 126.729C153.099 121.782 152.985 116.646 153.98 111.709C161.341 105.654 168.657 99.5483 175.963 93.4242C179.684 90.3049 183.414 87.2027 187.189 84.1498C189.107 82.5997 191.005 81.026 192.915 79.4688C193.23 79.2128 193.543 78.9569 193.858 78.7009C197.802 81.5877 202.03 84.0623 205.945 86.9962C207.995 88.5344 209.988 90.1722 211.886 91.895C212.881 92.7982 213.853 93.7297 214.801 94.6848C215.668 95.5573 216.505 96.8085 217.735 97.1381C217.903 97.1829 218.062 97.1924 218.211 97.1711C219.856 111.572 221.024 127.122 213.978 140.2C210.905 145.905 206.547 151.006 200.837 154.196ZM158.225 159.488C157.323 158.662 158.667 157.324 159.565 158.147C165.207 163.316 172.583 166.055 180.033 167.323C181.235 167.528 180.722 169.355 179.528 169.151C171.75 167.828 164.105 164.875 158.225 159.488ZM151.454 167.418C150.377 166.84 151.336 165.204 152.411 165.781C156.806 168.138 161.627 169.363 166.517 170.19C167.72 170.394 167.207 172.22 166.013 172.019C160.957 171.164 155.996 169.854 151.454 167.418ZM169.343 87.5392C172.99 84.2659 176.91 81.1513 181.051 78.5231C185.24 75.8639 189.817 74.2735 194.762 74.2356C194.416 74.5129 194.087 74.821 193.753 75.1076C192.819 75.9065 191.888 76.71 190.956 77.5111C189.094 79.1157 187.226 80.7176 185.387 82.3485C181.766 85.5623 178.133 88.7596 174.519 91.9806C167.573 98.1713 160.776 104.497 154.126 111.005C154.162 110.847 154.2 110.688 154.237 110.529C156.439 101.333 162.428 93.7463 169.343 87.5392ZM197.933 74.6362C197.957 74.5651 197.974 74.4961 197.983 74.43C207.475 75.6672 215.402 82.6516 218.023 91.8478C217.795 92.1654 217.67 92.5423 217.717 92.9426C217.741 93.1443 217.765 93.3481 217.788 93.5496C217.464 93.2275 217.13 92.9262 216.845 92.6395C215.9 91.6819 214.93 90.7502 213.935 89.8425C211.899 87.9869 209.785 86.252 207.558 84.6332C203.683 81.8176 199.488 79.2294 194.869 77.8785C195.173 77.6296 195.476 77.3807 195.782 77.1342C196.694 76.3922 197.54 75.7809 197.933 74.6362ZM214.95 64.8026C209.122 58.4342 201.053 53.7698 192.554 52.1487C184.44 50.5986 176.038 51.6201 168.372 54.6325C152.33 60.937 139.673 74.7999 133.745 90.8642C130.29 100.224 129.157 110.484 130.196 120.391C131.229 130.253 134.198 140.437 139.601 148.827C140.097 149.596 140.639 150.332 141.208 151.046C140.955 153.942 139.988 156.781 138.466 159.251C138.384 159.383 138.298 159.513 138.213 159.643C136.655 160.81 135.039 161.905 133.461 163.035C132.094 164.015 130.741 165.019 129.455 166.104C128.242 167.128 126.832 168.269 126.011 169.651C125.337 170.783 125.062 172.323 125.981 173.402C127.089 174.703 128.965 174.245 130.466 174.245C130.594 174.245 130.722 174.247 130.85 174.249C131.301 174.532 131.765 174.788 132.214 175.026C136.758 177.435 141.317 179.816 145.882 182.187C154.973 186.91 164.026 191.824 173.304 196.173C177.603 198.189 182.205 199.953 187.02 199.946C191.538 199.939 195.621 198.144 199.147 195.416C203.166 192.309 206.527 188.363 209.788 184.495C211.091 182.947 212.369 181.381 213.622 179.793C216.03 178.989 218.419 178.755 220.566 180.305C222.289 181.549 224.559 179.857 224.6 177.989C224.614 177.326 224.586 176.671 224.514 176.027C224.083 172.045 222.135 168.442 219.94 165.101C218.742 163.273 217.478 161.479 216.208 159.701C215.909 159.282 215.615 158.862 215.331 158.436C220.433 150.923 224.481 142.592 226.97 133.886C229.584 124.726 230.472 115.226 229.89 105.734C228.993 91.1866 225.003 75.7904 214.95 64.8026Z" fill="black"/>
<path fill-rule="evenodd" clip-rule="evenodd" d="M197.255 143.848C195.659 143.198 194.235 142.114 193.193 140.729C192.831 140.247 192.737 139.739 192.813 139.274C192.899 138.751 193.208 138.277 193.631 137.959C194.055 137.64 194.586 137.483 195.099 137.563C195.544 137.633 195.988 137.876 196.339 138.381L196.412 138.482C197.031 139.318 197.838 140.004 198.757 140.446C199.643 140.872 200.634 141.071 201.66 140.955C203.613 140.735 204.959 139.681 206.39 138.25C206.567 138.069 206.745 137.882 206.923 137.693C207.036 137.521 207.192 137.411 207.365 137.353C207.558 137.289 207.776 137.292 207.976 137.362C208.168 137.429 208.34 137.556 208.456 137.725C208.565 137.886 208.628 138.085 208.607 138.313C208.476 139.796 207.699 141.12 206.595 142.16C205.369 143.314 203.744 144.113 202.214 144.393C200.528 144.702 198.811 144.481 197.255 143.848ZM203.009 120.962C204.803 122.05 207.535 124.587 205.606 127.284C203.335 129.662 200.065 126.935 198.454 125.702C196.96 124.746 195.282 127.204 196.668 128.32C208.31 136.923 213.035 121.247 203.916 119.683C202.912 119.511 202.539 120.626 203.009 120.962ZM182.146 110.955C182.344 108.501 186.09 107.943 186.462 110.372C186.796 112.548 186.403 114.547 185.421 116.506C184.483 118.377 182.124 117.504 181.946 115.8C181.707 113.516 182.022 112.482 182.146 110.955ZM210.66 109.869C211.182 109.186 211.936 108.72 212.839 108.983C215.662 109.806 214.83 113.806 213.839 115.752C213.3 116.809 211.559 117.077 210.772 116.146C209.49 114.629 208.876 111.598 210.506 110.102C210.55 110.025 210.599 109.947 210.66 109.869ZM185.381 100.215L185.827 100.137C187.207 99.8989 188.922 99.6701 189.897 100.777C190.415 101.364 190.593 102.454 189.897 103.016C188.674 104.004 187.321 103.621 185.855 103.705C184.646 103.774 183.485 103.974 182.321 104.306C179.768 105.034 177.687 106.364 175.506 107.824C175.22 108.015 174.928 107.65 175.064 107.383C176.323 104.922 178.763 102.901 181.207 101.668C182.511 101.011 183.938 100.465 185.381 100.215ZM208.086 99.1125L208.428 99.1822C212.141 99.9569 216.966 101.504 218.725 105.145C218.792 105.66 218.721 105.77 218.664 105.842L218.644 105.866C218.597 105.927 218.559 106.012 218.336 106.082C218.273 106.068 218.211 106.052 218.148 106.035C217.341 105.825 216.704 105.534 216.086 105.233L215.417 104.904C214.64 104.524 213.856 104.157 213.026 103.887C211.254 103.31 209.431 102.904 207.58 102.687C207.179 102.64 206.792 102.505 206.488 102.273C206.198 102.053 205.977 101.749 205.876 101.344C205.746 100.821 205.783 100.424 206.065 99.9519C206.277 99.5972 206.579 99.3514 206.927 99.2102C207.282 99.0662 207.685 99.0323 208.086 99.1125Z" fill="black"/>
</svg>
