<svg width="391" height="780" viewBox="0 0 391 780" fill="none" xmlns="http://www.w3.org/2000/svg">
<path fill-rule="evenodd" clip-rule="evenodd" d="M124.919 275.77L124.583 279.771L124.332 279.303C124.296 287.374 123.098 295.535 121.777 303.588C118.323 300.753 115.483 298.253 116.304 293.413C118.381 286.516 121.045 279.787 123.198 272.927L123.559 274.726L124.981 275.012L124.919 275.77ZM371.602 700.998C370.966 698.193 370.272 695.224 369.622 692.412C369.558 692.174 368.962 692.121 368.77 692.057C365.332 683.652 362.323 681.737 355.664 680.593C344.925 678.654 334.328 674.45 324.184 668.22C324.421 667.293 325.068 665.692 325.657 663.982C325.58 664.008 325.502 664.031 325.423 664.047C325.287 664.073 325.159 664.079 325.036 664.071C324.348 665.683 323.6 667.1 323.204 667.622C321.937 666.806 320.527 665.909 319.285 665.042L319.29 665.027C318.185 664.262 316.819 663.318 315.737 662.729C315.535 661.611 313.893 661.264 313.036 660.526C311.372 659.339 310.449 658.727 308.922 660.243C305.629 655.974 302.977 651.46 300.37 645.624C298.739 642.214 297.937 638.437 295.743 635.391C295.785 635.368 297.18 634.934 297.214 634.895C272.285 579.767 268.291 518.424 262.973 459.497C261.8 446.32 260.573 433.021 258.287 420.23C257.973 418.292 257.691 416.385 256.523 414.84C270.533 403.317 270.669 380.983 263.884 364.417C279.486 322.405 248.903 277.783 251.16 234.906C252.425 205.822 247.18 172.123 214.268 165.144C210.186 162.799 205.293 162.449 201.399 162.386C197.893 160.618 197.34 156.714 196.092 153.505L194.872 153.513C194.514 152.06 194.16 150.468 193.852 149.005C193.389 148.077 193.663 146.867 192.205 147.125C188.9 142.348 162.451 139.947 162.151 147.638C161.196 148.2 161.008 149.297 160.785 150.629C159.319 160.074 149.214 167.606 140.109 166.087L139.962 165.954C101.201 164.52 85.9417 192.046 78.3674 229.559C72.4494 258.706 68.6878 290.293 73.3222 319.488C77.8499 332.719 91.5642 339.085 102.174 347.236C100.951 350.313 100.837 353.707 100.8 357.036C100.66 360.879 100.38 364.753 100.039 368.545C99.3415 373.35 98.212 381.621 104.765 382.182C107.303 439.613 112.606 496.894 104.504 554.492C97.7777 586.346 100.353 624.888 108.669 656.055C109.148 657.595 110.381 658.98 111.955 658.488C112.754 659.004 113.379 659.327 114.04 658.84C114.429 659.56 114.856 660.252 115.317 660.923C115.492 669.485 116.464 677.886 116.022 686.504C115.361 686.428 113.909 685.702 113.345 686.177L113.264 686.834L112.727 687.017C111.602 690.184 110.897 693.508 110.375 696.19C108.099 700.787 105.192 708.922 106.813 714.042C106.735 714.133 106.298 714.64 106.23 714.717C105.842 714.938 105.771 715.234 105.676 715.574C104.572 715.987 104.459 717.247 104.345 718.535C103.792 721.656 104.614 724.493 104.896 727.547L104.913 727.526C104.913 727.526 105.84 728.599 105.841 728.6C117.494 729.308 128.968 729.49 140.569 729.906C141.444 728.232 141.708 725.97 142.365 724.131C156.118 734.175 179.947 730.333 197.222 727.866C204.237 726.857 210.865 725.903 216.741 725.585C217.123 725.532 217.151 725.368 217.161 725.216C217.218 722.917 217.652 720.56 217.436 718.329C218.649 717.152 218.096 715.009 217.262 713.126C214.196 706.496 205.861 705.771 199.109 704.64C186.406 702.179 176.191 697.55 167.928 690.473C168.483 689.971 168.988 689.478 169.448 688.996C169.268 688.877 169.089 688.757 168.91 688.637C168.475 688.446 168.059 688.251 167.678 688.005C167.483 688.114 167.24 688.136 167 688.002C166.169 687.536 165.492 686.852 164.703 686.328C164.547 686.553 164.39 686.782 164.231 687.021C163.475 686.225 162.618 685.323 161.87 684.489C161.843 684.258 161.904 683.683 161.622 683.62C159.495 683.835 157.031 684.551 154.805 685.346C152.29 677.094 150.833 668.164 151.001 659.731C153.474 659.731 155.641 659.708 157.486 658.534C157.99 658.67 158.692 658.961 158.823 658.17C159.571 654.941 159.766 651.522 159.954 648.215C163.783 585.668 169.617 535.407 188.966 482.423C190.824 489.78 193.944 497.431 196.782 504.755C209.698 535.362 219.003 568.37 226.979 600.495C230.117 612.52 233.529 625.734 236.898 637.634C238.204 643.354 240.861 645.448 246.427 645.403C250.716 645.604 255.019 645.542 259.326 645.24C265.197 650.583 267.604 657.795 269.319 664.289C267.89 665.35 265.622 664.949 263.952 665.3C262.511 667.618 263.009 670.859 263.043 673.718C263.269 677.433 263.077 681.418 264.16 684.926C264.354 688.762 264.378 692.965 264.667 697.425C261.484 699.268 262.067 703.339 263.124 707.233C263.596 708.224 280.703 708.028 284.946 707.986C289.932 707.696 297.043 708.968 298.678 703.511C310.55 710.094 328.61 707.87 342.441 705.932C352.478 704.711 361.572 703.575 371.429 701.504C371.53 701.459 371.674 701.143 371.602 700.998Z" fill="#D08B5B"/>
<path d="M107.511 376.046C110.525 375.725 141.197 378.105 144.26 377.392L144.396 377.361L145.588 377.075L146.281 378.086C149.701 383.076 151.425 386.353 152.286 389.679L152.346 389.917L152.37 390.017C153.095 393.014 153.152 395.79 152.759 401.421L152.718 401.993L152.672 402.616L152.562 404.07L152.565 404.079C152.756 404.69 153.347 404.871 154.083 404.458L154.134 404.429L154.157 404.414L154.237 404.36C155.813 403.254 156.873 401.796 157.579 399.879L157.628 399.745L157.676 399.609C158.242 397.963 158.536 396.193 158.786 393.357L158.83 392.838L158.97 391.099C159.168 388.664 159.316 387.369 159.594 385.988L159.631 385.807L160.424 382.109L162.765 384.856C163.939 386.233 164.657 388.11 165.103 390.569L165.155 390.865C165.397 392.278 165.537 393.692 165.682 395.963L165.723 396.619L165.849 398.767L165.899 399.552C166.093 402.461 166.286 403.975 166.673 405.402L166.714 405.549L166.744 405.652C167.249 407.384 167.933 408.268 168.931 408.546L168.991 408.562L169.014 408.567L169.054 408.565C170.189 408.49 170.475 407.941 170.395 406.109L170.386 405.93L170.381 405.841L170.368 405.638L170.34 405.265L170.359 405.037C170.435 404.173 170.589 403.451 170.926 402.228L170.963 402.095L171.293 400.916L171.368 400.635C172.186 397.459 172.356 393.95 171.903 390.377L171.872 390.138L170.694 381.387L175.173 389.002C178.14 394.045 179.895 399.798 180.362 405.798L180.382 406.066L180.397 406.289C180.624 406.692 181.062 406.785 181.43 406.51L181.468 406.481L181.503 406.45C182.462 405.579 183.054 404.006 183.605 401.228L183.633 401.083L183.849 399.955L183.948 399.445L184.007 399.191C185.058 394.646 185.277 391.035 184.486 387.764L184.447 387.606L183.016 381.942L187.366 385.85C188.061 386.475 188.768 387.078 189.484 387.655C190.851 388.751 191.938 388.878 192.571 388.397C193.249 387.882 193.553 386.626 193.117 384.957L193.092 384.862L192.311 382.029L195.188 382.654C204.864 384.756 213.745 385.784 222.013 385.551C231.527 385.283 239.99 383.337 247.331 379.481L247.567 379.356L249.668 378.236L250.15 380.564C250.852 383.952 250.676 387.433 249.762 391.241L249.697 391.509C249.061 394.086 248.228 396.432 246.685 400.235L246.523 400.634L245.792 402.419L245.247 403.76L244.992 404.399C244.214 406.378 243.965 407.842 244.135 408.722C244.226 409.189 244.375 409.343 244.732 409.423C246.048 409.715 248.662 408.639 251.052 406.603L251.154 406.516L253.606 404.368L254.412 408.14L254.221 408.633C253.765 409.811 253.606 410.935 253.794 411.828L253.814 411.917L253.999 412.686L253.551 413.338C253.516 413.389 253.519 413.451 253.609 413.589C253.724 413.765 253.902 413.874 254.034 413.885L254.064 413.886L255.6 413.836L255.875 415.345L256.026 416.186C257.178 422.651 261.394 467.282 261.394 467.282C262.317 478.951 273.266 557.121 275.324 567.098C279.97 591.141 285.523 612.005 292.736 631.337L292.955 631.922L293.545 633.494L292.006 634.172C277.894 640.39 261.676 643.215 245.289 642.534L244.83 642.514L244.651 642.512C241.032 642.457 239.218 640.927 238.305 637.441L238.25 637.224L238.225 637.119L238.193 636.984L237.593 634.95C235.683 628.45 213.978 548.4 210.445 537.289L210.214 536.564L209.787 535.235L209.413 534.079C204.479 518.906 199.288 505.534 193.359 493.102L193.155 492.676L193.115 492.602C192.449 491.388 191.917 490.122 191.318 488.411L191.253 488.226L191.127 487.859L191.032 487.579L190.46 485.86L190.262 485.271L190.181 485.003C189.48 482.661 189.098 480.415 189.071 478.22L189.07 477.993L189.07 477.963L188.96 478.211C186.632 483.465 183.994 490.405 181.282 498.655L181.174 498.985L180.827 500.048C173.434 522.917 168.146 547.408 164.303 575.021L164.095 576.527C161.228 597.489 159.336 618.323 157.29 648.628L157.1 651.467L156.877 654.842L155.5 655.084C153.925 655.361 152.564 655.734 151.356 656.24L151.192 656.31L150.91 656.432L150.603 656.453L146.579 656.741C146.248 656.763 145.943 656.784 145.651 656.802L144.791 656.854C132.876 657.63 122.954 657.054 113.763 654.646L113.482 654.572L113.13 654.486L109.792 653.652L100.22 599.161L106.153 548.084L106.367 546.55C109.884 520.843 105.772 404.895 105.49 397.233L105.431 395.602L105.377 394.027L105.302 392.872L105.041 388.357L104.998 387.688C104.747 383.824 104.445 381.201 103.894 378.613L103.465 376.633L105.322 376.336C106.043 376.221 106.772 376.124 107.511 376.046Z" fill="#E86BBB"/>
<path fill-rule="evenodd" clip-rule="evenodd" d="M214.928 716.481C217.01 718.879 216.353 724.065 216.353 724.065C216.223 724.116 182.849 729.978 160.305 729.754C151.111 729.662 144.691 723.354 141.544 723.354C140.594 723.354 141.084 729.392 137.506 728.806L104.701 727.358L104.02 716.481L107.345 712.926C107.345 712.926 131.228 717.671 143.444 716.481C157.903 715.072 211.84 712.926 214.928 716.481ZM367.633 692.306C370.036 694.297 370.596 699.547 370.596 699.547C370.596 699.547 343.455 705.767 334.332 705.956L332.568 705.989L330.537 706.019C327.916 706.051 310.636 708.423 299.474 703.209C297.401 702.24 293.688 706.676 290.406 706.689C279.11 706.734 262.9 706.053 262.9 706.053C262.857 705.301 262.235 701.593 262.176 700.434C262.176 700.434 264.246 696.244 264.325 693.965C264.432 690.899 284.315 694.238 306.361 693.965C333.982 693.623 365.212 690.3 367.633 692.306Z" fill="white"/>
<path fill-rule="evenodd" clip-rule="evenodd" d="M161.554 145.572C162.321 145.418 162.982 145.645 163.447 146.065C163.547 147.101 163.535 148.134 163.45 149.167C163.364 149.241 163.269 149.312 163.165 149.378L163.244 149.327C163.316 149.281 163.365 149.247 163.397 149.222C162.386 155.957 157.702 161.686 151.63 164.732C151.254 165.35 150.404 165.308 149.794 165.587L148.936 165.857C146.574 166.596 144.184 167.295 141.686 167.341C148.038 185.153 172.878 194.829 190.449 196.144C205.625 196.943 214.046 184.379 210.043 170.287C201.251 169.152 192.609 159.815 195.795 150.794L195.895 150.52C195.917 150.428 196.04 150.461 196.05 150.542C196.147 151.461 196.696 152.474 196.94 153.372L197.053 153.691C197.898 156.123 198.648 159.024 201.037 160.318L201.446 160.328C205.742 160.44 210.228 161.006 214.011 163.13C218.229 163.957 222.261 165.625 226.015 167.692C255.659 183.759 250.915 217.932 251.838 246.391C254.715 285.388 278.515 324.359 264.478 363.51C270.887 379.814 271.383 401.727 257.393 414.166C257.547 414.407 257.677 414.671 257.785 414.941C258.451 416.6 258.657 418.501 258.971 420.263L259.008 420.465C259.765 424.56 260.309 428.698 260.841 432.827C261.89 440.973 262.653 449.155 263.379 457.336L263.482 458.505C265.301 479.068 266.889 499.677 269.274 520.188L269.719 523.228C272.947 545.186 276.463 567.196 281.759 588.714C281.915 589.291 282.07 589.868 282.23 590.443C284.138 597.346 286.384 604.132 288.496 610.971C289.164 613.137 289.905 615.269 290.685 617.384L291.655 619.788C291.817 620.189 291.98 620.589 292.143 620.989C293.864 625.216 295.697 629.395 297.628 633.53C297.976 634.276 297.469 634.963 296.871 635.155C298.634 637.945 299.298 641.269 300.771 644.232C302.876 648.955 305.371 653.55 308.484 657.693C310.206 656.4 312.13 658.07 313.562 659.023C314.481 659.594 315.673 660.023 316.034 661.031C316.728 661.429 317.402 661.867 318.041 662.306L318.105 662.098C318.881 659.619 320.399 656.292 322.866 655.186C325.751 653.975 328.052 656.389 327.189 659.277C326.66 661.857 325.833 664.328 324.952 666.816C333.826 672.165 343.53 676.221 353.739 678.257L354.087 678.325C356.55 678.814 359.053 679.152 361.311 680.321C365.053 682.371 367.469 686.268 368.98 690.164C369.505 690.292 369.987 690.749 370.103 691.252L371.099 695.549C371.431 696.982 371.761 698.414 372.086 699.848C372.264 700.625 371.849 701.604 370.989 701.777C365.064 702.96 359.11 703.996 353.13 704.871C336.154 706.44 314.313 711.955 298.55 704.212C296.035 709.373 289.032 707.897 284.279 708.286C281.393 708.073 261.131 709.172 261.324 706.728L261.212 706.308C260.316 702.893 259.508 698.305 262.772 695.954C262.568 692.1 262.415 688.244 262.352 684.388C261.215 680.728 261.412 676.681 261.181 672.86C261.211 670.012 260.546 666.724 262.105 664.178C262.242 662.49 266 663.391 267.244 662.773L267.134 662.372C265.418 656.16 263.032 650.116 258.213 645.568C254.046 645.844 249.867 645.893 245.697 645.698C239.346 645.723 236.45 642.976 235.067 637.012C234.076 633.514 233.11 630.009 232.158 626.498C224.728 598.883 217.981 571.024 209.77 543.623C206.631 534.44 203.159 525.368 199.658 516.32C197.285 510.187 194.908 504.056 192.534 497.924C191.314 494.774 190.112 491.606 189.051 488.399C188.725 487.413 188.429 486.422 188.15 485.426C169.732 536.512 163.89 590.787 160.631 644.682C160.334 648.986 160.281 653.337 159.305 657.549C159.006 658.846 157.909 659.203 156.94 658.919C155.156 659.863 153.836 659.973 151.539 660.009L151.556 660.748C151.687 666.044 152.012 671.326 153.216 676.498C153.693 678.657 154.548 680.757 155.012 682.907C156.883 682.272 158.795 681.793 160.761 681.558C161.754 681.44 162.321 682.269 162.362 683.12C162.728 683.523 163.096 683.921 163.471 684.317L163.66 684.073C165.426 681.796 167.69 678.677 170.759 678.42C172.156 678.335 173.431 679.122 173.735 680.539C174.027 683.796 171.323 687.363 169.042 689.524C177.494 696.502 187.968 700.532 198.659 702.588L199.077 702.657C205.936 703.777 214.396 704.66 217.666 711.741L217.735 711.893C218.502 713.619 219.227 716.235 217.977 717.816C218.125 719.976 217.725 722.198 217.673 724.379C217.618 725.265 217.02 725.78 216.172 725.878C194.348 727.047 161.083 737.241 142.391 725.111C142.007 726.455 141.61 727.796 141.242 729.145C141.08 729.74 140.48 730.226 139.85 730.202C128.28 729.787 116.671 729.6 105.115 728.896C104.779 728.902 104.498 728.752 104.264 728.481C103.992 728.813 103.3 728.723 103.207 728.251C103.044 727.423 103.043 726.583 102.968 725.744C102.882 724.772 102.622 723.876 102.469 722.926C102.188 721.171 102.315 719.29 102.489 717.53L102.533 717.084C102.655 715.921 102.873 714.6 103.926 713.94L103.996 713.898C104 713.896 104.004 713.894 104.007 713.893C104.124 713.522 104.4 713.202 104.75 712.948L104.771 712.924C104.22 711.612 104.432 709.953 104.593 708.587C105.036 703.832 106.37 699.128 108.568 694.906C109.194 691.697 109.954 688.374 111.083 685.319C111.052 685.179 111.228 685.061 111.363 685.123C111.41 685.098 111.456 685.079 111.502 685.064C111.508 685.017 111.517 684.971 111.532 684.926C111.727 684.352 112.329 684.038 112.894 683.948C113.372 683.873 113.786 684 114.215 684.108C114.524 675.81 113.542 667.526 113.441 659.232C112.651 659.614 111.764 659.275 111.036 658.836C108.922 659.161 107.423 657.362 106.844 655.47L106.504 653.937C103.457 640.132 100.711 626.207 99.235 612.136C97.1945 592.494 99.6594 572.835 102.654 553.423C110.782 502.31 104.894 450.644 104.315 399.251C103.83 393.64 103.63 387.967 103.013 382.359C100.721 382.087 98.988 379.945 98.2136 377.894C97 374.642 97.8763 370.89 98.1827 367.548C98.5223 363.844 98.7717 360.132 98.9334 356.418L98.9523 355.334C99.0076 352.438 99.1336 349.522 100.097 346.765C89.8242 338.873 76.2016 332.673 71.8546 319.48C69.8768 317.702 70.2751 309.463 69.9523 306.44C68.6328 280.294 70.8686 253.974 76.5336 228.415C83.6236 193.584 98.1483 162.373 138.86 163.864C138.829 163.841 138.796 163.814 138.765 163.788C139.195 163.646 139.639 163.786 139.955 164.07C146.887 164.959 153.512 160.872 156.976 154.998C157.826 153.533 158.457 152.004 158.795 150.343L158.821 150.21C159.174 148.383 159.273 146.03 161.554 145.572ZM108.959 714.384C107.976 714.927 106.899 714.992 105.993 715.716C105.357 719.19 105.409 722.795 106.174 726.244C117.027 726.36 127.894 726.907 138.743 727.28C139.18 725.604 139.593 723.919 140.049 722.248L140.06 722.213L140.084 722.147C141.21 722.185 142.336 722.218 143.462 722.246C160.123 734.164 194.642 724.036 214.754 723.042L214.96 719.702C214.757 719.844 214.555 719.922 214.362 719.95C214.549 719.462 214.216 718.827 213.553 719.012C212.483 719.311 211.407 719.586 210.328 719.845C210.246 719.813 210.153 719.797 210.049 719.806C200.608 720.611 191.128 720.535 181.66 720.564C172.226 720.592 162.801 720.989 153.366 720.963C149.517 720.952 145.669 720.894 141.822 720.78C130.742 718.726 119.741 716.303 108.959 714.384ZM367.584 694.022C367.117 694.36 366.507 694.389 365.859 694.477L365.766 694.49C365.173 694.576 364.579 694.657 363.982 694.703C362.507 695.654 359.57 695.525 358.149 695.795C326.937 698.908 295.509 695.215 264.267 697.715C262.775 699.838 263.139 702.467 263.932 704.839C272.656 705.167 281.389 705.344 290.117 704.967L290.815 704.942C291.893 704.899 292.999 704.822 293.995 704.415C294.886 704.052 295.98 703.153 295.84 702.075L295.831 702.014C295.618 700.777 296.919 699.329 298.185 700.209C310.123 708.112 326.343 704.138 339.793 703.361C349.485 702.337 359.125 700.879 368.691 699.033C368.32 697.363 367.952 695.692 367.584 694.022ZM149.559 659.009C148.558 659.124 147.556 659.226 146.552 659.317C142.527 659.679 138.488 659.862 134.448 659.977L132.563 660.029C128.799 660.13 125.011 660.219 121.254 660.015C119.354 659.912 117.406 659.689 115.569 659.173C117.185 667.634 118.016 676.25 117.99 684.86C118.495 685.296 118.393 686.016 118.258 686.567L118.385 686.941C118.679 687.816 118.961 688.707 119.073 689.602C130.735 696.525 140.418 689.435 151.051 684.471C149.298 679.922 148.765 674.935 148.472 670.104C148.308 666.346 148.59 662.679 149.559 659.009ZM170.758 681.352C170.272 681.407 169.821 681.711 169.428 681.98C167.806 683.139 166.405 684.511 165.125 685.995C165.616 686.478 166.117 686.954 166.628 687.422C168.544 685.881 170.048 683.735 170.758 681.352ZM294.712 637.363L293.133 637.894C283.386 641.158 273.436 644.222 263.081 645.137C263.637 645.687 264.105 646.338 264.516 647.031C264.874 647.334 265.235 647.722 265.133 648.182C265.466 648.853 265.76 649.534 266.04 650.176C267.678 654.063 269.569 657.889 270.949 661.891C271.35 663.562 272.925 665.898 272.191 667.516C283.199 672.299 296.893 670.169 305.302 661.417L305.006 660.98C300.173 653.836 295.926 645.988 294.712 637.363ZM324.57 657.559C323.902 656.985 322.732 658.568 322.435 658.962C321.337 660.419 320.582 662.014 320.022 663.683C320.727 664.166 321.437 664.619 322.154 665.081L322.194 665.015C322.861 663.866 325.262 658.288 324.57 657.559ZM115.225 657.435L115.237 657.494C115.828 657.586 116.42 657.668 117.014 657.735C118.459 657.899 119.922 657.972 121.38 658.002C119.328 657.707 117.275 657.467 115.225 657.435ZM130.87 379.299L130.384 379.25L129.76 379.173C121.749 378.179 113.676 376.852 105.609 378.143C106.726 383.301 106.801 388.705 107.162 393.989C108.884 444.883 115.084 496.068 108.137 546.842L107.922 548.38C105.39 566.438 102.378 584.559 103.59 602.857C104.536 619.535 107.937 635.931 111.316 652.252C112.128 652.456 112.94 652.66 113.755 652.859C113.779 652.632 113.92 652.762 113.947 652.906C123.954 655.573 134.399 655.802 144.681 655.132C146.62 655.021 148.55 654.863 150.487 654.731C151.981 654.083 153.577 653.67 155.197 653.385C158.612 601.593 163.085 549.209 179.138 499.554C189.357 468.008 202.122 437.29 209.675 404.937C209.936 404.029 211.313 404.411 211.09 405.328L210.854 406.568C208.936 416.701 207.208 426.866 204.222 436.77C206.489 434.305 209.074 432.129 211.214 429.55C211.881 428.737 212.494 427.882 213.021 426.969C213.521 425.839 214.324 424.954 215.567 424.689C216.137 424.459 216.666 424.943 216.854 425.419C217.377 426.734 217.156 427.672 216.395 428.831L216.205 429.116C212.847 434.07 207.472 436.963 203.037 440.851C199.324 453.222 195.05 465.417 190.861 477.63C190.808 480.06 191.25 482.459 191.963 484.776C192.774 487.158 193.5 489.681 194.746 491.915C212.069 528.055 220.799 567.433 231.324 605.888C234.095 616.144 236.9 626.395 239.921 636.581L239.965 636.766C240.653 639.637 241.727 640.792 244.88 640.788C260.679 641.513 276.9 638.939 291.293 632.597C283.365 611.482 277.86 589.631 273.58 567.486C271.421 557.018 269.671 546.467 268.197 535.875C266.145 522.351 264.334 508.797 262.5 495.311C258.746 468.88 258.911 441.984 254.128 415.714C252.494 415.767 251.094 413.83 252.088 412.384C251.741 410.945 252.051 409.373 252.565 408.044L252.503 407.755C246.899 412.723 239.586 413.351 243.339 403.802L243.598 403.153C246.417 396.146 250.002 388.661 248.411 380.975C232.156 389.634 212.286 388.238 194.815 384.443C196.176 389.381 192.51 392.408 188.374 389.093C187.628 388.491 186.897 387.867 186.18 387.223C187.231 391.384 186.667 395.745 185.695 399.869L185.603 400.345C185.13 402.82 184.593 406.104 182.708 407.816C181.333 409.063 179.262 408.532 178.644 406.752C178.299 400.865 176.654 395.073 173.643 389.953C174.146 393.695 174.023 397.54 173.099 401.128C172.743 402.501 172.249 403.901 172.132 405.321L172.15 405.553C172.327 408.055 171.994 410.352 168.869 410.402C161.458 409.099 166.133 391.594 161.414 386.059C159.981 392.74 161.651 401.521 155.135 405.956C153.335 407.08 151.138 406.428 150.772 404.247L150.902 402.533C151.679 392.077 151.534 388.943 144.816 379.141C140.261 380.23 135.49 379.764 130.87 379.299ZM262.887 648.03C262.891 648.07 262.894 648.108 262.896 648.149C262.974 648.228 263.051 648.308 263.128 648.389L263.243 648.511L263.11 648.184C263.036 648.137 262.96 648.083 262.887 648.03ZM256.77 414.706L256.465 414.963C256.414 415.005 256.362 415.048 256.31 415.09C256.581 416.296 256.835 417.505 257.08 418.715L257.033 417.918C256.988 417.134 257.113 415.711 256.77 414.706ZM251.823 307.522C249.531 296.874 247.246 292.381 250.149 307.717L250.464 309.373C251.722 316.013 253.046 323.541 254.291 331.646L254.55 333.342C255.849 341.745 257.891 354.046 258.041 363.9C258.213 375.081 252.526 378.399 250.278 379.847C249.857 381.077 250.391 382.103 250.746 383.284C251.223 385.18 251.347 387.002 251.211 388.95C250.739 395.598 247.181 401.601 245.564 407.909C247.636 407.341 249.947 405.477 251.758 404.001C254.972 401.448 257.215 397.666 258.184 393.655C258.645 391.761 258.31 389.422 259.602 387.87C259.982 387.412 260.804 387.457 261.191 387.87C262.245 388.991 262.145 390.365 261.974 391.799C261.4 396.678 259.25 401.461 255.788 404.972C255.625 406.774 255.086 408.381 254.729 410.094C254.866 410.478 255.004 410.862 255.135 411.249C257.48 409.226 259.441 406.78 260.96 404.086C267.741 392.2 265.373 378.513 263.618 365.55C263.266 366.418 262.463 366.764 261.682 366.679C261.234 367.799 260.061 367.085 260.014 365.636C259.724 356.604 258.522 343.763 256.31 330.61C254.992 322.773 253.396 314.827 251.823 307.522ZM166.2 348.533C162.837 358.951 149.582 360.983 141.84 367.337C145.729 377.577 156.613 388.543 153.411 401.751L153.393 401.851C153.297 402.357 152.981 403.784 153.321 404.052C153.537 404.223 154.867 402.927 155.1 402.671C159.757 397.139 157.047 389.316 159.666 383.008C160.011 382.169 161.084 381.674 161.811 382.444C165.086 385.908 165.878 390.578 166.38 395.14L166.397 395.297C166.8 398.846 166.579 402.502 167.632 405.953L167.671 406.075C167.895 406.742 168.314 407.682 168.781 407.852C170.071 408.319 169.586 406.257 169.631 405.441C169.767 403.085 170.769 400.879 171.12 398.559C171.871 393.582 171.123 388.36 169.467 383.641C168.943 382.143 171.009 381.613 171.807 382.658C175.12 387 177.775 391.825 179.525 397.004C180.23 399.092 180.606 401.206 181.076 403.334C184.009 394.445 183.925 385.101 177.281 377.813C175.709 375.929 178.328 373.213 180.021 375.08C181.777 377.169 183.497 379.281 185.405 381.236C187.288 383.129 189.102 385.461 191.43 386.812C191.052 378.304 181.907 374.46 177.029 368.634C172.056 362.767 169.337 355.449 166.2 348.533ZM122.246 276.681C120.465 282.087 118.379 287.397 116.769 292.859C116.435 296.556 117.575 298.09 120.296 300.437C121.473 293.731 121.961 286.929 122.59 280.151C122.494 278.992 122.475 277.823 122.246 276.681ZM123.124 274.024L122.946 274.572L123.005 274.676L123.062 274.783L123.124 274.024ZM231.672 206.376L232.352 210.852C234.85 227.262 237.428 243.669 240.974 259.891C241.169 260.785 242.322 259.585 242.11 257.854C239.929 240.055 231.702 206.166 231.67 206.36L231.672 206.376ZM210.679 170.389C210.839 170.579 210.988 170.778 211.133 170.979C211.102 170.799 211.071 170.616 211.038 170.434C210.917 170.42 210.798 170.406 210.679 170.389Z" fill="black"/>
<path fill-rule="evenodd" clip-rule="evenodd" d="M227.037 106.667C226.139 91.9242 221.356 75.21 207.278 67.9717C176.242 55.5149 135.436 86.8846 133.276 118.931C132.523 129.901 138.613 141.888 149.742 144.938C152.217 148.216 155.959 150.218 159.652 151.956C203.644 174.782 232.06 156.227 227.037 106.667Z" fill="#D08B5B"/>
<path fill-rule="evenodd" clip-rule="evenodd" d="M237.06 97.4961C235.505 93.1777 233.863 88.8926 232.135 84.6406C230.452 80.5024 228.933 76.2748 226.843 72.3327C214.363 48.7881 191.669 48.7881 179.938 51.8645C173.855 49.2432 162.46 49.9826 156.126 52.348C145.871 56.1774 133.37 71.2413 129.096 78.0093C119.659 92.9526 113.77 112.842 120.038 130.109C120.858 132.366 121.902 134.456 123.079 136.471C122.338 137.475 121.485 138.427 120.54 139.361C117.732 142.14 114.924 144.826 112.499 147.96C110.088 151.074 108.09 154.385 106.602 158.036C103.797 164.922 103.662 172.719 107.371 179.289C110.597 185.006 116.313 189.263 122.752 189.669C123.082 189.715 123.413 189.757 123.746 189.79C124.599 191.196 125.64 192.49 126.827 193.618C130.465 197.078 139.136 198.853 144.082 198.967C144.336 199.171 144.591 199.375 144.847 199.576C147.874 201.958 151.049 204.362 154.524 206.056C156.877 207.206 159.963 208.166 162.418 207.336C163.532 208.08 165.359 207.924 166.463 207.315C168.278 206.314 169.755 204.513 170.653 202.669C172.831 198.192 172.307 193.293 171.748 188.51C171.132 183.227 170.539 177.942 169.937 172.659C169.466 168.528 168.973 164.328 167.717 160.349C167.067 158.287 166.217 156.305 165.117 154.442C165.145 154.286 165.141 154.13 165.096 153.983C164.736 152.812 163.991 152.198 163.11 151.402C162.996 151.3 162.882 151.195 162.771 151.089C162.33 150.586 161.858 150.119 161.354 149.724C161.159 149.527 160.967 149.328 160.775 149.129C159.18 147.458 157.673 145.702 156.334 143.82C155.036 141.995 153.862 140.089 152.746 138.148C151.611 136.174 150.86 133.996 149.727 132.036C149.63 131.867 149.383 131.834 149.246 131.974C148.895 132.337 148.67 132.739 148.713 133.164L148.537 133.19C148.471 132.55 147.881 132.028 147.08 132.168C145.881 132.377 144.895 132.455 143.857 132.057C144.039 130.846 144.208 129.632 144.373 128.416C144.677 126.179 144.959 123.935 145.201 121.69C145.786 121.83 146.367 122.031 146.935 122.287C147.746 122.65 148.511 123.138 149.165 123.738C149.81 124.33 150.256 125.129 151.042 125.541C151.948 126.013 153.04 125.233 152.775 124.209C152.237 122.14 149.191 120.955 147.307 120.564C146.66 120.429 145.999 120.372 145.338 120.386C145.487 118.945 145.62 117.504 145.729 116.061C145.781 115.378 145.829 114.696 145.874 114.011C147.338 113.568 148.907 113.435 150.431 113.644C150.933 114.044 151.436 114.44 151.922 114.84C153.464 116.116 155 117.398 156.517 118.704C156.654 118.82 156.789 118.936 156.927 119.054C157.827 119.83 158.951 119.062 158.799 117.964C157.562 108.972 163.069 101.819 169.518 96.2778C176.656 90.1416 189.634 89.4271 198.122 78.7983C202.032 79.5941 210.761 81.9577 214.363 87.6981C219.406 95.7422 218.748 102.95 219.131 112.075C219.515 121.207 220.492 130.732 218.418 139.736C216.506 148.038 211.327 155.132 203.294 158.393C203.094 158.474 202.893 158.552 202.692 158.628C198.537 160.195 194.004 160.638 189.634 159.813C184.797 158.898 180.758 156.685 176.734 153.961C176.502 153.807 176.163 154.125 176.338 154.357C181.642 161.387 192.06 163.736 200.324 161.88C200.71 161.792 201.094 161.697 201.476 161.593C199.627 166.909 199.999 172.744 202.407 177.921C203.855 181.035 206.064 183.73 208.754 185.856C211.718 188.197 215.397 190.089 217.454 193.376C219.338 196.389 218.778 199.773 215.553 201.513C214.74 201.953 214.427 203.378 215.233 204.004C215.541 204.241 215.849 204.482 216.164 204.719C217.97 206.082 222.93 208.642 223.734 208.737C230.867 209.583 235.664 204.345 238.738 198.166C242.347 190.914 241.408 182.075 237.432 175.169C234.242 169.628 227.959 164.167 230.457 157.154C231.348 154.649 233.171 152.513 234.941 150.584C236.96 148.387 239.131 146.33 241.067 144.054C242.991 141.796 244.698 139.338 245.65 136.503C247.042 132.36 246.35 127.881 245.304 123.745C243.065 114.867 240.157 106.107 237.06 97.4961Z" fill="black"/>
<path fill-rule="evenodd" clip-rule="evenodd" d="M184.727 140.015C186.627 136.223 204.056 137.927 204.056 137.927L205.529 149.981C205.529 149.981 197.119 152.679 192.113 152.114C187.107 151.549 182.827 143.807 184.727 140.015Z" fill="white"/>
<path fill-rule="evenodd" clip-rule="evenodd" d="M185.955 146.347C185.353 145.061 197.813 141.556 201.671 143.951C205.529 146.347 204.323 149.614 204.323 149.614C204.323 149.614 188.097 153.308 185.955 146.347Z" fill="#FF8181"/>
<path fill-rule="evenodd" clip-rule="evenodd" d="M183.646 137.771C186.554 134.399 191.453 134.164 195.51 135.007C198.114 135.548 200.649 136.45 203.294 136.784C204.529 136.94 205.778 136.987 207.022 136.964C208.244 136.942 209.468 136.696 210.686 136.741C210.873 136.748 210.944 136.994 210.781 137.093C209.111 138.118 206.86 138.446 204.886 138.646C204.893 138.792 204.901 138.934 204.922 139.055C204.976 139.377 205.025 139.696 205.064 140.02C205.154 140.75 205.254 141.478 205.354 142.207C205.551 143.641 205.613 145.121 205.96 146.53L206.02 146.764C206.101 147.061 206.119 147.328 206.092 147.569L206.172 147.532L206.426 147.41L206.592 147.331C207.199 147.051 207.777 146.846 208.49 146.915C209.033 146.966 209.489 147.336 209.492 147.914C209.506 150.511 206 151.346 203.994 151.843L203.406 151.987C200.853 152.609 198.246 153.154 195.621 153.284C191.407 153.493 186.672 152.333 183.916 148.922C181.344 145.74 180.873 140.987 183.646 137.771ZM202.781 148.68C202.339 144.771 197.525 144.556 196.14 147.035C195.526 143.58 186.436 146.737 187.146 147.424C189.841 150.027 193.929 150.262 197.444 149.78C199.233 149.535 201.025 149.135 202.781 148.68ZM197.439 138.435L196.229 138.261L195.752 138.195C192.752 137.794 189.378 137.587 186.911 139.507C186.011 140.207 185.504 141.121 185.315 142.103C187.649 141.758 189.991 141.494 192.341 141.275L192.982 141.216C194.452 141.084 195.921 140.945 197.39 140.798L198.434 140.693L199.477 140.585C199.844 140.547 202.318 140.42 202.784 140.505C202.833 140.088 202.898 139.185 203.003 138.779C201.245 138.839 199.495 138.708 197.747 138.477L197.439 138.435ZM203.01 120.962C204.803 122.05 207.536 124.587 205.606 127.284C203.335 129.662 200.066 126.935 198.455 125.702C196.961 124.746 195.282 127.204 196.668 128.32C208.311 136.922 213.036 121.246 203.917 119.683C202.913 119.511 202.54 120.625 203.01 120.962ZM206.219 125.545L206.305 125.498L206.334 125.481C206.385 125.448 206.352 125.452 206.238 125.491L206.152 125.522V125.583C206.174 125.569 206.197 125.559 206.219 125.545ZM183.251 115.88L183.251 115.826C183.254 114.315 184.136 110.864 186.316 110.864C187.678 110.864 188.505 113.213 188.648 115.634L188.653 115.732C188.716 117.237 188.302 120.527 186.316 120.527C184.309 120.527 183.271 117.411 183.251 115.88ZM215.349 115.406L215.349 115.352C215.346 113.841 214.464 110.39 212.284 110.39C210.956 110.39 210.136 112.623 209.964 114.978L209.952 115.16C209.866 116.614 210.253 120.053 212.284 120.053C214.291 120.053 215.328 116.937 215.349 115.406ZM184.495 100.56C186.274 100.29 188.63 100.803 189.46 102.608C189.829 103.412 189.392 104.302 188.46 104.347C186.208 104.454 184.189 103.954 182.213 105.415C181.362 106.044 180.647 106.915 180.047 107.784L179.82 108.114L179.632 108.386C179.224 108.984 178.838 109.634 178.899 110.355C178.916 110.569 178.698 110.771 178.49 110.763C177.195 110.71 177.055 109.089 177.225 108.116C177.542 106.309 178.418 104.613 179.633 103.248C180.908 101.813 182.592 100.849 184.495 100.56ZM209.001 102.752C210.228 101.965 211.798 101.663 213.235 101.778C216.069 102.006 220.823 104.41 220.197 107.865C220.004 108.93 218.519 109.492 217.644 108.901C216.704 108.266 216.475 107.278 215.775 106.448C215.216 105.784 214.508 105.304 213.75 104.896C213.003 104.492 212.139 104.248 211.291 104.159L211.149 104.145C210.639 104.102 208.062 104.114 208.44 105.074C208.514 105.262 208.234 105.411 208.105 105.268C207.315 104.396 208.21 103.26 209.001 102.752Z" fill="black"/>
</svg>
