<svg width="391" height="780" viewBox="0 0 391 780" fill="none" xmlns="http://www.w3.org/2000/svg">
<path fill-rule="evenodd" clip-rule="evenodd" d="M124.919 275.77L124.583 279.772L124.332 279.303C124.296 287.375 123.098 295.535 121.777 303.589C118.323 300.753 115.483 298.254 116.304 293.414C118.381 286.516 121.045 279.788 123.198 272.927L123.559 274.726L124.981 275.012L124.919 275.77ZM371.602 700.999C370.966 698.194 370.272 695.224 369.622 692.412C369.558 692.175 368.962 692.121 368.77 692.057C365.332 683.653 362.323 681.737 355.664 680.594C344.925 678.655 334.328 674.451 324.184 668.22C324.421 667.293 325.068 665.692 325.657 663.983C325.58 664.009 325.502 664.032 325.423 664.047C325.287 664.074 325.159 664.08 325.036 664.071C324.348 665.684 323.6 667.1 323.204 667.622C321.937 666.807 320.527 665.91 319.285 665.043L319.29 665.027C318.185 664.263 316.819 663.318 315.737 662.729C315.535 661.612 313.893 661.265 313.036 660.527C311.372 659.34 310.449 658.728 308.922 660.243C305.629 655.974 302.977 651.46 300.37 645.625C298.739 642.214 297.937 638.437 295.743 635.392C295.785 635.368 297.18 634.935 297.214 634.895C272.285 579.767 268.291 518.425 262.973 459.498C261.8 446.32 260.573 433.021 258.287 420.23C257.973 418.293 257.691 416.385 256.523 414.841C270.533 403.318 270.669 380.983 263.884 364.418C279.486 322.405 248.903 277.784 251.16 234.907C252.425 205.822 247.18 172.123 214.268 165.145C210.186 162.8 205.293 162.45 201.399 162.387C197.893 160.618 197.34 156.715 196.092 153.506L194.872 153.513C194.514 152.061 194.16 150.468 193.852 149.005C193.389 148.077 193.663 146.868 192.205 147.125C188.9 142.349 162.451 139.948 162.151 147.638C161.196 148.2 161.008 149.297 160.785 150.629C159.319 160.074 149.214 167.607 140.109 166.088L139.962 165.955C101.201 164.521 85.9417 192.046 78.3674 229.559C72.4494 258.706 68.6878 290.294 73.3222 319.489C77.8499 332.72 91.5642 339.086 102.174 347.237C100.951 350.313 100.837 353.707 100.8 357.037C100.66 360.879 100.38 364.754 100.039 368.545C99.3415 373.351 98.212 381.622 104.765 382.183C107.303 439.614 112.606 496.894 104.504 554.493C97.7777 586.346 100.353 624.889 108.669 656.055C109.148 657.595 110.381 658.981 111.955 658.488C112.754 659.004 113.379 659.328 114.04 658.841C114.429 659.561 114.856 660.252 115.317 660.923C115.492 669.486 116.464 677.887 116.022 686.505C115.361 686.429 113.909 685.703 113.345 686.178L113.264 686.834L112.727 687.018C111.602 690.184 110.897 693.509 110.375 696.19C108.099 700.787 105.192 708.922 106.813 714.043C106.735 714.134 106.298 714.64 106.23 714.717C105.842 714.939 105.771 715.234 105.676 715.574C104.572 715.988 104.459 717.247 104.345 718.536C103.792 721.657 104.614 724.494 104.896 727.547L104.913 727.527C104.913 727.527 105.84 728.6 105.841 728.601C117.494 729.309 128.968 729.49 140.569 729.907C141.444 728.233 141.708 725.971 142.365 724.132C156.118 734.176 179.947 730.333 197.222 727.867C204.237 726.857 210.865 725.903 216.741 725.585C217.123 725.533 217.151 725.368 217.161 725.216C217.218 722.918 217.652 720.561 217.436 718.33C218.649 717.153 218.096 715.009 217.262 713.126C214.196 706.497 205.861 705.771 199.109 704.64C186.406 702.179 176.191 697.55 167.928 690.474C168.483 689.972 168.988 689.479 169.448 688.997C169.268 688.877 169.089 688.758 168.91 688.637C168.475 688.447 168.059 688.252 167.678 688.006C167.483 688.115 167.24 688.137 167 688.002C166.169 687.537 165.492 686.853 164.703 686.329C164.547 686.553 164.39 686.782 164.231 687.021C163.475 686.225 162.618 685.324 161.87 684.489C161.843 684.259 161.904 683.683 161.622 683.621C159.495 683.835 157.031 684.551 154.805 685.346C152.29 677.095 150.833 668.165 151.001 659.732C153.474 659.732 155.641 659.709 157.486 658.535C157.99 658.67 158.692 658.962 158.823 658.171C159.571 654.941 159.766 651.522 159.954 648.216C163.783 585.668 169.617 535.408 188.966 482.423C190.824 489.78 193.944 497.432 196.782 504.755C209.698 535.362 219.003 568.37 226.979 600.496C230.117 612.521 233.529 625.734 236.898 637.634C238.204 643.355 240.861 645.449 246.427 645.403C250.716 645.604 255.019 645.542 259.326 645.24C265.197 650.583 267.604 657.795 269.319 664.289C267.89 665.35 265.622 664.95 263.952 665.3C262.511 667.618 263.009 670.859 263.043 673.718C263.269 677.433 263.077 681.419 264.16 684.926C264.354 688.763 264.378 692.965 264.667 697.426C261.484 699.268 262.067 703.339 263.124 707.234C263.596 708.224 280.703 708.028 284.946 707.987C289.932 707.697 297.043 708.969 298.678 703.511C310.55 710.094 328.61 707.87 342.441 705.933C352.478 704.712 361.572 703.576 371.429 701.505C371.53 701.46 371.674 701.143 371.602 700.999Z" fill="#D08B5B"/>
<path d="M107.511 376.046C110.525 375.725 141.197 378.105 144.26 377.393L144.396 377.361L145.588 377.076L146.281 378.086C149.701 383.076 151.425 386.353 152.286 389.68L152.346 389.917L152.37 390.017C153.095 393.015 153.152 395.79 152.759 401.421L152.718 401.994L152.672 402.616L152.562 404.07L152.565 404.08C152.756 404.69 153.347 404.871 154.083 404.459L154.134 404.429L154.157 404.415L154.237 404.36C155.813 403.254 156.873 401.796 157.579 399.879L157.628 399.745L157.676 399.609C158.242 397.963 158.536 396.194 158.786 393.358L158.83 392.839L158.97 391.099C159.168 388.664 159.316 387.369 159.594 385.988L159.631 385.807L160.424 382.109L162.765 384.856C163.939 386.233 164.657 388.11 165.103 390.569L165.155 390.865C165.397 392.278 165.537 393.693 165.682 395.963L165.723 396.619L165.849 398.768L165.899 399.552C166.093 402.461 166.286 403.975 166.673 405.402L166.714 405.55L166.744 405.653C167.249 407.385 167.933 408.268 168.931 408.546L168.991 408.562L169.014 408.568L169.054 408.565C170.189 408.49 170.475 407.941 170.395 406.109L170.386 405.931L170.381 405.841L170.368 405.638L170.34 405.265L170.359 405.037C170.435 404.173 170.589 403.451 170.926 402.228L170.963 402.095L171.293 400.916L171.368 400.635C172.186 397.459 172.356 393.95 171.903 390.377L171.872 390.138L170.694 381.388L175.173 389.002C178.14 394.046 179.895 399.798 180.362 405.798L180.382 406.067L180.397 406.289C180.624 406.692 181.062 406.785 181.43 406.511L181.468 406.481L181.503 406.451C182.462 405.579 183.054 404.006 183.605 401.228L183.633 401.083L183.849 399.955L183.948 399.445L184.007 399.191C185.058 394.646 185.277 391.035 184.486 387.764L184.447 387.606L183.016 381.942L187.366 385.851C188.061 386.475 188.768 387.078 189.484 387.656C190.851 388.751 191.938 388.878 192.571 388.397C193.249 387.883 193.553 386.626 193.117 384.958L193.092 384.863L192.311 382.029L195.188 382.655C204.864 384.757 213.745 385.784 222.013 385.551C231.527 385.283 239.99 383.337 247.331 379.481L247.567 379.356L249.668 378.236L250.15 380.564C250.852 383.952 250.676 387.434 249.762 391.241L249.697 391.509C249.061 394.086 248.228 396.433 246.685 400.236L246.523 400.634L245.792 402.419L245.247 403.76L244.992 404.4C244.214 406.378 243.965 407.842 244.135 408.722C244.226 409.19 244.375 409.344 244.732 409.423C246.048 409.715 248.662 408.639 251.052 406.604L251.154 406.516L253.606 404.368L254.412 408.14L254.221 408.634C253.765 409.811 253.606 410.935 253.794 411.828L253.814 411.917L253.999 412.686L253.551 413.338C253.516 413.389 253.519 413.451 253.609 413.59C253.724 413.765 253.902 413.874 254.034 413.885L254.064 413.886L255.6 413.836L255.875 415.345L256.026 416.186C257.178 422.651 261.394 467.283 261.394 467.283C262.317 478.951 273.266 557.121 275.324 567.098C279.97 591.141 285.523 612.005 292.736 631.337L292.955 631.922L293.545 633.494L292.006 634.172C277.894 640.39 261.676 643.216 245.289 642.534L244.83 642.514L244.651 642.513C241.032 642.457 239.218 640.928 238.305 637.442L238.25 637.225L238.225 637.119L238.193 636.984L237.593 634.95C235.683 628.45 213.978 548.4 210.445 537.29L210.214 536.565L209.787 535.235L209.413 534.079C204.479 518.907 199.288 505.534 193.359 493.102L193.155 492.676L193.115 492.603C192.449 491.388 191.917 490.122 191.318 488.412L191.253 488.227L191.127 487.859L191.032 487.579L190.46 485.86L190.262 485.272L190.181 485.004C189.48 482.661 189.098 480.416 189.071 478.221L189.07 477.994L189.07 477.963L188.96 478.211C186.632 483.465 183.994 490.405 181.282 498.655L181.174 498.985L180.827 500.048C173.434 522.918 168.146 547.408 164.303 575.021L164.095 576.528C161.228 597.489 159.336 618.323 157.29 648.628L157.1 651.467L156.877 654.843L155.5 655.085C153.925 655.362 152.564 655.734 151.356 656.24L151.192 656.31L150.91 656.432L150.603 656.453L146.579 656.741C146.248 656.764 145.943 656.784 145.651 656.803L144.791 656.855C132.876 657.631 122.954 657.054 113.763 654.647L113.482 654.572L113.13 654.486L109.792 653.653L100.22 599.162L106.153 548.084L106.367 546.55C109.884 520.843 105.772 404.895 105.49 397.233L105.431 395.602L105.377 394.027L105.302 392.872L105.041 388.357L104.998 387.688C104.747 383.824 104.445 381.202 103.894 378.614L103.465 376.633L105.322 376.337C106.043 376.221 106.772 376.124 107.511 376.046Z" fill="#E86BBB"/>
<path fill-rule="evenodd" clip-rule="evenodd" d="M214.928 716.482C217.01 718.88 216.353 724.066 216.353 724.066C216.223 724.116 182.849 729.978 160.305 729.754C151.111 729.663 144.691 723.355 141.544 723.355C140.594 723.355 141.084 729.393 137.506 728.806L104.701 727.359L104.02 716.482L107.345 712.926C107.345 712.926 131.228 717.672 143.444 716.482C157.903 715.073 211.84 712.926 214.928 716.482ZM367.633 692.307C370.036 694.297 370.596 699.548 370.596 699.548C370.596 699.548 343.455 705.768 334.332 705.956L332.568 705.989L330.537 706.019C327.916 706.052 310.636 708.423 299.474 703.209C297.401 702.241 293.688 706.677 290.406 706.69C279.11 706.734 262.9 706.053 262.9 706.053C262.857 705.302 262.235 701.593 262.176 700.435C262.176 700.435 264.246 696.245 264.325 693.966C264.432 690.899 284.315 694.239 306.361 693.966C333.982 693.624 365.212 690.3 367.633 692.307Z" fill="white"/>
<path fill-rule="evenodd" clip-rule="evenodd" d="M161.554 145.572C162.321 145.418 162.982 145.646 163.447 146.065C163.547 147.101 163.535 148.134 163.45 149.168C163.364 149.241 163.269 149.312 163.165 149.379L163.244 149.328C163.316 149.281 163.365 149.247 163.397 149.222C162.386 155.957 157.702 161.686 151.63 164.732C151.254 165.351 150.404 165.309 149.794 165.588L148.936 165.857C146.574 166.596 144.184 167.295 141.686 167.342C148.038 185.153 172.878 194.83 190.449 196.145C205.625 196.943 214.046 184.38 210.043 170.288C201.251 169.152 192.609 159.816 195.795 150.794L195.895 150.521C195.917 150.429 196.04 150.462 196.05 150.542C196.147 151.462 196.696 152.474 196.94 153.372L197.053 153.691C197.898 156.124 198.648 159.024 201.037 160.319L201.446 160.328C205.742 160.44 210.228 161.007 214.011 163.13C218.229 163.957 222.261 165.626 226.015 167.693C255.659 183.759 250.915 217.932 251.838 246.391C254.715 285.388 278.515 324.359 264.478 363.51C270.887 379.814 271.383 401.728 257.393 414.166C257.547 414.407 257.677 414.671 257.785 414.942C258.451 416.601 258.657 418.502 258.971 420.263L259.008 420.466C259.765 424.561 260.309 428.698 260.841 432.828C261.89 440.973 262.653 449.156 263.379 457.336L263.482 458.505C265.301 479.068 266.889 499.677 269.274 520.188L269.719 523.228C272.947 545.187 276.463 567.197 281.759 588.714C281.915 589.291 282.07 589.868 282.23 590.444C284.138 597.347 286.384 604.133 288.496 610.972C289.164 613.137 289.905 615.27 290.685 617.384L291.655 619.789C291.817 620.189 291.98 620.59 292.143 620.99C293.864 625.216 295.697 629.395 297.628 633.531C297.976 634.277 297.469 634.964 296.871 635.155C298.634 637.946 299.298 641.269 300.771 644.232C302.876 648.955 305.371 653.551 308.484 657.694C310.206 656.401 312.13 658.07 313.562 659.024C314.481 659.595 315.673 660.024 316.034 661.031C316.728 661.429 317.402 661.868 318.041 662.306L318.105 662.099C318.881 659.62 320.399 656.293 322.866 655.186C325.751 653.976 328.052 656.389 327.189 659.277C326.66 661.857 325.833 664.328 324.952 666.817C333.826 672.165 343.53 676.222 353.739 678.257L354.087 678.326C356.55 678.814 359.053 679.153 361.311 680.321C365.053 682.371 367.469 686.268 368.98 690.164C369.505 690.292 369.987 690.75 370.103 691.252L371.099 695.55C371.431 696.982 371.761 698.415 372.086 699.849C372.264 700.626 371.849 701.605 370.989 701.778C365.064 702.961 359.11 703.996 353.13 704.872C336.154 706.441 314.313 711.956 298.55 704.212C296.035 709.374 289.032 707.897 284.279 708.287C281.393 708.073 261.131 709.173 261.324 706.729L261.212 706.308C260.316 702.894 259.508 698.306 262.772 695.955C262.568 692.101 262.415 688.245 262.352 684.388C261.215 680.728 261.412 676.681 261.181 672.86C261.211 670.013 260.546 666.725 262.105 664.179C262.242 662.491 266 663.391 267.244 662.773L267.134 662.372C265.418 656.161 263.032 650.117 258.213 645.568C254.046 645.845 249.867 645.893 245.697 645.699C239.346 645.724 236.45 642.977 235.067 637.013C234.076 633.514 233.11 630.009 232.158 626.499C224.728 598.883 217.981 571.025 209.77 543.623C206.631 534.44 203.159 525.369 199.658 516.321C197.285 510.188 194.908 504.057 192.534 497.925C191.314 494.775 190.112 491.607 189.051 488.4C188.725 487.414 188.429 486.422 188.15 485.427C169.732 536.513 163.89 590.787 160.631 644.682C160.334 648.986 160.281 653.338 159.305 657.549C159.006 658.846 157.909 659.204 156.94 658.919C155.156 659.863 153.836 659.974 151.539 660.01L151.556 660.749C151.687 666.045 152.012 671.326 153.216 676.498C153.693 678.658 154.548 680.757 155.012 682.907C156.883 682.272 158.795 681.793 160.761 681.559C161.754 681.44 162.321 682.27 162.362 683.121C162.728 683.523 163.096 683.921 163.471 684.317L163.66 684.074C165.426 681.797 167.69 678.677 170.759 678.421C172.156 678.335 173.431 679.122 173.735 680.54C174.027 683.796 171.323 687.364 169.042 689.524C177.494 696.502 187.968 700.533 198.659 702.589L199.077 702.658C205.936 703.777 214.396 704.661 217.666 711.742L217.735 711.894C218.502 713.619 219.227 716.235 217.977 717.816C218.125 719.976 217.725 722.199 217.673 724.379C217.618 725.266 217.02 725.78 216.172 725.878C194.348 727.047 161.083 737.241 142.391 725.112C142.007 726.455 141.61 727.797 141.242 729.145C141.08 729.74 140.48 730.226 139.85 730.203C128.28 729.788 116.671 729.6 105.115 728.897C104.779 728.903 104.498 728.753 104.264 728.482C103.992 728.814 103.3 728.723 103.207 728.252C103.044 727.423 103.043 726.583 102.968 725.744C102.882 724.772 102.622 723.876 102.469 722.926C102.188 721.172 102.315 719.29 102.489 717.53L102.533 717.085C102.655 715.922 102.873 714.6 103.926 713.941L103.996 713.899C104 713.897 104.004 713.895 104.007 713.893C104.124 713.522 104.4 713.202 104.75 712.948L104.771 712.924C104.22 711.613 104.432 709.954 104.593 708.587C105.036 703.833 106.37 699.128 108.568 694.907C109.194 691.697 109.954 688.375 111.083 685.32C111.052 685.18 111.228 685.061 111.363 685.123C111.41 685.098 111.456 685.08 111.502 685.065C111.508 685.018 111.517 684.971 111.532 684.927C111.727 684.352 112.329 684.038 112.894 683.949C113.372 683.873 113.786 684 114.215 684.108C114.524 675.811 113.542 667.526 113.441 659.232C112.651 659.615 111.764 659.275 111.036 658.837C108.922 659.161 107.423 657.362 106.844 655.471L106.504 653.937C103.457 640.133 100.711 626.207 99.235 612.136C97.1945 592.494 99.6594 572.835 102.654 553.424C110.782 502.311 104.894 450.645 104.315 399.251C103.83 393.64 103.63 387.967 103.013 382.359C100.721 382.087 98.988 379.946 98.2136 377.894C97 374.643 97.8763 370.89 98.1827 367.549C98.5223 363.844 98.7717 360.133 98.9334 356.419L98.9523 355.334C99.0076 352.438 99.1336 349.522 100.097 346.765C89.8242 338.873 76.2016 332.674 71.8546 319.481C69.8768 317.703 70.2751 309.463 69.9523 306.44C68.6328 280.294 70.8686 253.974 76.5336 228.415C83.6236 193.585 98.1483 162.373 138.86 163.865C138.829 163.841 138.796 163.815 138.765 163.789C139.195 163.647 139.639 163.786 139.955 164.071C146.887 164.959 153.512 160.872 156.976 154.998C157.826 153.533 158.457 152.005 158.795 150.343L158.821 150.21C159.174 148.383 159.273 146.03 161.554 145.572ZM108.959 714.384C107.976 714.928 106.899 714.993 105.993 715.716C105.357 719.191 105.409 722.796 106.174 726.244C117.027 726.36 127.894 726.908 138.743 727.28C139.18 725.604 139.593 723.919 140.049 722.248L140.06 722.214L140.084 722.148C141.21 722.186 142.336 722.218 143.462 722.246C160.123 734.164 194.642 724.036 214.754 723.042L214.96 719.703C214.757 719.844 214.555 719.923 214.362 719.95C214.549 719.463 214.216 718.828 213.553 719.013C212.483 719.312 211.407 719.587 210.328 719.845C210.246 719.813 210.153 719.798 210.049 719.807C200.608 720.611 191.128 720.536 181.66 720.564C172.226 720.593 162.801 720.989 153.366 720.963C149.517 720.952 145.669 720.895 141.822 720.781C130.742 718.727 119.741 716.303 108.959 714.384ZM367.584 694.023C367.117 694.36 366.507 694.389 365.859 694.477L365.766 694.49C365.173 694.577 364.579 694.658 363.982 694.703C362.507 695.654 359.57 695.525 358.149 695.796C326.937 698.909 295.509 695.215 264.267 697.715C262.775 699.839 263.139 702.467 263.932 704.84C272.656 705.167 281.389 705.344 290.117 704.968L290.815 704.942C291.893 704.9 292.999 704.822 293.995 704.415C294.886 704.053 295.98 703.153 295.84 702.076L295.831 702.015C295.618 700.778 296.919 699.329 298.185 700.209C310.123 708.113 326.343 704.139 339.793 703.361C349.485 702.337 359.125 700.879 368.691 699.033C368.32 697.364 367.952 695.693 367.584 694.023ZM149.559 659.01C148.558 659.124 147.556 659.227 146.552 659.317C142.527 659.68 138.488 659.862 134.448 659.978L132.563 660.029C128.799 660.131 125.011 660.22 121.254 660.016C119.354 659.913 117.406 659.689 115.569 659.174C117.185 667.635 118.016 676.25 117.99 684.86C118.495 685.296 118.393 686.016 118.258 686.567L118.385 686.941C118.679 687.817 118.961 688.707 119.073 689.603C130.735 696.525 140.418 689.435 151.051 684.472C149.298 679.923 148.765 674.935 148.472 670.104C148.308 666.347 148.59 662.68 149.559 659.01ZM170.758 681.353C170.272 681.408 169.821 681.712 169.428 681.98C167.806 683.139 166.405 684.511 165.125 685.995C165.616 686.479 166.117 686.955 166.628 687.422C168.544 685.881 170.048 683.735 170.758 681.353ZM294.712 637.363L293.133 637.894C283.386 641.159 273.436 644.223 263.081 645.138C263.637 645.687 264.105 646.339 264.516 647.031C264.874 647.335 265.235 647.723 265.133 648.183C265.466 648.854 265.76 649.534 266.04 650.176C267.678 654.064 269.569 657.889 270.949 661.891C271.35 663.562 272.925 665.898 272.191 667.516C283.199 672.3 296.893 670.169 305.302 661.417L305.006 660.981C300.173 653.837 295.926 645.988 294.712 637.363ZM324.57 657.559C323.902 656.986 322.732 658.569 322.435 658.962C321.337 660.42 320.582 662.015 320.022 663.684C320.727 664.166 321.437 664.619 322.154 665.082L322.194 665.016C322.861 663.866 325.262 658.289 324.57 657.559ZM115.225 657.436L115.237 657.495C115.828 657.587 116.42 657.669 117.014 657.736C118.459 657.9 119.922 657.972 121.38 658.003C119.328 657.707 117.275 657.467 115.225 657.436ZM130.87 379.299L130.384 379.25L129.76 379.174C121.749 378.18 113.676 376.853 105.609 378.143C106.726 383.301 106.801 388.706 107.162 393.99C108.884 444.884 115.084 496.068 108.137 546.842L107.922 548.381C105.39 566.439 102.378 584.559 103.59 602.857C104.536 619.536 107.937 635.931 111.316 652.253C112.128 652.456 112.94 652.66 113.755 652.859C113.779 652.633 113.92 652.763 113.947 652.907C123.954 655.573 134.399 655.802 144.681 655.132C146.62 655.021 148.55 654.864 150.487 654.732C151.981 654.083 153.577 653.67 155.197 653.386C158.612 601.593 163.085 549.21 179.138 499.554C189.357 468.009 202.122 437.291 209.675 404.937C209.936 404.03 211.313 404.411 211.09 405.328L210.854 406.569C208.936 416.701 207.208 426.866 204.222 436.77C206.489 434.305 209.074 432.13 211.214 429.551C211.881 428.738 212.494 427.882 213.021 426.97C213.521 425.839 214.324 424.954 215.567 424.69C216.137 424.46 216.666 424.943 216.854 425.42C217.377 426.735 217.156 427.672 216.395 428.831L216.205 429.116C212.847 434.07 207.472 436.963 203.037 440.851C199.324 453.222 195.05 465.417 190.861 477.631C190.808 480.061 191.25 482.459 191.963 484.776C192.774 487.158 193.5 489.682 194.746 491.915C212.069 528.055 220.799 567.434 231.324 605.889C234.095 616.144 236.9 626.395 239.921 636.581L239.965 636.767C240.653 639.638 241.727 640.793 244.88 640.788C260.679 641.514 276.9 638.939 291.293 632.598C283.365 611.483 277.86 589.631 273.58 567.486C271.421 557.018 269.671 546.467 268.197 535.875C266.145 522.352 264.334 508.798 262.5 495.312C258.746 468.88 258.911 441.984 254.128 415.714C252.494 415.768 251.094 413.831 252.088 412.384C251.741 410.945 252.051 409.373 252.565 408.044L252.503 407.756C246.899 412.723 239.586 413.352 243.339 403.802L243.598 403.153C246.417 396.147 250.002 388.661 248.411 380.976C232.156 389.635 212.286 388.238 194.815 384.443C196.176 389.381 192.51 392.409 188.374 389.093C187.628 388.491 186.897 387.868 186.18 387.223C187.231 391.385 186.667 395.746 185.695 399.87L185.603 400.346C185.13 402.82 184.593 406.104 182.708 407.817C181.333 409.064 179.262 408.533 178.644 406.753C178.299 400.865 176.654 395.074 173.643 389.953C174.146 393.696 174.023 397.54 173.099 401.129C172.743 402.501 172.249 403.902 172.132 405.321L172.15 405.554C172.327 408.055 171.994 410.353 168.869 410.403C161.458 409.099 166.133 391.595 161.414 386.059C159.981 392.74 161.651 401.522 155.135 405.957C153.335 407.08 151.138 406.428 150.772 404.248L150.902 402.534C151.679 392.078 151.534 388.944 144.816 379.141C140.261 380.231 135.49 379.764 130.87 379.299ZM262.887 648.031C262.891 648.071 262.894 648.109 262.896 648.149C262.974 648.228 263.051 648.308 263.128 648.389L263.243 648.512L263.11 648.185C263.036 648.138 262.96 648.083 262.887 648.031ZM256.77 414.706L256.465 414.963C256.414 415.006 256.362 415.048 256.31 415.091C256.581 416.297 256.835 417.505 257.08 418.716L257.033 417.919C256.988 417.134 257.113 415.712 256.77 414.706ZM251.823 307.522C249.531 296.875 247.246 292.381 250.149 307.717L250.464 309.374C251.722 316.014 253.046 323.542 254.291 331.646L254.55 333.343C255.849 341.746 257.891 354.046 258.041 363.9C258.213 375.081 252.526 378.399 250.278 379.848C249.857 381.077 250.391 382.103 250.746 383.284C251.223 385.18 251.347 387.003 251.211 388.951C250.739 395.598 247.181 401.602 245.564 407.91C247.636 407.341 249.947 405.478 251.758 404.001C254.972 401.448 257.215 397.667 258.184 393.656C258.645 391.762 258.31 389.423 259.602 387.87C259.982 387.413 260.804 387.458 261.191 387.87C262.245 388.991 262.145 390.366 261.974 391.8C261.4 396.678 259.25 401.461 255.788 404.973C255.625 406.775 255.086 408.381 254.729 410.095C254.866 410.479 255.004 410.863 255.135 411.249C257.48 409.226 259.441 406.781 260.96 404.086C267.741 392.201 265.373 378.513 263.618 365.551C263.266 366.419 262.463 366.764 261.682 366.679C261.234 367.8 260.061 367.085 260.014 365.636C259.724 356.604 258.522 343.764 256.31 330.611C254.992 322.774 253.396 314.828 251.823 307.522ZM166.2 348.533C162.837 358.951 149.582 360.983 141.84 367.338C145.729 377.577 156.613 388.543 153.411 401.751L153.393 401.851C153.297 402.357 152.981 403.785 153.321 404.053C153.537 404.224 154.867 402.927 155.1 402.671C159.757 397.139 157.047 389.316 159.666 383.009C160.011 382.17 161.084 381.674 161.811 382.445C165.086 385.908 165.878 390.578 166.38 395.14L166.397 395.298C166.8 398.846 166.579 402.503 167.632 405.954L167.671 406.076C167.895 406.743 168.314 407.683 168.781 407.852C170.071 408.319 169.586 406.257 169.631 405.442C169.767 403.086 170.769 400.88 171.12 398.559C171.871 393.582 171.123 388.36 169.467 383.642C168.943 382.144 171.009 381.613 171.807 382.658C175.12 387 177.775 391.826 179.525 397.004C180.23 399.092 180.606 401.207 181.076 403.335C184.009 394.446 183.925 385.101 177.281 377.814C175.709 375.929 178.328 373.213 180.021 375.081C181.777 377.17 183.497 379.281 185.405 381.236C187.288 383.13 189.102 385.461 191.43 386.813C191.052 378.304 181.907 374.46 177.029 368.634C172.056 362.767 169.337 355.45 166.2 348.533ZM122.246 276.681C120.465 282.087 118.379 287.397 116.769 292.86C116.435 296.557 117.575 298.09 120.296 300.437C121.473 293.731 121.961 286.93 122.59 280.151C122.494 278.993 122.475 277.824 122.246 276.681ZM123.124 274.025L122.946 274.572L123.005 274.677L123.062 274.783L123.124 274.025ZM231.672 206.377L232.352 210.852C234.85 227.262 237.428 243.67 240.974 259.892C241.169 260.786 242.322 259.586 242.11 257.855C239.929 240.056 231.702 206.167 231.67 206.361L231.672 206.377ZM210.679 170.39C210.839 170.579 210.988 170.778 211.133 170.98C211.102 170.799 211.071 170.617 211.038 170.434C210.917 170.42 210.798 170.406 210.679 170.39Z" fill="black"/>
<path fill-rule="evenodd" clip-rule="evenodd" d="M195.21 77.067C167.935 76.0715 141.873 94.404 133.098 120.316C132.461 122.349 134.445 124.247 136.447 123.904C134.399 134.215 138.875 148.094 150.532 149.557C152.919 149.858 155.32 149.685 157.711 149.904C159.842 150.099 171.444 156.627 175.788 158.156C184.935 161.351 207.951 160.766 217.107 158.156C217.441 158.914 224.552 129.751 226.171 120.709C226.761 116.792 221.366 113.891 221.764 109.854C222.275 104.668 228.34 98.3457 226.482 93.4088C221.584 80.8435 207.369 77.3374 195.21 77.067Z" fill="#D08B5B"/>
<path fill-rule="evenodd" clip-rule="evenodd" d="M181.665 54.2251C182.89 54.327 184.122 54.5001 185.333 54.7276C189.014 54.1256 192.822 54.7939 196.391 55.9529C204.75 58.6667 212.796 63.3784 219.095 69.5289C222.337 72.6953 224.989 76.3429 226.621 80.5854C227.451 82.7374 227.918 85.0341 228.053 87.3354L228.068 87.6143C228.106 88.3779 228.123 89.2934 228.032 90.2004C228.323 92.0313 228.583 93.8771 228.603 95.7289C228.612 96.5866 228.557 97.443 228.452 98.2936L228.488 98.3744C228.337 99.39 228.156 100.401 227.951 101.407L227.899 101.474C227.871 101.679 227.839 101.883 227.808 102.087C227.696 102.604 227.579 103.12 227.455 103.634C227.187 104.747 226.89 105.853 226.57 106.952C226.514 107.145 226.568 107.297 226.673 107.397C226.44 108.233 226.185 109.064 225.903 109.885C226.041 110.604 226.181 111.323 226.33 112.039C227.105 115.765 227.761 119.514 228.643 123.219C230.43 130.737 233.146 138.134 233.892 145.863C234.473 151.857 233.508 158.41 229.783 163.307C226.572 167.525 221.742 170.016 216.526 170.68C214.03 171 211.471 170.853 209.03 170.223L208.764 170.152C207.541 169.823 205.986 169.308 204.849 168.478C203.617 168.044 202.453 167.243 201.752 166.461C200.794 165.392 199.749 163.565 200.01 162.046C198.586 162.162 197.152 162.195 195.742 162.19C192.268 162.183 188.763 161.908 185.421 160.899C182.44 159.998 178.965 158.493 177.202 155.777C177.119 155.649 177.257 155.464 177.401 155.514C178.826 156.014 180.157 156.689 181.627 157.071C183.072 157.445 184.518 157.799 186.009 157.953C188.923 158.253 191.881 158.212 194.805 158.068L195.809 158.016C198.938 157.848 202.172 157.61 205.098 156.438C206.246 155.979 207.309 155.338 208.278 154.576L208.43 154.454C208.949 154.032 209.485 153.677 210.03 153.34C210.108 153.241 210.186 153.141 210.264 153.039C211.504 151.449 212.836 149.916 213.952 148.235C216.17 144.9 217.026 141.435 217.142 137.458C217.263 133.26 217.278 129.057 217.328 124.858L217.346 123.458C217.41 118.656 217.419 113.838 217.789 109.048C217.959 106.823 218.202 104.608 218.574 102.409L218.656 101.938L219.258 98.546C219.403 97.729 219.488 96.8872 219.673 96.0737C219.465 95.7325 219.224 95.404 218.945 95.0911C218.688 94.8027 218.427 94.5228 218.166 94.2447L217.978 94.0789C217.549 93.6956 217.18 93.3298 216.834 92.8026L216.751 92.6722C216.379 92.224 216.029 91.7552 215.719 91.2402L215.662 91.1401C215.585 91.0432 215.508 90.946 215.428 90.8503C215.18 90.5519 214.92 90.2701 214.651 90.0001C213.708 91.8227 212.373 93.4015 210.484 94.3884C209.801 94.7453 208.967 94.4396 208.743 93.6802C208.178 91.7632 207.32 89.9807 206.184 88.3664C204.287 91.5229 201.28 93.9918 197.736 95.1966C196.85 95.4976 196.07 94.5685 196.278 93.7387C196.918 91.1883 197.045 88.5947 196.669 86.0307C195.331 86.9868 193.952 87.8872 192.535 88.7219C189.382 91.1591 186.042 93.3524 182.368 94.9273C181.519 95.2914 180.241 94.6797 180.627 93.5892C180.952 92.671 181.219 91.7375 181.39 90.7788L181.427 90.5571C181.429 90.5505 181.429 90.5438 181.43 90.537C172.921 102.276 152.285 113.589 150.701 113.698L150.658 113.699C151.647 114.643 152.446 115.811 152.968 117.153C153.517 118.562 151.28 119.175 150.701 117.828L150.683 117.783C149.793 115.497 147.592 113.858 145.197 113.471C143.749 113.733 142.381 114.431 141.448 115.49C139.611 117.573 139.595 120.085 140.848 122.456L141.032 122.801C141.711 124.067 142.426 125.336 142.808 126.726C143.275 128.433 142.922 130.163 143.228 131.867L143.244 131.958C143.389 132.715 143.702 133.577 144.604 133.37C144.674 133.354 144.741 133.332 144.809 133.309C144.999 133.461 145.228 133.586 145.513 133.669C146.212 133.873 146.984 133.774 147.679 133.61C148.351 133.451 149.003 133.202 149.631 132.91C149.7 133.082 149.743 133.261 149.747 133.434C149.768 134.316 149.403 135.041 148.842 135.631C149.738 136.764 150.503 138.011 151.366 139.167C152.605 140.826 153.873 142.45 155.222 144.021C156.625 145.659 158.153 147.207 159.739 148.669C160.85 149.693 162.687 150.788 163.383 152.274C164.184 152.523 164.865 153.137 165.113 154.146C165.566 155.976 165.699 160.263 165.343 162.124C164.99 163.968 163.644 165.117 162.156 166.089C161.743 166.359 161.277 166.331 160.897 166.129C160.563 166.454 160.186 166.753 159.755 167.018C158.163 168.002 156.312 168.36 154.477 168.566C152.001 169.357 149.33 169.566 146.69 169.073C145.827 169.175 144.965 169.267 144.1 169.343C135.251 170.114 126.254 169.457 117.623 167.35C113.663 166.383 109.924 164.626 106.44 162.368C100.435 158.477 97.8936 147.556 101.378 137.115L101.654 136.291C103.224 131.627 104.917 126.987 107.186 122.636L107.457 122.118C109.543 118.149 111.838 114.185 114.886 110.873C116.412 109.216 118.185 107.711 120.188 106.659C120.948 106.26 121.835 105.983 122.703 105.669L122.72 105.452L122.739 105.235C122.796 104.54 122.869 103.845 122.963 103.153C123.313 100.563 123.808 98.0108 124.51 95.4912C125.213 92.9682 126.077 90.4877 127.118 88.0834C128.853 84.0723 131.032 80.2673 133.548 76.697C133.727 76.3282 133.91 75.9608 134.096 75.5963C136.217 71.451 138.964 67.4977 142.507 64.4379C146.574 60.9254 151.472 58.7449 156.584 57.2138C161.886 55.6282 167.417 54.5427 172.941 54.1777C175.849 53.9857 178.762 53.9834 181.665 54.2251ZM142.893 120.82C145.554 119.078 149.18 120.273 150.529 123.103C151.503 125.153 148.282 126.307 147.773 124.264C147.265 122.216 145.087 120.749 142.995 121.062C142.85 121.086 142.76 120.906 142.893 120.82Z" fill="black"/>
<path fill-rule="evenodd" clip-rule="evenodd" d="M197.255 143.848C195.659 143.198 194.235 142.114 193.193 140.729C192.831 140.247 192.737 139.739 192.813 139.274C192.899 138.751 193.208 138.277 193.631 137.959C194.055 137.64 194.586 137.483 195.099 137.563C195.544 137.633 195.988 137.876 196.339 138.381L196.412 138.482C197.031 139.318 197.838 140.004 198.757 140.446C199.643 140.872 200.634 141.071 201.66 140.955C203.613 140.735 204.959 139.681 206.39 138.25C206.567 138.069 206.745 137.882 206.923 137.693C207.036 137.521 207.192 137.411 207.365 137.353C207.558 137.289 207.776 137.292 207.976 137.362C208.168 137.429 208.34 137.556 208.456 137.725C208.565 137.886 208.628 138.085 208.607 138.313C208.476 139.796 207.699 141.12 206.595 142.16C205.369 143.314 203.744 144.113 202.214 144.393C200.528 144.702 198.811 144.481 197.255 143.848ZM203.009 120.962C204.803 122.05 207.535 124.587 205.606 127.284C203.335 129.662 200.065 126.935 198.454 125.702C196.96 124.746 195.282 127.204 196.668 128.32C208.31 136.923 213.035 121.247 203.916 119.683C202.912 119.511 202.539 120.626 203.009 120.962ZM182.146 110.955C182.344 108.501 186.09 107.943 186.462 110.372C186.796 112.548 186.403 114.547 185.421 116.506C184.483 118.377 182.124 117.504 181.946 115.8C181.707 113.516 182.022 112.482 182.146 110.955ZM210.66 109.869C211.182 109.186 211.936 108.72 212.839 108.983C215.662 109.806 214.83 113.806 213.839 115.752C213.3 116.809 211.559 117.077 210.772 116.146C209.49 114.629 208.876 111.598 210.506 110.102C210.55 110.025 210.599 109.947 210.66 109.869ZM185.381 100.215L185.827 100.137C187.207 99.8989 188.922 99.6701 189.897 100.777C190.415 101.364 190.593 102.454 189.897 103.016C188.674 104.004 187.321 103.621 185.855 103.705C184.646 103.774 183.485 103.974 182.321 104.306C179.768 105.034 177.687 106.364 175.506 107.824C175.22 108.015 174.928 107.65 175.064 107.383C176.323 104.922 178.763 102.901 181.207 101.668C182.511 101.011 183.938 100.465 185.381 100.215ZM208.086 99.1125L208.428 99.1822C212.141 99.9569 216.966 101.504 218.725 105.145C218.792 105.66 218.721 105.77 218.664 105.842L218.644 105.866C218.597 105.927 218.559 106.012 218.336 106.082C218.273 106.068 218.211 106.052 218.148 106.035C217.341 105.825 216.704 105.534 216.086 105.233L215.417 104.904C214.64 104.524 213.856 104.157 213.026 103.887C211.254 103.31 209.431 102.904 207.58 102.687C207.179 102.64 206.792 102.505 206.488 102.273C206.198 102.053 205.977 101.749 205.876 101.344C205.746 100.821 205.783 100.424 206.065 99.9519C206.277 99.5972 206.579 99.3514 206.927 99.2102C207.282 99.0662 207.685 99.0323 208.086 99.1125Z" fill="black"/>
<path fill-rule="evenodd" clip-rule="evenodd" d="M223.035 123.084C221.436 125.227 218.471 125.91 215.737 125.674C209.84 125.108 207.984 118.424 207.791 113.229C211.745 114.339 207.456 106.477 220.974 105.612C225.739 105.216 224.425 108.088 226.531 110.186C226.488 114.59 225.753 119.376 223.035 123.084ZM194.947 118.023C191.465 134.294 172.4 130.424 170.397 115.756C172.247 114.454 171.759 111.237 174.057 110.072C177.698 107.75 182.25 107.85 186.385 107.904C191.67 108.266 193.176 110.451 195.891 112.835C195.761 114.427 195.384 116.315 194.947 118.023ZM230.587 102.917C230.392 102.885 230.196 102.854 230 102.826C229.848 102.739 229.668 102.672 229.46 102.632C228.984 102.512 228.511 102.43 228.039 102.387C221.263 100.865 205.587 103.026 204.94 108.796C202.782 109.515 200.915 108.871 198.414 108.935C196.51 100.994 163.598 102.115 162.015 106.903C162.009 106.901 162.003 106.9 161.997 106.898C160.476 106.428 158.234 106.541 156.493 106.467C152.776 106.389 149.055 106.72 145.418 107.502C138.608 108.582 129.314 109.847 134.051 118.334C134.051 118.335 134.052 118.337 134.053 118.338L134.054 118.337C134.87 119.172 136.256 118.5 136.307 117.37C134.715 113.349 138.311 112.866 141.079 111.711C147.964 109.242 154.974 108.9 162.096 109.664C162.631 110.293 163.444 110.842 164.304 111.129C169.065 111.918 166.556 115.443 169.565 115.955C169.013 128.242 183.96 134.949 192.621 126.872C196.079 123.498 196.904 118.5 197.706 113.995C198.129 113.9 198.399 113.668 198.556 113.362C199.576 112.346 200.217 111.408 202.233 111.129C204.249 110.85 205.801 111.41 206.011 111.581C206.064 111.688 206.12 111.794 206.186 111.901C206.278 112.06 206.404 112.187 206.546 112.287C204.555 124.522 214.073 132.26 223.682 125.914C227.857 121.995 228.739 115.994 228.914 110.638C229.479 110.297 229.838 109.637 229.642 108.806C229.372 107.662 230.005 106.67 231.013 106.173C232.324 105.526 232.092 103.166 230.587 102.917Z" fill="black"/>
</svg>
