<svg width="391" height="780" viewBox="0 0 391 780" fill="none" xmlns="http://www.w3.org/2000/svg">
<path fill-rule="evenodd" clip-rule="evenodd" d="M91.1528 271.171C84.7912 278.61 85.3536 280.678 88.743 288.189C96.2313 305.616 106.969 323.331 119.157 339.49C118.353 303.236 117.661 266.784 116.471 230.199C109.223 244.335 101.505 257.104 91.1528 271.171ZM89.9525 719.249C85.9482 718.861 57.766 719.903 65.3082 711.687C62.9801 706.634 69.4842 702.371 73.4921 698.527C77.2421 694.95 80.9376 690.976 84.7883 686.378C88.3741 682.115 92.4165 677.076 95.0298 671.196C95.6083 670.274 96.1959 669.629 96.7777 669.277L97.1133 669.073L97.3223 668.741C99.5278 665.222 101.349 661.585 103.353 658C98.4515 656.23 93.9981 654.452 88.4463 651.995C96.2802 605.872 108.021 560.936 115.612 514.678C120.233 474.424 122.713 433.792 133.287 394.148L134.64 394.252L135.393 391.654C134.283 391.625 132.033 391.55 130.919 391.507L131.18 392.836C126.14 392.252 121.2 390.816 116.3 389.598C113.8 389.256 111.292 387.468 112.192 384.488C112.482 380.165 113.376 375.947 113.797 371.625C112.203 370.536 110.558 369.294 108.982 368.02C104.815 369.985 99.7784 376.328 95.2219 374.714C84.5736 360.425 75.6371 343.247 67.5501 329.524C48.0178 297.788 41.8184 277.951 61.9634 244.86C79.3802 217.138 98.1675 173.077 133.083 166.12C137.003 165.388 141.11 165.357 144.878 163.572C145.071 161.011 146.351 159.54 147.287 159.519C149.562 159.02 152.06 158.217 154.282 158.196C155.065 157.869 156.022 158.138 156.774 158.286C159.013 153.792 158.813 148.055 161.267 143.843C161.356 140.652 162.329 137.125 172.167 136.484C178.864 135.925 188.349 135.386 193.702 138.312C197.448 141.327 197.487 148.081 197.017 152.84C196.501 156.336 196.732 160.401 199.47 164.506C207.272 162.097 212.713 167.188 217.598 176.685C238.045 179.468 242.454 181.048 250.387 201.298C254.171 210.08 258.11 219.461 261.059 229.075C265.009 240.827 265.356 253.129 269.196 264.964C279.624 291.049 290.229 307.883 293.569 338.25C295.199 351.658 294.262 358.307 292.713 360.321C288.306 359.047 282.62 358.071 277.992 357.528L282.944 361.295C278.748 380.321 290.836 434.579 258.061 430.411C257.77 429.703 258.304 425.807 258.445 424.191C257.549 424.254 255.892 424.313 255.009 424.202C253.446 428.711 251.1 432.763 249.619 437.349C248.886 440.144 247.96 442.957 247.055 445.675C226.415 515.175 222.327 582.082 231.538 651.856L231.122 652.007L230.953 652.306L230.7 652.401C230.05 653.269 229.129 653.306 227.659 653.309C218.631 653.626 210.699 654.033 203.342 654.238C204.123 658.144 203.623 662.255 203.279 666.228C207.56 665.928 211.488 667.665 215.402 669.751C222.879 673.421 230.327 677.276 237.567 681.491C244.755 686.09 256.38 690.022 250.608 698.288L252.277 698.943C252.333 698.965 252.369 698.985 252.39 698.998C252.587 699.7 250.327 702.606 249.657 702.574C233.85 703.312 220.368 699.622 200.149 695.755C195.519 694.076 172.203 691.221 172.105 686.812C172.179 685.439 173.6 685.532 174.59 685.36C171.62 670.362 181.661 669.151 183.099 655.543C181.111 655.921 178.961 656.246 176.925 655.687C175.138 626.645 178.009 596.917 174.835 567.591L171.608 567.234C160.759 599.144 149.511 631.794 140.873 664.94C140.708 665.661 139.901 665.169 139.532 664.905C133.885 664.771 128.237 664.169 122.701 663.218C122.568 666.478 122.428 669.799 122.291 673.056L123.144 673.514C123.694 674.28 123.463 677.865 123.363 679.408C123.263 680.986 123.179 682.127 123.319 683.197C125.1 686.707 119.011 694.314 115.791 698.543C108.774 707.622 102.962 721.068 89.9525 719.249Z" fill="#D08B5B"/>
<path fill-rule="evenodd" clip-rule="evenodd" d="M123.824 686.298L123.548 686.721C123.194 687.267 122.871 687.781 122.555 688.309L122.369 688.621L121.743 689.554L121.337 690.167C120.766 691.031 120.155 691.972 119.334 693.248L117.075 696.765L116.128 698.227C113.755 701.877 112.217 704.108 110.411 706.477L109.945 707.084L109.702 707.388L109.46 707.685C105.179 712.908 100.553 716.468 95.3088 717.969L95.1337 718.018L94.9701 718.064L94.8009 718.077C87.4729 718.667 80.1426 718.037 70.2021 716.295L69.5641 716.183L68.7927 716.044L67.1131 715.738L66.7196 715.342C64.4201 713.033 64.1044 710.371 65.5158 707.717C66.4402 705.978 67.8604 704.475 70.4087 702.26L72.3969 700.542C74.2282 698.952 74.5317 698.64 74.9853 698.018L75.1718 697.759L75.2597 697.668C83.4875 689.087 90.3604 680.822 95.665 671.091L95.8709 670.712L96.1811 670.138L96.7899 669.9C101.774 667.954 107.356 668.173 112.029 670.548L112.183 670.627L112.332 670.707L112.486 670.791C113.272 671.229 113.93 671.704 115.073 672.606L115.714 673.112L116.014 673.346C117.007 674.111 117.583 674.478 118.28 674.784C119.63 675.376 121.233 675.277 121.774 674.696L121.803 674.663L121.829 674.63L122.545 672.634L123.824 686.298ZM179.791 667.288C180.026 668.021 179.127 670.924 179.78 671.923C180.368 672.824 182.437 672.577 183.873 672.562L184.165 672.557L184.463 672.548C184.932 672.533 185.428 672.504 186.076 672.458L187.978 672.319L188.137 672.309C188.188 672.306 188.238 672.303 188.291 672.301L188.589 672.286L188.776 672.279L188.847 672.274C191.198 672.09 193.132 670.806 196.907 669.322L198.665 668.625C200.427 667.93 201.417 667.569 202.609 667.203L202.782 667.151L202.873 667.133C206.234 666.479 210.435 667.746 216.141 670.591L216.502 670.772L216.89 670.969C217.801 671.435 218.761 671.944 219.84 672.531L221.512 673.45C222.674 674.092 224.113 674.888 224.619 675.165L225.102 675.427L225.541 675.663C226.635 676.247 227.508 676.688 228.267 677.034L228.517 677.147L228.577 677.179C235.114 680.72 241.119 684.217 246.757 687.798L247.2 688.08L247.35 688.161C254.136 691.925 254.229 698.002 247.839 702.225L247.643 702.353L247.439 702.481L246.947 702.788L246.368 702.746C236.501 702.037 226.299 700.585 215.093 698.39L213.993 698.173C205.601 696.504 197.32 694.585 185.575 691.66L183.255 691.08L179.476 690.13L179.378 690.121C175.255 689.695 172.971 686.605 172.974 682.341L172.976 682.099L172.976 681.897C172.971 677.423 174.919 673.297 176.578 669.956L176.665 669.784L176.753 669.613L179.791 667.288Z" fill="white"/>
<path fill-rule="evenodd" clip-rule="evenodd" d="M132.303 392.024C131.54 391.971 130.625 391.93 129.613 391.885C124.214 391.642 116.16 391.214 113.254 388.495C113.21 388.454 113.166 388.412 113.123 388.368C113.117 388.31 113.111 388.251 113.106 388.193C112.845 385.391 113.309 382.536 113.775 379.699C114.012 378.256 114.249 376.818 114.384 375.394C114.409 375.124 114.431 374.853 114.451 374.581C114.67 374.737 114.894 374.891 115.122 375.045C123.519 380.696 130.512 379.784 137.708 378.869C142.599 378.247 147.584 377.622 153.147 378.915C154.699 379.281 156.352 379.945 158.045 380.628C161.807 382.144 165.798 383.826 169.284 382.052C170.148 381.35 170.675 380.696 170.918 380.076C171.164 379.45 171.097 378.872 170.82 378.341C169.928 376.627 167.136 375.372 164.984 374.482L164.754 374.388L160.799 372.783C162.058 372.931 163.311 373.089 164.545 373.292C166.19 373.563 167.841 373.919 169.496 374.276C173.062 375.045 176.649 375.824 180.246 375.732C180.579 375.637 180.832 375.483 181.013 375.28C181.225 375.041 181.336 374.739 181.38 374.413C181.512 373.445 181.088 372.277 180.594 371.538C179.265 369.511 177.222 368.257 175.008 367.511L175.2 366.59C176.016 366.659 176.842 366.824 177.67 366.99C178.883 367.233 180.101 367.484 181.296 367.394C182.012 367.119 182.476 366.78 182.719 366.375C182.98 365.938 182.959 365.442 182.791 364.935C182.214 363.194 179.986 361.324 178.587 360.508C173.783 357.332 168.253 355.792 162.749 354.251C159.445 353.326 156.148 352.402 153.022 351.143C152.799 351.054 152.577 350.962 152.356 350.869C152.526 350.679 152.703 350.504 152.89 350.344C155.087 348.459 159.231 348.102 163.391 347.791C166.556 347.555 169.718 347.332 171.91 346.329C173.369 345.661 174.379 344.633 174.566 342.948C174.456 341.931 174.137 341.121 173.653 340.482C173.106 339.761 172.352 339.263 171.478 338.919C168.914 337.911 165.352 338.206 162.55 338.489L161.335 338.613L160.904 338.656C149.6 339.959 138.593 344.162 129.236 350.605C129.116 350.688 128.996 350.771 128.876 350.853C128.784 350.741 128.691 350.629 128.599 350.516C125.69 346.982 122.848 343.391 120.087 339.738C120.056 339.698 120.026 339.658 119.996 339.616C119.994 339.566 119.993 339.516 119.991 339.467C119.645 327.478 119.462 315.437 119.278 303.388C118.92 279.919 118.563 256.419 116.998 233.216L117.457 232.276C117.781 231.609 118.079 230.998 118.348 230.443C118.235 230.628 118.119 230.818 118 231.015L117.332 232.121L116.371 233.725L116.358 233.337C116.353 233.348 116.347 233.359 116.342 233.37C116.274 233.359 116.204 233.359 116.131 233.372C115.9 233.412 115.742 233.562 115.641 233.755C115.494 234.036 115.459 234.4 115.513 234.752C115.521 234.801 115.53 234.85 115.541 234.899C115.516 234.947 115.49 234.996 115.464 235.045C115.31 235.338 115.155 235.631 115 235.923C108.997 245.643 102.731 255.184 96.0367 264.408C95.0299 266.109 93.4732 267.992 91.839 269.964C88.4957 273.998 84.7368 278.42 85.1539 282.444C93.6363 307.353 108.847 329.718 125.191 350.193C125.265 350.285 125.339 350.378 125.409 350.471C125.342 350.567 125.276 350.663 125.209 350.759C118.92 359.767 110.743 367.47 101.313 373.133C100.973 373.318 100.631 373.537 100.276 373.764C99.3147 374.378 98.2709 375.019 97.3143 375.127C96.521 375.216 95.7688 374.987 95.1318 374.161C81.0068 352.381 67.6683 329.978 56.1691 306.735C46.2006 288.48 50.9554 267.5 60.9048 250.329L61.772 248.765C62.4442 247.552 63.1167 246.335 63.7904 245.117C77.3804 220.539 91.4486 195.115 112.657 176.405L113.025 176.113C118.578 171.716 124.815 167.702 131.893 166.461C133.281 166.235 134.695 166.157 136.11 166.08C138.47 165.951 140.834 165.831 143.044 164.963C143.267 164.876 143.487 164.781 143.702 164.681C143.707 164.937 143.704 165.186 143.692 165.428C143.519 168.873 143.611 171.739 144.359 166.777C144.432 165.445 144.555 164.392 144.75 163.545C145.085 162.17 145.603 161.315 146.371 160.699C147.216 160.021 148.39 159.641 150.049 159.219L151.752 158.796L152.781 158.536C156.654 192.593 165.104 225.9 173.555 259.213C183.886 299.941 194.216 340.677 196.216 382.798L196.239 382.973C196.395 384.239 196.411 385.716 195.892 386.813C195.474 387.695 194.733 388.362 193.468 388.539C191.509 389.013 189.456 389.262 187.431 389.507C186.896 389.571 186.362 389.636 185.834 389.704L184.768 389.844C167.638 392.07 150.313 392.65 133.056 392.152C132.92 392.148 132.784 392.144 132.649 392.14C132.645 392.109 132.641 392.078 132.637 392.047L132.303 392.024ZM292.63 355.122C292.544 356.501 292.422 357.877 292.265 359.248C292.244 359.429 292.222 359.61 292.2 359.79C292.025 359.744 291.849 359.698 291.674 359.652C284.262 357.734 276.528 356.642 268.88 357.529C268.72 357.547 268.561 357.567 268.402 357.585C268.386 357.426 269.446 367.544 258.015 384.688C257.736 385.242 255.954 386.996 255.919 387.087C255.822 387.097 255.725 387.108 255.628 387.118C245.717 388.17 235.702 388.048 225.831 386.627C225.7 386.608 225.569 386.589 225.438 386.569C225.432 386.437 225.428 386.304 225.424 386.172C225.291 381.548 225.912 376.959 226.536 372.365C227.205 367.449 227.876 362.527 227.596 357.551L227.616 353.894C227.92 294.415 227.138 233.57 209.562 176.282C209.513 173.994 202.997 168.513 202.845 168.344C202.099 167.51 201.409 166.628 200.787 165.702C200.576 165.389 200.374 165.071 200.179 164.749C200.514 164.825 200.875 164.9 201.267 164.972C202.871 165.267 204.016 165.339 204.917 165.396C207.535 165.562 208.243 165.555 211.711 169.996C215.439 175.557 219.826 178.975 219.661 178.7C219.98 178.735 220.3 178.772 220.621 178.811C227.141 179.59 232.961 180.822 237.617 183.793C241.452 186.24 244.508 189.86 246.513 195.381L247.543 197.786C254.111 213.137 260.521 228.728 263.46 245.227C265.048 258.503 268.83 271.175 274.95 283.048C285.248 305.601 294.052 330.001 292.63 355.122Z" fill="#78E185"/>
<path fill-rule="evenodd" clip-rule="evenodd" d="M210.124 179.108C221.338 220.125 225.191 266.715 226.48 309.062L226.558 311.655L226.717 317.051C221.601 317.817 214.496 317.265 209.343 317.34C203.051 317.725 195.215 317.291 189.074 318.315L188.691 318.381L188.441 318.43L188.14 316.999C178.964 273.585 165.681 228.439 157.622 184.776C159.038 185.614 160.874 185.946 162.41 186.332C172.861 188.873 185.154 188.394 195.88 187.778C201.992 187.729 207.068 184.358 210.124 179.108Z" fill="#9DDADB"/>
<path fill-rule="evenodd" clip-rule="evenodd" d="M159.609 144.207C161.52 142.913 158.799 154.139 158.794 155.219L158.746 155.454C158.27 157.74 157.431 160.4 155.5 161.867C156.39 169.143 157.499 176.397 158.863 183.598L159.665 183.703C171.568 185.279 183.55 187.445 195.652 186.316C202.173 186.368 206.489 181.912 209.118 176.386C208.94 175.734 208.762 175.085 208.579 174.433C200.298 169.369 194.028 159.092 197.759 149.391C197.918 148.976 198.412 148.947 198.666 149.163C198.707 149.167 198.745 149.2 198.742 149.246L198.62 151.139C198.359 155.269 198.243 159.549 200.483 163.267C209.493 161.216 215.095 168.718 218.862 175.817L221.568 176.217C231.922 177.753 241.907 179.571 247.019 190.163L247.72 191.651C254.863 206.871 261.521 222.522 265.417 238.912C267.379 247.631 268.089 256.616 270.967 265.12C276.942 280.912 285.363 295.752 289.929 312.1C292.762 317.999 300.734 362.402 292.869 362.74C290.04 361.894 287.159 361.209 284.248 360.723C284.697 361.064 284.861 361.645 284.775 362.237C283.759 369.355 283.683 376.565 283.687 383.742C284.224 401.123 283.743 438.518 257.53 432.516C255.617 431.812 256.859 428.748 256.782 426.607C256.633 426.614 256.481 426.611 256.329 426.602C254.824 430.657 252.714 434.4 251.391 438.521C250.27 442.062 249.487 445.871 247.924 449.262C231.374 508.04 224.542 569.861 231.012 630.696C231.376 634.339 231.784 637.977 232.241 641.608C232.183 643.879 234.877 653.384 232.459 654.023C232.364 654.206 232.038 654.417 231.843 654.483C230.375 656.065 227.933 655.479 225.994 655.689C219.143 655.993 212.292 656.275 205.437 656.502C205.848 659.406 205.516 662.354 205.273 665.255C210.272 665.296 214.866 668.335 219.287 670.398C225.854 673.633 232.313 677.091 238.65 680.757C244.501 684.846 257.572 688.795 253.075 698.066C256.428 699.425 251.768 705.109 249.221 705.173C232.635 705.089 216.156 701.332 199.948 698.034C190.74 695.604 180.691 694.68 172.172 690.489C169.753 689.397 170.26 685.042 172.92 684.637C170.945 670.118 178.963 670.318 181.218 658.225C179.906 658.439 178.456 658.318 177.14 658.052C174.093 660.866 175.212 638.714 174.798 636.55C174.716 613.835 175.794 591.072 173.371 568.434L169.253 580.542C159.653 608.802 150.197 637.134 142.671 666.025C142.22 667.769 140.386 667.978 139.215 667.217C134.273 667.073 129.35 666.608 124.474 665.821C124.379 668.132 124.282 670.443 124.185 672.753C126.288 673.885 124.864 681.016 125.132 683.428C127.409 688.665 118.182 698.746 115.149 703.067C109.739 710.614 104.369 721.174 93.9076 721.525L93.589 721.533C85.7811 721.723 77.9023 721.267 70.1702 720.153L69.3356 720.017C67.103 719.648 64.6035 719.125 63.3138 717.134C62.2261 715.456 62.3591 713.289 63.6796 712.007C61.9359 705.687 68.7231 701.86 72.5142 698.012C79.5961 691.188 86.0328 683.682 91.5988 675.576L91.9185 674.82C92.9503 672.389 94.1831 669.69 96.104 668.525C97.9353 665.62 99.5001 662.563 101.155 659.559C96.6384 657.902 92.1902 656.052 87.7919 654.103C86.9164 653.714 86.6381 652.577 86.7909 651.731L86.802 651.674C95.3889 607.13 105.684 562.905 113.691 518.259C118.805 477.114 120.902 435.444 131.654 395.203C126.438 394.662 121.246 393.164 116.127 391.885C112.023 391.012 109.948 388.93 110.757 384.587C111.035 380.728 111.809 376.931 112.227 373.088C111.134 372.324 110.068 371.521 109.031 370.696C107.107 372.13 105.121 373.481 103.081 374.742C98.197 378.256 94.4266 378.803 91.4088 373.043C82.6695 359.25 74.2412 345.257 66.287 330.997C58.9091 317.318 49.7653 303.667 47.8925 287.917C45.1718 259.574 78.4626 214.215 95.1396 191.18C104.336 180.084 115.537 168.665 130.103 165.438C134.583 164.775 139.307 164.685 143.578 163.061C143.925 160.987 144.9 159.077 147.102 158.569C149.419 158.058 151.903 157.267 154.237 157.209C154.764 157.061 155.387 156.967 155.944 157.069C157.541 152.926 157.776 148.257 159.609 144.207ZM70.3773 715.283C70.7763 715.479 71.1895 715.65 71.6122 715.801C72.1323 715.872 72.6501 715.939 73.1678 715.998C72.2297 715.787 71.2987 715.55 70.3773 715.283ZM122.206 675C114.556 677.775 112.452 664.749 97.405 670.02C91.5243 680.929 83.9111 690.836 75.209 699.644C72.1159 703.486 62.9609 707.848 67.8945 713.481L68.6502 713.619C77.2179 715.176 85.9146 716.413 94.6454 715.709C101.243 713.891 106.19 708.608 110.189 703.28C113.082 698.157 116.466 693.335 119.921 688.581C121.821 686.217 122.013 683.208 122.004 680.299C122.068 678.531 122.135 676.766 122.206 675ZM208.152 668.606C204.903 667.416 201.571 668.535 198.617 669.995C193.569 672.252 182.637 674.955 177.967 671.358C175.677 675.142 174.909 679.348 175.538 683.713L175.544 683.983C175.597 685.745 175.844 687.165 177.988 687.289L184.075 688.819C204.608 693.97 225.344 698.949 246.48 700.382C252.121 696.863 252.28 692.236 246.283 689.014L244.749 688.075C232.977 680.879 220.93 673.807 208.152 668.606ZM252.823 698.536C252.766 698.633 252.711 698.73 252.654 698.825C252.742 698.867 252.823 698.929 252.899 698.995C252.899 698.836 252.875 698.68 252.823 698.536ZM102.295 659.972C102.374 661.571 101.587 663.377 101.034 664.813C100.709 665.662 100.374 666.873 99.8562 667.845C112.722 664.053 116.636 675.164 121.274 672.854L121.415 672.78V672.777C120.469 670.616 121.501 667.573 122.137 665.418C115.382 664.197 108.749 662.298 102.295 659.972ZM203.953 656.551L200.244 656.666C194.474 656.84 188.704 656.993 182.93 656.985C183.534 661.131 182.352 667.97 179.667 671.191C179.662 671.194 179.658 671.194 179.655 671.196C187.255 672.346 194.453 668.867 201.222 665.941C201.507 662.764 202.755 659.522 203.953 656.551ZM179.135 669.181L178.441 670.476C178.541 670.587 178.655 670.689 178.776 670.777C178.706 670.238 178.897 669.706 179.135 669.181ZM101.467 659.675C101.338 660.232 101.189 660.789 101.03 661.346C101.272 660.799 101.548 660.275 101.882 659.825L101.467 659.675ZM182.532 656.988L182.126 656.992L182.123 657.225C182.218 657.383 182.235 657.578 182.116 657.734C182.102 658.45 182.071 659.168 182.016 659.886L182.152 659.057C182.266 658.367 182.387 657.676 182.532 656.988ZM177.37 656.751L177.391 657.111C177.911 657.092 178.436 657.113 178.954 657.087C179.227 657.073 179.507 657.026 179.79 656.976C178.975 656.95 178.163 656.885 177.37 656.751ZM269.799 359.704C269.543 360.005 269.263 360.187 268.978 360.28C268.98 367.122 267.598 373.851 263.81 379.776C262.235 381.864 261.344 384.241 260.583 386.718C256.577 398.056 255.833 410.234 257.293 422.106C261.229 416.336 262.793 409.451 263.893 402.662C263.952 402.321 264.518 402.325 264.579 402.662C265.909 409.928 263.623 417.066 260.889 423.782C259.181 425.002 259.588 428.197 259.383 430.077C288.402 434.303 278.311 378.628 282.028 361.481C282.097 361.01 282.498 360.666 282.954 360.522C278.601 359.858 274.191 359.809 269.799 359.704ZM133.143 393.906C133.178 394.089 133.209 394.271 133.233 394.454L133.39 393.916C133.309 393.913 133.226 393.911 133.143 393.906ZM152.754 158.411L152.246 158.544C146.884 159.926 145.149 159.736 144.845 166.206C143.527 174.986 138.662 182.645 136.474 191.135C135.6 194.133 136.525 199.659 140.673 198.847C142.017 198.435 143.065 200.246 142.048 201.206C139.044 204.045 136.127 206.972 133.194 209.88C144.972 249.603 160.272 288.294 178.909 325.311C179.647 326.78 177.432 328.072 176.698 326.603C158.17 289.467 142.761 250.789 130.801 211.056L130.439 209.852C129.911 208.389 136.665 203.147 137.894 201.436C125.562 195.498 142.78 174.703 143.247 164.69C139.718 166.24 135.717 165.684 131.988 166.308C124.835 167.562 118.557 171.691 112.976 176.148C90.308 196.15 75.822 223.841 61.3314 249.942C51.463 266.972 46.7056 287.79 56.6087 305.905C68.0994 329.131 81.4287 351.518 95.5216 373.251C97.069 375.263 99.4506 372.95 101.081 372.106C110.454 366.478 118.582 358.821 124.832 349.868C109.679 331.288 96.4786 310.982 87.1434 288.859L87.0147 288.602C84.9201 284.396 83.2641 279.306 86.758 275.345C99.1651 259.465 110.2 242.607 120.584 225.355C120.691 225.181 120.93 225.333 120.852 225.513C119.786 227.926 118.663 230.32 117.492 232.692C119.857 267.77 119.457 303.533 120.479 338.833C123.237 342.48 126.075 346.066 128.979 349.595C138.401 343.107 149.484 338.876 160.867 337.564L161.603 337.491C166.438 336.994 174.423 336.057 175.057 342.329C174.274 350.045 158.315 345.707 153.212 350.083C161.576 353.452 171.161 354.401 178.84 359.479C181.303 360.915 186.132 365.49 181.414 367.241C179.356 367.417 177.23 366.618 175.173 366.442C177.488 367.221 179.617 368.541 180.973 370.611C181.949 372.03 182.661 374.977 180.329 375.584C175.013 375.734 169.718 374.001 164.481 373.14L164.947 373.329C168.764 374.89 174.698 377.695 169.556 381.832C164.409 384.494 158.178 379.965 153.051 378.756C139.242 375.545 129.026 384.345 114.87 374.818C114.468 378.002 113.865 381.163 113.623 384.364L113.592 384.546C113.102 387.468 113.522 388.523 116.675 389.081C120.477 390.229 124.458 390.588 128.409 390.802C147.421 391.806 166.559 391.093 185.442 388.66C188.159 387.931 194.542 388.618 195.678 385.63C193.55 308.728 161.482 236.367 152.652 160.464C152.507 159.734 152.498 158.989 152.754 158.411ZM206.354 164.983C204.837 165.046 203.426 165.374 201.917 165.526C202.753 167.302 207.161 169.814 206.76 170.695C207.078 170.942 207.401 171.179 207.729 171.409C207.273 169.807 206.812 168.207 206.35 166.604C223.103 207.4 225.405 255.668 227.63 300.172C228.364 322.611 228.763 345.121 227.678 367.546C227.075 373.503 225.479 379.522 225.913 385.538C235.745 386.953 245.72 387.074 255.592 386.026C255.884 385.26 256.214 384.507 256.589 383.767C271.367 365.754 263.53 343.18 256.414 323.669C252.111 323.851 247.783 323.578 243.475 323.631C244.806 327.748 245.149 332.105 245.858 336.363C246.34 339.397 246.955 342.408 247.662 345.396L247.877 346.293C248.14 347.366 248.461 348.517 248.085 349.576C247.705 350.655 246.394 351.091 245.525 350.252C243.958 348.466 244.126 345.804 243.62 343.59L243.527 342.893C242.664 336.534 241.529 329.937 243.105 323.628C241.558 323.296 237.327 324.516 237.106 322.436C237.171 319.001 234.678 311.559 237.453 309.297C239.103 308.038 241.941 308.436 243.877 308.358C246.114 308.268 248.349 308.185 250.584 308.199C232.624 264.807 237.618 251.449 239.441 208.264L239.495 206.946C239.49 206.662 239.949 206.591 239.999 206.877C242.745 224.567 239.084 242.476 240.818 260.221C243.898 293.937 265.267 322.884 268.839 356.438C276.544 355.544 284.339 356.64 291.807 358.573C291.964 357.21 292.085 355.843 292.17 354.475C293.588 329.43 284.798 305.107 274.542 282.644C268.396 270.721 264.597 257.996 263.007 244.69C259.919 227.36 252.991 211.034 246.085 194.935C241.719 182.898 232.282 180.059 220.579 178.661C224.526 185.203 228.45 191.758 232.366 198.319C233.24 200.303 230.561 201.719 229.392 202.94C243.769 210.779 235.375 234.985 235.672 248.548C234.605 261.012 234.202 273.546 232.321 285.923C232.183 286.781 230.867 286.529 230.855 285.726C231.028 267.181 233.24 248.711 234.211 230.196L234.329 228.847C235.086 220.081 235.827 207.435 225.284 205.029C223.861 204.796 223.752 202.682 224.894 202.047C226.414 201.201 227.747 200.167 228.939 198.938C224.911 192.18 220.89 185.418 216.905 178.633L216.718 178.317C213.888 173.516 211.258 167.929 206.354 164.983ZM172.143 341.859C170.98 338.434 159.693 340.665 156.68 341.037C145.57 343.135 134.389 348.05 125.927 355.62C125.405 356.087 124.788 356.08 124.301 355.827C120.511 360.667 116.134 365.054 111.334 368.909C112.212 369.601 113.115 370.272 114.044 370.914C114.488 370.962 114.889 371.192 115.07 371.604C128.277 381.172 137.992 373.709 151.712 375.432C156.834 376.465 161.552 379.722 166.83 379.859C170.704 378.979 167.293 377.36 165.484 376.733C161.387 374.778 157.211 372.995 153.025 371.238L149.676 369.834C148.031 369.144 148.596 366.658 150.434 367.092C153.652 367.85 156.88 368.57 160.11 369.28C166.321 370.546 172.68 372.171 178.957 372.787C177.561 368.91 162.758 364.722 158.454 363.181C156.828 362.414 152.192 362.56 152.721 360.04C153.149 357.696 158.082 360.381 159.727 360.571C166.441 362.275 173.295 363.306 180.137 364.345C172.788 356.973 161.397 356.337 152.011 352.885L151.753 352.827C150.084 352.438 147.798 351.706 149.155 349.809C153.976 342.702 172.95 346.298 172.143 341.859ZM158.257 302.281C161.68 299.473 163.514 305.241 163.297 307.922C163.458 310.148 163.632 312.373 163.777 314.599C163.563 316.339 165.418 322.683 162.938 322.74C152.093 322.189 141.267 322.329 130.418 321.676C130.404 323.863 130.298 326.048 130.409 328.239C130.35 330.977 131.302 333.713 130.746 336.42C130.407 337.665 128.714 337.833 128.053 336.771C126.071 332.11 127.433 326.098 128.837 321.384C123.525 320.403 122.792 315.41 124.192 310.956L124.177 310.715C124.099 309.34 124.105 307.867 124.719 306.756C126.36 304.825 129.762 306.079 132.022 305.934C138.949 305.22 146.003 305.022 152.85 303.751C154.622 303.292 156.429 302.368 158.257 302.281ZM115.196 237.205C109.803 247.497 103.598 257.291 96.992 266.826C95.5765 268.862 94.1231 270.872 92.6464 272.868L92.4643 273.101C89.4858 276.9 86.3282 280.021 89.1455 285.045C96.4517 302.787 106.234 319.448 117.568 334.91C116.85 302.341 116.216 269.763 115.196 237.205ZM250.783 308.72C237.233 311.559 236.979 306.243 239.241 321.289C244.675 321.326 250.107 321.204 255.542 321.291C253.989 317.089 252.379 312.906 250.783 308.72ZM159.829 304.471C152.752 306.929 145.238 306.579 137.847 306.881C137.862 308.47 130.3 306.995 128.848 307.213L128.344 307.17C127.136 307.07 125.582 307.031 125.569 308.524C125.953 311.098 124.505 313.916 125.402 316.445C126.614 319.851 131.795 319.5 134.655 319.566C139.369 319.673 144.083 319.786 148.798 319.91C153.032 320.021 157.281 320.232 161.518 320.263C161.138 317.248 161.033 314.157 160.803 311.145C160.513 308.979 160.931 306.412 159.829 304.471ZM189.587 315.423C189.594 315.461 189.601 315.499 189.61 315.539C189.666 315.525 189.722 315.512 189.78 315.5L189.867 315.482V315.48C189.774 315.463 189.679 315.445 189.587 315.423ZM210.111 180.043C207.051 185.288 201.978 188.656 195.866 188.706C185.141 189.323 174.274 188.614 163.822 186.075C162.285 185.691 160.45 185.357 159.037 184.518C167.106 228.228 180.151 270.808 189.35 314.266C196.012 314.853 202.653 314.792 209.33 314.478C214.483 314.4 219.687 314.953 224.805 314.188L224.645 308.793C223.354 265.604 221.556 221.894 210.111 180.043Z" fill="black"/>
<path fill-rule="evenodd" clip-rule="evenodd" d="M140.791 66.9318C142.02 65.6128 143.592 64.6302 145.311 64.3162C143.74 65.1009 142.204 65.9188 140.791 66.9318ZM138.384 78.3044C138.166 77.2993 138.02 76.2844 137.974 75.2698C138.249 75.6874 138.688 75.9663 139.18 76.1104C138.862 76.8231 138.592 77.5574 138.384 78.3044ZM220.624 94.0641C219.205 88.1585 212.586 76.7993 211.022 74.613C209.323 69.1994 218.588 64.858 213.55 60.6247C211.268 58.7147 208.253 58.0387 205.425 57.3613C185.843 52.6581 164.803 55.0301 146.642 63.6788C143.879 63.0975 141.001 64.2337 138.992 66.2293C129.554 75.7163 142.416 92.8337 145.229 103.529C150.054 115.455 140.114 117.461 141.18 127.551C142.008 132.764 147.288 134.141 151.743 134.929C152.457 135.096 153.411 135.121 153.642 135.876C154.364 140.283 156.838 144.482 160.161 147.332C159.87 148.192 160.092 149.237 161.116 149.993C170.399 156.892 182.103 160.344 193.68 159.724C207.477 158.984 214.612 151.076 216.334 149.039C225.853 136.182 224.716 119.218 222.774 103.896C221.421 93.222 223.137 104.526 220.624 94.0641Z" fill="#D08B5B"/>
<path fill-rule="evenodd" clip-rule="evenodd" d="M178.081 44.9233C178.514 43.5676 179.742 42.7523 181.147 42.9206C182.392 43.0675 183.723 44.3023 183.572 45.6651C183.543 45.9282 183.505 46.1747 183.46 46.407L183.466 46.4091L183.472 46.4093L183.441 46.4994C183.349 46.9331 183.221 47.3218 183.031 47.6892C182.79 48.3931 182.557 49.0994 182.328 49.8081C182.659 49.7939 182.998 49.8128 183.342 49.8768C183.697 48.9667 184.055 48.0589 184.411 47.1464C184.792 46.1723 185.06 44.9209 185.814 44.1672C186.778 43.205 188.451 43.0059 189.627 43.6932C190.869 44.4185 191.312 45.7078 191.042 47.0896C190.904 47.7944 190.433 48.2849 189.851 48.5931L189.788 48.6254L189.34 49.6872C189.477 49.6279 189.62 49.5734 189.774 49.5284C190.015 49.4573 190.252 49.4123 190.485 49.3933C191.125 48.2343 191.828 47.1085 192.556 46.0041C193.393 44.7337 195.028 44.1933 196.4 44.9968C197.628 45.7149 198.286 47.6015 197.407 48.8411C196.739 49.782 196.106 50.7419 195.483 51.7113C195.589 51.7302 195.696 51.7539 195.798 51.7847C195.845 51.7207 195.895 51.6567 195.947 51.5928C196.627 50.749 197.419 50.1162 198.232 49.4146C198.993 48.7557 199.343 47.72 200.343 47.2199C201.602 46.5918 203.119 46.8928 203.867 48.1443C205.474 50.8248 202.777 52.7825 201.052 54.4061C202.552 53.4699 204.114 52.6143 205.716 51.8748C206.616 51.46 207.531 51.0595 208.46 50.7134C209.837 50.2015 210.951 50.3653 212.081 51.3178C212.586 51.7444 212.837 52.6761 212.605 53.2969C212.155 54.4866 211.444 55.2095 210.197 55.5532C209.321 55.7949 208.422 55.9585 207.545 56.2121C206.076 56.634 204.649 57.1483 203.265 57.7906C203.365 57.8522 203.46 57.9186 203.547 57.9944C204.581 57.6602 205.633 57.3711 206.69 57.1246C208.443 56.7135 210.227 56.4358 212.019 56.262L212.615 56.2066C214.763 56.0004 217.346 55.6199 218.665 57.6768C219.099 58.3547 219.146 59.4733 218.665 60.1441C217.745 61.4334 216.831 61.6894 215.309 61.7131C216.807 61.8719 218.302 62.0686 219.791 62.2985C220.817 62.4549 221.842 62.6322 222.864 62.829L223.374 62.9289C224.618 63.1778 226.007 63.3224 227.076 64.0429C229.408 65.6166 228.313 68.6812 225.73 69.0083C224.481 69.1647 223.094 68.6361 221.869 68.3897C220.679 68.1503 219.485 67.9393 218.286 67.7545C217.665 67.6573 217.044 67.572 216.421 67.4938C217.689 67.6763 218.947 67.9346 220.172 68.2996L220.513 68.4023C222.881 69.1243 226.078 70.2741 226.817 72.8052C227.265 74.3433 226.04 75.6848 224.557 75.7749C223.177 75.8578 222.028 75.0354 220.857 74.4287C220.004 73.9878 219.137 73.6584 218.217 73.3764C217.267 73.0848 216.297 72.8431 215.321 72.6464C216.146 73.101 216.95 73.6007 217.721 74.1596L218.076 74.4216C220.126 75.9494 223.253 78.3148 222.53 81.1787C222.303 82.0817 221.296 82.9444 220.329 82.852C217.812 82.6174 216.423 79.9368 214.525 78.5005C214.029 78.126 213.487 77.7563 212.918 77.396C215.795 80.8279 218.084 84.7955 219.826 88.8934C223.654 97.9087 224.829 106.258 224.857 115.951L224.857 116.251C224.862 121.598 224.741 127.043 224.22 132.366C223.737 137.284 222.85 142.138 220.62 146.591C216.883 154.059 209.6 159.876 201.569 162.089C192.632 164.554 182.643 162.627 175.322 156.939C173.455 155.488 175.931 152.339 177.839 153.678C185.458 159.022 195.312 160.715 204.057 157.098C210.994 154.23 216.579 148.061 218.947 140.957C220.454 136.438 220.893 131.62 221.43 126.911L221.466 126.597C222.035 121.672 222.364 116.714 222.36 111.755C222.353 102.548 221.03 94.968 216.98 86.6157C215.075 82.6814 212.603 79.0435 209.65 75.8507C208.754 76.0332 207.801 75.7773 206.896 75.6801C206.434 75.6303 205.972 75.5829 205.51 75.5402C205.982 75.8455 206.445 76.1629 206.9 76.4877L207.497 76.9182C209.365 78.256 211.734 79.7798 211.254 82.3661C211.124 83.0653 210.427 83.7076 209.752 83.8664C207.304 84.4495 205.621 82.0699 203.967 80.6573C202.528 79.4296 201.024 78.3299 199.49 77.2278C199.142 76.9789 198.791 76.73 198.438 76.4835C198.77 76.8703 199.092 77.2632 199.407 77.6597L199.873 78.2497C201.281 80.0119 203.311 82.3025 202.057 84.5869C201.701 85.2316 200.943 85.6606 200.208 85.6464C197.682 85.5942 196.677 82.7264 195.492 80.9156C194.473 79.3632 193.366 77.9009 192.222 76.4385C191.907 76.038 191.589 75.6374 191.267 75.2369C185.961 75.5118 180.673 76.2134 175.479 77.3344C171.91 78.1047 168.4 79.1027 164.916 80.1951L164.626 80.2872C162.741 80.8943 160.799 81.6713 159.439 83.0037C159.245 83.9217 159.394 84.8898 159.58 85.8066L159.724 86.5083C160.32 89.4427 160.727 92.3227 160.423 95.3353C160.108 98.4425 159.171 101.237 158.029 104.124C157.489 105.484 156.93 105.238 156.738 106.698C156.59 107.81 156.681 108.958 156.782 110.079L156.866 111.03C157.077 113.52 157.182 116.235 155.55 118.29C155.297 118.605 154.754 118.479 154.574 118.164C154.503 118.039 154.427 117.918 154.344 117.802C153.557 116.661 152.351 116.012 150.972 115.761C150.796 115.73 150.865 115.495 151.012 115.476C152.178 115.339 153.282 115.631 154.221 116.233C153.776 114.693 150.33 115.442 149.198 115.741L149.159 115.751C147.746 116.131 146.41 116.747 145.232 117.619C142.862 119.373 141.492 122.108 141.561 125.054C141.63 127.95 143.125 130.626 145.694 132.013C146.933 132.681 148.343 133.003 149.746 132.989C151.211 132.975 152.514 132.333 153.981 132.423C154.83 132.475 155.479 133.385 154.989 134.179C154.662 134.71 154.235 135.127 153.742 135.447C154.944 138.218 156.477 140.86 158.245 143.299C159.224 144.652 160.333 145.901 161.553 147.041C162.506 147.933 164.57 148.964 164.454 150.45C164.414 150.985 164.136 151.312 163.648 151.511C162.13 152.132 160.285 149.995 159.27 148.965L159.188 148.883C157.922 147.622 156.768 146.228 155.764 144.75C153.981 142.123 152.875 139.163 152.417 136.054C149.983 136.786 146.76 136.099 144.774 135.2C138.532 132.38 136.492 123.973 140.286 118.375C141.02 117.292 141.94 116.365 142.987 115.616C142.758 115.491 142.542 115.329 142.35 115.126C141.288 113.998 140.537 112.525 139.792 111.169L139.703 111.006C139.041 109.812 138.417 108.599 137.832 107.367L137.615 106.904C136.309 104.095 135.164 102.868 134.233 99.9144C133.337 97.0655 132.631 94.1621 132.174 91.209L132.052 90.4273C131.788 88.7137 131.537 86.8813 131.731 85.1415C130.401 85.5753 129.064 85.8431 127.749 85.1913C126.882 84.7623 126.403 83.5109 126.699 82.6126C126.915 81.9514 127.275 81.4323 127.733 81.0247C127.46 80.8872 127.204 80.7118 126.979 80.5175L126.782 80.347C125.986 79.6547 125.929 78.3393 126.413 77.4719C126.46 77.3889 126.507 77.3036 126.552 77.2206C127.012 76.3982 127.962 75.8602 128.901 75.8744C129.053 75.8768 129.204 75.8768 129.358 75.8744C128.92 75.7773 128.491 75.6279 128.083 75.3767C126.244 74.2462 126.476 71.1816 128.702 70.6413C129.636 70.4161 130.666 70.5085 131.695 70.7503C131.657 70.7289 131.619 70.7076 131.581 70.6839C130.804 70.2075 130.152 69.2761 130.226 68.3209C130.306 67.2639 130.647 66.5102 131.581 65.9556C132.392 65.4768 133.539 65.4318 134.345 65.9556C135.044 66.413 135.729 66.9178 136.387 67.4606C135.726 66.6476 135.153 65.7636 134.92 64.825C134.634 63.6566 135.112 62.3838 136.165 61.7676C137.004 61.277 137.89 61.3315 138.681 61.7107C138.639 61.0969 138.788 60.4712 139.196 59.9165C140.03 58.7791 141.547 58.1248 142.867 58.9543C143.04 59.0633 143.272 59.2506 143.497 59.4805C143.059 58.0845 143.454 56.6197 144.95 55.9893C145.862 55.603 147.097 55.7973 147.888 56.4633C147.386 53.7448 151.398 51.7468 152.958 54.5554C153.311 55.1916 153.662 55.8616 153.975 56.5469L154.09 56.8046L154.102 56.7999L154.023 56.6114L153.941 56.423C153.507 55.4157 152.955 54.3681 152.804 53.2755C152.581 51.6591 153.301 50.1257 155.06 49.8887C155.967 49.7654 156.977 50.1778 157.586 50.8986C157.257 48.3908 160.058 46.5681 162.075 48.4405C163.03 49.3269 163.539 50.6234 164.146 51.761C164.489 52.4033 164.84 53.0433 165.184 53.6879C165.271 53.5836 165.366 53.4794 165.466 53.3774C164.956 51.8511 164.561 50.2868 164.226 48.7131C163.909 47.2294 164.651 45.6888 166.182 45.2696C167.573 44.8854 169.315 45.7436 169.625 47.2249C169.843 48.2675 170.101 49.2987 170.386 50.3248C170.58 50.2774 170.772 50.2442 170.962 50.2205C170.977 50.0277 170.995 49.8339 171.015 49.6411L171.09 48.9555C171.256 47.389 171.423 45.6008 172.241 44.2691C173.637 41.9939 177.216 42.9372 177.254 45.6272C177.275 47.0185 176.709 48.3979 176.512 49.7749C176.427 50.3745 176.377 50.9813 176.348 51.588C176.73 49.5734 177.254 47.5849 177.86 45.6272C177.931 45.3926 178.007 45.1579 178.081 44.9233ZM147.207 122.61C150.347 122.125 153.217 123.876 155.077 126.329C155.416 126.777 155.193 127.41 154.887 127.787C154.667 128.064 154.371 128.097 154.037 128.14C153.653 128.19 153.167 127.879 152.999 127.545C151.802 125.156 149.666 123.646 147.207 122.717C147.161 122.701 147.147 122.62 147.207 122.61ZM151.558 79.8055L151.653 79.7034C152.289 79.0442 151.285 78.0374 150.648 78.698C149.977 79.3933 149.532 80.2381 149.103 81.0941C148.695 81.9104 149.921 82.6314 150.331 81.812L150.518 81.4396C150.811 80.8606 151.123 80.2885 151.558 79.8055ZM142.741 78.4526C143.641 78.3009 143.259 76.9303 142.363 77.0815C141.201 77.2773 140.044 77.4998 138.882 77.6958C137.981 77.8475 138.363 79.2182 139.26 79.0672C140.422 78.8712 141.579 78.6486 142.741 78.4526ZM196.387 69.0952C195.517 68.8048 195.144 70.1778 196.009 70.4665C197.205 70.8654 198.39 71.2742 199.525 71.8281C200.344 72.2282 201.066 71.0021 200.242 70.6002C198.997 69.9922 197.699 69.5332 196.387 69.0952ZM142.535 67.2523C141.686 66.9125 141.317 68.2874 142.157 68.6237L145.229 69.8521C146.078 70.192 146.447 68.8173 145.607 68.481L142.535 67.2523ZM207.111 63.9133L206.999 63.8425C206.229 63.3434 205.515 64.5739 206.281 65.0705C206.731 65.3618 207.278 65.5594 207.69 65.9065L207.776 65.9832C208.441 66.6113 209.448 65.6078 208.781 64.9776C208.293 64.517 207.676 64.2605 207.111 63.9133Z" fill="black"/>
<path fill-rule="evenodd" clip-rule="evenodd" d="M197.255 143.848C195.659 143.198 194.235 142.114 193.193 140.729C192.831 140.247 192.737 139.739 192.813 139.274C192.899 138.751 193.208 138.277 193.631 137.959C194.055 137.64 194.586 137.483 195.099 137.563C195.544 137.633 195.988 137.876 196.339 138.381L196.412 138.482C197.031 139.318 197.838 140.004 198.757 140.446C199.643 140.872 200.634 141.071 201.66 140.955C203.613 140.735 204.959 139.681 206.39 138.25C206.567 138.069 206.745 137.882 206.923 137.693C207.036 137.521 207.192 137.411 207.365 137.353C207.558 137.289 207.776 137.292 207.976 137.362C208.168 137.429 208.34 137.556 208.456 137.725C208.565 137.886 208.628 138.085 208.607 138.313C208.476 139.796 207.699 141.12 206.595 142.16C205.369 143.314 203.744 144.113 202.214 144.393C200.528 144.702 198.811 144.481 197.255 143.848ZM203.009 120.962C204.803 122.05 207.535 124.587 205.606 127.284C203.335 129.662 200.065 126.935 198.454 125.702C196.96 124.746 195.282 127.204 196.668 128.32C208.31 136.923 213.035 121.247 203.916 119.683C202.912 119.511 202.539 120.626 203.009 120.962ZM182.146 110.955C182.344 108.501 186.09 107.943 186.462 110.372C186.796 112.548 186.403 114.547 185.421 116.506C184.483 118.377 182.124 117.504 181.946 115.8C181.707 113.516 182.022 112.482 182.146 110.955ZM210.66 109.869C211.182 109.186 211.936 108.72 212.839 108.983C215.662 109.806 214.83 113.806 213.839 115.752C213.3 116.809 211.559 117.077 210.772 116.146C209.49 114.629 208.876 111.598 210.506 110.102C210.55 110.025 210.599 109.947 210.66 109.869ZM185.381 100.215L185.827 100.137C187.207 99.8989 188.922 99.6701 189.897 100.777C190.415 101.364 190.593 102.454 189.897 103.016C188.674 104.004 187.321 103.621 185.855 103.705C184.646 103.774 183.485 103.974 182.321 104.306C179.768 105.034 177.687 106.364 175.506 107.824C175.22 108.015 174.928 107.65 175.064 107.383C176.323 104.922 178.763 102.901 181.207 101.668C182.511 101.011 183.938 100.465 185.381 100.215ZM208.086 99.1125L208.428 99.1822C212.141 99.9569 216.966 101.504 218.725 105.145C218.792 105.66 218.721 105.77 218.664 105.842L218.644 105.866C218.597 105.927 218.559 106.012 218.336 106.082C218.273 106.068 218.211 106.052 218.148 106.035C217.341 105.825 216.704 105.534 216.086 105.233L215.417 104.904C214.64 104.524 213.856 104.157 213.026 103.887C211.254 103.31 209.431 102.904 207.58 102.687C207.179 102.64 206.792 102.505 206.488 102.273C206.198 102.053 205.977 101.749 205.876 101.344C205.746 100.821 205.783 100.424 206.065 99.9519C206.277 99.5972 206.579 99.3514 206.927 99.2102C207.282 99.0662 207.685 99.0323 208.086 99.1125Z" fill="black"/>
<path fill-rule="evenodd" clip-rule="evenodd" d="M223.024 117.423C222.352 119.247 221.33 121.145 220.08 122.681C215.023 126.954 210.109 124.588 207.614 118.796C206.666 114.702 209.183 110.293 211.851 107.282C215.703 103.429 221.989 105.451 223.76 110.031C223.868 110.625 223.933 111.217 223.964 111.807C223.927 113.725 223.696 115.364 223.024 117.186M174.414 113.744C181.076 105.836 193.54 105.413 193.222 117.584C191.791 132.991 167.692 129.209 174.414 113.744ZM225.119 107.147C224.886 106.752 224.627 106.37 224.344 106.005C224.239 105.943 224.179 105.392 223.795 105.351C218.659 99.6964 209.636 102.905 206.376 108.54C205.78 109.252 205.295 110.086 204.936 110.967C201.724 110.379 197.979 110.493 194.992 111.704C192.029 103.984 183.06 103.295 177.15 106.594C173.474 108.398 171.09 112.177 167.515 114.252C159.111 114.856 150.09 112.977 141.838 115.081C135.329 116.431 140.77 119.72 141.861 117.525C149.642 115.231 158.86 117.17 166.939 116.653C167.779 118.071 169.39 119.231 170.995 119.182C172.729 134.521 195.145 131.978 195.918 118.342C196.795 116.958 197.886 115.633 199.447 114.771C200.045 114.648 200.622 114.487 201.15 114.239C202.052 114.112 203.441 114.493 204.271 115.243C207.114 132.264 223.49 130.282 226.416 115.37C226.475 115.311 226.637 115.089 226.762 114.732C227.764 113.41 230.216 112.919 229.824 110.688C229.476 108.456 226.651 108.482 225.119 107.147Z" fill="black"/>
</svg>
