<svg width="391" height="780" viewBox="0 0 391 780" fill="none" xmlns="http://www.w3.org/2000/svg">
<path fill-rule="evenodd" clip-rule="evenodd" d="M101.564 310.238L99.2265 310.006C98.0761 290.868 101.31 272.065 105.087 253.571L107.437 253.709C108.266 264.367 113.715 274.463 111.219 285.432C108.834 294.095 103.778 301.562 101.564 310.238ZM368.247 213.851L366.878 214.144C369.428 209.313 367.05 207.724 364.165 203.731L363.851 204.456L362.741 202.03C362.521 201.414 362.296 200.891 361.687 200.66C361.092 197.642 359.322 194.878 356.965 193.376L356.513 193.883C355.579 193.067 354.453 192.756 353.381 192.378C355.682 188.903 357.163 184.396 358.715 180.671C359.978 176.758 361.954 172.961 362.325 168.994C362.026 165.181 358.423 167.658 356.665 169.56C351.296 174.268 346.672 181.724 343.207 190.779C337.257 189.231 333.844 190.865 332.191 198.994C330.669 204.517 329.114 210.181 328.908 215.907C328.109 215.633 326.692 214.602 325.927 215.411C312.702 229.879 297.087 241.026 281.986 253.225C270.574 244.831 264.635 228.224 258.359 215.757C247.41 194.358 236.46 163.032 208.297 163.142C204.564 162.753 200.919 162.307 197.396 161.223C196.031 160.852 194.345 160.406 193.882 159.577C193.047 156.908 192.889 154.02 191.422 151.573C187.395 145.029 178.672 144.515 171.837 145.935C160.232 148.086 160.524 146.831 159.686 159.035C159.435 161.933 157.189 162.348 154.791 162.948C152.069 163.806 149.296 164.507 146.498 165.072C146.788 164.99 147.079 164.91 147.369 164.828C101.948 165.547 71.7904 218.229 65.8076 255.5C58.8586 293.63 67.8464 336.066 82.0556 368.092C81.4455 379.755 83.7337 391.471 85.1824 402.966C86.0918 405.842 89.2399 406.122 90.14 402.79L91.2496 398.406L92.4372 402.77C93.1903 405.471 94.4006 405.792 95.4895 405.81C96.8403 405.81 97.5808 405.145 97.6252 401.633L99.8626 401.095C100.725 402.738 101.581 404.19 102.935 405.2C105.659 425 107.369 445.588 113.981 464.748C116.618 471.858 120.667 478.314 123.64 485.29C109.62 516.931 107.27 551.995 103.903 585.874C104.174 585.895 105.566 586.017 105.863 586.043L105.095 588.083C104.046 588.526 103.43 589.461 103.113 590.495C102.405 590.437 99.4548 590.459 99.6192 591.134C99.6929 591.995 127.858 592.479 128.007 593.236C128.148 593.957 128.506 598.731 125.869 599.398C118.457 601.274 101.969 598.829 103.192 600.027C103.221 600.666 103.26 601.317 103.309 601.921C99.1133 616.561 96.0385 632.167 94.1702 648.259C91.7951 650.544 91.2006 658.061 94.743 660.066C104.522 666.798 117.659 669.995 130.027 668.781C143.413 667.515 159.377 662.183 152.971 646.918C152.889 646.444 152.238 646.421 151.726 646.525C150.591 645.424 149.361 644.592 148.03 644.124C145.386 637.521 143.008 630.599 140.934 623.687C139.924 620.512 138.879 617.23 138.965 613.749C139.465 605.2 140.345 601.667 146.286 594.934C149.964 596.702 156.974 583.898 158.58 581.21C161.959 573.259 161.828 585.837 161.828 585.837C163.235 590.749 163.79 598.953 167.307 602.609C169.22 615.335 156.129 621.166 164.565 635.28C161.71 635.476 161.443 636.618 161.493 640.084C161.484 642.573 161.419 645.185 161.888 647.512C162.458 650.371 165.096 651.137 169.057 651.98C172.267 652.69 175.358 653.501 178.543 654.267C181.765 655.338 185.159 655.25 186.484 651.992C202.437 657.398 248.426 656.78 263.636 649.616C267.837 647.935 270.8 646.985 266.942 642.252C264.818 628.745 226.476 643.969 221.579 629.153C220.88 627.229 211.657 615.183 209.156 613.749C210.177 612.28 209.115 600.457 209.156 600.027C209.268 598.842 200.021 601.75 194.741 600.583C192.187 600.019 191.007 596.277 191.416 594.895C191.579 594.346 211.801 589.568 211.975 588.99C215.712 576.599 221.906 558.023 222.832 548.249C224.171 524.889 222.915 505.195 230.035 481.455C239.987 443.865 259.32 408.59 259.581 368.813C259.249 362.219 261.077 355.198 259.42 348.727L261.478 347.656C261.775 347.998 262.31 347.988 262.417 347.524C263.768 345.333 262.254 342.705 261.943 340.306C262.65 339.55 262.297 338.86 261.444 338.447C252.299 306.174 237.003 301.46 241.213 261.119C248.084 275.671 263.303 290.403 280.079 288.237C296.979 290.762 336.402 249.607 344.016 236.303C345.411 236.411 345.428 235.411 345.641 234.469C352.595 235.287 359.104 229.83 359.234 223.155C365.336 226.936 371.857 221.535 368.624 214.939C368.497 214.583 368.368 214.219 368.247 213.851Z" fill="#D08B5B"/>
<path fill-rule="evenodd" clip-rule="evenodd" d="M150.558 645.932L152.203 651.277C153.679 656.072 151.915 660.109 147.401 662.641C133.374 670.077 114.867 669.548 99.7598 661.899C98.4804 661.239 97.2431 660.537 96.0513 659.792L95.6952 659.567L95.3971 659.378L95.2472 659.28C94.6306 658.873 94.2347 658.505 93.964 657.985L93.9262 657.91L93.9073 657.871L93.8933 657.83C93.8268 657.635 93.7662 657.438 93.7111 657.239L93.6688 657.082L93.6281 656.924C93.3523 655.823 93.2632 654.825 93.2002 652.877L93.1716 651.952L93.0959 649.674L94.456 651.505C95.012 652.254 95.769 652.893 97.0107 653.73L97.5564 654.09L98.6195 654.787L98.6499 654.808C101.332 656.6 104.328 658.105 107.633 659.356C119.597 663.795 133.223 663.242 143.825 657.577L144.138 657.407L144.973 656.907L145.233 656.749C146.843 655.763 147.802 655.026 148.546 654.109L148.603 654.038L148.659 653.966L148.883 653.676L149.25 653.69C150.238 653.727 150.846 652.841 150.813 651.587L150.811 651.517L150.558 645.932ZM164.203 634.888L165.231 635.542C176.673 642.818 187.11 647.403 197.753 649.272C203.829 650.279 210.252 650.557 217.602 650.247L218.458 650.208L219.165 650.174C223.575 649.949 227.642 649.58 235.126 648.787L237.932 648.489L241.433 648.033L242.924 647.835C249.536 646.949 253.744 646.268 258.119 645.32L258.591 645.217L258.604 645.207C258.723 645.121 258.853 645.042 259.041 644.936L259.204 644.844C259.646 644.598 259.812 644.475 259.896 644.32L259.907 644.299L260.118 643.869L260.769 643.915L260.779 643.909C260.914 643.835 261.05 643.763 261.189 643.692L261.398 643.586L261.611 643.481L261.699 643.439L261.952 643.393L262.223 643.341C262.731 643.24 263.218 643.122 263.939 642.929L264.514 642.773L264.725 642.715L264.932 642.785C266.611 643.355 267.056 644.944 266.08 646.165L266.038 646.217L266.007 646.252L266.003 646.287C265.944 646.686 265.667 646.982 265.248 647.249L265.188 647.287L265.097 647.34L265.023 647.382L264.996 647.419C264.934 647.498 264.864 647.571 264.785 647.638L264.724 647.688L264.661 647.735L264.632 647.754L264.06 648.123L263.871 648.242C263.446 648.505 263.126 648.671 262.783 648.79L262.706 648.816L262.701 648.82C261.297 650.182 259.135 650.922 255.889 651.539L255.55 651.603L255.38 651.634L254.866 651.726C238.09 654.723 220.872 655.546 203.77 654.183C201.112 653.97 198.467 653.705 195.843 653.39L194.969 653.283L193.93 653.151L192.796 653.015L192.499 652.977L192.206 652.938C189.609 652.581 188.084 652.073 186.719 650.863L186.645 650.796L186.543 650.702C185.986 650.173 184.919 650.539 184.904 651.226L184.905 651.265L184.907 651.31C184.98 652.338 184.347 652.988 183.328 653.173C182.64 653.298 181.761 653.231 180.698 653.019C180.286 652.937 179.856 652.834 179.402 652.713L179.079 652.625L178.637 652.497C178.574 652.478 178.509 652.459 178.444 652.44L177.475 652.149L176.282 651.822C175.827 651.696 175.327 651.555 174.692 651.376L171.294 650.418L170.472 650.191C169.752 649.993 169.143 649.83 168.503 649.664L168.195 649.584L167.45 649.44L167.184 649.386L166.944 649.334C164.423 648.773 163.995 648.083 163.943 644.922L163.939 644.641L163.805 643.432L163.723 642.733C163.63 641.955 163.543 641.299 163.447 640.671L163.391 640.311L163.371 640.191L163.296 639.745C163.29 639.712 163.178 639.198 163.134 638.978C163.074 638.672 163.027 638.387 162.995 638.114C162.921 637.484 162.93 636.971 163.067 636.559C163.234 636.052 163.604 635.728 164.084 635.67L164.14 635.665L164.16 635.663L164.203 634.888Z" fill="white"/>
<path fill-rule="evenodd" clip-rule="evenodd" d="M102.27 341.606L104.015 342.547C110.722 346.16 118.1 349.164 126.543 351.838L127.232 352.055C133.52 354.022 140.008 355.714 148.951 357.803L149.279 357.88L151.227 358.332L153.261 358.8C180.601 365.416 209.036 365.329 235.947 358.449L236.53 358.32C242.697 356.936 247.228 355.552 251.428 353.61C254.511 352.184 257.013 350.522 258.819 348.547L258.936 348.417L259.836 347.41L260.16 348.72C260.616 350.566 260.824 352.527 260.843 354.761L260.845 355.038L260.823 355.324L260.796 355.637C260.705 356.672 260.581 357.668 260.358 359.208L260.312 359.523L259.937 362.051C259.731 363.467 259.615 364.377 259.526 365.307L259.495 365.647L259.476 365.869L259.459 366.264C259.041 375.536 257.469 385.033 254.781 395.506L254.658 395.982L254.472 396.697L254.227 397.624C252.344 404.693 250.345 411.024 246.597 422.091L246.098 423.562L243.543 431.062C243.151 432.215 242.827 433.171 242.534 434.043L242.41 434.412L241.282 437.797L240.612 439.618L240.004 441.28C233.586 458.853 229.446 471.635 226.262 484.523L226.041 485.425C222.037 501.884 220.107 517.053 220.427 531.856C220.728 549.378 217.368 567.43 210.74 586.517L210.364 587.592L209.375 587.554C195.032 587.034 180.936 588.523 167.615 592.052L167.186 592.167L166.483 592.356L166.307 591.64C166.253 591.368 165.338 586.319 164.797 583.971L164.763 583.828L164.693 583.535L164.581 583.087C163.368 578.319 161.902 575.682 160.422 575.925C158.17 576.295 154.956 579.695 151.487 584.963C150.256 586.833 149.057 588.844 148.021 590.735L147.784 591.17L147.483 591.735C146.846 592.942 146.375 593.924 146.324 594.111L146.06 595.347L145.14 594.495C144.752 594.135 144.131 593.91 143.166 593.746L142.935 593.709L141.76 593.546L141.54 593.512L141.365 593.483L140.678 593.359C138.15 592.911 135.539 592.544 132.809 592.247L132.146 592.177L131.877 592.023C127.655 589.662 121.988 589.113 117.049 590.493L116.726 590.586L116.212 590.497C113.404 590.023 110.624 589.775 107.948 589.779L107.614 589.781L106.804 589.789L106.963 588.452C107.047 587.737 107.129 587.012 107.21 586.276L107.344 585.036C107.653 582.14 107.906 579.491 108.225 575.803L108.484 572.759L109.311 562.769C109.39 561.837 109.46 561.017 109.533 560.191L109.638 559.002L109.711 558.213C111.843 535.314 115.863 512.095 121.682 488.471L121.933 487.457L123.019 484.902L123.512 487.037C123.78 488.197 123.873 489.336 123.775 490.513C123.743 490.905 123.967 491.109 124.377 491.108C124.828 491.107 125.169 490.836 125.205 490.397C125.401 488.015 124.897 485.87 123.65 483.183L123.573 483.017L123.435 482.73L123.294 482.44L122.855 481.556L122.242 480.337L120.496 476.9C116.475 468.964 114.669 464.891 113.244 459.911L113.156 459.599L113.045 459.202L112.083 455.77L111.871 455.003C111.434 453.403 111.126 452.172 110.855 450.914L110.757 450.452C108.656 440.533 107.132 430.82 105.217 416.102L105.038 414.722L104.693 412.029L103.774 404.799L103.991 404.558C104.676 403.794 105.052 402.644 105.233 401.057L105.255 400.853C105.317 400.281 105.416 399.791 105.623 398.986L105.71 398.654L105.878 398.029L106.029 397.46C106.16 396.952 106.249 396.546 106.311 396.163L106.338 395.981L106.372 395.899C106.899 394.635 107.197 393.192 107.379 391.291L107.395 391.111C107.423 390.808 107.444 390.546 107.467 390.22L107.476 390.094L107.616 387.907L107.756 385.985L107.842 384.729C107.866 384.366 107.89 383.994 107.916 383.599L107.968 382.774L108.213 378.733L108.446 374.994L108.448 374.93L108.449 374.903L108.443 374.447L108.442 374.251L108.444 374.081C108.459 373.444 108.529 373.07 108.824 372.773C109.241 372.355 109.839 372.302 110.835 372.398L110.929 372.407C111.017 372.416 111.106 372.426 111.202 372.438L111.3 372.45L112.018 372.544L112.156 372.559L112.228 372.566L112.325 372.572C114.152 372.747 116.374 372.439 117.944 371.707C119.725 370.877 120.523 369.641 120.17 367.913L120.158 367.859L120.145 367.818C119.892 367.07 119.386 366.488 118.377 365.675L118.184 365.522L117.602 365.068L117.434 364.936L116.564 364.238C116.275 364.007 115.984 363.774 115.677 363.53L115.443 363.344L108.976 358.231L107.744 357.251L107.045 356.692L105.954 355.814L105.849 355.723C105.677 355.572 105.519 355.422 105.317 355.223L105.123 355.029L104.566 354.463C103.814 353.706 103.404 353.356 102.874 353.053L102.325 352.747L102.557 351.941L102.652 351.604C103.619 348.103 103.837 345.552 103.055 343.536L103.017 343.44L102.27 341.606Z" fill="#FFCF77"/>
<path fill-rule="evenodd" clip-rule="evenodd" d="M192.075 149.911C192.066 149.779 191.871 149.738 191.835 149.878C191.277 152.004 190.866 154.012 191.03 156.24C191.359 160.819 192.9 165.315 195.616 169.033C195.666 169.102 195.718 169.173 195.77 169.244C197.06 171.012 198.842 173.454 201.225 173.409C202.201 173.39 202.691 172.548 202.555 171.664C202.236 170.104 201.048 168.926 199.868 167.756C199.099 166.993 198.333 166.233 197.815 165.374C202.325 166.398 207.319 167.969 210.934 170.927C217.02 175.648 217.392 185.146 212.532 190.895L212.419 191.031C209.605 194.368 205.428 196.157 201.294 197.259C180.268 202.795 146.246 196.837 138.556 173.651C138.221 170.208 141.528 168.492 144.298 167.055C144.635 166.88 144.964 166.709 145.277 166.54L145.541 166.395C146.904 166.016 148.265 165.629 149.626 165.241C151.951 164.579 154.276 163.917 156.613 163.295C155.78 164.777 154.753 166.135 153.53 167.405C152.609 168.36 151.55 170.252 153.103 171.169C154.74 172.133 156.327 170.293 157.244 169.089L157.406 168.875C160.323 165.078 161.707 160.179 161.109 155.42L161.099 155.347C160.945 154.163 160.781 152.912 160.197 151.855C160.101 151.703 159.988 151.576 159.875 151.449C159.704 151.257 159.534 151.066 159.43 150.793C159.373 150.649 159.159 150.701 159.192 150.857C159.274 151.24 159.203 151.686 159.133 152.13C159.085 152.432 159.037 152.734 159.038 153.014C159.038 153.228 159.042 153.441 159.045 153.653C159.054 154.184 159.062 154.714 159.028 155.246C158.874 157.832 158.11 160.429 156.929 162.712C148.742 163.233 140.63 163.917 132.643 165.933C93.1944 176.469 72.3198 218.062 64.6116 255.217C56.903 293.14 67.471 331.6 79.3457 367.539C79.6117 368.337 80.1579 368.816 80.7849 369.03C80.3603 375.983 81.2914 382.899 82.2213 389.806C82.5965 392.592 82.9715 395.377 83.2572 398.163C83.3036 398.605 83.3367 399.058 83.3702 399.513C83.47 400.876 83.5722 402.27 84.0385 403.531C85.4328 407.704 90.19 407.472 91.2606 403.235C91.8115 405.261 92.8874 407.093 95.3454 407.153C98.3282 407.222 98.7172 404.554 98.7753 402.174L98.7821 401.801C99.5592 403.269 100.445 404.865 101.786 405.972C101.897 406.844 102.008 407.716 102.118 408.588C103.995 423.372 105.875 438.18 109.063 452.751C109.282 454.208 109.735 455.585 110.284 456.944C110.547 457.828 110.79 458.713 111.033 459.595C111.57 461.543 112.104 463.482 112.836 465.395L113.018 465.88C114.481 469.74 116.367 473.446 118.249 477.143C119.668 479.931 121.084 482.714 122.315 485.553C109.589 514.549 106.539 546.253 103.533 577.502C103.148 581.502 102.764 585.494 102.361 589.473C102.065 589.543 101.72 589.591 101.359 589.641C100.006 589.829 98.4332 590.047 98.4019 591.601C98.4376 592.048 98.4851 592.498 98.5464 592.948L99.0728 592.907C101.206 592.742 103.159 592.747 105.015 592.95C106.219 593.074 107.359 593.269 108.446 593.543C108.62 593.586 108.778 593.658 108.915 593.753L108.972 593.796L109.003 593.821L109.277 593.879L109.656 593.964L109.833 594.005L110.519 594.168C110.85 594.246 111.101 594.302 111.329 594.349L111.614 594.405L112.018 594.379C113.544 594.288 114.956 594.269 117.462 594.285L120.553 594.307L121.121 594.307L121.551 594.305C122.536 594.299 123.4 594.279 124.231 594.241C125.111 594.2 125.666 594.886 125.602 595.685C125.543 596.421 124.984 597.043 124.187 597.079L123.875 597.093L123.375 597.111C122.478 597.139 121.522 597.149 120.383 597.146L118.966 597.137L117.238 597.123L116.388 597.119C116.094 597.118 115.827 597.119 115.571 597.12L114.947 597.126L114.927 597.14C114.809 597.218 114.678 597.278 114.534 597.316L114.462 597.334L114.397 597.346L114.372 597.35L114.122 597.382C113.643 597.434 113.267 597.425 112.562 597.366L112.208 597.334C111.568 597.278 111.201 597.268 110.831 597.316L110.642 597.342L110.513 597.313C109.787 597.149 109.139 597.084 107.838 597.021L107.124 596.987C106.469 596.955 106.075 596.928 105.659 596.883L105.479 596.862L104.038 596.691L104.35 596.374L104.293 596.369C102.808 596.235 101.198 596.295 99.3758 596.525C99.9427 598.161 100.782 599.687 101.997 600.951C102.019 601.378 102.045 601.802 102.078 602.226C97.7944 617.241 94.8196 632.736 93.0037 648.237C90.9061 650.576 90.9561 654.141 91.2817 657.173L91.3199 657.516C91.5645 659.343 92.5691 660.516 94.0416 661.547C104.467 668.674 117.603 671.663 130.126 670.475C138.582 669.444 150.945 667.295 154.792 658.677C156.183 655.121 155.274 651.02 154.202 647.469L154.077 647.057C153.928 646.572 153.645 646.238 153.301 646.031C152.886 644.668 151.454 644.467 150.148 644.284C149.772 644.231 149.407 644.18 149.079 644.103C146.837 638.475 144.817 632.759 143.007 626.98C142.713 625.914 142.375 624.849 142.035 623.782C141.042 620.656 140.04 617.506 140.121 614.219C140.326 610.835 140.722 607.274 141.76 604.037C142.444 601.935 143.77 600.341 145.134 598.701C145.67 598.057 146.211 597.407 146.721 596.716C147.011 596.799 147.32 596.796 147.624 596.668C149.58 596 150.57 595.444 151.778 593.724C154.816 590.041 157.519 586.08 159.76 581.865C160.731 587.42 161.991 592.931 163.5 598.365C164.037 600.292 164.714 602.252 166.165 603.617C166.888 608.331 165.527 611.663 163.348 615.653L163.191 615.939C160.23 621.77 159.537 629.002 162.716 634.884C160.402 635.315 160.266 638.11 160.272 640.134L160.277 640.852L160.277 640.921C160.253 643.298 160.227 645.895 160.693 648.23C161.457 652.071 165.331 652.897 168.779 653.632C169.526 653.791 170.253 653.946 170.924 654.127C173.358 654.719 175.793 655.312 178.227 655.914C181.328 656.826 185.011 657.23 186.924 654.015C188.291 654.656 189.838 654.959 191.336 655.183L191.695 655.236C194.704 655.667 197.727 656.023 200.753 656.314C219.278 658.096 238.057 657.28 256.358 653.897C258.019 653.588 260.032 653.146 261.855 652.393C262.819 652.225 263.662 651.784 264.508 651.342C265.001 651.084 265.494 650.825 266.013 650.621C266.28 650.504 266.571 650.394 266.87 650.281C267.774 649.94 268.75 649.572 269.365 648.91C270.06 648.163 270.084 647.187 269.845 646.243L269.822 646.152C269.518 644.971 269.143 643.517 268.098 642.797C267.4 635.904 259.969 634.524 254.235 633.817L253.708 633.753L244.999 632.367C244.178 632.236 243.338 632.118 242.488 631.998C238.046 631.371 233.335 630.707 229.703 628.079C227.697 626.707 226.964 625.05 226.307 623.563C225.583 621.926 224.951 620.496 222.811 619.881C222.961 618.056 221.864 616.483 220.12 615.954C220.01 615.915 219.883 615.885 219.751 615.854C219.468 615.788 219.164 615.717 218.973 615.539C218.818 615.394 218.694 615.09 218.571 614.79C218.48 614.569 218.391 614.351 218.291 614.2C217.215 612.577 215.65 611.424 214.013 610.374L213.731 610.194C214.162 609.299 213.82 608.469 213.478 607.642C213.33 607.283 213.182 606.924 213.097 606.561C212.88 604.905 213.11 603.257 213.339 601.605C213.489 600.526 213.639 599.446 213.665 598.363C213.731 596.76 213.675 595.197 213.43 593.644L213.428 593.645L213.347 593.677L213.106 593.775L212.673 593.838C208.758 594.422 204.944 595.435 199.406 597.234L198.662 597.476L197.915 597.723L196.456 598.207C195.654 598.473 194.93 598.022 194.711 597.28C194.507 596.59 194.795 595.841 195.513 595.53L195.57 595.506L195.628 595.486L196.72 595.123L196.756 595.08C196.9 594.915 197.085 594.785 197.302 594.702L197.367 594.679L197.429 594.66L198.401 594.374L201.793 593.372L202.986 593.024C207.789 591.632 211.028 590.815 214.393 590.213L214.43 590.206C214.526 590.073 214.605 589.928 214.665 589.777L214.616 588.049L214.778 588.244C219.056 575.386 222.713 562.243 223.984 548.712C224.556 542.625 224.651 536.517 224.746 530.408C224.831 524.953 224.915 519.497 225.34 514.056C226.188 503.213 228.344 492.517 231.152 482.02C234.433 469.638 238.74 457.46 243.048 445.277C251.77 420.613 260.499 395.932 260.738 369.511C260.738 369.313 260.738 369.117 260.738 368.92C260.739 366.529 260.74 364.166 260.913 361.772C260.945 361.318 260.979 360.863 261.013 360.407C261.307 356.429 261.608 352.374 260.533 348.493C261.24 349.343 262.748 349.474 263.319 348.381C263.358 348.306 263.398 348.231 263.438 348.155C263.68 347.695 263.925 347.23 264.055 346.727C264.282 345.217 263.908 343.708 263.539 342.22C263.407 341.686 263.275 341.156 263.172 340.629C263.88 339.574 263.348 338.327 262.436 337.756C259.04 325.444 255.019 317.787 251.435 310.962C245.401 299.472 240.605 290.339 242.116 265.319C248.672 277.494 260.424 287.766 274.486 289.598C274.647 289.619 274.81 289.641 274.976 289.663C276.702 289.895 278.675 290.16 280.255 289.444C298.362 291.059 335.283 252.395 344.676 237.366C345.69 237.285 346.346 236.508 346.547 235.624C352.93 235.911 359.298 231.269 360.165 224.818C364.674 226.91 370.12 224.155 370.626 219.137C370.799 217.504 370.253 215.967 369.712 214.443C369.495 213.83 369.278 213.219 369.109 212.605C369.064 212.444 368.919 212.387 368.786 212.416C370.059 209.267 367.935 206.473 365.981 204.135L365.478 203.535C365.252 203.226 365.078 202.862 364.904 202.497C364.669 202.006 364.434 201.514 364.074 201.16C364.024 201.113 363.955 201.129 363.917 201.182C363.3 202.12 363.827 203.594 364.184 204.594C364.22 204.693 364.253 204.787 364.284 204.876L364.34 205.042C366.39 209.69 366.483 211.67 360.999 212.916C355.951 211.235 355.859 221.467 364.993 216.248C366.361 215.544 367.639 214.525 368.408 213.195C368.217 214.06 368.21 214.96 368.203 215.85C368.19 217.673 368.177 219.454 366.573 220.808C365.658 221.578 364.549 221.998 363.345 221.837C362.434 221.716 361.829 221.278 361.189 220.815C360.875 220.587 360.553 220.354 360.182 220.149C358.512 219.225 356.914 220.998 357.622 222.605C356.758 223.305 356.154 224.224 355.549 225.145C355.058 225.892 354.566 226.64 353.934 227.276C352.315 228.945 350.016 230.106 347.725 230.229C345.951 230.173 343.499 230.254 343.228 232.519C335.647 230.461 332.065 222.798 329.23 216.069L328.788 215.016C331.232 210.765 332.667 206.051 334.09 201.376C334.256 200.83 334.422 200.285 334.59 199.741L334.775 199.141C336.323 191.912 338.555 191.942 344.713 193.823L345.296 194.003C347.552 194.593 351.022 195.623 350.02 198.693C349.654 199.811 348.77 200.532 347.573 200.541L347.483 200.544C346.552 200.551 345.736 200.061 345.08 199.437C344.888 199.297 344.681 199.221 344.476 199.146C344.267 199.07 344.061 198.995 343.876 198.854C342.743 197.989 341.615 199.413 341.767 200.471C341.732 201.933 342.465 202.727 343.632 203.434L343.774 203.518C344.225 206.775 343.823 210.051 343.161 213.25C343.129 213.389 343.096 213.526 343.064 213.662C342.73 215.068 342.426 216.353 342.729 217.832C343.04 219.358 345.028 219.663 346.051 218.706C349.455 215.022 347.803 208.435 345.882 204.357C352.764 206.007 356.887 197.146 351.753 192.67C349.815 191.106 347.416 190.514 345.034 189.925C344.347 189.756 343.662 189.587 342.99 189.395C344.056 187.9 345.091 186.373 346.129 184.843C349.753 179.499 353.398 174.125 358.405 169.981C358.48 169.917 358.58 169.824 358.697 169.716C359.218 169.234 360.076 168.44 360.536 168.436C360.962 169.334 360.135 171.518 359.537 173.097C359.37 173.538 359.221 173.931 359.122 174.236L359.082 174.364C357.75 178.278 356.2 182.116 354.472 185.875C354.043 186.809 353.601 187.738 353.15 188.663C353.069 188.828 352.984 188.994 352.898 189.16C352.463 190.005 352.017 190.872 352.126 191.836C352.218 192.717 353.106 193.406 353.969 192.893C355.157 192.147 355.841 190.478 356.467 188.952C356.722 188.331 356.967 187.733 357.232 187.231C358.132 185.155 358.992 183.06 359.795 180.943C360.628 178.744 361.417 176.528 362.148 174.292L362.196 174.147C362.292 173.861 362.394 173.57 362.497 173.277C363.006 171.824 363.544 170.29 363.48 168.78C363.414 167.249 362.559 165.744 360.894 165.606C359.184 165.463 357.578 166.932 356.31 168.091C356.219 168.174 356.13 168.256 356.042 168.335L355.648 168.689C349.646 174.127 345.639 181.357 342.636 188.796L342.444 189.276C334.931 187.663 332.44 192.07 331.006 198.591C330.902 198.976 330.798 199.361 330.693 199.747C329.422 204.436 328.133 209.191 327.807 214.032C326.905 213.629 325.684 213.809 325.033 214.497C319.517 220.318 313.719 225.873 307.649 231.116L306.892 231.77C302.567 235.49 298.053 238.97 293.539 242.45C289.611 245.479 285.682 248.508 281.877 251.695C278.557 249.466 276.137 246.139 273.955 242.834L273.6 242.293C271.123 238.499 268.869 234.574 266.782 230.554C264.188 225.501 261.798 220.331 259.407 215.16C253.977 203.418 248.544 191.671 240.731 181.273C231.252 167.979 225.135 162.717 208.331 161.789C204.758 161.41 201.162 160.98 197.718 159.918L197.599 159.882C197.471 159.844 197.324 159.804 197.166 159.76C196.307 159.522 195.127 159.195 194.847 158.757C194.599 158.37 194.26 158.171 193.906 158.114C192.918 155.465 192.27 152.614 192.075 149.911ZM149.341 654.411C151.015 654.474 151.704 652.9 151.64 651.496C153.045 656.06 151.302 659.713 147.185 662.024C132.839 669.628 114.485 668.508 100.204 661.278C98.8342 660.571 97.4947 659.805 96.1957 658.978C96.1499 658.949 96.1039 658.92 96.0578 658.89C95.5186 658.549 94.9719 658.202 94.6855 657.611C94.1778 656.124 94.0882 654.655 94.0361 653.063L94.0013 651.939C94.8955 653.143 96.2768 654.041 97.5714 654.883C97.7514 655 97.9297 655.116 98.1048 655.232L98.3711 655.409C101.219 657.312 104.304 658.822 107.503 660.033C119.349 664.428 133.418 664.159 144.605 658.037C144.708 657.976 144.812 657.914 144.916 657.852C146.518 656.894 148.198 655.891 149.341 654.411ZM164.599 636.42C164.78 636.472 164.956 636.327 164.965 636.152C180.525 646.573 198.962 652.569 217.804 650.929C228.456 650.432 239.076 649.263 249.607 647.609C251.445 647.317 253.28 647.009 255.114 646.682C255.559 646.584 256.019 646.511 256.481 646.438C257.782 646.233 259.1 646.025 260.137 645.226L260.139 645.222C261.53 644.878 262.916 644.524 264.302 644.162C265.134 644.708 265.155 646.157 264.521 646.845C264.477 646.949 264.427 647.05 264.37 647.151C264.49 647.83 261.247 649.401 260.608 649.455C258.937 650.257 256.856 650.676 255.407 650.938L254.328 651.13C237.725 654.05 220.749 654.824 203.944 653.485C200.75 653.228 197.558 652.897 194.381 652.487L194.257 652.471C194.014 652.44 193.769 652.411 193.522 652.382C191.249 652.112 188.869 651.829 187.151 650.197L187.114 650.163C186.126 649.286 184.208 649.894 184.313 651.37L184.317 651.441C184.365 653.485 179.949 652.134 178.248 651.614C178.073 651.56 177.926 651.515 177.816 651.484L176.718 651.182C175.805 650.93 174.894 650.672 173.983 650.414C172.148 649.894 170.313 649.375 168.468 648.901L168.35 648.878C165.14 648.26 164.818 648.198 164.772 644.925L164.768 644.608C164.585 642.942 164.402 641.283 164.115 639.633C164.105 639.575 164.084 639.482 164.058 639.363C163.859 638.454 163.333 636.053 164.599 636.42ZM103.158 352.403C103.99 349.538 104.8 345.95 103.669 343.174C118.382 351.101 134.837 355.282 151.059 359.027L153.086 359.493C180.345 366.089 208.904 366.097 236.093 359.146C241.425 357.968 246.749 356.556 251.72 354.257C254.682 352.887 257.707 351.026 259.821 348.474C260.64 352.503 260.033 356.546 259.428 360.577C259.165 362.33 258.902 364.081 258.757 365.828C257.89 386.786 251.077 406.751 244.333 426.512C243.075 430.198 241.82 433.877 240.606 437.554C229.421 467.897 218.998 499.14 219.707 531.87C220.03 550.686 216.058 569.165 209.858 586.863C195.447 586.297 180.935 587.738 166.993 591.482C165.564 585.691 164.473 579.83 163.554 573.939C173.78 550.228 179.158 524.946 184.516 499.763C185.681 494.285 186.846 488.812 188.059 483.361C194.7 452.483 200.205 421.088 199.187 389.391C199.185 389.185 198.898 389.194 198.876 389.391C193.878 432.184 185.551 474.487 175.858 516.445C171.636 535.124 166.879 553.818 159.213 571.424C158.769 571.801 158.486 572.337 158.512 573.01C156.622 577.297 154.389 581.436 151.694 585.275C150.716 586.683 149.683 588.051 148.585 589.373C148.421 589.564 148.254 589.754 148.087 589.944C147.028 591.148 145.962 592.359 145.617 593.976C144.825 593.242 143.506 593.066 142.345 592.911C142.01 592.867 141.687 592.824 141.394 592.769L140.795 592.661C137.999 592.166 135.187 591.784 132.363 591.487C127.788 588.865 121.743 588.395 116.679 589.859C113.731 589.342 110.656 589.044 107.6 589.072C108.424 582.148 108.992 575.225 109.561 568.295C109.813 565.222 110.065 562.146 110.34 559.069C112.559 534.754 116.856 510.704 122.768 487.023C123.034 488.101 123.16 489.229 123.058 490.457C122.908 492.282 125.758 492.27 125.908 490.457C126.15 487.504 125.321 485.015 124.068 482.42L123.925 482.126C123.198 480.656 122.452 479.191 121.706 477.726C118.632 471.689 115.55 465.636 113.744 459.084C113.566 458.44 113.385 457.799 113.204 457.158C112.593 454.992 111.984 452.836 111.513 450.623C108.792 437.845 107.045 424.895 105.392 411.941L104.515 405.034C105.464 403.974 105.799 402.415 105.949 400.995C106.037 400.138 106.272 399.272 106.508 398.404C106.71 397.66 106.912 396.916 107.022 396.174C107.948 393.955 108.106 391.385 108.255 388.966C108.285 388.479 108.315 387.999 108.35 387.528L108.451 386.139C108.606 383.953 108.737 381.765 108.869 379.576C108.96 378.058 109.051 376.539 109.15 375.021C109.156 374.937 109.153 374.804 109.151 374.648C109.142 374.169 109.13 373.47 109.321 373.277C109.649 372.948 110.75 373.096 111.559 373.204C111.839 373.242 112.084 373.275 112.25 373.282C115.721 373.614 121.885 372.343 120.84 367.676C120.429 366.371 119.349 365.533 118.308 364.725C118.217 364.654 118.126 364.583 118.036 364.513L117.873 364.384C116.04 362.91 114.193 361.453 112.346 359.995C110.362 358.43 108.378 356.865 106.412 355.279C106.029 354.948 105.672 354.583 105.314 354.218C104.652 353.543 103.99 352.866 103.158 352.403ZM83.9195 367.622C90.9528 366.186 98.3333 362.231 101.867 355.804C102.24 356.133 102.57 356.516 102.9 356.898C103.193 357.237 103.485 357.576 103.807 357.876C104.577 358.597 105.401 359.267 106.221 359.935C106.553 360.205 106.884 360.474 107.21 360.746C108.326 361.69 109.443 362.615 110.557 363.538C112.622 365.248 114.678 366.951 116.703 368.752C115.213 369.585 113.569 369.503 111.921 369.42C110.621 369.355 109.32 369.29 108.091 369.674C105.545 370.619 105.442 373.257 105.35 375.6C105.339 375.884 105.328 376.164 105.313 376.436L105.215 378.166C105.185 378.696 105.154 379.226 105.123 379.756C104.987 382.11 104.851 384.464 104.738 386.82L104.726 387.059C104.703 387.497 104.675 387.945 104.646 388.398C104.528 390.267 104.403 392.242 104.629 394.115C103.673 396.304 103.156 398.586 103.004 400.978C102.565 400.86 102.095 400.917 101.757 401.147C99.9553 397.939 99.4296 394.071 99.0439 390.421L98.96 389.614C98.765 387.706 95.9579 387.618 95.9151 389.614C95.8969 390.518 95.8803 391.423 95.8645 392.328L95.7726 397.758L95.6988 401.976C95.6992 402.085 95.7102 402.23 95.7226 402.394C95.7762 403.102 95.8552 404.146 95.205 404.048L95.161 404.043C94.1817 403.893 93.8916 401.246 93.6887 399.394C93.6234 398.798 93.5671 398.284 93.4998 397.963L93.4809 397.879L92.3409 389.756C92.0821 387.919 89.4127 388.545 89.2844 390.168L89.2089 391.044C88.9139 394.464 88.6188 397.885 88.3656 401.308C88.3532 401.4 88.3423 401.502 88.3307 401.611C88.2613 402.265 88.1668 403.153 87.565 403.394C87.0483 402.93 86.8807 402.202 86.7629 401.523L86.6958 401.123C86.0544 395.234 85.1035 389.387 84.1527 383.54C83.3729 378.745 82.5931 373.95 81.984 369.131C82.8603 369.006 83.6631 368.461 83.9195 367.622ZM105.272 258.643L106.223 253.748C106.511 257.676 107.454 261.566 108.396 265.452C109.978 271.977 111.557 278.492 110.033 285.163C108.886 289.294 107.109 293.201 105.331 297.107C103.421 301.304 101.511 305.502 100.383 309.979C99.9603 301.052 100.22 292.119 101.219 283.237C102.173 274.972 103.693 266.803 105.272 258.643ZM356.007 191.424C355.83 191.351 355.757 191.618 355.889 191.708C359.116 194.024 360.909 197.686 360.781 201.646L360.779 201.732C360.682 204.594 359.41 208.366 356.238 208.946C356.302 208.261 355.613 207.735 354.941 207.886C354.469 207.996 353.998 208.18 353.569 208.413C352.035 207.74 350.352 206.86 349.284 205.545L349.27 205.529C349.193 205.452 349.055 205.508 349.08 205.63L349.093 205.72C349.479 208.32 351.124 211.112 353.917 211.584C356.216 212.515 358.741 211.489 360.425 209.714C365.499 204.21 362.747 194.215 356.007 191.424Z" fill="black"/>
<path fill-rule="evenodd" clip-rule="evenodd" d="M221.342 76.9011C220.816 75.5727 219.885 73.9029 218.329 73.8363C217.126 70.1567 214.134 66.4094 209.972 66.5089C197.755 54.0152 182.376 54.6041 166.296 57.2489C157.813 58.8224 149.199 61.9036 142.872 67.9838C135.294 75.142 132.343 87.6322 138.277 96.6839C133.149 99.4325 133.049 105.955 135.242 110.662C132.606 112.485 132.446 116.911 135.414 118.301C135.257 118.948 135.368 119.616 135.669 120.191C134.197 121.416 132.282 122.321 130.698 123.099C129.998 123.443 129.594 124.005 129.426 124.638C124.226 128.05 111.258 136.388 111.413 143.025C111.336 146.487 113.904 148.766 117.025 149.673C115.168 153.385 113.759 157.722 115.536 161.726C116.027 162.936 119.708 166.492 119.894 166.558C120.218 166.835 125.498 164.411 128.065 163.174C128.563 166.411 132.024 168.108 135.008 166.998C137.838 166.145 139.577 163.75 141.361 161.571C143.73 166.738 150.699 166.798 155.204 164.57C159.249 162.701 162.324 159.276 164.037 155.148C173.133 159.601 183.775 160.9 193.657 159.121C194.291 160.243 195.695 160.997 196.946 160.563C202.201 158.983 208.011 158.894 212.466 155.275C221.751 148.61 222.532 136.322 221.885 125.848C221.311 115.405 221.813 104.874 219.915 94.5437C220.739 91.5021 222.109 88.8132 223.377 85.9558C224.754 82.9596 224.725 78.5054 221.342 76.9011Z" fill="#D08B5B"/>
<path fill-rule="evenodd" clip-rule="evenodd" d="M179.19 56.1714L179.551 56.1728C180.148 56.1767 180.743 56.1885 181.337 56.2081C184.478 56.3115 187.752 56.7189 191.439 57.4162L192 57.5239C192.917 57.7035 193.739 57.8836 195.049 58.1897L197.649 58.8026C198.974 59.1112 199.948 59.3247 200.847 59.4964L200.965 59.5187C200.965 59.5187 207.895 62.8406 210.133 65.026L210.356 65.2458L210.451 65.3408L211.424 65.3715L211.434 65.4944L211.442 65.4957C212.408 65.646 213.282 66.1464 214.095 66.9255L214.182 67.0101L214.265 67.0938C214.899 67.7379 215.404 68.4243 216.099 69.5122L216.257 69.7608L216.54 70.2095L216.769 70.5699C216.918 70.8056 217.061 71.0388 217.198 71.2698L217.334 71.5001L217.431 71.6695L219.944 73.1351C220.306 73.3463 220.635 73.6196 220.936 73.9469L221.018 74.0375L221.098 74.1308L221.783 74.9454L221.645 75.0891L221.711 75.1768L221.831 75.3405L221.947 75.5065L222.061 75.6746L222.11 75.7485L222.184 75.908L222.22 75.9877L222.248 76.0532L222.334 76.0973L222.508 76.4123C223.414 78.0466 223.902 79.9027 223.935 81.8099C223.958 83.1255 223.796 84.3203 223.41 85.4729C223.144 86.2698 222.786 86.8961 222.169 87.7582L221.681 88.4277L221.581 88.5659L221.462 88.7339C221.443 88.7609 221.425 88.7874 221.406 88.8138C220.613 89.9634 213.83 92.1393 209.661 92.2445L209.535 92.2471L209.375 92.2486C208.977 92.2504 208.592 92.2361 208.222 92.2051C206.618 92.071 205.119 91.7335 203.377 91.1816L203.015 91.0648L201.096 90.42C201.035 90.3998 200.986 90.3836 200.952 90.3728L200.776 90.3179C200.354 90.1883 200.046 90.1138 199.837 90.0868L199.795 90.0816L199.79 90.161L199.789 90.2358L199.789 90.2967C199.801 91.18 199.265 91.824 198.433 92.2344C197.903 92.4957 197.22 92.6823 196.363 92.8224L196.226 92.8442C194.825 93.0606 193.155 93.153 190.36 93.2164C190.254 93.2188 190.146 93.2174 190.038 93.2125C189.438 93.185 188.967 93.0827 188.09 92.831L187.675 92.7121L187.451 92.65C187.034 92.5374 186.802 92.4924 186.582 92.4801L186.519 92.4775L186.455 92.4764C186.192 92.476 186.002 92.5347 185.814 92.6776L185.718 92.7543L184.43 93.8338C184.262 93.9734 184.112 94.0973 184.001 94.1851L183.957 94.2205C182.188 95.6071 180.502 96.3992 178.516 96.4745L178.383 96.4785L178.245 96.4801C178.144 96.4803 178.043 96.4784 177.941 96.4746C177.105 96.4427 176.236 96.1327 175.051 95.5347L174.805 95.409L174.633 95.3193C174.545 95.2731 174.454 95.2245 174.354 95.1714L173.47 94.6981L173.018 94.4619C172.478 94.1842 172.177 94.0501 171.974 93.9948L171.941 93.9861L171.922 94.0044C171.453 94.4625 171.05 95.0389 170.617 95.8347L170.552 95.9558L170.457 96.1361L169.842 97.3611L169.725 97.5889C169.269 98.4731 168.907 99.0382 168.435 99.534C167.748 100.254 166.917 100.671 165.899 100.738L165.797 100.744L165.675 100.747C165.196 100.751 164.688 100.678 164.137 100.525L164.009 100.488L163.884 100.45C163.063 100.19 161.765 100.352 160.735 100.899C159.616 101.493 158.999 102.399 159.027 103.558C159.04 104.133 159.107 104.75 159.223 105.419L159.256 105.602C159.409 106.429 159.616 107.258 159.935 108.364L160.62 110.678L160.698 110.948L160.775 111.226C160.887 111.631 160.976 111.983 161.049 112.315C161.329 113.584 161.375 114.537 161.095 115.349C159.858 118.93 157.711 120.831 155.267 120.912L155.182 120.914L155.078 120.914C153.2 120.894 151.499 119.67 151.52 118.085C151.522 117.919 151.553 117.764 151.608 117.624L151.633 117.565L151.645 117.54L151.626 117.493C151.049 116.111 149.714 115.103 148.147 114.905L148.058 114.895L147.971 114.886C147.884 114.879 147.799 114.874 147.717 114.871L147.638 114.869L147.542 114.868C145.454 114.871 143.387 116.262 141.761 118.536C141.423 119.011 141.108 119.528 140.825 120.075L140.732 120.259L140.28 121.184L139.975 122.078C138.293 127.003 139.144 132.156 142.428 134.821L142.528 134.901C143.711 135.828 145.102 136.392 146.587 136.544C146.758 136.561 146.93 136.572 147.096 136.577L147.219 136.579L147.36 136.579C147.844 136.572 148.307 136.512 148.722 136.4C149.062 136.308 149.298 136.197 149.462 136.055C149.505 136.018 149.54 135.985 149.57 135.951L149.595 135.921L149.604 135.908L151.848 136.241C152.23 138.664 153.333 141.175 155.127 144.054L155.24 144.235L155.437 144.545L155.637 144.856C157.748 148.103 160.102 150.836 162.689 152.934L162.87 153.08L163.113 153.272L163.335 153.446C163.768 153.782 164.128 154.043 164.488 154.276L164.579 154.334L165.43 154.873L165.035 155.8C164.113 157.962 162.841 159.927 161.273 161.601L161.125 161.757L160.036 162.881L159.198 161.814C159.192 161.806 159.173 161.795 159.15 161.791L159.135 161.789H159.127L159.115 161.791L159.102 161.794L159.088 161.8C158.461 162.14 158.116 162.4 157.621 162.909L157.549 162.984L157.466 163.072L157.351 163.192C156.836 163.719 156.287 164.168 155.688 164.541C154.304 165.404 152.768 165.883 151.178 165.926L151.028 165.929L150.878 165.929C150.824 165.929 150.77 165.928 150.716 165.926C147.398 165.834 144.425 163.708 142.963 160.592C142.905 160.468 142.852 160.428 142.753 160.42L142.725 160.419L142.69 160.418C142.447 160.42 142.148 160.565 141.981 160.76L141.952 160.797L141.392 161.548L141.178 161.832C139.182 164.452 137.544 165.885 135.344 166.32C135.171 166.354 134.987 166.375 134.793 166.384L134.674 166.389H134.605C133.659 166.391 132.569 166.117 131.718 165.634C130.594 164.996 129.899 164.013 129.987 162.796L129.994 162.718L130.009 162.588C130.083 161.938 129.563 161.585 129.165 161.904L129.138 161.927L129.105 161.957C127.465 163.494 125.58 164.674 123.549 165.402L123.369 165.465L123.102 165.556C121.821 165.989 120.918 166.203 119.967 166.22C119.144 166.234 118.46 165.937 117.965 165.366C117.635 164.986 117.433 164.563 117.231 163.945L117.198 163.84L117.124 163.6L117.079 163.444C116.49 161.371 116.477 159.154 116.939 156.707C117.285 154.88 117.835 153.115 118.76 150.64L118.94 150.163L119.31 149.19C119.348 149.093 119.125 148.752 118.987 148.713L118.971 148.711L118.845 148.724C118.757 148.732 118.668 148.738 118.577 148.742L118.439 148.745H118.348C115.343 148.714 113.048 145.767 113.069 142.646C113.092 139.721 114.563 137.207 117.371 134.222L117.615 133.965L117.878 133.692L118.139 133.425C120.634 130.884 123.185 128.667 125.841 126.765L126.061 126.608L126.305 126.435C127.2 125.808 128.069 125.239 129.273 124.491L129.981 124.053L132.852 120.665C132.921 120.626 132.989 120.587 133.056 120.548L133.093 119.373L135.859 119.43C135.157 119.069 134.575 118.632 134.103 118.072C132.533 116.21 132.73 113.624 134.639 112.353L134.706 112.309L135.511 111.812L136.17 112.39C136.743 112.893 137.352 113.227 137.986 113.381L138.086 113.404L138.583 113.509L138.679 113.665L138.735 113.584C138.735 113.576 138.733 113.568 138.731 113.56L138.726 113.549L138.715 113.533L138.653 113.456L138.584 113.373C138.363 113.114 138.115 112.862 137.665 112.428L137.349 112.124L137.103 111.885C136.458 111.252 136.115 110.859 135.749 110.314C134.84 108.958 134.327 107.428 134.305 105.875C134.261 102.645 136.27 99.5915 139.246 98.1978C139.35 98.149 139.427 97.8021 139.302 97.5728C136.42 92.284 135.62 85.9444 137.068 80.0471C138.419 74.5448 141.78 69.6882 146.592 65.9679C154.852 59.5809 166.31 56.2873 178.468 56.1739L178.836 56.1714H179.19Z" fill="#ECDCBF"/>
<path fill-rule="evenodd" clip-rule="evenodd" d="M135.017 121.23C135.564 121.092 135.858 121.828 135.394 122.123C132.445 123.999 129.398 125.675 126.549 127.716C123.84 129.656 121.337 131.866 119.003 134.243L118.745 134.507C116.635 136.678 114.298 139.44 114.274 142.642C114.256 145.131 116.175 147.848 118.852 147.521C119.861 147.398 120.788 148.678 120.436 149.6L120.066 150.573C118.576 154.508 117.061 158.967 118.237 163.108L118.28 163.256C118.565 164.204 118.865 165.041 119.965 165.022C120.987 165.004 122.049 164.66 123.005 164.331C124.989 163.649 126.787 162.511 128.313 161.08C129.663 159.814 131.387 161.1 131.205 162.709L131.199 162.76C130.95 164.565 133.826 165.403 135.133 165.145C137.714 164.635 139.554 162.048 141.02 160.077C141.725 159.129 143.436 158.756 144.055 160.077C145.281 162.692 147.81 164.647 150.768 164.729C152.304 164.771 153.778 164.334 155.08 163.523C155.611 163.192 156.086 162.798 156.521 162.352L156.629 162.239C157.274 161.556 157.719 161.192 158.542 160.746C159.353 160.306 160.403 160.852 160.398 161.811C160.391 163.053 160.027 163.879 159.17 164.78C158.462 165.527 157.619 166.182 156.734 166.705C154.955 167.757 152.839 168.348 150.768 168.28C147.503 168.172 144.386 166.544 142.366 164.013C140.303 166.479 137.744 168.746 134.419 168.685C131.93 168.639 129.61 167.343 128.498 165.335C126.929 166.417 125.207 167.263 123.365 167.816L123.2 167.864C120.593 168.623 117.591 168.925 115.913 166.336C114.337 163.905 114.219 160.539 114.581 157.76C114.903 155.278 115.667 152.921 116.544 150.596C114.048 149.851 112.11 147.506 111.445 144.979C110.438 141.157 112.391 137.45 114.805 134.61C117.428 131.525 120.729 128.916 124.055 126.632C127.372 124.355 131.088 122.215 135.017 121.23ZM220.302 91.3349C220.308 91.2288 220.482 91.1915 220.498 91.3082C221.643 99.622 222.307 107.919 222.856 116.29C223.134 120.531 223.451 124.767 223.797 129.003C224.129 133.065 224.681 137.234 224.556 141.313C224.361 147.699 221.26 152.891 216.176 156.628C211.304 160.209 205.26 161.979 199.331 162.727C195.887 163.162 192.395 163.182 188.948 162.774C187.157 162.562 185.369 162.28 183.615 161.856L182.857 161.667C181.476 161.314 179.934 160.835 179.737 159.199C179.642 158.407 180.062 157.822 180.742 157.425C181.628 156.906 182.644 157.211 183.557 157.448C185.096 157.846 186.651 158.188 188.224 158.424C191.602 158.932 195.074 158.962 198.469 158.61C204.18 158.018 210.204 156.166 214.608 152.34C216.521 150.678 218.185 148.652 219.06 146.245C220.186 143.151 220.019 139.776 219.981 136.536C219.894 129.003 219.971 121.47 219.866 113.935C219.761 106.378 219.853 98.8809 220.302 91.3349ZM162.872 56.1284C169.545 54.4072 176.317 53.96 183.172 54.4781C189.636 54.9663 197 56.4128 202.28 60.3891C202.536 60.582 202.383 60.9473 202.065 60.8968C198.536 60.3341 195.095 59.3107 191.581 58.6336C188.2 57.9823 184.759 57.4933 181.317 57.38C169.676 56.9963 156.722 59.6345 147.335 66.8929C142.933 70.2961 139.574 74.8723 138.237 80.3172C136.866 85.9018 137.608 91.9413 140.361 96.9932C140.758 97.7206 140.594 98.8713 139.767 99.2585C137.257 100.434 135.47 103.037 135.509 105.846C135.527 107.209 135.997 108.515 136.752 109.642C137.55 110.833 138.765 111.666 139.658 112.778C140.009 113.216 140.023 113.819 139.744 114.223C140.266 114.452 140.83 114.574 141.343 114.845C141.779 115.074 141.791 115.789 141.343 116.015C140.211 116.585 138.986 115.98 138.221 115.06C138.085 114.896 137.967 114.725 137.859 114.55C136.943 114.356 136.123 113.897 135.407 113.268C134.041 114.086 133.855 115.905 135.027 117.296C135.626 118.006 136.477 118.444 137.337 118.759L137.44 118.796C138.277 119.093 139.043 119.259 139.587 119.929C139.945 119.181 140.357 118.477 140.816 117.835C142.484 115.501 145.048 113.43 148.091 113.693C150.474 113.899 152.539 115.605 153.028 117.96C153.064 118.134 152.801 118.27 152.723 118.088C151.579 115.421 147.961 115.324 145.806 116.713C143.271 118.348 141.886 121.427 141.331 124.296C140.784 127.122 141.1 130.558 143.214 132.708C144.08 133.587 145.257 134.195 146.485 134.355C147.086 134.434 147.616 134.357 148.19 134.241L148.57 134.162C148.834 134.107 149.097 134.063 149.374 134.087L149.787 134.143L150.021 134.253C150.224 134.344 150.206 134.319 149.966 134.177C150.667 134.12 151.029 134.638 151.068 135.206C151.09 135.22 151.112 135.236 151.13 135.258C153.79 138.514 155.765 142.256 158.589 145.406L159.415 146.328C161.54 148.692 163.965 151.255 166.851 152.481L167.195 152.623C168.035 152.978 168.878 153.463 168.985 154.475C169.081 155.382 168.366 156.065 167.542 156.276C165.666 156.758 163.527 155.09 162.152 153.996C159.197 151.643 156.713 148.645 154.662 145.489L154.46 145.175C152.773 142.542 151.189 139.538 150.696 136.413L150.608 136.557C150.601 136.567 150.596 136.575 150.592 136.579C150.492 136.716 150.381 136.831 150.253 136.941C149.908 137.239 149.487 137.413 149.049 137.531C148.229 137.753 147.329 137.797 146.485 137.71C144.772 137.535 143.17 136.883 141.815 135.821C137.691 132.586 137.204 126.566 138.872 121.683C137.503 122.009 135.944 121.088 134.875 120.299C133.649 119.393 132.639 118.085 132.397 116.547C132.157 115.021 133.13 112.999 134.574 112.41C133.076 110.612 132.204 108.06 132.114 106.017C131.958 102.463 133.846 99.1035 136.745 97.1643C134.019 91.3218 133.493 84.5435 135.329 78.34C138.971 66.03 151.172 59.146 162.872 56.1284ZM152.486 149.658L152.52 149.55C152.811 148.598 153.186 146.704 154.608 147.425C155.967 148.114 155.099 150.152 154.624 151.144C154.056 152.331 153.074 153.283 151.755 153.538C150.682 153.745 149.505 153.479 148.754 152.65C148.536 152.409 148.412 152.144 148.282 151.851C148.232 151.737 148.209 151.659 148.2 151.609C148.187 151.664 148.152 151.747 148.063 151.845C147.464 152.499 146.899 153.261 146.464 154.035C146.361 154.218 146.037 154.089 146.119 153.889C146.625 152.651 146.54 150.738 147.668 149.842C148.662 149.053 149.596 149.674 150.122 150.593L150.149 150.641C150.917 152.037 152.142 150.711 152.486 149.658ZM141.673 145.186L141.777 145.042C142.84 143.589 144.632 141.841 146.426 143.193C146.996 143.622 147.018 144.34 146.426 144.766L146.202 144.926C145.419 145.481 144.638 146.006 144.063 146.803C143.437 147.669 142.876 148.586 142.035 149.266C140.548 150.467 138.144 150.704 136.854 149.085L136.727 148.924C136.619 148.785 136.495 148.617 136.395 148.45L136.316 148.559C136.309 148.57 136.302 148.58 136.295 148.59L136.277 148.617C135.747 149.465 135.077 150.163 134.242 150.714C132.656 151.76 130.869 151.906 129.075 151.352C128.899 151.297 128.946 151.062 129.116 151.046C131.242 150.848 133.314 149.337 134.179 147.392L134.276 147.174C134.626 146.4 135.018 145.665 135.883 145.361C136.724 145.065 137.608 145.377 138.185 146.014C138.668 146.546 138.792 147.604 139.662 147.371C140.615 147.115 141.152 145.921 141.673 145.186ZM135.584 132.264C136.055 131.906 136.793 132.29 136.922 132.808C137.51 135.156 135.07 137.923 132.725 137.995C132.121 138.014 131.541 137.868 131.006 137.588C130.591 137.372 130.1 136.818 129.645 136.726C129.057 136.608 128.536 137.391 128.122 137.793C127.609 138.292 127.101 138.755 126.525 139.18C126.295 139.35 125.939 139.065 126.036 138.804L126.23 138.285C126.935 136.439 128.149 133.743 130.419 134.509C131.532 134.884 132.37 136.151 133.541 135.148C134.479 134.345 134.567 133.036 135.584 132.264ZM145.604 122.812C147.721 120.382 152.697 121.665 153.641 124.622C153.849 125.275 153.632 126.124 153.122 126.586C152.45 127.195 151.492 127.379 150.676 126.901C149.974 126.491 149.686 125.819 149.17 125.242C148.413 124.397 147.384 123.928 146.323 123.592C146.058 123.731 145.812 123.914 145.59 124.135C145.477 124.248 145.263 124.093 145.363 123.96C145.5 123.779 145.667 123.609 145.857 123.452L145.765 123.425C145.486 123.347 145.426 123.017 145.604 122.812ZM159.363 95.9789C159.837 95.9796 160.39 96.4252 160.329 96.9455L160.311 97.0899C160.174 98.0803 159.856 98.6411 158.865 99.1013C158.024 99.4912 157.14 99.7066 156.218 99.792C155.87 99.8242 155.5 99.8261 155.126 99.7984L155.047 100.253C154.891 101.162 154.746 102.072 154.719 102.999C154.668 104.717 155.309 106.133 155.997 107.667C157.316 110.613 157.465 113.555 156.028 116.497C155.818 116.927 155.223 117.278 154.742 117.234C154.12 117.178 153.819 116.998 153.457 116.497C153.153 116.076 153.222 115.482 153.433 115.042L153.457 114.994C154.181 113.591 154.409 112.006 154.04 110.464C153.692 109.015 152.905 107.712 152.554 106.268C151.981 103.914 152.591 101.579 153.782 99.5604C152.883 99.3013 152.051 98.8396 151.496 98.1355L151.499 98.1345C151.287 97.9082 151.402 97.4354 151.774 97.4638L152.195 97.4978C153.398 97.5983 154.505 97.7029 155.721 97.3676C156.345 97.1955 156.883 96.9086 157.418 96.5612L157.533 96.4859C158.203 96.0408 158.574 95.978 159.363 95.9789ZM162.241 78.584C165.257 78.4127 167.831 80.4029 169.083 83.0522C170.442 85.9284 169.872 89.2286 168.672 92.0585L168.331 92.8505C167.734 94.2227 166.951 95.8546 165.729 96.5909C164.356 97.4181 163.17 96.4589 163.574 94.9342C163.816 94.0262 164.469 93.3258 164.997 92.5764C165.49 91.8765 165.95 91.1522 166.353 90.3966C167.143 88.9148 167.733 87.2638 167.727 85.5661C167.716 82.4675 165.668 78.9163 162.241 78.9618C161.997 78.9647 162.001 78.5976 162.241 78.584ZM177.492 73.5843C177.304 73.4416 177.472 73.1243 177.683 73.2582C181.179 75.4823 183.79 79.6601 184.316 83.7644C184.608 86.0416 184.385 88.4752 183.415 90.5767C182.859 91.7827 181.904 92.9338 180.57 93.2644C179.342 93.5681 178.078 92.8672 177.697 91.6694C177.549 91.2046 177.803 90.7185 178.187 90.4646C179.431 89.642 180.433 88.6039 181.019 87.2074C181.629 85.7555 181.872 84.2147 181.879 82.6485C181.897 78.9808 180.433 75.8198 177.492 73.5843ZM220.207 75.1739C220.045 74.9944 220.249 74.7299 220.463 74.8423C222.991 76.1719 224.597 78.7188 225.058 81.5082C225.509 84.239 224.902 87.9567 222.788 89.9317C221.595 91.0466 219.459 89.5639 220.45 88.1279C221.149 87.1151 221.905 86.2811 222.305 85.0844C222.662 84.0167 222.789 82.94 222.769 81.818C222.727 79.3701 221.852 76.9988 220.207 75.1739ZM189.3 71.7542C193.619 71.5484 196.237 76.4794 196.836 80.1548C197.207 82.4255 196.928 84.7644 195.675 86.7339L195.601 86.8486C194.566 88.422 192.685 90.2334 190.659 89.4884C189.801 89.1735 189.573 88.2546 190.149 87.5575C191.031 86.4905 192.394 86.0556 193.223 84.9163C194.153 83.6386 194.457 82.0378 194.403 80.484L194.396 80.3123C194.252 77.4541 192.889 71.9683 189.3 72.0654C189.099 72.0706 189.101 71.7634 189.3 71.7542ZM202.809 70.935C206.987 70.401 209.531 75.3161 210.315 78.702C210.805 80.8188 210.913 83.1801 210.286 85.281L210.239 85.4306C209.729 86.9985 208.223 89.685 206.258 88.8837C205.72 88.6643 205.17 88.0663 205.428 87.4216C205.757 86.5975 206.232 86.3838 206.865 85.8564C207.353 85.4504 207.694 84.8676 207.944 84.2936C208.612 82.7637 208.761 80.9764 208.67 79.3277L208.657 79.1326C208.421 75.9124 206.675 71.1133 202.809 71.2016C202.632 71.2056 202.644 70.9558 202.809 70.935ZM210.458 66.3141C212.783 65.4286 214.688 67.652 216.024 69.2388C217.699 71.2271 219.217 73.3689 220.076 75.844C220.841 78.0494 220.975 80.5015 220.286 82.7465C219.945 83.8581 219.414 84.8888 218.689 85.7961L218.596 85.9105C217.842 86.8309 217.113 87.3965 215.877 87.0669C215.373 86.9326 215.161 86.4351 215.248 85.9596C215.434 84.9438 215.958 84.68 216.636 83.9709C217.234 83.3454 217.677 82.5751 217.976 81.7653C218.591 80.0946 218.623 78.2845 218.21 76.5634C217.748 74.6366 216.838 72.8572 215.786 71.1899L215.559 70.8328C214.444 69.07 212.854 66.3554 210.502 66.6414C210.3 66.6661 210.298 66.3748 210.458 66.3141Z" fill="black"/>
<path fill-rule="evenodd" clip-rule="evenodd" d="M185.666 136.607C189.644 133.946 209.778 134.467 211.636 136.508C213.495 138.549 217.79 144.374 208.59 147.235C199.391 150.096 188.003 149.093 185.036 145.591L184.861 145.382C182.056 141.976 181.767 139.214 185.666 136.607Z" fill="white"/>
<path fill-rule="evenodd" clip-rule="evenodd" d="M203.01 120.962C204.803 122.05 207.536 124.587 205.606 127.284C203.335 129.662 200.066 126.935 198.455 125.702C196.961 124.746 195.282 127.204 196.668 128.32C208.311 136.923 213.036 121.247 203.917 119.683C202.913 119.511 202.54 120.626 203.01 120.962ZM186.806 100.215L187.252 100.137L187.481 100.099C188.817 99.8782 190.4 99.7308 191.322 100.777C191.84 101.364 192.018 102.455 191.322 103.016C190.099 104.005 188.746 103.622 187.28 103.705C186.071 103.775 184.91 103.974 183.746 104.306C181.193 105.034 179.112 106.364 176.931 107.824C176.645 108.016 176.353 107.65 176.489 107.383C177.748 104.922 180.188 102.901 182.632 101.669C183.936 101.011 185.364 100.465 186.806 100.215ZM198.619 134.212C202.521 134.495 210.978 132.636 214.49 135.424C227.724 151.917 175.256 156.157 180.922 137.911C184.531 132.011 192.833 134.382 198.619 134.212ZM197.949 144.168C196.984 144.09 195.813 144.853 195.53 145.442C195.246 146.032 195.356 147.278 195.364 147.494C197.052 147.664 198.754 147.69 200.446 147.579C200.006 146.128 199.992 144.388 197.949 144.168ZM205.74 146.603C205.469 144.802 204.178 144.375 203.133 144.646C202.064 144.922 201.437 146.15 201.505 147.243C201.509 147.319 201.466 147.383 201.437 147.443C202.89 147.272 204.329 146.99 205.74 146.603ZM193.772 144.495C193.164 143.571 191.71 143.125 190.779 143.288C189.258 143.607 189.078 145.536 189.078 145.929C190.48 146.462 191.968 146.816 193.391 147.098C193.677 147.154 193.964 147.205 194.25 147.252L194.269 147.018C194.304 146.517 194.329 145.34 193.772 144.495ZM210.974 144.342C209.415 141.935 206.063 143.658 206.34 146.288C206.638 146.195 206.935 146.097 207.23 145.994C208.455 145.568 209.798 145.062 210.974 144.342ZM198.699 136.048C196.601 135.859 194.881 135.923 193.513 136.176L193.471 136.632C193.32 138.213 193.125 139.768 193.957 140.404C194.632 140.92 196.875 140.871 198.379 140.497C198.75 140.404 199.233 137.125 198.699 136.048ZM201.942 135.859C201.606 137.418 201.448 139.31 202.123 139.872C202.836 140.465 205.13 140.385 205.73 139.989C206.256 139.643 206.242 138.052 206.047 136.266C204.885 135.992 202.862 135.859 201.942 135.859ZM192.585 136.192L191.899 136.198L191.51 136.203C190.527 136.22 189.466 136.277 188.464 136.495C186.472 140.791 193.745 141.532 192.622 136.351L192.585 136.192ZM206.972 136.295L206.96 136.539C206.9 137.745 206.939 139.334 207.609 139.763C208.595 140.394 210.445 140.272 211.448 137.353C211.116 136.482 207.597 136.359 206.972 136.295ZM187.67 110.684C188.091 110.684 188.494 110.826 188.861 111.09C189.222 111.35 189.549 111.729 189.821 112.202C190.336 113.097 190.658 114.333 190.658 115.699C190.658 117.065 190.336 118.301 189.821 119.196C189.549 119.669 189.222 120.048 188.861 120.307C188.494 120.571 188.091 120.714 187.67 120.714C187.249 120.714 186.846 120.571 186.479 120.307C186.118 120.048 185.792 119.669 185.519 119.196C185.004 118.301 184.682 117.065 184.682 115.699C184.682 114.333 185.004 113.097 185.519 112.202C185.792 111.729 186.118 111.35 186.479 111.09C186.846 110.826 187.249 110.684 187.67 110.684ZM214.326 110.684C214.747 110.684 215.15 110.826 215.517 111.09C215.878 111.35 216.204 111.729 216.477 112.202C216.992 113.097 217.314 114.333 217.314 115.699C217.314 117.065 216.992 118.301 216.477 119.196C216.204 119.669 215.878 120.048 215.517 120.307C215.15 120.571 214.747 120.714 214.326 120.714C213.905 120.714 213.502 120.571 213.135 120.307C212.774 120.048 212.447 119.669 212.175 119.196C211.66 118.301 211.338 117.065 211.338 115.699C211.338 114.333 211.66 113.097 212.175 112.202C212.447 111.729 212.774 111.35 213.135 111.09C213.502 110.826 213.905 110.684 214.326 110.684ZM210.699 99.1128L211.041 99.1825L211.267 99.2304C214.948 100.021 219.615 101.578 221.338 105.145C221.405 105.66 221.334 105.77 221.276 105.842L221.257 105.866C221.21 105.928 221.172 106.013 220.948 106.083C220.886 106.068 220.824 106.052 220.76 106.036C219.954 105.825 219.316 105.534 218.699 105.233L218.03 104.904C217.253 104.524 216.469 104.158 215.639 103.887C213.867 103.31 212.044 102.904 210.193 102.687C209.792 102.64 209.405 102.505 209.1 102.273C208.811 102.053 208.59 101.749 208.489 101.344C208.359 100.821 208.396 100.425 208.678 99.9522C208.889 99.5975 209.192 99.3516 209.54 99.2104C209.895 99.0665 210.298 99.0326 210.699 99.1128Z" fill="black"/>
</svg>
