<svg width="391" height="780" viewBox="0 0 391 780" fill="none" xmlns="http://www.w3.org/2000/svg">
<path fill-rule="evenodd" clip-rule="evenodd" d="M270.006 388.609C276.261 388.749 273.579 330.391 269.402 319.637C268.817 317.457 268.334 314.479 268.432 311.805C273.597 312.322 273.041 308.786 272.775 304.522C272.862 301.137 273.098 294.152 267.916 296.872C252.383 265.773 269.178 185.385 228.28 177.813C223.352 176.616 218.258 175.378 214.109 171.961C209.718 163.845 207.482 162.808 200.207 162.283C198.86 154.973 196.342 147.163 188.838 144.318C181.967 141.626 173.971 141.411 166.808 142.848C160.878 144.782 160.336 155.804 159.019 161.238C151.033 159.12 141.191 154.666 136.891 164.763C134.809 164.14 132.879 164.544 130.763 165.237C113.028 168.095 95.8202 176.118 89.2422 192.859C85.1788 202.905 88.0625 213.841 89.5864 224.246C91.0076 235.575 87.26 246.071 85.5227 256.968C82.9361 271.974 82.4683 284.011 84.1563 295.164C79.6947 296.179 79.3657 300.238 81.1707 304.484C81.7008 305.921 82.2347 307.436 83.4068 308.248C85.7912 309.749 88.8728 308.02 91.4641 307.755C92.0031 313.747 93.0468 319.627 94.7736 326.31C94.2735 328.31 93.6999 330.544 93.1848 332.552L93.011 332.364C87.0951 357.144 69.5005 381.214 74.9689 407.55C75.2905 408.427 75.9007 408.244 76.3692 408.229C79.0837 409.261 81.5772 408.606 84.3146 408.712C90.8077 408.716 97.0809 409.548 102.9 410.272C103.964 417.221 107.423 428.598 113.59 431.247C113.694 431.283 115.522 430.902 115.675 430.891C99.256 497.467 69.7136 559.029 57.9788 626.946C57.9092 627.775 59.2578 627.337 59.7003 627.437C59.6397 629.322 60.8574 629.775 62.5625 630.445C60.3653 635.039 58.386 639.627 56.1986 644.232C55.1843 646.512 53.5314 648.763 53.2301 651.2C50.8086 652.748 49.1776 655.773 49.2208 658.597C42.6908 661.357 44.4656 674.989 42.9759 681.741C41.4694 691.8 34.3041 698.825 29.391 707.072C28.3898 708.727 27.3236 710.897 27.2763 712.976C24.2306 714.404 23.0949 717.523 23.2965 722.773C23.2856 728.916 25.0182 731.254 29.6901 731.403C42.3799 732.671 57.1878 732.155 69.9512 730.712C79.4991 729.498 87.96 730.506 85.8252 719.033C85.3859 716.255 86.2297 712.516 84.586 710.268C83.5724 703.577 84.1621 696.832 86.3475 690.222C87.6762 684.656 89.9208 673.159 88.9907 665.689C88.5605 662.234 81.508 660.333 80.2666 660.165C80.6615 657.564 80.4877 653.02 79.0884 651.212C81.6579 650.854 82.3037 650.175 82.8389 647.321C84.1177 642.699 84.2879 637.681 87.4548 633.787C93.1506 633.86 98.8273 632.415 104.52 632.239L104.803 631.585C108.17 631.542 111.519 630.947 114.714 629.781C115.423 630.116 116.33 630.404 116.728 629.331L118.629 623.386C140.759 552.959 165.29 482.363 189.208 412.452C190.604 409.053 192.283 405.441 194.467 402.412C195.206 445.188 204.167 487.917 204.937 530.672C205.976 560.085 205.709 589.188 208.475 618.705C209.187 624.952 209.944 624.744 210.877 624.361C211.251 624.419 212.13 624.607 212.511 624.687C211.888 630.895 211.17 640.972 208.508 647.321C202.624 648.229 203.677 652.744 204.983 656.487C203.579 657.686 203.778 660.481 204.195 662.028C198.658 662.033 197.451 666.537 197.832 669.379C198.359 674.131 198.064 681.527 201.235 685.586C203.103 690.762 206.143 695.647 207.33 701.223C208.077 705.326 207.788 711.302 208.508 715.372C206.697 716.208 207.465 717.519 207.159 720.056C205.592 731.669 211.109 729.695 220.863 730.495C226.71 731.786 271.221 734.355 269.298 726.629C269.626 723.482 268.162 722.101 267.536 719.003C267.254 718.181 261.709 708.666 258.401 705.064C247.308 694.64 247.792 680.647 248.144 664.528C247.491 660.159 244.13 655.975 239.842 656.446C241.073 651.779 238.791 647.723 234.022 646.373C234.498 641.09 235 633.912 236.744 629.342L235.101 627.67L237.3 627.933L238.03 626.095L238.826 628.109C242.601 628.109 246.86 627.272 250.476 626.878C251.053 626.911 250.795 626.126 250.89 625.823C254.305 625.116 254.679 623.302 254.075 618.978C254.871 548.784 254.525 479.248 253.438 408.923C258.775 409.161 263.978 407.214 269.223 405.917C271.086 407.086 271.614 402.922 271.396 402.024C271.1 397.371 270.524 392.833 270.006 388.609Z" fill="#D08B5B"/>
<path fill-rule="evenodd" clip-rule="evenodd" d="M93.9484 325.139C95.045 329.009 96.272 334.742 97.5575 338.561C99.8682 349.145 101.602 359.891 102.736 370.664C103.116 374.266 103.413 377.868 103.849 381.452C103.406 383.784 104.316 390.409 103.783 392.726C94.5436 394.44 81.6351 401.749 74.2289 407.582C71.8464 388.007 82.7789 366.082 87.4566 347.592C87.767 346.404 88.0763 345.204 88.3728 343.996C89.7098 340.236 92.3288 330.783 93.2563 327.001L93.3812 326.486L93.555 326.674L93.9484 325.139ZM213.446 171.353C214.485 172.005 215.566 172.556 216.676 173.033C225.311 177.998 240.47 178.15 245.689 187.87C259.171 215.905 259.591 263.345 267.176 296.737C267.594 298.579 271.501 296.609 271.926 298.396C272.98 302.832 271.881 307.097 273.113 311.117C268.304 312.355 255.824 313.168 251.027 314.435C252.214 318.542 265.026 351.783 270.11 399.167C268.269 398.754 266.472 398.156 264.714 397.469L264.039 397.176C254.148 392.873 238.603 386.18 227.87 384.455C221.072 343.078 214.86 299.117 214.085 256.86L214.052 254.909C213.823 242.409 212.29 230.021 210.365 217.686L210.259 216.819C209.216 208.228 208.329 199.28 210.351 190.797C211.005 190.997 209.131 186.432 208.279 180.602C207.751 176.991 209.214 172.817 207.091 169.225C204.144 164.238 200.133 170.615 200.441 169.225C200.596 168.527 196.548 160.038 198.067 160.93C199.723 161.904 205.904 161.878 208.279 164.248C213.468 169.427 214.414 173.366 213.526 171.519L213.446 171.353ZM125.169 167.37C127.328 166.949 133.594 164.838 135.844 164.959C134.525 167.775 137.744 155.242 147.956 158.086C148.403 158.21 158.924 159.814 158.88 161.878C158.852 163.262 147.278 164.898 146.293 166.618C145.137 168.639 147.106 174.718 146.293 176.81C143.853 183.093 145.006 184.832 145.742 184.16C146.324 185.06 146.405 186.34 146.523 187.534L146.656 188.829C148.801 209.258 153.251 229.377 154.873 249.868C157.217 272.794 152.148 295.428 150.516 318.2C149.183 338.716 150.986 360.699 150.258 381.214C150.159 382.352 149.805 383.894 149.087 384.897L149.016 384.993L149.009 384.995L148.725 385.052C143.518 386.102 135.748 389.377 130.39 389.347C125.39 379.636 119.972 354.8 121.595 337.976C122.801 325.47 124.444 309.298 124.444 306.217C124.444 300.644 92.1459 309.298 82.6463 308.113C79.5206 307.723 79.3724 304.162 79.0274 298.364C78.929 296.71 82.6001 295.965 82.6463 294.13C82.9807 280.838 82.9469 263.074 83.106 262.03C84.4535 251.626 87.9118 241.525 88.378 231.015C88.5334 220.406 84.1141 210.042 85.8989 199.404C88.4954 183.912 102.323 173.159 116.656 169.222C119.456 168.367 122.305 167.926 125.169 167.37Z" fill="#9FD8E5"/>
<path fill-rule="evenodd" clip-rule="evenodd" d="M144.786 181.853L144.828 182.175L144.868 182.498C146.012 191.741 153.212 245.969 154.053 255.243C155.73 273.732 151.423 294.518 151.28 313.09C151.243 317.893 152.409 352.519 151.395 354.657C151.092 355.297 146.932 362.539 154.843 360.492C172.712 355.869 213.219 338.681 222.072 338.464C220.744 338.252 219.991 337.187 219.816 335.829C219.649 334.531 216.492 304.994 215.185 274.241C213.747 240.381 208.448 181.346 208.278 180.602C204.964 182.348 200.441 205.014 187.379 205.014C174.317 205.014 157.218 189.371 147.481 173.728C145.477 170.509 145.527 182.201 144.786 181.853Z" fill="#8FA7DF"/>
<path fill-rule="evenodd" clip-rule="evenodd" d="M236.292 648.69L236.496 648.799L236.546 648.831C237.596 649.493 238.306 650.649 239.3 652.825L239.855 654.071L240.806 654.328C244.468 655.319 247.197 657.711 249.664 663.294L249.738 663.464L249.814 663.638C250.643 665.567 250.957 667.7 250.881 670.215L250.875 670.404L250.864 670.672C250.797 672.174 250.649 673.413 250.244 676.036L249.949 677.921L249.864 678.471C249.355 681.809 249.177 683.68 249.227 685.788C249.266 687.443 249.478 688.962 249.889 690.394C251.562 696.223 254.839 702.299 259.061 708.135C260.521 710.154 267.161 721.407 267.219 721.642L267.335 722.117L267.445 722.576C267.463 722.651 267.48 722.726 267.498 722.801L267.635 723.389L267.719 723.762C268.008 725.05 268.22 726.148 268.351 727.069L268.368 727.194C268.604 728.924 268.595 729.948 268.012 730.776L267.973 730.83L267.877 730.959L267.759 731.069L267.687 731.134L267.613 731.197L267.392 731.379L267.126 731.483C266.188 731.848 262.928 732.771 259.504 733.495C253.948 734.67 248.173 735.358 242.466 735.323C240.793 735.313 239.053 735.25 237.249 735.139C232.377 734.838 227.227 734.198 221.775 733.292L220.827 733.132L219.826 732.956C216.281 732.323 211.188 731.328 210.271 731.161L210.184 731.145L210.148 731.145C208.046 731.079 206.697 729.67 206.187 727.537L206.165 727.442L206.145 727.349C205.805 725.748 205.889 723.707 206.298 721.42C206.641 719.509 207.457 708.724 207.457 708.724L204.397 698.544C204.397 698.544 197.935 669.244 198.955 665.315L198.978 665.23C199.115 664.744 204.885 661.274 205.191 660.547C205.502 659.809 204.758 651.308 205.07 650.437L205.101 650.357L205.13 650.285L205.143 650.256C205.463 649.536 208.509 646.498 216.828 646.089C219.983 645.934 226.14 645.483 230.128 646.089C233.843 646.654 235.477 648.257 236.292 648.69ZM75.1091 654.131L75.5184 654.226L75.6042 654.178C76.3265 653.779 76.9495 653.568 77.7369 653.606C78.7881 653.657 79.7231 654.207 80.489 655.187C80.9406 655.765 80.737 660.5 80.7322 660.727L80.7313 660.786L80.731 660.893L80.7313 660.924L80.7517 660.939C81.0615 661.147 81.7266 661.278 83.0423 661.353L83.3416 661.368L83.967 661.396C85.048 661.448 85.6036 661.5 86.2441 661.636L86.3107 661.65C87.4859 661.907 88.4201 662.404 89.0694 663.286C90.1075 664.696 90.306 666.67 90.0062 669.194C89.9018 670.073 82.9603 696.044 82.47 698.271C81.728 701.643 83.1491 719.508 83.3039 721.168C83.4902 723.164 83.5234 724.963 83.3651 726.407C83.1382 728.478 82.5509 729.927 81.1782 730.576L81.1039 730.61L80.944 730.681L80.512 730.778L80.2396 730.837C77.4297 731.437 74.7413 731.747 70.2578 732.076L66.8359 732.319L66.0862 732.375C65.0477 732.455 64.2586 732.523 63.4639 732.603L62.7613 732.676L62.7344 732.678C50.915 733.593 36.523 733.683 26.1414 732.784L25.5321 732.73L25.0774 732.715C23.4208 732.651 22.3899 731.535 21.8479 729.864L21.8203 729.778L21.7936 729.69C21.4902 728.67 21.342 727.465 21.2672 725.838L21.2411 725.176C21.2366 725.043 21.2326 724.907 21.2283 724.747L21.1868 723.058L21.1749 722.688C21.1668 722.463 21.1581 722.276 21.1477 722.103L21.1345 721.904L21.087 721.601C20.7673 719.519 39.9119 694.275 40.9577 691.464C42.2324 688.039 44.2971 661.598 45.1877 660.543L45.2169 660.509L47.9257 657.454L48.3204 661.483L48.3232 661.478C48.3877 661.34 48.4359 661.205 48.4646 661.082L48.4772 661.022L48.4865 660.964L48.4902 660.936L48.4949 660.908C48.9736 658.036 50.4906 655.863 52.8641 654.443C54.8578 653.25 57.3887 652.618 60.3832 652.443C64.7395 652.188 69.5755 652.856 75.1091 654.131Z" fill="white"/>
<path fill-rule="evenodd" clip-rule="evenodd" d="M160.416 151.449C161.209 152.076 161.126 153.811 161.204 154.783L161.21 154.847C161.459 157.782 161.121 160.731 160.406 163.581L160.295 164.015C159.953 165.377 159.614 167.01 158.544 167.944C157.328 169.005 155.398 168.318 155.354 166.607C155.332 165.812 155.597 165.046 155.933 164.301C153.579 165.209 151.224 166.108 148.86 166.984C147.349 179.473 164.797 194.763 174.898 200.116C189.608 208.258 201.986 195.786 203.869 181.125C204.185 179.178 204.397 177.176 204.439 175.202L204.441 175.012C204.449 173.38 204.178 171.197 205.242 169.84C204.459 169.821 203.764 169.931 202.997 170.051L203.034 170.115C203.468 170.892 204.082 172.824 202.707 172.971C199.738 172.659 198.357 167.454 197.633 164.958L197.604 164.849C197.137 162.978 196.542 156.188 197.95 155.374C198.383 157.049 198.212 158.868 198.739 160.549C199.936 161.031 202.218 161.162 202.746 161.25C208.916 161.322 212.415 165.751 214.916 170.935C222.247 176.952 232.785 175.918 240.702 180.873C264.927 198.433 257.016 266.79 269.082 295.871C271.498 294.872 273.96 296.873 274.283 299.315C274.616 301.194 274.516 303.205 274.543 305.108L274.555 305.346C274.752 309.238 275.425 313.613 270.168 313.698C270.176 315.871 270.585 317.974 271.11 320.071C274.021 332.768 275.292 345.845 275.578 358.861L275.593 359.817C275.687 366.658 275.771 387.822 271.838 390.326L272.021 391.817C272.477 395.545 272.906 399.283 273.145 403.03C273.523 404.975 272.238 409.635 269.618 408.402C264.811 409.59 260.071 411.344 255.076 411.353C256.287 451.609 255.685 491.906 255.864 532.178C255.478 561.864 257.083 591.795 255.68 621.367L255.731 621.784C256.128 625.105 256.246 627.992 252.408 629.129C252.353 629.942 251.728 630.376 250.986 630.471C248.882 630.754 246.778 631.023 244.672 631.281C242.71 631.427 240.611 631.915 238.656 631.682C238.845 631.874 238.331 631.903 238.276 631.764C236.493 636.237 235.976 641.113 235.534 645.885C239.861 647.534 242.223 651.244 241.517 655.895C245.883 656.072 249.071 660.923 249.683 665.011C250.075 667.833 249.761 670.634 249.635 673.461C249.03 683.119 250.45 693.524 256.686 701.228C260.734 706.064 266.003 710.438 267.769 716.736C268.249 716.96 268.644 717.393 268.816 718.07L269.937 722.467L270.494 724.665C270.902 726.268 271.265 727.908 271.046 729.567L271.023 729.728C269.931 740.238 226.842 735.172 218.432 734.417C215.051 733.887 211.341 734.176 208.298 732.386C204.564 729.922 204.097 724.924 204.738 720.83L204.791 720.446C205.051 718.616 205.431 716.696 207.168 715.672C206.583 711.879 206.809 707.998 206.114 704.219C205.063 698.873 201.885 694.234 200.263 689.101C197.896 686.47 197.816 682.367 197.321 679.002C196.946 675.738 196.639 672.451 196.513 669.167C196.169 664.826 198.054 661.246 202.619 660.678C202.408 659.856 202.988 659.145 203.564 658.618C202.203 653.784 201.827 647.148 207.733 645.499C209.969 639.953 210.619 633.944 211.215 628.029C211.144 628.014 211.074 628.002 211.003 627.99C208.297 629.116 207.563 624.295 207.309 621.748L207.253 621.141C204.469 591.706 204.725 562.097 203.679 532.572L203.577 530.437C202.66 510.983 202.115 491.358 198.75 472.164C195.364 450.771 194.478 429.029 193.321 407.412C191.958 409.53 191.225 411.962 190.121 414.219C175.805 456.276 161.116 498.206 146.963 540.319C136.705 570.81 126.905 601.463 117.075 632.096C116.573 633.664 114.993 633.989 113.837 633.487C110.893 634.508 107.803 635.088 104.694 635.188C104.506 635.619 104.122 635.934 103.559 635.873C101.896 635.69 99.9824 636.21 98.3194 636.404C94.5142 636.78 90.82 637.364 86.9799 637.419C84.601 640.426 84.4515 644.504 83.3546 648.083C82.7233 649.908 82.8224 654 80.6419 654.514C81.4235 655.718 81.5258 657.163 81.3992 658.652C82.0773 658.806 82.7651 659.098 83.4031 659.396C84.0245 659.71 84.8453 659.683 85.2733 660.317C97.4518 662.524 88.5519 685.648 86.435 693.296C84.3573 699.549 83.7067 706.079 84.6549 712.607C86.1041 714.609 85.6188 717.586 85.8406 719.958C85.9573 722.076 86.1715 724.225 86.1523 726.344C85.9156 735.15 75.0442 733.718 68.9107 734.86C65.0809 735.306 61.2335 735.616 57.3864 735.857C47.6294 736.464 37.8176 736.51 28.0805 735.566C21.7937 735.367 20.4418 731.266 20.4518 725.657L20.4422 725.425C20.3005 721.618 20.9144 717.021 24.5302 715.042C24.7104 713.031 25.7309 710.999 26.7727 709.242C31.6177 701.096 38.8918 693.959 40.3226 684.184C41.726 677.785 40.1361 663.7 46.6413 660.363C46.7923 657.482 48.5622 654.545 50.7538 652.988C51.1768 650.587 52.7701 648.381 53.756 646.176C55.7668 641.964 57.6268 637.687 59.6268 633.472C58.5795 633.029 57.4668 632.214 57.3207 631.057C56.3153 631.069 55.3219 630.419 55.4436 629.196C55.7987 625.644 56.5759 622.15 57.3098 618.66L57.4013 618.223C70.4605 555.1 97.4282 496.073 113.206 433.759C111.083 434.143 109.098 431.716 107.925 430.135C104.134 425.031 101.895 418.855 100.91 412.589L99.1279 412.368C93.1852 411.639 87.2129 411 81.2205 411.172L79.7762 411.22C78.1718 411.269 76.5645 411.256 75.0393 410.679C73.9752 410.777 72.8674 410.206 72.6044 409.012C68.1661 386.894 79.0756 365.903 86.8898 345.916C88.7306 341.002 90.0408 336.017 91.2899 330.928C91.331 330.763 91.5891 330.798 91.5821 330.968C91.3386 336.625 89.9359 342.329 88.5112 347.783C83.8336 366.273 74.0885 384.405 76.471 403.98C83.8772 398.147 92.6734 394.096 101.913 392.382C102.446 390.065 103.035 387.766 103.479 385.435C103.043 381.85 102.746 378.248 102.366 374.647C101.231 363.873 99.4979 353.127 97.1872 342.543C93.6025 331.894 90.473 321.1 89.3539 309.872L89.1502 309.912C86.665 310.416 83.9267 311.511 81.621 309.929C80.1576 308.914 79.5243 307.233 78.9331 305.618C77.2441 301.702 76.9317 296.556 81.7108 294.918C79.9292 282.469 81.0868 269.473 83.2402 257.141C84.9643 246.331 88.7469 235.681 87.331 224.614C85.7591 213.98 82.828 202.842 87.0651 192.433C94.0289 175.06 111.663 166.818 129.006 164.165L129.287 164.083C131.432 163.447 133.386 162.778 135.621 163.259C140.894 153.475 149.445 157.455 157.796 159.635C158.36 157.976 158.829 156.279 159.271 154.583C159.547 153.719 159.456 151.726 160.416 151.449ZM208.747 720.419L208.726 720.846C208.505 725.426 208.754 729.351 214.433 729.321C218.341 729.738 222.25 730.145 226.164 730.498L227.633 730.628C239.25 731.664 251.008 732.171 262.603 730.615L263.087 730.549C264.056 730.412 265.85 730.439 266.617 729.722C267.542 728.478 266.471 726.105 266.247 724.661C248.154 724.45 230.037 723.783 211.932 724.013C210.028 724.023 209.169 722.396 209.344 720.914C209.13 720.768 208.928 720.601 208.747 720.419ZM25.0498 718.122C24.1601 721.25 24.3792 724.206 24.8818 727.339C25.1331 730.619 26.6936 730.829 29.5175 730.906C40.5419 731.923 51.6459 731.71 62.6732 730.857C68.5837 730.22 74.6572 730.244 80.4576 728.937C83.2248 727.71 81.6273 723.854 81.7215 721.49C68.6949 729.884 48.9941 728.819 34.7891 723.962L34.5614 723.864C31.2013 722.453 26.9058 721.564 25.0498 718.122ZM46.627 661.638C45.1294 663.328 45.0983 668.139 45.0354 669.776L45.0275 669.96C44.8593 673.399 44.8861 676.846 44.7371 680.285C44.8469 694.768 36.4833 701.992 30.2722 713.636C28.5734 716.462 31.0448 716.863 33.055 717.779C46.0721 723.837 61.4695 724.763 75.0685 720.125C81.9042 718.139 80.4119 713.539 79.8314 707.912C79.2599 696.414 85.3101 686.055 87.0998 674.932L87.148 674.645C87.6815 671.379 88.6036 663.01 83.4009 664.799C82.269 665.496 81.2047 664.622 81.071 663.554C80.9361 663.576 80.7978 663.589 80.6644 663.591C80.0627 667.308 79.4394 671.021 78.8407 674.738C79.3444 675.058 79.8168 675.42 80.2356 675.834C80.7445 676.338 80.389 677.397 79.622 677.333C79.2278 677.299 78.8382 677.239 78.4508 677.166C78.1438 680.397 73.0116 678.584 74.4942 675.994C67.115 673.444 58.9855 673.647 51.4919 675.602L51.4609 675.616C50.8808 675.846 46.7094 676.682 48.0514 677.333C48.6107 677.401 47.3373 678.132 47.114 677C47.0419 675.58 50.2842 674.882 51.2776 674.293C48.7721 670.707 47.0602 666.059 46.627 661.638ZM235.671 650.284C228.719 646.52 220.177 647.917 212.637 648.583L212.32 648.619C210.402 648.825 207.727 648.953 206.846 650.929C205.571 654.095 207.685 661.179 208.349 664.701L208.575 665.625C209.126 667.879 209.648 670.115 209.837 672.446C209.842 672.52 209.771 672.572 209.705 672.572C207.064 669.75 205.877 665.955 204.643 662.335C204.117 662.635 203.603 662.96 203.119 663.317C201.226 669.823 200.592 676.748 202.091 683.384L202.145 683.618C203.996 691.819 209.761 698.525 210.309 707.095C210.675 710.559 210.593 714.11 211.59 717.474C212.157 717.599 212.651 718.017 212.873 718.543L216.123 718.547C231.83 718.573 247.541 718.716 263.238 719.362C262.732 714.948 258.836 711.031 256.092 708.005C247.672 699.382 244.03 686.995 245.418 675.056C246.147 669.083 249.48 659.699 241.327 657.493C240.732 662.36 239.927 667.212 239.482 672.099C241.02 672.841 240.925 674.798 239.045 674.76C238.202 677.599 235.373 676.452 235.678 673.773C225.331 669.951 219.394 668.67 209.313 674.428C209.031 674.387 210.088 673.255 210.221 673.054C213.407 669.619 218.3 668.004 222.89 667.946C227.44 667.945 231.72 669.66 236.012 670.986C236.657 666.375 237.091 661.735 237.603 657.108L237.714 656.116C237.982 653.687 237.884 651.68 235.671 650.284ZM69.3782 709.835C70.8927 709.498 72.2857 708.986 73.8243 709.333C79.2394 713.401 57.113 714.548 55.2291 714.259C50.4332 714.118 45.6351 713.509 41.0195 712.154L40.6978 712.058C40.2432 711.932 35.6425 710.65 36.5149 710.079C42.7577 710.632 48.8695 711.778 55.2291 711.48C58.4018 711.413 61.5866 711.189 64.7251 710.712C66.2859 710.473 67.8393 710.182 69.3782 709.835ZM215.666 704.796C214.675 703.31 219.508 705.283 220.136 705.3C224.139 706.287 228.212 707.035 232.323 707.346C235.079 707.555 237.865 707.6 240.626 707.464C242.671 707.393 244.693 707.091 246.725 706.883L246.798 706.88C248.006 706.838 250.424 707.586 248.934 709.023C246.615 710.821 243.185 710.273 240.406 710.537C231.969 710.51 223.034 709.151 215.666 704.796ZM57.0314 693.995C59.4639 693.554 72.8535 693.411 71.5187 697.52C71.1949 698.301 70.4547 698.559 69.6755 698.437C61.3889 696.421 52.45 695.366 44.1896 698.146C44.0557 698.193 43.9632 697.973 44.0947 697.915C48.1561 695.879 52.5018 694.456 57.0314 693.995ZM230.828 689.977C233.014 689.811 235.213 689.87 237.4 690.034L238.296 690.104C239.218 690.179 240.161 690.274 241.042 690.542L241.218 690.598C242.419 690.985 245.125 693.049 243.071 694.042C240.865 694.756 238.999 693.906 236.871 693.36C230.939 691.954 224.704 692.43 218.827 693.867L219.654 694.133C219.705 694.096 219.771 694.182 219.722 694.224C219.128 694.743 218.313 694.559 217.892 693.914C217.818 693.803 217.865 693.626 217.981 693.564C221.965 691.474 226.357 690.317 230.828 689.977ZM46.0722 689.453C52.7715 686.487 60.5334 686.159 67.718 687.019L68.2299 687.082C70.4713 687.345 73.3948 687.466 74.6771 689.554C75.1203 690.278 74.6625 691.107 73.9467 691.368C71.8383 692.139 69.3594 690.595 67.3338 690.022C61.3435 688.381 54.9463 688.209 48.8553 689.342C48.8979 689.568 47.8891 689.469 47.6695 689.549C47.3941 689.533 45.567 690.138 46.0722 689.453ZM215.013 684.822C220.857 681.979 227.615 681.302 233.924 682.769L234.187 682.844C236.982 683.629 241.484 684.555 242.485 687.516C242.702 688.183 242.232 689.084 241.528 689.219C239.144 689.675 236.98 687.934 234.823 687.097C228.476 684.711 221.291 684.141 214.728 685.896C214.684 686.154 214.64 686.41 214.594 686.669C214.706 686.595 214.823 686.76 214.733 686.851C213.685 687.585 212.596 685.733 215.013 684.822ZM61.1311 679.825C65.86 679.51 70.6287 680.112 75.1939 681.359L76.0524 681.596C77.3002 681.946 78.9164 682.496 79.098 683.845C79.1686 684.382 79.0347 684.751 78.5988 685.083C77.0096 686.272 73.553 683.781 71.5769 683.488C64.403 681.332 56.7025 681.363 49.4356 683.012L49.188 683.069L49.3633 684.318C49.5354 684.914 47.9384 683.507 48.5452 682.867C52.3813 680.913 56.8576 680.176 61.1311 679.825ZM219.471 677.594C223.267 676.909 227.182 676.778 231.019 677.123L231.473 677.166C233.764 677.368 241.189 677.663 239.433 681.538C239.138 682.185 238.283 682.269 237.73 681.988C235.875 681.048 233.847 680.708 231.799 680.398C224.569 679.392 217.182 679.804 210.124 681.752C210.277 681.993 209.961 682.279 209.661 682.335C208.916 682.473 208.916 681.584 209.235 681.112C209.615 680.553 210.372 680.349 210.957 680.102C213.675 678.918 216.557 678.117 219.471 677.594ZM75.7242 656.035L75.292 655.933C68.0491 654.228 51.9914 651.171 50.3284 661.151C49.7382 665.547 51.6851 669.834 51.5412 674.187C59.0516 671.131 67.3567 671.163 75.1596 673.182C75.8508 668.665 76.5107 664.142 77.2168 659.627L77.3309 659.087C77.6453 657.564 77.752 656.373 75.7242 656.035ZM59.5922 657.852C61.1705 656.498 63.8026 656.518 65.3507 657.995C66.7666 658.292 67.7651 659.796 67.788 661.085C69.9407 664.869 67.3449 670.098 63.235 671.043C53.9547 672.999 49.8062 660.249 59.5922 657.852ZM220.377 651.813C228.142 650.426 230.963 660.279 224.59 664.275C215.587 668.793 209.589 654.59 220.377 651.813ZM63.4342 629.927C63.5486 630.68 63.178 631.217 62.7354 631.724C61.1435 638.252 58.7476 644.327 56.3852 650.585C64.0704 649.311 71.3315 650.423 78.1313 652.51C78.2127 650.601 79.0826 648.621 79.687 646.821C80.8637 643.402 82.2863 640.072 83.9271 636.855L84.1333 636.454C84.7225 635.309 85.2899 634.112 85.986 633.017C78.4644 631.989 70.9429 631.064 63.4342 629.927ZM214.918 628.536L214.718 629.445C213.854 633.385 213.035 637.362 211.75 641.19L211.733 641.269C211.536 642.235 211.094 646.708 210.815 643.551C210.601 644.026 210.372 644.496 210.128 644.959L211.991 644.737C218.937 643.922 226.184 643.271 232.997 645.016C232.29 639.537 233.331 634.303 234.85 629.122C228.191 628.969 221.591 629.018 214.918 628.536ZM88.8182 635.346C88.5748 635.575 88.3364 635.809 88.1097 636.053C88.4167 635.974 88.7235 635.897 89.0082 635.831C88.9965 635.651 88.8694 635.516 88.8182 635.346ZM238.875 630.321L238.658 630.831C238.77 630.764 238.895 630.7 239.028 630.643C238.967 630.545 238.916 630.439 238.875 630.321ZM59.3206 629.203C59.242 629.495 59.1818 629.817 59.0404 630.082C59.1524 630.102 59.2668 630.124 59.3815 630.149C59.52 629.868 59.6664 629.595 59.8244 629.326C59.6564 629.287 59.4884 629.248 59.3206 629.203ZM117.238 306.112C116.556 306.442 115.845 306.526 114.905 306.565C107.269 306.882 99.6568 307.767 92.1583 309.276C92.5722 315.345 94.4179 321.224 96.1742 327.009L96.5384 328.277C102.473 349.006 107.653 370.668 106.609 392.35C106.668 392.372 106.724 392.402 106.778 392.429C106.683 392.694 106.615 392.967 106.519 393.23L106.458 393.386L106.102 394.272C105.905 394.763 105.714 395.256 105.548 395.762C105.256 395.867 104.898 395.944 104.557 395.993C102.824 407.473 104.471 420.343 112.278 429.32C109.495 423.716 108.524 417.35 108.647 411.124L108.669 410.172C108.701 408.996 108.771 407.824 109.129 406.708C109.144 406.649 109.222 406.658 109.242 406.708C110.894 411.814 111.002 417.361 112.626 422.506L112.75 422.9C114.034 426.931 116.179 432.121 119.904 434.204C120.59 434.409 121.644 434.167 122.001 434.958L122.025 435.014L122.046 435.007C120.384 429.558 119.313 423.924 118.946 418.236L118.922 417.848C118.806 415.863 118.548 413.736 119.042 411.799C119.984 413.57 119.75 416.465 120.189 418.608L120.206 418.731C120.552 421.047 123.887 438.757 126.076 436.391C126.529 435.738 126.411 434.476 126.425 433.699L126.427 433.623C126.461 432.501 126.449 431.378 126.41 430.256C126.174 423.642 125.146 416.855 127.16 410.413C127.496 409.327 129.322 409.123 129.544 410.413C130.43 415.573 131.277 420.738 132.124 425.903C132.742 429.058 132.716 432.616 134.593 435.337C134.615 429.397 134.286 423.473 134.001 417.54L133.925 417.293C133.7 416.544 133.478 415.572 133.994 414.935C134.201 413.581 136.179 413.736 136.346 415.154C136.383 415.45 136.41 415.75 136.439 416.048C137.094 416.87 137.703 417.71 138.477 418.416C143.647 407.855 126.732 389.614 124.396 377.687C117.519 354.46 121.473 330.107 123.473 306.455C121.405 306.21 119.319 306.144 117.238 306.112ZM215.671 172.435C219.287 179.697 221.941 187.383 223.779 195.293C224.345 197.735 221.072 199.234 219.75 197.095L219.71 197.029C218.084 194.314 215.661 191.922 212.593 190.987C210.503 199.756 211.522 209.022 212.608 217.876C214.533 230.212 216.065 242.599 216.295 255.1L216.306 255.769C216.977 298.458 223.246 340.954 230.112 382.749C241.089 384.514 251.138 389.491 261.257 393.867C263.014 394.554 264.811 395.152 266.652 395.565C261.569 348.181 242.235 303.742 236.26 256.53C234.681 244.251 234.607 231.783 236.788 219.575C236.825 219.341 237.156 219.42 237.171 219.627C237.41 224.641 238.267 229.59 238.775 234.578C239.121 231.729 239.92 228.844 240.565 226.114C241.354 223.443 241.645 219.155 243.957 217.413L244.103 216.909C244.164 216.692 244.485 216.783 244.434 217C244.41 217.103 244.385 217.204 244.363 217.307C245.848 217.703 244.461 219.465 244.093 220.309C241.71 226.708 241.001 233.634 239.374 240.23C241.728 260.82 245.967 281.149 251.189 301.162C255.985 299.895 260.799 298.676 265.608 297.437C254.881 262.437 261.153 223.376 245.081 189.956C239.06 178.741 224.231 180.264 215.671 172.435ZM134.17 166.036C131.92 165.916 129.57 167.139 127.41 167.56C124.547 168.117 121.698 168.557 118.898 169.412C104.565 173.349 90.7372 184.102 88.1407 199.594C86.3559 210.232 90.7752 220.597 90.6198 231.205C90.1536 241.715 86.6953 251.816 85.3479 262.22C83.727 272.859 83.1689 283.994 84.5592 294.685C97.4165 291.029 110.844 290.801 124.029 292.688C122.929 276.485 124.372 260.201 125.17 244.009C125.745 233.61 126.729 223.164 126.381 212.746C126.373 212.514 126.748 212.458 126.784 212.689C130.738 233.968 128.419 255.57 128.019 277.03C127.766 282.452 128.436 287.926 128.165 293.318C134.159 294.612 133.943 301.616 132.11 306.233C131.785 307.344 130.682 307.151 129.789 307.016C128.822 308.035 126.515 306.706 125.199 306.706C124.17 333.344 117.916 361.796 130.731 386.693C136.089 386.723 141.247 384.87 146.454 383.82L146.738 383.763L146.746 383.761C147.511 382.762 147.885 381.157 147.988 379.982C148.715 359.467 146.438 338.907 147.77 318.39C149.402 295.618 154.471 272.985 152.127 250.058C150.506 229.567 146.056 209.448 143.911 189.019L143.802 187.962C143.668 186.702 143.618 185.311 142.996 184.35C139.377 187.655 136.341 191.584 134.167 196.005C132.964 198.14 129.739 197.19 129.69 194.779C129.226 190.474 129.157 186.153 129.627 181.847L129.67 181.467C130.252 176.078 131.877 170.933 134.17 166.036ZM268.695 313.875C264.034 314.122 259.368 314.64 254.699 314.579L255.169 316.346C260.821 337.554 266.839 358.725 270.387 380.425L270.516 378.39C270.644 376.355 270.767 374.318 270.847 372.278C271.854 352.776 270.317 333.3 268.695 313.875ZM147.372 178.523C147.392 179.404 147.436 180.283 147.504 181.159C149.658 184.398 149.466 188.702 149.949 192.427C152.652 212.546 156.633 232.581 157.974 252.909C159.222 269.17 157.184 285.374 155.101 301.472C152.532 319.908 152.802 338.535 153.399 357.096C163.268 348.142 177.296 346.57 189.749 343.789L190.341 343.668C199.916 341.703 209.471 338.854 217.606 333.257C211.756 291.312 213.133 248.827 207.151 206.918C206.967 203.618 206.929 200.299 207.202 197.002C206.939 193.432 206.861 189.842 206.854 186.263C204.233 196.837 195.449 207.053 183.941 206.719C171.697 205.999 161.304 195.947 153.321 187.331C151.156 184.761 149.004 181.76 147.372 178.523ZM255.059 313.895L254.507 313.868L254.541 313.988C254.654 313.965 254.77 313.945 254.886 313.925L255.059 313.895ZM270.248 299.571C270.16 299.544 270.011 299.544 269.846 299.551C269.607 300.103 269.125 300.558 268.565 300.709L263.893 301.974C260 303.028 256.104 304.078 252.203 305.098C252.858 307.629 253.523 310.16 254.194 312.688C259.515 310.966 265.405 311.357 270.83 310.248C270.763 307.327 270.604 304.391 270.554 301.464C270.542 300.987 270.64 300.219 270.396 299.79C270.243 299.517 270.396 299.618 270.248 299.571ZM91.5332 309.404L91.3868 309.436C91.4355 309.569 91.4796 309.702 91.521 309.837C91.5234 309.692 91.5256 309.549 91.5332 309.404ZM126.169 295.347C116.146 293.881 105.952 293.014 95.8427 294.012C91.27 294.634 86.6281 295.298 82.1467 296.147C80.5882 298.552 82.3123 304.404 84.2527 306.255C84.8346 306.477 85.8353 306.046 86.3929 305.921C90.5768 304.971 94.8013 304.206 99.0472 303.609C99.1736 303.769 99.3587 303.872 99.5875 303.85L100.563 303.76C106.419 303.223 112.327 302.83 118.195 303.166L118.239 303.2C122.198 303.491 126.144 304.118 130.087 304.572C131.643 300.48 131.375 295.785 126.169 295.347ZM199.102 161.905C199.489 163.224 199.954 164.505 200.533 165.751C201.138 165.582 201.971 165.717 202.415 166.1L202.604 166.066C203.124 165.967 203.748 165.815 203.911 165.797C211.072 164.801 210.527 174.435 210.553 179.276C210.596 181.704 210.645 184.133 210.718 186.561C212.768 185.859 215.508 187.121 217.3 188.237C215.897 183.543 214.249 178.924 212.41 174.387L212.062 173.503C210.614 169.842 209.011 166.136 205.934 163.587C203.594 162.971 201.328 162.86 199.102 161.905ZM147.175 159.488C140.518 157.101 137.881 162.526 136.035 167.937C133.858 173.929 133.264 180.527 133.627 186.975L133.851 186.676C136.3 183.394 139.831 177.975 144.297 178.845C144.253 176.355 144.342 173.618 144.818 171.031C144.54 169.362 144.469 167.676 144.662 165.989C144.764 163.875 147.054 164.196 148.562 163.897C149.867 163.023 151.448 162.671 153.035 163.286C154.233 163.126 155.431 162.974 156.629 162.821C156.813 162.415 156.961 162.007 157.116 161.59C153.801 160.901 150.486 160.191 147.175 159.488Z" fill="black"/>
<path fill-rule="evenodd" clip-rule="evenodd" d="M192.794 163.411C187.534 163.442 183.063 161.949 179.652 159.48C175.395 157.962 170.261 155.621 167.142 153.163C165.926 153.473 164.47 152.181 163.539 151.498C157.751 147.176 153.207 140.848 151.861 134.51C149.782 137.134 146.825 137.243 143.992 135.939C138.053 132.57 138.275 125.478 140.413 120.179C135.918 110.092 132.803 83.4652 139.664 72.719C141.068 71.1111 143.127 70.1493 144.61 68.5004C145.93 67.0603 147.185 65.5873 148.72 64.4478C153.404 60.8822 161.472 58.9837 166.524 58.0909C187.612 53.5313 203.814 61.7267 222.916 68.6395C221.816 71.3889 220.296 73.8962 218.553 76.234C223.295 78.0043 221.117 81.9844 217.438 84.0021L215.248 82.9374C218.662 95.1543 226.519 125.535 223.129 135.291C220.426 150.512 208.56 163.522 192.794 163.411Z" fill="#D08B5B"/>
<path fill-rule="evenodd" clip-rule="evenodd" d="M203.053 61.4663C191.491 57.5991 179.974 55.2751 166.446 58.2001C161.394 59.0929 153.326 60.9913 148.642 64.5569C147.321 65.5376 146.207 66.7654 145.081 68.0065C144.899 68.2075 144.716 68.4089 144.532 68.6095C143.797 69.4275 142.919 70.0763 142.05 70.7189C141.167 71.3716 140.294 72.0178 139.586 72.8281C132.824 83.4189 135.752 109.434 140.141 119.84H140.395H140.797L141.019 119.506L141.019 119.506L141.019 119.506L141.019 119.505L203.053 61.4663ZM215.818 85.3934C215.681 84.8916 215.548 84.4096 215.421 83.949L215.286 85.3934H215.818ZM215.49 83.2024L217.037 66.5936C218.945 67.3154 220.876 68.0388 222.838 68.7487C221.739 71.498 220.218 74.0053 218.475 76.3432C223.217 78.1134 221.039 82.0935 217.36 84.1112L215.49 83.2024Z" fill="#ECDCBF"/>
<path fill-rule="evenodd" clip-rule="evenodd" d="M195.842 164.722C189.012 165.423 180.898 163.808 176.344 158.259C176.208 158.093 176.149 157.905 176.145 157.724C176.141 157.522 176.209 157.327 176.326 157.175C176.449 157.015 176.624 156.904 176.825 156.868C176.994 156.838 177.187 156.857 177.386 156.969L177.804 157.202C180.914 158.92 184.143 160.384 187.668 161.011C191.296 161.657 194.991 161.584 198.587 160.765C205.137 159.272 210.439 155.465 214.341 150.444C218.695 144.841 221.31 137.729 221.977 130.616C222.784 121.997 220.911 113.429 218.972 105.083C216.936 96.3136 214.709 87.5887 212.123 78.9651C212.045 78.7055 212.024 78.4625 212.047 78.2387C211.284 77.9399 210.472 78.0228 209.664 78.2957C208.188 78.7942 206.717 79.9183 205.49 80.8462C205.046 81.1823 204.633 81.4947 204.262 81.7488C202.741 82.7897 201.078 83.5386 199.219 83.6564C197.285 83.7786 195.389 83.1776 193.633 82.4255C192.741 82.0434 191.863 81.647 190.989 81.2522C188.499 80.128 186.039 79.0149 183.351 78.2915C179.748 77.322 176.029 76.8444 172.298 76.8786C165.64 76.9395 158.961 78.6535 154.881 84.2853C153.228 86.5667 152.15 89.1888 152.99 92.0043C153.448 93.536 154.31 94.9264 155.252 96.2053L155.575 96.6408C156.092 97.3428 156.541 98.0419 156.676 98.7863C156.789 99.4099 156.701 100.07 156.256 100.793C155.976 101.248 155.619 101.656 155.26 102.063C155.002 102.356 154.742 102.649 154.519 102.964C154.069 103.6 153.671 104.285 153.359 104.999C152.747 106.397 152.487 107.901 152.433 109.418C152.368 111.248 152.625 113.038 152.88 114.831C153.061 116.102 153.241 117.374 153.314 118.662C153.327 118.887 153.258 119.054 153.162 119.178C153.044 119.33 152.873 119.426 152.677 119.452C152.618 119.46 152.556 119.461 152.494 119.456C152.525 119.58 152.552 119.704 152.575 119.829C152.451 119.67 152.32 119.516 152.181 119.367C152.172 119.362 152.163 119.358 152.154 119.353C152.011 119.274 151.89 119.155 151.814 119C151.617 118.818 151.409 118.644 151.191 118.481C150.055 117.634 148.728 117.131 147.397 117.115C146.114 117.098 144.828 117.535 143.839 118.458C141.874 120.292 141.298 123.285 141.278 125.856C141.257 128.479 141.864 131.628 144.151 133.257C145.069 133.911 146.189 134.303 147.318 134.315C148.254 134.324 149.15 133.993 150.031 133.678C150.303 133.58 150.574 133.483 150.844 133.396C151.151 133.296 151.43 133.302 151.674 133.375C151.948 133.457 152.181 133.627 152.355 133.854C152.529 134.079 152.643 134.362 152.678 134.658C152.712 134.944 152.673 135.242 152.551 135.51C152.521 135.577 152.489 135.643 152.455 135.707L152.959 136.534C154.885 139.694 156.845 142.796 159.415 145.512C160.891 147.071 162.454 148.542 164.17 149.829L164.417 150.013C164.565 150.122 164.729 150.256 164.905 150.399C165.405 150.808 166.005 151.357 166.564 151.379C166.731 151.385 166.876 151.365 167.007 151.347C167.326 151.305 167.594 151.293 167.856 151.4C168.068 151.487 168.287 151.648 168.513 151.98C168.665 152.205 168.743 152.488 168.743 152.774C168.743 153.062 168.664 153.35 168.523 153.577C168.232 154.048 167.879 154.34 167.497 154.506C167.07 154.69 166.599 154.719 166.109 154.627C164.902 154.402 163.566 153.402 162.716 152.75L162.552 152.624C160.668 151.187 158.882 149.597 157.313 147.819C154.64 144.791 152.24 141.222 151.007 137.323C150.138 137.894 149.064 138.165 147.942 138.208C146.306 138.27 144.575 137.849 143.3 137.244C140.488 135.911 138.781 133.389 137.981 130.49C137.052 127.122 137.354 123.251 138.53 120.226C138.564 120.138 138.6 120.05 138.636 119.961C135.015 110.785 133.901 100.595 134.211 90.8022C134.356 86.2183 134.668 81.4091 135.75 76.9385C136.234 74.9348 137.076 73.0266 138.421 71.4491C139.188 70.5496 140.128 69.8493 141.073 69.1509C141.891 68.546 142.713 67.9425 143.404 67.1872L143.731 66.8286C143.802 66.7506 143.873 66.6727 143.943 66.5949C145.137 65.2791 146.299 64.0023 147.748 62.9232C149.428 61.6721 151.282 60.6927 153.208 59.8794C157.358 58.1279 161.824 57.0777 166.243 56.2652C175.802 54.5077 185.615 54.421 195.057 56.8914C199.447 58.0398 203.707 59.6118 207.96 61.1819C208.355 61.3276 208.75 61.4734 209.145 61.6188C212.45 62.8359 215.757 64.0478 219.064 65.2597C220.601 65.8229 222.138 66.3861 223.674 66.9499C224.008 67.0723 224.334 67.3359 224.52 67.6633C224.702 67.9828 224.756 68.3555 224.609 68.7265C223.666 71.1158 222.476 73.3575 221.028 75.4508C221.531 75.7932 221.96 76.2484 222.284 76.7813C222.693 77.4553 222.936 78.2532 222.953 79.0997C223.008 81.9346 220.428 83.8563 218.288 85.2462C218.089 85.3759 217.891 85.4525 217.7 85.4876C219.774 93.4173 221.759 101.374 223.446 109.393L223.562 109.949C225.299 118.342 226.421 126.907 224.777 135.412C223.362 142.735 220.075 149.803 214.939 155.259C209.905 160.605 203.15 163.971 195.842 164.722ZM150.869 116.44C149.974 113.602 149.501 110.514 149.843 107.637C150.058 105.828 150.602 104.087 151.487 102.493C151.994 101.58 152.612 100.735 153.286 99.9386L153.519 99.6712C153.637 99.5347 153.754 99.4092 153.79 99.2518C153.811 99.1604 153.79 99.0604 153.734 98.9409C153.611 98.6763 153.383 98.4213 153.168 98.1724C153.032 98.0142 152.899 97.859 152.788 97.7079C150.828 95.0544 149.366 91.8953 149.841 88.5304C150.304 85.2474 152.456 82.1872 154.746 79.881C159.789 74.8028 167.608 73.6359 174.458 73.916C178.445 74.0789 182.426 74.7817 186.223 76.0093C188.096 76.6148 189.926 77.3522 191.705 78.1974L192.099 78.3865C192.312 78.4895 192.524 78.5937 192.737 78.6979C194.127 79.3799 195.523 80.0686 197.033 80.4394C199.981 81.1634 201.981 79.6386 204.083 78.1008C204.803 77.5737 205.535 77.0394 206.312 76.5705L206.472 76.4759C207.875 75.6628 209.552 75.1157 211.164 75.1402C212.563 75.1615 213.914 75.6085 215.013 76.6648C215.239 76.8818 215.369 77.1186 215.43 77.3542C215.551 77.5248 215.65 77.7282 215.713 77.9684C216.107 79.4464 216.499 80.9254 216.89 82.4048L217.21 82.1989C218.156 81.5841 219.185 80.8814 219.65 79.8528C219.829 79.4569 219.804 78.7973 219.578 78.3124C219.499 78.1429 219.395 77.9923 219.251 77.8982C219.147 77.8298 219.02 77.7977 218.874 77.8095C218.517 77.8555 218.189 77.8033 217.912 77.6859C217.591 77.5505 217.336 77.3278 217.17 77.0593C217 76.7845 216.923 76.4613 216.965 76.1261C217 75.838 217.124 75.537 217.37 75.2543C218.984 73.3929 220.344 71.3396 221.378 69.1108L214.541 66.5813C212.104 65.6799 209.666 64.7796 207.227 63.8828L205.892 63.3921C201.456 61.7652 196.996 60.1753 192.384 59.1279C183.217 57.0465 173.659 57.5357 164.518 59.4949L163.966 59.6142C160.13 60.4507 156.243 61.4628 152.722 63.2219C150.994 64.0854 149.352 65.1353 147.941 66.4619C147.318 67.0477 146.755 67.689 146.191 68.3296C145.402 69.2272 144.611 70.1224 143.672 70.8786L142.801 71.5764C141.504 72.6211 140.335 73.639 139.604 75.2592C138.839 76.9531 138.474 78.8244 138.176 80.6476C137.424 85.2404 137.128 89.9069 137.156 94.5591C137.204 102.371 138.391 110.023 139.89 117.648C141.093 115.927 142.782 114.592 144.951 114.308C146.365 114.122 147.766 114.386 148.982 115.011C149.684 115.372 150.324 115.854 150.869 116.44ZM148.597 125.716C147.013 125.102 145.351 124.901 143.675 125.195C143.5 125.225 143.332 125.189 143.192 125.107C143.049 125.024 142.937 124.893 142.876 124.748C142.805 124.581 142.802 124.4 142.864 124.239C142.918 124.099 143.021 123.964 143.21 123.873C145.024 123.007 147.041 122.625 149.042 122.897L149.24 122.925C150.263 123.077 151.702 123.396 152.781 124.025C153.628 124.519 154.249 125.2 154.403 126.089C154.484 126.553 154.369 127.037 154.102 127.388C153.843 127.727 153.448 127.953 152.937 127.938C152.036 127.913 151.502 127.532 150.86 127.038C150.782 126.978 150.702 126.917 150.619 126.855C149.999 126.39 149.32 125.996 148.597 125.716Z" fill="black"/>
<path fill-rule="evenodd" clip-rule="evenodd" d="M197.255 143.848C195.659 143.198 194.235 142.114 193.193 140.729C192.831 140.247 192.737 139.739 192.813 139.274C192.899 138.751 193.208 138.277 193.631 137.959C194.055 137.64 194.586 137.483 195.099 137.563C195.544 137.633 195.988 137.876 196.339 138.381L196.412 138.482C197.031 139.318 197.838 140.004 198.757 140.446C199.643 140.872 200.634 141.071 201.66 140.955C203.613 140.735 204.959 139.681 206.39 138.25C206.567 138.069 206.745 137.882 206.923 137.693C207.036 137.521 207.192 137.411 207.365 137.353C207.558 137.289 207.776 137.292 207.976 137.362C208.168 137.429 208.34 137.556 208.456 137.725C208.565 137.886 208.628 138.085 208.607 138.313C208.476 139.796 207.699 141.12 206.595 142.16C205.369 143.314 203.744 144.113 202.214 144.393C200.528 144.702 198.811 144.481 197.255 143.848ZM203.009 120.962C204.803 122.05 207.535 124.587 205.606 127.284C203.335 129.662 200.065 126.935 198.454 125.702C196.96 124.746 195.282 127.204 196.668 128.32C208.31 136.923 213.035 121.247 203.916 119.683C202.912 119.511 202.539 120.626 203.009 120.962ZM182.146 110.955C182.344 108.501 186.09 107.943 186.462 110.372C186.796 112.548 186.403 114.547 185.421 116.506C184.483 118.377 182.124 117.504 181.946 115.8C181.707 113.516 182.022 112.482 182.146 110.955ZM210.66 109.869C211.182 109.186 211.936 108.72 212.839 108.983C215.662 109.806 214.83 113.806 213.839 115.752C213.3 116.809 211.559 117.077 210.772 116.146C209.49 114.629 208.876 111.598 210.506 110.102C210.55 110.025 210.599 109.947 210.66 109.869ZM185.381 100.215L185.827 100.137C187.207 99.8989 188.922 99.6701 189.897 100.777C190.415 101.364 190.593 102.454 189.897 103.016C188.674 104.004 187.321 103.621 185.855 103.705C184.646 103.774 183.485 103.974 182.321 104.306C179.768 105.034 177.687 106.364 175.506 107.824C175.22 108.015 174.928 107.65 175.064 107.383C176.323 104.922 178.763 102.901 181.207 101.668C182.511 101.011 183.938 100.465 185.381 100.215ZM208.086 99.1125L208.428 99.1822C212.141 99.9569 216.966 101.504 218.725 105.145C218.792 105.66 218.721 105.77 218.664 105.842L218.644 105.866C218.597 105.927 218.559 106.012 218.336 106.082C218.273 106.068 218.211 106.052 218.148 106.035C217.341 105.825 216.704 105.534 216.086 105.233L215.417 104.904C214.64 104.524 213.856 104.157 213.026 103.887C211.254 103.31 209.431 102.904 207.58 102.687C207.179 102.64 206.792 102.505 206.488 102.273C206.198 102.053 205.977 101.749 205.876 101.344C205.746 100.821 205.783 100.424 206.065 99.9519C206.277 99.5972 206.579 99.3514 206.927 99.2102C207.282 99.0662 207.685 99.0323 208.086 99.1125Z" fill="black"/>
<path fill-rule="evenodd" clip-rule="evenodd" d="M230.587 102.917C230.392 102.885 230.196 102.854 230 102.826C229.848 102.739 229.668 102.672 229.46 102.632C228.984 102.512 228.511 102.43 228.039 102.387C221.263 100.865 205.587 103.026 204.94 108.796C202.782 109.515 200.915 108.871 198.414 108.935C196.51 100.994 163.598 102.115 162.015 106.903C162.009 106.901 162.003 106.9 161.997 106.898C160.476 106.428 158.234 106.541 156.493 106.467C152.776 106.389 149.055 106.72 145.418 107.502C138.608 108.582 129.314 109.847 134.051 118.334C134.051 118.335 134.052 118.337 134.053 118.338L134.054 118.337C134.87 119.172 136.256 118.5 136.307 117.37C134.715 113.349 138.311 112.866 141.079 111.711C147.964 109.242 154.974 108.9 162.096 109.664C162.631 110.293 163.444 110.842 164.304 111.129C169.065 111.918 166.556 115.443 169.565 115.955C169.013 128.242 183.96 134.949 192.621 126.872C196.079 123.498 196.904 118.5 197.706 113.995C198.129 113.9 198.399 113.668 198.556 113.362C199.576 112.346 200.217 111.408 202.233 111.129C204.249 110.85 205.801 111.41 206.011 111.581C206.064 111.688 206.12 111.794 206.186 111.901C206.278 112.06 206.404 112.187 206.546 112.287C204.555 124.522 214.073 132.26 223.682 125.914C227.857 121.995 228.739 115.994 228.914 110.638C229.479 110.297 229.838 109.637 229.642 108.806C229.372 107.662 230.005 106.67 231.013 106.173C232.324 105.526 232.092 103.166 230.587 102.917ZM189.3 108.722C188.107 108.46 187.598 110.295 188.794 110.558C189.642 110.744 190.36 111.17 190.845 111.892L190.896 111.971C191.547 113.005 193.193 112.05 192.537 111.01C191.8 109.839 190.654 109.019 189.3 108.722ZM224.231 107.584C223.811 107.288 223.175 107.508 222.931 107.926C222.662 108.386 222.838 108.898 223.232 109.198L223.272 109.228C223.633 109.482 223.985 109.937 224.029 110.404L224.033 110.462C224.08 111.683 225.982 111.69 225.934 110.462C225.888 109.262 225.191 108.259 224.231 107.584Z" fill="black"/>
</svg>
