<svg width="391" height="780" viewBox="0 0 391 780" fill="none" xmlns="http://www.w3.org/2000/svg">
<path fill-rule="evenodd" clip-rule="evenodd" d="M124.965 390.844C124.743 391.941 124.409 393.13 124.061 394.195C125.795 395.862 128.25 398.095 130.012 399.708C128.269 388.966 133.572 379.051 136.817 368.89C135.593 367.323 131.33 365.72 131.467 363.983C131.796 357.549 132.281 350.368 132.981 342.313C135.351 317.158 137.708 290.926 132.116 265.695C131.734 262.952 131.154 260.068 127.468 260.005C116.582 303.244 125.403 346.779 125.163 390.291L125.48 390.574L124.965 390.844ZM83.5348 740.216C81.2376 739.409 78.3839 738.407 77.9859 736.784C77.3313 732.343 77.7845 727.977 78.264 723.356C79.0223 715.429 78.9467 709.267 81.0903 700.731C83.3845 692.804 85.3397 686.609 83.1009 678.412C82.9214 675.972 84.8336 673.49 86.0968 671.208C87.8851 667.876 88.7926 664.409 90.213 660.993C87.4225 660.506 84.5249 659.839 81.8458 659.011L81.396 660.627C81.2972 660.982 81.0248 661.163 80.5868 661.163C80.3159 661.163 79.6226 661.032 79.5215 660.454C79.9418 654.213 80.5508 648.002 81.1903 641.661C87.831 580.576 97.8865 530.221 114.773 480C118.829 468.238 122.972 455.995 123.001 443.215C120.695 442.722 118.128 442.439 115.777 442.763C99.0322 438.891 102.342 403.54 103.008 392.961C101.827 392.607 100.506 392.106 99.5259 391.435L99.1296 391.628C82.502 350.445 89.3303 282.355 93.1337 236.579C95.6292 220.125 92.1191 190.403 106.738 182.273C118.541 178.101 130.292 175.757 142.626 173.006C144.91 171.697 147.729 170.95 150.278 170.104L148.961 168.256C147.234 165.828 147.464 161.066 149.723 159.392C151.111 159.469 153.062 160.86 154.388 161.514C156.296 157.576 158.063 153.457 159.331 148.726L159.786 148.889C161.12 135.506 178.508 133.17 188.313 137.642C199.015 143.505 193.441 156.769 198.307 166.344L200.07 163.997C202.794 163.947 208.555 167.51 209.942 168.848C210.935 169.31 210.217 172.419 210.361 173.67C224.719 176.914 244.371 177.805 248.935 193.887C256.528 224.128 255.46 255.13 264.075 285.263C273.094 309.689 286.34 339.578 286.451 361.948C286.708 366.14 287.274 389.852 283.796 388.898L281.501 391.184C284.628 396.164 282.146 403.618 280.948 409.515C277.997 422.027 272.23 435.51 259.913 429.513C246.665 502.515 213.368 576.157 224.727 651.453C224.863 651.894 224.587 652.377 224.114 652.184L223.555 651.927C222.11 652.372 220.277 652.528 218.768 652.866C220.052 657.667 220.741 662.407 221.407 667.718C222.215 668.198 221.838 669.471 221.879 670.24C233.932 669.664 240.692 682.259 249.336 689.186C255.044 694.267 261.543 699.105 268.656 703.566C274.534 706.899 279.494 710.715 278.601 717.011C278.686 717 280.499 716.72 280.588 716.712C283.322 725.792 274.345 727.669 265.099 728.763C242.504 731.03 223.19 726.02 197.031 716.527C193.823 716.906 191.323 712.146 190.896 708.918C190.473 706.755 191.674 704.556 190.758 702.228C187.603 695.539 185.961 677.832 190.409 669.889C191.97 668.088 193.972 666.427 193.712 663.319C193.639 660.206 193.346 657.095 193.61 654.038C188.265 653.522 182.973 652.372 178.31 650.508C177.484 650.825 176.547 650.435 176.489 649.403C175.594 635.17 174.523 619.617 174.291 605.046C173.217 573.334 180.484 542.389 186.045 511.633C186.431 501.767 188.256 492.235 188.831 482.364C189.45 473.002 189.56 463.837 190.098 454.489L186.889 453.794C160.243 522.349 139.377 590.959 124.772 658.094C125.103 658.376 126.042 658.694 126.002 659.266C125.991 659.572 125.998 659.591 125.789 659.622C122.26 660.33 118.769 660.849 115.272 661.253C116.258 669.631 110.999 679.313 115.653 687.16C116.889 689.051 116.942 689.446 116.185 690.747C122.966 703.342 127.168 713.822 129.892 725.082L131.646 723.601C134.19 725.445 134.243 728.928 134.299 732.609C134.118 734.754 135.167 737.001 133.56 738.807C129.69 743.319 116.205 745.095 108.663 745.121C99.7183 745.123 91.4955 743.501 83.5348 740.216Z" fill="#D08B5B"/>
<path fill-rule="evenodd" clip-rule="evenodd" d="M115.396 685.427C115.536 686.002 115.254 688.876 115.396 689.394C116.875 694.34 121.062 696.389 122.955 701.153L123.841 703.386C126.232 709.419 128.549 715.479 129.982 721.878L130.221 722.945C130.221 722.945 134.844 727.37 134.972 730.429C134.972 730.429 135.464 738.217 133.974 739.341C123.111 746.73 108.421 746.518 95.8645 744.577C90.8588 743.666 85.9721 742.144 81.3322 740.061C79.5784 739.468 78.2666 738.84 77.4642 737.809C76.7828 736.933 76.5009 735.769 76.6115 734.153C76.323 731.411 76.5347 728.792 76.7761 726.179L76.8894 724.957C77.0919 722.75 77.2669 720.54 77.1575 718.316C77.4955 709.693 80.234 701.131 82.1717 692.715L84.2534 689.394C84.2534 689.394 96.6529 680.047 100.951 680.061L101.366 680.061C105.576 680.036 115.396 685.427 115.396 685.427ZM194.288 667.837C196.716 675.987 200.331 680.061 205.133 680.061C212.335 680.061 213.29 670.575 218.936 670.575C218.936 670.575 223.513 670.344 228.42 669.961C233.29 671.699 237.305 675.65 241.157 679.694L243.23 681.88C245.38 684.143 247.516 686.336 249.745 688.124C255.715 693.44 262.176 698.17 268.947 702.416L269.481 702.732C272.111 704.291 274.989 706.128 276.974 708.514C278.417 710.25 279.38 712.282 279.355 714.724L279.346 715.562C279.346 715.562 281.633 717.74 281.655 718.661L281.663 718.972C281.669 719.221 280.438 724.501 278.448 725.818C275.65 727.67 265.356 729.3 264.998 729.357C242.183 731.798 219.087 725.72 197.937 717.416L197.116 717.092C197.059 717.103 197 717.112 196.941 717.119C195.242 717.343 193.78 716.439 192.624 715.132C191.027 713.325 189.987 710.713 189.738 708.686C189.549 707.833 190.049 703.417 189.7 702.332C186.758 695.657 186.372 688.398 186.793 681.286C186.683 672.923 188.506 670.263 190.102 668.33L190.513 667.837L194.288 667.837Z" fill="white"/>
<path fill-rule="evenodd" clip-rule="evenodd" d="M136.935 370.046L138.546 371.181C140.05 372.241 141.573 373.324 143.274 374.541L145.041 375.807L154.818 382.849C169.841 393.651 177.964 399.188 187.494 404.866L188.284 405.335L188.386 405.342C190.042 405.433 191.489 404.735 193.8 403.004L194.038 402.825L194.956 402.126L195.174 401.962L196.005 401.347L203.096 396.12C206.877 393.331 209.471 391.4 211.879 389.572L213.284 388.5L215.084 387.116L215.455 387.252C215.936 387.43 216.473 387.39 216.861 387.157L216.913 387.124L217.417 386.788L218.059 387.474L218.466 387.905C219.346 388.835 220.233 389.748 221.424 390.953L221.704 391.237L225.152 394.704L226.183 395.745C227.509 397.089 228.487 398.102 229.451 399.131L229.714 399.412L230.237 399.978L230.335 400.069L230.458 400.186C230.886 400.599 231.292 401.043 231.862 401.707L232.029 401.902L232.588 402.563L232.877 402.901C234.667 404.977 235.739 405.874 237.229 406.309L237.307 406.331L237.441 406.367L237.493 406.376C238.559 406.551 239.304 406.227 240.241 405.255L240.308 405.185L240.374 405.114L240.984 404.472C243.44 401.899 245.721 399.628 249.487 395.993L250.781 394.746L256.012 389.722L257.074 388.697C257.453 388.33 257.807 387.986 258.154 387.648L258.655 387.159L260.105 385.734L260.599 386.348C260.903 386.726 261.534 386.865 261.955 386.631L261.998 386.605L263.113 385.89L263.095 387.213C263.086 387.856 263.068 388.509 263.042 389.175L263.01 389.887C262.882 392.611 262.65 395.092 262.159 399.256L262.107 399.693L261.476 404.926L261.362 405.951C259.779 419.969 257.192 434.539 253.523 450.862L253.302 451.845C250.877 462.561 248.619 471.591 244.337 487.86L243.334 491.66L239.981 504.322C236.18 518.707 233.916 527.58 231.677 537.063L231.54 537.645L231.25 538.878L230.961 540.123C228.228 551.917 226.075 562.628 224.418 572.924L224.331 573.466L224.163 574.529C219.971 601.305 219.205 625.373 222.38 648.751L222.478 649.459L222.573 650.142L221.892 650.258C208.295 652.574 195.372 653.433 182.962 652.689L182.412 652.655L181.921 652.51C181.092 652.261 180.281 651.994 179.489 651.71L179.096 651.567L178.6 651.384L178.648 650.585L178.677 650.075C179.128 642.034 178.994 635.08 178.291 620.951L178.223 619.59L177.897 613.247C177.739 610.127 177.635 607.905 177.55 605.751L177.494 604.284L177.437 602.659L177.412 601.874C177.047 590.019 177.344 580.625 178.577 571.728L178.66 571.142L178.742 570.579L178.86 569.442C179.769 560.786 180.932 553.358 183.457 539.328L183.881 536.98L184.979 530.936C187.831 515.155 189.118 506.934 190.023 497.554L190.08 496.947L190.169 495.991L190.508 491.356C191.073 483.514 191.307 478.6 191.27 473.478L191.265 472.928C191.191 466.446 190.618 460.695 189.417 455.326L189.324 454.92L189.325 454.914L189.174 454.282L189.168 454.268L188.925 453.68L189.288 453.343C191.603 451.201 193.688 448.943 195.481 446.612C196.513 445.252 194.122 443.248 192.923 444.382L192.887 444.417L190.507 446.843L191.712 443.668C192.373 441.925 193.032 440.166 193.69 438.391L194.085 437.323L194.219 436.959L193.756 437.95C180.066 467.313 167.742 499.762 156.201 536.032L155.852 537.133L155.446 538.415C144.477 573.15 134.664 609.642 123.32 656.386L122.872 658.234L122.441 658.332L121.823 658.47C111.836 660.671 101.698 661.245 86.8587 660.938L86.3257 660.927L85.8444 660.816C85.1893 660.662 84.543 660.501 83.9075 660.332L83.433 660.204L82.4204 659.923L82.52 658.312C85.9572 603.97 96.4279 547.848 113.566 486.88L114.087 485.031L114.386 483.943L116.081 477.887L116.412 476.698C118.967 467.47 120.116 462.453 120.862 456.579L120.885 456.393L120.892 456.346C121.644 452.464 122.091 448.763 122.217 445.152L122.229 444.779L122.25 444.048L122.982 444.09C126.912 444.315 131.693 442.122 133.651 439.128L133.709 439.038L134.128 438.374L134.749 438.855C136.105 439.907 138.157 438.879 139.348 436.897L139.382 436.838L139.441 436.723C140.444 434.699 140.813 432.369 140.647 429.683L140.635 429.503L140.622 429.323C140.444 427.067 139.949 424.786 139.05 421.668L138.678 420.385L139.785 420.559C142.09 420.921 144.771 420.044 146.457 418.413C148.16 416.766 148.544 414.71 147.299 412.632L147.248 412.548L147.193 412.462L146.825 412.142L146.451 411.821C145.11 410.675 143.72 409.56 141.632 407.94L141.031 407.474L138.483 405.509C134.852 402.7 132.774 401 130.66 399.037L130.559 398.943L130.068 398.483L130.054 398.197C129.859 394.164 130.383 390.07 131.565 385.556L131.669 385.163L131.805 384.664C132.588 381.816 133.449 379.311 135.157 374.758L136.935 370.046Z" fill="#FFCF77"/>
<path fill-rule="evenodd" clip-rule="evenodd" d="M281.32 397.099C278.661 406.023 276.22 419.238 269.448 425.808C267.263 427.544 264.599 426.785 262.096 426.353C263.812 415.972 265.071 405.5 266.166 395.032C271.498 393.94 276.637 392.051 281.411 389.444C282.703 391.605 281.895 394.892 281.32 397.099ZM260.801 404.868C251.801 486.958 210.112 565.65 221.806 649.577C207.783 651.966 193.52 652.961 179.326 651.726C181.035 625.802 175.512 597.42 179.483 570.688C182.021 545.626 188.636 521.152 190.913 496.063C191.926 482.195 193.188 467.713 189.889 454.091C189.863 454.022 189.835 453.953 189.806 453.884C192.066 451.793 194.201 449.507 196.083 447.061C197.689 444.944 194.193 442.124 192.412 443.939C194.869 437.462 197.23 430.954 199.52 424.417C164.104 495.744 141.418 578.82 122.317 657.658C109.47 660.578 96.2456 660.507 83.1547 660.156C86.7405 600.821 98.6513 542.36 114.808 485.238C118.423 472.031 122.883 458.598 122.086 444.726C126.304 445.382 132.073 443.036 134.345 439.436C136.414 441.041 138.95 439.071 140.04 437.201C142.558 432.297 141.168 426.307 139.708 421.281C144.85 422.088 151.289 417.329 147.771 412.012C142.334 407.252 136.13 403.198 130.8 398.182C130.344 388.778 133.995 380.001 137.312 371.177C154.069 382.963 170.498 395.645 188.094 406.049C191.119 406.357 193.563 404.072 195.834 402.403C202.315 397.604 208.855 392.868 215.241 387.939C215.942 388.197 216.747 388.133 217.343 387.735C221.421 392.094 225.732 396.119 229.766 400.5C232.19 402.736 233.941 406.225 237.323 407.082C238.905 407.371 239.912 406.717 240.926 405.622C247.08 399.123 253.7 393.089 260.077 386.813C260.581 387.438 261.64 387.721 262.416 387.223C262.336 393.115 261.493 399.012 260.801 404.868ZM218.319 669.589C212.435 671.285 211.503 680.455 204.576 679.561C200.09 678.618 196.472 674.738 195.323 670.379C195.667 670.161 195.9 669.779 195.864 669.229C195.57 664.757 195.273 660.284 194.978 655.812C202.773 656.242 210.6 655.629 218.343 654.563C218.062 656.687 217.951 658.829 217.889 660.993C218 663.743 217.192 667.064 218.319 669.589ZM192.329 667.577C192.522 667.3 192.697 667.013 192.847 666.705C192.871 667.06 192.894 667.416 192.916 667.769C192.731 667.658 192.533 667.596 192.329 667.577ZM231.662 674.816C235.661 677.534 238.777 681.407 242.183 684.789C249.426 691.985 257.458 698.391 266.058 703.901C270.535 706.679 279.998 710.88 276.251 717.402C273.457 721.509 266.131 719.593 264.977 721.897C249.041 722.552 233.452 718.202 218.303 713.749C210.613 711.241 202.567 709.779 195.112 706.592C187.967 700.344 187.945 686.607 188.928 677.797C189.318 675.714 189.898 667.182 192.949 668.255C192.954 669.108 193.042 670.256 193.965 670.497C193.98 670.564 193.991 670.632 194.008 670.699C193.832 670.642 193.6 670.77 193.685 670.981C195.984 677.811 203.562 685.501 210.96 680.715C214.247 678.406 215.686 673.939 219.605 672.49C223.711 670.971 228.207 672.467 231.662 674.816ZM279.939 716.966C280.041 717.015 280.148 717.039 280.257 717.041C280.57 717.842 280.416 721.106 280.357 721.668C279.39 726.578 271.643 727.394 267.535 728.136C253.102 730.406 238.423 728.819 224.342 725.199C217.469 723.5 210.634 721.535 203.963 719.167C198.036 717.367 190.704 714.376 191.441 706.874C194.742 711.323 205.309 712.641 210.61 714.48C227.271 719.53 244.174 724.964 261.756 725.137C264.42 725.023 268.101 725.766 270.099 723.763C274.336 723.159 278.732 720.817 279.939 716.966ZM113.485 668.578C112.121 672.88 110.552 677.297 110.509 681.848C102.565 677.135 92.5994 681.71 86.0148 686.87C86.475 683.649 84.4848 680.614 85.0263 677.449C87.0379 672.673 89.7336 667.83 88.7768 662.432C97.5926 663.935 106.549 663.842 115.395 662.92C114.701 664.783 114.103 666.679 113.485 668.578ZM116.527 694.75C118.094 697.817 119.191 701.883 122.194 703.818C123.869 710.001 125.753 716.127 127.209 722.367C127.788 725.335 128.664 728.409 128.231 731.468C127.543 731.656 127.061 731.805 126.68 732.3C112.115 735.397 96.1048 735.884 82.642 728.69C78.1259 718.612 81.6707 706.812 83.2089 696.374C83.3018 692.956 85.5898 691.758 85.8624 688.5C93.0828 684.352 104.329 678.914 111.176 686.353C112.127 688.464 112.767 691.377 115.211 692.177C115.667 693.03 116.102 693.89 116.527 694.75ZM128.459 731.477C128.456 731.482 128.454 731.487 128.447 731.494C128.425 731.492 128.425 731.485 128.459 731.477ZM132.988 733.354C132.952 732.722 132.636 732.091 132.118 731.717C132.363 729.387 131.9 726.977 131.406 724.701C133.852 727.359 132.808 731.568 133.211 734.881C133.179 736.201 133.82 737.883 132.282 738.564C127.48 741.877 121.659 743.423 115.922 744.089C103.404 745.52 90.3901 743.222 79.2058 737.414C77.6873 735.356 78.2126 730.075 78.0374 727.417C79.069 735.954 99.9265 738.314 107.021 738.387C110.966 738.412 132.946 737.597 132.988 733.354ZM119.762 439.391C118.097 439.225 116.442 439.341 114.794 439.578C105.039 432.962 103.501 405.828 101.97 394.374C108.95 396.154 116.344 395.674 123.12 393.331C123.248 394.579 124.676 395.223 125.545 394.38C130.14 402.544 137.016 409.081 144.11 414.925C144.027 414.652 143.967 415.152 144.072 414.962C143.168 417.029 139.851 415.957 138.282 417.397C137.275 418.146 137.063 419.456 137.705 420.331C136.007 425.012 138.706 430.727 136.166 435.167C135.595 435.829 134.852 436.305 134.361 437.047C130.98 434.735 127.9 439.625 124.476 439.839C124.5 439.839 124.524 439.839 124.55 439.837C124.023 439.895 123.177 439.866 122.714 439.801C121.732 439.649 120.753 439.49 119.762 439.391ZM126.051 275.828C126.768 271.162 127.604 266.523 128.689 261.93C129.998 262.157 130.29 265.149 130.456 266.03C136.058 291.328 133.633 317.363 131.233 342.897C130.651 349.744 130.171 356.604 129.796 363.467C129.311 366.624 132.949 367.695 134.89 369.423C132.19 378.1 127.53 386.495 128.081 395.736C127.357 395.073 126.64 394.402 125.927 393.727C126.108 393.146 126.262 392.565 126.393 391.98C127.279 391.519 127.561 390.247 126.801 389.577C127.093 351.738 119.978 313.576 126.051 275.828ZM195.762 204.367C197.109 201.976 200.673 205.084 198.434 206.818C196.875 208.078 194.714 206.009 195.762 204.367ZM202.353 232.188C203.791 230.322 206.676 232.483 205.419 234.413C203.951 237.456 201.011 234.45 202.353 232.188ZM206.971 256.571C209.852 256.579 209.192 261.451 206.472 260.783C204.157 260.236 204.539 256.526 206.971 256.571ZM209.332 285.949C209.999 283.693 213.41 284.289 213.386 286.608C213.299 289.738 208.656 288.793 209.332 285.949ZM214.921 314.276C215.869 311.443 219.513 312.909 219.207 315.653C219.605 317.238 216.527 320.436 215.904 317.845C215.073 316.845 214.681 315.561 214.921 314.276ZM220.646 346.948C220.653 346.938 220.66 346.929 220.667 346.919C222.694 347.872 220.94 352.206 218.986 350.615C217.09 349.46 218.402 345.797 220.646 346.948ZM223.311 373.472C225.676 375.792 222.019 379.464 219.687 377.088C217.319 374.773 220.974 371.101 223.311 373.472ZM281.868 389.195C281.899 389.263 281.933 389.332 281.971 389.396C281.909 389.344 281.847 389.292 281.785 389.24C281.811 389.225 281.84 389.212 281.868 389.195ZM283.77 335.273C279.911 320.096 273.702 305.651 267.657 291.25C261.124 272.13 259.209 251.879 256.875 231.927C255.591 220.67 254.203 209.428 251.605 198.383C249.397 177.793 228.444 175.548 212.013 172.357C212.036 170.599 212.578 168.599 210.811 167.474C209.189 165.83 200.531 160.721 198.821 162.884C198.149 161.253 197.82 159.445 197.502 157.705C197.289 157.018 197.2 154.65 196.453 154.669C196.293 159.304 194.322 166.09 198.277 169.572C195.903 173.182 193.924 177.557 190.796 180.432C190.798 180.429 190.801 180.427 190.803 180.425C190.646 180.526 190.487 180.619 190.323 180.706C190.361 180.676 190.136 180.759 189.95 180.818C189.525 180.899 188.822 180.744 188.388 180.548H188.392C177.621 174.438 167.08 167.894 156.652 161.191C158.142 158.991 160.072 148.205 158.222 146.71C156.929 150.965 155.582 155.234 153.619 159.238C151.919 158.312 149.167 156.646 147.734 158.823C145.927 161.848 145.411 166.235 147.58 169.242C138.258 172.908 128.205 174.192 118.58 177.057C114.386 178.13 109.945 178.929 106.01 180.79C94.2832 187.283 94.2734 203.28 92.9874 215.063C89.687 272.417 79.2197 331.706 95.6119 387.97C96.2417 389.697 97.1727 391.356 97.897 393.056C98.1844 393.729 98.9301 393.707 99.4217 393.342C99.9775 393.672 100.588 393.935 101.227 394.148C100.153 408.775 98.699 435.5 112.846 444.222C113.949 444.741 114.937 444.56 115.965 444.432C117.617 444.218 119.572 444.29 121.28 444.61C119.217 471.744 105.527 496.536 100.226 523.125C88.8637 568.082 81.5231 614.036 77.8292 660.246C77.6964 663.112 82.1938 663.906 82.9708 661.095C84.5953 661.564 86.2434 661.955 87.913 662.273C87.0412 664.539 86.3206 666.828 85.3149 669.037C84.2177 671.533 82.2204 673.832 81.5934 676.503C80.8429 680.784 83.6351 684.788 82.0869 689.072C81.7934 693.859 79.6125 698.364 78.8551 703.107C77.6724 708.983 76.7747 715.069 77.0835 721.075C75.8599 725.47 75.9174 730.025 76.0882 734.476C76.1786 735.938 76.1026 737.789 77.2141 738.915C79.6664 740.872 82.9452 741.705 85.8062 742.93C101.231 747.973 120.443 749.385 134.594 740.279C137.288 738.146 135.604 732.888 135.813 729.769C135.909 727.389 134.059 720.802 130.813 722.132C127.972 711.139 123.354 700.724 118.027 690.742C118.878 689.243 117.946 687.77 117.119 686.505C113.02 680.21 117.445 670.166 116.956 662.74C120.014 662.368 123.061 661.875 126.087 661.273C128.156 660.86 128.004 658.294 126.614 657.353C141.72 588.199 162.767 520.388 188.411 454.418C188.05 461.601 187.751 468.778 187.512 475.974C187.191 487.916 184.913 499.681 184.357 511.594C178.702 542.497 171.521 573.459 172.602 605.097C172.846 619.912 173.87 634.711 174.801 649.493C174.879 651.194 176.403 652.631 178.152 652.259C182.531 653.942 187.16 654.999 191.841 655.533C191.365 660.936 193.819 664.824 189.078 668.881C184.931 675.345 185.912 688.567 187.009 696.07C187.499 698.462 188.343 700.652 189.209 702.92C189.865 704.978 188.741 707.032 189.219 709.144C189.689 712.97 192.829 718.776 197.222 718.195C222.291 727.668 251.333 736.259 277.7 727.438C279.534 726.526 281.445 725.349 282.103 723.303C282.665 721.478 283.423 714.568 280.256 715.102C279.906 705.74 269.02 702.788 262.815 697.753C254.146 691.813 246.497 684.597 239.253 677.029C235.076 672.735 229.83 668.694 223.56 668.672C223.578 668.013 223.375 667.43 222.959 666.97L222.957 666.968C222.408 662.717 221.816 658.359 220.779 654.193C221.648 654.029 222.544 653.957 223.391 653.715C225.078 654.471 226.729 652.947 226.343 651.223C223.485 633.078 223.449 614.6 225.132 596.341C230.315 540.166 250.813 486.97 261.161 431.755C274.886 436.646 279.987 420.058 282.542 409.907C283.775 403.722 286.434 396.11 282.882 390.325C293.269 394.457 286.364 340.886 283.77 335.273Z" fill="black"/>
<path fill-rule="evenodd" clip-rule="evenodd" d="M182.043 60.4993C195.499 60.4993 215.195 69.4858 216.676 78.1318C218.422 88.3209 222.299 126.634 220.188 139.172C218.078 151.71 209.847 160.974 191.647 160.974C173.447 160.974 159.862 151.047 156.743 147.639C153.624 144.231 149.844 133.625 149.844 133.625C149.844 133.625 139.88 131.935 139.833 123.991C139.787 116.047 144.839 113.592 144.839 113.592C144.839 113.592 142.113 80.6359 147.843 72.4735C153.574 64.3111 168.587 60.4993 182.043 60.4993Z" fill="#D08B5B"/>
<path fill-rule="evenodd" clip-rule="evenodd" d="M222.67 102.468C223.406 110.477 223.684 118.554 223.826 126.593C223.964 134.211 223.293 142.155 218.953 148.668C215.159 154.366 209.382 158.502 202.947 160.735C199.286 162.007 195.231 162.479 191.363 162.595C189.366 162.654 187.363 162.569 185.377 162.363C185.127 162.337 184.876 162.314 184.625 162.292C182.943 162.142 181.275 161.993 180.049 160.723C179.663 160.322 179.668 159.5 180.239 159.239C181.327 158.744 182.064 158.692 183.256 158.855C184.244 158.99 185.235 159.097 186.23 159.166C188.363 159.315 190.51 159.32 192.643 159.156C196.563 158.855 200.573 157.748 204.132 156.07C209.713 153.435 214.508 149.116 217.096 143.45C220.062 136.961 219.913 129.458 219.775 122.472L219.769 122.185C219.615 114.435 219.328 106.708 218.655 98.9841C218.4 96.062 218.036 93.1557 217.673 90.2485C217.57 89.43 217.468 88.6115 217.368 87.7924C217.129 85.811 216.814 83.8389 216.427 81.8814C216.311 81.2902 216.175 80.7038 216.038 80.1181C215.936 79.6774 215.834 79.2372 215.74 78.7956C215.581 78.8214 215.42 78.8358 215.254 78.8427C214.263 78.8761 213.181 78.6344 212.446 77.9305C212.164 78.1224 211.806 78.2433 211.375 78.2647C208.74 78.3948 206.079 78.3368 203.424 78.2789C201.973 78.2473 200.524 78.2157 199.082 78.2149C194.987 78.2125 190.889 78.2149 186.792 78.2267C186.167 78.2285 185.542 78.2309 184.917 78.2333C181.447 78.2466 177.97 78.2599 174.504 78.1675C173.769 78.1478 173.03 78.135 172.288 78.1222C169.184 78.0686 166.034 78.0141 163.001 77.4517C161.737 81.9407 161.782 86.8729 164.415 90.8831C165.159 92.0136 164.555 93.3456 163.586 94.0519C162.595 94.7726 160.814 95.8778 159.29 95.9913C159.231 96.1241 159.171 96.2565 159.112 96.3888C159.022 96.5869 158.933 96.7845 158.847 96.9818C158.12 98.6392 157.464 100.307 157.006 102.062C156.769 102.966 156.566 103.886 156.395 104.811C156.409 104.973 156.423 105.134 156.441 105.296C156.441 105.31 156.443 105.325 156.445 105.341L156.446 105.348C156.455 105.414 156.467 105.49 156.474 105.533C156.495 105.647 156.517 105.761 156.538 105.874C156.604 106.225 156.669 106.575 156.739 106.924C156.96 108.05 157.13 109.185 157.251 110.325C157.472 112.411 157.45 115.122 155.417 116.357C154.329 117.018 153.026 116.949 151.876 116.506C151.235 116.258 150.674 115.926 150.096 115.583C149.977 115.512 149.857 115.442 149.736 115.371C149.549 115.262 149.359 115.161 149.168 115.061C148.929 114.935 148.691 114.81 148.461 114.667C148.348 114.596 148.239 114.511 148.137 114.421C147.366 114.584 146.615 114.89 146.193 115.098C145.063 115.66 144.07 116.473 143.226 117.407C141.432 119.395 140.894 122.197 141.146 124.797C141.38 127.217 142.33 129.997 144.243 131.606C145.075 132.307 146.113 132.718 147.21 132.706C147.75 132.701 148.248 132.587 148.769 132.45C148.992 132.391 149.237 132.366 149.482 132.34C149.803 132.307 150.124 132.273 150.393 132.165C151.096 131.883 151.964 132.744 151.677 133.45C151.614 133.607 151.558 133.758 151.504 133.905C151.376 134.254 151.258 134.573 151.068 134.865C153.031 138.069 155.18 141.174 157.467 144.153C158.917 146.04 160.547 147.716 162.185 149.399C162.876 150.11 163.569 150.821 164.249 151.551C165.261 152.636 165.683 154.774 163.851 155.238C162.24 155.65 160.988 154.173 159.995 153C159.862 152.843 159.733 152.692 159.609 152.551C155.261 147.604 151.974 141.925 150.435 135.514C149.741 136.007 148.945 136.275 148.106 136.391C146.435 136.621 144.745 136.292 143.281 135.446C137.735 132.244 136.394 123.59 138.991 118.168C139.617 116.862 140.543 115.696 141.67 114.791C141.582 114.621 141.547 114.422 141.604 114.208C141.704 113.833 141.814 113.463 141.93 113.094C141.803 113.038 141.711 112.922 141.729 112.75C141.817 111.847 141.903 110.945 141.989 110.043L142.037 109.55C142.026 109.061 142.011 108.572 141.996 108.083C141.962 106.96 141.928 105.837 141.942 104.708C141.955 103.506 141.996 102.305 142.037 101.104C142.084 99.7232 142.131 98.3419 142.136 96.96C142.151 92.4844 142.25 88.0111 142.348 83.5378C142.448 79.0047 142.547 74.4716 142.56 69.9361C142.574 65.5299 142.584 61.117 142.468 56.7133C142.466 56.6821 142.466 56.6516 142.465 56.621C142.465 56.5935 142.464 56.566 142.463 56.5379C142.449 55.9975 142.414 55.429 142.379 54.8456C142.185 51.6244 141.963 47.9474 144.88 46.0168C145.447 45.6426 146.153 45.6379 146.769 45.8796C148.542 44.6448 150.765 44.0497 152.891 43.706C156.024 43.2001 159.179 42.8967 162.336 42.5932C163.259 42.5045 164.182 42.4157 165.105 42.3218C167.233 42.1062 169.473 42.0235 171.615 42.0709C172.73 42.0952 173.852 42.055 174.975 42.0147C176.036 41.9767 177.098 41.9386 178.156 41.9547C180.63 41.995 183.123 42.0874 185.607 42.2913C185.665 42.2854 185.723 42.2801 185.782 42.2748C185.84 42.2694 185.899 42.264 185.958 42.2581C189.72 41.8973 193.478 42.0881 197.237 42.2789C198.147 42.3252 199.058 42.3714 199.968 42.4098C204.419 42.597 209.118 43.0568 213.114 45.1873C213.628 45.4608 214.063 45.7718 214.435 46.1183C214.955 46.1915 215.452 46.3392 215.898 46.5873C217.184 46.3273 218.621 46.9037 218.925 48.3967C219.368 50.5843 219.536 52.7906 219.271 55.0092C219.267 55.0371 219.264 55.0658 219.261 55.0952C219.258 55.1205 219.255 55.1464 219.252 55.1728C219.789 57.231 219.753 59.4788 219.307 61.5088C219.495 64.0737 219.602 66.6459 219.617 69.214C219.62 69.6025 219.625 69.9927 219.631 70.3836C219.651 71.7798 219.671 73.1864 219.542 74.5701C219.396 76.1273 218.755 77.3595 217.747 78.5422C217.557 78.765 217.236 78.802 216.969 78.7479C216.9 78.7339 216.839 78.715 216.785 78.6925C217.282 79.7592 217.695 80.8791 218.098 81.9747C218.187 82.2176 218.276 82.4594 218.366 82.6991C219.148 84.799 219.906 86.9345 220.444 89.1102C221.534 93.497 222.252 97.9673 222.67 102.468ZM147.149 122.322C146.924 122.166 146.697 122.01 146.452 121.893C146.421 121.879 145.122 121.457 145.373 122.014C145.459 122.199 145.236 122.405 145.077 122.242C144.627 121.784 144.878 121.234 145.307 120.827C146.082 120.09 147.238 120.26 148.189 120.436C149.511 120.68 150.796 121.258 151.909 122C153.109 122.799 154.59 123.906 154.827 125.42C155.042 126.811 153.658 128.345 152.234 127.413C151.463 126.908 150.924 126.158 150.382 125.404C149.996 124.867 149.609 124.329 149.137 123.877C148.579 123.346 147.978 122.879 147.34 122.452C147.276 122.41 147.213 122.366 147.149 122.322Z" fill="black"/>
<path fill-rule="evenodd" clip-rule="evenodd" d="M197.255 143.848C195.659 143.198 194.235 142.114 193.193 140.729C192.831 140.247 192.737 139.739 192.813 139.274C192.899 138.751 193.208 138.277 193.631 137.959C194.055 137.64 194.586 137.483 195.099 137.563C195.544 137.633 195.988 137.876 196.339 138.381L196.412 138.482C197.031 139.318 197.838 140.004 198.757 140.446C199.643 140.872 200.634 141.071 201.66 140.955C203.613 140.735 204.959 139.681 206.39 138.25C206.567 138.069 206.745 137.882 206.923 137.693C207.036 137.521 207.192 137.411 207.365 137.353C207.558 137.289 207.776 137.292 207.976 137.362C208.168 137.429 208.34 137.556 208.456 137.725C208.565 137.886 208.628 138.085 208.607 138.313C208.476 139.796 207.699 141.12 206.595 142.16C205.369 143.314 203.744 144.113 202.214 144.393C200.528 144.702 198.811 144.481 197.255 143.848ZM203.009 120.962C204.803 122.05 207.535 124.587 205.606 127.284C203.335 129.662 200.065 126.935 198.454 125.702C196.96 124.746 195.282 127.204 196.668 128.32C208.31 136.923 213.035 121.247 203.916 119.683C202.912 119.511 202.539 120.626 203.009 120.962ZM182.146 110.955C182.344 108.501 186.09 107.943 186.462 110.372C186.796 112.548 186.403 114.547 185.421 116.506C184.483 118.377 182.124 117.504 181.946 115.8C181.707 113.516 182.022 112.482 182.146 110.955ZM210.66 109.869C211.182 109.186 211.936 108.72 212.839 108.983C215.662 109.806 214.83 113.806 213.839 115.752C213.3 116.809 211.559 117.077 210.772 116.146C209.49 114.629 208.876 111.598 210.506 110.102C210.55 110.025 210.599 109.947 210.66 109.869ZM185.381 100.215L185.827 100.137C187.207 99.8989 188.922 99.6701 189.897 100.777C190.415 101.364 190.593 102.454 189.897 103.016C188.674 104.004 187.321 103.621 185.855 103.705C184.646 103.774 183.485 103.974 182.321 104.306C179.768 105.034 177.687 106.364 175.506 107.824C175.22 108.015 174.928 107.65 175.064 107.383C176.323 104.922 178.763 102.901 181.207 101.668C182.511 101.011 183.938 100.465 185.381 100.215ZM208.086 99.1125L208.428 99.1822C212.141 99.9569 216.966 101.504 218.725 105.145C218.792 105.66 218.721 105.77 218.664 105.842L218.644 105.866C218.597 105.927 218.559 106.012 218.336 106.082C218.273 106.068 218.211 106.052 218.148 106.035C217.341 105.825 216.704 105.534 216.086 105.233L215.417 104.904C214.64 104.524 213.856 104.157 213.026 103.887C211.254 103.31 209.431 102.904 207.58 102.687C207.179 102.64 206.792 102.505 206.488 102.273C206.198 102.053 205.977 101.749 205.876 101.344C205.746 100.821 205.783 100.424 206.065 99.9519C206.277 99.5972 206.579 99.3514 206.927 99.2102C207.282 99.0662 207.685 99.0323 208.086 99.1125Z" fill="black"/>
</svg>
