<svg width="391" height="780" viewBox="0 0 391 780" fill="none" xmlns="http://www.w3.org/2000/svg">
<path fill-rule="evenodd" clip-rule="evenodd" d="M287.893 712.827C289.564 705.063 281.92 702.438 277.101 700.711C273.65 698.476 260.86 690.738 250.964 681.186C242.867 673.369 237.354 663.351 235.06 662.396C235.06 662.396 232.698 661.029 232.452 660.013C231.015 654.061 232.214 648.514 232.452 644.905C237.059 643.698 240.751 642.192 243.512 640.087C244.317 640.355 245.524 640.697 245.883 639.522C248.378 622.909 249.455 606.492 251.486 589.866C259.17 526.541 260.037 452.562 246.817 394.724C246.678 391.857 246.928 389.268 247.185 386.805C248.972 386.612 250.053 384.885 251.513 383.853C253.778 382.056 256.46 380.676 256.35 377.535C256.888 377.128 256.825 376.9 256.56 376.382C258.288 368.966 250.58 361.151 248.4 355.037C252.363 316.358 246.971 279.808 249.979 241.12C253.778 239.533 251.224 229.617 250.964 225.527C248.86 199.178 235.135 173.126 210.42 164.518C209.007 164.233 206.883 162.621 205.714 163.703C203.455 162.81 200.448 164.571 198.7 162.543L198.717 162.53C197.245 160.493 196.585 157.902 196.101 155.453C196.182 156.143 196.317 156.828 196.483 157.497C192.223 145.513 191.149 142.308 177.433 141.744C171.254 141.661 163.109 141.846 159.506 147.728C158.03 150.462 158.481 153.601 157.565 156.479C155.883 161.759 148.623 159.207 144.811 161.95C114.306 171.714 89.2846 191.645 81.0601 223.635C79.3787 227.49 77.4716 231.328 76.0659 235.307C75.8484 235.898 75.2499 237.896 76.6872 238.816L77.3823 239.261C68.2262 281.97 67.6187 317.959 98.3799 346.432C100.688 358.666 94.7499 375.374 97.0327 387.253C95.7319 389.095 97.3813 390.579 99.0442 390.697C99.2045 390.786 99.8524 391.069 100.029 391.15C97.3827 428.434 108.493 478.681 113.391 498.513C114.058 510.421 109.985 520.202 101.608 526.692C92.3525 532.381 74.0539 558.076 77.4462 585.029C73.4818 585.805 69.5461 586.231 65.7427 587.718C49.1009 584.786 49.2659 616.804 48.2056 628.061C46.4097 646.911 45.2935 674.231 63.2365 686.297C67.9635 689.719 77.5481 693.726 82.4596 688.248C84.0691 686.319 84.4721 684.455 83.8389 682.484C91.9492 671.049 89.7636 656.091 90.5086 642.679C92.8605 642.537 95.3211 643.638 97.596 643.237C99.931 641.184 91.4127 641.743 90.5293 641.623C90.6197 639.554 90.7865 637.376 91.0016 635.291C92.3377 635.558 94.0493 636.198 95.3341 636.247C96.0946 636.432 96.632 635.387 96.173 634.845C95.1703 633.891 92.6137 634.039 91.175 633.903C91.4179 632.158 91.715 630.323 92.0452 628.634C93.8052 628.571 95.6227 629.69 97.2892 629.461C96.0278 628.621 93.6603 628.877 92.1228 628.322C93.1226 622.885 95.1598 617.724 97.0538 612.638C101.701 614.551 105.71 614.626 110.247 614.053C112.103 614.338 113.007 613.959 113.308 611.642L113.189 611.496C116.785 590.022 128.388 569.551 149.941 546.336C154.199 541.581 159.009 535.983 162.215 529.723C168.656 516.697 169.756 502.322 174.719 488.794C179.352 475.196 185.687 462.189 191.636 449.299C192.508 455.905 193.68 462.682 194.898 469.16C200.259 492.115 199.739 516.607 195.794 539.689C189.957 572.018 192.77 604.501 191.472 637.058C191.49 638.936 191.723 640.642 191.447 642.597C191.41 642.747 191.482 642.925 191.66 642.921L191.997 642.93C194.803 644.98 198.678 645.351 201.975 646.463C203.359 647.557 202.969 649.289 203.096 650.64C203.458 656.464 203.921 662.31 203.347 668.312C200.803 673.177 197.643 672.172 196.997 679.029C196.431 686.858 195.431 695.183 199.251 702.155L197.806 702.403C195.661 706.896 196.97 709.812 202.012 711.712C226.9 721.451 261.922 730.293 287.893 722.942C288.365 723.409 289.052 722.924 289.588 722.19C290.104 721.485 290.482 720.549 290.398 720.005C289.954 717.621 290.564 713.268 287.893 712.827Z" fill="#D08B5B"/>
<path fill-rule="evenodd" clip-rule="evenodd" d="M243.427 723.117C238.956 722.313 213.266 716.481 198.542 708.897C195.534 707.348 196.275 703.687 197.254 701.311C197.703 700.222 198.765 699.403 198.542 699.179C193.834 694.481 197.354 682.115 197.354 679.745C197.354 676.221 203.076 671.452 202.104 669.553C200.982 667.361 202.362 674.858 205.191 679.033C207.658 682.672 211.529 682.954 211.913 682.794L211.982 682.765L212.032 682.738C213.097 682.157 229.176 659.04 235.827 662.443C238.958 664.044 240.64 671.125 244.14 674.056C251.988 680.629 255.777 691.121 284.988 704.631C288.114 706.077 288.142 709.17 287.504 711.589C287.269 712.481 290.45 712.452 289.975 712.926C288.768 714.13 292.116 721.05 289.5 722.169C279.209 726.572 252.487 724.747 243.427 723.117ZM76.476 585.415C76.476 585.415 78.164 587.524 78.1334 588.496C77.8814 596.506 75.9723 602.407 75.9127 606.346L75.909 606.612L75.9156 606.709C76.0311 608.307 78.4766 614.444 83.8331 615.752C86.8585 616.491 95.7076 613.145 95.7076 613.145C95.7076 613.145 90.6522 627.082 89.7704 639.69C89.0778 649.592 89.6367 660.822 88.3454 669.553C87.6405 674.319 85.0879 679.623 82.1707 683.3C81.4558 684.201 84.5636 685.906 83.8331 686.618C82.4652 687.95 79.0833 692.543 68.6338 688.988C65.5921 687.953 56.7423 682.203 51.7721 671.212C48.1415 663.184 47.7999 651.488 47.2598 641.112C46.6629 629.645 48.8809 611.751 51.7721 602.005C54.9871 591.168 58.9843 589.051 59.8127 588.451C60.0062 588.311 66.0233 587.125 66.6026 587.06L66.7038 587.049L66.7837 587.041L66.8277 587.024C69.1901 586.112 71.8909 585.672 75.4426 585.469L75.6611 585.457L76.476 585.415Z" fill="white"/>
<path fill-rule="evenodd" clip-rule="evenodd" d="M177.512 375.217C180.854 375.05 211.867 384.295 218.006 384.817L218.439 384.852C226.396 385.46 234.075 384.027 242.881 380.23L243.148 380.115L243.428 379.992L245.775 378.96L246.081 381.501C256.364 466.924 255.8 551.384 244.289 632.066L243.937 634.51L243.458 637.766L242.823 638.234C237.107 642.453 230.036 644.991 221.382 646.038C215.585 646.74 209.452 646.785 201.334 646.223L200.697 646.178L200.076 646.132L199.391 646.08L198.521 646.011L197.82 645.797L197.269 645.625L196.71 645.449C196.616 645.419 196.521 645.389 196.426 645.358L195.847 645.172L195.252 644.978L194.648 644.779L193.807 644.498L193.787 644.493L193.495 644.424L193.374 644.393C192.584 644.184 192.028 643.847 191.64 643.225L191.598 643.155L191.545 643.06L191.097 642.215L191.511 641.353C193 638.257 193.909 634.824 194.321 630.802L194.347 630.544L194.379 630.196L194.406 629.883C194.632 627.165 193.489 587.235 194.142 577.115L194.209 576.099L194.247 575.554L194.357 574.012C194.782 568.188 195.274 562.994 196.226 554.37L196.459 552.269L196.858 548.721L197.666 541.609L198 538.633L198.247 536.402C199.732 522.885 200.376 515.116 200.703 506.683L200.723 506.138L200.745 505.526L200.767 504.888L200.765 504.584C200.719 499.517 200.205 494.214 199.191 488.228L199.126 487.844L199.059 487.459L198.988 487.056L198.777 485.89L198.626 485.078C197.995 481.736 197.295 478.528 196.108 473.507L195.569 471.242L194.1 465.135C192.629 458.982 191.847 455.475 191.158 451.881L191.062 451.372L190.913 450.578L190.712 449.477L190.567 449.605L190.406 449.75C189.796 450.304 189.265 450.864 189 451.257L188.967 451.307L188.936 451.357C183.209 460.92 178.34 471.526 173.802 484.22L173.644 484.664L173.386 485.393L173.02 486.433C170.187 494.543 167.975 501.815 163.866 516.421L163.601 517.364L163.045 519.349L161.602 524.506L161.467 524.842C159.231 530.359 155.803 535.646 150.631 541.682L150.428 541.918L150.214 542.166L150.187 542.196L149.532 542.904L148.898 543.592L148.281 544.266C138.25 555.244 130.813 564.765 124.916 574.267C117.317 586.511 112.551 598.419 110.515 610.445L110.454 610.81L110.393 611.186L110.129 612.838L108.453 612.783C99.9825 612.501 93.7097 609.914 88.8024 604.744C86.8694 602.707 85.1306 600.265 83.39 597.172L83.2626 596.944L83.0149 596.496C82.0011 594.644 75.8955 577.249 77.2491 570.38L77.3339 569.958L77.4243 569.522L77.4716 569.301L77.5769 568.819C78.5053 564.638 92.3814 535.145 99.0461 528.548L99.2764 528.321L99.5092 528.094L99.553 528.053L100.352 527.342L100.662 527.064L100.972 526.785L101.339 526.453L101.7 526.124C107.477 520.828 110.338 517.065 111.854 512.665L111.9 512.529L111.971 512.33C113.483 508.025 107.905 468.801 106.909 462.369C102.925 436.653 100.525 408.937 100.922 390.108L100.938 389.399L100.977 388.013L101.402 387.507C103.612 384.88 106.45 382.979 110.058 381.657L110.252 381.587L110.55 381.482C112.86 380.682 115.325 380.134 118.835 379.622L119.051 379.591L119.475 379.531L119.922 379.469L120.376 379.408L124.27 378.913L125.194 378.791C126.205 378.655 126.996 378.539 127.708 378.42L128.205 378.335L128.591 378.265L129.071 378.173L130.312 377.925L131.329 378.892L131.476 379.034C131.638 379.191 131.797 379.347 131.972 379.521L132.079 379.628L132.43 379.983L133.408 380.98C135.787 383.398 136.967 384.38 138.46 385.152L138.532 385.189L138.676 385.261L139.02 385.429L139.702 386.067L140.115 386.455L140.508 386.827C144.652 390.77 147.356 393.822 149.541 397.085L149.643 397.238L149.842 397.541L149.996 397.778L150.161 398.091C153.367 404.129 157.119 408.681 161.798 412.154L161.985 412.293L162.199 412.449L162.222 412.466L162.932 413.023L163.261 413.279L163.504 413.464L163.739 413.642C167.089 416.146 169.245 416.903 171.148 416.312L171.214 416.291L171.422 416.221L171.543 416.177C172.086 415.972 172.568 415.675 173.339 415.054L173.515 414.91L173.782 414.689L173.972 414.528L174.603 413.987L174.813 413.809L175.04 413.62C176.301 412.579 177.128 412.064 178.212 411.668L178.308 411.634L178.513 411.563L179.821 411.299L180.141 411.232L180.377 411.182C182.608 410.689 183.482 410.179 184.468 408.777L184.519 408.704L184.621 408.555L185.112 407.809L186.006 407.628L186.135 407.6C188.024 407.18 188.559 406.649 188.366 405.728L188.356 405.683L188.342 405.623L187.491 402.249L190.79 403.363L192.004 403.77L192.15 403.819L191.646 402.663L191.457 402.221L191.328 401.918C190.41 399.735 189.999 398.444 189.743 396.894L189.726 396.787L189.694 396.579L189.677 396.149C189.28 386.319 187.262 383.463 177.462 379.119L177.163 378.986L176.847 378.848L169.431 375.619L177.512 375.217Z" fill="#FFCF77"/>
<path fill-rule="evenodd" clip-rule="evenodd" d="M288.96 720.625C266.596 730.648 225.985 718.002 204.01 710.685C198.085 708.552 196.111 708.134 197.771 701.316C200.878 707.299 207.558 708.744 213.959 709.943C235.639 714.876 257.742 723.982 280.929 719.539C284.332 719.004 287.699 717.165 288.69 713.772C289.3 715.21 288.922 717.158 289.167 718.739C289.212 719.37 289.226 720.052 288.96 720.625ZM198.508 683.346C198.912 679.328 199.558 675.083 201.849 671.533C201.6 677.275 205.056 687.035 212.627 683.784C214.771 682.65 215.973 680.365 217.353 678.531C221.939 672.497 227.819 667.257 234.462 663.45C238.157 664.084 239.746 670.828 242.128 673.65C239.473 674.831 234.661 677.522 234.174 680.305C237.49 679.192 240.541 677.119 244.018 676.391C245.132 677.925 246.312 679.412 247.552 680.85C245.932 681.562 239.401 684.856 239.444 686.501C242.976 685.928 246.398 684.203 249.948 683.494C251.528 685.057 252.965 686.739 254.537 688.307C252.162 689.284 249.654 690.374 248.357 692.649C248.296 692.752 248.447 692.867 248.531 692.767C250.309 690.627 253.371 690.234 256.023 689.752C260.094 693.578 264.651 696.952 269.752 699.476C274.856 702.261 282.613 702.898 284.643 708.94C286.267 714.98 281.202 715.625 276.528 716.052C271.8 716.723 267.038 716.825 262.34 716.433C247.656 715.822 233.775 711.508 219.899 707.738C202.933 704.622 197.427 702.098 198.508 683.346ZM204.532 648.176C213.521 649.399 222.754 648.646 231.534 646.482C230.927 648.995 230.514 651.551 230.262 654.121H230.282C230.193 654.939 229.968 655.996 229.96 657.001C230.017 658.479 229.995 660.284 230.893 661.514C224.393 666.312 218.047 671.658 213.533 678.349C210.545 683.794 206.569 680.48 205.582 676.118C204.947 668.403 205.246 661.045 204.931 653.647L204.903 653.651C204.821 651.824 204.706 649.999 204.532 648.176ZM203.482 648.025C203.442 648.29 203.406 648.556 203.368 648.824C203.321 648.542 203.288 648.257 203.219 647.98C203.307 647.994 203.394 648.011 203.482 648.025ZM198.955 644.121C197.452 643.664 195.958 643.178 194.469 642.678C194.103 642.559 193.495 642.524 193.3 642.156C198.843 630.628 195.592 617.232 195.853 604.91C193.918 571.312 201.639 538.306 202.743 504.909C202.655 485.981 196.065 467.945 192.719 449.458C196.141 442.151 199.33 434.761 202.425 427.328C202.524 427.103 202.142 426.963 202.018 427.165C198.371 432.76 194.737 438.356 191.355 444.106C174.988 468.447 167.628 496.203 159.876 523.881C157.363 530.186 153.331 535.741 148.852 540.91C130.268 560.945 112.922 583.8 108.593 610.871C91.3461 610.298 86.3638 599.736 80.3411 586.414C80.3575 586.364 80.3741 586.314 80.391 586.265C80.1746 585.888 80.025 585.485 79.9063 585.068C79.8519 585.11 79.7973 585.155 79.7424 585.201C75.7196 577.524 81.4119 561.516 84.4589 553.505C88.4511 544.601 93.8257 536.317 100.912 529.434C106.132 524.808 111.535 519.764 113.772 513.13C117.506 502.754 114.209 491.164 112.117 480.738C107.061 454.883 102.157 415.108 102.933 388.71C109.395 381.028 120.728 381.787 129.793 379.962C132.441 382.45 134.7 385.382 138.006 386.991C141.853 390.575 145.603 394.329 148.429 398.719C151.578 404.713 155.558 409.92 161.142 413.954C163.963 416.179 168.031 419.407 171.976 418.044C174.776 417.134 176.332 414.323 179.089 413.38C182.402 412.707 184.388 412.463 186.342 409.493C188.7 409.029 190.949 407.874 190.26 405.144C190.878 405.353 191.496 405.554 192.103 405.765C193.336 406.192 194.666 404.867 194.255 403.71C193.239 401.321 192.061 398.965 191.664 396.382C191.249 384.875 188.275 381.706 177.683 377.094C181.922 376.883 186.076 377.919 190.099 379.066C210.179 386.396 223.347 390.914 244.27 381.711C254.447 466.248 254.278 552.446 241.769 636.693C229.836 645.501 213.202 645.266 198.955 644.121ZM78.4888 595.354C78.5292 595.008 78.5741 594.664 78.6216 594.318C81.1366 601.137 85.4446 607.617 91.8594 611.566C89.4036 614.623 84.6205 615.533 81.3931 613.03C75.7646 608.819 78.1112 601.199 78.4888 595.354ZM89.1904 627.144C86.6922 626.952 76.0074 626.585 74.7252 628.258C76.1691 628.867 78.1543 628.53 79.7074 628.599C82.7238 628.722 85.7328 628.988 88.718 629.41C88.4945 630.571 88.2927 631.73 88.1267 632.894C85.1153 633.181 79.2515 633.311 77.3399 635.413C80.75 635.956 84.3005 635.468 87.7227 636.146C87.5565 637.738 87.4353 639.333 87.3453 640.928C85.9819 641.073 77.9645 642.398 77.9716 643.656C80.9733 644.055 84.1532 643.531 87.2123 643.827C86.5495 653.386 88.7964 682.251 75.7057 684.017C64.2611 683.415 59.2406 664.904 57.6853 656.024C54.2367 635.333 54.8283 613.272 61.6632 593.327C64.1044 587.781 70.7496 586.819 76.3686 586.532C76.5821 587.471 76.7934 588.393 77.0309 589.322C74.5943 594.835 73.8179 601.042 73.7512 607.008C74.2666 615.583 84.8681 621.958 92.5675 616.294C91.1283 619.801 90.0171 623.451 89.1904 627.144ZM74.046 688.831C51.3774 683.967 47.6583 657.768 49.2165 638.504C50.4868 625.094 48.96 596.821 61.3638 588.943C45.3333 603.547 46.7252 702.973 82.251 685.619C81.3652 688.421 76.8101 689.229 74.046 688.831ZM99.6087 391.959C99.7538 391.912 99.8961 391.848 100.027 391.769C99.9935 395.078 100.046 398.387 100.167 401.691C99.9341 398.448 99.7489 395.204 99.6087 391.959ZM97.7402 341.587C67.4843 311.499 73.2574 277.381 80.2066 239.799C91.423 241.135 102.701 243.821 112.802 248.751C109.24 265.339 109.011 280.375 107.477 297.207C107.014 299.288 107.537 303.296 110.491 302.372C137.648 323.89 140.804 368.109 176.442 380.896C190.967 386.788 184.837 391.57 189.637 402.696C186.996 402.212 184.64 400.003 183.505 397.889C182.942 396.839 181.303 397.764 181.852 398.811C183.034 401.065 185.02 402.878 187.374 404.011C187.084 404.58 186.984 405.22 186.953 405.819C182.714 406.685 183.906 408.692 181.042 409.65C179.168 410.166 177.366 410.387 175.746 411.52C170.234 416.644 168.866 416.267 162.95 411.759C163.031 411.351 154.98 403.504 152.486 399.117C150.408 395.457 148.233 391.772 145.048 388.942C129.452 373.005 112.837 357.965 97.7402 341.587ZM246.377 241.517C244.831 262.791 245.23 281.794 245.563 303.102C245.755 317.434 245.845 331.77 245.346 346.098C232.705 313.49 236.574 278.107 234.778 243.833C238.514 242.591 242.527 242.048 246.377 241.517ZM155.757 159.744C155.713 159.822 155.665 159.9 155.617 159.976C155.304 159.997 154.988 160.026 154.667 160.061C155.031 159.952 155.394 159.85 155.757 159.744ZM198.834 162.246C198.822 162.211 198.81 162.175 198.801 162.142C198.829 162.159 198.858 162.178 198.888 162.197C198.865 162.211 198.85 162.227 198.834 162.246ZM291.162 716.476C291.1 714.78 291.076 712.589 289.086 711.987C289.988 704.677 283.909 700.517 277.525 698.492C272.082 695.168 265.909 692.847 260.908 688.84C263.23 688.405 265.553 687.88 267.617 686.871C269.175 686.11 268.424 683.577 266.736 683.812C263.746 684.206 261.06 685.723 258.25 686.777C256.654 685.469 255.108 684.103 253.648 682.656C255.467 682.305 257.78 682.435 258.84 680.632C259.17 680.069 259.022 679.484 258.623 679.049C256.781 677.188 253.128 679.047 250.838 679.589C249.739 678.324 248.677 677.034 247.635 675.728C249.364 675.57 253.862 675.885 252.981 673.037C251.292 670.809 247.661 672.146 245.219 672.604C242.122 668.804 241.125 662.973 236.285 660.883C236.112 659.961 234.905 660.031 234.1 660.305C233.592 657.882 233.318 655.971 233.199 654.121L233.14 654.116C233.087 651.409 233.191 648.696 233.352 646.001C236.945 645.008 240.51 643.704 243.497 641.566C244.87 641.969 246.535 641.505 246.82 639.895C249.304 623.414 250.409 606.728 252.43 590.187C259.799 529.273 261.404 454.923 247.763 394.744C247.656 392.464 247.818 390.181 248.048 387.918C249.675 387.484 250.644 385.899 251.99 384.981C254.493 382.946 257.039 381.806 257.27 378.253C257.775 377.772 257.835 377.044 257.557 376.414C258.205 372.766 257.251 369.144 255.305 365.992C253.173 362.402 251.159 358.778 249.38 355.009C253.27 317.026 247.993 280.214 250.879 242.041C254.579 240.085 252.256 229.221 251.912 225.599C249.751 201.815 238.624 175.555 214.968 165.662C213.308 164.264 210.99 163.789 208.962 163.019C207.591 162.346 205.361 161.763 204.423 163.33C203.429 162.868 200.225 162.514 199.127 161.713C198.923 161.564 198.792 161.4 198.762 161.218C198.681 161.22 198.586 161.204 198.484 161.182C197.472 159.756 196.508 149.818 195.261 150.526C193.9 153.939 194.843 157.796 196.145 161.242C197.042 164.29 198.273 172.13 203.041 170.125C203.863 169.717 203.355 168.658 202.618 168.572C200.358 167.928 199.854 164.612 198.98 162.668C200.016 163.526 204.732 164.813 205.248 165.086C215.479 188.521 153.62 187.291 148.756 171.134C145.288 165.553 148.281 162.529 154.463 161.633C149.92 166.672 155.672 167.79 157.859 162.849C159.951 159.31 160.903 155.011 160.189 150.939C160.557 149.51 160.868 147.599 158.726 147.983C158.652 147.794 158.536 147.943 158.581 148.078C157.799 149.32 158.344 151.105 158.066 152.539C157.831 154.885 157.163 157.184 156.03 159.26C153.929 159.661 151.836 160.09 149.754 160.559C148.504 158.025 140.401 163.078 138.226 163.673C109.325 172.194 87.3482 194.885 79.6775 223.507C77.9652 227.318 76.1173 231.148 74.7161 235.077C74.0892 236.779 74.0892 238.891 75.811 239.993C67.4205 278.405 65.3733 318.427 97.0713 347.238C97.7906 350.357 97.3111 353.665 97.2897 356.841C97.5555 364.075 91.3618 388.866 98.5556 392.073C96.4535 424.188 104.336 467.885 111.976 498.867C112.541 509.516 109.323 519.203 100.662 525.922C84.1943 538.208 77.2573 558.717 75.3312 578.261C75.0581 580.264 75.3265 582.302 75.778 584.269C72.2083 584.933 68.867 585.364 65.4018 586.67C46.291 583.015 47.6545 623.992 46.1915 636.151C45.0466 654.125 45.7614 675.672 62.3121 687.442C67.8764 691.395 77.699 695.192 83.1211 689.205C84.6551 687.373 85.4913 685.231 84.8878 682.889C92.6608 671.529 90.825 657.01 91.4069 644.083C93.4422 644.154 95.6603 645.06 97.665 644.562C99.2087 644.154 99.4058 642.178 98.0996 641.391C96.2137 640.324 93.6512 640.73 91.5423 640.658C91.6066 639.421 91.6992 638.184 91.818 636.947C93.8198 637.435 96.6887 638.608 97.2848 635.816C97.5249 633.273 94.3066 633.079 92.3025 632.97C92.4426 632.01 92.5993 631.055 92.7775 630.102C94.3116 630.256 95.9311 631.233 97.4394 630.766C98.2941 630.429 98.591 629.566 97.9664 628.867C96.8053 627.732 94.8196 627.959 93.2833 627.606C94.2164 623.044 95.9028 618.681 97.5272 614.317C100.467 615.336 103.652 616.009 106.789 615.753C108.416 615.412 110.193 615.315 111.836 615.535C113.664 615.052 114.087 613.101 114.327 611.509C114.292 611.452 114.256 611.397 114.215 611.347C118.44 586.793 133.597 565.581 150.592 547.305C155.273 542.076 159.863 536.639 163.043 530.43C169.503 517.451 170.662 502.849 175.604 489.365C179.767 477.122 185.332 465.38 190.787 453.622C192.974 469.108 197.059 484.341 197.527 500.045C198.239 519.914 193.853 539.493 191.981 559.203C188.616 585.144 191.673 611.245 190.048 637.205C190.06 639.042 190.298 640.772 190.036 642.609C189.892 643.626 190.623 644.263 191.393 644.285C194.218 646.136 197.769 646.792 201.018 647.584C201.918 648.271 201.529 649.964 201.688 650.999C201.75 652.042 201.816 653.082 201.879 654.121H201.887C202.173 658.505 202.392 662.302 201.93 667.075C198.752 671.764 196.463 671.015 195.579 678.143C195.093 685.583 194.021 693.629 197.28 700.383C195.822 700.714 195.268 705.156 195.487 706.331C195.857 709.645 198.785 710.694 201.616 711.838C222.304 719.574 266.261 732.309 287.519 723.551C289.041 724.411 290.739 722.725 291.231 721.368C291.881 719.716 291.283 718.116 291.162 716.476Z" fill="black"/>
<path fill-rule="evenodd" clip-rule="evenodd" d="M221.495 107.826C219.868 87.9944 214.915 70.4296 191.642 69.6807C181.139 69.7745 170.418 72.006 160.76 76.1347C137.284 87.906 129.836 130.919 150.518 148.233C150.395 148.303 150.366 148.505 150.511 148.603C154.784 151.478 159.533 153.843 164.29 155.831C176.961 161.188 191.877 163.515 204.8 157.704C224.52 149.312 224.816 125.961 221.495 107.826Z" fill="#D08B5B"/>
<path fill-rule="evenodd" clip-rule="evenodd" d="M260.312 98.5828C261.122 97.8529 261.727 96.8953 262.032 95.8217C262.312 94.8428 262.331 93.7739 262.035 92.7974C261.717 91.7498 261.032 90.9156 261.186 89.8253C261.203 89.7187 261.224 89.6073 261.257 89.4959C261.85 87.4434 263.307 85.9621 262.786 83.6868C262.639 83.0445 262.362 82.4662 261.976 82.0111C262.018 81.5181 262.056 81.0204 262.087 80.5227C262.942 78.52 262.912 76.1404 261.999 74.1684C261.888 73.1588 261.72 72.1586 261.483 71.175C261.592 70.3052 261.44 69.3477 261.16 68.5869C260.669 67.2482 260.062 65.929 259.403 64.6316C259.481 64.2768 259.446 63.9019 259.25 63.5684C258.894 62.9624 258.424 62.4296 257.943 61.9089C257.603 61.3014 257.26 60.6989 256.921 60.1043C256.763 59.831 256.59 59.5279 256.398 59.2067C256.92 58.2383 257.199 57.2945 256.647 56.1557C256.439 55.7279 255.869 55.4124 255.4 55.4404C254.887 55.471 254.369 55.4939 253.848 55.5136C252.875 54.3385 251.772 53.2836 250.591 52.6764C249.394 51.662 248.18 50.6665 247 49.6498C246.666 49.3606 246.33 49.0715 245.995 48.7823C245.993 48.7752 245.991 48.7657 245.988 48.7586C245.742 47.8603 245.465 46.9739 245.187 46.0828C245.014 45.5305 244.962 44.9522 244.424 44.6512C243.301 44.0231 241.573 43.9236 240.284 43.8169C240.156 43.7032 240.028 43.5918 239.9 43.478C240.485 41.9185 240.381 40.2618 239.644 38.6999C239.393 38.169 238.521 37.9296 238.042 38.2804C236.938 39.091 235.627 39.3777 234.331 39.2592C232.425 37.7945 224.74 31.171 223.552 30.4719C223.538 30.4467 223.526 30.4216 223.51 30.3967C222.843 29.3307 222.032 28.4746 221.12 27.7882C220.99 27.6524 220.86 27.5163 220.73 27.3803C220.845 26.5676 221.146 25.7828 221.631 25.1263C221.683 25.0505 221.742 24.977 221.801 24.9059C222.65 23.8962 221.614 22.5974 220.429 23.126C220.344 23.1639 220.259 23.2018 220.173 23.2421C219.262 23.6483 218.254 24.0899 217.205 24.4625C216.821 24.3186 216.429 24.1882 216.072 24.0446L212.248 22.5071C211.618 22.254 210.953 22.0395 210.344 21.7421C210.132 20.3297 208.716 19.4035 207.247 19.4518C207.331 19.1807 207.458 18.9174 207.637 18.6678C207.689 18.5943 207.746 18.5232 207.805 18.4545C208.561 17.5752 207.551 15.9446 206.471 16.7267C206.395 16.7812 206.316 16.8357 206.241 16.8902C205.94 17.1009 205.633 17.2986 205.322 17.4901C204.825 17.273 204.265 17.2235 203.678 17.4531C202.38 17.9615 201.183 18.4784 200.04 19.2753C199.994 19.3077 199.946 19.335 199.899 19.3656C199.331 18.6801 198.431 18.2218 197.619 18.2267C197.603 18.2267 197.59 18.2265 197.575 18.2263C196.969 17.3022 195.857 16.7651 194.784 16.8957C194.856 15.5696 193.529 14.3862 192.32 14.2424C190.908 14.0746 189.636 14.8944 189.212 16.2719C189.094 16.6554 188.976 17.0391 188.858 17.4228C187.762 16.8694 186.605 16.4454 185.396 16.2337C182.644 15.7516 179.953 16.265 177.301 17.0291C177.036 17.1054 176.771 17.1839 176.507 17.2621C176.128 16.8239 175.774 16.3752 175.435 15.9564C174.849 15.2335 173.444 15.8118 173.539 16.7409C173.604 17.382 173.344 17.8433 172.925 18.171C172.464 18.2383 172.019 18.2587 171.348 18.2452C170.461 18.2272 170.057 18.1995 169.13 17.8378C168.698 17.6695 168.159 17.227 167.908 16.8298C166.942 15.3065 164.489 14.8963 163.32 16.3487C162.091 15.8104 160.539 16.5527 159.856 17.5994C159.499 18.1466 158.754 18.4526 157.816 18.7157C157.112 18.9129 156.392 19.0622 155.669 19.1928C155.346 18.7555 154.667 18.4623 154.17 18.829C153.832 19.0781 153.505 19.3338 153.182 19.5959C150.691 19.9391 148.213 19.9515 145.838 18.9802C143.828 18.1578 141.982 20.4039 142.313 22.2896C141.731 22.5927 141.099 22.7944 140.524 23.112C139.269 23.8055 138.239 24.9016 137.611 26.1896C137.498 26.4202 137.397 26.6543 137.3 26.8897C136.831 27.2715 136.367 27.6635 135.914 28.0771C135.161 27.6908 134.409 27.3045 133.656 26.9181C133.092 26.629 132.141 26.8304 132.03 27.5794C131.848 28.8118 131.404 29.8334 130.772 30.689C128.715 31.7697 126.736 32.9832 124.842 34.3318C122.664 35.0144 120.349 35.4126 118.446 35.8605C117.794 36.0146 117.439 36.8654 117.806 37.4319C118.195 38.0315 118.583 38.6312 118.97 39.2308C117.887 40.2879 116.87 41.3923 115.91 42.5347C113.239 45.7107 111.004 49.1923 109.004 52.8802C108.213 53.2002 107.421 53.5178 106.63 53.8377C105.867 54.1458 105.523 55.0323 106.141 55.684C106.435 55.9945 106.698 56.3216 106.924 56.6653C105.803 58.521 104.483 60.2133 102.636 61.3225C102.075 61.6591 101.653 62.1876 101.428 62.7872C101.236 62.9152 101.046 63.0527 100.859 63.1925C100.338 63.5859 100.022 64.4439 100.634 64.9535C101.063 65.3137 101.466 65.7404 101.807 66.212C101.88 66.4798 101.956 66.75 102.032 67.0179C100.316 68.5963 98.8896 70.4308 97.8184 72.488C97.5649 72.4478 97.3042 72.4738 97.0933 72.6302C95.1784 74.0452 95.1215 76.2992 95.8917 78.3138C95.4272 81.3498 95.7258 84.4618 96.6217 87.4031C95.4438 88.5787 94.7352 90.2756 94.4461 91.911C93.9366 94.7836 93.901 99.2014 93.7683 102.133C92.4838 103.373 91.5691 104.977 91.0595 106.703C90.6306 106.916 90.2016 107.129 89.7727 107.343C89.3911 107.532 89.1115 108.032 89.1352 108.454C89.2442 110.495 90.0855 112.107 91.2017 113.567C91.5975 114.692 92.1829 115.731 92.9507 116.726C93.4816 117.409 94.0006 118.063 94.4579 118.8C94.5053 118.873 94.5338 118.942 94.5551 118.989C94.375 119.184 94.2257 119.506 94.0954 119.736C93.0005 121.665 92.9839 123.926 94.5385 125.607C93.9532 126.085 93.9342 127.052 94.4508 127.645C97.8137 131.487 100.617 136.158 105.284 138.199C105.305 138.235 105.324 138.27 105.34 138.306C104.395 140.581 104.267 141.764 105.039 144.115C105.044 144.136 105.051 144.155 105.058 144.176C105.471 145.409 106.229 147.383 107.597 147.767C108.028 147.888 108.452 147.943 108.872 147.94C109.957 148.985 111.04 150.033 112.123 151.081C112.218 151.6 112.277 152.123 112.296 152.652C112.327 153.536 113.159 154.252 114.055 153.991C114.37 153.899 116.114 152.204 116.434 152.213C116.595 152.375 116.751 152.536 116.908 152.699C117.484 153.304 118.282 154.257 118.349 154.889C118.477 156.081 119.259 157.447 120.522 157.688C120.996 158.17 121.754 158.314 122.335 157.686C122.373 157.646 122.411 157.605 122.451 157.57C122.513 157.563 122.572 157.556 122.634 157.549C122.913 158.383 123.193 159.217 123.475 160.049C124.027 161.689 126.136 162.744 127.634 161.786C127.876 161.931 128.113 162.085 128.35 162.239C128.71 162.469 129.075 162.704 129.449 162.924C129.471 162.986 129.492 163.047 129.511 163.106C129.753 163.844 130.757 164.239 131.376 163.815C131.568 163.877 131.765 163.926 131.964 163.967C133.009 164.173 134.061 164.116 135.071 163.768C135.793 163.521 136.483 163.05 137.26 162.986C137.309 162.982 137.359 162.985 137.408 162.983C138.042 164.283 139.492 165.402 140.634 165.783C142.13 166.281 143.661 166.103 145.023 165.493C145.39 166.228 145.852 166.923 146.403 167.567C146.709 167.923 147.261 167.847 147.577 167.567C148.175 167.036 148.77 166.503 149.364 165.969C149.794 165.803 150.228 165.605 150.68 165.42C152.096 164.841 153.648 164.602 154.958 163.766C155.579 163.369 156.164 162.863 156.645 162.276C157.553 161.753 158.386 161.1 159.137 160.352C159.511 160.355 159.902 160.267 160.281 160.075C161.867 159.269 162.701 157.629 162.775 155.951C164.059 152.929 164.817 149.706 165.026 146.407C165.092 145.324 165.104 144.231 165.021 143.148C164.964 142.385 164.772 141.875 164.483 141.185C164.386 140.96 164.298 140.754 164.23 140.527C164.246 139.797 164.256 139.067 164.265 138.339C164.462 137.725 164.813 137.154 165.301 136.673C166.057 135.929 166.403 134.383 165.716 133.464C165.268 132.869 164.822 132.274 164.374 131.679C164.5 129.126 165.111 125.064 163.756 124.637C163.81 124.258 163.926 123.884 163.993 123.507C164.31 121.696 164.121 120.077 163.159 118.494C162.957 118.165 162.786 117.873 162.647 117.589C162.559 117.067 162.471 116.546 162.384 116.024C162.248 115.221 162.116 114.41 162.002 113.595C161.943 112.557 161.888 111.519 161.829 110.478C161.775 109.521 161.713 108.563 161.649 107.603C161.675 107.174 161.713 106.745 161.767 106.316C162.092 103.759 163.137 102.813 164.948 101.036C165.232 100.991 165.514 100.941 165.791 100.884C167.083 100.616 168.434 100.202 169.763 100.351C171.207 100.512 172.498 101.135 173.901 100.339C174.314 100.102 175.221 99.4479 175.299 98.9289C175.304 98.8957 175.311 98.8673 175.321 98.8459C175.418 98.8317 175.544 98.8199 175.622 98.8175C176.736 98.7796 177.8 99.218 178.923 99.0972C180.252 98.955 181.442 98.3648 182.224 97.4902C183.227 97.7367 184.25 97.8481 185.291 97.7106C186.163 97.5969 186.945 97.3125 187.718 96.8906C188.279 96.5872 188.102 96.4995 188.713 96.746C190.104 97.3101 191.363 98.0543 192.929 97.668C193.742 97.4689 194.443 97.0304 195.033 96.4403C195.173 96.3028 195.41 96.0966 195.569 95.9023C196.313 96.2791 198.185 97.13 198.493 97.2058C199.366 97.4191 200.29 97.3859 201.138 97.1015C201.762 96.893 202.525 96.3241 203.072 96.208C203.781 96.0563 205.354 97.0423 206.2 97.3812C207.684 97.9761 209.255 98.123 210.758 97.5092C211.274 97.2982 212.279 96.4569 212.665 96.464C213.293 97.239 215.047 101.479 215.573 103.027C217.704 109.284 218.256 128.821 217.272 133.805C217.235 133.952 217.194 134.096 217.154 134.243C215.945 138.578 214.687 142.987 212.665 147.025C210.758 150.832 208.12 154.259 204.335 156.337C200.411 158.494 195.804 159.061 191.391 158.769C188.549 158.584 185.755 158.013 183.006 157.297C181.57 156.925 180.146 156.51 178.729 156.079C178.11 155.892 177.482 155.716 176.875 155.498C175.804 155.112 175.243 155.081 174.216 155.577C173.283 156.027 173.043 157.357 173.529 158.193C174.321 159.558 175.771 159.653 177.172 160.051C178.598 160.457 180.03 160.845 181.471 161.194C184.232 161.857 187.037 162.367 189.867 162.602C194.934 163.026 200.155 162.372 204.767 160.16C205.288 159.909 205.79 159.641 206.276 159.352C206.096 159.603 205.914 159.855 205.729 160.104C205.217 160.793 205.596 161.966 206.314 162.343C206.542 162.462 206.769 162.576 206.999 162.687C207.03 162.76 207.063 162.834 207.101 162.907C207.757 164.225 209.132 165.003 210.533 165.339C212.196 165.737 214.059 165.455 215.751 165.405C217.32 165.358 218.889 165.311 220.455 165.263C220.825 165.254 221.195 165.242 221.564 165.23C223.427 165.173 225.287 165.119 227.148 165.062C228.807 165.012 228.728 165.14 230.285 164.476C230.98 164.178 231.549 163.756 232.027 163.194C232.326 163.061 232.615 162.91 232.892 162.737C233.783 162.182 234.575 161.438 235.305 160.618C236.544 161.009 238.281 160.646 238.523 159.089C238.912 156.598 242.149 155.534 243.661 153.733C244.882 152.28 245.754 150.377 245.709 148.549C248.785 147.061 250.458 143.138 250.849 139.811C251.031 138.268 251.003 136.616 251.266 135.047C251.382 134.921 251.486 134.788 251.574 134.646C252.347 133.397 253.02 132.11 253.612 130.793C254.418 130.212 255.387 129.854 256.402 129.795C258.895 129.65 259.364 126.287 256.987 125.476C256.975 125.472 256.966 125.469 256.954 125.465C257.598 123.853 257.544 121.945 256.762 120.419C256.795 120.253 256.826 120.089 256.857 119.923C258.191 118.489 258.956 116.496 258.871 114.555C259.48 114.126 260.163 113.794 260.909 113.588C262.063 113.27 262.07 111.863 261.217 111.232C260.874 110.978 260.589 110.682 260.352 110.355C260.942 108.582 260.71 106.532 259.504 105.077C260.269 104.096 261.035 103.114 261.8 102.133C262.307 101.484 262.575 100.382 261.8 99.7655C261.305 99.3697 260.81 98.9763 260.312 98.5828Z" fill="black"/>
<path fill-rule="evenodd" clip-rule="evenodd" d="M197.255 143.847C195.659 143.197 194.235 142.113 193.193 140.728C192.831 140.247 192.737 139.738 192.813 139.273C192.899 138.75 193.208 138.277 193.631 137.959C194.055 137.64 194.586 137.483 195.099 137.563C195.544 137.632 195.988 137.876 196.339 138.381L196.412 138.482C197.031 139.318 197.838 140.004 198.757 140.446C199.643 140.872 200.634 141.071 201.66 140.955C203.613 140.735 204.959 139.681 206.39 138.249C206.567 138.069 206.745 137.882 206.923 137.693C207.036 137.521 207.192 137.411 207.365 137.353C207.558 137.289 207.776 137.292 207.976 137.362C208.168 137.429 208.34 137.556 208.456 137.725C208.565 137.886 208.628 138.084 208.607 138.313C208.476 139.796 207.699 141.12 206.595 142.16C205.369 143.314 203.744 144.113 202.214 144.393C200.528 144.702 198.811 144.481 197.255 143.847ZM203.009 120.962C204.803 122.05 207.535 124.587 205.606 127.284C203.335 129.662 200.065 126.935 198.454 125.702C196.96 124.746 195.282 127.204 196.668 128.32C208.31 136.922 213.035 121.246 203.916 119.683C202.912 119.51 202.539 120.625 203.009 120.962ZM182.146 110.955C182.344 108.5 186.09 107.943 186.462 110.372C186.796 112.548 186.403 114.546 185.421 116.505C184.483 118.377 182.124 117.504 181.946 115.8C181.707 113.515 182.022 112.482 182.146 110.955ZM210.66 109.868C211.182 109.186 211.936 108.72 212.839 108.983C215.662 109.806 214.83 113.805 213.839 115.752C213.3 116.809 211.559 117.077 210.772 116.146C209.49 114.628 208.876 111.597 210.506 110.102C210.55 110.025 210.599 109.947 210.66 109.868ZM185.381 100.215L185.827 100.137C187.207 99.8986 188.922 99.6699 189.897 100.777C190.415 101.363 190.593 102.454 189.897 103.016C188.674 104.004 187.321 103.621 185.855 103.705C184.646 103.774 183.485 103.974 182.321 104.306C179.768 105.034 177.687 106.364 175.506 107.824C175.22 108.015 174.928 107.65 175.064 107.383C176.323 104.922 178.763 102.9 181.207 101.668C182.511 101.01 183.938 100.465 185.381 100.215ZM208.086 99.1123L208.428 99.182C212.141 99.9567 216.966 101.504 218.725 105.145C218.792 105.659 218.721 105.77 218.664 105.842L218.644 105.866C218.597 105.927 218.559 106.012 218.336 106.082C218.273 106.067 218.211 106.052 218.148 106.035C217.341 105.824 216.704 105.534 216.086 105.233L215.417 104.903C214.64 104.523 213.856 104.157 213.026 103.887C211.254 103.31 209.431 102.903 207.58 102.686C207.179 102.639 206.792 102.504 206.488 102.273C206.198 102.053 205.977 101.749 205.876 101.344C205.746 100.82 205.783 100.424 206.065 99.9517C206.277 99.597 206.579 99.3511 206.927 99.2099C207.282 99.066 207.685 99.0321 208.086 99.1123Z" fill="black"/>
</svg>
