<svg width="391" height="780" viewBox="0 0 391 780" fill="none" xmlns="http://www.w3.org/2000/svg">
<path fill-rule="evenodd" clip-rule="evenodd" d="M279.631 717.588C280.192 715.325 279.278 712.387 278.751 709.446C277.932 704.871 275.997 698.241 272.311 696.168C271.657 694.442 249.562 680.53 240.102 673.583C235.243 670.015 235.222 663.373 234.238 663.451C232.364 658.853 232.123 654.314 230.973 648.989C235.247 648.429 242.547 649.436 245.916 647.008C246.519 647.048 246.51 640.468 246.598 639.539C244.06 632.678 237.824 464.802 244.06 384.839C244.721 375.939 246.441 365.98 244.742 356.799C247.525 356.189 249.194 353.311 249.203 353.195C255.86 340.153 245.649 295.805 239.249 283.527C244.331 283.395 251.025 282.705 254.172 278.47C255.661 277.981 256.6 277.128 257.323 275.759C258.156 274.454 258.928 273.085 259.624 271.682C263.01 264.662 265.099 256.866 263.97 249.131C264.185 249.063 265.293 249.056 265.348 248.746C265.457 246.844 265.107 245.169 264.535 243.373C258.72 223.143 251.72 203.226 242.468 184.18C237.831 173.987 228.239 170.267 218.299 166.44C213.518 164.565 208.734 162.401 203.743 161.173C203.681 160.824 203.979 159.764 203.325 159.851C202.517 160.019 202.676 161.315 202.377 162.042C190.837 152.614 198.155 147.756 191.197 142.593C183.997 138.863 179.729 138.712 171.791 139.519C168.863 139.603 166.519 140.921 165.829 143.863C163.311 149.95 157.413 154.431 150.978 155.804C150.446 154.86 148.984 152.15 148.165 153.006C138.872 153.322 120.912 160.65 112.213 163.197C103.481 165.423 103.591 167.795 101.307 177.265C97.1614 194.14 97.9382 257.519 108.756 270.875C108.756 270.875 114.638 274.796 117.592 275.759C117.526 282.003 118.574 291.304 117.592 297.411C115.383 308.485 112.69 319.605 110.229 330.739C110.218 331.979 100.369 350.365 104.986 346.962C105.938 347.43 107.614 349.394 108.64 349.831C103.735 360.987 104.638 374.681 104.986 388.463C105.073 396.67 103.151 405.664 101.307 414.068C87.6599 485.28 78.4028 566.139 73.3355 637.471C73.1289 640.392 72.9933 642.622 72.8954 644.699C72.7947 645.41 73.7577 645.396 74.1152 645.035L74.6084 644.556C75.1577 644.713 76.0357 644.952 76.5924 645.103C76.6632 647.439 76.4314 649.865 76.1485 651.994C75.8885 654.029 72.5746 662.919 73.3355 664.905C70.8093 664.771 66.0669 668.909 63.8043 673.385C62.6439 674.422 63.0735 676.255 62.2224 677.849C60.4994 679.505 42.5107 689.936 42.5107 689.936C38.1046 693.454 25.8098 703.788 26.9664 706.623C26.9664 706.623 26.8362 707.51 26.7925 707.806C24.3597 721.933 28.4108 721.342 41.5178 723.42C60.6647 726.791 78.7742 716.568 94.9558 707.903C100.333 704.283 105.571 705.244 104.986 700.873C103.924 695.476 103.736 676.156 97.5981 676.592C98.6074 675.487 98.3545 665.346 97.5981 663.451C97.1177 658.57 101.543 654.013 101.307 648.989C103.878 649.18 109.13 650.383 110.229 647.521C110.18 647.232 108.966 647.238 108.756 647.169L108.778 647.008L108.64 646.975C119.344 609.321 145.419 436.403 173.732 423.13C173.907 424.549 177.022 422.866 178.909 423.13C187.666 491.319 197.693 555.595 203.041 628.529C203.576 630.692 204.813 645.779 205.336 648.282C205.336 648.282 206.975 649.634 207.942 649.901C208.234 657.596 207.244 673.654 207.21 673.671L206.698 674.921C203.716 681.634 201.494 690.616 205.336 697.194C202.484 696.986 201.239 699.412 201.112 701.932C199.432 712.982 243.855 722.788 254.172 723.42C257.561 724.011 281.727 719.709 279.631 717.588Z" fill="#D08B5B"/>
<path d="M108.428 349.339L110.224 350.045C150.665 365.931 197.014 369.29 242.305 360.42L243.678 360.147L246.014 359.677L245.663 363.647C241.029 416.394 238.397 461.046 237.756 503.784C237.007 553.695 239.059 599.89 244.349 644.06L244.511 645.398L244.676 646.76L243.398 647.264C240.158 648.543 236.763 649.256 232.007 649.83L231.104 649.937C224.578 650.701 217.657 650.921 209.964 650.693L209.511 650.679L208.887 650.658L208.864 650.699L207.991 650.626L207.462 650.607L207.451 650.581L207.079 650.551L206.949 650.543L206.774 650.533L204.394 650.432L205.096 648.218C205.595 646.642 205.711 644.931 205.46 643.135L205.424 642.89L205.419 642.818C205.055 637.605 181.018 446.766 181.018 446.766C180.582 443.426 176.65 425.246 174.845 422.78L174.781 422.693L174.78 422.693L174.744 422.683C174.658 422.664 174.514 422.661 174.315 422.69C173.737 422.774 172.942 423.091 172.028 423.606C170.613 424.403 168.957 425.673 168.088 426.508L167.988 426.606L167.861 426.787C163.588 432.903 159.946 439.804 156.618 447.838L156.452 448.241L156.289 448.639C153.673 455.051 145.394 481.322 145.394 481.322C143.776 486.636 110.808 623.239 110.808 623.239C109.29 630.225 108.111 635.612 106.969 640.765L106.417 643.254L104.944 649.842L102.879 649.745C101.029 649.653 99.2299 649.531 96.7297 649.333L95.7046 649.251L91.5127 648.907C84.6958 648.357 81.1931 648.175 77.1517 648.243L76.8874 648.248L74.7614 648.294L74.7894 646.49L74.1677 646.316L73.9312 646.166L72.8252 645.643L72.9131 644.43C78.634 565.454 88.3777 488.614 102.321 413.968L102.727 411.801L102.757 411.423C103.098 406.994 103.725 376.911 104.147 371.847L104.195 371.275C104.827 364.01 105.949 357.595 107.766 351.52L107.868 351.183L108.428 349.339Z" fill="#BA98DE"/>
<path fill-rule="evenodd" clip-rule="evenodd" d="M207.292 676.801C206.417 680.069 208.007 681.703 212.065 681.703C218.151 681.703 222.009 672.369 225.018 671.3L237.252 664.813C239.012 664.169 241.246 672.912 249.602 678.797C258.903 685.347 271.212 693.881 271.733 695.257C277.789 698.663 279.899 703.276 278.465 709.06C280.561 711.181 284.422 718.483 280.486 719.218C277.448 719.938 261.661 724.949 258.272 724.359C247.955 723.727 201.786 710.422 200.162 705.49L200.172 705.256C200.265 702.647 199.918 697.5 202.683 697.701C198.918 691.255 203.018 684.487 205.99 677.901L206.171 677.498L206.26 677.703C206.294 677.686 206.958 677.024 206.992 677.082C207.034 677.025 207.132 676.924 207.258 676.801L207.292 676.801ZM80.2342 670.764L80.2757 670.905C80.9774 673.322 82.8974 681.703 85.1627 681.703C86.7037 681.703 90.5049 684.542 92.7663 682.636L93.0275 682.396C95.0132 680.579 96.6162 679.355 97.8365 678.723C100.494 678.855 101.385 679.888 100.509 681.821L100.584 682.365C101.21 686.868 100.673 691.028 100.739 691.508C101.713 694.713 105.647 699.331 104.258 702.024C102.101 706.208 93.4781 708.02 90.2065 710.222C74.0249 718.887 59.7152 725.372 40.5684 722.001L39.4131 721.82C27.2241 719.917 23.4832 719.616 25.8431 705.912L25.8595 705.787C25.9127 705.346 26.0169 704.256 26.0169 704.256C25.4994 702.987 29.2635 697.36 35.5729 692.69C43.3652 686.922 60.3416 676.302 61.2936 675.387C62.1448 673.794 64.7391 671.527 65.8995 670.491C68.1621 666.015 67.1902 664.206 69.3379 663.696C72.9598 664.288 79.5901 668.621 80.2342 670.764Z" fill="white"/>
<path fill-rule="evenodd" clip-rule="evenodd" d="M275.569 718.501C269.969 719.783 264.505 721.901 258.976 723.153C240.967 721.829 223.288 715.781 207.49 708.317C202.911 706.317 200.226 702.767 202.273 698.213C208.974 706.479 233.779 712.23 245.135 715.791C252.197 717.338 260.216 720.834 267.347 717.571C271.866 716.8 277.01 714.637 278.749 710.576C278.869 712.307 278.691 714.028 278.54 715.753C278.717 717.871 277.682 718.158 275.569 718.501ZM208.692 648.844C208.544 648.492 208.073 648.484 207.895 648.804C207.552 648.776 207.187 648.742 206.823 648.726C207.447 646.758 207.535 644.699 207.225 642.666C206.834 637.062 206.386 631.462 205.912 625.864C201.021 572.22 195.388 518.415 185.782 465.361C185.898 465.28 185.974 465.154 185.953 464.993C185.471 461.234 184.454 457.569 183.743 453.848C183.027 450.095 182.422 446.323 181.761 442.56C181.564 441.437 181.363 440.312 181.153 439.189C181.304 436.46 180.644 433.59 180.295 430.946C180.05 429.09 179.697 427.191 179.211 425.336C179.416 424.711 179.309 423.97 178.806 423.5C178.799 423.493 178.792 423.488 178.785 423.481C178.822 423.358 178.864 423.24 178.908 423.13C179.254 422.277 180.002 421.896 180.543 421.289C182.097 421.008 183.687 420.931 185.254 421.18C185.488 421.223 185.662 420.901 185.425 420.774C179.128 417.097 171.289 420.642 166.645 425.436C152.372 445.68 147.209 471.385 139.322 494.612C125.045 545.134 115.031 596.814 103.562 647.969C94.4895 647.548 85.4385 646.227 76.3467 646.454C76.0052 645.684 75.4181 644.861 74.719 644.53C80.3679 566.548 90.0739 488.856 104.525 412.007C106.129 391.877 103.62 371.355 109.601 351.671C152.056 368.349 199.527 370.831 244.059 361.862C235.733 456.114 231.334 551.351 242.772 645.583C239.116 647.026 235.19 647.646 231.303 648.099C223.828 649.001 216.207 649.115 208.692 648.844ZM95.7312 671.059C95.0589 672.362 95.7721 673.719 97.1813 674.089C92.9656 675.199 92.1836 679.674 88.8606 681.717C88.5493 681.129 87.6689 681.03 87.08 680.859C85.3047 674.27 83.2554 666.518 74.9385 664.095C75.4677 663.42 75.3945 662.623 75.3698 661.824C75.9878 658.689 78.2128 651.689 76.8344 648.094C84.4761 649.832 92.3204 650.543 100.069 651.67C98.4923 657.391 97.1564 666.03 95.7312 671.059ZM101.047 698.923C101.297 698.856 101.547 698.787 101.792 698.713C103.011 704.05 94.749 705.791 90.6739 707.685C84.5324 710.225 78.3983 712.775 72.2787 715.344C59.8877 721.548 48.25 723.295 34.4754 718.873C25.7094 717.197 27.377 715.524 26.092 708.775C34.8812 720.573 52.8858 715.509 64.0627 710.409C74.2213 706.526 84.4536 702.797 94.9629 699.53C97.0626 700.055 99.0634 699.507 101.047 698.923ZM190.282 267.642C184.99 269.073 179.623 269.814 174.242 270.875C174.711 267.427 175.401 263.981 175.413 260.489C180.123 263.357 185.128 265.701 190.282 267.642ZM140.344 232.773C151.655 230.42 163.63 231.279 174.317 235.75C177.987 236.968 182.944 240.141 186.754 238.672C183.928 247.624 187.488 256.847 191.169 264.994C182.719 262.182 175.279 257.235 167.584 252.897C170.465 249.113 144.266 244.526 141.422 244.626C140.615 240.712 139.653 236.831 138.81 232.922C139.28 233.098 139.865 232.863 140.344 232.773ZM198.789 237.007C198.85 237.051 198.894 237.109 198.915 237.185C209.985 238.715 221.103 243.743 232.47 242.286C240.15 241.297 236.613 245.679 231.498 245.515C219.958 246.669 209.259 239.86 198.523 237.539L198.789 237.007ZM204.831 163.015C204.804 163.136 204.777 163.257 204.751 163.379C204.637 163.379 204.524 163.367 204.405 163.334C204.331 163.262 204.261 163.189 204.19 163.116C204.399 163.057 204.616 163.021 204.831 163.015ZM282.86 716.242C282.701 713.569 281.295 710.891 279.283 709.093C280.626 703.606 277.936 696.617 272.197 694.255C270.636 691.702 267.248 690.579 264.801 688.758C266.854 688.633 268.736 687.173 267.16 685.603C263.825 686.612 260.598 687.976 257.423 689.342C256.565 689.522 254.526 691.219 254.366 689.705C254.97 688.5 259.627 687.282 261.146 686.446C260.021 685.736 258.893 685.023 257.772 684.308C259.764 684.26 262.324 682.767 260.372 681.073C255.113 682.241 249.644 683.27 245.009 685.928C241.185 684.981 252.317 681.581 253.345 681.419C251.599 680.233 249.908 678.992 248.32 677.653C250.062 677.621 253.694 675.872 251.371 674.31C248.446 673.559 244.385 675.966 241.482 676.738C241.48 676.736 241.48 676.738 241.48 676.738C239.293 677.547 237.127 678.42 234.98 679.323C234.113 679.688 233.745 678.494 234.6 678.133C237.936 676.731 241.312 675.405 244.762 674.261C243.822 673.238 242.936 672.173 242.048 671.104C242.283 669.43 240.55 667.959 239.908 666.444C240.044 665.668 239.654 664.451 238.732 664.29C238 663.581 236.894 663.535 235.873 663.696C234.253 660.587 232.854 655.746 232.34 651.889C236.633 651.317 241.613 651.3 245.324 648.935C246.428 648.866 247.528 648.067 247.559 646.739C247.669 641.949 247.194 637.23 246.768 632.464C246.342 627.703 245.941 622.94 245.566 618.175C239.233 541.74 240.374 464.905 246.397 388.491C247.04 379.532 247.363 370.37 245.872 361.474C247.723 360.903 254.64 359.714 254.107 357.213C260.109 341.957 251.232 302.882 244.705 287.527C249.563 287.243 255.393 286.204 258.584 282.206C261.656 281.125 262.733 277.53 264.265 274.939C267.559 268.036 269.694 260.268 268.86 252.582C272.261 251.682 268.044 242.356 267.668 239.845C262.028 221.276 255.566 202.807 247.097 185.321C244.073 178.928 238.775 173.876 232.289 171.053C224.492 167.661 216.657 164.15 208.504 161.668C208.554 160.281 207.101 159.739 206.11 160.24C206.047 160.219 205.984 160.199 205.919 160.183C204.916 159.946 203.399 160.336 202.593 161.172C199.95 157.308 199.266 152.419 198.291 147.88C194.36 151.984 197.989 165.72 204.111 166.903C200.124 195.607 166.697 188.798 156.525 167.881C154.318 163.84 152.83 159.867 150.628 155.754C156.981 157.053 163.479 153.552 165.783 147.47C166.255 146.485 166.664 145.935 167.535 145.319C168.606 144.56 168.333 142.631 166.82 142.681C160.854 144.017 164.773 153.498 150.26 155.159C149.735 154.349 149.115 153.581 148.462 153.185C148.186 152.882 147.315 152.797 146.845 153.145C135.925 153.8 125.274 156.555 114.801 159.522C105.806 161.729 96.3739 166.526 94.1464 176.294C89.8835 191.828 96.6835 269.027 108.422 278.573C110.357 280.443 112.68 281.73 115.195 282.635C112.788 299.801 109.035 316.859 105.841 333.92C105.602 336.862 100.485 353.19 106.98 350.503C107.156 350.588 107.335 350.67 107.513 350.753C107.129 351.533 106.768 352.323 106.418 353.123C105.297 355.689 104.404 358.285 103.995 361.065C103.569 363.955 103.485 366.877 103.356 369.792C103.308 370.876 103.268 371.941 103.255 373C102 383.23 102.026 393.674 101.924 403.953C96.2492 442.814 88.1014 481.381 83.4699 520.446C77.8369 562.181 73.3683 604.087 70.7699 646.123C70.6811 648.052 72.9203 648.433 74.0092 647.362C74.1653 647.407 74.3218 647.449 74.4785 647.492C74.4811 649.178 74.336 650.869 74.1401 652.544C73.7677 654.984 70.9668 661.128 71.6721 663.343C69.1224 662.99 65.0177 663.508 64.2776 665.592C61.3589 669.3 61.5456 674.356 58.0806 677.719C61.4157 678.447 64.7284 679.423 67.963 680.447C68.6315 680.806 68.2268 681.781 67.3814 681.53C65.5855 680.994 63.7848 680.442 61.9742 679.942V679.94C60.2235 679.455 58.4651 679.02 56.6839 678.688C56.6224 678.738 56.6435 678.846 56.721 678.889C55.4464 679.875 53.9993 680.733 52.548 681.555C53.4837 681.76 65.9158 685.081 62.1963 686.122C58.5898 684.63 54.831 683.204 50.9319 682.464C49.2448 683.417 47.5942 684.411 45.9283 685.389C46.7324 685.559 60.1344 688.463 55.4896 689.303C51.8871 687.995 48.1531 687.118 44.3903 686.299C39.7768 689.035 35.156 691.763 30.6028 694.576C28.6986 695.745 26.6284 696.873 25.4056 698.632C23.7812 700.972 23.7619 703.893 24.8784 706.569C21.6193 720.57 27.3706 721.11 40.7759 724.051C59.7784 728.903 76.2585 717.264 92.7721 710.94C96.2214 709.328 100.034 708.116 103.125 705.993C106.045 703.919 107.969 699.562 105.295 696.573C107.143 693.127 104.676 684.676 104.086 680.638C103.599 678.09 103.272 673.98 99.4783 673.849C100.493 673.191 100.46 671.955 100.123 670.961C99.6787 666.069 101.203 657.381 101.569 651.856C104.468 652.064 108.768 652.912 110.273 649.706C110.854 648.78 110.104 647.786 109.154 647.66C109.155 647.658 109.155 647.657 109.155 647.656C109.358 647.671 109.301 647.648 109.166 647.616C124.537 584.301 134.452 519.433 156.635 457.95C161.713 446.074 163.975 430.759 175.322 423.092C175.477 424.05 175.64 425.155 176.243 425.844C176.276 425.968 176.31 426.092 176.342 426.216C176.738 427.76 177.184 429.288 177.578 430.833C186.456 499.005 196.706 567.034 201.631 635.664C202.377 638.842 201.163 650.155 205.622 649.647C206.174 649.957 206.894 650.106 207.492 650.254C206.571 654.332 206.828 660.493 206.857 664.211C206.793 667.928 206.178 671.776 206.593 675.456C207.07 677.875 211.604 676.418 210.863 673.986C210.759 667.013 210.336 658.412 209.136 650.671C216.084 652.023 223.205 652.352 230.28 652.027C229.901 656.114 231.114 661.227 232.527 664.579C228.29 665.998 224.188 667.909 220.913 670.791C217.813 673.602 214.963 680.047 209.497 677.917C207.982 677.245 206.322 676.078 205.799 674.575C205.293 674.199 205.558 675.104 205.657 675.32L205.45 675.391C204.193 674.591 201.884 682.891 201.691 683.926C200.725 688.37 199.607 693.432 201.893 697.587C196.981 699.622 197.51 706.241 201.152 709.013C215.61 718.356 239.719 725.984 257.664 727.263C260.84 727.483 264.181 726.555 267.202 725.557C270.753 724.61 274.315 723.598 277.825 722.485C280.917 721.777 283.244 719.132 282.86 716.242Z" fill="black"/>
<path fill-rule="evenodd" clip-rule="evenodd" d="M182.697 56.5759C193.307 56.5759 206.038 61.7201 207.12 61.823L207.149 61.8246C207.719 61.8246 209.944 63.52 213.825 66.9107L209.621 75.1099L209.962 75.4347C211.589 76.9955 212.979 78.4181 214.076 79.5396C223.032 88.6963 224.642 124.648 222.531 137.186C220.42 149.723 216.511 161.992 198.311 161.992C180.11 161.992 159.862 151.047 156.743 147.639C154.664 145.367 152.328 144.278 149.736 144.373C149.629 144.239 149.524 144.105 149.419 143.971L149.037 143.917C145.45 143.398 142.88 142.698 141.326 141.819C138.292 140.103 134.957 131.077 134.957 129.089C134.957 127.121 129.977 112.803 129.878 111.287L129.876 111.246C129.876 109.979 123.371 104.156 123.371 102.307C123.371 100.458 122.059 100.57 123.371 94.0536L123.752 92.1394C125.147 85.2014 127.878 73.7133 138.292 68.7213C149.736 63.2356 171.979 56.5759 182.697 56.5759Z" fill="#D08B5B"/>
<path fill-rule="evenodd" clip-rule="evenodd" d="M212.447 69.6654L213.227 68.1424C209.844 68.2381 205.853 68.3875 201.64 68.6213C195.783 68.9464 189.489 69.4349 183.796 70.1682C178.119 70.8996 172.985 71.8812 169.478 73.2122C165.818 74.6011 162.923 77.895 160.637 81.8967C158.343 85.9135 156.604 90.7481 155.304 95.384C154.002 100.025 153.132 104.498 152.588 107.809C152.316 109.465 152.124 110.832 152.001 111.786C151.941 112.252 151.897 112.619 151.867 112.874C151.741 112.938 151.585 113.016 151.403 113.111C150.871 113.385 150.115 113.788 149.208 114.308C147.396 115.347 144.975 116.856 142.55 118.731C141.336 119.669 140.542 120.407 140.043 120.994C139.567 121.556 139.265 122.089 139.257 122.608C139.249 123.151 139.55 123.484 139.832 123.662C139.831 123.869 139.829 124.129 139.83 124.432C139.834 125.232 139.855 126.333 139.922 127.535C139.989 128.736 140.103 130.048 140.296 131.266C140.487 132.472 140.765 133.639 141.178 134.521C141.657 135.542 142.67 136.262 143.745 136.781C144.843 137.309 146.134 137.688 147.343 137.96C148.558 138.233 149.721 138.405 150.577 138.508C150.937 138.551 151.244 138.582 151.48 138.604L152.77 142.924L152.598 144.854C153.092 145.021 153.575 145.239 154.047 145.506L154.278 142.914L154.29 142.771L154.249 142.633L152.772 137.685L152.622 137.184L152.101 137.151H152.096L152.079 137.15L152.07 137.149C152.056 137.148 152.036 137.147 152.011 137.145C151.95 137.14 151.859 137.133 151.741 137.122C151.507 137.102 151.168 137.068 150.756 137.019C149.932 136.92 148.822 136.756 147.672 136.497C146.517 136.238 145.349 135.889 144.397 135.43C143.423 134.961 142.793 134.433 142.535 133.884C142.212 133.195 141.962 132.194 141.778 131.031C141.595 129.881 141.485 128.624 141.419 127.452C141.354 126.282 141.334 125.207 141.33 124.424C141.328 124.033 141.331 123.716 141.333 123.497C141.335 123.388 141.336 123.303 141.337 123.246C141.337 123.229 141.338 123.214 141.338 123.202C141.339 123.194 141.339 123.187 141.339 123.182V123.161L141.358 122.43L140.862 122.405C140.925 122.299 141.026 122.154 141.187 121.965C141.59 121.491 142.292 120.826 143.468 119.917C145.823 118.097 148.182 116.626 149.954 115.61C150.84 115.102 151.577 114.708 152.091 114.443C152.348 114.31 152.55 114.209 152.686 114.142C152.707 114.131 152.727 114.122 152.745 114.113C152.785 114.093 152.817 114.078 152.84 114.067L152.878 114.048C152.882 114.046 152.885 114.045 152.887 114.044L152.889 114.043L153.272 113.862L153.315 113.442L152.569 113.365L153.315 113.441V113.436L153.317 113.418L153.324 113.347L153.327 113.327C153.333 113.265 153.343 113.177 153.356 113.065C153.384 112.816 153.428 112.448 153.489 111.979C153.61 111.039 153.8 109.69 154.069 108.053C154.607 104.778 155.466 100.361 156.748 95.7893C158.032 91.2116 159.731 86.5069 161.94 82.6399C164.157 78.7578 166.83 75.8216 170.01 74.6145C173.343 73.3496 178.331 72.3844 183.989 71.6555C189.631 70.9286 195.886 70.4434 201.723 70.1194C205.583 69.9051 209.258 69.7615 212.447 69.6654ZM154.249 142.633L153.531 142.847H153.531L154.249 142.633Z" fill="#9DDADB"/>
<path fill-rule="evenodd" clip-rule="evenodd" d="M136.526 68.4635C142.233 62.4051 174.635 53.0342 191.028 55.0206L191.519 55.0843C192.828 55.2502 194.117 55.5014 195.389 55.8427C199.502 56.8033 203.75 58.2578 207.148 60.6874C209.985 62.675 218.935 65.9208 216.297 71.1204C217.275 72.9736 217.64 75.2631 216.979 77.0883C216.896 77.7187 216.702 78.2994 216.453 78.9014C218.542 81.9851 220.197 85.4725 221.536 88.7895C223.876 97.1372 225.333 105.825 225.546 114.342C226.255 130.523 224.481 149.851 210.39 160.315C201.877 166.945 188.542 167.168 178.975 158.947C178.432 158.304 175.879 156.57 176.731 156.266C176.985 156.534 177.246 156.795 177.511 157.051C177.499 157.022 177.497 156.994 177.501 156.963L177.252 156.737C176.782 156.302 176.173 155.671 176.866 155.795C176.897 155.83 176.93 155.861 176.963 155.896C177.11 155.985 177.221 156.061 177.308 156.128L177.352 156.164L177.338 156.15C176.939 155.724 176.699 155.289 177.297 155.567L177.376 155.605C177.641 155.885 177.911 156.152 178.186 156.413C178.182 156.382 178.186 156.352 178.203 156.318L177.947 156.071C177.696 155.826 177.735 155.824 177.857 155.626C177.325 154.881 178.318 155.324 178.388 155.614C179.009 155.467 179.554 156.634 179.954 156.776C197.491 170.259 222.94 158.295 222.528 120.723L222.522 119.988C222.402 107.974 221.391 95.6262 216.422 84.7508C215.939 83.7032 215.398 82.6841 214.803 81.6981C214.393 80.9587 213.955 80.2381 213.483 79.5366C212.163 79.4299 210.86 79.1882 209.576 78.8137C209.134 78.7023 208.698 78.5791 208.263 78.4345C201.892 78.782 195.664 79.16 189.276 79.5183L187.281 79.6426C181.869 79.9906 176.273 80.5478 171.906 83.8952C167.621 86.9427 167.602 92.9521 163.934 96.2979C158.704 99.8481 158.665 103.049 157.658 108.281C157.733 112.225 160.467 117.955 155.449 119.615C156.296 120.822 155.116 120.242 155.023 119.819C155.014 119.821 155.004 119.824 154.997 119.824C155.751 121.226 154.643 120.343 154.544 119.892C154.485 119.876 154.426 119.833 154.367 119.774C155.127 121.002 153.898 120.142 153.971 119.918C152.502 117.661 149.48 117.31 147.349 117.909C147.323 117.989 147.229 117.996 147.169 117.954C138.11 119.917 140.447 138.673 149.731 136.86C150.129 136.779 150.119 136.97 150.198 136.988C149.984 136.425 150.588 136.654 150.582 136.772L150.619 136.77C150.648 136.768 150.636 136.765 150.658 136.772C150.45 135.621 151.617 137.289 151.525 137.358C151.561 137.336 151.601 137.324 151.637 137.32L151.596 137.21C151.403 136.694 151.419 136.909 151.421 136.613C151.275 136.248 151.265 136.408 151.299 136.17C151.81 135.774 151.961 136.976 152.132 137.064C151.839 136.656 152.072 136.323 152.348 136.544C154.438 140.943 157.139 145.076 160.63 148.331C161.012 148.632 161.398 148.928 161.798 149.208C163.283 150.501 165.561 151.333 166.951 152.479C166.951 152.498 166.941 152.521 166.927 152.545L166.959 152.574L166.991 152.604L167.475 152.837C167.617 152.958 167.745 153.093 167.858 153.242C167.979 153.382 168.086 153.536 168.176 153.699C168.221 153.898 168.121 153.981 167.932 153.896C167.849 153.868 167.766 153.835 167.683 153.804C167.688 153.811 167.69 153.816 167.695 153.82C167.722 153.861 167.906 154.288 167.694 154.219L167.669 154.209C167.552 154.166 167.437 154.119 167.323 154.074C167.458 154.242 167.581 154.425 167.69 154.579C167.806 154.7 167.877 154.842 167.906 155.003C167.901 155.093 167.851 155.131 167.761 155.119C167.624 155.074 167.489 155.027 167.353 154.977L167.392 155.05C167.488 155.238 167.623 155.554 167.382 155.449C167.176 155.385 166.977 155.311 166.778 155.23C166.761 155.264 166.728 155.276 166.662 155.245C166.029 155.02 165.417 154.745 164.832 154.42C164.318 154.045 163.799 153.678 163.282 153.306C162.796 153.014 162.327 152.69 161.879 152.325C158.882 150.389 156.259 147.93 154.177 145.191C150.696 148.206 143.736 145.325 139.43 142.965C135.622 140.856 134.126 136.956 133.739 132.751C132.934 127.089 128.308 125.152 128.63 112.73C128.623 112.732 128.615 112.732 128.606 112.732C128.438 112.682 128.274 112.616 128.12 112.531C127.961 112.455 127.812 112.365 127.672 112.256L127.499 112.016C127.409 111.967 127.329 111.915 127.267 111.862L127.235 111.904C127.134 112.026 127.202 111.842 127.208 111.806L126.907 111.397C126.195 110.424 125.413 109.332 124.776 108.459L124.756 108.494C124.742 108.521 124.734 108.541 124.741 108.549C123.225 106.371 121.8 103.741 121.404 101.195C120.936 99.2331 121.119 97.2119 121.527 95.3949C123.276 89.0324 129.004 74.6345 136.526 68.4635ZM177.655 156.454L177.56 156.37L177.643 156.474C177.687 156.528 177.732 156.577 177.805 156.627C177.8 156.61 177.8 156.593 177.802 156.574C177.754 156.537 177.704 156.497 177.655 156.454ZM190.954 58.2175C179.838 57.2616 168.904 59.7109 158.296 62.6756L157.564 62.886C151.532 64.6073 145.154 66.1562 140.057 69.8405C132.935 75.2957 129.257 83.9741 126.048 91.9867C123.246 97.9399 124.678 104.653 128.901 108.81C129.341 104.679 130.09 100.669 131.261 96.6911C131.505 96.0696 131.32 95.8661 131.847 95.785C132.642 106.504 128.725 114.424 136.477 127.129C139.84 133.123 135.947 137.509 145.445 140.664L145.702 140.762C147.681 141.509 149.842 142.098 151.78 141.681L151.607 141.398C151.429 141.107 151.376 140.966 151.633 140.842C151.626 140.827 151.617 140.813 151.607 140.797C151.399 140.403 151.197 140.005 151.005 139.602C150.927 139.628 150.849 139.647 150.768 139.668C150.821 139.766 150.828 139.863 150.681 139.896C150.159 140.075 149.622 140.147 149.073 140.113L148.956 140.104C148.335 140.067 147.945 139.953 147.595 139.848C147.479 139.83 147.363 139.811 147.249 139.787C146.124 139.538 144.934 138.903 144.164 138.275C135.381 133.286 136.289 116.305 147.114 114.699C147.336 104.007 152.421 85.969 160.86 75.7806C168.489 66.409 189.314 62.3471 203.802 63.7794C204.013 63.8493 204.225 63.9199 204.436 63.9913C206.671 64.1899 208.801 65.1858 211.038 65.6485C209.432 64.4447 207.61 63.6429 205.733 62.9615C201.994 60.6741 197.708 59.4364 193.566 58.5635C192.708 58.3526 191.839 58.2364 190.954 58.2175ZM146.62 123.289C147.202 122.972 147.135 123.278 147.269 123.189C151.456 122.847 155.97 126.513 158.311 129.569C158.126 129.761 157.626 129.192 157.538 129.102C157.526 129.114 157.512 129.124 157.498 129.129L157.563 129.22C158.511 130.582 156.631 128.98 156.455 128.65C156.424 128.666 156.393 128.676 156.358 128.669C156.507 128.815 156.962 129.196 157.04 129.467L157.161 129.568C158.299 130.543 158.205 131.276 156.913 129.892C156.943 129.956 156.955 130.015 156.934 130.062L156.978 130.092C157.614 130.536 158.136 131.774 156.808 130.503C156.946 131.431 155.492 129.637 155.445 129.65C152.929 127.674 149.224 125.753 146.068 125.495L145.959 125.483C145.38 125.408 145.106 125.236 145.309 124.858C144.596 124.688 144.763 124.337 145.101 124.348C144.598 124.017 145.051 123.701 145.343 123.824C145.142 123.268 145.947 123.639 146.02 123.561C146.438 122.917 146.551 123.454 146.62 123.289ZM137.844 88.8393C139.855 88.1026 145.795 90.3078 145.32 93.2282C145.037 93.8987 144.104 94.2829 143.449 93.9044L142.594 93.3299C141.105 92.3331 139.763 91.459 138.165 90.5896C137.295 90.158 136.921 89.2417 137.844 88.8393ZM149.284 84.4993L148.508 83.9939C144.317 81.2508 138.392 77.0944 148.899 81.3947C150.097 81.9083 151.688 82.2121 152.341 83.3526C153.368 85.4547 150.666 85.5959 149.284 84.4993ZM149.756 72.1916C149.419 70.9153 153.604 72.4129 154.822 72.8078L155.008 72.8779C156.193 73.3194 157.551 73.7291 158.26 74.7517C159.09 76.1648 157.409 76.4575 156.368 75.8192C154.234 74.4242 151.893 73.3716 149.756 72.1916ZM160.396 66.2461C158.041 63.6738 164.344 66.138 165.289 66.822L165.316 66.8422C166.02 67.3383 165.877 68.4067 165.215 68.7205C163.332 68.7563 161.946 67.1864 160.396 66.2461ZM171.114 63.4279C167.37 60.7367 172.302 62.0168 174.015 63.0715C175.183 64.1013 173.98 65.8397 171.114 63.4279Z" fill="black"/>
<path fill-rule="evenodd" clip-rule="evenodd" d="M192.791 145.211C192.791 145.211 196.155 147.803 202.43 147.803C208.705 147.803 212.35 145.484 212.35 145.484C212.35 145.484 206.85 142.149 202.43 141.879C198.011 141.609 192.791 145.211 192.791 145.211Z" fill="#FF6C6C"/>
<path fill-rule="evenodd" clip-rule="evenodd" d="M185.309 138.62C185.334 136.009 187.601 135.558 189.755 135.906C193.402 136.495 197.062 136.909 200.758 136.984L201.395 136.995C201.498 136.846 201.669 136.733 201.902 136.708C203.951 136.487 206.044 136.523 208.104 136.462C209.901 136.409 211.748 136.23 213.545 136.371L213.688 136.383C215.884 136.595 218.201 137.714 217.936 140.286C217.692 142.668 215.411 144.776 213.589 146.1C213.221 146.365 212.844 146.614 212.456 146.84C212.335 146.995 212.157 147.103 211.952 147.125C210.158 148.092 208.179 148.664 206.13 148.854C201.786 149.258 196.736 148.821 192.563 146.942C191.207 146.332 189.941 145.569 188.823 144.632C187.098 143.187 185.29 140.996 185.309 138.62ZM202.663 143.324C200.922 143.271 199.183 143.515 197.524 144.051C196.4 144.413 195.376 145.109 194.299 145.592C197.928 146.974 202.145 147.275 205.869 147.024C207.503 146.913 209.087 146.537 210.562 145.891C210.333 145.725 210.1 145.557 209.856 145.41C209.12 144.965 208.35 144.587 207.547 144.285C205.983 143.7 204.333 143.376 202.663 143.324ZM203.009 120.962C202.539 120.625 202.912 119.511 203.916 119.683C213.035 121.246 208.31 136.922 196.667 128.32C195.281 127.204 196.96 124.746 198.454 125.702L198.984 126.11C200.709 127.429 203.562 129.424 205.606 127.284C207.535 124.587 204.802 122.05 203.009 120.962ZM209.183 109.098C211.121 107.447 213.552 108.664 214.979 110.335L215.231 110.634C215.516 110.975 215.833 111.373 216.023 111.797C217.604 110.453 219.749 109.508 221.801 110.122C223.791 110.719 224.926 112.615 224.584 114.651C224.196 116.966 222.441 118.522 220.555 119.725L220.021 120.064C217.754 121.506 215.634 122.958 213.769 124.94C213.465 125.262 212.807 125.219 212.607 124.79L212.447 124.445L212.284 124.101C210.961 121.285 209.544 118.488 208.38 115.606C207.518 113.471 207.238 110.752 209.183 109.098ZM187.381 110.252C188.801 108.603 191.207 107.498 193.105 109.098C195.126 110.802 194.729 113.62 193.829 115.793C192.745 118.415 191.479 120.978 190.263 123.549L190.003 124.101C189.894 124.331 189.787 124.56 189.68 124.79C189.481 125.219 188.821 125.262 188.519 124.94C186.712 123.02 184.667 121.599 182.483 120.203L181.824 119.785C179.907 118.571 178.095 117.005 177.701 114.651C177.364 112.62 178.492 110.712 180.485 110.122C182.541 109.513 184.681 110.451 186.265 111.797C186.454 111.362 186.779 110.952 187.086 110.593L187.381 110.252ZM189.684 98.7585C190.378 99.6572 189.637 101.126 188.625 101.358C187.37 101.646 186.103 101.471 184.871 101.828C183.743 102.156 182.662 102.811 181.694 103.465C180.591 104.21 179.575 105.042 178.642 105.99C178.086 106.554 177.387 107.89 176.53 107.914C175.679 107.939 176.822 105.282 176.916 105.052C177.588 103.416 178.531 101.91 179.71 100.591C182.038 97.9875 186.968 95.2408 189.684 98.7585ZM215.678 98.0391L216.259 98.2002C217.697 98.5991 219.232 99.0892 220.466 99.9494L220.562 100.018L220.712 100.127C222.26 101.279 224.451 103.578 223.354 105.584C223.278 105.722 223.118 105.735 222.988 105.679C221.529 105.041 220.448 103.768 218.896 103.235L218.609 103.137C217.106 102.632 215.247 102.101 213.629 102.149C212.491 102.518 210.955 102.213 210.659 100.831L210.645 100.763L210.62 100.62C210.449 99.6756 210.703 98.4718 211.681 98.0168C213.021 97.3934 214.329 97.6708 215.678 98.0391Z" fill="black"/>
</svg>
