<svg width="391" height="780" viewBox="0 0 391 780" fill="none" xmlns="http://www.w3.org/2000/svg">
<path fill-rule="evenodd" clip-rule="evenodd" d="M287.893 712.828C289.565 705.064 281.921 702.439 277.102 700.712C273.65 698.477 260.861 690.739 250.965 681.187C242.867 673.37 237.355 663.352 235.06 662.397C235.06 662.397 232.698 661.03 232.453 660.014C231.016 654.062 232.214 648.515 232.453 644.906C237.06 643.699 240.751 642.193 243.512 640.088C244.317 640.356 245.524 640.698 245.884 639.523C248.379 622.91 249.456 606.493 251.486 589.867C259.17 526.542 260.037 452.563 246.817 394.725C246.678 391.858 246.929 389.269 247.185 386.806C248.973 386.613 250.054 384.886 251.513 383.854C253.779 382.057 256.461 380.676 256.35 377.536C256.888 377.129 256.826 376.901 256.56 376.383C258.288 368.967 250.581 361.152 248.401 355.038C252.363 316.359 246.972 279.809 249.98 241.121C253.779 239.534 251.225 229.618 250.965 225.528C248.86 199.179 235.136 173.127 210.42 164.519C209.007 164.234 206.884 162.622 205.714 163.704C203.455 162.811 200.449 164.572 198.7 162.544L198.718 162.531C197.245 160.493 196.585 157.903 196.101 155.454C196.182 156.144 196.318 156.829 196.484 157.498C192.223 145.514 191.15 142.309 177.433 141.745C171.254 141.662 163.109 141.847 159.507 147.729C158.03 150.463 158.481 153.602 157.565 156.479C155.883 161.76 148.623 159.208 144.812 161.951C114.307 171.715 89.2851 191.646 81.0606 223.636C79.3791 227.491 77.4721 231.329 76.0664 235.308C75.8489 235.898 75.2504 237.897 76.6877 238.817L77.3828 239.262C68.2266 281.971 67.6191 317.96 98.3804 346.433C100.689 358.667 94.7504 375.375 97.0332 387.254C95.7324 389.096 97.3818 390.579 99.0447 390.698C99.205 390.787 99.8529 391.07 100.03 391.15C97.3832 428.435 108.494 478.682 113.391 498.514C114.058 510.422 109.986 520.203 101.609 526.693C92.353 532.382 74.0544 558.077 77.4467 585.03C73.4823 585.806 69.5466 586.232 65.7432 587.719C49.1014 584.787 49.2664 616.805 48.206 628.062C46.4102 646.912 45.294 674.232 63.237 686.298C67.964 689.72 77.5486 693.727 82.4601 688.249C84.0696 686.32 84.4726 684.456 83.8394 682.485C91.9497 671.05 89.7641 656.092 90.5091 642.679C92.8609 642.538 95.3216 643.639 97.5965 643.238C99.9315 641.184 91.4132 641.744 90.5297 641.624C90.6202 639.555 90.7869 637.377 91.0021 635.292C92.3382 635.559 94.0498 636.199 95.3346 636.248C96.0951 636.433 96.6325 635.388 96.1734 634.846C95.1708 633.892 92.6142 634.04 91.1755 633.904C91.4184 632.159 91.7155 630.323 92.0456 628.635C93.8057 628.572 95.6232 629.691 97.2896 629.462C96.0283 628.622 93.6608 628.878 92.1233 628.323C93.1231 622.886 95.1603 617.724 97.0543 612.639C101.701 614.552 105.711 614.627 110.247 614.054C112.103 614.339 113.008 613.96 113.308 611.643L113.19 611.497C116.786 590.023 128.389 569.552 149.942 546.337C154.199 541.582 159.01 535.983 162.215 529.724C168.656 516.697 169.756 502.323 174.719 488.795C179.352 475.197 185.688 462.19 191.636 449.3C192.509 455.906 193.68 462.683 194.898 469.161C200.26 492.116 199.74 516.608 195.795 539.69C189.957 572.019 192.771 604.501 191.472 637.059C191.49 638.937 191.723 640.643 191.448 642.598C191.411 642.748 191.482 642.926 191.661 642.922L191.998 642.931C194.804 644.981 198.678 645.352 201.975 646.464C203.36 647.558 202.97 649.29 203.097 650.641C203.459 656.465 203.922 662.311 203.347 668.313C200.803 673.178 197.644 672.173 196.998 679.03C196.432 686.859 195.431 695.184 199.251 702.155L197.806 702.404C195.661 706.896 196.971 709.813 202.012 711.713C226.9 721.452 261.922 730.294 287.893 722.943C288.366 723.41 289.052 722.925 289.589 722.191C290.105 721.485 290.482 720.55 290.398 720.006C289.954 717.622 290.565 713.269 287.893 712.828Z" fill="#D08B5B"/>
<path fill-rule="evenodd" clip-rule="evenodd" d="M243.427 723.118C238.956 722.313 213.266 716.481 198.542 708.897C195.534 707.348 196.275 703.688 197.254 701.311C197.703 700.222 198.765 699.403 198.542 699.18C193.834 694.481 197.354 682.115 197.354 679.745C197.354 676.222 203.076 671.452 202.104 669.553C200.982 667.361 202.362 674.859 205.191 679.034C207.658 682.673 211.529 682.954 211.913 682.795L211.982 682.765L212.032 682.739C213.097 682.157 229.176 659.041 235.827 662.443C238.958 664.044 240.64 671.126 244.14 674.057C251.988 680.629 255.777 691.121 284.988 704.631C288.114 706.077 288.142 709.17 287.504 711.589C287.269 712.481 290.45 712.452 289.975 712.926C288.768 714.131 292.116 721.051 289.5 722.17C279.209 726.572 252.487 724.747 243.427 723.118ZM76.476 585.415C76.476 585.415 78.164 587.524 78.1334 588.496C77.8814 596.506 75.9723 602.407 75.9127 606.346L75.909 606.612L75.9156 606.709C76.0311 608.307 78.4766 614.444 83.8331 615.752C86.8585 616.491 95.7076 613.145 95.7076 613.145C95.7076 613.145 90.6522 627.082 89.7704 639.69C89.0778 649.592 89.6367 660.822 88.3454 669.553C87.6405 674.32 85.0879 679.623 82.1707 683.3C81.4558 684.201 84.5636 685.907 83.8331 686.618C82.4652 687.951 79.0833 692.543 68.6338 688.988C65.5921 687.953 56.7423 682.203 51.7721 671.213C48.1415 663.184 47.7999 651.488 47.2598 641.112C46.6629 629.645 48.8809 611.751 51.7721 602.006C54.9871 591.169 58.9843 589.051 59.8127 588.451C60.0062 588.311 66.0233 587.125 66.6026 587.06L66.7038 587.049L66.7837 587.042L66.8277 587.024C69.1901 586.112 71.8909 585.673 75.4426 585.469L75.6611 585.457L76.476 585.415Z" fill="white"/>
<path fill-rule="evenodd" clip-rule="evenodd" d="M288.96 720.626C266.596 730.649 225.985 718.002 204.01 710.685C198.085 708.552 196.111 708.134 197.771 701.317C200.878 707.299 207.558 708.744 213.959 709.944C235.639 714.876 257.742 723.983 280.929 719.539C284.332 719.005 287.699 717.166 288.69 713.772C289.3 715.21 288.922 717.158 289.167 718.74C289.212 719.37 289.226 720.052 288.96 720.626ZM198.508 683.346C198.912 679.328 199.558 675.084 201.849 671.533C201.6 677.276 205.056 687.036 212.627 683.784C214.771 682.65 215.973 680.366 217.353 678.532C221.939 672.497 227.819 667.258 234.462 663.45C238.157 664.084 239.746 670.828 242.128 673.651C239.473 674.832 234.661 677.522 234.174 680.305C237.49 679.192 240.541 677.12 244.018 676.391C245.132 677.925 246.312 679.413 247.552 680.85C245.932 681.562 239.401 684.857 239.444 686.501C242.976 685.929 246.398 684.203 249.948 683.494C251.528 685.057 252.965 686.74 254.537 688.308C252.162 689.284 249.654 690.374 248.357 692.649C248.296 692.752 248.447 692.867 248.531 692.768C250.309 690.628 253.371 690.235 256.023 689.753C260.094 693.578 264.651 696.952 269.752 699.477C274.856 702.262 282.613 702.899 284.643 708.94C286.267 714.98 281.202 715.625 276.528 716.052C271.8 716.723 267.038 716.825 262.34 716.433C247.656 715.822 233.775 711.508 219.899 707.739C202.933 704.622 197.427 702.099 198.508 683.346ZM230.893 661.514C224.393 666.312 218.047 671.658 213.533 678.35C210.545 683.794 206.569 680.48 205.582 676.119C204.781 666.381 205.47 657.972 204.532 648.176C213.521 649.399 222.754 648.646 231.534 646.482C230.478 650.855 229.993 652.515 229.96 657.001C230.017 658.479 229.995 660.284 230.893 661.514ZM198.449 376.543C197.584 376.857 197.215 375.483 198.07 375.172C198.657 374.958 199.25 374.767 199.846 374.586C199.92 374.427 200.053 374.29 200.258 374.216C207.255 371.672 215.071 371.919 222.379 372.528C226.307 372.855 230.227 373.294 234.108 373.984C237.824 374.644 241.511 375.455 245.228 376.103C245.987 376.198 246.746 376.29 247.505 376.375C248.407 376.476 248.414 377.899 247.505 377.797C247.337 377.778 247.171 377.756 247.003 377.737C246.893 377.776 246.769 377.793 246.631 377.771C246.053 377.68 245.475 377.583 244.899 377.483C242.361 377.158 239.83 376.786 237.3 376.416C230.642 375.442 223.963 374.469 217.231 374.216C210.904 373.979 204.444 374.359 198.449 376.543ZM246.377 241.517C244.831 262.792 245.23 281.795 245.563 303.102C245.755 317.434 245.845 331.771 245.346 346.098C232.705 313.49 236.574 278.107 234.778 243.833C238.514 242.591 242.527 242.048 246.377 241.517ZM181.852 398.812C183.034 401.066 185.02 402.879 187.374 404.012C187.084 404.58 186.984 405.22 186.953 405.82C182.714 406.685 183.906 408.693 181.042 409.65C179.168 410.167 177.366 410.387 175.746 411.52C170.234 416.644 168.866 416.267 162.95 411.759C163.031 411.352 154.98 403.504 152.486 399.117C150.408 395.458 148.233 391.772 145.048 388.942C129.452 373.006 112.837 357.965 97.7402 341.588C67.4843 311.499 73.2574 277.382 80.2066 239.799C91.423 241.136 102.701 243.821 112.802 248.751C109.24 265.339 109.011 280.375 107.477 297.208C107.014 299.289 107.537 303.297 110.491 302.372C137.648 323.89 140.804 368.109 176.442 380.896C190.967 386.788 184.837 391.571 189.637 402.696C186.996 402.213 184.64 400.004 183.505 397.89C182.942 396.84 181.303 397.764 181.852 398.812ZM114.814 385.442C113.94 385.544 113.064 385.619 112.187 385.69C112.085 385.772 111.959 385.832 111.805 385.851C110.438 386.022 109.045 386.244 107.664 386.546C105.616 387.271 103.545 387.933 101.485 388.622C101.304 388.711 101.125 388.8 100.947 388.894C100.777 388.984 100.613 388.998 100.464 388.965C100.404 388.986 100.343 389.005 100.283 389.026C100.268 389.031 100.252 389.037 100.237 389.042C100.182 389.04 100.127 389.038 100.072 389.036C99.9906 389.033 99.8512 389.026 99.6862 389.015C99.6826 388.953 99.6838 388.891 99.6819 388.829C99.1003 388.846 98.579 388.12 99.1264 387.641C101.133 385.885 103.829 385.243 106.405 384.855C109.194 384.434 112.015 384.346 114.814 384.02C115.725 383.914 115.714 385.337 114.814 385.442ZM89.1904 627.144C86.6922 626.953 76.0074 626.585 74.7252 628.258C76.1691 628.868 78.1543 628.531 79.7074 628.6C82.7238 628.723 85.7328 628.988 88.718 629.41C88.4945 630.572 88.2927 631.731 88.1267 632.894C85.1153 633.181 79.2515 633.311 77.3399 635.414C80.75 635.957 84.3005 635.468 87.7227 636.146C87.5565 637.739 87.4353 639.334 87.3453 640.929C85.9819 641.074 77.9645 642.398 77.9716 643.657C80.9733 644.055 84.1532 643.531 87.2123 643.828C86.5495 653.386 88.7964 682.252 75.7057 684.017C64.2611 683.415 59.2406 664.905 57.6853 656.024C54.2367 635.333 54.8283 613.272 61.6632 593.328C64.1044 587.782 70.7496 586.82 76.3686 586.533C76.5821 587.471 76.7934 588.393 77.0309 589.322C74.5943 594.835 73.8179 601.043 73.7512 607.008C74.2666 615.583 84.8681 621.959 92.5675 616.294C91.1283 619.802 90.0171 623.452 89.1904 627.144ZM74.046 688.831C51.3774 683.968 47.6583 657.769 49.2165 638.504C50.4868 625.094 48.96 596.822 61.3638 588.943C45.3333 603.548 46.7252 702.974 82.251 685.62C81.3652 688.421 76.8101 689.229 74.046 688.831ZM78.4888 595.355C78.5292 595.009 78.5741 594.665 78.6216 594.319C81.1366 601.138 85.4446 607.618 91.8594 611.566C89.4036 614.624 84.6205 615.534 81.3931 613.031C75.7646 608.819 78.1112 601.199 78.4888 595.355ZM155.757 159.744C155.713 159.823 155.665 159.901 155.617 159.977C155.304 159.998 154.988 160.026 154.667 160.062C155.031 159.953 155.394 159.851 155.757 159.744ZM291.162 716.476C291.1 714.78 291.076 712.589 289.086 711.987C289.988 704.678 283.909 700.517 277.525 698.492C272.082 695.169 265.909 692.847 260.908 688.841C263.23 688.406 265.553 687.88 267.617 686.871C269.175 686.111 268.424 683.578 266.736 683.812C263.746 684.206 261.06 685.723 258.25 686.778C256.654 685.469 255.108 684.103 253.648 682.657C255.467 682.306 257.78 682.435 258.84 680.633C259.17 680.069 259.022 679.485 258.623 679.05C256.781 677.188 253.128 679.047 250.838 679.59C249.739 678.325 248.677 677.035 247.635 675.729C249.364 675.57 253.862 675.885 252.981 673.037C251.292 670.81 247.661 672.146 245.219 672.605C242.122 668.804 241.125 662.974 236.285 660.883C236.112 659.961 234.905 660.032 234.1 660.306C232.915 654.659 233.005 651.789 233.352 646.001C236.945 645.008 240.51 643.705 243.497 641.567C244.87 641.97 246.535 641.505 246.82 639.896C249.304 623.414 250.409 606.729 252.43 590.188C259.799 529.274 261.404 454.924 247.763 394.744C247.656 392.464 247.818 390.182 248.048 387.919C249.675 387.485 250.644 385.899 251.99 384.982C254.493 382.946 257.039 381.806 257.27 378.253C257.775 377.772 257.835 377.045 257.557 376.414C258.205 372.766 257.251 369.145 255.305 365.993C253.173 362.402 251.159 358.778 249.38 355.01C253.27 317.026 247.993 280.214 250.879 242.041C254.579 240.086 252.256 229.221 251.912 225.6C249.751 201.816 238.624 175.555 214.968 165.662C213.308 164.264 210.99 163.79 208.962 163.02C207.591 162.347 205.361 161.764 204.423 163.33C203.429 162.868 200.225 162.515 199.127 161.714C198.923 161.564 198.792 161.401 198.762 161.218C198.681 161.221 198.586 161.204 198.484 161.183C197.472 159.756 196.508 149.818 195.261 150.527C193.9 153.94 194.843 157.796 196.145 161.242C197.042 164.29 198.273 172.13 203.041 170.125C203.863 169.718 203.355 168.658 202.618 168.573C200.358 167.928 199.854 164.612 198.98 162.669C200.016 163.527 204.732 164.814 205.248 165.086C215.479 188.522 153.62 187.292 148.756 171.135C145.288 165.553 148.281 162.529 154.463 161.633C149.92 166.672 155.672 167.791 157.859 162.849C159.951 159.31 160.903 155.011 160.189 150.939C160.557 149.51 160.868 147.6 158.726 147.984C158.652 147.794 158.536 147.943 158.581 148.079C157.799 149.321 158.344 151.105 158.066 152.539C157.831 154.886 157.163 157.185 156.03 159.261C153.929 159.661 151.836 160.09 149.754 160.56C148.504 158.026 140.401 163.079 138.226 163.674C109.325 172.194 87.3482 194.886 79.6775 223.507C77.9652 227.318 76.1173 231.148 74.7161 235.078C74.0892 236.78 74.0892 238.891 75.811 239.993C67.4205 278.406 65.3733 318.427 97.0713 347.238C97.7906 350.357 97.3111 353.666 97.2897 356.842C97.4973 362.489 93.7694 378.837 95.5478 387.261C95.3547 387.629 95.2181 388.024 95.1647 388.445C94.9158 390.403 96.512 391.664 98.273 391.985C98.3264 391.995 98.3815 392.004 98.4359 392.014C98.4758 392.033 98.5145 392.055 98.5556 392.073C96.4535 424.188 104.336 467.886 111.976 498.868C112.541 509.517 109.323 519.203 100.662 525.922C84.1943 538.209 77.2573 558.717 75.3312 578.261C75.0581 580.264 75.3265 582.302 75.778 584.27C72.2083 584.933 68.867 585.364 65.4018 586.67C46.291 583.016 47.6545 623.992 46.1915 636.151C45.0466 654.126 45.7614 675.672 62.3121 687.442C67.8764 691.396 77.699 695.193 83.1211 689.206C84.6551 687.374 85.4913 685.231 84.8878 682.889C92.6608 671.529 90.825 657.01 91.4069 644.084C93.4422 644.155 95.6603 645.06 97.665 644.562C99.2087 644.155 99.4058 642.178 98.0996 641.391C96.2137 640.325 93.6512 640.73 91.5423 640.659C91.6066 639.422 91.6992 638.185 91.818 636.947C93.8198 637.436 96.6887 638.609 97.2848 635.817C97.5249 633.274 94.3066 633.079 92.3025 632.97C92.4426 632.01 92.5993 631.055 92.7775 630.103C94.3116 630.257 95.9311 631.233 97.4394 630.766C98.2941 630.43 98.591 629.567 97.9664 628.868C96.8053 627.732 94.8196 627.96 93.2833 627.607C94.2164 623.044 95.9028 618.681 97.5272 614.318C100.467 615.337 103.652 616.01 106.789 615.754C108.416 615.413 110.193 615.315 111.836 615.536C113.664 615.052 114.087 613.102 114.327 611.509C114.292 611.452 114.256 611.398 114.215 611.348C118.44 586.794 133.597 565.581 150.592 547.305C155.273 542.077 159.863 536.64 163.043 530.43C169.503 517.452 170.662 502.849 175.604 489.366C179.767 477.122 185.332 465.381 190.787 453.622C192.974 469.109 197.059 484.341 197.527 500.046C198.239 519.914 193.853 539.494 191.981 559.203C188.616 585.144 191.673 611.246 190.048 637.206C190.06 639.043 190.298 640.773 190.036 642.61C189.892 643.626 190.623 644.264 191.393 644.285C194.218 646.136 197.769 646.793 201.018 647.584C201.918 648.272 201.529 649.964 201.688 651C202.037 656.818 202.498 661.209 201.93 667.076C198.752 671.765 196.463 671.016 195.579 678.143C195.093 685.584 194.021 693.63 197.28 700.384C195.822 700.715 195.268 705.156 195.487 706.331C195.857 709.646 198.785 710.694 201.616 711.838C222.304 719.574 266.261 732.309 287.519 723.551C289.041 724.411 290.739 722.726 291.231 721.369C291.881 719.717 291.283 718.117 291.162 716.476Z" fill="black"/>
<path fill-rule="evenodd" clip-rule="evenodd" d="M227.038 106.667C226.14 91.9247 221.356 75.2105 207.278 67.9722C176.242 55.5154 135.437 86.8851 133.276 118.932C132.523 129.901 138.613 141.888 149.743 144.938C152.217 148.217 155.959 150.219 159.652 151.957C203.644 174.782 232.06 156.228 227.038 106.667Z" fill="#D08B5B"/>
<path fill-rule="evenodd" clip-rule="evenodd" d="M237.059 97.4965C235.505 93.1782 233.862 88.8931 232.135 84.6411C230.452 80.5029 228.932 76.2753 226.843 72.3332C214.363 48.7886 191.669 48.7886 179.938 51.865C173.855 49.2437 162.46 49.9831 156.125 52.3485C145.871 56.1779 133.37 71.2418 129.096 78.0098C119.659 92.9531 113.77 112.842 120.038 130.11C120.857 132.367 121.902 134.457 123.079 136.471C122.338 137.476 121.485 138.427 120.54 139.362C117.732 142.14 114.924 144.827 112.499 147.96C110.088 151.074 108.09 154.386 106.602 158.037C103.797 164.923 103.662 172.719 107.371 179.289C110.597 185.006 116.312 189.263 122.752 189.669C123.082 189.715 123.413 189.757 123.746 189.791C124.599 191.196 125.639 192.49 126.827 193.618C130.464 197.079 139.136 198.854 144.082 198.968C144.335 199.171 144.591 199.375 144.847 199.577C147.874 201.959 151.049 204.362 154.523 206.057C156.877 207.206 159.962 208.166 162.418 207.336C163.531 208.081 165.359 207.924 166.463 207.315C168.278 206.315 169.755 204.514 170.653 202.67C172.831 198.193 172.307 193.294 171.748 188.511C171.132 183.228 170.539 177.942 169.937 172.66C169.466 168.528 168.973 164.329 167.717 160.349C167.067 158.287 166.216 156.306 165.117 154.443C165.145 154.287 165.141 154.13 165.095 153.983C164.735 152.812 163.991 152.198 163.11 151.402C162.996 151.3 162.882 151.196 162.771 151.089C162.33 150.587 161.858 150.12 161.353 149.724C161.159 149.527 160.967 149.328 160.775 149.129C159.18 147.458 157.673 145.702 156.334 143.82C155.035 141.995 153.862 140.09 152.746 138.149C151.611 136.174 150.86 133.996 149.727 132.036C149.63 131.868 149.383 131.835 149.246 131.974C148.895 132.337 148.67 132.74 148.712 133.164L148.537 133.19C148.471 132.55 147.881 132.029 147.08 132.169C145.88 132.377 144.895 132.456 143.857 132.057C144.039 130.846 144.207 129.633 144.373 128.417C144.677 126.179 144.959 123.935 145.2 121.691C145.786 121.83 146.366 122.032 146.935 122.288C147.746 122.65 148.511 123.139 149.165 123.738C149.81 124.331 150.255 125.13 151.042 125.542C151.947 126.014 153.04 125.234 152.774 124.21C152.236 122.141 149.191 120.956 147.307 120.565C146.66 120.43 145.999 120.373 145.338 120.387C145.487 118.946 145.62 117.505 145.729 116.062C145.781 115.379 145.828 114.696 145.873 114.011C147.338 113.568 148.907 113.435 150.431 113.644C150.933 114.045 151.435 114.44 151.921 114.841C153.464 116.116 155 117.398 156.517 118.704C156.654 118.82 156.789 118.936 156.926 119.055C157.827 119.83 158.95 119.062 158.799 117.965C157.562 108.973 163.069 101.82 169.518 96.2783C176.656 90.1421 189.633 89.4276 198.122 78.7988C202.032 79.5946 210.761 81.9582 214.363 87.6985C219.406 95.7427 218.747 102.95 219.131 112.075C219.515 121.207 220.492 130.732 218.418 139.736C216.505 148.039 211.327 155.133 203.293 158.394C203.094 158.474 202.893 158.553 202.691 158.629C198.537 160.195 194.003 160.638 189.633 159.814C184.796 158.899 180.758 156.685 176.734 153.962C176.502 153.808 176.163 154.125 176.338 154.358C181.642 161.387 192.06 163.736 200.324 161.88C200.71 161.793 201.094 161.698 201.476 161.594C199.627 166.91 199.999 172.745 202.407 177.921C203.855 181.035 206.064 183.73 208.753 185.856C211.718 188.198 215.396 190.089 217.453 193.377C219.337 196.389 218.778 199.773 215.553 201.513C214.74 201.954 214.427 203.378 215.233 204.004C215.541 204.241 215.849 204.483 216.164 204.72C217.97 206.083 222.93 208.642 223.734 208.737C230.867 209.583 235.664 204.345 238.737 198.167C242.347 190.914 241.408 182.076 237.431 175.169C234.242 169.628 227.959 164.167 230.457 157.154C231.348 154.649 233.17 152.514 234.941 150.584C236.96 148.387 239.131 146.33 241.067 144.055C242.991 141.796 244.698 139.338 245.65 136.504C247.041 132.361 246.349 127.881 245.304 123.745C243.065 114.867 240.157 106.107 237.059 97.4965Z" fill="black"/>
<path fill-rule="evenodd" clip-rule="evenodd" d="M192.791 145.211C192.791 145.211 196.155 147.803 202.43 147.803C208.705 147.803 212.35 145.484 212.35 145.484C212.35 145.484 206.85 142.149 202.43 141.879C198.011 141.609 192.791 145.211 192.791 145.211Z" fill="#FF6C6C"/>
<path fill-rule="evenodd" clip-rule="evenodd" d="M185.309 138.62C185.334 136.009 187.601 135.558 189.755 135.906C193.402 136.495 197.062 136.909 200.758 136.984L201.395 136.995C201.498 136.846 201.669 136.733 201.902 136.708C203.951 136.487 206.044 136.523 208.104 136.462C209.901 136.409 211.747 136.23 213.544 136.371L213.687 136.383C215.883 136.595 218.201 137.714 217.936 140.286C217.692 142.668 215.41 144.776 213.589 146.1C213.22 146.365 212.844 146.614 212.456 146.84C212.335 146.995 212.157 147.103 211.952 147.125C210.158 148.092 208.179 148.664 206.13 148.854C201.785 149.258 196.735 148.821 192.563 146.942C191.206 146.332 189.941 145.569 188.822 144.632C187.097 143.187 185.289 140.996 185.309 138.62ZM202.663 143.324C200.921 143.271 199.183 143.515 197.524 144.051C196.4 144.413 195.375 145.109 194.298 145.592C197.928 146.974 202.145 147.275 205.869 147.024C207.503 146.913 209.086 146.537 210.562 145.891C210.332 145.725 210.1 145.557 209.856 145.41C209.12 144.965 208.35 144.587 207.547 144.285C205.983 143.7 204.332 143.376 202.663 143.324ZM203.009 120.962C202.539 120.625 202.912 119.511 203.916 119.683C213.035 121.246 208.31 136.922 196.667 128.32C195.281 127.204 196.96 124.746 198.454 125.702L198.984 126.11C200.709 127.429 203.562 129.424 205.605 127.284C207.535 124.587 204.802 122.05 203.009 120.962ZM209.182 109.098C211.121 107.447 213.552 108.664 214.979 110.335L215.231 110.634C215.516 110.975 215.832 111.373 216.022 111.797C217.604 110.453 219.748 109.508 221.8 110.122C223.791 110.719 224.926 112.615 224.584 114.651C224.196 116.966 222.441 118.522 220.555 119.725L220.02 120.064C217.754 121.506 215.634 122.958 213.769 124.94C213.464 125.262 212.807 125.219 212.607 124.79L212.447 124.445L212.284 124.101C210.961 121.285 209.544 118.488 208.38 115.606C207.518 113.471 207.238 110.752 209.182 109.098ZM187.381 110.252C188.801 108.603 191.207 107.498 193.105 109.098C195.126 110.802 194.729 113.62 193.829 115.793C192.745 118.415 191.479 120.978 190.263 123.549L190.003 124.101C189.894 124.331 189.787 124.56 189.68 124.79C189.48 125.219 188.82 125.262 188.519 124.94C186.711 123.02 184.667 121.599 182.483 120.203L181.824 119.785C179.907 118.571 178.095 117.005 177.701 114.651C177.364 112.62 178.492 110.712 180.484 110.122C182.541 109.513 184.681 110.451 186.265 111.797C186.454 111.362 186.779 110.952 187.086 110.593L187.381 110.252ZM189.684 98.7585C190.378 99.6572 189.637 101.126 188.624 101.358C187.37 101.646 186.103 101.471 184.871 101.828C183.743 102.156 182.661 102.811 181.694 103.465C180.591 104.21 179.575 105.042 178.641 105.99C178.086 106.554 177.387 107.89 176.53 107.914C175.679 107.939 176.822 105.282 176.916 105.052C177.587 103.416 178.531 101.91 179.71 100.591C182.038 97.9875 186.967 95.2408 189.684 98.7585ZM215.678 98.0391L216.259 98.2002C217.697 98.5991 219.232 99.0892 220.465 99.9494L220.562 100.018L220.712 100.127C222.26 101.279 224.45 103.578 223.354 105.584C223.278 105.722 223.117 105.735 222.988 105.679C221.529 105.041 220.447 103.768 218.895 103.235L218.609 103.137C217.106 102.632 215.246 102.101 213.629 102.149C212.491 102.518 210.955 102.213 210.659 100.831L210.645 100.763L210.62 100.62C210.449 99.6756 210.703 98.4718 211.681 98.0168C213.021 97.3934 214.329 97.6708 215.678 98.0391Z" fill="black"/>
</svg>
