<svg width="391" height="780" viewBox="0 0 391 780" fill="none" xmlns="http://www.w3.org/2000/svg">
<path fill-rule="evenodd" clip-rule="evenodd" d="M91.1528 271.171C84.7912 278.61 85.3536 280.678 88.743 288.189C96.2313 305.616 106.969 323.331 119.157 339.49C118.353 303.236 117.661 266.784 116.471 230.199C109.223 244.335 101.505 257.104 91.1528 271.171ZM89.9525 719.249C85.9482 718.861 57.766 719.903 65.3082 711.687C62.9801 706.634 69.4842 702.371 73.4921 698.527C77.2421 694.95 80.9376 690.976 84.7883 686.378C88.3741 682.115 92.4165 677.076 95.0298 671.196C95.6083 670.274 96.1959 669.629 96.7777 669.277L97.1133 669.073L97.3223 668.741C99.5278 665.222 101.349 661.585 103.353 658C98.4515 656.23 93.9981 654.452 88.4463 651.995C96.2802 605.872 108.021 560.936 115.612 514.678C120.233 474.424 122.713 433.792 133.287 394.148L134.64 394.252L135.393 391.654C134.283 391.625 132.033 391.55 130.919 391.507L131.18 392.836C126.14 392.252 121.2 390.816 116.3 389.598C113.8 389.256 111.292 387.468 112.192 384.488C112.482 380.165 113.376 375.947 113.797 371.625C112.203 370.536 110.558 369.294 108.982 368.02C104.815 369.985 99.7784 376.328 95.2219 374.714C84.5736 360.425 75.6371 343.247 67.5501 329.524C48.0178 297.788 41.8184 277.951 61.9634 244.86C79.3802 217.138 98.1675 173.077 133.083 166.12C137.003 165.388 141.11 165.357 144.878 163.572C145.071 161.011 146.351 159.54 147.287 159.519C149.562 159.02 152.06 158.217 154.282 158.196C155.065 157.869 156.022 158.138 156.774 158.286C159.013 153.792 158.813 148.055 161.267 143.843C161.356 140.652 162.329 137.125 172.167 136.484C178.864 135.925 188.349 135.386 193.702 138.312C197.448 141.327 197.487 148.081 197.017 152.84C196.501 156.336 196.732 160.401 199.47 164.506C207.272 162.097 212.713 167.188 217.598 176.685C238.045 179.468 242.454 181.048 250.387 201.298C254.171 210.08 258.11 219.461 261.059 229.075C265.009 240.827 265.356 253.129 269.196 264.964C279.624 291.049 290.229 307.883 293.569 338.25C295.199 351.658 294.262 358.307 292.713 360.321C288.306 359.047 282.62 358.071 277.992 357.528L282.944 361.295C278.748 380.321 290.836 434.579 258.061 430.411C257.77 429.703 258.304 425.807 258.445 424.191C257.549 424.254 255.892 424.313 255.009 424.202C253.446 428.711 251.1 432.763 249.619 437.349C248.886 440.144 247.96 442.957 247.055 445.675C226.415 515.175 222.327 582.082 231.538 651.856L231.122 652.007L230.953 652.306L230.7 652.401C230.05 653.269 229.129 653.306 227.659 653.309C218.631 653.626 210.699 654.033 203.342 654.238C204.123 658.144 203.623 662.255 203.279 666.228C207.56 665.928 211.488 667.665 215.402 669.751C222.879 673.421 230.327 677.276 237.567 681.491C244.755 686.09 256.38 690.022 250.608 698.288L252.277 698.943C252.333 698.965 252.369 698.985 252.39 698.998C252.587 699.7 250.327 702.606 249.657 702.574C233.85 703.312 220.368 699.622 200.149 695.755C195.519 694.076 172.203 691.221 172.105 686.812C172.179 685.439 173.6 685.532 174.59 685.36C171.62 670.362 181.661 669.151 183.099 655.543C181.111 655.921 178.961 656.246 176.925 655.687C175.138 626.645 178.009 596.917 174.835 567.591L171.608 567.234C160.759 599.144 149.511 631.794 140.873 664.94C140.708 665.661 139.901 665.169 139.532 664.905C133.885 664.771 128.237 664.169 122.701 663.218C122.568 666.478 122.428 669.799 122.291 673.056L123.144 673.514C123.694 674.28 123.463 677.865 123.363 679.408C123.263 680.986 123.179 682.127 123.319 683.197C125.1 686.707 119.011 694.314 115.791 698.543C108.774 707.622 102.962 721.068 89.9525 719.249Z" fill="#D08B5B"/>
<path fill-rule="evenodd" clip-rule="evenodd" d="M229.845 315.552C229.845 315.552 260.32 362.025 257.913 387.749C257.771 389.272 255.314 412.892 255.301 414.531C255.218 425.139 259.674 415.677 256.488 424.248C253.887 431.247 236.101 472.77 229.89 533.273C226.396 567.299 231.077 652.963 231.077 652.963L177.642 656.281L172.892 564.321C172.195 565.44 139.881 663.628 139.881 663.628L114.707 661.021L88.821 651.067C88.821 651.067 101.745 597.101 114.707 522.133C120.844 486.64 130.236 389.096 130.236 389.096C129.805 382.945 187.617 384.43 187.617 384.43C187.617 384.43 167.871 321.731 182.154 313.09C191.206 307.615 229.845 315.552 229.845 315.552Z" fill="#9DDADB"/>
<path fill-rule="evenodd" clip-rule="evenodd" d="M123.824 686.298L123.548 686.721C123.194 687.267 122.871 687.781 122.555 688.31L122.369 688.621L121.743 689.555L121.337 690.167C120.766 691.031 120.155 691.972 119.334 693.248L117.075 696.765L116.128 698.227C113.755 701.877 112.217 704.108 110.411 706.478L109.945 707.085L109.702 707.388L109.46 707.685C105.179 712.908 100.553 716.468 95.3088 717.969L95.1337 718.019L94.9701 718.064L94.8009 718.078C87.4729 718.667 80.1426 718.037 70.2021 716.296L69.5641 716.183L68.7927 716.045L67.1131 715.738L66.7196 715.343C64.4201 713.034 64.1044 710.371 65.5158 707.717C66.4402 705.979 67.8604 704.475 70.4087 702.26L72.3969 700.542C74.2282 698.953 74.5317 698.64 74.9853 698.019L75.1718 697.76L75.2597 697.668C83.4875 689.088 90.3604 680.822 95.665 671.092L95.8709 670.712L96.1811 670.138L96.7899 669.9C101.774 667.955 107.356 668.173 112.029 670.549L112.183 670.628L112.332 670.707L112.486 670.792C113.272 671.23 113.93 671.705 115.073 672.607L115.714 673.113L116.014 673.346C117.007 674.111 117.583 674.479 118.28 674.785C119.63 675.376 121.233 675.277 121.774 674.697L121.803 674.663L121.829 674.63L122.545 672.634L123.824 686.298ZM180.266 667.288C180.501 668.021 179.602 670.924 180.255 671.923C180.843 672.824 182.912 672.577 184.348 672.562L184.64 672.557L184.938 672.548C185.407 672.533 185.903 672.504 186.551 672.458L188.453 672.319L188.612 672.309C188.663 672.306 188.713 672.303 188.766 672.301L189.063 672.286L189.251 672.279L189.322 672.274C191.673 672.09 193.607 670.806 197.382 669.322L199.14 668.625C200.902 667.93 201.892 667.569 203.084 667.203L203.257 667.151L203.348 667.133C206.709 666.479 210.91 667.746 216.616 670.591L216.977 670.772L217.365 670.969C218.276 671.435 219.235 671.944 220.315 672.531L221.987 673.45C223.149 674.092 224.587 674.888 225.094 675.165L225.577 675.427L226.016 675.663C227.11 676.247 227.983 676.688 228.742 677.034L228.992 677.147L229.052 677.179C235.589 680.72 241.594 684.217 247.232 687.798L247.675 688.08L247.825 688.161C254.611 691.925 254.704 698.002 248.313 702.225L248.118 702.353L247.914 702.481L247.422 702.788L246.843 702.746C236.976 702.037 226.774 700.585 215.568 698.39L214.468 698.173C206.076 696.504 197.795 694.585 186.05 691.66L183.73 691.08L179.951 690.13L179.853 690.121C175.73 689.695 173.446 686.605 173.449 682.341L173.451 682.099L173.451 681.897C173.446 677.423 175.394 673.297 177.053 669.956L177.14 669.784L177.228 669.613L180.266 667.288Z" fill="white"/>
<path fill-rule="evenodd" clip-rule="evenodd" d="M129.622 391.885C130.63 391.931 131.542 391.972 132.303 392.024L132.637 392.047L132.649 392.14L133.056 392.152C150.313 392.65 167.638 392.07 184.768 389.844L185.834 389.704C186.362 389.636 186.896 389.571 187.431 389.507C189.456 389.262 191.509 389.013 193.468 388.539C194.733 388.362 195.474 387.695 195.892 386.813C196.411 385.716 196.395 384.239 196.239 382.973L196.216 382.798C194.216 340.677 183.886 299.941 173.555 259.213L173.547 259.182C165.099 225.88 156.653 192.583 152.781 158.536L151.752 158.796L150.049 159.219C148.39 159.641 147.216 160.021 146.371 160.699C145.603 161.315 145.085 162.17 144.75 163.545C144.555 164.392 144.432 165.445 144.359 166.777C143.611 171.739 143.519 168.873 143.692 165.428C143.704 165.186 143.707 164.937 143.702 164.681C143.487 164.781 143.267 164.876 143.044 164.963C140.857 165.821 138.52 165.949 136.185 166.076L136.11 166.08C134.695 166.157 133.281 166.235 131.893 166.461C124.815 167.702 118.578 171.716 113.025 176.113L112.657 176.405C91.4486 195.115 77.3804 220.539 63.7904 245.117C63.1167 246.335 62.4442 247.552 61.772 248.765L60.9048 250.329C50.9554 267.5 46.2006 288.48 56.1691 306.735C67.6683 329.978 81.0068 352.381 95.1318 374.161C95.7688 374.987 96.521 375.216 97.3143 375.127C98.2709 375.019 99.3147 374.378 100.276 373.764L100.294 373.752C100.642 373.53 100.979 373.315 101.313 373.133C110.743 367.47 118.92 359.767 125.209 350.759C125.276 350.663 125.342 350.567 125.409 350.471C125.339 350.379 125.266 350.287 125.193 350.196L125.191 350.193C108.847 329.718 93.6363 307.353 85.1539 282.444C84.7467 278.516 88.3189 274.208 91.5993 270.253C91.6793 270.156 91.7593 270.06 91.839 269.964C93.4732 267.992 95.0299 266.109 96.0367 264.408C102.731 255.184 108.997 245.643 115 235.923C115.155 235.631 115.31 235.338 115.464 235.045L115.541 234.899C115.53 234.85 115.521 234.801 115.513 234.752C115.459 234.4 115.494 234.036 115.641 233.755C115.742 233.562 115.9 233.412 116.131 233.372C116.204 233.359 116.274 233.359 116.342 233.37L116.358 233.337L116.371 233.725L117.332 232.121L118 231.015C118.119 230.818 118.235 230.628 118.348 230.443C118.14 230.871 117.916 231.332 117.675 231.827L117.457 232.276L116.998 233.216C118.562 256.415 118.92 279.911 119.278 303.376L119.278 303.388C119.462 315.437 119.645 327.478 119.991 339.467L119.996 339.616C120.026 339.658 120.056 339.698 120.087 339.738C122.848 343.391 125.69 346.982 128.599 350.516L128.876 350.853C128.943 350.807 129.01 350.761 129.076 350.715C129.129 350.679 129.182 350.642 129.236 350.605C138.593 344.162 149.6 339.959 160.904 338.656L161.335 338.613L162.55 338.489C165.352 338.206 168.914 337.911 171.478 338.919C172.352 339.263 173.106 339.761 173.653 340.482C174.137 341.121 174.456 341.931 174.566 342.948C174.379 344.633 173.369 345.661 171.91 346.329C169.753 347.316 166.654 347.547 163.539 347.78L163.391 347.791C159.231 348.102 155.087 348.459 152.89 350.344C152.703 350.504 152.526 350.679 152.356 350.869C152.577 350.962 152.799 351.054 153.022 351.143C156.148 352.402 159.445 353.326 162.749 354.251L162.821 354.271C168.301 355.806 173.803 357.346 178.587 360.508C179.986 361.324 182.214 363.194 182.791 364.935C182.959 365.442 182.98 365.938 182.719 366.375C182.476 366.78 182.012 367.119 181.296 367.394C180.124 367.482 178.929 367.242 177.74 367.004L177.67 366.99C176.842 366.824 176.016 366.659 175.2 366.59L175.008 367.511C177.222 368.257 179.265 369.511 180.594 371.538C181.088 372.277 181.512 373.445 181.38 374.413C181.336 374.739 181.225 375.041 181.013 375.28C180.832 375.483 180.579 375.637 180.246 375.732C176.668 375.824 173.101 375.054 169.554 374.289L169.496 374.276C167.841 373.919 166.19 373.563 164.545 373.292C163.311 373.089 162.058 372.931 160.799 372.783L164.754 374.388L164.984 374.482C167.136 375.372 169.928 376.627 170.82 378.341C171.097 378.872 171.164 379.45 170.918 380.076C170.675 380.696 170.148 381.35 169.284 382.052C165.874 383.788 161.98 382.216 158.29 380.727L158.045 380.628C156.352 379.945 154.699 379.281 153.147 378.915C147.584 377.622 142.599 378.247 137.708 378.869L137.636 378.878C130.465 379.79 123.491 380.677 115.122 375.045C114.894 374.891 114.67 374.737 114.451 374.581C114.431 374.853 114.409 375.124 114.384 375.394C114.249 376.812 114.014 378.245 113.778 379.682L113.775 379.699C113.309 382.536 112.845 385.391 113.106 388.193C113.111 388.251 113.117 388.31 113.123 388.368C113.166 388.412 113.21 388.454 113.254 388.495C116.16 391.214 124.214 391.642 129.613 391.885L129.622 391.885ZM292.265 359.248C292.422 357.877 292.544 356.501 292.63 355.122C294.052 330.001 285.248 305.601 274.95 283.048C268.83 271.175 265.048 258.503 263.46 245.227C260.521 228.728 254.111 213.137 247.543 197.786L246.513 195.381C244.508 189.86 241.452 186.24 237.617 183.793C232.961 180.822 227.141 179.59 220.621 178.811C220.3 178.772 219.98 178.735 219.661 178.7C219.826 178.975 215.439 175.557 211.711 169.996C208.285 165.609 207.553 165.563 205.012 165.402L204.917 165.396L204.912 165.396C204.011 165.339 202.868 165.267 201.267 164.972C200.875 164.9 200.514 164.825 200.179 164.749C200.374 165.071 200.576 165.389 200.787 165.702C201.409 166.628 202.099 167.51 202.845 168.344C202.862 168.363 202.958 168.448 203.116 168.587C204.37 169.697 209.518 174.249 209.562 176.282C227.138 233.57 227.92 294.415 227.616 353.894L227.596 357.551C227.875 362.512 227.209 367.419 226.542 372.321L226.536 372.365C225.912 376.959 225.291 381.548 225.424 386.172C225.428 386.304 225.432 386.437 225.438 386.569C225.523 386.582 225.609 386.595 225.695 386.607C225.74 386.614 225.786 386.621 225.831 386.627C235.702 388.048 245.717 388.17 255.628 387.118C255.725 387.108 255.822 387.097 255.919 387.087C255.93 387.058 256.111 386.868 256.364 386.602C256.921 386.017 257.823 385.069 258.015 384.688C269.358 367.677 268.402 357.583 268.402 357.583L268.402 357.585C268.561 357.567 268.72 357.547 268.88 357.529C276.528 356.642 284.262 357.734 291.674 359.652C291.791 359.683 291.908 359.713 292.026 359.744C292.084 359.759 292.142 359.775 292.2 359.79C292.222 359.61 292.244 359.429 292.265 359.248Z" fill="#E86BBB"/>
<path fill-rule="evenodd" clip-rule="evenodd" d="M159.609 143.944C161.52 142.65 158.799 153.875 158.794 154.955L158.746 155.191C158.27 157.477 157.431 160.137 155.5 161.603C156.391 168.88 157.499 176.134 158.863 183.335L159.665 183.44C171.568 185.016 183.55 187.182 195.652 186.053C202.173 186.104 206.49 181.649 209.118 176.123C208.94 175.471 208.762 174.822 208.579 174.17C200.298 169.106 194.028 158.828 197.759 149.127C197.918 148.713 198.412 148.684 198.666 148.9C198.707 148.904 198.745 148.937 198.742 148.983L198.61 151.034C198.357 155.115 198.272 159.333 200.483 163.004C209.493 160.952 215.095 168.454 218.863 175.554L221.569 175.954C231.922 177.49 241.907 179.308 247.019 189.9L247.72 191.388C254.863 206.608 261.521 222.259 265.417 238.648C267.379 247.368 268.089 256.353 270.967 264.857C276.942 280.648 285.363 295.489 289.929 311.837C292.762 317.736 300.734 362.139 292.869 362.477C290.04 361.631 287.16 360.946 284.248 360.459C284.697 360.801 284.861 361.382 284.775 361.974C283.759 369.092 283.683 376.301 283.687 383.479C284.225 400.86 283.743 438.254 257.53 432.252C255.617 431.549 256.859 428.485 256.782 426.344C256.633 426.351 256.481 426.348 256.329 426.339C254.824 430.394 252.714 434.137 251.391 438.258C250.27 441.799 249.487 445.608 247.924 448.999C231.374 507.776 224.542 569.597 231.012 630.433C231.376 634.076 231.784 637.714 232.241 641.345C232.176 643.671 234.89 653.034 232.459 653.759C232.364 653.943 232.038 654.154 231.844 654.219C230.375 655.802 227.933 655.215 225.994 655.426C219.143 655.73 212.292 656.011 205.437 656.239C205.848 659.143 205.516 662.091 205.273 664.992C210.272 665.033 214.866 668.071 219.288 670.135C225.854 673.37 232.314 676.828 238.65 680.494C244.501 684.583 257.572 688.532 253.075 697.803C256.428 699.162 251.768 704.845 249.221 704.909C232.636 704.826 216.156 701.069 199.949 697.771C190.74 695.34 180.691 694.417 172.172 690.226C169.753 689.134 170.26 684.779 172.92 684.374C170.945 669.857 178.96 670.057 181.218 657.962C179.906 658.176 178.456 658.055 177.14 657.789C174.093 660.603 175.213 638.451 174.798 636.287C174.716 613.572 175.795 590.808 173.371 568.171L169.253 580.279C159.653 608.539 150.197 636.871 142.671 665.762C142.22 667.506 140.386 667.715 139.216 666.954C134.273 666.809 129.35 666.345 124.474 665.558C124.38 667.869 124.282 670.179 124.185 672.49C126.288 673.622 124.864 680.753 125.133 683.165C127.422 688.377 118.153 698.527 115.148 702.804C109.74 710.35 104.368 720.911 93.9077 721.262L93.5892 721.27C85.781 721.46 77.9026 721.004 70.1701 719.89L69.2291 719.737C67.0241 719.368 64.583 718.83 63.3138 716.87C62.2264 715.192 62.3594 713.026 63.6796 711.744C61.9359 705.424 68.7234 701.597 72.5144 697.749C79.5961 690.924 86.0328 683.419 91.5991 675.313L91.9188 674.557C92.9505 672.125 94.1833 669.426 96.104 668.262C97.9355 665.357 99.5017 662.3 101.156 659.296C96.6383 657.639 92.1904 655.788 87.7919 653.84C86.9167 653.451 86.6381 652.314 86.7911 651.468L86.8022 651.411C95.3891 606.867 105.684 562.642 113.691 517.996C118.806 476.85 120.902 435.181 131.654 394.94C126.438 394.398 121.246 392.901 116.127 391.622C112.023 390.749 109.948 388.667 110.757 384.324C111.036 380.465 111.809 376.668 112.227 372.825C111.135 372.061 110.068 371.258 109.031 370.433C107.107 371.867 105.121 373.218 103.082 374.478C98.197 377.993 94.4266 378.54 91.4091 372.779C82.6694 358.987 74.2412 344.993 66.2872 330.734C58.9091 317.055 49.7653 303.404 47.8924 287.654C45.172 259.31 78.4626 213.952 95.1398 190.916C104.337 179.821 115.537 168.402 130.103 165.175C134.584 164.512 139.307 164.422 143.578 162.798C143.925 160.724 144.9 158.814 147.103 158.306C149.419 157.794 151.903 157.004 154.237 156.946C154.764 156.797 155.387 156.704 155.944 156.806C157.541 152.663 157.776 147.994 159.609 143.944ZM70.3772 715.02C70.7764 715.217 71.1894 715.387 71.6124 715.539C72.1325 715.61 72.6502 715.676 73.1677 715.735C72.2296 715.525 71.2986 715.288 70.3772 715.02ZM122.206 674.737C114.555 677.512 112.453 664.486 97.4051 669.758C91.5244 680.666 83.911 690.573 75.2089 699.381C72.1158 703.223 62.9608 707.585 67.8944 713.218L68.6501 713.356C77.2178 714.913 85.9147 716.15 94.6453 715.446C101.243 713.628 106.191 708.345 110.189 703.017C113.082 697.894 116.466 693.073 119.921 688.318C121.82 685.954 122.013 682.945 122.004 680.037C122.068 678.269 122.135 676.503 122.206 674.737ZM208.152 668.343C204.904 667.153 201.572 668.272 198.617 669.732C193.57 671.989 182.637 674.693 177.967 671.095C175.678 674.879 174.91 679.085 175.538 683.45L175.543 683.653C175.592 685.446 175.818 686.9 177.989 687.027L184.075 688.556C204.609 693.707 225.345 698.686 246.481 700.119C252.122 696.6 252.28 691.973 246.284 688.752L244.75 687.812C232.978 680.616 220.93 673.544 208.152 668.343ZM252.823 698.273C252.766 698.37 252.712 698.467 252.655 698.561C252.743 698.604 252.823 698.666 252.899 698.732C252.899 698.573 252.876 698.417 252.823 698.273ZM102.295 659.709C102.374 661.309 101.587 663.115 101.034 664.551C100.709 665.399 100.374 666.611 99.8561 667.582C112.72 663.79 116.636 674.902 121.275 672.591L121.415 672.517V672.514C120.468 670.353 121.501 667.31 122.138 665.155C115.382 663.934 108.749 662.035 102.295 659.709ZM203.954 656.289L200.245 656.403C194.475 656.578 188.705 656.73 182.931 656.722C183.535 660.868 182.353 667.707 179.668 670.929C179.663 670.931 179.658 670.931 179.656 670.933C187.256 672.083 194.453 668.604 201.222 665.679C201.508 662.502 202.756 659.259 203.954 656.289ZM179.135 668.919C178.905 669.35 178.672 669.782 178.439 670.213C178.542 670.324 178.656 670.426 178.777 670.514C178.706 669.976 178.898 669.443 179.135 668.919ZM189.818 316.307C194.055 337.699 197.399 359.355 198.56 381.167L198.57 381.383C198.683 383.59 199.013 386.051 197.537 387.893C196.005 389.806 193.618 390.048 191.355 390.396C172.372 393.282 153.122 394.258 133.932 393.677C126.849 428.716 122.516 464.191 119.873 499.822C114.132 550.732 101.099 600.499 91.3382 650.728C106.476 657.346 122.176 662.041 138.767 662.693C162.251 575.965 206.217 484.434 208.558 397.675C208.684 397.535 208.986 397.568 209.019 397.779C209.793 402.526 209.463 407.48 209.292 412.265C208.643 426.991 207.003 441.709 204.585 456.24C198.447 492.33 187.109 527.248 175.495 561.887C175.106 563.442 175.694 565.172 175.714 566.76C178.14 593.251 178.388 619.878 179.169 646.45C179.005 649.388 179.93 652.714 178.91 655.473C187.682 654.298 196.498 653.665 205.314 652.93L205.38 652.887C205.745 652.656 206.328 652.411 206.663 652.823C214.112 652.238 221.568 651.702 229.02 651.202C218.451 575.581 225.756 496.752 254.351 425.711C252.54 424.053 253.329 420.359 252.914 418.051C252.532 408.629 252.553 398.992 254.406 389.716L253.934 389.744C248.241 390.069 223.191 391.073 222.504 386.824C221.551 379.626 223.853 372.49 224.323 365.344C225.167 349.198 224.963 332.989 224.853 316.821C219.895 317.484 215.141 316.574 210.24 316.388C203.425 316.328 196.624 316.502 189.818 316.307ZM101.466 659.412C101.338 659.969 101.188 660.526 101.029 661.083C101.249 660.586 101.497 660.108 101.792 659.686L101.882 659.562L101.466 659.412ZM182.531 656.725L182.125 656.729L182.123 656.962C182.218 657.121 182.235 657.315 182.116 657.471C182.102 658.187 182.071 658.905 182.016 659.623C182.173 658.656 182.33 657.689 182.531 656.725ZM177.371 656.488L177.392 656.848C177.912 656.829 178.437 656.85 178.955 656.824C179.228 656.81 179.508 656.763 179.791 656.713C178.976 656.687 178.164 656.623 177.371 656.488ZM269.799 359.44C269.543 359.742 269.263 359.924 268.978 360.017C268.98 366.859 267.598 373.588 263.81 379.513C262.235 381.601 261.344 383.978 260.583 386.455C256.577 397.793 255.833 409.971 257.293 421.843C261.229 416.073 262.794 409.188 263.893 402.399C263.952 402.058 264.518 402.062 264.579 402.399C265.909 409.665 263.623 416.803 260.889 423.519C259.181 424.739 259.588 427.934 259.383 429.814C288.402 434.039 278.311 378.365 282.028 361.218C282.097 360.746 282.498 360.403 282.954 360.258C278.601 359.595 274.191 359.546 269.799 359.44ZM133.142 393.644C133.178 393.826 133.209 394.009 133.233 394.191C133.285 394.013 133.337 393.833 133.389 393.653C133.309 393.65 133.226 393.648 133.142 393.644ZM152.754 158.148L152.246 158.281C146.884 159.663 145.149 159.473 144.846 165.943C143.528 174.723 138.662 182.382 136.475 190.872C135.6 193.87 136.525 199.396 140.673 198.584C142.017 198.172 143.065 199.982 142.048 200.943C139.044 203.782 136.128 206.709 133.195 209.617C144.972 249.34 160.272 288.031 178.909 325.048C179.648 326.517 177.432 327.809 176.698 326.34C158.17 289.204 142.761 250.526 130.801 210.793L130.439 209.588C129.911 208.126 136.665 202.883 137.895 201.172C125.563 195.235 142.78 174.44 143.248 164.426C139.718 165.977 135.717 165.42 131.988 166.045C124.835 167.299 118.557 171.428 112.976 175.885C90.3081 195.886 75.8222 223.578 61.3318 249.679C51.4634 266.709 46.7057 287.527 56.6088 305.642C68.0995 328.868 81.4291 351.255 95.5217 372.988C97.0692 375 99.4509 372.687 101.081 371.843C110.454 366.215 118.582 358.558 124.833 349.604C109.679 331.025 96.479 310.719 87.1438 288.596L87.015 288.339C84.9205 284.132 83.2642 279.043 86.7583 275.081C99.1652 259.201 110.2 242.343 120.584 225.091C120.691 224.918 120.931 225.07 120.852 225.25C119.786 227.663 118.663 230.057 117.492 232.429C119.857 267.507 119.457 303.269 120.48 338.57C123.237 342.217 126.075 345.803 128.979 349.332C138.401 342.844 149.484 338.612 160.867 337.301L161.603 337.228C166.438 336.73 174.424 335.794 175.057 342.066C174.274 349.782 158.315 345.444 153.213 349.82C161.577 353.189 171.161 354.138 178.84 359.215C181.303 360.651 186.132 365.227 181.414 366.978C179.356 367.153 177.23 366.355 175.173 366.179C177.488 366.958 179.617 368.278 180.973 370.348C181.949 371.767 182.661 374.714 180.329 375.321C175.013 375.471 169.718 373.738 164.481 372.877L164.947 373.065C168.764 374.627 174.698 377.432 169.557 381.568C164.409 384.231 158.178 379.702 153.051 378.493C139.242 375.282 129.026 384.081 114.87 374.555C114.468 377.738 113.865 380.9 113.624 384.101L113.592 384.283C113.102 387.205 113.522 388.26 116.675 388.818C120.477 389.965 124.459 390.325 128.409 390.538C147.421 391.543 166.56 390.83 185.442 388.397C188.16 387.668 194.542 388.355 195.678 385.367C193.55 308.465 161.482 236.103 152.652 160.2C152.507 159.47 152.498 158.726 152.754 158.148ZM206.354 164.72C204.837 164.782 203.425 165.111 201.917 165.263C202.752 167.039 207.161 169.551 206.76 170.432C207.078 170.679 207.401 170.916 207.729 171.145C207.273 169.543 206.812 167.943 206.35 166.341C223.103 207.137 225.405 255.405 227.631 299.908C228.364 322.348 228.763 344.857 227.678 367.283C227.075 373.239 225.478 379.259 225.913 385.274C235.745 386.69 245.72 386.811 255.592 385.763C255.884 384.997 256.214 384.244 256.589 383.504C271.367 365.491 263.53 342.917 256.414 323.405C252.111 323.587 247.783 323.315 243.475 323.368C244.806 327.485 245.149 331.842 245.858 336.1C246.34 339.134 246.955 342.144 247.662 345.132L247.852 345.929C248.119 347.031 248.472 348.22 248.085 349.313C247.705 350.392 246.394 350.827 245.525 349.988C243.958 348.202 244.126 345.541 243.62 343.326L243.527 342.629C242.665 336.271 241.528 329.674 243.105 323.365C241.558 323.033 237.328 324.253 237.105 322.173C237.171 318.738 234.679 311.296 237.453 309.033C239.103 307.775 241.941 308.173 243.877 308.095C246.114 308.005 248.349 307.922 250.583 307.936C232.624 264.543 237.619 251.186 239.441 208.001L239.495 206.683C239.49 206.398 239.949 206.327 239.999 206.614C242.745 224.303 239.084 242.213 240.819 259.958C243.898 293.673 265.267 322.621 268.839 356.175C276.544 355.281 284.339 356.377 291.807 358.31C291.964 356.947 292.085 355.579 292.17 354.212C293.588 329.167 284.798 304.844 274.542 282.381C268.396 270.458 264.597 257.732 263.007 244.427C259.919 227.096 252.991 210.771 246.085 194.672C241.719 182.634 232.282 179.796 220.579 178.398C224.526 184.939 228.45 191.495 232.366 198.056C233.24 200.04 230.561 201.456 229.393 202.677C243.769 210.516 235.375 234.722 235.672 248.285C234.604 260.748 234.202 273.283 232.321 285.659C232.183 286.517 230.867 286.266 230.855 285.462C231.029 266.918 233.24 248.448 234.211 229.933L234.329 228.583C235.086 219.818 235.826 207.172 225.284 204.765C223.861 204.533 223.752 202.419 224.894 201.784C226.414 200.938 227.747 199.904 228.939 198.674C224.911 191.917 220.89 185.155 216.905 178.369L216.718 178.054C213.888 173.253 211.259 167.666 206.354 164.72ZM172.143 341.596C170.98 338.171 159.693 340.401 156.68 340.774C145.57 342.871 134.389 347.787 125.928 355.357C125.405 355.824 124.788 355.816 124.301 355.563C120.511 360.404 116.134 364.791 111.334 368.646C112.213 369.338 113.115 370.009 114.044 370.651C114.488 370.698 114.889 370.928 115.07 371.341C128.277 380.908 137.992 373.445 151.712 375.169C156.834 376.201 161.551 379.459 166.83 379.596C170.704 378.715 167.293 377.096 165.484 376.47C161.387 374.514 157.211 372.732 153.025 370.974L149.677 369.57C148.031 368.88 148.596 366.394 150.434 366.828C153.652 367.586 156.88 368.307 160.109 369.016C166.321 370.283 172.68 371.908 178.957 372.524C177.561 368.646 162.758 364.459 158.454 362.918C156.829 362.15 152.192 362.296 152.721 359.777C153.149 357.432 158.082 360.117 159.727 360.308C166.442 362.011 173.295 363.043 180.137 364.081C172.788 356.71 161.397 356.074 152.011 352.622L151.806 352.575C150.133 352.19 147.784 351.462 149.155 349.546C153.977 342.437 172.95 346.035 172.143 341.596ZM158.257 302.018C161.681 299.21 163.514 304.977 163.297 307.659C163.458 309.884 163.632 312.11 163.777 314.335C163.565 316.075 165.42 322.419 162.938 322.476C152.094 321.926 141.267 322.065 130.419 321.412C130.405 323.6 130.298 325.785 130.41 327.975C130.351 330.714 131.302 333.449 130.747 336.157C130.407 337.401 128.714 337.569 128.053 336.507C126.071 331.847 127.434 325.835 128.837 321.121C123.525 320.139 122.792 315.147 124.192 310.692L124.177 310.451C124.1 309.077 124.106 307.603 124.719 306.493C126.36 304.561 129.762 305.816 132.022 305.67C138.949 304.956 146.004 304.759 152.85 303.487C154.622 303.029 156.43 302.104 158.257 302.018ZM115.196 236.942C109.803 247.234 103.598 257.027 96.9924 266.563C95.577 268.599 94.1236 270.609 92.6469 272.604L92.3735 272.954C89.4223 276.701 86.3575 279.81 89.1458 284.782C96.4519 302.523 106.235 319.184 117.568 334.647C116.851 302.078 116.217 269.5 115.196 236.942ZM250.783 308.457C237.233 311.296 236.979 305.98 239.241 321.026C244.675 321.063 250.107 320.941 255.542 321.028C253.989 316.826 252.379 312.643 250.783 308.457ZM159.829 304.208C152.752 306.666 145.238 306.316 137.848 306.618C137.862 308.207 130.3 306.732 128.849 306.95L128.291 306.902C127.091 306.806 125.582 306.79 125.569 308.261C125.954 310.834 124.505 313.653 125.403 316.182C126.614 319.587 131.796 319.237 134.655 319.303C139.37 319.41 144.084 319.523 148.798 319.647C153.032 319.758 157.281 319.969 161.52 320C161.138 316.985 161.034 313.894 160.803 310.882C160.513 308.716 160.931 306.149 159.829 304.208ZM189.587 315.16C189.594 315.198 189.601 315.236 189.611 315.276C189.693 315.253 189.787 315.239 189.867 315.217C189.774 315.2 189.68 315.181 189.587 315.16Z" fill="black"/>
<path fill-rule="evenodd" clip-rule="evenodd" d="M227.037 106.667C226.139 91.9247 221.356 75.2105 207.278 67.9722C176.242 55.5154 135.436 86.8851 133.276 118.932C132.523 129.901 138.613 141.888 149.742 144.938C152.217 148.217 155.959 150.219 159.652 151.957C203.644 174.782 232.06 156.228 227.037 106.667Z" fill="#D08B5B"/>
<path fill-rule="evenodd" clip-rule="evenodd" d="M237.06 97.4965C235.505 93.1782 233.863 88.8931 232.135 84.6411C230.452 80.5029 228.933 76.2753 226.843 72.3332C214.363 48.7886 191.669 48.7886 179.938 51.865C173.855 49.2437 162.46 49.9831 156.126 52.3485C145.871 56.1779 133.37 71.2418 129.096 78.0098C119.659 92.9531 113.77 112.842 120.038 130.11C120.858 132.367 121.902 134.457 123.079 136.471C122.338 137.476 121.485 138.427 120.54 139.362C117.732 142.14 114.924 144.827 112.499 147.96C110.088 151.074 108.09 154.386 106.602 158.037C103.797 164.923 103.662 172.719 107.371 179.289C110.597 185.006 116.313 189.263 122.752 189.669C123.082 189.715 123.413 189.757 123.746 189.791C124.599 191.196 125.64 192.49 126.827 193.618C130.465 197.079 139.136 198.854 144.082 198.968C144.336 199.171 144.591 199.375 144.847 199.577C147.874 201.959 151.049 204.362 154.524 206.057C156.877 207.206 159.963 208.166 162.418 207.336C163.532 208.081 165.359 207.924 166.463 207.315C168.278 206.315 169.755 204.514 170.653 202.67C172.831 198.193 172.307 193.294 171.748 188.511C171.132 183.228 170.539 177.942 169.937 172.66C169.466 168.528 168.973 164.329 167.717 160.349C167.067 158.287 166.217 156.306 165.117 154.443C165.145 154.287 165.141 154.13 165.096 153.983C164.736 152.812 163.991 152.198 163.11 151.402C162.996 151.3 162.882 151.196 162.771 151.089C162.33 150.587 161.858 150.12 161.354 149.724C161.159 149.527 160.967 149.328 160.775 149.129C159.18 147.458 157.673 145.702 156.334 143.82C155.036 141.995 153.862 140.09 152.746 138.149C151.611 136.174 150.86 133.996 149.727 132.036C149.63 131.868 149.383 131.835 149.246 131.974C148.895 132.337 148.67 132.74 148.713 133.164L148.537 133.19C148.471 132.55 147.881 132.029 147.08 132.169C145.881 132.377 144.895 132.456 143.857 132.057C144.039 130.846 144.208 129.633 144.373 128.417C144.677 126.179 144.959 123.935 145.201 121.691C145.786 121.83 146.367 122.032 146.935 122.288C147.746 122.65 148.511 123.139 149.165 123.738C149.81 124.331 150.256 125.13 151.042 125.542C151.948 126.014 153.04 125.234 152.775 124.21C152.237 122.141 149.191 120.956 147.307 120.565C146.66 120.43 145.999 120.373 145.338 120.387C145.487 118.946 145.62 117.505 145.729 116.062C145.781 115.379 145.829 114.696 145.874 114.011C147.338 113.568 148.907 113.435 150.431 113.644C150.933 114.045 151.436 114.44 151.922 114.841C153.464 116.116 155 117.398 156.517 118.704C156.654 118.82 156.789 118.936 156.927 119.055C157.827 119.83 158.951 119.062 158.799 117.965C157.562 108.973 163.069 101.82 169.518 96.2783C176.656 90.1421 189.634 89.4276 198.122 78.7988C202.032 79.5946 210.761 81.9582 214.363 87.6985C219.406 95.7427 218.748 102.95 219.131 112.075C219.515 121.207 220.492 130.732 218.418 139.736C216.506 148.039 211.327 155.133 203.294 158.394C203.094 158.474 202.893 158.553 202.692 158.629C198.537 160.195 194.004 160.638 189.634 159.814C184.797 158.899 180.758 156.685 176.734 153.962C176.502 153.808 176.163 154.125 176.338 154.358C181.642 161.387 192.06 163.736 200.324 161.88C200.71 161.793 201.094 161.698 201.476 161.594C199.627 166.91 199.999 172.745 202.407 177.921C203.855 181.035 206.064 183.73 208.754 185.856C211.718 188.198 215.397 190.089 217.454 193.377C219.338 196.389 218.778 199.773 215.553 201.513C214.74 201.954 214.427 203.378 215.233 204.004C215.541 204.241 215.849 204.483 216.164 204.72C217.97 206.083 222.93 208.642 223.734 208.737C230.867 209.583 235.664 204.345 238.738 198.167C242.347 190.914 241.408 182.076 237.432 175.169C234.242 169.628 227.959 164.167 230.457 157.154C231.348 154.649 233.171 152.514 234.941 150.584C236.96 148.387 239.131 146.33 241.067 144.055C242.991 141.796 244.698 139.338 245.65 136.504C247.042 132.361 246.35 127.881 245.304 123.745C243.065 114.867 240.157 106.107 237.06 97.4965Z" fill="black"/>
<path fill-rule="evenodd" clip-rule="evenodd" d="M197.255 143.848C195.659 143.198 194.235 142.114 193.193 140.729C192.831 140.247 192.737 139.739 192.813 139.274C192.899 138.751 193.208 138.277 193.631 137.959C194.055 137.64 194.586 137.483 195.099 137.563C195.544 137.633 195.988 137.876 196.339 138.381L196.412 138.482C197.031 139.318 197.838 140.004 198.757 140.446C199.643 140.872 200.634 141.071 201.66 140.955C203.613 140.735 204.959 139.681 206.39 138.25C206.567 138.069 206.745 137.882 206.923 137.693C207.036 137.521 207.192 137.411 207.365 137.353C207.558 137.289 207.776 137.292 207.976 137.362C208.168 137.429 208.34 137.556 208.456 137.725C208.565 137.886 208.628 138.085 208.607 138.313C208.476 139.796 207.699 141.12 206.595 142.16C205.369 143.314 203.744 144.113 202.214 144.393C200.528 144.702 198.811 144.481 197.255 143.848ZM203.009 120.962C204.803 122.05 207.535 124.587 205.606 127.284C203.335 129.662 200.065 126.935 198.454 125.702C196.96 124.746 195.282 127.204 196.668 128.32C208.31 136.923 213.035 121.247 203.916 119.683C202.912 119.511 202.539 120.626 203.009 120.962ZM182.146 110.955C182.344 108.501 186.09 107.943 186.462 110.372C186.796 112.548 186.403 114.547 185.421 116.506C184.483 118.377 182.124 117.504 181.946 115.8C181.707 113.516 182.022 112.482 182.146 110.955ZM210.66 109.869C211.182 109.186 211.936 108.72 212.839 108.983C215.662 109.806 214.83 113.806 213.839 115.752C213.3 116.809 211.559 117.077 210.772 116.146C209.49 114.629 208.876 111.598 210.506 110.102C210.55 110.025 210.599 109.947 210.66 109.869ZM185.381 100.215L185.827 100.137C187.207 99.8989 188.922 99.6701 189.897 100.777C190.415 101.364 190.593 102.454 189.897 103.016C188.674 104.004 187.321 103.621 185.855 103.705C184.646 103.774 183.485 103.974 182.321 104.306C179.768 105.034 177.687 106.364 175.506 107.824C175.22 108.015 174.928 107.65 175.064 107.383C176.323 104.922 178.763 102.901 181.207 101.668C182.511 101.011 183.938 100.465 185.381 100.215ZM208.086 99.1125L208.428 99.1822C212.141 99.9569 216.966 101.504 218.725 105.145C218.792 105.66 218.721 105.77 218.664 105.842L218.644 105.866C218.597 105.927 218.559 106.012 218.336 106.082C218.273 106.068 218.211 106.052 218.148 106.035C217.341 105.825 216.704 105.534 216.086 105.233L215.417 104.904C214.64 104.524 213.856 104.157 213.026 103.887C211.254 103.31 209.431 102.904 207.58 102.687C207.179 102.64 206.792 102.505 206.488 102.273C206.198 102.053 205.977 101.749 205.876 101.344C205.746 100.821 205.783 100.424 206.065 99.9519C206.277 99.5972 206.579 99.3514 206.927 99.2102C207.282 99.0662 207.685 99.0323 208.086 99.1125Z" fill="black"/>
</svg>
