<svg width="391" height="780" viewBox="0 0 391 780" fill="none" xmlns="http://www.w3.org/2000/svg">
<path fill-rule="evenodd" clip-rule="evenodd" d="M264.541 331.677C262.067 309.306 258.325 286.36 248.873 265.64C245.626 238.845 251.097 200.469 226.232 182.401C226.55 179.193 220.791 176.428 218.121 174.716C213.785 171.879 207.919 166.307 202.786 169.429C201.167 168.935 197.173 170.955 195.335 166.575C193.452 162.088 193.725 153.091 192.224 152.27C192.886 145.786 163.693 141.448 156.074 150.613C152.456 157.642 156.612 159.879 148.454 169.12C144.852 169.341 141.415 170.252 138.093 171.502C135.35 171.881 132.621 172.342 129.905 172.821C95.2581 176.023 92.6387 201.618 89.5679 229.105C86.9388 266.028 75.5181 302.812 80.4556 340.026C77.7267 353.333 77.5472 367.532 80.8057 380.712C70.1215 396.29 77.8662 404.911 84.53 419.723C85.6578 422.388 86.6393 425.132 87.1385 427.975C87.0068 430.178 87.0214 432.383 87.4092 434.57C88.5401 439.551 96.8583 438.855 97.2289 433.821C97.8795 430.516 97.6779 427.086 98.1824 423.764C98.1531 423.937 98.1019 424.269 98.1019 424.295C99.3219 415.935 101.288 412.694 106.72 406.315C113.694 396.249 109.405 383.601 110.997 372.336C111.433 368.571 112.01 364.857 112.396 361.086C114.748 362.466 117.304 363.619 119.975 364.338C118.292 377.302 121.219 390.326 124.474 402.866C133.282 435.168 144.96 468.338 139.888 502.235C139.89 502.219 134.357 529.94 129.987 543.623C124.703 560.976 120.449 578.359 112.973 594.997C108.97 606.974 100.499 618.335 100.828 631.229C97.9037 635.546 103.169 640.734 107.81 640.72C107.81 646.566 104.718 657.58 104.718 657.58C104.232 661.664 102.14 666.863 105.303 670.331C101.002 681.264 99.4916 693.094 98.3114 704.664C97.8605 710.152 97.3435 716.767 103.23 719.88C108.714 722.248 115.099 721.206 120.955 721.912C126.621 721.92 132.484 723.403 138.056 722.123C144.456 720.303 145.745 713.384 144.54 707.851C143.762 702.089 142.831 696.346 141.812 690.619C138.788 678.15 137.941 664.314 134.067 652.319C136.237 651.913 138.415 650.822 139.888 649.23C143.629 649.107 146.387 646.328 147.303 643.042C147.965 640.925 150.813 640.489 152.731 639.815C153.09 641.644 154.138 643.182 154.992 644.845C154.263 648.377 156.696 652.506 160.712 652.588C161.293 653.144 161.832 653.713 162.424 654.243C157.857 660.953 154.47 668.528 153.612 676.519C152.578 682.648 151.496 692.469 159.625 694.284C162.694 694.688 165.996 695.472 169.003 694.356C172.356 695.858 175.92 696.578 179.53 697.221C195.001 699.826 209.922 699.608 225.522 701.357C229.638 701.929 246.129 703.618 248.873 701.357C252.221 702.041 250.197 699.549 251.605 697.221C252.727 695.472 255.723 692.123 253.789 691.153C249.732 689.405 246.135 685.967 242.423 684.016C225.075 674.162 187.656 657.379 187.916 656.907C187.865 657.241 188.143 648.805 189.53 646.566C191.481 644.636 195.369 644.975 197.406 643.129C198.698 643.189 208.395 640.405 207.565 635.742C206.501 632.02 209.976 627.458 207.565 624.315C215.548 551.542 234.123 480.961 244.374 408.576C244.601 408.377 244.825 408.176 245.052 407.977C250.338 408.86 254.445 403.562 256.05 399.389C256.823 398.605 257.566 397.798 258.249 396.924C262.557 391.333 262.634 384.052 263.124 377.401C264.189 376.62 264.875 375.406 264.933 373.97C265.104 369.695 265.285 365.419 265.465 361.146C265.467 361.146 265.467 361.146 265.467 361.144C266.794 359.018 266.974 356.626 266.596 354.19C266.735 346.309 267.952 338.927 264.541 331.677Z" fill="#D08B5B"/>
<path fill-rule="evenodd" clip-rule="evenodd" d="M99.5588 704.841L101.684 705.699C113.817 710.597 128.057 712.112 143.711 710.741L144.186 710.698L147.034 710.439L146.011 713.105C145.203 715.209 143.608 716.729 141.332 717.72L141.148 717.799L141.09 717.818C135.432 719.762 124.249 720.49 115.152 718.87C107.713 717.545 101.668 714.022 101.179 713.546C99.5661 711.981 98.9021 709.902 99.2333 707.241L99.2507 707.108L99.5588 704.841ZM154.595 685.43L154.087 682.925L156.617 683.322C173.879 686.025 188.98 687.768 217.98 690.65L232.3 692.072C240.001 692.844 244.939 693.357 250.579 693.974L251.915 694.121L252.372 694.856C252.418 694.929 252.479 694.996 252.553 695.053L252.599 695.085L251.542 698.345L251.407 698.431C251.157 698.592 250.993 698.688 250.78 698.785L250.707 698.817L250.407 698.946L250.082 698.961C231.119 699.823 213.208 699.343 196.11 697.369L195.484 697.296L194.768 697.21C185.762 696.158 159.303 690.918 157.962 690.09C156.217 689.014 155.051 687.512 154.62 685.548L154.595 685.43Z" fill="white"/>
<path fill-rule="evenodd" clip-rule="evenodd" d="M268.721 357.5C266.174 359.168 233.041 374.386 196.426 375.307C170.882 375.95 126.344 364.522 113.52 363.573C109.027 363.241 112.853 376.737 113.63 377.475C113.329 380.323 111.375 385.094 111.589 387.978C107.926 387.031 96.4203 385.141 81.4585 377.557C79.3162 376.471 78.0643 317.584 81.4815 288.325C86.2087 247.848 88.6614 210.853 92.1455 208.806C92.1863 209.836 89.3237 181.142 113.52 176.573C117.913 175.743 143.443 169.936 143.443 169.936C153.893 183.209 170.521 194.348 180.017 194.348C196.878 194.348 206.416 169.88 208.04 170.173C243.426 176.573 240.359 218.838 248.889 265.688C256.337 306.602 268.052 346.531 268.721 357.5Z" fill="white"/>
<path d="M246.792 362.71L249.391 362.013L248.823 366.055L247.041 378.389C246.692 380.822 227.452 488.879 227.452 488.879C227.452 488.879 207.724 611.08 206.794 626.859C206.751 627.594 205.578 637.827 204.258 638.689L204.163 638.75L204.069 638.809C203.646 639.068 200.453 641.326 187.141 643.482C179.606 644.703 154.67 647.005 154.67 647.005L154.747 644.801C154.816 642.924 154.952 639.756 155.039 637.523L155.062 636.913L155.099 635.891L155.057 635.882C154.523 635.782 154.003 636.009 153.09 636.928C151.547 638.481 149.611 641.575 147.177 646.565L146.48 648.002C146.48 648.002 110.18 638.621 102.294 633.888L102.05 633.741L100.944 633.071L101.349 631.36C103.22 623.497 128.219 549.056 131.161 539.156L131.435 538.232L131.591 537.703C135.625 523.959 142.962 462.173 137.743 443.683C128.244 410.027 120.044 372.498 118.886 368.679L118.716 368.123L118.544 367.567L117.631 364.645L120.627 365.302C161.995 374.373 205.205 373.637 245.57 363.034L246.792 362.71Z" fill="#E86BBB"/>
<path fill-rule="evenodd" clip-rule="evenodd" d="M155.9 149.836C155.98 149.138 156.912 149.149 157.001 149.836C157.982 158.14 154.697 167.673 146.616 171.543C152.675 176.884 156.94 184.025 164.21 188.057C179.466 197.976 201.511 188.695 204.904 171.203C201.139 170.341 194.123 170.414 192.98 166.024C192.427 165.458 192.143 160.615 192.177 157.043C192.142 156.379 192.121 155.714 192.098 155.055C192.041 154.52 192.024 153.975 192.03 153.427C192.042 152.238 193.826 152.261 193.9 153.427C193.931 153.905 193.952 154.389 193.971 154.875C193.984 155.004 194.002 155.132 194.018 155.26C194.263 156.149 194.433 157.079 194.634 157.923C194.741 158.378 194.853 158.837 194.973 159.296C195.145 160.499 195.452 161.674 195.98 162.787C197.381 165.745 200.837 168.286 204.243 168.313C204.973 168.319 205.699 168.212 206.429 168.23C207.619 168.261 208.59 168.731 209.652 169.21C210.61 169.642 211.51 169.935 212.434 169.933C250.57 182.841 245.319 230.092 251.127 262.039C257.048 293.765 269.277 324.352 271.077 356.775C271.617 360.138 267.896 361.385 265.588 362.976C264.973 371.435 268.539 379.997 266.066 388.368C263.778 395.213 254.553 411.669 245.738 409.077C235.743 484.891 212.512 555.153 210.314 631.89C212.54 638.306 206.15 642.964 200.257 643.903L199.453 644.365C196.767 645.904 193.99 647.41 191.051 648.362C190.977 648.405 190.904 648.448 190.829 648.489C190.686 648.567 190.532 648.613 190.376 648.637C190.54 650.601 191.162 652.446 191.964 654.24C204.192 657.055 214.931 664.447 226.429 669.28C233.846 673.834 256.488 680.413 258.207 688.413L258.253 688.656C258.944 692.24 257.013 696.662 252.924 697.001C255.058 698.578 253.66 701.764 251.335 702.378C248.541 703.12 245.508 702.804 242.632 703.034C215.5 703.885 188.129 701.492 161.683 695.421C159.462 694.908 157.149 694.24 155.277 692.916C143.8 683.849 155.746 664.66 158.567 652.898C157.542 652.736 156.53 652.512 155.534 652.217L155.312 652.151C154.345 651.859 153.345 651.508 152.594 650.826C152.563 650.798 152.537 650.767 152.508 650.738C147.673 650.669 152.598 640.041 153.032 637.198C151.067 641.375 149.463 645.833 147.11 649.81C145.489 652.263 141.936 650.561 139.549 650.389C140.343 664.927 143.819 679.101 147.389 693.186C150.288 704.882 155.266 718.937 138.841 722.492C127.529 725.451 100.572 724.32 95.7496 711.957C94.3276 701.89 97.4419 691.689 98.9821 681.768L99.2523 680.357C101.091 670.712 102.791 661.023 105.457 651.559C105.824 650.017 106.276 648.507 106.762 647.007C106.825 646.132 106.871 645.256 106.815 644.377C106.74 643.227 106.522 642.1 106.291 640.971C106.261 640.828 106.235 640.661 106.207 640.483C101.444 638.289 97.9069 635.808 97.4505 633.131C96.9834 630.591 97.9276 628.015 98.6276 625.591L98.6685 625.448C114.009 571.674 143.19 523.216 138.217 465.856C136.387 437.643 123.003 411.696 120.744 383.557C119.445 377.944 118.272 372.273 118.083 366.486C117.281 366.298 116.472 366.126 115.674 365.919C115.206 368.421 114.613 370.902 113.642 373.238C113.268 377.855 113.507 382.523 114.312 387.089C114.498 388.141 113.985 389.056 113.116 389.393C115.203 395.886 115.615 404.03 110.232 409.06L109.786 409.355C105.109 412.463 104.62 413.343 103.532 419.133L99.9517 433.767C99.5027 435.578 98.9648 437.423 97.6711 438.845C94.2379 442.619 88.7733 440.156 87.0028 436.134C85.3868 432.014 85.3991 427.478 84.2192 423.234C83.3224 418.851 80.8354 415.107 78.3705 411.432C72.8603 402.995 72.4205 391.248 78.5645 382.985C79.1011 381.617 79.5925 380.271 80.1625 378.927C78.0364 376.437 79.4047 372.516 79.1606 369.469C79.1565 366.954 79.1103 364.439 79.0335 361.925C78.5851 347.075 77.053 332.318 76.9974 317.468C76.4015 297.452 81.678 278.064 84.7372 258.433C87.3676 239.048 87.2275 219.283 91.531 200.123C99.5399 162.516 144.482 176.853 152.085 162.033C154.382 158.325 155.411 154.105 155.9 149.836ZM101.004 707.347C100.324 712.348 103.843 713.549 107.877 715.069C118.165 718.835 130.043 719.729 140.499 716.138C142.352 715.355 143.678 714.184 144.336 712.469C129.824 713.792 114.586 712.829 101.004 707.347ZM156.328 685.078C157.239 689.57 163.036 690.098 166.918 690.853C176.189 692.79 185.55 694.345 194.963 695.445C213.204 697.641 231.657 698.019 249.988 697.185C250.483 696.972 250.801 696.562 251.426 696.562L251.502 696.564C251.538 696.564 251.571 696.568 251.606 696.569C251.301 696.368 251.04 696.105 250.846 695.793C219.339 692.336 187.64 689.982 156.328 685.078ZM187.132 646.566C179.564 647.878 171.84 648.569 164.199 647.377C163.684 653.689 161.236 659.82 159.31 665.86C169.867 668.645 176.854 656.954 186.298 654.728C185.763 651.935 185.952 649.001 187.132 646.566ZM109.133 641.739C109.159 641.784 109.172 641.837 109.167 641.9C109.13 649.255 108.383 656.583 107.298 663.862C114.005 656.645 125.232 654.818 134.478 657.819L134.437 657.349C134.2 654.684 133.844 651.956 134.28 649.315L133.856 649.197C129.087 647.883 117.874 645.248 109.133 641.739ZM247.299 364.369C205.994 375.438 162.026 376.132 120.29 366.98C122.371 373.643 123.935 380.428 125.039 387.305C127.405 404.993 133.925 421.708 138.316 438.942C143.383 459.281 144.59 476.407 142.068 497.183L141.991 497.812C136.439 544.402 113.702 586.933 103.02 632.163C115.591 639.782 131.12 642.758 145.534 645.909C154.593 627.255 162.248 608.125 167.264 588.038C185.335 524.992 209.146 465.629 203.857 399.064C202.678 398.291 203.061 396.662 203.709 395.621C203.485 390.819 203.176 386.021 202.668 381.245C202.651 381.084 202.922 381.052 202.955 381.207C203.794 385.298 204.675 389.378 205.411 393.488C210.49 388.328 213.774 381.88 218.239 376.281C218.875 380.461 210.169 396.653 206.339 399.159C214.501 449.213 200.909 495.033 186.228 542.638C176.349 576.819 166.751 611.1 156.559 645.187C156.682 645.188 156.806 645.19 156.93 645.194C156.317 644.067 169.288 644.845 170.354 644.279C179.907 643.376 189.256 641.117 198.548 638.851L199.688 638.556C202.003 637.949 204.691 637.075 205.108 634.604L205.114 634.293C205.116 634.201 205.121 634.127 205.128 634.121L205.062 633.842C205.047 633.779 205.037 633.728 205.039 633.713L204.947 633.576C204.841 633.423 204.741 633.287 204.882 633.443C203.833 632.297 203.738 630.527 204.949 629.433C207.22 546.174 234.075 469.973 244.021 387.645C245.007 379.872 246.21 372.128 247.299 364.369ZM82.7678 380.488C77.9919 386.411 77.1715 394.677 79.0545 401.895C80.0432 405.478 82.0422 408.494 84.1032 411.567C87.7173 416.688 89.4029 422.639 90.3223 428.737L90.3482 428.853C90.7676 430.813 91.0278 436.222 93.8015 435.613C94.53 435.145 94.879 433.09 95.1352 432.016L98.3371 418.928C99.264 415.139 99.8198 410.636 103.104 408.013L103.492 407.766C106.175 406.043 108.791 404.045 109.212 400.689C110.137 396.574 108.418 392.591 107.776 388.592C99.2117 386.636 90.8501 383.875 82.7678 380.488ZM264.541 363.578L264.254 363.719C260.96 365.358 251.131 370.662 248.597 368.625C248.656 380.748 247.684 392.811 246.259 404.836C246.623 404.756 246.999 404.765 247.336 404.888C254.482 402.914 262.246 389.427 262.846 382.496C263.334 376.188 262.079 369.607 264.541 363.578ZM147.052 177.776L146.688 177.295C142.819 172.213 140.648 170.399 133.958 173.11C134.857 174.221 135.281 175.71 134.897 177.251L134.872 177.35C132.761 186.017 121.934 191.04 114.009 186.323C111.24 187.043 108.353 185.056 108.242 182.24C100.4 186.848 96.7764 195.29 95.306 203.768C100.454 201.064 107.376 203.645 109.431 209.024C113.934 218.854 100.81 229.081 92.8075 220.803C91.0735 237.384 90.2596 254.092 87.1009 270.501C89.4419 266.658 95.0233 265.753 98.3515 268.916C109.249 278.305 96.7151 299.636 83.5413 289.467C81.9447 298.601 81.3814 307.865 81.4562 317.105C85.6777 315.482 87.9887 322.764 88.2947 325.846C88.6769 329.555 86.758 337.333 82.2613 337.772L82.6311 343.704C83.2594 353.872 83.8177 364.029 83.678 374.222C83.9041 374.279 84.0967 374.382 84.2578 374.515C84.2696 374.809 84.3087 375.104 84.3648 375.395C84.4202 375.683 84.6041 375.837 84.8209 375.885L84.8283 375.896C84.8185 376.1 84.7785 376.305 84.7017 376.497C92.9555 379.947 101.476 382.794 110.154 385.037C109.941 382.153 109.995 379.278 110.296 376.43C107.014 373.316 111.05 362.011 111.437 357.617C112.953 348.813 114.107 339.955 115.128 331.084C112.082 330.824 110.522 327.65 109.721 325.067C108.677 322.223 108.047 319.186 108.782 316.195C109.528 312.634 113.525 309.232 117.295 310.486L117.532 308.101C119.024 292.993 120.329 277.861 122.563 262.838C115.266 266.901 108.375 258.064 110.137 251.205C110.654 248.293 112.43 245.471 115.052 243.959C117.371 242.629 122.164 241.311 123.684 244.237C124.396 244.328 125.063 244.675 125.568 245.187C127.144 237.039 129.061 228.829 132.112 221.106C122.469 215.061 124.273 199.838 136.965 199.818C154.082 201.281 149.528 226.201 133.02 221.514C127.834 252.701 124.846 284.144 122.194 315.619C124.19 318.865 123.874 323.682 121.135 326.414C119.944 337.8 118.499 349.162 116.601 360.456C129.157 363.249 141.868 365.559 154.717 366.624C155.335 362.658 159.658 360.541 163.394 360.223C165.868 359.957 168.56 360.894 170.923 361.343C173.778 362.434 176.115 364.941 177.158 367.675C189.153 367.748 201.155 366.991 213.038 365.44C211.837 359.475 220.538 354.928 225.835 355.856C227.954 356.115 230.022 356.916 231.611 358.345C233.163 358.674 234.621 360.012 235.006 361.621C239.213 360.622 243.523 359.862 247.587 358.378C251.576 357.073 252.879 353.796 251.846 349.924C240.566 354.432 230.995 336.545 241.758 330.075C243.136 329.057 246.007 328.399 246.815 330.323C246.952 330.347 247.089 330.376 247.225 330.409C246.329 326.728 245.428 323.048 244.527 319.369C239.356 318.876 237.629 311.304 241.924 308.644C240.463 302.54 239.045 296.425 237.715 290.292C230.627 291.75 224.753 282.953 226.253 276.598L226.3 276.407C227.147 272.952 229.723 269.555 233.528 268.982C232.629 263.791 231.826 258.583 231.15 253.358C230.169 252.317 229.73 250.764 230.112 249.39C230.388 239.346 228.347 229.004 229.17 218.817C221.649 227.937 205.978 221.729 209.558 209.695C209.348 198.547 225.231 194.596 230.586 204.452C231.16 202.35 231.897 200.258 232.258 198.09C232.312 197.841 232.698 197.892 232.72 198.125L232.721 198.152C233.52 212.408 232.932 226.757 234.466 240.998C240.197 241.279 242.538 254.915 236.312 255.894C238.666 271.748 242.203 287.396 246.047 302.969C252.725 301.258 255.308 315.579 249.809 317.987C251.409 324.318 253.001 330.649 254.556 336.991L254.586 336.977C255.393 335.593 257.545 335.747 258.929 336.011C263.499 337.691 261.567 345.942 256.591 345.437C259.305 353.586 257.585 361.147 248.529 363.947L248.534 364.206C248.814 363.988 249.155 363.81 249.567 363.695C255.226 362.11 260.511 359.647 265.387 356.455C263.952 332.926 257.124 310.117 251.599 287.293C245.249 286.284 243.224 276.137 248.177 272.401C244.748 257.247 243.761 241.751 242.083 226.362C237.51 225.368 236.354 218.047 240.483 215.805C237.867 196.693 228.015 180.584 209.634 172.391C209.038 175.111 208.049 177.753 206.726 180.225C206.85 180.231 206.969 180.247 207.087 180.266C207.117 180.321 207.155 180.375 207.205 180.427C208.201 181.443 208.839 182.586 209.243 183.81C209.282 184.073 209.326 184.335 209.37 184.598C209.326 184.705 209.276 184.811 209.219 184.916C211.188 192.383 201.958 196.201 195.725 194.53C194.759 194.341 194.128 193.801 193.791 193.118C182.757 199.036 168.356 197.789 158.416 189.964C151.191 193.813 141.888 184.825 147.052 177.776ZM95.2732 345.207C105.831 343.659 109.284 360.581 100.775 365.279C98.0314 366.904 94.2586 367.045 91.5573 365.25C84.3644 360.906 86.3651 346.099 95.2732 345.207ZM135.461 335.082C148.898 335.024 150.048 355.583 138.328 359.284C129.612 361.793 121.074 352.163 125.544 344.133C125.957 339.137 130.292 335.155 135.461 335.082ZM177.33 336.947C178.029 331.637 183.613 326.563 189.233 328.025C194.383 329.319 195.726 335.305 196.639 339.738C198.715 348.916 188.257 358.222 179.444 353.167C173.815 349.819 172.992 341.623 177.33 336.947ZM207.341 305.954C209.224 302.975 213.443 301.662 216.888 302.7C226.335 305.698 225.213 320.745 217.611 325.229C204.552 332.02 194.137 312.497 207.341 305.954ZM145.81 314.745C145.589 305.803 154.876 297.664 163.599 302.746C177.718 312.147 163.259 333.713 149.712 321.626C147.298 320.078 145.871 317.566 145.81 314.745ZM128.244 291.93C121.71 281.819 132.932 266.83 143.643 276.518C147.316 280.264 147.152 287.133 145.025 291.586C141.566 297.535 131.96 297.674 128.244 291.93ZM175.693 272.969C180.793 268.105 189.704 268.054 193.579 274.472C198.172 282.389 192.69 295.934 182.337 295.29C171.58 294.532 168.633 279.508 175.693 272.969ZM148.975 257.16C140.792 248.832 149.677 235.473 160.775 238.69C178.913 245.321 163.172 270.27 148.975 257.16ZM193.643 255.281C186.355 242.072 204.061 230.196 213.071 242.909C219.983 254.424 201.324 267.717 193.643 255.281ZM169.871 217.706C163.564 206.696 174.585 194.463 186.165 200.924C202.642 212.293 181.551 234.157 169.871 217.706Z" fill="black"/>
<path fill-rule="evenodd" clip-rule="evenodd" d="M182.042 60.499C195.499 60.499 209.417 70.9303 214.35 77.5868C218.497 83.1832 220.73 108.49 220.73 125.593C220.73 129.17 222.703 135.912 222.127 139.334C220.017 151.871 210.821 162.386 192.621 162.386C174.42 162.386 161.371 155.171 147.843 135.8C141.279 135.8 138.098 130.766 138.052 122.822C138.006 114.878 144.388 111.987 144.388 111.987C144.388 111.987 142.112 80.6357 147.843 72.4732C153.574 64.3108 168.586 60.499 182.042 60.499Z" fill="#D08B5B"/>
<path fill-rule="evenodd" clip-rule="evenodd" d="M176.38 56.0661C184.876 55.2058 193.202 55.9287 201.575 57.4244C202.215 57.5403 202.577 57.9601 202.712 58.4647C206.656 58.6448 210.604 58.9342 214.542 59.1499C215.972 59.2281 216.782 60.6404 216.13 61.9158C216 62.1691 215.865 62.4156 215.727 62.6621L215.9 62.6052C217.085 62.2251 218.365 62.0377 219.519 62.641C220.989 63.4089 221.565 65.1033 221.24 66.6629C221.157 67.061 221.017 67.4426 220.858 67.815C221.181 67.7936 221.505 67.8007 221.828 67.8434C223.544 68.0709 224.819 69.3863 224.909 71.1378C225.041 73.7826 223.337 76.4658 221.33 78.3593C221.621 78.9592 221.733 79.6655 221.612 80.3812C221.37 81.7962 220.328 82.6435 219.12 83.1962C219.623 84.7963 219.862 86.4691 219.721 88.1786C219.674 88.7494 219.175 89.2208 218.648 89.3364C220.612 94.7436 221.606 100.549 222.321 106.206C222.83 110.23 223.081 114.278 223.112 118.333C223.127 120.164 223.097 121.997 223.02 123.828L222.989 124.515C222.894 126.494 222.889 128.572 222.534 130.53C223.747 132.594 224.236 135.157 224.442 137.47C224.698 140.333 224.292 143.286 223.389 146.009C219.981 156.3 209.696 162.794 199.366 164.482C189.803 166.044 178.738 163.941 173.15 155.255C173.063 155.117 173.25 155.004 173.359 155.094C177.357 158.345 181.994 159.796 187.033 160.502C195.745 161.721 205.537 159.654 212.528 154.174C215.884 151.544 218.303 147.713 219.368 143.592C219.91 141.485 220.098 139.287 219.884 137.119C219.666 134.92 218.692 133.042 218.079 130.964C217.872 130.262 218.09 129.61 218.519 129.146C218.64 127.458 218.925 125.757 219.033 124.074C219.154 122.161 219.228 120.248 219.254 118.333C219.304 114.361 219.138 110.382 218.804 106.426C218.192 99.183 216.569 92.1156 215.616 84.934C215.263 85.2504 214.758 85.3803 214.228 85.1039L214.173 85.0738L213.884 84.9081C213.867 84.9081 213.848 84.9105 213.831 84.9126C211.853 85.1048 209.801 84.8299 207.905 84.2395C205.921 83.6235 204.08 82.6755 202.435 81.4122C202.122 82.9976 201.992 84.5998 201.989 86.2162C201.987 87.2259 200.918 87.7499 200.07 87.3185C196.309 85.408 192.716 83.2064 189.306 80.732C188.907 82.7727 188.51 84.8131 188.109 86.8561C187.955 87.6432 186.952 87.9608 186.31 87.5863C183.756 86.1001 181.549 84.1544 179.753 81.841C179.394 82.5269 179.034 83.2127 178.672 83.897L178.127 84.9221C177.589 85.9294 176.869 87.0436 175.691 87.3657C174.444 87.707 173.404 86.899 172.984 85.7706C172.856 85.4201 172.738 85.0596 172.629 84.697C171.567 87.1218 170.368 89.4919 169.012 91.753C166.979 95.1444 164.538 98.1662 162.104 101.266C161.365 102.207 160.099 101.309 159.997 100.394C159.938 99.8564 159.888 99.316 159.846 98.7777C158.427 101.64 156.948 104.475 155.335 107.228L155.566 108.133C156.231 110.806 156.784 113.498 157.384 116.185C157.578 117.052 157.118 118.292 156.105 118.439C154.895 118.616 153.75 119.234 152.51 118.809C151.159 118.345 150.892 117.176 150.254 116.069C150.126 115.848 149.978 115.646 149.819 115.453L149.779 115.506C149.679 115.636 149.442 115.494 149.501 115.345L149.571 115.172C149.023 114.591 148.367 114.105 147.763 113.583C146.33 113.342 144.718 113.606 143.73 114.188C141.481 115.515 140.448 118.25 140.427 120.765C140.401 123.709 141.313 127.018 142.853 129.535C143.531 130.642 144.46 131.642 145.688 132.132C146.906 132.62 148.226 132.469 149.466 132.928C150.286 133.234 150.79 134.145 150.295 134.969C150.262 135.026 150.224 135.078 150.188 135.133L150.557 135.622C150.81 135.961 151.075 136.324 151.321 136.702C151.952 137.427 152.615 138.126 153.257 138.84C154.445 140.155 155.597 141.506 156.765 142.84C157.867 144.099 159.033 145.281 160.234 146.445C161.37 147.548 162.787 148.474 163.83 149.65C164.844 150.797 165.119 152.799 163.45 153.463C161.604 154.2 159.97 152.474 158.727 151.324L158.675 151.275C156.397 149.179 154.34 146.783 152.706 144.146C151.088 145.247 148.748 145.353 147.137 144.251C146.289 143.672 145.638 142.698 145.322 141.638C145.024 141.705 144.726 141.744 144.435 141.74C144.286 141.827 144.136 141.911 143.984 141.99C142.782 142.615 141.306 142.336 140.756 141.006C140.256 139.799 140.772 138.427 141.223 137.264L141.316 137.024C141.572 136.361 141.854 135.638 142.204 134.958C141.228 134.223 140.394 133.31 139.688 132.272C137.315 128.776 136.13 123.664 136.654 119.493C136.969 116.976 138.152 114.368 140.088 112.671L140.017 112.486C139.474 111.11 138.981 109.728 138.661 108.273C138.287 106.571 138.104 104.807 137.939 103.075C137.588 99.4155 137.683 95.6731 138.149 92.0279C139.026 85.1665 141.249 78.4306 145.195 72.7211C144.076 71.3817 143.19 69.8056 143.652 67.9927C143.863 67.1606 144.344 66.3716 145.07 65.8949C145.47 65.6321 145.946 65.5918 146.347 65.3738L146.467 65.3074C146.643 65.2048 146.509 65.2157 146.404 64.7386C145.989 62.8328 146.333 60.9914 148.43 60.3586C150.404 59.7637 152.272 61.027 153.44 62.532C156.497 60.3631 160.526 59.2281 164.069 58.2635C168.098 57.1706 172.231 56.4883 176.38 56.0661ZM143.358 119.988C143.344 118.435 144.816 117.478 146.264 117.732C147.236 117.901 148.047 118.481 148.809 119.081L149.181 119.375C150.108 120.103 151.173 120.889 151.726 121.92C152.537 123.441 150.823 125.489 149.224 124.422C148.126 123.687 147.423 122.508 146.703 121.414L146.629 121.301C146.302 120.81 146.015 120.289 145.567 119.895L145.47 119.811C145.323 119.685 145.165 119.57 144.974 119.516C144.607 119.411 143.928 119.558 143.766 119.995L143.751 120.04C143.692 120.261 143.361 120.213 143.358 119.988Z" fill="black"/>
<path fill-rule="evenodd" clip-rule="evenodd" d="M181.852 145.333C183.775 140.838 187.971 137.534 192.803 136.326C196.351 135.441 200.075 135.469 203.692 135.82C205.587 136.003 207.619 136.153 209.405 136.855C210.93 137.455 212.173 138.589 213.108 139.921C214.22 141.498 214.977 143.304 215.508 145.154C215.583 145.417 215.654 145.682 215.72 145.949C215.489 147.345 214.999 148.534 213.703 149.412C212.438 150.269 210.929 150.619 209.425 150.744C209.278 150.673 209.135 150.601 209.005 150.526C206.661 149.187 205.011 146.022 202.052 146.451C199.412 146.833 197.674 150.148 196.104 152.093C191.064 152.679 186.028 151.167 181.927 148.291C181.719 147.307 181.707 146.314 181.852 145.333ZM219.146 141.923C218.743 140.794 218.235 139.7 217.633 138.67C215.643 135.263 212.588 132.548 208.962 130.997C200.383 127.331 189.283 129.915 182.355 135.927C179.989 137.982 177.596 141.002 176.872 144.251C176.656 144.294 176.452 144.406 176.285 144.564C171.279 141.419 166.125 138.393 162.091 134.034C159.162 130.866 157.125 127.118 155.877 122.999C155.775 122.66 155.227 122.709 155.244 123.084C155.249 123.172 155.254 123.26 155.258 123.347C155.206 123.186 154.959 123.269 154.94 123.426C154.269 128.43 153.43 133.735 154.203 138.765C154.665 141.766 156.031 143.963 157.858 146.336C159.814 148.879 162.03 151.245 164.295 153.513C165.732 154.953 167.233 156.614 168.993 157.67C171.04 158.897 173.362 159.829 175.546 160.776C177.769 161.741 180.024 162.633 182.322 163.407C186.916 164.959 191.665 166.031 196.496 166.501C200.364 166.876 204.785 167.284 208.492 165.832C211.333 164.719 213.627 162.707 215.446 160.287C217.426 157.651 218.992 154.648 219.857 151.482C220.757 148.193 219.335 142.453 219.146 141.923Z" fill="black"/>
<path fill-rule="evenodd" clip-rule="evenodd" d="M197.255 143.848C195.659 143.198 194.235 142.114 193.193 140.729C192.831 140.247 192.737 139.739 192.813 139.274C192.899 138.751 193.208 138.277 193.631 137.959C194.055 137.64 194.586 137.483 195.099 137.563C195.544 137.633 195.988 137.876 196.339 138.381L196.412 138.482C197.031 139.318 197.838 140.004 198.757 140.446C199.643 140.872 200.634 141.071 201.66 140.955C203.613 140.735 204.959 139.681 206.39 138.25C206.567 138.069 206.745 137.882 206.923 137.693C207.036 137.521 207.192 137.411 207.365 137.353C207.558 137.289 207.776 137.292 207.976 137.362C208.168 137.429 208.34 137.556 208.456 137.725C208.565 137.886 208.628 138.085 208.607 138.313C208.476 139.796 207.699 141.12 206.595 142.16C205.369 143.314 203.744 144.113 202.214 144.393C200.528 144.702 198.811 144.481 197.255 143.848ZM203.009 120.962C204.803 122.05 207.535 124.587 205.606 127.284C203.335 129.662 200.065 126.935 198.454 125.702C196.96 124.746 195.282 127.204 196.668 128.32C208.31 136.923 213.035 121.247 203.916 119.683C202.912 119.511 202.539 120.626 203.009 120.962ZM182.146 110.955C182.344 108.501 186.09 107.943 186.462 110.372C186.796 112.548 186.403 114.547 185.421 116.506C184.483 118.377 182.124 117.504 181.946 115.8C181.707 113.516 182.022 112.482 182.146 110.955ZM210.66 109.869C211.182 109.186 211.936 108.72 212.839 108.983C215.662 109.806 214.83 113.806 213.839 115.752C213.3 116.809 211.559 117.077 210.772 116.146C209.49 114.629 208.876 111.598 210.506 110.102C210.55 110.025 210.599 109.947 210.66 109.869ZM185.381 100.215L185.827 100.137C187.207 99.8989 188.922 99.6701 189.897 100.777C190.415 101.364 190.593 102.454 189.897 103.016C188.674 104.004 187.321 103.621 185.855 103.705C184.646 103.774 183.485 103.974 182.321 104.306C179.768 105.034 177.687 106.364 175.506 107.824C175.22 108.015 174.928 107.65 175.064 107.383C176.323 104.922 178.763 102.901 181.207 101.668C182.511 101.011 183.938 100.465 185.381 100.215ZM208.086 99.1125L208.428 99.1822C212.141 99.9569 216.966 101.504 218.725 105.145C218.792 105.66 218.721 105.77 218.664 105.842L218.644 105.866C218.597 105.927 218.559 106.012 218.336 106.082C218.273 106.068 218.211 106.052 218.148 106.035C217.341 105.825 216.704 105.534 216.086 105.233L215.417 104.904C214.64 104.524 213.856 104.157 213.026 103.887C211.254 103.31 209.431 102.904 207.58 102.687C207.179 102.64 206.792 102.505 206.488 102.273C206.198 102.053 205.977 101.749 205.876 101.344C205.746 100.821 205.783 100.424 206.065 99.9519C206.277 99.5972 206.579 99.3514 206.927 99.2102C207.282 99.0662 207.685 99.0323 208.086 99.1125Z" fill="black"/>
</svg>
