<svg width="391" height="780" viewBox="0 0 391 780" fill="none" xmlns="http://www.w3.org/2000/svg">
<path fill-rule="evenodd" clip-rule="evenodd" d="M270.006 388.609C276.261 388.749 273.579 330.39 269.402 319.637C268.817 317.457 268.334 314.479 268.432 311.805C273.597 312.321 273.041 308.786 272.775 304.522C272.862 301.137 273.098 294.152 267.916 296.872C252.383 265.773 269.178 185.384 228.28 177.813C223.352 176.616 218.258 175.377 214.109 171.96C209.718 163.845 207.482 162.808 200.207 162.283C198.86 154.973 196.342 147.163 188.838 144.318C181.967 141.626 173.971 141.411 166.808 142.848C160.878 144.782 160.336 155.803 159.019 161.237C151.033 159.12 141.191 154.666 136.891 164.763C134.809 164.14 132.879 164.544 130.763 165.237C113.028 168.095 95.8202 176.118 89.2422 192.859C85.1788 202.905 88.0625 213.841 89.5864 224.245C91.0076 235.575 87.26 246.071 85.5227 256.968C82.9361 271.974 82.4683 284.011 84.1563 295.164C79.6947 296.179 79.3657 300.237 81.1707 304.484C81.7008 305.921 82.2347 307.436 83.4068 308.248C85.7912 309.749 88.8728 308.019 91.4641 307.755C92.0031 313.747 93.0468 319.627 94.7736 326.309C94.2735 328.31 93.6999 330.543 93.1848 332.552L93.011 332.363C87.0951 357.143 69.5005 381.214 74.9689 407.55C75.2905 408.427 75.9007 408.244 76.3692 408.229C79.0837 409.261 81.5772 408.606 84.3146 408.711C90.8077 408.716 97.0809 409.548 102.9 410.271C103.964 417.221 107.423 428.598 113.59 431.247C113.694 431.283 115.522 430.901 115.675 430.89C99.256 497.466 69.7136 559.028 57.9788 626.946C57.9092 627.775 59.2578 627.336 59.7003 627.437C59.6397 629.322 60.8574 629.775 62.5625 630.445C60.3653 635.039 58.386 639.627 56.1986 644.232C55.1843 646.511 53.5314 648.763 53.2301 651.2C50.8086 652.748 49.1776 655.773 49.2208 658.596C42.6908 661.356 44.4656 674.989 42.9759 681.741C41.4694 691.8 34.3041 698.824 29.391 707.072C28.3898 708.727 27.3236 710.896 27.2763 712.976C24.2306 714.404 23.0949 717.523 23.2965 722.773C23.2856 728.915 25.0182 731.254 29.6901 731.403C42.3799 732.671 57.1878 732.154 69.9512 730.712C79.4991 729.498 87.96 730.505 85.8252 719.033C85.3859 716.255 86.2297 712.516 84.586 710.268C83.5724 703.577 84.1621 696.832 86.3475 690.222C87.6762 684.656 89.9208 673.159 88.9907 665.689C88.5605 662.234 81.508 660.333 80.2666 660.165C80.6615 657.564 80.4877 653.019 79.0884 651.212C81.6579 650.854 82.3037 650.174 82.8389 647.321C84.1177 642.699 84.2879 637.681 87.4548 633.787C93.1506 633.86 98.8273 632.414 104.52 632.239L104.803 631.585C108.17 631.542 111.519 630.947 114.714 629.781C115.423 630.116 116.33 630.403 116.728 629.331L118.629 623.386C140.759 552.959 165.29 482.363 189.208 412.452C190.604 409.053 192.283 405.441 194.467 402.412C195.206 445.187 204.167 487.917 204.937 530.672C205.976 560.084 205.709 589.188 208.475 618.705C209.187 624.952 209.944 624.744 210.877 624.361C211.251 624.419 212.13 624.607 212.511 624.687C211.888 630.895 211.17 640.971 208.508 647.321C202.624 648.229 203.677 652.744 204.983 656.486C203.579 657.685 203.778 660.48 204.195 662.027C198.658 662.033 197.451 666.536 197.832 669.378C198.359 674.131 198.064 681.527 201.235 685.586C203.103 690.761 206.143 695.646 207.33 701.222C208.077 705.325 207.788 711.302 208.508 715.372C206.697 716.208 207.465 717.519 207.159 720.056C205.592 731.669 211.109 729.695 220.863 730.494C226.71 731.785 271.221 734.355 269.298 726.628C269.626 723.482 268.162 722.101 267.536 719.003C267.254 718.18 261.709 708.666 258.401 705.063C247.308 694.64 247.792 680.646 248.144 664.527C247.491 660.159 244.13 655.975 239.842 656.445C241.073 651.779 238.791 647.722 234.022 646.373C234.498 641.09 235 633.912 236.744 629.342L235.101 627.67L237.3 627.933L238.03 626.095L238.826 628.109C242.601 628.109 246.86 627.271 250.476 626.878C251.053 626.91 250.795 626.126 250.89 625.823C254.305 625.116 254.679 623.302 254.075 618.978C254.871 548.783 254.525 479.247 253.438 408.922C258.775 409.16 263.978 407.214 269.223 405.917C271.086 407.086 271.614 402.922 271.396 402.023C271.1 397.371 270.524 392.832 270.006 388.609Z" fill="#D08B5B"/>
<path fill-rule="evenodd" clip-rule="evenodd" d="M93.9484 325.139C95.045 329.008 96.272 334.742 97.5575 338.561C99.8682 349.145 101.602 359.891 102.736 370.664C103.116 374.266 103.413 377.868 103.849 381.452C103.406 383.784 104.316 390.409 103.783 392.725C94.5436 394.44 81.6351 401.749 74.2289 407.582C71.8464 388.006 82.7789 366.082 87.4566 347.592C87.767 346.404 88.0763 345.204 88.3728 343.995C89.7098 340.236 92.3288 330.782 93.2563 327.001L93.3812 326.485L93.555 326.674L93.9484 325.139ZM213.446 171.353C214.485 172.005 215.566 172.556 216.676 173.033C225.311 177.998 240.47 178.149 245.689 187.87C259.171 215.905 259.591 263.345 267.176 296.736C267.594 298.578 271.501 296.608 271.926 298.396C272.98 302.832 271.881 307.097 273.113 311.116C268.304 312.355 255.824 313.168 251.027 314.435C252.214 318.541 265.026 351.782 270.11 399.167C268.269 398.754 266.472 398.155 264.714 397.468L264.039 397.176C254.148 392.873 238.603 386.18 227.87 384.454C221.072 343.077 214.86 299.117 214.085 256.86L214.052 254.909C213.823 242.409 212.29 230.021 210.365 217.686L210.259 216.818C209.216 208.228 208.329 199.28 210.351 190.797C211.005 190.997 209.131 186.431 208.279 180.602C207.751 176.991 209.214 172.817 207.091 169.225C204.144 164.237 200.133 170.615 200.441 169.225C200.596 168.526 196.548 160.037 198.067 160.93C199.723 161.903 205.904 161.878 208.279 164.248C213.468 169.427 214.414 173.366 213.526 171.519L213.446 171.353ZM125.169 167.37C127.328 166.949 133.594 164.838 135.844 164.959C134.525 167.775 137.744 155.241 147.956 158.086C148.403 158.21 158.924 159.813 158.88 161.878C158.852 163.262 147.278 164.898 146.293 166.618C145.137 168.639 147.106 174.718 146.293 176.809C143.853 183.093 145.006 184.831 145.742 184.16C146.324 185.06 146.405 186.34 146.523 187.534L146.656 188.828C148.801 209.258 153.251 229.377 154.873 249.868C157.217 272.794 152.148 295.428 150.516 318.2C149.183 338.716 150.986 360.699 150.258 381.213C150.159 382.352 149.805 383.894 149.087 384.897L149.016 384.992L149.009 384.995L148.725 385.051C143.518 386.102 135.748 389.377 130.39 389.347C125.39 379.636 119.972 354.8 121.595 337.976C122.801 325.469 124.444 309.298 124.444 306.217C124.444 300.644 92.1459 309.298 82.6463 308.113C79.5206 307.723 79.3724 304.161 79.0274 298.364C78.929 296.71 82.6001 295.965 82.6463 294.129C82.9807 280.838 82.9469 263.074 83.106 262.029C84.4535 251.625 87.9118 241.524 88.378 231.015C88.5334 220.406 84.1141 210.042 85.8989 199.404C88.4954 183.911 102.323 173.159 116.656 169.221C119.456 168.367 122.305 167.926 125.169 167.37Z" fill="#9FD8E5"/>
<path fill-rule="evenodd" clip-rule="evenodd" d="M144.786 181.853L144.828 182.175L144.868 182.497C146.012 191.741 153.212 245.968 154.053 255.242C155.73 273.732 151.423 294.518 151.28 313.09C151.243 317.892 152.409 352.518 151.395 354.656C151.092 355.296 146.932 362.538 154.843 360.492C172.712 355.869 213.219 338.68 222.072 338.463C220.744 338.252 219.991 337.186 219.816 335.828C219.649 334.531 216.492 304.994 215.185 274.24C213.747 240.381 208.448 181.345 208.278 180.601C204.964 182.348 200.441 205.013 187.379 205.013C174.317 205.013 157.218 189.37 147.481 173.728C145.477 170.509 145.527 182.201 144.786 181.853Z" fill="#8FA7DF"/>
<path fill-rule="evenodd" clip-rule="evenodd" d="M236.292 648.689L236.496 648.799L236.546 648.83C237.596 649.493 238.306 650.649 239.3 652.825L239.855 654.07L240.806 654.328C244.468 655.319 247.197 657.71 249.664 663.294L249.738 663.464L249.814 663.638C250.643 665.567 250.957 667.7 250.881 670.215L250.875 670.404L250.864 670.672C250.797 672.174 250.649 673.412 250.244 676.036L249.949 677.921L249.864 678.47C249.355 681.809 249.177 683.68 249.227 685.788C249.266 687.443 249.478 688.962 249.889 690.394C251.562 696.222 254.839 702.298 259.061 708.135C260.521 710.153 267.161 721.407 267.219 721.642L267.335 722.116L267.445 722.576C267.463 722.651 267.48 722.726 267.498 722.8L267.635 723.389L267.719 723.762C268.008 725.05 268.22 726.148 268.351 727.068L268.368 727.193C268.604 728.923 268.595 729.948 268.012 730.776L267.973 730.829L267.877 730.959L267.759 731.069L267.687 731.134L267.613 731.197L267.392 731.379L267.126 731.482C266.188 731.848 262.928 732.771 259.504 733.495C253.948 734.67 248.173 735.358 242.466 735.323C240.793 735.313 239.053 735.25 237.249 735.139C232.377 734.838 227.227 734.198 221.775 733.292L220.827 733.131L219.826 732.956C216.281 732.323 211.188 731.328 210.271 731.161L210.184 731.145L210.148 731.144C208.046 731.079 206.697 729.67 206.187 727.536L206.165 727.442L206.145 727.349C205.805 725.747 205.889 723.707 206.298 721.42C206.641 719.508 207.457 708.724 207.457 708.724L204.397 698.544C204.397 698.544 197.935 669.244 198.955 665.315L198.978 665.23C199.115 664.744 204.885 661.273 205.191 660.547C205.502 659.809 204.758 651.307 205.07 650.437L205.101 650.357L205.13 650.285L205.143 650.256C205.463 649.536 208.509 646.497 216.828 646.089C219.983 645.934 226.14 645.483 230.128 646.089C233.843 646.654 235.477 648.257 236.292 648.689ZM75.1091 654.131L75.5184 654.226L75.6042 654.178C76.3265 653.779 76.9495 653.567 77.7369 653.606C78.7881 653.657 79.7231 654.207 80.489 655.187C80.9406 655.765 80.737 660.5 80.7322 660.727L80.7313 660.785L80.731 660.893L80.7313 660.924L80.7517 660.939C81.0615 661.147 81.7266 661.278 83.0423 661.352L83.3416 661.368L83.967 661.396C85.048 661.448 85.6036 661.5 86.2441 661.635L86.3107 661.65C87.4859 661.906 88.4201 662.404 89.0694 663.286C90.1075 664.696 90.306 666.67 90.0062 669.194C89.9018 670.073 82.9603 696.043 82.47 698.271C81.728 701.643 83.1491 719.508 83.3039 721.167C83.4902 723.164 83.5234 724.963 83.3651 726.407C83.1382 728.477 82.5509 729.926 81.1782 730.576L81.1039 730.61L80.944 730.681L80.512 730.777L80.2396 730.836C77.4297 731.437 74.7413 731.746 70.2578 732.075L66.8359 732.319L66.0862 732.375C65.0477 732.454 64.2586 732.523 63.4639 732.603L62.7613 732.676L62.7344 732.678C50.915 733.592 36.523 733.683 26.1414 732.784L25.5321 732.73L25.0774 732.715C23.4208 732.651 22.3899 731.535 21.8479 729.864L21.8203 729.777L21.7936 729.689C21.4902 728.67 21.342 727.464 21.2672 725.838L21.2411 725.176C21.2366 725.043 21.2326 724.907 21.2283 724.747L21.1868 723.058L21.1749 722.688C21.1668 722.463 21.1581 722.275 21.1477 722.102L21.1345 721.904L21.087 721.601C20.7673 719.519 39.9119 694.274 40.9577 691.464C42.2324 688.038 44.2971 661.598 45.1877 660.543L45.2169 660.509L47.9257 657.454L48.3204 661.483L48.3232 661.477C48.3877 661.34 48.4359 661.204 48.4646 661.082L48.4772 661.021L48.4865 660.964L48.4902 660.936L48.4949 660.908C48.9736 658.035 50.4906 655.863 52.8641 654.443C54.8578 653.25 57.3887 652.618 60.3832 652.443C64.7395 652.187 69.5755 652.855 75.1091 654.131Z" fill="white"/>
<path fill-rule="evenodd" clip-rule="evenodd" d="M160.416 151.449C161.209 152.075 161.126 153.811 161.204 154.783L161.21 154.847C161.459 157.782 161.121 160.731 160.406 163.58L160.295 164.015C159.953 165.377 159.614 167.01 158.544 167.944C157.328 169.005 155.398 168.318 155.354 166.607C155.332 165.812 155.597 165.046 155.933 164.3C153.579 165.209 151.224 166.107 148.86 166.984C147.349 179.472 164.797 194.762 174.898 200.115C189.608 208.258 201.986 195.786 203.869 181.125C204.185 179.177 204.397 177.176 204.439 175.202L204.441 175.012C204.449 173.38 204.178 171.197 205.242 169.84C204.459 169.821 203.764 169.931 202.997 170.051L203.034 170.115C203.468 170.891 204.082 172.824 202.707 172.971C199.738 172.659 198.357 167.454 197.633 164.957L197.604 164.849C197.137 162.978 196.542 156.188 197.95 155.373C198.383 157.049 198.212 158.868 198.739 160.548C199.936 161.031 202.218 161.161 202.746 161.25C208.916 161.322 212.415 165.751 214.916 170.935C222.247 176.952 232.785 175.918 240.702 180.873C264.927 198.432 257.016 266.79 269.082 295.871C271.498 294.871 273.96 296.873 274.283 299.315C274.616 301.193 274.516 303.205 274.543 305.108L274.555 305.346C274.752 309.238 275.425 313.613 270.168 313.697C270.176 315.87 270.585 317.974 271.11 320.071C274.021 332.768 275.292 345.845 275.578 358.861L275.593 359.817C275.687 366.658 275.771 387.822 271.838 390.326L272.021 391.817C272.477 395.545 272.906 399.283 273.145 403.03C273.523 404.975 272.238 409.635 269.618 408.401C264.811 409.59 260.071 411.344 255.076 411.353C256.287 451.609 255.685 491.906 255.864 532.178C255.478 561.864 257.083 591.795 255.68 621.367L255.731 621.784C256.128 625.105 256.246 627.992 252.408 629.129C252.353 629.942 251.728 630.376 250.986 630.471C248.882 630.754 246.778 631.022 244.672 631.281C242.71 631.427 240.611 631.915 238.656 631.682C238.845 631.873 238.331 631.903 238.276 631.763C236.493 636.237 235.976 641.113 235.534 645.885C239.861 647.534 242.223 651.244 241.517 655.895C245.883 656.071 249.071 660.922 249.683 665.011C250.075 667.832 249.761 670.634 249.635 673.46C249.03 683.119 250.45 693.524 256.686 701.228C260.734 706.064 266.003 710.438 267.769 716.735C268.249 716.959 268.644 717.393 268.816 718.07L269.937 722.467L270.494 724.665C270.902 726.268 271.265 727.908 271.046 729.567L271.023 729.728C269.931 740.237 226.842 735.172 218.432 734.417C215.051 733.887 211.341 734.176 208.298 732.386C204.564 729.922 204.097 724.923 204.738 720.83L204.791 720.446C205.051 718.615 205.431 716.696 207.168 715.672C206.583 711.879 206.809 707.997 206.114 704.219C205.063 698.873 201.885 694.234 200.263 689.101C197.896 686.469 197.816 682.367 197.321 679.002C196.946 675.738 196.639 672.451 196.513 669.167C196.169 664.826 198.054 661.245 202.619 660.678C202.408 659.856 202.988 659.145 203.564 658.618C202.203 653.784 201.827 647.147 207.733 645.498C209.969 639.953 210.619 633.943 211.215 628.029C211.144 628.014 211.074 628.002 211.003 627.989C208.297 629.116 207.563 624.294 207.309 621.748L207.253 621.14C204.469 591.705 204.725 562.097 203.679 532.572L203.577 530.437C202.66 510.983 202.115 491.358 198.75 472.164C195.364 450.771 194.478 429.029 193.321 407.412C191.958 409.53 191.225 411.962 190.121 414.219C175.805 456.275 161.116 498.205 146.963 540.319C136.705 570.81 126.905 601.462 117.075 632.096C116.573 633.664 114.993 633.989 113.837 633.487C110.893 634.508 107.803 635.088 104.694 635.188C104.506 635.619 104.122 635.934 103.559 635.872C101.896 635.69 99.9824 636.21 98.3194 636.404C94.5142 636.78 90.82 637.363 86.9799 637.418C84.601 640.426 84.4515 644.504 83.3546 648.083C82.7233 649.908 82.8224 654 80.6419 654.514C81.4235 655.718 81.5258 657.163 81.3992 658.652C82.0773 658.806 82.7651 659.097 83.4031 659.396C84.0245 659.71 84.8453 659.683 85.2733 660.316C97.4518 662.524 88.5519 685.648 86.435 693.296C84.3573 699.548 83.7067 706.079 84.6549 712.607C86.1041 714.608 85.6188 717.586 85.8406 719.958C85.9573 722.075 86.1715 724.224 86.1523 726.344C85.9156 735.15 75.0442 733.717 68.9107 734.86C65.0809 735.305 61.2335 735.616 57.3864 735.857C47.6294 736.463 37.8176 736.51 28.0805 735.566C21.7937 735.367 20.4418 731.266 20.4518 725.657L20.4422 725.425C20.3005 721.618 20.9144 717.021 24.5302 715.042C24.7104 713.03 25.7309 710.999 26.7727 709.241C31.6177 701.096 38.8918 693.958 40.3226 684.184C41.726 677.785 40.1361 663.699 46.6413 660.363C46.7923 657.482 48.5622 654.545 50.7538 652.987C51.1768 650.587 52.7701 648.381 53.756 646.175C55.7668 641.964 57.6268 637.686 59.6268 633.472C58.5795 633.029 57.4668 632.214 57.3207 631.057C56.3153 631.069 55.3219 630.419 55.4436 629.196C55.7987 625.643 56.5759 622.15 57.3098 618.659L57.4013 618.223C70.4605 555.1 97.4282 496.073 113.206 433.759C111.083 434.143 109.098 431.715 107.925 430.135C104.134 425.031 101.895 418.855 100.91 412.589L99.1279 412.368C93.1852 411.638 87.2129 411 81.2205 411.171L79.7762 411.22C78.1718 411.269 76.5645 411.256 75.0393 410.679C73.9752 410.777 72.8674 410.206 72.6044 409.012C68.1661 386.894 79.0756 365.903 86.8898 345.916C88.7306 341.002 90.0408 336.017 91.2899 330.928C91.331 330.763 91.5891 330.798 91.5821 330.968C91.3386 336.625 89.9359 342.329 88.5112 347.782C83.8336 366.272 74.0885 384.404 76.471 403.98C83.8772 398.147 92.6734 394.096 101.913 392.382C102.446 390.065 103.035 387.766 103.479 385.434C103.043 381.85 102.746 378.248 102.366 374.646C101.231 363.873 99.4979 353.127 97.1872 342.543C93.6025 331.894 90.473 321.1 89.3539 309.872L89.1502 309.912C86.665 310.416 83.9267 311.511 81.621 309.928C80.1576 308.914 79.5243 307.233 78.9331 305.618C77.2441 301.702 76.9317 296.555 81.7108 294.918C79.9292 282.469 81.0868 269.473 83.2402 257.14C84.9643 246.331 88.7469 235.68 87.331 224.614C85.7591 213.98 82.828 202.842 87.0651 192.432C94.0289 175.06 111.663 166.818 129.006 164.165L129.287 164.082C131.432 163.447 133.386 162.778 135.621 163.259C140.894 153.475 149.445 157.455 157.796 159.635C158.36 157.976 158.829 156.279 159.271 154.583C159.547 153.719 159.456 151.726 160.416 151.449ZM208.747 720.419L208.726 720.845C208.505 725.426 208.754 729.351 214.433 729.321C218.341 729.738 222.25 730.144 226.164 730.498L227.633 730.628C239.25 731.664 251.008 732.171 262.603 730.615L263.087 730.549C264.056 730.411 265.85 730.438 266.617 729.722C267.542 728.478 266.471 726.105 266.247 724.66C248.154 724.45 230.037 723.782 211.932 724.013C210.028 724.023 209.169 722.395 209.344 720.913C209.13 720.768 208.928 720.601 208.747 720.419ZM25.0498 718.122C24.1601 721.25 24.3792 724.206 24.8818 727.338C25.1331 730.619 26.6936 730.829 29.5175 730.906C40.5419 731.923 51.6459 731.71 62.6732 730.857C68.5837 730.22 74.6572 730.244 80.4576 728.936C83.2248 727.71 81.6273 723.854 81.7215 721.489C68.6949 729.884 48.9941 728.818 34.7891 723.961L34.5614 723.864C31.2013 722.453 26.9058 721.564 25.0498 718.122ZM46.627 661.638C45.1294 663.327 45.0983 668.139 45.0354 669.776L45.0275 669.959C44.8593 673.399 44.8861 676.845 44.7371 680.284C44.8469 694.768 36.4833 701.991 30.2722 713.636C28.5734 716.462 31.0448 716.863 33.055 717.779C46.0721 723.837 61.4695 724.763 75.0685 720.125C81.9042 718.139 80.4119 713.539 79.8314 707.912C79.2599 696.414 85.3101 686.055 87.0998 674.932L87.148 674.644C87.6815 671.379 88.6036 663.01 83.4009 664.799C82.269 665.496 81.2047 664.622 81.071 663.554C80.9361 663.576 80.7978 663.588 80.6644 663.59C80.0627 667.308 79.4394 671.02 78.8407 674.738C79.3444 675.058 79.8168 675.42 80.2356 675.833C80.7445 676.338 80.389 677.397 79.622 677.333C79.2278 677.298 78.8382 677.239 78.4508 677.165C78.1438 680.397 73.0116 678.584 74.4942 675.993C67.115 673.444 58.9855 673.647 51.4919 675.602L51.4609 675.615C50.8808 675.846 46.7094 676.682 48.0514 677.333C48.6107 677.4 47.3373 678.132 47.114 677C47.0419 675.579 50.2842 674.882 51.2776 674.292C48.7721 670.706 47.0602 666.059 46.627 661.638ZM235.671 650.284C228.719 646.52 220.177 647.917 212.637 648.583L212.32 648.619C210.402 648.825 207.727 648.953 206.846 650.929C205.571 654.095 207.685 661.179 208.349 664.701L208.575 665.624C209.126 667.879 209.648 670.115 209.837 672.446C209.842 672.52 209.771 672.571 209.705 672.571C207.064 669.75 205.877 665.955 204.643 662.335C204.117 662.635 203.603 662.96 203.119 663.317C201.226 669.822 200.592 676.748 202.091 683.384L202.145 683.618C203.996 691.818 209.761 698.525 210.309 707.094C210.675 710.559 210.593 714.109 211.59 717.474C212.157 717.599 212.651 718.017 212.873 718.542L216.123 718.546C231.83 718.573 247.541 718.715 263.238 719.362C262.732 714.948 258.836 711.031 256.092 708.005C247.672 699.382 244.03 686.994 245.418 675.055C246.147 669.083 249.48 659.699 241.327 657.492C240.732 662.36 239.927 667.212 239.482 672.099C241.02 672.841 240.925 674.798 239.045 674.76C238.202 677.599 235.373 676.451 235.678 673.773C225.331 669.951 219.394 668.67 209.313 674.428C209.031 674.386 210.088 673.255 210.221 673.054C213.407 669.619 218.3 668.004 222.89 667.946C227.44 667.945 231.72 669.66 236.012 670.986C236.657 666.375 237.091 661.735 237.603 657.108L237.714 656.116C237.982 653.686 237.884 651.68 235.671 650.284ZM69.3782 709.835C70.8927 709.498 72.2857 708.986 73.8243 709.333C79.2394 713.401 57.113 714.548 55.2291 714.259C50.4332 714.118 45.6351 713.509 41.0195 712.154L40.6978 712.058C40.2432 711.931 35.6425 710.65 36.5149 710.078C42.7577 710.632 48.8695 711.778 55.2291 711.479C58.4018 711.413 61.5866 711.189 64.7251 710.711C66.2859 710.472 67.8393 710.182 69.3782 709.835ZM215.666 704.795C214.675 703.309 219.508 705.282 220.136 705.3C224.139 706.287 228.212 707.035 232.323 707.346C235.079 707.555 237.865 707.599 240.626 707.464C242.671 707.393 244.693 707.091 246.725 706.883L246.798 706.879C248.006 706.837 250.424 707.586 248.934 709.023C246.615 710.821 243.185 710.273 240.406 710.537C231.969 710.509 223.034 709.151 215.666 704.795ZM57.0314 693.995C59.4639 693.554 72.8535 693.41 71.5187 697.52C71.1949 698.301 70.4547 698.559 69.6755 698.436C61.3889 696.42 52.45 695.366 44.1896 698.146C44.0557 698.192 43.9632 697.973 44.0947 697.914C48.1561 695.879 52.5018 694.456 57.0314 693.995ZM230.828 689.977C233.014 689.811 235.213 689.87 237.4 690.034L238.296 690.104C239.218 690.178 240.161 690.274 241.042 690.542L241.218 690.598C242.419 690.985 245.125 693.049 243.071 694.042C240.865 694.756 238.999 693.906 236.871 693.359C230.939 691.954 224.704 692.43 218.827 693.867L219.654 694.133C219.705 694.096 219.771 694.182 219.722 694.224C219.128 694.743 218.313 694.559 217.892 693.914C217.818 693.803 217.865 693.626 217.981 693.564C221.965 691.474 226.357 690.317 230.828 689.977ZM46.0722 689.453C52.7715 686.487 60.5334 686.159 67.718 687.019L68.2299 687.082C70.4713 687.345 73.3948 687.465 74.6771 689.554C75.1203 690.277 74.6625 691.107 73.9467 691.368C71.8383 692.139 69.3594 690.595 67.3338 690.021C61.3435 688.381 54.9463 688.208 48.8553 689.342C48.8979 689.567 47.8891 689.469 47.6695 689.549C47.3941 689.533 45.567 690.138 46.0722 689.453ZM215.013 684.822C220.857 681.979 227.615 681.301 233.924 682.769L234.187 682.844C236.982 683.629 241.484 684.555 242.485 687.515C242.702 688.182 242.232 689.083 241.528 689.219C239.144 689.674 236.98 687.934 234.823 687.097C228.476 684.711 221.291 684.14 214.728 685.895C214.684 686.154 214.64 686.41 214.594 686.668C214.706 686.595 214.823 686.759 214.733 686.851C213.685 687.584 212.596 685.732 215.013 684.822ZM61.1311 679.824C65.86 679.51 70.6287 680.111 75.1939 681.359L76.0524 681.595C77.3002 681.945 78.9164 682.496 79.098 683.845C79.1686 684.381 79.0347 684.751 78.5988 685.083C77.0096 686.272 73.553 683.781 71.5769 683.488C64.403 681.332 56.7025 681.363 49.4356 683.012L49.188 683.069L49.3633 684.317C49.5354 684.914 47.9384 683.507 48.5452 682.867C52.3813 680.913 56.8576 680.176 61.1311 679.824ZM219.471 677.594C223.267 676.909 227.182 676.778 231.019 677.123L231.473 677.165C233.764 677.368 241.189 677.663 239.433 681.537C239.138 682.185 238.283 682.269 237.73 681.988C235.875 681.048 233.847 680.708 231.799 680.398C224.569 679.391 217.182 679.804 210.124 681.752C210.277 681.993 209.961 682.278 209.661 682.335C208.916 682.473 208.916 681.584 209.235 681.112C209.615 680.553 210.372 680.348 210.957 680.102C213.675 678.917 216.557 678.117 219.471 677.594ZM75.7242 656.035L75.292 655.932C68.0491 654.228 51.9914 651.171 50.3284 661.151C49.7382 665.546 51.6851 669.834 51.5412 674.187C59.0516 671.131 67.3567 671.163 75.1596 673.182C75.8508 668.664 76.5107 664.142 77.2168 659.627L77.3309 659.087C77.6453 657.564 77.752 656.373 75.7242 656.035ZM59.5922 657.852C61.1705 656.498 63.8026 656.517 65.3507 657.995C66.7666 658.292 67.7651 659.795 67.788 661.084C69.9407 664.869 67.3449 670.098 63.235 671.043C53.9547 672.999 49.8062 660.248 59.5922 657.852ZM220.377 651.813C228.142 650.425 230.963 660.279 224.59 664.275C215.587 668.792 209.589 654.59 220.377 651.813ZM63.4342 629.927C63.5486 630.68 63.178 631.216 62.7354 631.724C61.1435 638.252 58.7476 644.327 56.3852 650.585C64.0704 649.31 71.3315 650.422 78.1313 652.51C78.2127 650.6 79.0826 648.621 79.687 646.82C80.8637 643.402 82.2863 640.072 83.9271 636.855L84.1333 636.453C84.7225 635.309 85.2899 634.112 85.986 633.017C78.4644 631.989 70.9429 631.064 63.4342 629.927ZM214.918 628.536L214.718 629.444C213.854 633.384 213.035 637.362 211.75 641.19L211.733 641.269C211.536 642.235 211.094 646.708 210.815 643.551C210.601 644.026 210.372 644.496 210.128 644.959L211.991 644.737C218.937 643.921 226.184 643.271 232.997 645.016C232.29 639.537 233.331 634.302 234.85 629.122C228.191 628.969 221.591 629.018 214.918 628.536ZM88.8182 635.346C88.5748 635.575 88.3364 635.809 88.1097 636.052C88.4167 635.974 88.7235 635.897 89.0082 635.831C88.9965 635.651 88.8694 635.516 88.8182 635.346ZM238.875 630.321L238.658 630.83C238.77 630.764 238.895 630.7 239.028 630.643C238.967 630.545 238.916 630.439 238.875 630.321ZM59.3206 629.203C59.242 629.495 59.1818 629.816 59.0404 630.082C59.1524 630.102 59.2668 630.124 59.3815 630.148C59.52 629.868 59.6664 629.594 59.8244 629.326C59.6564 629.287 59.4884 629.247 59.3206 629.203ZM117.238 306.112C116.556 306.442 115.845 306.526 114.905 306.565C107.269 306.882 99.6568 307.767 92.1583 309.276C92.5722 315.344 94.4179 321.223 96.1742 327.009L96.5384 328.277C102.473 349.006 107.653 370.668 106.609 392.35C106.668 392.372 106.724 392.401 106.778 392.428C106.683 392.694 106.615 392.966 106.519 393.229L106.458 393.386L106.102 394.271C105.905 394.763 105.714 395.256 105.548 395.762C105.256 395.867 104.898 395.944 104.557 395.993C102.824 407.472 104.471 420.343 112.278 429.32C109.495 423.716 108.524 417.349 108.647 411.124L108.669 410.172C108.701 408.996 108.771 407.824 109.129 406.707C109.144 406.648 109.222 406.658 109.242 406.707C110.894 411.814 111.002 417.361 112.626 422.505L112.75 422.9C114.034 426.931 116.179 432.121 119.904 434.204C120.59 434.408 121.644 434.167 122.001 434.957L122.025 435.014L122.046 435.007C120.384 429.558 119.313 423.924 118.946 418.235L118.922 417.847C118.806 415.863 118.548 413.736 119.042 411.798C119.984 413.57 119.75 416.464 120.189 418.608L120.206 418.73C120.552 421.047 123.887 438.757 126.076 436.39C126.529 435.738 126.411 434.476 126.425 433.699L126.427 433.623C126.461 432.501 126.449 431.378 126.41 430.255C126.174 423.642 125.146 416.855 127.16 410.413C127.496 409.327 129.322 409.122 129.544 410.413C130.43 415.573 131.277 420.738 132.124 425.903C132.742 429.057 132.716 432.616 134.593 435.337C134.615 429.396 134.286 423.473 134.001 417.54L133.925 417.293C133.7 416.544 133.478 415.572 133.994 414.935C134.201 413.581 136.179 413.736 136.346 415.154C136.383 415.45 136.41 415.75 136.439 416.048C137.094 416.87 137.703 417.71 138.477 418.416C143.647 407.854 126.732 389.614 124.396 377.687C117.519 354.46 121.473 330.107 123.473 306.454C121.405 306.209 119.319 306.144 117.238 306.112ZM215.671 172.434C219.287 179.697 221.941 187.383 223.779 195.293C224.345 197.735 221.072 199.234 219.75 197.094L219.71 197.028C218.084 194.313 215.661 191.922 212.593 190.987C210.503 199.756 211.522 209.022 212.608 217.876C214.533 230.211 216.065 242.599 216.295 255.099L216.306 255.769C216.977 298.457 223.246 340.954 230.112 382.749C241.089 384.513 251.138 389.491 261.257 393.866C263.014 394.553 264.811 395.152 266.652 395.565C261.569 348.18 242.235 303.742 236.26 256.53C234.681 244.251 234.607 231.782 236.788 219.575C236.825 219.341 237.156 219.42 237.171 219.626C237.41 224.641 238.267 229.59 238.775 234.577C239.121 231.729 239.92 228.844 240.565 226.113C241.354 223.442 241.645 219.154 243.957 217.413L244.103 216.908C244.164 216.692 244.485 216.783 244.434 216.999C244.41 217.103 244.385 217.204 244.363 217.307C245.848 217.702 244.461 219.465 244.093 220.308C241.71 226.707 241.001 233.634 239.374 240.23C241.728 260.82 245.967 281.149 251.189 301.162C255.985 299.895 260.799 298.675 265.608 297.437C254.881 262.437 261.153 223.376 245.081 189.956C239.06 178.74 224.231 180.264 215.671 172.434ZM134.17 166.036C131.92 165.915 129.57 167.139 127.41 167.56C124.547 168.116 121.698 168.557 118.898 169.412C104.565 173.349 90.7372 184.102 88.1407 199.594C86.3559 210.232 90.7752 220.596 90.6198 231.205C90.1536 241.714 86.6953 251.816 85.3479 262.219C83.727 272.858 83.1689 283.994 84.5592 294.684C97.4165 291.029 110.844 290.8 124.029 292.688C122.929 276.484 124.372 260.201 125.17 244.009C125.745 233.61 126.729 223.164 126.381 212.745C126.373 212.514 126.748 212.457 126.784 212.689C130.738 233.968 128.419 255.57 128.019 277.03C127.766 282.452 128.436 287.926 128.165 293.318C134.159 294.611 133.943 301.616 132.11 306.233C131.785 307.344 130.682 307.151 129.789 307.016C128.822 308.035 126.515 306.706 125.199 306.706C124.17 333.344 117.916 361.796 130.731 386.693C136.089 386.723 141.247 384.87 146.454 383.819L146.738 383.763L146.746 383.76C147.511 382.762 147.885 381.156 147.988 379.981C148.715 359.467 146.438 338.906 147.77 318.39C149.402 295.618 154.471 272.984 152.127 250.058C150.506 229.567 146.056 209.448 143.911 189.019L143.802 187.962C143.668 186.702 143.618 185.31 142.996 184.35C139.377 187.654 136.341 191.584 134.167 196.004C132.964 198.14 129.739 197.189 129.69 194.779C129.226 190.474 129.157 186.153 129.627 181.847L129.67 181.467C130.252 176.077 131.877 170.933 134.17 166.036ZM268.695 313.875C264.034 314.122 259.368 314.64 254.699 314.579L255.169 316.346C260.821 337.554 266.839 358.724 270.387 380.424L270.516 378.389C270.644 376.354 270.767 374.318 270.847 372.278C271.854 352.776 270.317 333.3 268.695 313.875ZM147.372 178.522C147.392 179.404 147.436 180.283 147.504 181.159C149.658 184.397 149.466 188.702 149.949 192.427C152.652 212.545 156.633 232.581 157.974 252.908C159.222 269.17 157.184 285.374 155.101 301.472C152.532 319.908 152.802 338.535 153.399 357.095C163.268 348.141 177.296 346.57 189.749 343.789L190.341 343.668C199.916 341.703 209.471 338.854 217.606 333.257C211.756 291.312 213.133 248.826 207.151 206.918C206.967 203.618 206.929 200.299 207.202 197.001C206.939 193.431 206.861 189.842 206.854 186.263C204.233 196.837 195.449 207.053 183.941 206.719C171.697 205.998 161.304 195.947 153.321 187.331C151.156 184.761 149.004 181.76 147.372 178.522ZM255.059 313.895L254.507 313.867L254.541 313.988C254.654 313.965 254.77 313.944 254.886 313.924L255.059 313.895ZM270.248 299.571C270.16 299.544 270.011 299.544 269.846 299.551C269.607 300.103 269.125 300.558 268.565 300.708L263.893 301.974C260 303.028 256.104 304.077 252.203 305.098C252.858 307.629 253.523 310.159 254.194 312.688C259.515 310.966 265.405 311.356 270.83 310.248C270.763 307.327 270.604 304.391 270.554 301.464C270.542 300.986 270.64 300.218 270.396 299.79C270.243 299.517 270.396 299.618 270.248 299.571ZM91.5332 309.404L91.3868 309.436C91.4355 309.569 91.4796 309.702 91.521 309.837C91.5234 309.692 91.5256 309.549 91.5332 309.404ZM126.169 295.347C116.146 293.881 105.952 293.014 95.8427 294.012C91.27 294.634 86.6281 295.298 82.1467 296.147C80.5882 298.552 82.3123 304.404 84.2527 306.255C84.8346 306.477 85.8353 306.046 86.3929 305.92C90.5768 304.971 94.8013 304.206 99.0472 303.609C99.1736 303.769 99.3587 303.872 99.5875 303.85L100.563 303.759C106.419 303.223 112.327 302.83 118.195 303.166L118.239 303.2C122.198 303.491 126.144 304.118 130.087 304.571C131.643 300.48 131.375 295.785 126.169 295.347ZM199.102 161.905C199.489 163.223 199.954 164.505 200.533 165.75C201.138 165.582 201.971 165.717 202.415 166.1L202.604 166.066C203.124 165.966 203.748 165.815 203.911 165.797C211.072 164.801 210.527 174.434 210.553 179.276C210.596 181.703 210.645 184.133 210.718 186.561C212.768 185.859 215.508 187.12 217.3 188.237C215.897 183.542 214.249 178.924 212.41 174.387L212.062 173.503C210.614 169.842 209.011 166.135 205.934 163.586C203.594 162.971 201.328 162.859 199.102 161.905ZM147.175 159.488C140.518 157.101 137.881 162.526 136.035 167.937C133.858 173.929 133.264 180.527 133.627 186.974L133.851 186.676C136.3 183.393 139.831 177.974 144.297 178.845C144.253 176.354 144.342 173.618 144.818 171.031C144.54 169.362 144.469 167.676 144.662 165.989C144.764 163.875 147.054 164.196 148.562 163.897C149.867 163.023 151.448 162.671 153.035 163.286C154.233 163.126 155.431 162.973 156.629 162.821C156.813 162.415 156.961 162.006 157.116 161.59C153.801 160.901 150.486 160.191 147.175 159.488Z" fill="black"/>
<path fill-rule="evenodd" clip-rule="evenodd" d="M219.967 95.804C217.822 86.7613 213.133 78.346 205.625 71.5449C183.034 49.2076 141.546 61.3319 141.734 94.9925C140.923 98.9241 140.595 102.966 140.863 106.976C140.974 108.687 141.714 111.074 140.719 112.614C138.476 115.494 137.172 117.617 137.936 121.449C138.573 124.794 140.85 127.164 143.922 128.424C145.765 128.953 147.513 130.105 148.196 131.861C152.297 139.37 155.335 145.616 161.801 150.734C163.47 152.052 180.582 159.954 186.22 159.954C202.726 159.954 223.531 153.974 223.876 135.535C223.936 131.485 223.225 127.388 222.779 123.37C221.694 114.2 222.077 104.699 219.967 95.804Z" fill="#D08B5B"/>
<path fill-rule="evenodd" clip-rule="evenodd" d="M219.596 91.2812C219.601 91.1693 219.761 91.1442 219.792 91.2546C220.406 93.4316 220.753 95.6493 221.233 97.8601C221.695 99.9896 222.132 102.125 222.495 104.274C223.18 108.328 223.757 112.393 224.294 116.468L224.427 117.488C225.361 124.659 226.902 132.13 225.554 139.343C224.404 145.498 220.548 150.458 215.579 154.095C210.873 157.539 205.168 159.749 199.504 161.005C193.424 162.354 186.218 162.756 181.271 158.298C179.291 156.512 181.99 152.97 184.139 154.581C189.183 158.363 195.601 157.248 201.293 155.743L201.465 155.698C206.461 154.367 211.49 152.35 215.456 148.947C219.841 145.184 222.01 139.962 222.26 134.235C222.401 131.018 222.101 127.804 221.777 124.605L221.741 124.249C221.37 120.591 220.98 116.935 220.621 113.276C220.292 109.939 220.009 106.582 219.86 103.231L219.79 101.54C219.645 98.1315 219.449 94.6732 219.596 91.2812ZM160.433 62.9604C168.642 58.6864 178.076 57.1568 187.212 58.5911C195.994 59.9701 204.054 64.5022 210.078 71.0008C213.02 74.1736 215.63 77.8437 217.299 81.8532C218.127 83.845 218.776 85.9229 219.122 88.0569C219.3 89.1541 219.474 90.2908 219.508 91.403C219.538 92.4329 219.236 93.3987 219.272 94.4455C219.277 94.6093 219.026 94.6408 218.988 94.4839C218.703 93.3167 218.015 92.434 217.584 91.3253C217.262 90.4974 216.896 89.6892 216.524 88.8834L216.204 88.193C215.275 86.1862 214.165 84.2619 213.067 82.3445C210.857 78.4827 208.02 74.973 204.698 72.0116C198.866 66.8121 191.384 63.4558 183.575 62.8514C175.47 62.2238 167.249 64.1559 160.327 68.4358C153.405 72.7155 148.172 79.3684 145.454 87.0283C144.083 90.8937 143.326 94.9212 143.15 99.0163C143.061 101.089 143.144 103.179 143.29 105.248L143.362 106.235C143.446 107.418 143.504 108.596 143.327 109.751C144.576 109.362 145.885 109.2 147.198 109.393C149.15 109.679 150.316 110.479 151.191 112.223C151.237 112.314 151.145 112.405 151.054 112.36C149.919 111.793 148.083 112.092 146.881 112.389C145.63 112.698 144.504 113.235 143.441 113.962C141.474 115.306 139.933 117.388 139.555 119.776C139.189 122.084 140.136 124.42 141.728 126.074C142.547 126.926 143.526 127.663 144.622 128.121C145.952 128.679 147.269 128.661 148.445 129.581C149.173 130.15 148.997 131.123 148.504 131.754C150.987 134.477 153.189 137.456 155.671 140.189C156.822 141.456 157.964 142.724 159.066 144.032L159.478 144.525C160.579 145.854 162.331 147.257 162.834 148.929C163.147 149.968 162.034 151.328 160.908 150.855C159.182 150.128 157.949 148.236 156.783 146.786L156.707 146.692C155.484 145.188 154.397 143.601 153.404 141.938L153.078 141.39C151.282 138.37 149.502 135.238 148.357 131.92C148.282 131.998 148.202 132.069 148.117 132.129C146.468 133.302 144.07 132.4 142.423 131.638C140.867 130.919 139.442 129.838 138.331 128.534C135.914 125.699 134.8 122.027 135.607 118.347C136.291 115.23 138.451 112.199 141.283 110.622C139.975 109.117 139.434 107.088 139.074 105.105C138.614 102.573 138.522 99.9778 138.647 97.4103C138.896 92.2963 140.212 87.2554 142.247 82.5725C145.886 74.1935 152.321 67.1847 160.433 62.9604ZM143.156 118.874C144.879 118.551 146.485 118.473 148.147 119.202C149.949 119.993 151.218 121.3 152.397 122.83C153.739 124.571 150.3 126.473 149.433 124.162L149.407 124.091C149.175 123.406 148.759 122.745 148.233 122.136C148.074 122.378 147.863 122.592 147.615 122.714C147.314 122.862 146.855 122.759 146.782 122.375C146.702 121.949 146.791 121.432 147.037 121.071L147.071 121.022C145.875 120.06 144.437 119.357 143.156 119.131C143.028 119.108 143.03 118.897 143.156 118.874Z" fill="black"/>
<path fill-rule="evenodd" clip-rule="evenodd" d="M197.255 143.847C195.659 143.197 194.235 142.113 193.193 140.728C192.831 140.247 192.737 139.738 192.813 139.273C192.899 138.75 193.208 138.277 193.631 137.959C194.055 137.64 194.586 137.483 195.099 137.563C195.544 137.632 195.988 137.876 196.339 138.381L196.412 138.482C197.031 139.318 197.838 140.004 198.757 140.446C199.643 140.872 200.634 141.071 201.66 140.955C203.613 140.735 204.959 139.681 206.39 138.249C206.567 138.069 206.745 137.882 206.923 137.693C207.036 137.521 207.192 137.411 207.365 137.353C207.558 137.289 207.776 137.292 207.976 137.362C208.168 137.429 208.34 137.556 208.456 137.725C208.565 137.886 208.628 138.084 208.607 138.313C208.476 139.796 207.699 141.12 206.595 142.16C205.369 143.314 203.744 144.113 202.214 144.393C200.528 144.702 198.811 144.481 197.255 143.847ZM203.009 120.962C204.803 122.05 207.535 124.587 205.606 127.284C203.335 129.662 200.065 126.935 198.454 125.702C196.96 124.746 195.282 127.204 196.668 128.32C208.31 136.922 213.035 121.246 203.916 119.683C202.912 119.51 202.539 120.625 203.009 120.962ZM182.146 110.955C182.344 108.5 186.09 107.943 186.462 110.372C186.796 112.548 186.403 114.546 185.421 116.505C184.483 118.377 182.124 117.504 181.946 115.8C181.707 113.515 182.022 112.482 182.146 110.955ZM210.66 109.868C211.182 109.186 211.936 108.72 212.839 108.983C215.662 109.806 214.83 113.805 213.839 115.752C213.3 116.809 211.559 117.077 210.772 116.146C209.49 114.628 208.876 111.597 210.506 110.102C210.55 110.025 210.599 109.947 210.66 109.868ZM185.381 100.215L185.827 100.137C187.207 99.8986 188.922 99.6699 189.897 100.777C190.415 101.363 190.593 102.454 189.897 103.016C188.674 104.004 187.321 103.621 185.855 103.705C184.646 103.774 183.485 103.974 182.321 104.306C179.768 105.034 177.687 106.364 175.506 107.824C175.22 108.015 174.928 107.65 175.064 107.383C176.323 104.922 178.763 102.9 181.207 101.668C182.511 101.01 183.938 100.465 185.381 100.215ZM208.086 99.1123L208.428 99.182C212.141 99.9567 216.966 101.504 218.725 105.145C218.792 105.659 218.721 105.77 218.664 105.842L218.644 105.866C218.597 105.927 218.559 106.012 218.336 106.082C218.273 106.067 218.211 106.052 218.148 106.035C217.341 105.824 216.704 105.534 216.086 105.233L215.417 104.903C214.64 104.523 213.856 104.157 213.026 103.887C211.254 103.31 209.431 102.903 207.58 102.686C207.179 102.639 206.792 102.504 206.488 102.273C206.198 102.053 205.977 101.749 205.876 101.344C205.746 100.82 205.783 100.424 206.065 99.9517C206.277 99.597 206.579 99.3511 206.927 99.2099C207.282 99.066 207.685 99.0321 208.086 99.1123Z" fill="black"/>
</svg>
