<svg width="391" height="780" viewBox="0 0 391 780" fill="none" xmlns="http://www.w3.org/2000/svg">
<path fill-rule="evenodd" clip-rule="evenodd" d="M84.3001 364.501C84.3403 367.225 84.6137 373.479 85.2984 376.116C77.6705 363.91 66.2407 350.569 64.5024 335.619C65.0442 335.471 67.4478 335.25 67.8675 334.936C71.8139 336.766 71.0673 331.133 71.6506 328.527C73.2257 323.011 76.5349 317.586 77.9727 312.033C81.7523 310.401 74.1623 309.71 73.0596 309.678C77.644 304.582 79.7528 297.577 83.0169 291.633C87.8132 281.531 92.1088 271.203 95.9444 260.714C96.7828 267.287 96.9331 273.93 96.4222 280.539C94.845 308.845 84.1933 336.063 84.3001 364.501ZM349.042 314.218C346.669 314.617 342.714 314.994 340.346 315.187C343.454 313.337 352.642 309.813 346.852 306.645C345.067 305.994 343.151 306.923 341.351 307.21C333.874 308.438 324.643 308.373 317.079 307.754C319.836 305.495 323.466 302.241 326.157 299.903C327.587 298.661 328.974 298.19 327.365 296.335C324.53 293.699 319.459 295.64 316.181 296.799C307.138 301.857 296.928 307.343 287.222 311.234C287.121 309.877 287.183 308.122 285.872 307.21C282.027 305.4 279.195 305.929 275.103 305.448C270.334 304.734 266.094 303.922 261.371 302.663C258.282 300.311 256.398 293.374 251.458 294.149C255.833 283.157 249.164 271.689 246.659 261.164C243.533 250.393 241.891 239.207 241.846 228.007C241.815 210.076 231.412 196.318 216.38 187.117C210.454 183.122 206.474 173.404 199.138 171.457C198.204 167.883 198.148 166.313 197.328 162.712C196.917 161.677 196.611 156.063 195.577 156.255C194.436 150.694 188.623 148.464 183.592 147.299C177.051 145.946 167.923 144.307 162.043 148.125C160.34 149.54 159.592 151.909 159.467 154.025C158.814 156.843 157.455 159.763 155.87 162.208C153.167 161.296 154.697 159.597 152.023 159.201C127.609 155.588 100.508 173.47 84.6677 190.914C55.9541 220.351 33.0156 260.536 36.7704 302.491C35.7606 302.342 31.2847 301.642 31.3493 303.054C31.5685 309.193 32.7 314.314 33.0123 320.449C32.7019 328.576 41.1594 329.555 47.269 331.56C46.8928 355.139 55.4734 378.725 68.9034 398.107C72.1661 401.921 77.0619 415.157 83.0174 409.884C83.7192 409.065 78.2764 403.388 77.3081 401.985C74.0017 397.83 65.2434 377.254 71.4332 373.145C72.8093 377.586 86.1339 398.943 88.5091 386.821C91.6638 388.649 96.8768 389.897 100.648 389.708C107.738 393.542 114.636 397.683 121.444 401.985C124.616 408.203 129.267 414.175 133.164 420.145C106.194 482.342 79.8689 584.71 45.1612 643.292C42.135 647.117 58.7827 653.62 61.7232 655.023C56.1 664.139 55.3959 674.702 51.1179 684.518C50.303 684.387 49.481 684.56 48.746 684.952C43.4688 688.52 41.4774 701.293 41.1765 707.591C41.4201 710.401 40.3771 714.649 42.6537 716.718C42.3355 717.062 42.098 717.482 41.9289 717.911C40.3267 719.156 40.5241 721.908 41.3805 723.614C44.3938 729.858 66.4196 729.278 73.5673 730.614C98.886 732.755 120.136 733.092 145.452 730.752C148.559 730.102 146.209 725.262 144.675 723.95C145.384 723.519 145.837 722.733 145.527 721.723C139.772 705.291 118.971 706.403 106.385 697.628C109.694 695.717 107.558 696.327 105.479 697.07C103.272 695.686 101.125 694.128 99.1367 692.406C100.664 691.465 99.9107 690.843 98.2584 691.631C95.6543 689.546 93.626 686.323 90.3087 685.313C87.0595 684.518 87.0595 683.131 87.0595 682.256C88.9932 674.494 91.1054 666.533 92.191 658.661C93.3491 660.366 103.341 646.703 105.479 643.292C113.786 630.157 113.763 617.213 119.577 602.929C131.514 571.823 155.967 506.628 170.879 476.878C205.771 533.642 188.776 610.415 210.301 670.945C211.257 672.763 213.056 679.584 215.548 677.616C216.516 677.843 217.545 677.964 218.468 678.095C218.201 684.712 217.705 691.311 216.604 697.859C215.578 698.13 214.706 698.667 214.254 699.607C212.527 698.341 209.219 717.025 208.936 718.929C208.932 721.384 206.812 726.85 208.748 728.31C205.959 729.449 205.503 733.661 207.465 735.827C213.29 743.644 241.685 741.496 252.161 742.806C265.408 742.478 320.826 747.43 324.674 734.883C325.439 732.019 324.128 728.403 321.461 727.301C322.528 724.814 319.972 722.412 318.409 720.667C309.189 711.092 295.011 709.584 282.736 705.417C283.193 704.948 266.711 696.517 263.138 694.433C263.374 691.602 257.481 694.44 257.465 694.433C254.655 689.475 252.665 681.762 250.781 676.414C254.258 675.338 262.635 674.382 264.187 670.945C269.177 669.274 264.172 662.049 263.138 658.661C233.889 585.595 261.639 493.434 218.468 424.471C226.381 419.947 235.46 410.044 227.643 401.738C226.079 399.741 222.252 393.524 222.315 394.609C220.861 388.689 217.615 378.493 216.604 372.507C212.89 350.531 215.324 329.949 218.468 307.754C222.832 324.455 237.875 338.369 253.178 345.999C259.15 348.459 267.037 353.537 273.593 351.935C279.511 350.187 290.259 338.059 291.525 332.234C308.776 334.281 326.688 332.638 343.174 327.224C345.291 326.424 347.795 326.492 347.141 323.494C346.488 320.949 341.835 321.598 339.834 322.07C342.892 320.378 350.832 319.935 350.771 315.509C350.668 314.587 349.986 314.06 349.042 314.218Z" fill="#D08B5B"/>
<path fill-rule="evenodd" clip-rule="evenodd" d="M262.634 692.787C263.695 693.837 271.844 700.082 282.85 705.342C289.576 708.557 297.772 710.218 304.699 713.401C312.172 716.834 318.256 721.792 321.973 725.378L325.8 735.587C325.218 739.288 308.013 741.633 289.955 742.231C263.503 743.106 230.635 740.571 227.495 740.237C222.077 739.741 205.197 740.294 208.308 731.466C209.192 731.746 209.472 726.069 210.093 725.522L210.629 721.195C212.166 708.849 213.067 702.205 213.333 701.263C213.402 701.156 213.473 701.05 213.551 700.949C214.467 699.769 216.014 699.438 217.44 699.525C217.556 699.532 217.672 699.546 217.789 699.564C217.983 699.665 218.17 699.784 218.348 699.925L218.497 699.946C218.522 699.949 218.547 699.953 218.573 699.957C218.624 699.966 218.67 699.98 218.713 699.997C218.749 699.938 218.78 699.873 218.811 699.809C219.694 700.079 220.593 700.442 221.454 700.483L222.077 700.757L222.883 701.116L225.211 702.16L225.731 702.392C228.732 703.706 236.263 706.525 243.189 705.579C249.897 704.664 255.53 698.01 257.604 696.258C259.111 694.877 261.229 694.234 262.634 692.787ZM89.4418 684.824C90.101 684.998 93.0135 686.764 95.5224 689.158C97.8928 691.42 99.7754 694.242 103.307 696.81C108.409 700.518 128 707.599 138.682 714.398C144.221 717.923 147.752 729.423 147.844 729.954C114.23 731.88 74.14 731.503 40.8476 726.199C40.2145 726.015 40.4846 711.41 41.9891 701.608L42.035 701.313C43.1202 694.428 44.3539 690.643 44.429 690.481L44.514 690.339C45.896 688.088 49.6765 685.67 52.1247 687.316L52.1476 687.335L52.6058 687.748C54.7928 689.708 63.9315 697.561 70.2762 695.655C72.3538 694.981 74.0786 693.635 75.8859 692.461C80.7493 689.326 83.9549 686.71 89.4418 684.824ZM90.4129 684.391C90.8594 684.678 91.2842 685.002 91.6946 685.349C91.1603 685.028 90.5941 684.763 89.9844 684.574C90.1175 684.525 90.2463 684.471 90.3703 684.411L90.4129 684.391Z" fill="white"/>
<path fill-rule="evenodd" clip-rule="evenodd" d="M149.034 158.069L149.419 158.116C150.917 158.311 152.172 158.636 153.238 159.172L153.36 159.235L153.848 159.491L153.966 160.029C154.338 161.715 155.722 165.518 156.469 167.01L156.509 167.088L156.534 167.136L156.622 167.299L156.807 167.723C160.435 175.987 165.336 183.843 171.309 191.053L171.603 191.406L171.789 191.656C177.225 198.897 184.138 204.098 189.889 204.237L190.062 204.24L190.369 204.237C193.657 204.162 196.588 202.437 199.118 198.775C200.849 196.231 201.835 193.067 202.205 189.274C202.499 186.252 202.405 183.026 202.004 178.982L201.977 178.717L201.912 178.089L201.866 177.665C201.846 177.485 201.813 177.444 201.747 177.439L201.732 177.438L201.706 177.438L201.691 177.439L201.677 177.44L201.651 177.445L200.433 177.934L199.976 176.549L199.879 176.262L199.771 175.949L199.333 174.695L199.194 174.29L199.083 173.96C198.926 173.483 198.795 173.055 198.68 172.631L198.637 172.472L198.005 169.997L200.115 170.761C200.226 170.802 200.336 170.843 200.445 170.887L200.608 170.953L200.762 171.018L200.892 171.121C201.338 171.478 201.788 171.768 202.583 172.222L202.684 172.279L203.728 172.868L203.96 173.064L204.118 173.202C205.083 174.05 205.9 174.957 207.15 176.495L207.252 176.621L208.158 177.747L208.588 178.274L208.836 178.682L209.022 178.994L209.127 179.171L209.717 180.179L209.994 180.648C210.699 181.832 211.15 182.508 211.705 183.194L211.811 183.322L211.887 183.414C212.808 184.503 213.954 185.475 215.667 186.693L215.966 186.905L216.412 187.216L216.578 187.355C216.98 187.689 217.364 187.97 217.74 188.201L217.848 188.266L217.979 188.314L218.549 188.72L218.986 189.034C222.08 191.272 224.391 193.182 226.503 195.331C227.976 196.829 229.347 198.386 230.606 199.993L230.856 200.315C231.065 200.586 231.258 200.843 231.481 201.149L231.716 201.473L232.84 203.047L233.144 203.465C233.575 204.055 233.903 204.48 234.251 204.896L234.309 204.965L234.468 205.151L234.626 205.283L234.735 205.491C235.918 207.732 236.832 210.054 237.476 212.506L237.535 212.736L237.604 212.933C238.462 215.42 239.015 218.051 239.351 221.012L239.383 221.309L239.439 221.848C239.62 223.676 239.71 225.285 239.784 227.907L239.808 228.8L239.891 232.361L239.913 233.182C240.011 236.512 240.158 238.725 240.468 240.983L240.487 241.119L240.524 241.381L240.529 241.416C241.719 251.765 244.142 261.876 247.763 271.574L247.934 272.028L248.061 272.363L248.988 274.778L249.2 275.339C250.186 277.957 250.776 279.767 251.219 281.683C251.832 284.334 252.014 286.753 251.695 289.074L251.668 289.258L251.653 289.38C251.473 290.855 251.44 292.241 251.534 293.267L251.546 293.399L251.887 293.402C253.004 293.41 253.915 293.768 254.641 294.462L254.711 294.53L254.78 294.601C255.329 295.178 255.721 295.88 256.175 296.974L256.283 297.241C256.414 297.574 256.746 298.415 256.989 299.012L257.163 299.43L257.276 299.689C257.44 300.055 258.674 301.504 260.762 302.425C261.983 302.963 265.304 303.519 265.304 303.519L265.518 303.606C268.512 304.802 271.196 305.376 276.474 306.089L277.444 306.218L279.631 306.501C281.828 306.789 283.215 306.997 284.638 307.267L285.047 307.346L287.922 307.919L285.711 309.509C281.911 312.242 268.111 326.996 267.412 332.051C266.582 338.055 279.374 334.089 281.152 332.138L281.352 331.918L281.546 331.701L282.14 331.027L282.726 331.067L283.304 331.109C284.468 331.196 285.676 331.307 286.968 331.444L289.216 331.687L287.624 334.125L287.208 334.758L286.924 335.187L286.634 335.623L286.338 336.062C282.236 342.149 278.767 346.126 274.469 349.076L274.324 349.174L274.244 349.233C273.161 349.997 271.969 350.387 270.665 350.451L270.534 350.456L270.402 350.459L270.298 350.46C269.578 350.46 268.834 350.366 268.038 350.186L267.856 350.144C267.129 349.971 266.439 349.753 265.426 349.392L265.166 349.298L264.32 348.991L263.666 348.757L263.465 348.688C260.592 347.662 257.788 346.501 255.062 345.208C237.531 336.982 224.172 324.529 218.639 309.351L218.474 308.89L218.293 308.37L215.427 308.994L215.351 309.651C211.887 339.892 212.574 363.944 218.77 386.354L218.96 387.033L219.137 387.656L219.435 388.373C220.329 390.514 221.304 392.726 222.533 395.421L223.042 396.533L223.396 396.641L223.621 397.117C223.905 397.72 224.233 398.312 224.603 398.893L224.693 399.032C225.068 399.607 225.455 400.115 226.123 400.919L226.289 401.118L227.277 402.291L227.492 402.551C227.537 402.605 227.58 402.658 227.622 402.71L227.748 402.865L227.957 403.129C228.054 403.252 228.144 403.37 228.231 403.485L228.358 403.656L228.49 403.887C229.03 404.847 229.426 405.705 229.707 406.579L229.758 406.743L229.784 406.828L229.797 406.915C230.554 412.026 228.346 416.592 223.852 420.568C220.5 423.533 216.049 426.031 211.03 428.073L210.739 428.19C204.372 430.579 197.996 431.796 191.533 431.925L191.21 431.931L190.392 431.937C180.671 431.937 170.874 429.519 160.229 424.86L159.756 424.652C152.207 421.315 145.28 417.459 134.131 410.641L133.428 410.211L131.928 409.29L127.818 406.756L127.729 406.552L127.535 406.397L127.405 406.296C126.603 405.682 125.735 405.17 124.215 404.376L123.962 404.245L123.221 403.863L122.371 403.421L121.767 403.056L120.858 402.508C117.566 400.529 114.696 398.862 111.953 397.349L111.704 397.211L111.017 396.835L110.978 396.813C109.328 395.831 107.703 394.882 106.095 393.962L105.448 393.593L104.9 393.214L104.412 392.88L103.92 392.546L103.549 392.297C101.285 390.785 99.4972 389.752 97.647 388.943C95.7729 388.124 94.1747 387.584 92.6787 387.34L92.5243 387.315L92.2836 387.279L92.0765 387.151C91.2021 386.611 90.422 386.032 89.7233 385.391C88.0764 383.881 87.1163 382.068 86.6558 379.848L86.6265 379.702L86.534 379.23L86.7971 378.828C86.8409 378.761 86.8825 378.498 86.9006 377.967L86.9046 377.828L86.915 377.412L86.9213 377.231C86.9422 376.712 86.9815 376.394 87.0835 376.079L87.1096 376.002L87.1326 375.817C87.4487 373.234 87.6264 370.965 87.8377 367.036L87.8812 366.213L88.1055 361.762C88.2249 359.477 88.3299 357.805 88.4619 356.2L88.507 355.666L88.5748 354.913L88.6382 354.162C89.3192 346.275 90.4074 339.631 93.0486 325.982L94.4293 318.862C95.1571 315.075 95.6429 312.443 96.0907 309.83L96.2723 308.759L96.5389 307.146L96.6721 306.318C98.0503 297.665 98.7576 290.34 98.7762 283.333C98.7977 275.178 97.8607 267.625 95.8097 260.391L95.708 260.036L95.6689 259.902L93.5325 261.945C93.5325 261.945 80.0215 289.951 73.5275 302.538L73.2197 303.132L73.1592 303.281C72.8704 304.03 72.8071 305.987 73.0221 307.963L73.0481 308.191L73.0772 308.423L73.1121 308.677C73.2635 309.728 73.4814 310.644 73.7327 311.277C73.8132 311.48 73.893 311.643 73.9646 311.76L73.9911 311.801L74.0084 311.827L74.1403 311.827C74.3545 311.826 74.5682 311.824 74.7811 311.821L75.0999 311.815L75.5755 311.805L78.4002 311.722L76.9277 313.688C72.6822 319.356 69.4251 326.006 67.459 332.96L67.373 333.267L67.0269 334.529L65.9154 334.425L65.715 334.409L65.0976 334.362L64.367 334.294L64.1332 333.928L63.6955 334.2L62.8988 334.048L62.2571 333.922C57.3026 332.932 52.7253 331.644 45.0378 329.205L44.284 328.965L41.4298 328.053L39.9013 327.565L39.6793 327.489L39.4819 327.42L39.2938 327.351C37.1304 326.547 35.8959 325.479 35.2918 323.495L35.2465 323.341L35.2024 323.111L33.1406 312.297L32.8046 310.57C32.4413 308.715 32.1086 307.059 31.7776 305.462L31.5292 304.273L31.0952 302.228L33.225 302.047L33.4755 302.024C34.1251 301.961 34.6292 301.892 35.0526 301.799L35.1464 301.778L35.166 301.283L35.185 300.846C35.2084 300.329 35.2359 299.789 35.2687 299.218L35.2981 298.721L35.343 298.011C35.5931 294.194 36.006 289.989 36.6295 285.443C38.4279 272.334 41.5654 259.245 46.3921 247.004C50.0443 237.742 55.7073 228.151 63.0304 218.307C68.8406 210.497 75.3808 202.926 82.6807 195.271C92.132 185.211 99.635 178.261 107.724 172.593C117.742 165.572 127.859 161.272 138.628 159.929L138.905 159.895L139.352 159.807C139.979 159.687 140.596 159.579 141.437 159.442L141.588 159.418L144.398 158.972L145.163 158.847C146.172 158.678 146.938 158.536 147.688 158.377L148.009 158.307L148.355 158.229L149.034 158.069Z" fill="#9DDADB"/>
<path fill-rule="evenodd" clip-rule="evenodd" d="M159.527 150.501C159.79 150.607 159.969 151.006 160.075 151.605C160.367 151.696 160.617 151.911 160.693 152.235C160.914 153.19 160.655 154.185 160.456 155.136L160.433 155.245C160.244 156.166 160.014 157.081 159.731 157.978L159.69 158.206C159.003 161.914 157.68 165.441 156.125 164.842L156.484 165.495C162.585 176.549 180.01 206.229 193.615 201.999C201.538 198.828 201.425 188.522 200.845 181.349C194.963 184.952 193.862 157.374 195.068 154.327C196.028 153.622 196.491 159.966 196.849 160.84C197.628 164.32 198.584 167.755 199.481 171.206C201.378 171.581 203.172 172.336 204.758 173.417C204.834 173.461 204.912 173.5 204.986 173.545C205.938 174.124 206.68 174.861 207.343 175.678C208.091 176.514 208.731 177.429 209.335 178.37C210.664 179.877 211.93 181.44 213.239 182.963C213.86 183.686 214.496 184.387 215.146 185.07L215.647 185.491C215.731 185.56 215.815 185.63 215.899 185.699C230.93 195.069 241.335 209.088 241.365 227.349C241.409 238.757 243.051 250.151 246.178 261.122C248.683 271.843 256.776 282.8 252.401 293.996C257.341 293.206 257.8 299.547 260.889 301.944L261.86 302.206C266.199 303.372 270.18 304.345 274.62 305.021C278.713 305.512 283.444 304.973 287.289 306.816C288.6 307.745 288.131 309.421 288.233 310.804C297.938 306.84 306.654 301.364 315.697 296.212L316 296.104C319.347 294.917 325.318 293.135 328.068 295.74C329.677 297.629 328.053 299.316 326.623 300.581C323.932 302.962 321.078 305.147 318.321 307.448C325.749 308.067 333.201 307.573 340.548 306.37L340.948 306.304C342.748 306.011 344.871 305.312 346.656 305.975C352.445 309.201 345.746 312.967 342.638 314.852C345.006 314.655 347.371 314.361 349.744 313.955C350.688 313.794 351.37 314.33 351.474 315.27C351.534 319.778 345.588 320.021 342.529 321.745L342.775 321.687C344.774 321.224 347.649 320.818 348.275 323.306C348.93 326.361 344.806 327.595 342.689 328.409C326.204 333.924 308.292 335.598 291.042 333.512C289.776 339.446 279.028 351.8 273.111 353.58C266.554 355.212 258.668 350.039 252.696 347.533C237.394 339.761 223.215 326.941 218.851 309.93C215.183 336.305 216.666 362.896 222.171 388.847C223.063 390.87 224.003 392.861 225.061 394.802C225.381 394.854 225.651 395.067 225.714 395.499C225.746 395.735 225.794 395.965 225.848 396.192C226.901 397.979 228.056 399.696 229.128 401.473C229.35 401.84 229.568 402.221 229.768 402.611C236.905 411.016 228.207 421.845 220.427 426.376C263.597 496.62 235.714 585.141 264.963 659.564L265.028 659.776C266.138 663.316 269.519 670.602 264.629 672.269C263.077 675.77 255.253 676.183 251.777 677.279C253.661 682.727 255.755 688.114 258.565 693.164L258.615 693.186C259.734 692.365 262.134 691.516 263.126 692.411C263.367 692.442 263.607 692.509 263.842 692.626C265.377 693.388 266.612 694.844 268.08 695.76C268.874 696.256 269.699 696.706 270.549 697.099C271.34 697.465 272.181 697.707 272.826 698.31C273.03 698.5 273.082 698.742 273.031 698.965C273.541 699.229 274.05 699.494 274.558 699.761L274.833 699.588C279.32 696.797 282.927 695.286 276.401 700.647C278.739 701.727 281.138 702.671 283.551 703.555C285.384 702.675 287.341 702.033 289.358 701.944C289.721 702.393 286.948 704.123 286.49 704.6C298.766 708.844 312.267 712.168 321.487 721.921L321.694 722.154C323.263 723.909 325.56 726.254 324.539 728.678C327.206 729.801 328.517 733.484 327.752 736.401C323.904 749.181 264.926 744.137 251.679 744.471C241.204 743.137 212.81 745.325 206.984 737.363C205.023 735.156 205.478 730.866 208.268 729.705C206.332 728.22 208.451 722.651 208.456 720.15L208.501 719.861C208.797 717.994 210.083 710.687 211.417 705.581C211.444 705.178 211.497 704.766 211.562 704.351L211.604 704.087C211.869 702.46 212.276 700.805 213.329 699.495C214.085 698.556 215.133 697.975 216.27 697.766C216.575 695.821 216.825 693.873 217.04 691.921C217.191 689.626 217.248 687.326 217.222 685.027C217.209 683.865 217.178 682.704 217.121 681.544C217.08 680.691 217.129 679.676 216.911 678.804C216.767 678.951 216.561 679.031 216.33 678.952C215.84 678.784 215.389 678.475 214.94 678.222C214.923 678.213 214.909 678.201 214.895 678.191C212.493 679.748 210.755 673.084 209.82 671.275C188.297 609.62 205.291 538.663 170.4 480.844C165.583 491.167 161.444 500.637 156.808 511.033C142.329 543.496 124.454 600.68 112.467 635.055C109.205 642.081 105.372 648.873 100.815 655.147C99.358 656.797 98.3805 659.224 96.2716 660.11L96.0871 660.139C95.5243 661.189 94.7429 662.074 93.5811 662.044C93.2961 662.037 93.0054 662.005 92.7119 661.954C91.6822 669.107 90.3874 676.305 88.666 683.344L88.8983 683.247C90.0249 682.781 91.2097 682.385 92.3661 682.489C95.1723 683.198 94.1333 685.649 91.9151 686.457C94.6762 687.313 96.5445 689.729 98.5948 691.74C100.327 690.808 102.27 690.324 104.345 690.528C104.663 690.559 104.905 690.698 105.073 690.888C105.192 690.889 105.308 690.895 105.418 690.914L105.192 691.05C105.561 691.669 105.297 692.611 104.345 692.616C103.597 692.621 102.878 692.688 102.182 692.817C101.698 693.099 101.217 693.384 100.743 693.682C102.343 695.093 104.047 696.394 105.801 697.584C106.727 697.112 107.707 696.715 108.726 696.397C110.041 695.987 110.616 698.075 109.294 698.454C109.014 698.535 108.736 698.624 108.46 698.719L108.189 698.883C108.125 698.921 108.059 698.961 107.991 699.001C120.577 707.939 141.851 706.807 147.606 723.544C147.797 724.175 147.699 724.72 147.431 725.149C148.678 726.292 149.254 728.346 148.973 729.922L148.997 730.054C149.211 731.33 148.903 732.449 147.531 732.74C138.378 733.592 129.248 734.133 120.055 734.3L119.313 734.306C106.142 734.395 42.0786 733.917 39.1889 725.469C38.4183 723.906 38.1808 721.479 39.3084 720.085C39.4392 719.334 39.6969 718.651 40.155 718.116C38.2995 716.244 39.2122 711.526 38.9852 709.149C39.3925 701.216 41.0041 692.709 45.8593 686.217C45.9386 686.114 46.0346 686.051 46.1336 686.02C46.9814 685.169 48.0955 684.631 49.3694 684.559C49.409 684.46 49.4494 684.361 49.4881 684.263C50.4785 681.93 51.4192 679.555 52.3537 677.169C53.0471 674.457 53.7705 671.753 54.4951 669.062C55.2192 666.375 55.9277 663.684 56.6206 660.988C57.1726 658.839 57.6473 656.418 58.6025 654.364C58.5766 654.277 58.5517 654.189 58.5232 654.102L57.5292 653.7C51.0187 651.057 40.703 646.599 42.9695 643.655C67.1219 593.53 90.7638 522.17 112.928 470.205C113.274 469.186 113.641 468.173 114.043 467.17C115.022 464.727 116.013 462.287 117.019 459.855L117.624 458.396L127.28 435.191C128.291 432.762 129.43 430.346 130.227 427.836C130.994 425.419 131.2 423.014 129.742 420.814C128.437 418.845 126.599 417.216 125.128 415.367C124.015 413.968 122.931 412.475 121.959 410.906C121.077 409.743 120.339 408.413 119.681 407.341C118.626 405.623 117.285 403.721 116.52 401.737C115.532 401.115 114.543 400.496 113.551 399.884C111.836 398.924 110.149 397.92 108.507 396.832C106.434 395.601 104.347 394.391 102.243 393.208C101.484 392.832 100.724 392.457 99.9634 392.083C97.6845 392.28 91.3886 389.475 89.2439 387.576C88.9988 387.527 88.7549 387.471 88.5124 387.411C88.4155 388.623 88.0189 389.721 87.0948 390.535C80.9493 393.581 73.1164 379.786 70.9576 375.184C66.6676 379.369 76.9039 400.075 80.2105 404.308L80.3869 404.57C81.2713 405.894 82.1985 407.38 83.4529 408.358L83.5795 408.454C84.4394 409.089 84.599 410.082 83.8975 410.916C77.942 416.287 71.6903 404.495 68.4277 400.61C54.9986 380.867 46.4179 356.843 46.794 332.826C40.6849 330.784 32.2274 329.787 32.5378 321.508C32.2255 315.26 31.0941 309.078 30.8742 302.824C30.8105 301.386 35.2863 302.099 36.2963 302.251C34.8084 287.883 37.0565 273.295 41.066 259.485C51.5925 224.15 94.9398 160.464 137.605 158.165C137.568 158.096 137.585 158.002 137.681 157.977C139.612 157.476 141.746 157.557 143.731 157.62C145.796 157.685 147.895 157.699 149.95 157.932C152.079 158.173 154.334 158.955 155.764 160.502L156.26 159.609C156.835 158.567 157.389 157.514 157.808 156.363C158.02 155.782 158.186 155.18 158.337 154.571C158.509 153.703 158.552 152.799 158.963 152.01C158.974 151.989 158.988 151.972 158.999 151.953C159.147 151.456 159.317 150.969 159.527 150.501ZM211.892 729.675C211.282 730.294 210.225 730.564 209.289 730.268C206.177 739.096 223.057 738.542 228.475 739.039C234.252 739.654 339.483 745.12 321.686 732.176C300.808 740.123 230.976 740.999 211.892 729.675ZM263.139 694.67C261.735 696.117 259.617 696.76 258.11 698.141C253.85 701.739 250.423 706.802 244.536 707.755C236.801 709.197 229.828 705.385 222.91 702.366C222.049 702.325 221.15 701.961 220.267 701.692C220.236 701.756 220.204 701.82 220.169 701.879C220.126 701.862 220.08 701.848 220.029 701.84C219.952 701.827 219.879 701.819 219.804 701.808C219.626 701.666 219.439 701.547 219.245 701.446C219.128 701.429 219.012 701.414 218.896 701.407C217.47 701.32 215.922 701.651 215.007 702.832C214.929 702.932 214.858 703.038 214.789 703.146C214.346 704.715 214.289 706.614 214.503 707.941C214.572 708.375 214.391 708.802 214.085 709.048C213.812 715.615 213.071 722.211 212.554 728.691C215.142 729.62 217.827 730.327 220.514 730.775C239.059 733.051 257.802 734.109 276.489 733.537C287.614 733.135 298.723 732.143 309.732 730.492C313.291 730.158 316.933 728.783 320.49 729.338C320.641 729.053 320.877 728.808 321.206 728.642C312.09 716.176 296.509 712.806 282.925 707.341C280.681 708.773 279.3 711.756 276.801 712.644C275.831 712.79 274.482 712.219 274.624 710.99C275.028 708.474 277.749 707.326 279.582 705.865C277.615 704.948 275.686 703.951 273.804 702.843C271.956 704.507 269.768 705.773 268.037 707.547C269.021 709.946 264.919 709.739 264.874 707.186C265.157 704.362 269.638 703.166 271.639 701.519C268.514 699.62 265.722 697.224 263.139 694.67ZM42.9028 719.351C42.7938 719.566 42.6159 719.761 42.3525 719.913C41.8966 720.176 42.1157 721.569 42.1386 722.038L42.14 722.073C42.1649 722.915 42.2176 723.756 42.2908 724.595C43.0602 725.288 44.0442 725.815 45.1373 726.132C78.4298 731.436 112.361 731.867 145.975 729.941C145.82 729.049 145.167 728.314 144.589 727.57C123.339 729.374 101.577 727.487 80.2917 725.729C67.8477 724.096 54.8095 723.42 42.9028 719.351ZM91.3724 686.707C85.8855 688.593 80.7799 691.21 75.9166 694.344C74.1093 695.518 72.3844 696.865 70.3069 697.538C63.1133 699.7 52.3282 689.315 52.1553 689.199C49.6572 687.519 47.0082 689.085 45.6491 691.413C45.5234 691.628 43.4399 703.533 43.5029 709.364C43.1291 711.346 44.1265 714.587 43.5957 716.748C44.013 717.25 44.6079 717.486 45.0086 718.011C45.1537 718.2 45.1126 718.415 44.9872 718.577C64.4129 720.174 83.7255 723.203 103.244 723.842C116.602 724.548 129.986 724.385 143.346 724.224C140.306 715.312 129.953 712.958 122.044 710.025C116.069 707.881 110.568 704.688 105.727 700.583C103.628 702.054 101.973 704.116 100.486 706.188C99.8102 707.029 98.4225 707.665 97.6989 706.499C96.9537 705.288 98.4085 703.758 100.205 702.418C101.15 701.021 102.341 699.83 103.713 698.85C102.196 697.5 100.736 696.093 99.3675 694.598C96.5302 696.517 94.4458 699.278 92.4048 701.958C91.424 703.026 89.5896 701.614 90.3942 700.41C91.039 699.58 91.7648 698.814 92.5418 698.097C93.7131 695.89 95.3995 693.853 97.4455 692.442L97.2895 692.244C95.5804 690.054 94.103 687.426 91.3724 686.707ZM43.0289 717.952C42.9819 718.01 42.9325 718.066 42.8798 718.12C42.9268 718.215 42.9629 718.316 42.9895 718.418L43.488 718.458C43.3148 718.314 43.1624 718.14 43.0289 717.952ZM249.953 677.64C239.775 679.559 229.261 680.297 218.988 678.712C220.178 685.337 220.923 692.003 220.533 698.731C235.893 703.158 242.275 710.54 255.054 695.786C254.437 694.848 254.08 693.695 253.666 692.583C251.9 687.759 250.44 682.77 249.953 677.64ZM63.0174 655.912C62.8723 656.233 62.6106 656.496 62.2334 656.613C62.099 657.206 61.9601 657.799 61.8119 658.39C61.5625 661.442 60.4088 664.468 59.2156 667.284L58.9722 667.867C58.1852 670.209 57.3601 672.546 56.5463 674.886C55.9297 677.317 55.3866 679.768 54.819 682.21C54.7095 683.867 54.4739 685.51 54.1118 687.133C54.0949 687.209 54.0723 687.279 54.0474 687.346C54.6162 687.599 55.1653 687.892 55.683 688.189C71.2661 699.878 68.5749 692.063 83.5369 685.518C83.4509 684.889 83.7662 684.322 84.0234 683.671L84.0566 683.586C84.0722 683.545 84.0877 683.503 84.1033 683.462C84.0786 683.214 84.0931 682.948 84.1589 682.664C85.6743 676.475 87.7844 670.394 89.7594 664.339C90.0755 663.427 90.4415 662.536 90.8155 661.646C81.3288 661.524 71.9451 659.002 63.0174 655.912ZM58.9129 658.919C58.7293 659.728 58.5294 660.525 58.3472 661.296L58.0786 662.445C58.4607 661.283 58.7621 660.105 58.9129 658.919ZM149.158 159.675C145.856 160.477 142.473 160.805 139.152 161.47C116.265 164.195 98.7187 180.398 83.6042 196.486C54.9727 226.51 38.3145 263.453 39.5439 305.206C49.7686 307.066 59.8878 309.788 70.3052 310.382C68.7912 308.093 71.3267 305.229 72.1994 303.037C87.2674 273.972 98.9018 241.887 108.349 211.288L108.093 212.624C105.126 227.981 101.671 243.273 96.3965 258.025C97.9243 256.526 123.022 236.598 121.06 243.187C113.392 249.17 104.732 253.912 96.6972 259.403C106.25 291.262 92.4395 323.542 89.8155 355.414C89.1562 362.501 89.2134 369.637 88.3273 376.697C87.9903 377.496 88.3452 379.12 87.849 379.879C88.2164 381.753 88.9892 383.461 90.584 384.923C91.2554 385.539 91.9882 386.072 92.7587 386.548C94.6821 386.838 96.6141 387.577 98.1805 388.262C101.666 389.786 104.734 392.033 107.849 394.179L107.933 394.236C112.956 396.813 117.975 399.74 123.012 402.793L123.237 402.911C125.11 403.892 127.026 404.778 128.658 406.139C128.733 406.201 128.782 406.272 128.815 406.347L131.874 408.233C156.38 423.331 181.647 438.263 210.378 427.486C218.451 424.24 230.186 417.663 228.679 407.493C228.382 406.517 227.93 405.601 227.419 404.709C227.277 404.518 227.131 404.329 226.984 404.144C225.871 402.739 224.625 401.45 223.658 399.933C223.265 399.316 222.912 398.68 222.603 398.026C222.385 397.96 222.192 397.807 222.069 397.54C220.687 394.529 219.332 391.513 218.07 388.449C202.776 335.217 221.34 278.022 226.592 224.332C226.957 221.257 227.493 218.152 227.491 215.055C227.491 214.91 227.702 214.914 227.714 215.055C229.566 228.758 228.161 242.589 226.4 256.231C224.145 273.297 221.182 290.291 219.146 307.388C224.558 324.621 239.712 337.073 255.624 344.54C258.332 345.824 261.1 346.969 263.922 347.976L264.112 348.042C267.213 349.125 270.714 350.8 273.706 348.605C279.448 344.715 283.501 338.778 287.223 333.061C285.717 332.898 284.21 332.757 282.701 332.654C278.997 336.883 274.459 340.474 269.67 343.408C267.718 344.525 265.501 344.052 264.599 341.866C263.747 339.804 264.79 337.395 265.545 335.406L265.654 335.116C269.476 324.826 276.113 315.396 285.074 308.952C278.313 307.603 271.291 307.644 264.805 304.977C265.159 305.348 264.696 305.763 264.471 306.077C264.551 306.687 264.107 307.133 263.561 307.296C258.27 314.199 254.259 322.373 253.422 331.126C253.644 334.108 250.972 337.551 248.399 334.421C246.386 325.706 254.303 312.088 261.265 306.71C254.284 301.927 256.319 295.023 251.936 294.991C250.803 297.162 249.325 299.239 247.463 300.852C246.621 301.535 245.598 302.05 244.695 302.656C243.744 303.294 242.755 301.891 243.507 301.121L243.706 300.883C246.565 297.469 249.959 294.114 250.55 289.496C251.403 283.808 248.843 278.047 246.88 272.852C243.118 262.893 240.622 252.53 239.406 241.955C238.029 232.481 239.704 222.653 236.455 213.484C235.809 210.931 234.88 208.605 233.742 206.447C233.715 206.425 233.688 206.402 233.663 206.373C232.312 204.813 231.232 203.077 229.972 201.442C228.654 199.732 227.226 198.105 225.712 196.565C223.183 193.992 220.391 191.845 217.48 189.778C217.427 189.758 217.372 189.733 217.318 189.701C216.772 189.379 216.249 188.989 215.743 188.56L215.694 188.525C214.002 187.351 212.274 186.076 210.953 184.482C209.656 182.917 208.734 181.091 207.675 179.367C206.228 177.604 204.848 175.716 203.103 174.248C202.115 173.685 201.088 173.155 200.207 172.451C200.063 172.391 199.916 172.334 199.767 172.28C200.143 173.808 200.711 175.214 201.222 176.767C201.964 176.454 202.979 176.801 203.103 177.941L203.149 178.366C203.894 185.349 204.271 193.799 200.157 199.845C191.099 212.956 177.569 201.762 170.726 192.543C164.585 185.19 159.423 177.012 155.61 168.222L155.547 168.106C154.837 166.761 153.299 162.659 152.864 160.688C151.765 160.11 150.427 159.83 149.158 159.675ZM120.157 404.044C120.13 404.078 120.099 404.108 120.064 404.134C121.349 405.956 122.573 407.839 123.835 409.667C122.8 407.98 121.828 406.279 120.967 404.56C120.698 404.386 120.427 404.215 120.157 404.044ZM48.2566 333.279C53.1664 359.887 60.183 387.882 79.7341 407.776C73.6494 399.221 68.9177 389.233 67.5409 378.773C67.4839 375.965 68.5082 372.999 71.6203 372.584C72.1514 372.513 72.5549 372.988 72.7446 373.41L72.7629 373.452C73.9871 376.369 75.579 379.143 77.464 381.685L77.6488 381.926C79.0712 383.762 85.1087 391.246 85.9509 387.668C85.3344 369.584 66.61 362.128 63.5435 337.221C58.2969 336.666 53.3182 334.677 48.2566 333.279ZM88.51 386.058C88.5302 386.341 88.5399 386.623 88.5356 386.899C88.8137 386.785 89.0997 386.693 89.392 386.621C89.0951 386.438 88.8016 386.25 88.51 386.058ZM88.2316 384.109C88.3344 384.629 88.4213 385.153 88.4748 385.672C89.0091 385.842 89.5378 386.028 90.0636 386.221C89.7449 385.935 89.4416 385.632 89.1573 385.31C88.826 384.935 88.5154 384.531 88.2316 384.109ZM95.4676 260.664C91.6323 271.348 87.3366 281.867 82.5405 292.157C79.3202 298.179 77.1716 305.195 72.7154 310.42C72.6719 310.462 72.6282 310.501 72.5836 310.537L72.6574 310.54C73.9853 310.599 81.2003 311.308 77.4967 312.936C76.0587 318.592 74.1747 324.119 72.5995 329.737L72.5644 329.9C71.988 332.617 71.2592 338.091 67.3916 336.264C66.9719 336.585 66.4682 336.81 65.9265 336.961C67.6649 352.188 77.3144 362.102 84.9423 374.534C83.2371 367.973 83.7354 361.121 84.3292 354.421L84.4763 352.773C87.628 322.055 99.1942 291.848 95.4676 260.664ZM127.501 358.306C121.284 350.571 90.7064 273.991 112.315 320.386C119.995 336.537 126.317 353.829 138.987 366.915C139.864 367.855 138.709 369.506 137.571 368.747C133.481 366.022 130.171 362.407 127.501 358.306ZM105.37 265.748C105.344 265.623 105.504 265.555 105.574 265.662C113.882 282.032 119.814 299.624 129.201 315.499C134.868 325.329 141.667 334.492 149.454 342.755C150.039 343.375 149.158 344.233 148.525 343.682C126.298 323.215 115.491 293.464 105.37 265.748ZM269.193 333.145L269.179 333.147L268.975 333.675C268.905 333.852 268.835 334.032 268.763 334.213C268.797 334.198 268.832 334.184 268.866 334.17C268.939 334.097 269.012 334.023 269.084 333.945C269.068 333.675 269.102 333.406 269.193 333.145ZM36.3847 302.894C35.2562 303.336 33.8697 303.419 32.6222 303.527C34.0188 310.094 35.2246 316.711 36.4887 323.296C37.0732 325.318 38.4473 326.027 40.3491 326.668L41.8776 327.156C49.0134 329.438 56.1894 331.782 63.5473 333.181C64.0646 332.845 64.7994 332.862 65.1428 333.4C65.5007 333.433 65.8681 333.453 66.2312 333.488C68.1971 326.242 71.5612 319.221 76.0628 313.21C63.4804 313.615 50.807 310.303 38.837 306.601C38.3523 306.836 37.7139 306.689 37.5095 306.133L37.3251 306.08C35.3156 305.485 32.6511 304.024 36.8742 304.766C36.6191 304.172 36.4776 303.534 36.3847 302.894ZM325.706 297.532C317.365 296.156 310.992 302.901 303.874 305.996C299.612 307.821 288.255 313.48 284.126 311.597C278.466 317.035 273.686 323.389 270.344 330.518C271.255 330.463 272.167 330.423 273.078 330.394C274.728 329.865 276.49 329.838 278.203 330.347C295.367 330.536 312.542 333.864 329.637 329.646L330.03 329.573C333.541 328.908 345.53 326.379 346.213 323.9C346.034 322.821 342.81 323.961 342.191 324.083C337.264 325.052 332.258 325.514 327.265 325.999C325.877 326.133 325.894 323.977 327.265 323.84C333.275 323.243 338.968 320.992 344.483 318.65C345.069 318.39 346.622 317.853 347.696 317.156C342.601 318.02 337.351 318.17 332.196 317.987C330.421 317.758 330.296 315.067 332.196 315.12C335.676 315.504 339.001 313.79 341.842 311.98L342.461 311.579C347.196 308.498 346.865 308.365 340.881 309.51C332.086 311.108 323.186 311.049 314.305 310.439C313.037 310.418 312.162 308.716 313.211 307.804C317.3 304.28 321.684 301.137 325.706 297.532ZM285.392 310.368L285.295 310.459C285.091 310.655 284.924 310.828 284.83 310.92L284.792 310.956C284.667 311.074 284.545 311.196 284.42 311.315C284.966 311.497 285.567 311.508 286.188 311.412C285.813 311.178 285.535 310.796 285.392 310.368ZM128.681 282.158L128.728 282.209C134.093 288.002 139.53 297.399 143.975 304.808C144.561 310.882 131.419 285.683 128.701 282.184L128.681 282.158ZM263.706 304.575C263.758 304.639 263.808 304.705 263.857 304.773L263.928 304.875L264.044 304.804C264.086 304.779 264.131 304.763 264.176 304.752C264.019 304.694 263.863 304.634 263.706 304.575ZM239.159 284.796C243.986 285.552 234.115 291.538 232.812 292.395C231.978 292.712 224.045 299.248 224.526 297.126L224.751 296.84C228.445 292.147 233.48 286.782 239.159 284.796ZM50.3245 272.252C52.11 269.383 61.8268 273.161 64.8983 273.613C66.6248 274.068 68.3326 274.606 70.0777 274.988C71.4413 275.482 77.7999 275.003 75.4663 277.694C73.0313 279 69.8523 277.99 67.3587 277.297C62.3973 275.944 57.4188 274.366 52.3382 273.615C52.1857 273.539 52.1765 273.591 52.3099 273.77C53.4029 276.194 55.7013 278.468 58.2901 279.249C58.469 279.301 58.3937 279.573 58.2127 279.527C55.3871 278.968 48.8062 275.839 50.3245 272.252Z" fill="black"/>
<path fill-rule="evenodd" clip-rule="evenodd" d="M216.996 80.983C202.746 71.5493 174.196 72.5739 158.509 78.3536C143.202 83.2083 137.843 96.7356 135.302 111.35C132.213 127.776 132.628 151.454 154.842 151.167C157.965 152.678 161.424 153.333 164.656 154.584C169.078 156.113 173.415 157.888 177.903 159.228C186.742 162.075 196.578 161.827 204.963 157.661C209.595 155.423 211.513 151.938 214.542 148.224C223.356 137.42 227.791 121.958 227.393 108.22C226.697 98.5464 225.097 87.3481 216.996 80.983Z" fill="#D08B5B"/>
<path fill-rule="evenodd" clip-rule="evenodd" d="M235.03 120.803C233.567 111.725 233.162 102.494 231.247 93.4875C229.446 85.0123 226.078 77.0035 220.194 70.5426C214.928 64.7619 208.119 60.5171 200.811 57.827C186.572 52.5867 170.197 53.7718 156.423 59.8892C143.531 65.6128 133.248 76.2024 127.254 88.9109C123.361 97.1683 121.403 105.947 120.533 115.008C119.569 125.074 119.464 135.244 119.071 145.345C119.024 146.592 118.955 147.839 118.938 149.086C118.919 150.451 119.472 151.647 119.922 152.918C119.953 153.008 119.998 153.093 120.052 153.174C119.713 153.216 119.374 153.266 119.036 153.321C118.656 153.38 118.673 153.996 119.036 154.07C122.105 154.695 125.259 154.783 128.38 154.937C131.615 155.098 134.855 155.186 138.094 155.295C141.253 155.402 144.412 155.508 147.571 155.615C149.23 155.672 150.889 155.729 152.548 155.783C153.337 155.809 154.126 155.838 154.918 155.864C155.311 155.878 155.707 155.89 156.101 155.904C156.42 155.914 156.942 156.117 156.975 155.883C157.034 155.919 157.098 155.949 157.167 155.97C157.243 156.011 157.316 156.058 157.387 156.11C157.774 156.376 158.359 156.343 158.75 156.11C158.786 156.089 158.824 156.065 158.861 156.042C159.153 155.869 159.357 155.617 159.47 155.333C161.091 157.291 163.961 155.091 162.303 153.02C161.411 151.906 152.548 124.595 156.217 103.79L170.929 101.842C173.619 101.57 178.624 101.027 178.624 101.027C178.624 101.027 179.849 97.0285 180.2 95.7415C180.226 95.6467 180.252 95.5495 180.28 95.4547C180.631 96.0735 180.984 96.6895 181.34 97.3058L183.155 100.996C183.155 100.996 209.949 100.548 216.518 100.591C216.63 100.591 217.158 108.578 216.919 112.095C216.435 119.158 215.921 126.216 215.205 133.26C214.749 137.771 213.648 142.194 212.007 146.351C209.416 152.918 201.894 159.16 194.559 159.16C189.993 159.16 179.676 155.461 178.174 154.715C176.671 153.968 175.776 156.006 177.145 156.821C179.919 158.473 187.564 161.976 194.559 161.976C204.717 161.976 212.385 152.337 213.326 150.955C222.576 150.448 232.036 150.683 241.274 151.6C242.049 151.676 242.717 150.742 242.469 150.029C239.151 140.532 236.627 130.736 235.03 120.803Z" fill="black"/>
<path fill-rule="evenodd" clip-rule="evenodd" d="M184.727 140.015C186.627 136.223 204.056 137.928 204.056 137.928L205.529 149.982C205.529 149.982 197.119 152.679 192.113 152.114C187.107 151.549 182.827 143.808 184.727 140.015Z" fill="white"/>
<path fill-rule="evenodd" clip-rule="evenodd" d="M185.955 146.347C185.353 145.061 197.813 141.556 201.671 143.951C205.529 146.347 204.323 149.614 204.323 149.614C204.323 149.614 188.097 153.307 185.955 146.347Z" fill="#FF8181"/>
<path fill-rule="evenodd" clip-rule="evenodd" d="M183.646 137.771C186.554 134.399 191.453 134.164 195.51 135.007C198.114 135.548 200.649 136.45 203.294 136.784C204.529 136.94 205.778 136.987 207.022 136.964C208.244 136.942 209.468 136.696 210.686 136.741C210.873 136.748 210.944 136.994 210.781 137.093C209.111 138.118 206.86 138.446 204.886 138.646C204.893 138.792 204.901 138.934 204.922 139.055C204.976 139.377 205.025 139.696 205.064 140.02C205.154 140.75 205.254 141.478 205.354 142.207C205.551 143.641 205.613 145.121 205.96 146.53L206.02 146.764C206.101 147.061 206.119 147.328 206.092 147.569L206.172 147.532L206.426 147.41L206.592 147.331C207.199 147.051 207.777 146.846 208.49 146.915C209.033 146.966 209.489 147.336 209.492 147.914C209.506 150.511 206 151.346 203.994 151.843L203.406 151.987C200.853 152.609 198.246 153.154 195.621 153.284C191.407 153.493 186.672 152.333 183.916 148.922C181.344 145.74 180.873 140.987 183.646 137.771ZM202.781 148.68C202.339 144.771 197.525 144.556 196.14 147.035C195.526 143.58 186.436 146.737 187.146 147.424C189.841 150.027 193.929 150.262 197.444 149.78C199.233 149.535 201.025 149.135 202.781 148.68ZM197.439 138.435L196.229 138.261L195.752 138.195C192.752 137.794 189.378 137.587 186.911 139.507C186.011 140.207 185.504 141.121 185.315 142.103C187.649 141.758 189.991 141.494 192.341 141.275L192.982 141.216C194.452 141.084 195.921 140.945 197.39 140.798L198.434 140.693L199.477 140.585C199.844 140.547 202.318 140.42 202.784 140.505C202.833 140.088 202.898 139.185 203.003 138.779C201.245 138.839 199.495 138.708 197.747 138.477L197.439 138.435ZM203.01 120.962C204.803 122.05 207.536 124.587 205.606 127.284C203.335 129.662 200.066 126.935 198.455 125.702C196.961 124.746 195.282 127.204 196.668 128.32C208.311 136.922 213.036 121.246 203.917 119.683C202.913 119.511 202.54 120.625 203.01 120.962ZM206.219 125.545L206.305 125.498L206.334 125.481C206.385 125.448 206.352 125.452 206.238 125.491L206.152 125.522V125.583C206.174 125.569 206.197 125.559 206.219 125.545ZM183.251 115.88L183.251 115.826C183.254 114.315 184.136 110.864 186.316 110.864C187.678 110.864 188.505 113.213 188.648 115.634L188.653 115.732C188.716 117.237 188.302 120.527 186.316 120.527C184.309 120.527 183.271 117.411 183.251 115.88ZM215.349 115.406L215.349 115.352C215.346 113.841 214.464 110.39 212.284 110.39C210.956 110.39 210.136 112.623 209.964 114.978L209.952 115.16C209.866 116.614 210.253 120.053 212.284 120.053C214.291 120.053 215.328 116.937 215.349 115.406ZM184.495 100.56C186.274 100.29 188.63 100.803 189.46 102.608C189.829 103.412 189.392 104.302 188.46 104.347C186.208 104.454 184.189 103.954 182.213 105.415C181.362 106.044 180.647 106.915 180.047 107.784L179.82 108.114L179.632 108.386C179.224 108.984 178.838 109.634 178.899 110.355C178.916 110.569 178.698 110.771 178.49 110.763C177.195 110.71 177.055 109.089 177.225 108.116C177.542 106.309 178.418 104.613 179.633 103.248C180.908 101.813 182.592 100.849 184.495 100.56ZM209.001 102.752C210.228 101.965 211.798 101.663 213.235 101.778C216.069 102.006 220.823 104.41 220.197 107.865C220.004 108.93 218.519 109.492 217.644 108.901C216.704 108.266 216.475 107.278 215.775 106.448C215.216 105.784 214.508 105.304 213.75 104.896C213.003 104.492 212.139 104.248 211.291 104.159L211.149 104.145C210.639 104.102 208.062 104.114 208.44 105.074C208.514 105.262 208.234 105.411 208.105 105.268C207.315 104.396 208.21 103.26 209.001 102.752Z" fill="black"/>
</svg>
