<svg width="391" height="780" viewBox="0 0 391 780" fill="none" xmlns="http://www.w3.org/2000/svg">
<path fill-rule="evenodd" clip-rule="evenodd" d="M273.952 718.54C275.386 712.757 273.277 708.144 267.22 704.737C266.699 703.361 254.994 698.899 245.692 692.349C237.336 686.465 231.275 678.386 231.021 677.938C231.021 677.938 229.142 673.576 228.928 671.607C227.901 662.164 228.495 655.974 227.86 653.037C232.134 652.477 242.641 375.464 240.942 366.283C243.725 365.672 246.677 365.028 249.33 363.462C249.542 363.408 249.194 362.794 249.204 362.679C255.86 349.637 245.649 305.289 239.249 293.011C244.331 292.878 251.025 292.189 254.172 287.953C255.661 287.464 256.6 286.612 257.323 285.242C258.156 283.937 258.928 282.569 259.624 281.166C263.01 274.145 265.099 266.349 263.97 258.614C264.185 258.546 265.293 258.539 265.349 258.229C265.457 256.328 265.108 254.652 264.535 252.856C258.72 232.626 251.72 212.709 242.468 193.664C237.831 183.47 228.239 179.75 218.299 175.923C213.518 174.048 208.734 171.884 203.744 170.656C203.681 170.308 203.979 169.248 203.325 169.334C202.517 169.502 202.676 170.798 202.377 171.526C190.837 162.098 198.155 157.24 191.197 152.076C183.998 148.346 175.217 148.195 167.279 149.002C164.351 149.087 162.007 150.404 161.317 153.346C158.799 159.434 152.901 163.914 146.466 165.288C145.934 164.343 144.472 161.634 143.653 162.489C134.359 162.806 120.268 166.211 111.57 168.758C102.837 170.984 94.0031 175.048 91.7184 184.518C87.573 201.393 94.1681 270.744 104.986 284.1L105.337 284.106C107.255 286.065 109.862 287.5 112.816 288.463C112.75 294.706 110.778 300.803 109.796 306.909C107.587 317.983 105.889 329.07 103.428 340.203C103.417 341.444 98.7343 358.418 103.351 355.014C104.304 355.482 105.471 355.992 106.497 356.429C101.593 367.585 99.3482 385.585 99.6959 399.367C99.7828 407.574 99.4427 414.763 97.5982 423.168C83.9513 494.38 71.9192 653.66 71.6363 655.789C71.3763 657.824 73.1031 668.871 71.6363 671.785C70.3345 674.372 64.7821 672.845 63.72 673.843C60.9615 678.326 62.2244 681.183 59.9619 685.66C58.8015 686.696 56.2072 688.963 55.356 690.556C53.633 692.212 25.0974 710.901 26.254 713.737C26.254 713.737 26.1238 715.097 26.0801 715.393C23.6473 729.521 27.6984 729.403 40.8054 731.482C59.9523 734.852 74.262 728.367 90.4436 719.702C95.8208 716.083 103.464 709.173 100.976 700.989C100.907 700.489 99.4317 691.88 98.8466 687.509C98.8466 687.509 100.432 684.009 94.2948 684.445C95.3041 683.34 97.5215 669.015 96.7651 667.12C96.2846 662.239 97.0306 657.808 96.7945 652.784C99.3656 652.975 144.504 439.391 172.817 426.119C172.993 427.537 172.653 430.178 174.54 430.443C183.297 498.632 204.353 651.39 205.32 651.658C203.868 659.445 203.912 677.496 203.885 685.226C203.663 685.433 202.644 686.341 202.48 686.562C202.446 686.505 201.782 687.167 201.748 687.184L201.658 686.979C198.676 693.691 194.329 700.604 198.171 707.182C195.32 706.974 195.777 712.451 195.65 714.971C197.274 719.902 243.442 733.208 253.759 733.839C257.149 734.43 272.935 729.418 275.973 728.698C279.91 727.964 276.048 720.661 273.952 718.54Z" fill="#D08B5B"/>
<path fill-rule="evenodd" clip-rule="evenodd" d="M202.78 686.282C201.904 689.549 203.495 691.183 207.552 691.183C213.638 691.183 217.496 681.849 220.506 680.78L221.676 680.357C223.436 679.712 226.42 678.598 230.63 677.013C230.754 677.312 230.884 677.62 231.021 677.938C231.275 678.386 237.336 686.465 245.692 692.349C254.994 698.899 266.699 703.361 267.22 704.737C273.277 708.144 275.386 712.757 273.953 718.54C276.048 720.661 279.91 727.964 275.974 728.698C272.936 729.418 257.149 734.43 253.759 733.839C243.442 733.208 197.274 719.902 195.65 714.971L195.66 714.736C195.753 712.127 195.405 706.981 198.171 707.182C194.406 700.735 198.505 693.967 201.478 687.382L201.658 686.979L201.748 687.184C201.782 687.167 202.446 686.505 202.48 686.562C202.522 686.506 202.62 686.405 202.746 686.282L202.78 686.282ZM80.4713 680.244L80.5128 680.385C81.2145 682.802 83.1345 691.183 85.3998 691.183C86.9408 691.183 88.842 690.23 91.1035 688.325L91.3647 688.084C93.3504 686.267 94.9534 685.043 96.1737 684.411C98.8315 684.543 99.7224 685.576 98.8466 687.509L98.9209 688.053C99.5475 692.556 100.91 700.508 100.976 700.989C103.464 709.173 95.8208 716.083 90.4436 719.702C74.262 728.367 59.9523 734.852 40.8054 731.482L39.6502 731.3C27.4612 729.397 23.7203 729.097 26.0801 715.393L26.0966 715.267C26.1498 714.826 26.254 713.736 26.254 713.736C25.0974 710.901 53.633 692.212 55.356 690.556C56.2072 688.962 58.8015 686.696 59.9619 685.659C62.2244 681.183 60.9615 678.326 63.72 673.842C64.466 673.141 67.4273 673.686 69.5749 673.177C73.1969 673.768 79.8271 678.101 80.4713 680.244Z" fill="white"/>
<path fill-rule="evenodd" clip-rule="evenodd" d="M146.193 164.804L146.466 165.288C153.017 184.367 163.756 194.634 178.681 196.09C193.606 197.547 201.306 192.769 201.781 181.758L203.44 169.331C203.942 169.382 203.685 170.331 203.743 170.657C208.734 171.885 213.518 174.049 218.299 175.924L219.787 176.498C229.185 180.139 238.063 183.98 242.468 193.664C251.72 212.71 258.72 232.627 264.535 252.857C265.107 254.653 265.457 256.328 265.348 258.23C265.293 258.539 264.185 258.546 263.97 258.615C265.099 266.35 263.01 274.145 259.624 281.166C258.928 282.569 258.156 283.938 257.323 285.242C256.6 286.612 255.661 287.464 254.172 287.953C251.025 292.189 244.331 292.879 239.249 293.011C245.649 305.289 255.86 349.637 249.203 362.679C249.193 362.794 249.338 366.126 249.126 366.181C246.473 367.747 241.697 368.651 238.914 369.262L233.927 369.973C234.106 371.197 241.168 372.118 241.073 379.162L103.308 383.246C104.292 373.451 104.223 366.883 107.345 359.782L103.545 358.359C102.637 357.969 104.167 355.416 103.351 355.015C98.7342 358.418 103.417 341.444 103.428 340.204C105.889 329.07 107.587 317.984 109.796 306.909C110.778 300.803 112.749 294.707 112.816 288.463C109.923 287.521 107.364 286.125 105.458 284.228L105.337 284.106L104.986 284.1C94.168 270.744 87.5729 201.393 91.7183 184.518C94.0029 175.048 102.837 170.984 111.57 168.758L112.098 168.605C120.83 166.076 134.545 162.8 143.653 162.489C144.357 161.754 145.538 163.656 146.193 164.804ZM157.854 239.426C150.758 239.426 143.216 240.262 135.229 241.933L133.974 243.697L135.229 254.316C140.142 253.804 145.318 254.491 150.756 256.377L151.015 256.468C156.547 258.423 160.502 259.923 162.878 260.969L171.492 268.207L168.729 281.131L169.396 281.162C180.184 281.646 186.248 281.105 187.586 279.54C188.951 277.942 189.557 276.326 189.403 274.69L189.138 274.059C184.86 263.823 182.991 257.242 183.53 254.316C184.081 251.331 184.081 248.991 183.53 247.297L182.931 246.985C173.167 241.945 164.808 239.426 157.854 239.426Z" fill="#9DDADB"/>
<path fill-rule="evenodd" clip-rule="evenodd" d="M163.237 151.689C164.732 151.643 165.017 153.52 163.996 154.298L163.953 154.329C163.083 154.945 162.674 155.496 162.201 156.48C159.897 162.567 153.399 166.058 147.043 164.765C149.251 168.875 150.733 172.852 152.943 176.892C163.118 197.811 196.534 204.616 200.53 175.915C194.407 174.734 190.779 160.992 194.708 156.892L194.814 157.391C195.946 162.773 196.721 168.284 200.809 172.342C200.934 172.379 201.053 172.39 201.17 172.39C201.326 171.653 201.505 170.924 201.729 170.209C202.273 168.465 204.996 168.793 204.92 170.68C213.073 173.16 220.909 176.672 228.708 180.065C235.192 182.888 240.493 187.937 243.514 194.331C251.982 211.821 258.448 230.284 264.085 248.857C264.463 251.367 268.678 260.695 265.277 261.592C266.112 269.276 263.978 277.049 260.682 283.949C259.152 286.542 258.073 290.137 255 291.218C251.81 295.217 245.976 296.254 241.12 296.537C247.652 311.883 256.527 350.974 250.525 366.223C251.058 368.725 244.142 369.913 242.291 370.485C243.783 379.38 243.457 388.543 242.814 397.502C236.791 473.917 235.648 550.751 241.985 627.186C242.358 631.95 242.759 636.714 243.184 641.475L243.441 644.33C243.779 648.132 244.065 651.918 243.977 655.75C243.949 657.08 242.845 657.879 241.74 657.947C238.031 660.309 233.05 660.329 228.759 660.898C229.517 665.026 229.942 671.467 231.268 674.941C234.029 674.221 235.808 676.79 233.057 678.241C236.444 680.116 238.187 683.707 240.898 686.228C248.347 683.209 249.734 687.72 243.647 688.749C245.302 690.128 247.059 691.401 248.875 692.61L249.004 692.592C251.151 692.267 255.199 690.495 256.216 692.842C256.672 694.541 254.57 695.081 253.048 695.287C254.399 696.137 255.754 696.983 257.11 697.827C258.296 697.306 259.473 696.655 260.682 696.238C263.66 695.576 263.917 699.433 260.031 699.65C262.465 701.445 265.825 700.411 267.381 702.944C273.074 705.238 275.765 712.166 274.436 717.703C276.435 719.477 277.839 722.136 278.001 724.808C278.386 727.671 276.103 730.365 273.011 731.118C269.527 732.275 265.994 733.332 262.47 734.324L262.1 734.451C259.196 735.439 256.024 736.324 253.003 736.152C235.089 735.085 211.201 727.741 196.863 718.603C193.287 715.92 192.662 709.286 197.583 707.164C195.315 703.061 196.399 700.079 197.36 695.61C198.028 692.695 198.934 689.704 200.575 687.007C200.721 686.767 201.071 686.839 201.09 687.075C201.305 690.125 201.02 693.245 200.792 696.315L200.767 696.656C200.564 699.489 200.104 700.531 200.874 703.212C202.716 710.053 220.48 713.47 227.461 716.291C232.941 717.985 238.505 719.502 244.147 720.836L244.561 720.926C249.323 721.972 254.227 723.554 259.243 722.732C261.845 720.844 265.749 721.375 268.305 719.215C272.161 715.059 269.129 708.968 266.428 705.192C263.815 706.024 261.582 703.786 259.659 702.602L259.588 702.559C257.624 701.319 255.665 702.188 253.698 700.951L253.254 701.035C246.028 702.409 240.434 703.977 251.958 699.864C250.06 698.68 248.157 697.485 246.313 696.23C242.528 696.685 238.381 698.669 234.864 698.849C237.231 696.647 240.461 695.428 243.504 694.218C241.732 692.875 240.046 691.438 238.538 689.858L237.098 690.216C228.247 692.41 224.768 693.044 236.683 687.695C234.34 685.098 233.959 681.253 231.383 678.81C227.24 679.676 223.433 681.495 220.058 683.843C218.694 684.818 217.666 686.037 216.585 687.257C211.463 693.832 203.529 694.847 201.106 686.318C201.064 686.143 201.339 686.034 201.416 686.182L201.425 686.203C202.584 688.822 206.325 690.946 209.449 689.318L209.543 689.268C212.599 687.678 214.018 684.436 216.425 682.228C219.672 679.301 223.744 677.339 227.944 675.866C226.926 672.152 226.582 665.392 226.698 661.035C219.625 661.369 212.506 661.029 205.559 659.687C206.672 667.786 205.94 678.326 206.452 685.549C207.191 687.973 202.692 689.487 202.214 687.073C201.95 679.258 202.716 667.986 203.908 659.265L203.409 659.144C202.938 659.027 202.443 658.886 202.039 658.658C197.581 659.162 198.797 647.855 198.048 644.675C193.018 574.548 182.422 505.05 173.417 435.385C172.168 434.908 171.947 433.379 171.74 432.1C160.393 439.766 158.132 455.085 153.052 466.96C130.869 528.445 120.958 593.312 105.583 656.627L105.668 656.649C105.728 656.667 105.729 656.676 105.602 656.667L105.573 656.665V656.67C106.523 656.795 107.272 657.791 106.692 658.718C104.961 662.204 100.163 660.97 97.0047 660.749C97.3113 666.118 96.1592 677.703 96.8893 682.487C100.785 682.559 101.033 686.838 101.549 689.382L101.589 689.644C102.277 693.99 104.591 702.139 102.863 705.653C105.535 708.826 103.613 713.137 100.841 715.303C97.8723 717.492 94.1774 718.775 90.8219 720.462C75.0291 726.829 59.7502 739.106 40.3972 734.382L39.5547 734.205C25.9908 731.344 22.0938 730.073 24.7875 716.675C23.6813 713.953 23.6739 710.971 25.2304 708.563C28.0062 705.008 32.67 703.063 36.381 700.362C42.6667 696.147 49.3565 692.461 55.4958 688.073C55.2676 687.876 55.5844 687.803 55.7706 687.836C60.1034 684.451 59.698 678.59 62.7207 674.409C63.4767 672.254 67.2938 671.728 69.8077 672.027C69.0223 668.011 72.8589 649.729 73.3463 662.642L73.3461 662.828C73.3556 664.821 73.6827 671.477 73.0945 672.78C81.4385 675.325 83.2377 683.324 85.0234 689.784L85.1383 689.815C85.7083 689.962 86.4718 690.081 86.7568 690.639C89.44 688.937 90.1897 685.587 92.7883 683.784C92.0595 683.215 92.021 682.13 92.3929 681.288C93.6031 676.859 94.3287 665.588 96.1569 660.642C87.5671 659.358 78.8164 658.704 70.4273 656.374C69.3372 657.442 67.1001 657.063 67.1879 655.134C69.7861 613.098 74.2547 571.191 79.8877 529.457C84.5192 490.392 92.667 451.825 98.3423 412.964L98.3903 407.631C98.5435 391.597 98.9727 375.324 104.963 360.229C104.436 360 103.913 359.763 103.398 359.514C96.9024 362.201 102.02 345.873 102.259 342.93C105.451 325.869 109.211 308.812 111.609 291.644C109.096 290.737 106.775 289.45 104.839 287.58C93.103 278.045 86.2994 200.829 90.5649 185.304C92.7914 175.537 102.227 170.74 111.219 168.532L112.547 168.158C122.591 165.338 132.808 162.783 143.265 162.155C143.637 161.818 144.732 161.915 144.876 162.196C145.531 162.59 146.152 163.358 146.678 164.17C161.192 162.506 157.266 153.037 163.237 151.689ZM197.96 707.782C195.928 712.387 198.628 715.89 203.155 717.827C218.831 725.08 236.332 730.91 254.298 732.023C259.78 730.7 265.21 728.513 270.765 727.16L271.004 727.117C272.96 726.759 273.878 726.4 273.711 724.372L273.782 723.553C273.907 722.096 274.013 720.643 273.912 719.187C272.203 723.265 267.087 725.507 262.603 726.331C255.493 729.698 247.53 726.274 240.545 724.831C229.198 721.388 204.651 715.978 197.96 707.782ZM99.4774 707.878L99.2427 707.949C97.2078 708.578 95.1386 709.348 92.8579 708.781C82.6696 712.228 72.7527 716.138 62.9104 720.208C52.2909 725.282 35.1911 731.181 25.9884 718.919C27.3115 725.351 25.441 727.55 34.2274 729.155C48.169 733.692 59.3711 731.369 70.9397 725.169C79.4155 721.056 88.5318 717.787 96.7358 713.317L96.8466 713.239C98.4603 712.089 100.407 709.992 99.4774 707.878ZM78.3167 680.189C75.6566 675.291 68.4982 672.601 63.1744 674.407C62.6327 679.13 64.036 684.418 61.0308 688.52C63.6919 688.986 66.3445 689.522 68.9932 690.077L71.4169 690.589C72.6065 690.849 74.1202 691.294 73.9215 692.553C73.7017 693.945 71.8714 693.52 70.6533 693.169L70.1813 693.031C66.7605 692.026 63.3454 691.001 59.968 689.853C58.1878 691.808 55.798 693.342 53.4803 694.823L54.4416 694.932C57.8095 695.309 61.21 695.652 64.5376 696.333C65.9915 696.763 65.6778 698.741 64.1901 698.583C60.2174 697.548 56.2551 696.379 52.2143 695.637C50.2391 696.94 48.2731 698.25 46.2932 699.547C50.1873 700.11 54.0985 700.16 57.9907 700.492C60.5107 700.724 60.51 704.161 57.9905 703.963C53.4437 703.547 48.8999 702.204 44.5709 700.679L42.2894 702.176C39.6265 703.922 36.9578 705.664 34.2624 707.368C32.6406 708.399 30.546 709.38 29.4127 710.874C25.8337 716.642 34.7766 722.155 40.8198 722.064C49.998 722.161 57.6423 717.405 65.6823 714.558C70.1297 713.46 92.7413 702.162 94.7989 705.135C96.0926 704.515 97.8918 704.292 98.8232 703.27C99.0118 698.546 98.0146 693.597 97.1776 688.833C97.0071 688.001 96.5996 687.004 96.554 686.15C92.7874 687.536 91.7149 692.783 86.7571 692.336C85.9812 693.573 83.5916 692.997 82.5134 692.015C81.34 690.946 81.1927 689.441 80.9127 688.1L80.7829 687.484C80.2565 685.014 79.6255 682.484 78.3167 680.189ZM189.928 279.54L189.322 279.693C183.152 281.233 176.699 282.348 170.358 281.934C169.262 286.073 169.834 295.916 165.376 297.489C163.853 298.062 161.561 297.597 160.863 296.045C151.642 295.882 142.356 295.059 133.135 294.512C126.193 293.967 118.991 293.988 112.309 291.886C113.119 295.955 113.397 299.949 112.944 304.11C111.385 321.858 106.254 339.149 104.534 356.821L104.455 357.663L104.405 357.634C104.405 357.667 104.403 357.701 104.4 357.734C104.901 357.878 105.402 358.03 105.901 358.184C106.079 358.094 106.322 358.182 106.45 358.352C143.174 369.752 182.155 374.703 220.43 369.686C227.133 368.851 233.788 367.681 240.396 366.295C240.338 365.705 241.24 365.55 241.398 366.107C242.865 365.852 244.331 365.573 245.79 365.384C245.614 364.889 245.583 364.354 245.763 363.87C248.608 355.352 247.308 345.64 246.411 336.806C245.267 323.243 242.415 309.939 240.111 296.559C229.205 296.064 218.363 294.287 207.404 294.51C206.25 297.496 202.225 300.005 199.074 298.297C196.85 297.098 196.191 294.484 195.298 292.323C193.533 288.052 191.73 283.796 189.928 279.54ZM143.715 162.56C132.262 165.937 120.529 168.348 109.18 172.096C99.7483 174.441 93.3097 180.347 92.9121 190.419C92.1339 211.995 94.504 233.679 98.0816 254.942L98.2683 255.902C100.253 266.149 102.033 276.575 105.781 286.342C111.253 288.881 117.466 289.605 123.453 289.898C132.19 290.342 140.926 290.798 149.655 291.368L156.499 291.811C158.484 291.94 161.245 291.6 162.738 293.141C162.87 293.359 163.139 293.331 163.343 293.466L163.383 293.496C163.601 293.643 163.821 294.002 164.135 293.932C164.645 293.774 164.841 292.758 164.961 292.273L164.972 292.229C165.637 289.634 166.118 286.982 166.732 284.373C168.131 279.238 168.734 273.81 170.861 268.895C167.817 266.956 164.949 264.74 162.49 262.109L159.525 261.067C152.432 258.583 145.259 256.177 137.866 254.688C137.689 256.307 135.36 257.233 134.491 255.539C133.052 251.221 132.785 246.533 131.792 242.082C129.538 228.805 126.861 215.576 125.302 202.192C129.6 214.046 131.826 228.594 135.11 241.405C135.262 241.317 135.473 241.368 135.48 241.578C147.108 237.189 160.018 237.368 171.493 242.025C174.368 243.176 177.287 244.209 180.147 245.396C181.123 245.946 183.068 245.912 183.396 247.115C183.748 246.299 184.22 245.534 184.847 245.018C185.042 244.616 187.265 243.897 187.482 244.693C200.519 246.479 213.195 252.139 226.609 251.184C225.021 245.4 225.209 239.155 225.103 233.182L225.135 232.509C225.411 226.625 225.611 219.343 227.609 214.501C226.331 226.69 227.259 238.901 228.82 250.977C238.281 249.759 233.925 255.158 227.623 254.956C214.906 255.87 203.169 250.257 191.465 246.166C185.073 243.616 184.348 245.776 184.633 251.838C184.639 259.73 188.22 266.933 191.464 273.936L192.922 277.206C195.344 282.648 197.733 288.056 200.087 293.563C210.369 290.16 221.946 292.027 232.599 292.647C240.727 293.666 246.563 293.304 253.44 288.612C255.92 283.883 259.188 279.398 260.466 274.063C261.948 269.174 262.442 264.053 262.874 258.987L262.484 257.569C257.473 239.379 251.927 221.278 244.348 203.952L243.938 202.997C241.369 196.997 238.759 190.701 233.561 186.498C224.837 180.069 214.048 177.218 204.878 171.498L204.819 171.917C203.889 178.478 202.281 185.28 198.073 190.559C190.298 200.087 175.617 200.356 165.667 194.167C155.316 188.456 149.105 177.821 146.084 166.705L146.049 166.583C145.766 165.592 144.978 162.593 143.715 162.56ZM171.826 269.497C171.82 272.991 171.129 276.435 170.661 279.884C176.043 278.824 181.408 278.085 186.701 276.652C181.545 274.708 176.535 272.367 171.826 269.497ZM158.868 241.315C151.021 239.782 142.988 240.699 135.229 241.933C136.072 245.845 137.035 249.721 137.84 253.638C140.618 253.511 166.977 258.169 164.002 261.909C167.893 263.985 171.578 266.426 175.451 268.548C179.347 270.681 183.402 272.515 187.586 274.004L187.365 273.514C183.764 265.486 180.4 256.452 183.175 247.678C179.444 249.173 174.351 245.963 170.737 244.762C166.9 243.225 162.948 242.013 158.868 241.315ZM102.377 210.229C102.403 208.764 106.936 212.963 107.527 213.399L107.885 213.722C112.235 217.662 116.532 221.996 118.955 227.401C119.132 232.714 111.199 219.844 110.099 219.058C107.699 215.975 104.776 213.298 102.377 210.229ZM227.806 222.733C226.58 223.136 229.927 218.985 231.232 219.288C231.752 219.212 232.203 219.964 231.627 220.222L231.341 220.348C230.001 220.928 228.632 221.423 227.806 222.733Z" fill="black"/>
<path fill-rule="evenodd" clip-rule="evenodd" d="M153.223 48.9474C168.156 48.1321 181.387 43.9358 191.899 53.3273C191.899 53.3273 208.905 40.6266 211.742 45.4638C213.644 48.7051 211.007 53.0563 211.714 57.056C216.324 64.9154 216.063 78.2183 216.324 81.3358C216.981 89.1935 221.119 118.762 221.119 125.784C221.119 129.368 218.164 138.754 216.324 143.978C212.228 155.605 204.41 161.53 191.589 161.53C178.767 161.53 157.84 150.813 151.129 141.298C150.541 140.464 146.737 142.897 142.758 138.677C138.448 134.105 136.057 125.385 136.057 120.187C136.057 113.591 131.795 109.017 132.291 100.573C133.398 81.7171 137.243 49.8198 153.223 48.9474Z" fill="#D08B5B"/>
<path fill-rule="evenodd" clip-rule="evenodd" d="M211.758 45.4182C213.659 48.6595 211.022 53.0107 211.729 57.0103C213.508 60.0432 214.562 63.8867 215.2 67.6427L211.714 69.4929L210.424 69.6821C189.511 72.7658 176.163 75.541 170.38 78.0077C164.539 80.4997 157.45 89.2518 149.114 104.264L148.861 104.721L147.209 115.925L139.636 118.248L136.071 119.937C135.985 113.45 131.815 108.884 132.306 100.528C133.413 81.6714 137.258 49.7741 153.238 48.9017C168.172 48.0864 181.403 43.8901 191.915 53.2816C203.252 44.8145 209.866 42.1933 211.758 45.4182Z" fill="#9FD8E5"/>
<path fill-rule="evenodd" clip-rule="evenodd" d="M151.554 27.0245C151.749 27.0127 151.945 27.0221 152.142 27.0413C152.358 27.0508 152.573 27.0719 152.789 27.1148C153.886 27.3255 154.865 27.9062 155.623 28.7239C155.645 28.7452 155.661 28.7691 155.68 28.7902C156.036 29.0581 156.365 29.3617 156.661 29.6838C156.714 29.634 156.763 29.5845 156.818 29.5347C156.974 29.397 157.138 29.2666 157.308 29.1436C158.022 28.5313 158.86 28.0861 159.761 27.8329L159.884 27.7995C159.908 27.7924 159.932 27.7877 159.956 27.7829C160.595 27.5699 161.268 27.4608 161.946 27.463C162.757 27.4369 163.57 27.5699 164.328 27.8825C165.226 28.2548 166.008 28.8424 166.665 29.5489C167.096 29.8997 167.473 30.2858 167.871 30.7103C168.693 31.5893 169.343 32.6179 169.753 33.7511C169.81 33.9099 169.859 34.0732 169.904 34.2367C170.907 34.1208 171.914 34.0379 172.921 33.9973C174.052 33.9288 175.182 33.9049 176.315 33.9431C179.436 34.0447 182.488 34.5948 185.444 35.6021C186.036 35.7773 186.612 36.0001 187.167 36.275C188.036 36.621 188.859 37.0619 189.634 37.5952L190.294 37.9867C190.625 38.1838 190.957 38.3834 191.278 38.5882C192.044 39.0791 192.769 39.6287 193.456 40.2212C194.181 40.8069 194.866 41.4444 195.518 42.1126C195.695 42.2934 195.866 42.4766 196.034 42.661C197.537 43.4718 198.871 44.5099 200.116 45.7481C201.103 45.1802 202.125 44.6654 203.18 44.2077C204.268 43.7361 205.649 43.2502 206.789 42.9305C207.813 42.6437 208.825 42.447 209.851 42.3022C210.318 42.2216 210.787 42.1576 211.259 42.1031L211.24 42.1104C211.572 42.0746 211.901 42.0438 212.235 42.0154L212.226 42.013C212.368 42.0014 212.512 41.9893 212.655 41.9798L213.001 41.9516C213.105 41.9422 213.257 42.186 213.266 42.2714L213.278 42.3591C213.356 42.447 213.427 42.5442 213.477 42.6034C213.539 42.5984 213.6 42.5939 213.662 42.5913C213.847 42.575 214.06 42.9042 214.169 43.0298L214.268 43.1456C214.38 43.2806 214.492 43.4362 214.51 43.6057C214.631 44.5896 214.745 45.5753 214.849 46.5612C214.889 47.3078 214.849 48.0473 214.726 48.7797C214.633 49.4907 214.539 50.2017 214.444 50.9104C214.292 51.4083 214.143 51.9061 213.994 52.4035C213.934 52.5934 213.868 52.7804 213.804 52.9676C213.425 54.2181 212.981 55.4354 212.452 56.615C212.838 57.0421 213.198 57.4848 213.532 57.942C213.613 58.0242 213.693 58.106 213.768 58.1913C213.79 58.1584 213.821 58.1276 213.854 58.1107C213.968 58.061 214.051 58.1202 214.122 58.2176C214.868 58.9308 215.411 59.7629 215.747 60.7131L215.957 61.2087C215.992 61.2915 216.026 61.3744 216.06 61.4573C216.328 62.1781 216.534 62.9175 216.705 63.6663C216.857 64.2555 216.967 64.8527 217.038 65.4564C217.549 67.1754 217.954 68.934 218.336 70.669C218.396 70.942 218.368 71.1856 218.28 71.3933L218.504 71.6108L218.885 71.9907C219.526 72.6297 220.179 73.3013 220.655 74.0615C221.148 74.8508 221.511 75.6945 221.914 76.5314L222.001 76.7092L222.178 77.0656C222.37 77.4548 222.462 77.6699 222.632 78.1405C222.914 78.9252 223.066 79.7142 223.137 80.5463C223.241 81.7572 223.227 83.0774 222.696 84.2032C222.693 84.2127 222.689 84.22 222.684 84.2269C222.442 85.315 221.845 86.3244 220.937 86.9691C220.743 87.1518 220.535 87.3154 220.312 87.4455C219.777 87.7595 219.286 87.7875 218.703 87.6423L218.629 87.6232C218.556 87.6043 218.489 87.5877 218.425 87.5735C218.52 87.6517 218.568 87.7443 218.425 87.8105C218.288 87.8768 218.165 87.9148 218.049 87.929C218.098 87.993 218.103 88.0617 217.999 88.1186C217.771 88.2395 217.586 88.2776 217.397 88.2442L217.437 88.5737C217.748 91.0671 218.026 91.5602 218.269 94.2384C218.43 96.9804 218.686 99.7155 219.039 102.439L219.161 103.429C219.551 106.565 219.989 109.725 220.66 112.81C220.999 114.159 221.29 115.517 221.537 116.884C221.885 117.925 222.129 118.989 222.265 120.075C222.461 121.179 222.596 122.293 222.675 123.416C222.947 124.135 223.08 124.865 223.073 125.609C223.108 126.609 223.075 127.607 222.968 128.6C222.909 129.633 222.767 130.657 222.542 131.672C222.34 133.063 221.973 134.407 221.447 135.71C221.025 137.165 220.508 138.592 219.921 139.988C219.008 142.15 217.906 144.157 216.653 146.136C215.477 147.992 214.216 149.779 212.776 151.441C210.913 153.588 208.789 155.555 206.462 157.214C205.135 158.196 203.734 159.077 202.27 159.831C200.478 160.755 198.658 161.587 196.717 162.149C195.506 162.499 194.274 162.741 193.027 162.926C190.579 163.289 188.043 163.234 185.581 162.81C183.993 162.597 182.432 162.227 180.955 161.698C179.742 161.262 178.585 160.762 177.429 160.198C176.834 159.911 176.26 159.579 175.711 159.207C174.786 158.608 173.921 157.93 173.116 157.181C172.852 156.956 172.596 156.726 172.345 156.484C172.224 156.377 172.291 156.219 172.431 156.181L172.473 156.176C172.419 156.126 172.362 156.076 172.307 156.024C172.296 156.015 172.286 156.003 172.277 155.991C172.25 155.967 172.222 155.944 172.198 155.92C172.106 155.839 172.198 155.659 172.279 155.617C172.31 155.6 172.35 155.598 172.395 155.602C172.386 155.593 172.378 155.586 172.369 155.579C172.36 155.572 172.357 155.553 172.36 155.534L172.324 155.506C172.203 155.399 172.265 155.242 172.407 155.202C172.476 155.181 172.591 155.192 172.71 155.218L172.755 155.228L172.675 155.152C172.533 155.029 172.578 154.891 172.753 154.849C172.884 154.857 173.013 154.875 173.141 154.906L173.236 154.932C173.284 154.944 173.329 154.958 173.376 154.972C173.296 154.899 173.215 154.828 173.137 154.754C173.059 154.685 173.142 154.489 173.213 154.448C173.31 154.394 173.499 154.47 173.587 154.534C173.803 154.557 174.087 154.652 174.191 154.742C174.478 155.017 174.774 155.28 175.075 155.536C175.258 155.593 175.431 155.669 175.564 155.783C175.905 156.11 176.26 156.418 176.623 156.716L176.899 156.906C176.945 156.938 176.991 156.968 177.038 156.998C177.559 157.304 178.08 157.608 178.599 157.913C180.502 158.558 182.405 159.203 184.306 159.845L184.557 159.921L186.403 160.148C187.617 160.276 188.833 160.269 190.046 160.129C190.956 160.141 191.859 160.051 192.748 159.866C194.257 159.61 195.738 159.234 197.179 158.707C198.838 158.103 200.419 157.307 201.962 156.449C202.516 156.138 203.061 155.809 203.597 155.46C203.77 155.337 203.943 155.211 204.116 155.083C205.256 154.228 206.346 153.315 207.396 152.351C207.889 151.898 208.363 151.427 208.82 150.938C208.887 150.867 208.951 150.798 209.015 150.727C209.453 150.248 209.877 149.753 210.282 149.241L210.669 148.805C212.228 146.864 213.614 144.776 214.861 142.626C216.098 140.495 217.117 138.253 217.928 135.933C218.188 135.106 218.416 134.267 218.605 133.419C218.956 132.399 219.186 131.354 219.293 130.288C219.328 130.079 219.357 129.87 219.385 129.662L219.401 129.333C219.404 129.278 219.406 129.223 219.406 129.169C219.454 128.837 219.494 128.505 219.525 128.173C219.544 127.839 219.556 127.505 219.558 127.171L219.532 125.121C219.525 125.057 219.518 124.99 219.513 124.924L219.461 124.471C219.347 123.537 219.26 122.601 219.146 121.668C219.146 121.663 219.146 121.656 219.143 121.648C219.101 121.3 219.056 120.949 219.004 120.598C218.977 120.39 218.944 120.181 218.914 119.973L218.854 119.608C218.744 118.973 218.611 118.344 218.449 117.72L218.378 117.453L217.966 115.379L217.501 113.339C217.2 111.971 216.949 110.594 216.75 109.205C216.39 106.992 216.081 104.776 215.814 102.55C215.799 102.443 215.785 102.334 215.773 102.228C215.501 100.164 215.304 98.092 215.176 96.0134C215.003 93.9659 214.904 91.9131 214.878 89.8585C214.875 89.7658 214.937 89.6902 215.01 89.6473L215.004 89.2523C214.995 88.9028 214.989 89.322 214.986 88.9236L214.981 87.8277C214.981 87.7364 214.982 87.6728 214.984 87.6683C213.718 87.7558 212.866 87.6841 211.644 87.6197L211.437 87.609C210.316 87.5571 209.202 87.4339 208.095 87.2488C208.09 87.3059 208.052 87.3459 207.988 87.3578C207.875 87.3625 207.768 87.3625 207.659 87.3651L207.699 87.5189C207.702 87.5974 207.666 87.6469 207.59 87.6683L207.274 87.6825C206.852 87.7002 206.428 87.7086 206.009 87.6517C205.633 87.6021 205.265 87.5142 204.9 87.4099C204.675 87.372 204.445 87.3201 204.211 87.2535C203.609 87.0805 203.012 86.8482 202.407 86.6636C201.791 86.533 201.165 86.4906 200.511 86.6468C199.819 86.8103 199.234 87.1065 198.509 86.9264C198.364 86.8911 198.224 86.8366 198.085 86.7795L197.955 86.7705C197.933 86.7685 197.911 86.7661 197.888 86.7629C197.132 86.6541 196.459 86.1753 195.738 85.9191C195.487 85.8579 195.237 85.8734 194.993 85.9751L194.933 86.0023L194.693 86.1801C194.597 86.2937 194.502 86.4085 194.407 86.5236L194.267 86.6965C194.008 87.0165 193.733 87.3033 193.399 87.5118C192.996 87.8839 192.518 88.102 191.947 88.1162C191.622 88.1257 191.3 88.057 190.987 87.9577C189.807 88.3227 188.543 88.3961 187.366 88.0406C186.899 87.9693 186.441 87.8439 186.003 87.6469C185.797 87.5545 185.591 87.4455 185.392 87.3246C184.56 87.6756 183.773 88.1423 182.969 88.5454L182.789 88.6363C181.968 89.0453 181.059 89.444 180.13 89.3845C178.96 89.3084 177.81 89.1522 176.663 88.9552C176.654 88.9552 176.642 88.9529 176.632 88.9505L176.475 88.9242L175.901 88.8235L175.438 88.7374L175.202 88.828C173.302 89.5468 171.221 90.1075 169.312 89.6046C168.48 89.503 167.7 89.223 166.996 88.7467C166.973 88.7301 166.949 88.7135 166.925 88.6945C166.814 88.6376 166.71 88.5739 166.617 88.5051L166.597 88.4896L166.579 88.4741L166.57 88.4694C165.53 87.9908 164.932 86.9715 165.037 85.8293C164.973 85.4664 164.975 85.1109 165.046 84.7319C164.707 85.1323 164.361 85.5283 164.01 85.9215C162.727 87.4665 161.471 89.0423 160.308 90.6828L160.041 91.0625C159.401 91.9653 158.806 92.8993 158.256 93.8613C157.699 94.8118 157.128 95.7529 156.538 96.682C155.771 97.53 155.029 98.3983 154.314 99.2879L154.009 99.6704L152.981 101.024C152.253 101.887 151.649 102.83 151.173 103.854C150.782 104.582 150.421 105.323 150.097 106.084C149.993 106.314 149.893 106.546 149.796 106.778C149.462 107.686 149.18 108.611 148.959 109.566C148.782 110.257 148.655 110.957 148.58 111.668L148.556 111.905C148.528 112.185 148.507 112.464 148.495 112.744C148.564 112.784 148.62 112.825 148.663 112.865L148.836 112.927L148.976 112.968C149.194 113.036 149.571 113.176 149.481 113.348L149.023 114.221C149.071 114.271 149.092 114.322 149.061 114.38C148.755 114.965 148.447 115.55 148.139 116.136C148.13 116.157 148.113 116.173 148.097 116.186C148.36 116.306 148.616 116.439 148.86 116.583C149.336 116.868 149.687 117.197 150.012 117.581C150.353 117.785 150.675 118.008 150.978 118.264C151.353 118.657 151.68 119.089 151.957 119.556C152.213 119.996 152.422 120.456 152.583 120.937C152.654 121.191 152.687 121.454 152.685 121.722C152.398 123.746 150.083 122.359 150.038 122.182C149.72 120.959 149.355 120.186 148.535 119.276L148.514 119.262C148.04 119.053 147.571 118.847 147.08 118.686C147.006 118.7 146.931 118.71 146.855 118.721C146.94 118.842 146.897 118.961 146.724 118.982C145.978 119.129 145.224 119.169 144.466 119.105L143.314 118.942C142.836 119.125 142.38 119.36 141.949 119.641L141.807 119.736L141.781 119.755C140.669 120.648 139.812 121.836 139.224 123.13C139.172 123.245 139.122 123.361 139.074 123.479L139.003 123.656L138.999 123.665C138.231 126.683 138.916 129.996 140.319 132.733C141.084 133.959 141.883 135.16 142.717 136.338L143.528 137.398C144.006 137.848 144.475 138.31 144.933 138.784C145.004 138.856 145.08 138.926 145.156 138.995C145.397 139.154 145.644 139.294 145.895 139.413C145.992 139.445 146.092 139.476 146.191 139.503C146.675 139.735 147.182 139.858 147.715 139.872C148.419 139.919 149.103 139.836 149.764 139.627L149.895 139.583L149.993 139.547C150.353 139.317 150.687 139.031 151.004 138.694C151.076 138.621 151.208 138.621 151.36 138.661C151.443 138.576 151.526 138.486 151.604 138.388C151.659 138.329 151.744 138.327 151.81 138.372C152.035 138.346 152.644 138.692 152.486 138.874C152.46 138.917 152.426 138.955 152.398 138.995C152.505 139.05 152.611 139.111 152.706 139.176C153.204 139.314 153.939 139.81 153.879 139.96L153.872 139.972C153.757 140.189 153.607 140.372 153.423 140.517L153.36 140.564L153.22 140.661C153.417 140.785 153.583 140.927 153.5 141.026C153.462 141.1 153.422 141.171 153.374 141.235C153.777 141.733 154.178 142.235 154.576 142.738C154.974 143.601 155.467 144.406 156.055 145.153C156.545 145.963 157.135 146.691 157.825 147.34C157.882 147.397 157.941 147.452 157.998 147.506C158.506 147.882 159.038 148.233 159.591 148.571L159.83 148.715C159.956 148.791 160.166 148.886 160.067 149.068C160.055 149.092 160.041 149.111 160.024 149.125C160.373 149.353 160.733 149.568 161.105 149.767L161.14 149.789C161.281 149.879 161.471 150.042 161.271 150.175C161.1 150.289 160.648 149.981 160.434 149.838C160.394 149.838 160.347 149.827 160.299 149.813C160.37 149.85 160.44 149.891 160.511 149.931L160.619 149.99C160.702 150.04 161.11 150.31 160.825 150.424C160.685 150.436 160.557 150.4 160.439 150.319C160.299 150.251 160.162 150.178 160.027 150.101C160.074 150.175 160.074 150.248 159.956 150.296C159.915 150.298 159.875 150.296 159.835 150.291C160.114 150.469 160.401 150.635 160.697 150.791L160.745 150.821C160.87 150.902 161.07 151.057 160.925 151.19C160.761 151.336 160.311 151.023 160.195 150.953L159.849 150.746C159.823 150.758 159.794 150.763 159.764 150.765C159.868 150.829 159.965 150.898 160.072 150.959L160.217 151.038C160.399 151.139 160.655 151.304 160.562 151.469C160.469 151.632 160.193 151.498 160.014 151.392L159.822 151.273C159.814 151.268 159.805 151.263 159.797 151.258L159.789 151.287C159.788 151.291 159.786 151.296 159.783 151.301C159.694 151.455 159.47 151.354 159.316 151.265L159.192 151.19C158.982 151.063 158.774 150.938 158.568 150.811L158.259 150.621H158.254C157.185 149.978 156.197 149.339 155.266 148.514C154.709 148.021 154.19 147.499 153.697 146.942C152.706 145.826 151.969 144.549 151.258 143.245C151.246 143.223 151.263 143.169 151.291 143.11C151.213 142.949 151.137 142.785 151.061 142.617C150.331 142.821 149.516 142.88 148.765 142.83C148.362 142.804 147.964 142.733 147.568 142.626C146.305 142.451 145.087 141.875 144.035 141.185C143.968 141.142 143.909 141.095 143.847 141.053C143.414 140.808 143.001 140.524 142.61 140.199C141.847 139.569 141.12 138.867 140.458 138.135C139.98 137.566 139.527 136.976 139.103 136.364C138.672 135.76 138.236 135.156 137.799 134.551C136.588 132.655 135.814 130.472 135.513 128.242C135.366 127.42 135.29 126.588 135.306 125.758C135.318 125.159 135.385 124.552 135.501 123.948C135.432 123.881 135.363 123.815 135.295 123.746C135.257 123.812 135.219 123.86 135.195 123.836L134.652 123.292C134.267 122.904 134.008 122.618 133.565 121.99C132.858 120.987 132.332 119.885 131.941 118.724C131.659 117.894 131.472 116.951 131.398 116.039C131.375 115.887 131.351 115.733 131.332 115.576C131.18 114.341 131.32 113.159 131.507 111.94C131.519 111.86 131.56 111.81 131.614 111.784C131.628 111.688 131.644 111.589 131.66 111.49C130.09 109.828 128.961 107.825 129.053 105.406C129.082 104.644 129.238 103.892 129.537 103.191L129.573 103.112C128.263 102.91 127.223 101.99 126.443 100.849C126.373 100.794 126.306 100.739 126.242 100.684C124.845 99.491 123.877 97.8023 123.215 96.0186C122.74 94.9829 122.425 93.876 122.292 92.728C122.282 92.646 122.277 92.5647 122.269 92.4831C121.945 90.6679 121.863 88.8344 122.013 87.0281C121.687 85.9101 121.422 84.7725 121.241 83.6083C121.156 83.0539 121.097 82.4991 121.052 81.9445L121.047 81.9139L121.04 81.8141L121.02 81.5653C121.016 81.5242 121.014 81.4831 121.011 81.442C120.611 76.3653 121.746 71.3691 123.623 66.6668C123.786 66.2439 123.955 65.8221 124.129 65.4037L124.314 64.9665C126.198 61.928 129.027 59.4705 131.424 56.875C132.25 55.9795 130.913 54.6352 130.083 55.5342C128.491 57.2587 126.783 58.9104 125.241 60.683C124.969 60.7029 124.696 60.7103 124.424 60.6968C123.95 60.6728 123.49 60.5972 123.045 60.4761C121.933 60.3126 120.921 59.8646 120.002 59.2057C118.772 58.6324 117.722 57.5514 117.618 56.1412C117.606 55.999 117.608 55.8591 117.618 55.7195C117.504 55.0296 117.606 54.307 117.895 53.6407C117.945 53.4582 118.009 53.2781 118.089 53.1004C118.324 52.5718 118.71 52.0649 119.182 51.721C119.194 51.7138 119.203 51.7093 119.212 51.702C119.262 51.6501 119.31 51.5977 119.364 51.5505C119.445 51.4768 119.53 51.4083 119.62 51.3443C119.3 50.8179 119.011 50.2778 118.765 49.7016C118.497 49.0759 118.359 48.441 118.283 47.77C118.253 47.5045 118.241 47.2415 118.236 46.9786C118.222 46.8575 118.212 46.7343 118.203 46.611C118.144 45.6725 118.253 44.6986 118.603 43.8214C118.629 43.7553 118.663 43.6887 118.693 43.6199C118.76 43.4209 118.833 43.222 118.923 43.0274C119.274 42.2808 119.772 41.648 120.386 41.129C120.717 40.7948 121.089 40.4985 121.495 40.2473C121.734 40.098 122.007 39.9653 122.293 39.8562C122.805 39.586 123.462 39.3395 123.995 39.3208C124.059 39.3182 124.116 39.3256 124.177 39.3256C124.227 37.9649 124.403 36.4836 124.941 35.2511C125.253 34.3578 125.723 33.5639 126.429 32.9924C126.838 32.5649 127.343 32.2177 127.973 31.9907L128.085 31.9519L128.128 31.9401C128.694 31.6652 129.306 31.5561 129.934 31.5587C130.666 31.5206 131.413 31.6583 132.05 31.9946C132.183 32.0657 132.325 32.1534 132.46 32.2482C132.562 32.0444 132.676 31.8382 132.806 31.6322C133.264 30.8996 133.816 30.2621 134.456 29.6814C134.531 29.6127 134.614 29.551 134.695 29.4849C135.005 29.2029 135.335 28.9422 135.676 28.7051C136.413 28.193 137.221 27.8116 138.07 27.5649C139.049 27.2029 140.083 27.0349 141.117 27.0702L141.331 27.0793C141.378 27.0838 141.425 27.0861 141.47 27.0885C142.497 27.1551 143.509 27.4063 144.475 27.7853C145.478 28.1814 146.326 28.7808 147.116 29.4681C147.3 29.2123 147.511 28.9704 147.77 28.7428C147.843 28.6791 147.921 28.622 147.995 28.5627C148.052 28.5058 148.111 28.4513 148.172 28.3968C148.454 28.1479 148.753 27.9323 149.08 27.7403C149.447 27.5248 149.843 27.3755 150.253 27.2831C150.67 27.1406 151.109 27.0529 151.554 27.0245ZM146.684 124.732C146.726 124.73 148.921 125.553 150.014 126.085L150.068 126.111C151.329 126.737 151.935 127.187 153.068 127.991C153.144 128.045 153.222 128.128 153.222 128.209C153.222 129.379 152.938 130.81 151.954 130.176C151.812 130.084 151.669 129.995 151.525 129.907L151.307 129.775L151.3 129.778C151.303 129.778 151.305 129.775 151.307 129.773C149.165 128.467 146.902 127.443 144.513 126.711C144.349 126.652 145.56 124.822 145.895 124.924C145.703 124.848 146.652 124.734 146.684 124.732ZM169.194 73.0436C167.77 73.196 166.345 73.346 164.921 73.4927C164.013 73.597 163.103 73.6894 162.193 73.7676C160.826 73.8698 159.458 73.8861 158.096 73.6989C157.612 73.6328 157.138 73.5377 156.669 73.4216C156.349 73.6562 156.017 73.8767 155.678 74.0878L151.915 76.9673C149.391 78.9513 146.922 81.0533 144.699 83.3737C140.816 87.4275 137.654 92.1701 135.666 97.4234C135.486 97.5298 135.346 97.7154 135.3 98C134.949 100.153 133.922 102.117 133.55 104.262C133.185 106.374 133.671 108.169 134.998 109.844C135.281 110.201 135.861 110.182 136.217 109.941C136.3 110.103 136.658 110.097 136.784 109.378C137.374 108.74 137.878 108.07 138.22 107.241C138.472 106.631 138.049 106.207 137.535 106.124C137.749 105.356 137.989 104.595 138.26 103.842C139.061 101.604 140.08 99.4669 141.362 97.4618C142.49 95.6982 143.796 94.1624 145.199 92.6218C145.215 92.6005 145.244 92.5936 145.275 92.5888L145.566 92.2663C145.606 92.2212 145.689 92.226 145.782 92.2497C145.869 92.1572 145.955 92.0624 146.045 91.97C146.132 91.8752 146.23 91.9036 146.284 91.9795C146.433 91.9463 146.706 92.1075 146.789 92.1599C146.931 92.2544 146.976 92.3611 146.855 92.4962C146.834 92.5201 146.813 92.5438 146.791 92.5649C146.955 92.6339 147.116 92.7261 147.242 92.8164C147.68 92.9133 148.296 93.321 148.189 93.4421C147.964 93.6765 147.746 93.9161 147.531 94.16C147.72 94.2929 147.843 94.4231 147.794 94.4802C146.869 95.4541 146.016 96.4853 145.234 97.5777C144.639 98.393 144.101 99.2415 143.62 100.126C142.905 101.377 142.298 102.664 141.76 103.986C141.684 104.188 141.611 104.389 141.54 104.591C140.753 106.793 140.165 109.077 139.916 111.405L139.906 111.562C139.859 112.4 139.841 114.645 139.755 115.18C140.279 115.439 140.824 115.659 141.39 115.84C141.497 115.87 141.606 115.899 141.715 115.925C141.777 115.899 141.841 115.877 141.905 115.858C142.426 115.647 142.971 115.496 143.528 115.422C143.903 115.373 144.277 115.355 144.65 115.366L144.81 115.372C144.976 115.377 145.139 115.389 145.305 115.406C145.296 115.311 145.291 115.219 145.284 115.124C145.237 115.093 145.201 115.05 145.199 114.993C145.087 113.927 145.085 112.86 145.192 111.794C145.263 111.237 145.346 110.682 145.436 110.128C145.528 109.672 145.635 109.225 145.751 108.776C146.059 107.52 146.469 106.295 146.967 105.096C148.384 101.676 150.415 98.5921 152.458 95.5252C153.948 93.2857 155.358 90.9959 156.901 88.7941C158.214 86.9193 159.593 85.073 161.065 83.3191C162.534 81.5679 164.087 79.8825 165.762 78.3232C166.032 78.0741 166.305 77.8324 166.582 77.5932C168.17 76.1712 169.895 75.0025 171.692 73.8556C171.76 73.8105 171.884 73.8603 171.985 73.9454L172.275 73.7672C172.324 73.7376 172.373 73.7084 172.422 73.6799C172.467 73.6517 172.516 73.6989 172.542 73.7392C172.666 73.6752 172.789 73.6138 172.912 73.552C173.002 73.4794 173.095 73.4107 173.185 73.3391C171.853 73.2721 170.523 73.1725 169.194 73.0436ZM185.901 57.2433C184.825 57.0278 183.745 56.9968 182.659 57.158C182.205 57.2246 181.752 57.3047 181.303 57.4016C182.322 58.2904 183.142 59.4278 183.674 60.7368C184.249 62.1518 181.956 62.7616 181.389 61.367C180.842 60.0218 179.807 58.9898 178.557 58.3712C178.287 58.5222 178.025 58.6857 177.775 58.8668C177.448 59.1323 177.14 59.419 176.851 59.7343C176.22 60.4195 175.642 61.3341 175.263 62.2395C175.116 62.7324 175.007 63.2396 174.938 63.7611C174.924 63.8796 174.91 64.0004 174.898 64.1213C174.664 66.5741 175.366 68.9606 176.572 71.0724L176.62 71.0731C177.696 70.4891 178.824 69.997 179.984 69.5963C180.913 68.9708 181.877 68.3922 182.87 67.8685C184.981 66.7547 187.211 65.8961 189.508 65.3089L189.774 65.2424C190.315 65.1041 190.861 64.9823 191.409 64.8758L191.738 64.8136H191.743L191.708 64.4602C191.523 63.0737 190.98 61.7868 190.279 60.5972C189.752 59.699 188.959 58.7794 188.077 58.0446L188.072 58.042C187.672 57.8145 187.251 57.6263 186.818 57.4707L186.655 57.4139L185.901 57.2433ZM157.012 55.1365C154.774 54.9253 152.537 54.9467 150.3 55.1292C148.838 55.274 147.385 55.4752 145.939 55.7312C144.961 55.8994 144.001 56.1365 143.058 56.4306L143.597 57.5217C144.499 59.3389 145.422 61.1441 146.511 62.8604C147.072 63.7445 147.681 64.5861 148.345 65.3941C148.793 65.9724 149.286 66.5083 149.826 67.001C149.968 67.1743 150.12 67.3378 150.274 67.4963C150.767 67.9182 151.298 68.288 151.878 68.5937C152.344 68.9329 152.83 69.2292 153.337 69.4889L153.528 69.5846L155.305 70.267C155.4 70.2939 155.496 70.3207 155.592 70.3462L155.737 70.3834L156.007 70.44L156.209 70.3299C156.243 70.3118 156.278 70.2939 156.312 70.2765C156.369 70.2459 156.41 70.3052 156.421 70.3476C156.426 70.3644 156.419 70.3879 156.407 70.4116L156.666 70.2715C157.112 70.4523 157.584 70.5969 158.091 70.6922C158.32 70.7351 158.55 70.768 158.78 70.7962L158.811 70.8168C158.816 70.8204 158.822 70.8244 158.827 70.8289H159.079C160.85 70.9998 162.647 70.774 164.416 70.4561C166.919 70.2044 169.422 69.9269 171.923 69.6674C171.97 69.6629 171.989 69.6839 171.989 69.7174L172.143 69.7031C172.366 69.6792 172.627 70.0513 172.458 70.1866C172.594 70.267 172.724 70.3834 172.821 70.4734L172.878 70.4685C172.534 69.7953 172.269 69.0914 172.079 68.3593L171.838 67.1314C171.771 66.6739 171.733 66.1859 171.726 65.7046C171.71 65.4841 171.698 65.2782 171.698 65.0978C171.698 64.9272 171.7 64.7565 171.707 64.5861C171.236 64.3915 170.757 64.2211 170.269 64.0763C168.882 63.9059 167.498 63.735 166.112 63.5667C165.28 63.5975 164.448 63.6568 163.619 63.7492C162.678 63.8322 161.739 63.9388 160.803 64.0668C160.716 64.0763 160.559 63.9578 160.464 63.8203L160.064 63.8751C159.855 63.9011 159.637 63.4838 159.912 63.3984C160.012 63.3589 160.111 63.3215 160.211 63.2856L160.36 63.2325L160.275 63.242C160.246 63.2446 160.211 63.2373 160.171 63.2233C159.95 63.2515 159.73 63.2799 159.512 63.306C159.235 63.3405 159.298 62.9759 159.492 62.8901L159.585 62.8557C159.421 62.7535 159.277 62.474 159.48 62.3826L159.507 62.3722C159.602 62.3345 159.694 62.3035 159.789 62.2679C159.782 62.2373 159.782 62.2087 159.791 62.1828L159.4 62.2324C159.365 62.237 159.535 61.9875 159.616 61.9381L159.63 61.9314L159.817 61.8745C159.846 61.7939 159.998 61.6161 160.05 61.5998C160.737 61.3839 161.377 61.1897 162.045 61.0402C162.078 60.9999 162.116 60.9691 162.159 60.9596C162.576 60.8601 162.998 60.7819 163.42 60.7157C163.448 60.6728 163.477 60.6423 163.51 60.6396C164.555 60.5069 165.602 60.4761 166.655 60.5475C166.856 60.5662 167.057 60.5877 167.259 60.6136C167.645 60.6565 168.031 60.711 168.415 60.7845C169.377 60.9495 170.316 61.2004 171.231 61.5388L171.442 61.6185C171.672 61.7041 171.899 61.7939 172.124 61.8913C172.238 61.486 172.38 61.0876 172.548 60.6968C172.575 60.6207 172.603 60.5475 172.634 60.474L172.404 60.3363C172.354 60.4311 172.252 60.5046 172.186 60.4645C170.539 59.3529 168.797 58.426 166.96 57.6865C165.932 57.2314 164.88 56.8454 163.801 56.5228C163.263 56.35 162.721 56.1936 162.175 56.0443C161.903 55.9871 161.63 55.9303 161.353 55.8829C159.929 55.4989 158.481 55.2503 157.012 55.1365ZM211.285 58.8986C211.085 59.2441 210.877 59.5864 210.657 59.9239C209.585 61.5637 208.301 63.1026 206.844 64.4444C207.224 64.4434 207.603 64.4579 207.977 64.4929C208.623 64.5539 209.255 64.661 209.871 64.811C209.921 64.771 209.977 64.7508 210.022 64.7826L210.182 64.8937C211.504 65.2504 212.745 65.8112 213.869 66.5625L213.849 66.4141C213.845 66.3894 213.842 66.3647 213.837 66.34C213.856 66.0484 213.861 65.7567 213.851 65.4675C213.619 63.7587 213.038 62.1849 212.375 60.5925C212.362 60.5617 212.371 60.5216 212.391 60.4808C212.056 59.9338 211.689 59.4048 211.285 58.8986ZM211.59 45.4639C211.095 45.554 210.604 45.6701 210.116 45.8147C209.199 45.9524 208.31 46.1941 207.452 46.5375C206.27 46.9571 205.123 47.4453 203.98 47.9622C201.762 48.9669 199.681 50.2375 197.788 51.7686C197.667 51.8608 197.551 51.9558 197.435 52.0506C197.011 52.4178 196.598 52.8017 196.207 53.207C195.797 53.6526 195.385 54.0984 194.975 54.5461C194.472 55.0725 193.894 55.5487 193.439 56.1175C193.347 56.2336 193.266 56.3616 193.193 56.4898L193.46 56.582C193.686 56.6579 193.648 57.0797 193.425 57.0181C193.349 56.9968 193.278 56.9707 193.207 56.9425C193.238 56.9828 193.259 57.0231 193.264 57.0584C193.278 57.1722 193.19 57.3288 193.05 57.2886C192.986 57.2717 192.922 57.248 192.858 57.222C192.84 57.2954 192.825 57.3689 192.825 57.44C192.837 57.4447 192.849 57.4495 192.863 57.4521C193.02 57.5066 193.314 57.7505 193.356 57.9166C193.389 58.0446 193.28 58.1818 193.141 58.1439C193.036 58.1155 192.934 58.0728 192.835 58.0254C192.901 58.0896 192.953 58.1584 192.958 58.2176C192.968 58.3267 192.873 58.4805 192.742 58.4452C192.501 58.3786 192.306 58.2769 192.145 58.1489C192.103 58.2055 192.041 58.2506 191.991 58.2366L191.899 58.2082C191.924 58.2317 191.947 58.2565 191.97 58.2809L192.003 58.3169C192.657 59.0232 193.228 59.8054 193.686 60.647C193.707 60.623 193.733 60.6017 193.766 60.5756C193.979 60.3955 194.2 60.2201 194.42 60.0497L194.487 59.9914L194.555 59.9333L194.06 60.0969L194.071 60.084C194.106 60.0392 194.215 59.8898 194.266 59.84L194.278 59.8291C194.958 59.2202 195.7 58.7033 196.501 58.2816C197.02 57.9448 197.565 57.6604 198.136 57.4258C199.499 56.793 200.888 56.3121 202.314 55.8665C202.528 55.7978 202.741 55.7243 202.954 55.6577C203.016 55.6364 203.028 55.6624 203.018 55.7051L203.13 55.6719C203.329 55.6079 203.668 55.9587 203.532 56.1222C203.614 56.1886 203.694 56.2625 203.764 56.3319L203.814 56.3829L203.871 56.3663C204.041 56.3141 204.326 56.5781 204.508 56.7651L204.642 56.9067C204.743 57.0158 204.943 57.2409 204.698 57.3288L204.393 57.4329C204.402 57.4945 204.376 57.5467 204.281 57.5822C204.175 57.6178 204.07 57.6557 203.966 57.6938C204.029 57.749 204.091 57.8063 204.153 57.8644L204.243 57.9519C204.351 58.0615 204.605 58.3029 204.381 58.4095L204.352 58.4212L204.061 58.5255C204.099 58.6108 204.089 58.6917 203.961 58.7388C202.26 59.3171 200.599 59.9952 198.975 60.7655C197.759 61.4384 196.475 61.9411 195.122 62.2703C195.01 62.3061 194.769 62.1378 194.669 61.9695L194.467 62.029C194.433 62.0388 194.4 62.0483 194.366 62.057L194.333 62.0643C194.586 62.7398 194.773 63.4719 194.878 64.1806C194.889 64.2446 194.899 64.3112 194.906 64.3751C195.171 64.3536 195.435 64.3346 195.7 64.3206C197.537 64.2232 199.395 64.2825 201.236 64.5005C201.98 64.0573 202.696 63.5714 203.381 63.0455C203.589 62.8841 203.796 62.7182 203.999 62.5499C205.222 61.4881 206.329 60.2962 207.31 59.009C208.218 57.8168 209.007 56.537 209.67 55.1958C210.258 53.937 210.744 52.6287 211.111 51.2777C211.448 50.0429 211.564 48.8413 211.649 47.5638C211.678 47.3552 211.697 47.1469 211.713 46.9381L211.711 46.8487L211.709 46.8054C211.685 46.3577 211.64 45.9095 211.59 45.4639ZM194.226 61.3365C194.172 61.3554 194.115 61.3744 194.058 61.391C194.091 61.4645 194.122 61.5358 194.153 61.609L194.157 61.6076L194.38 61.4313C194.333 61.4099 194.279 61.377 194.226 61.3365ZM211.259 42.1031C211.685 41.9443 212.008 41.9135 212.226 42.0131C211.903 42.0368 211.581 42.0676 211.259 42.1031Z" fill="black"/>
<path fill-rule="evenodd" clip-rule="evenodd" d="M181.252 133.626C183.846 132.067 193.541 133.21 201.157 133.626C207.205 133.956 211.525 133.301 212.907 134.23C216.031 136.328 214.513 146.474 209.131 147.861C203.749 149.248 183.797 151.186 180.356 147.861C176.916 144.536 176.599 136.422 181.252 133.626Z" fill="white"/>
<path fill-rule="evenodd" clip-rule="evenodd" d="M184.612 130.942C188.683 130.449 192.629 131.693 196.609 132.32C198.71 132.651 200.814 132.898 202.94 132.99C203.368 133.009 203.796 133.019 204.224 133.028C204.264 132.652 204.475 132.307 204.932 132.1C205.868 131.676 206.618 131.485 207.646 131.526C208.587 131.563 209.532 131.66 210.459 131.829C212.142 132.137 213.833 132.836 215.064 134.05C217.913 136.859 217.479 141.372 215.278 144.432C210.729 150.755 202.428 151.048 195.318 150.965L194.662 150.957C188.188 150.865 178.926 151.828 175.985 144.477C174.903 141.774 175.053 138.641 176.378 136.049C177.957 132.956 181.282 131.346 184.612 130.942ZM204.834 141.47L204.776 141.472C201.791 141.587 198.807 141.668 195.82 141.721C195.91 142.486 196.001 143.252 196.105 144.015C196.187 144.616 196.275 145.217 196.366 145.816C196.404 146.07 196.546 146.464 196.506 146.716L196.492 146.815C196.645 146.884 196.784 146.996 196.888 147.158C196.924 147.214 196.95 147.27 196.976 147.326C199.294 147.344 201.79 147.299 204.153 146.879L204.158 146.828C204.201 146.526 204.326 146.323 204.493 146.184C204.659 145.223 204.644 144.199 204.708 143.246C204.748 142.654 204.792 142.062 204.834 141.47ZM193.539 141.761C191.388 141.798 189.236 141.826 187.085 141.8L186.108 141.785C186.315 142.889 186.539 143.989 186.725 145.1C186.92 146.259 185.898 146.995 185.014 146.965C185.114 146.981 185.213 146.998 185.312 147.012C188.074 147.402 190.943 147.299 193.746 147.296C193.595 146.417 193.656 145.426 193.634 144.692L193.63 144.579C193.587 143.639 193.557 142.7 193.539 141.761ZM178.926 141.559C179.001 142.133 179.146 142.695 179.363 143.218C180.282 145.428 182.387 146.459 184.615 146.893C184.228 146.76 183.921 146.44 183.844 145.892C183.651 144.529 183.581 143.143 183.576 141.76C182.024 141.745 180.461 141.712 178.926 141.559ZM212.93 141.087C211.824 141.347 210.54 141.228 209.455 141.277C208.44 141.323 207.423 141.363 206.407 141.404C206.455 142.096 206.502 142.788 206.552 143.48C206.618 144.374 206.624 145.319 206.796 146.209C208.84 145.513 210.672 144.396 212.047 142.61C212.389 142.165 212.696 141.643 212.93 141.087ZM184.145 134.568C182.305 135.003 180.563 135.922 179.628 137.602C179.072 138.599 178.828 139.781 178.875 140.945C180.43 140.764 182.012 140.696 183.586 140.639C183.591 140.356 183.598 140.074 183.606 139.792L183.631 139.069C183.673 137.69 183.695 135.959 184.145 134.568ZM193.668 134.737L192.858 134.646C190.608 134.39 188.36 134.121 186.11 134.275C185.784 134.298 185.454 134.333 185.123 134.382C185.52 135.814 185.487 137.496 185.653 138.913C185.717 139.461 185.798 140.005 185.888 140.546L186.278 140.528C188.692 140.398 191.109 140.317 193.525 140.222C193.525 139.769 193.527 139.316 193.534 138.863L193.543 138.41C193.571 137.252 193.496 135.948 193.668 134.737ZM204.966 134.553C202.609 134.932 200.174 135.013 197.86 135.016C196.935 135.017 196.011 134.96 195.088 134.879C195.148 135.369 195.179 135.866 195.224 136.35C195.316 137.328 195.42 138.304 195.533 139.279L195.634 140.133C198.604 139.999 201.573 139.853 204.542 139.703L204.961 139.68L205.078 138.04C205.158 136.946 205.246 135.853 205.37 134.764L205.277 134.73C205.168 134.685 205.064 134.624 204.966 134.553ZM205.989 134.96C206.119 136.506 206.19 138.059 206.286 139.609L208.243 139.504C208.569 139.487 208.896 139.468 209.222 139.45C210.49 139.377 212.12 138.993 213.374 139.351C213.469 138.213 213.143 137.105 212.115 136.341C210.309 134.999 208.009 135.477 205.989 134.96ZM199.302 121.134C202.216 119.469 209.529 117.766 209.992 123C210.205 125.409 208.411 127.405 206.315 128.296L206.237 128.328C204.271 129.135 200.788 130.045 199.088 128.297C197.672 126.842 199.549 124.232 201.308 125.425C202.212 126.037 204.115 125.586 205.123 125.294L205.187 125.276C206.275 124.957 207.726 123.935 207.276 122.598C206.878 121.414 205.183 121.198 204.122 121.16C202.537 121.103 200.996 121.47 199.426 121.59C199.177 121.609 199.1 121.249 199.302 121.134ZM211.374 112.717C215.33 112.533 217.79 116.843 216.881 120.374C216.724 120.984 216.041 121.582 215.381 121.514L215.215 121.498C215.131 121.49 215.046 121.48 214.968 121.458C214.342 121.285 213.781 120.635 213.826 119.962L213.839 119.765C213.931 118.097 213.75 116.175 211.763 115.771C210.078 115.428 209.137 117.047 209.117 118.536C209.113 118.801 208.816 118.986 208.581 118.843C207.363 118.104 207.152 116.632 207.617 115.365C208.207 113.759 209.683 112.796 211.374 112.717ZM182.02 113.642C184.899 112.683 188.004 114.215 189.398 116.755C189.887 116.896 190.376 117.272 190.308 117.848C190.21 118.676 190.062 119.199 189.486 119.827C188.586 120.81 186.899 120.307 186.525 119.097L186.509 119.043C186.084 117.479 184.359 116.447 182.788 116.994C180.952 117.634 181.005 119.569 179.717 120.696C179.566 120.828 179.385 120.85 179.203 120.762C177.835 120.103 178.081 118.117 178.569 116.981C179.208 115.49 180.451 114.164 182.02 113.642ZM178.1 104.918C180.432 102.543 186.515 100.244 188.111 104.631C188.415 105.466 187.767 106.593 186.896 106.766C185.469 107.049 184.202 106.431 182.784 106.542C181.637 106.632 180.439 107.015 179.522 107.725C176.98 109.69 176.421 113.014 174.65 115.515C174.564 115.637 174.397 115.586 174.381 115.442C173.977 111.801 175.545 107.52 178.1 104.918ZM208.521 102.58C210.069 102.034 211.822 102.081 213.378 102.565C214.945 103.053 216.384 103.979 217.493 105.189C217.996 105.738 218.461 106.345 218.834 106.99C219.033 107.332 219.241 108.039 219.467 108.459C220.686 109.162 221.207 110.763 220.116 111.902L220.066 111.952L219.92 112.096C219.333 112.676 218.449 112.927 217.648 112.696C215.855 112.178 215.637 110.769 215.017 109.274C214.607 108.286 213.904 107.412 213.053 106.77C211.041 105.253 207.741 104.77 205.319 105.484C205.19 105.523 205.038 105.359 205.13 105.24C205.589 104.646 205.854 104.159 206.468 103.68C207.092 103.194 207.773 102.843 208.521 102.58Z" fill="black"/>
</svg>
