<svg width="391" height="780" viewBox="0 0 391 780" fill="none" xmlns="http://www.w3.org/2000/svg">
<path fill-rule="evenodd" clip-rule="evenodd" d="M90.4969 292.697C98.3264 310.073 108.006 325.437 119.469 340.78C118.665 304.526 117.973 268.076 116.788 231.489C109.529 245.627 101.794 258.421 91.4689 272.456C83.3741 281.092 87.1485 284.677 90.4969 292.697ZM64.8295 716.853C63.9223 715.572 64.4593 713.942 65.7142 713.111C63.0422 707.36 71.0938 702.92 75.0568 698.591C84.0645 688.835 98.255 674.852 99.5182 662.534C103.814 634.588 106.269 606.544 113.148 578.926C117.235 561.384 128.582 547.308 133.652 530.076C142.468 484.536 131.079 438.867 133.048 392.873C108.199 390.44 111.417 393.533 114.079 372.9C112.416 371.748 110.796 370.527 109.281 369.298C105.314 371.411 100.631 376.591 96.2629 376.317C94.8803 375.994 93.8835 374.264 92.935 372.778C85.92 361.735 79.399 350.94 73.0148 339.812C37.7104 284.24 45.6957 271.656 78.627 218.385C92.4956 197.811 109.53 167.873 135.951 165.796C139.14 165.798 142.503 165.629 145.251 163.626C145.27 160.437 146.903 159.408 151.043 158.825C153.375 158.586 155.205 157.229 157.481 157.783C159.105 152.37 158.779 148.018 160.541 142.662C166.578 133.522 186.16 138.082 193.331 140.949C202.242 144.042 193.765 157.886 199.581 164.208C200.849 164.915 202.168 165.253 203.858 165.253C211.063 163.651 214.574 172.288 217.98 177.984C227.729 179.184 235.035 180.629 239.52 184.137C243.633 187.237 246.657 192.223 250.677 202.534C259.095 220.923 264.615 239.187 267.053 256.805C269.175 268.743 275.07 279.075 279.802 289.919C291.419 318.153 296.434 336.853 293.653 361.704C290.704 361.176 287.73 360.106 284.625 359.706L283.371 362.67C283.291 362.611 283.258 362.545 283.253 362.526C279.61 387.399 289.604 438.048 256.999 431.383C254.122 458.756 244.947 483.089 233.906 505.978C229.441 514.589 224.951 523.69 225.026 533.801L226.707 533.839C226.992 533.845 227.084 533.903 227.085 533.904C227.405 533.982 227.033 536.473 226.675 537.883C221.4 556.485 216.839 575.085 212.744 593.912C211.879 596.449 211.506 603.278 209.505 604.437C209.593 605.369 206.834 607.197 206.62 607.137C207.101 610.73 205.359 612.337 205.418 615.984C205.409 615.898 207.865 616.025 207.758 615.951C209.224 615.952 210.886 619.06 210.906 621.166C211.04 623.703 208.892 626.089 208.141 628.578C206.977 634.041 207.158 639.579 206.64 645.076C211.529 646.183 210.432 651.371 206.145 651.627C206.145 651.627 205.364 658.875 205.518 662.489C208.459 662.841 209.766 665.457 210.737 667.487C214.355 667.528 217.74 669.171 221.099 670.883C228.929 674.714 236.619 678.726 243.594 682.79C249.747 686.874 263.16 691.365 256.196 699.955C256.302 700.177 254.702 704.163 252.543 703.8C241.894 704.832 201.4 696.053 192.032 694.106C188.852 693.352 174.938 691.543 180.717 686.854C178.563 680.85 178.468 669.459 184.964 668.068C185.594 662.427 190.351 660.447 195.095 662.534C195.065 658.476 195.318 654.964 195.361 650.904C193.077 650.604 190.549 649.758 189.889 648.029C189.263 647.074 189.506 643.825 191.857 643.802C191.926 643.797 193.625 643.878 193.693 643.877C193.421 637.309 193.995 631.735 193.01 625.156C192.482 622.971 190.753 622.615 189.622 621.491C188.56 618.223 191.826 615.584 194.619 615.034C195.33 611.711 193.829 608.192 194.619 604.932C192.798 604.871 191.376 604.778 190.192 603.674C189.679 603.172 188.838 603.324 188.184 603.279C187.551 596.42 183.264 590.562 182.313 583.963C180.974 576.152 183.498 568.002 184.403 560.042C185.135 553.421 183.968 546.646 183.384 540.144C159.379 578.389 126.964 615.246 121.16 661.802C120.542 665.385 120.167 669.394 123.478 672.904L123.62 672.944C124.462 674.631 124.991 677.847 125.594 679.587C128.721 682.052 125.851 686.787 123.593 688.92C122.908 689.7 122.324 690.603 121.698 691.42C109.902 705.485 108.567 721.377 85.9224 720.304C80.3554 719.957 67.3286 720.133 64.8295 716.853Z" fill="#D08B5B"/>
<path fill-rule="evenodd" clip-rule="evenodd" d="M125.263 674.232L125.378 674.529L125.491 674.827C126.946 678.711 127.149 679.999 126.206 682.295L126.17 682.38C125.836 683.171 125.428 683.867 124.641 685.064L123.824 686.298L123.548 686.721C123.194 687.267 122.871 687.781 122.555 688.31L122.369 688.621L121.743 689.555L121.337 690.167C120.766 691.031 120.155 691.972 119.334 693.248L117.075 696.765L116.128 698.227C113.755 701.877 112.217 704.108 110.411 706.478L109.945 707.085L109.702 707.388L109.46 707.685C105.179 712.908 100.553 716.468 95.3088 717.969L95.1337 718.019L94.9701 718.064L94.8009 718.078C87.473 718.667 80.1426 718.037 70.2021 716.296L69.5641 716.183L68.7927 716.045L67.1131 715.738L66.7196 715.343C64.4201 713.034 64.1044 710.371 65.5158 707.717C66.4402 705.979 67.8604 704.475 70.4087 702.26L72.3969 700.542C74.2282 698.953 74.5317 698.64 74.9853 698.019L75.1718 697.76L75.2597 697.668C83.4875 689.088 90.3604 680.822 95.665 671.092L95.8709 670.712L96.1811 670.138L96.7899 669.9C101.774 667.955 107.356 668.173 112.029 670.549L112.183 670.628L112.332 670.707L112.486 670.792C113.272 671.23 113.93 671.705 115.073 672.607L115.714 673.113L116.014 673.346C117.007 674.111 117.583 674.479 118.28 674.785C119.63 675.376 121.233 675.277 121.774 674.697L121.803 674.663L121.829 674.63L122.545 672.634L125.263 674.232ZM185.492 667.288C185.726 668.021 184.828 670.924 185.48 671.923C186.068 672.824 188.138 672.577 189.573 672.562L189.866 672.557L190.164 672.548C190.633 672.533 191.129 672.504 191.777 672.458L193.678 672.319L193.838 672.309C193.888 672.306 193.939 672.303 193.992 672.301L194.289 672.286L194.477 672.279L194.548 672.274C196.899 672.09 198.833 670.806 202.608 669.322L204.366 668.625C206.128 667.93 207.118 667.569 208.31 667.203L208.482 667.151L208.574 667.133C211.935 666.479 216.136 667.746 221.841 670.591L222.202 670.772L222.59 670.969C223.502 671.435 224.461 671.944 225.541 672.531L227.212 673.45C228.375 674.092 229.813 674.888 230.32 675.165L230.803 675.427L231.242 675.663C232.336 676.247 233.209 676.688 233.968 677.034L234.218 677.147L234.278 677.179C240.815 680.72 246.82 684.217 252.458 687.798L252.901 688.08L253.05 688.161C259.836 691.925 259.93 698.002 253.539 702.225L253.344 702.353L253.14 702.481L252.648 702.788L252.069 702.746C242.202 702.037 231.999 700.585 220.793 698.39L219.694 698.173C211.302 696.504 203.021 694.585 191.275 691.66L188.956 691.08L185.177 690.13L185.079 690.121C180.956 689.695 178.671 686.605 178.675 682.341L178.677 682.099L178.677 681.897C178.672 677.423 180.62 673.297 182.279 669.956L182.366 669.784L182.454 669.613L185.492 667.288Z" fill="white"/>
<path fill-rule="evenodd" clip-rule="evenodd" d="M195.07 653.022C198.538 653.275 201.988 653.629 205.512 653.652C205.222 658.044 206.17 663.173 206.077 667.57C205.911 667.589 207.333 669.435 199.016 671.687C196.706 672.312 185.479 673.109 185.479 673.109C185.479 673.109 186.086 666.298 187.379 663.628C188.582 661.145 194.741 663.154 194.741 663.154C194.741 663.154 195.07 653.165 195.07 653.022ZM191.365 643.94C193.346 643.628 204.481 643.653 208.991 645.853C211.086 646.874 209.317 650.707 208.934 650.965C206.621 652.464 202.696 651.894 200.126 651.84C197.616 651.624 193.837 652.086 191.65 650.645C189.639 649.554 188.708 644.801 191.365 643.94ZM188.976 526.234C198.955 527.879 210.277 539.254 221.149 534.972C223.175 534.39 225.267 534.008 227.4 534.379C228.512 534.78 228.088 536.081 227.494 537.231L227.407 537.397C225.233 545.754 223.219 554.149 221.266 562.56C218.645 572.973 216.213 583.417 213.926 593.931C213.501 595.177 213.195 597.457 212.757 599.592L212.5 600.68L212.307 601.488L212.249 601.693C211.861 603.009 211.369 605.01 210.687 605.404C210.695 605.49 210.679 605.583 210.643 605.681C210.288 605.796 209.864 605.819 209.365 605.734C203.307 605.522 195.102 604.953 189.05 604.495C188.553 604.183 187.86 604.279 187.292 604.251C186.942 600.877 185.79 596.771 184.564 593.626L183.918 591.976L183.732 591.499C179.734 582.591 181.668 573.021 183.33 563.803L183.534 562.664C184.606 556.075 183.206 547.571 182.579 540.969L182.448 539.603C184.882 535.266 187.052 530.813 188.976 526.234Z" fill="#9DDADB"/>
<path fill-rule="evenodd" clip-rule="evenodd" d="M132.303 392.024C131.54 391.971 130.625 391.93 129.613 391.885C124.214 391.642 116.16 391.214 113.254 388.495C113.21 388.454 113.166 388.412 113.123 388.368C113.117 388.31 113.111 388.251 113.106 388.193C112.845 385.391 113.309 382.536 113.775 379.699C114.012 378.256 114.249 376.818 114.384 375.394C114.409 375.124 114.431 374.853 114.451 374.581C114.67 374.737 114.894 374.891 115.122 375.045C123.519 380.696 130.512 379.784 137.708 378.869C142.599 378.247 147.584 377.622 153.147 378.915C154.699 379.281 156.352 379.945 158.045 380.628C161.807 382.144 165.798 383.826 169.284 382.052C170.148 381.35 170.675 380.696 170.918 380.076C171.164 379.45 171.097 378.872 170.82 378.341C169.928 376.627 167.136 375.372 164.984 374.482L164.754 374.388L160.799 372.783C162.058 372.931 163.311 373.089 164.545 373.292C166.19 373.563 167.841 373.919 169.496 374.276C173.062 375.045 176.649 375.824 180.246 375.732C180.579 375.637 180.832 375.483 181.013 375.28C181.225 375.041 181.336 374.739 181.38 374.413C181.512 373.445 181.088 372.277 180.594 371.538C179.265 369.511 177.222 368.257 175.008 367.511L175.2 366.59C176.016 366.659 176.842 366.824 177.67 366.99C178.883 367.233 180.101 367.484 181.296 367.394C182.012 367.119 182.476 366.78 182.719 366.375C182.98 365.938 182.959 365.442 182.791 364.935C182.214 363.194 179.986 361.324 178.587 360.508C173.783 357.332 168.253 355.792 162.749 354.251C159.445 353.326 156.148 352.402 153.022 351.143C152.799 351.054 152.577 350.962 152.356 350.869C152.526 350.679 152.703 350.504 152.89 350.344C155.087 348.459 159.231 348.102 163.391 347.791C166.556 347.555 169.718 347.332 171.91 346.329C173.369 345.661 174.379 344.633 174.566 342.948C174.456 341.931 174.137 341.121 173.653 340.482C173.106 339.761 172.352 339.263 171.478 338.919C168.914 337.911 165.352 338.206 162.55 338.489L161.335 338.613L160.904 338.656C149.6 339.959 138.593 344.162 129.236 350.605C129.116 350.688 128.996 350.771 128.876 350.853C128.784 350.741 128.691 350.629 128.599 350.516C125.69 346.982 122.848 343.391 120.087 339.738C120.056 339.698 120.026 339.658 119.996 339.616C119.994 339.566 119.993 339.516 119.991 339.467C119.645 327.478 119.462 315.437 119.278 303.388C118.92 279.919 118.563 256.419 116.998 233.216L117.457 232.276C117.781 231.609 118.079 230.998 118.348 230.443C118.235 230.628 118.119 230.818 118 231.015L117.332 232.121L116.371 233.725L116.358 233.337C116.353 233.348 116.347 233.359 116.342 233.37C116.274 233.359 116.204 233.359 116.131 233.372C115.9 233.412 115.742 233.562 115.641 233.755C115.494 234.036 115.459 234.4 115.513 234.752C115.521 234.801 115.53 234.85 115.541 234.899C115.516 234.947 115.49 234.996 115.464 235.045C115.31 235.338 115.155 235.631 115 235.923C108.997 245.643 102.731 255.184 96.0367 264.408C95.0299 266.109 93.4732 267.992 91.839 269.964C88.4957 273.998 84.7368 278.42 85.1539 282.444C93.6363 307.353 108.847 329.718 125.191 350.193C125.265 350.285 125.339 350.378 125.409 350.471C125.342 350.567 125.276 350.663 125.209 350.759C118.92 359.767 110.743 367.47 101.313 373.133C100.973 373.318 100.631 373.537 100.276 373.764C99.3147 374.378 98.2709 375.019 97.3143 375.127C96.521 375.216 95.7688 374.987 95.1318 374.161C81.0068 352.381 67.6683 329.978 56.1691 306.735C46.2006 288.48 50.9554 267.5 60.9048 250.329L61.772 248.765C62.4442 247.552 63.1167 246.335 63.7904 245.117C77.3804 220.539 91.4486 195.115 112.657 176.405L113.025 176.113C118.578 171.716 124.815 167.702 131.893 166.461C133.281 166.235 134.695 166.157 136.11 166.08C138.47 165.951 140.834 165.831 143.044 164.963C143.267 164.876 143.487 164.781 143.702 164.681C143.707 164.937 143.704 165.186 143.692 165.428C143.519 168.873 143.611 171.739 144.359 166.777C144.432 165.445 144.555 164.392 144.75 163.545C145.085 162.17 145.603 161.315 146.371 160.699C147.216 160.021 148.39 159.641 150.049 159.219L151.752 158.796L152.781 158.536C156.654 192.593 165.104 225.9 173.555 259.213C183.886 299.941 194.216 340.677 196.216 382.798L196.239 382.973C196.395 384.239 196.411 385.716 195.892 386.813C195.474 387.695 194.733 388.362 193.468 388.539C191.509 389.013 189.456 389.262 187.431 389.507C186.896 389.571 186.362 389.636 185.834 389.704L184.768 389.844C167.638 392.07 150.313 392.65 133.056 392.152C132.92 392.148 132.784 392.144 132.649 392.14C132.645 392.109 132.641 392.078 132.637 392.047L132.303 392.024ZM292.63 355.122C292.544 356.501 292.422 357.877 292.265 359.248C292.244 359.429 292.222 359.61 292.2 359.79C292.025 359.744 291.849 359.698 291.674 359.652C284.262 357.734 276.528 356.642 268.88 357.529C268.72 357.547 268.561 357.567 268.402 357.585C268.386 357.426 269.446 367.544 258.015 384.688C257.736 385.242 255.954 386.996 255.919 387.087C255.822 387.097 255.725 387.108 255.628 387.118C245.717 388.17 235.702 388.048 225.831 386.627C225.7 386.608 225.569 386.589 225.438 386.569C225.432 386.437 225.428 386.304 225.424 386.172C225.291 381.548 225.912 376.959 226.536 372.365C227.205 367.449 227.876 362.527 227.596 357.551L227.616 353.894C227.92 294.415 227.138 233.57 209.562 176.282C209.513 173.994 202.997 168.513 202.845 168.344C202.099 167.51 201.409 166.628 200.787 165.702C200.576 165.389 200.374 165.071 200.179 164.749C200.514 164.825 200.875 164.9 201.267 164.972C202.871 165.267 204.016 165.339 204.917 165.396C207.535 165.562 208.243 165.555 211.711 169.996C215.439 175.557 219.826 178.975 219.661 178.7C219.98 178.735 220.3 178.772 220.621 178.811C227.141 179.59 232.961 180.822 237.617 183.793C241.452 186.24 244.508 189.86 246.513 195.381L247.543 197.786C254.111 213.137 260.521 228.728 263.46 245.227C265.048 258.503 268.83 271.175 274.95 283.048C285.248 305.601 294.052 330.001 292.63 355.122Z" fill="#FFCF77"/>
<path fill-rule="evenodd" clip-rule="evenodd" d="M210.124 179.109C221.338 220.125 225.191 266.716 226.48 309.063L226.558 311.655L226.717 317.051C221.601 317.817 214.496 317.265 209.343 317.34C203.051 317.725 195.215 317.292 189.074 318.315L188.691 318.381L188.441 318.43L188.14 316.999C178.964 273.585 165.681 228.439 157.622 184.776C159.038 185.615 160.874 185.946 162.41 186.333C172.861 188.873 185.154 188.394 195.88 187.778C201.992 187.729 207.068 184.358 210.124 179.109Z" fill="#9DDADB"/>
<path fill-rule="evenodd" clip-rule="evenodd" d="M159.61 145.154C161.52 143.851 158.8 155.09 158.794 156.163L158.746 156.399C158.27 158.688 157.431 161.348 155.5 162.812C156.391 170.088 157.499 177.344 158.863 184.543C171.03 186.127 183.278 188.415 195.653 187.261C202.11 187.317 206.401 182.945 209.041 177.499L209.121 177.333L208.577 175.385C200.301 170.315 194.028 160.036 197.759 150.338C198.002 149.707 199.011 149.961 198.79 150.62C197.224 154.998 197.882 159.933 200.106 163.954C201.495 164.693 202.975 164.641 204.464 164.596C211.646 163.548 215.772 171.688 218.863 176.764L221.569 177.164C231.922 178.7 241.908 180.518 247.02 191.111L247.487 192.102C254.72 207.476 261.479 223.291 265.418 239.856C267.38 248.576 268.089 257.561 270.967 266.068C276.942 281.859 285.363 296.697 289.929 313.045C292.761 318.822 300.72 363.536 292.869 363.685C290.041 362.839 287.16 362.156 284.248 361.668C284.697 362.009 284.861 362.59 284.776 363.185C283.759 370.302 283.683 377.512 283.688 384.687C284.104 401.919 284.047 438.331 258.348 433.7C256.241 454.769 249.047 475.151 241.051 494.654C236.3 507.226 227.085 518.695 226.622 532.505C229.805 532.552 228.571 536.595 228.179 538.546C227.109 543.319 225.716 548.019 224.306 552.7C219.338 569.494 216.372 586.851 212.118 603.838C211.888 604.655 211.501 605.212 211.007 605.587C210.923 607.354 208.249 608.369 206.736 607.781C206.949 609.919 206.89 612.084 206.92 614.229L206.926 614.631L207.39 614.626C209.406 614.108 211.444 617.368 212.013 619.042C213.927 623.725 209.489 627.159 209.159 631.62C208.858 635.855 208.458 640.053 208.276 644.3C213.81 646.457 211.362 653.683 205.938 653.607C206.192 656.244 206.226 658.896 206.338 661.538C208.696 662.154 210.464 664.139 211.624 666.212C216.39 666.537 220.741 669.351 224.988 671.343C231.554 674.58 238.014 678.036 244.35 681.705C250.52 685.806 264.25 690.462 258.248 699.947C259.759 701.247 258.704 703.795 257.327 704.858L257.279 704.894C255.911 705.963 254.102 705.963 252.42 705.79C232.888 706.278 212.307 700.22 192.884 696.264L191.417 696.003C187.166 695.243 182.813 694.392 179.036 692.32C177.438 691.021 177.047 687.85 178.682 686.571C177.005 680.514 178.517 669.88 185.151 667.536C185.938 663.045 189.577 659.823 194.204 661.194C194.227 658.317 194.461 655.475 194.513 652.598C192.219 652.166 190.103 651.277 188.996 649.102C187.78 646.933 189.098 643.299 191.862 643.416C191.956 638.936 191.702 634.531 191.665 630.058L191.662 629.788C191.647 628.34 191.705 626.742 191.091 625.41C190.459 624.038 188.777 623.903 188.032 622.602C186.396 619.098 189.67 614.984 193.045 614.041C193.469 611.695 193.249 609.211 193.675 606.843C191.877 606.738 190.345 606.321 189.043 605.302C188.144 605.163 186.553 605.564 186.45 604.274C186.084 599.003 183.422 594.31 181.746 589.394C178.283 579.832 181.426 569.846 182.629 560.176C183.196 555.243 182.598 550.29 182.092 545.346C159.246 581.079 129.939 615.63 123.169 658.738C122.793 663.591 120.809 667.583 124.295 671.769C125.464 672.107 126.463 677.593 126.914 678.974C130.484 682.274 127.373 688.162 124.266 690.714C122.779 693.279 120.79 695.524 118.928 697.822L118.328 698.826C114.384 705.411 110.176 712.016 104.828 717.535C95.8396 724.192 80.7571 722.298 70.1705 721.098L69.2295 720.946C67.0245 720.579 64.5834 720.041 63.3145 718.081C62.2123 716.382 62.3598 714.178 63.7301 712.903C62.3702 708.989 65.4687 705.147 68.3822 702.744C79.6772 692.746 89.4131 680.985 96.995 667.951C99.9011 646.875 102.886 625.8 106.117 604.772C108.725 587.369 112.698 569.949 121.086 554.336L123.143 550.432C126.62 543.819 129.953 537.221 131.935 529.931C136.554 512.755 135.447 494.77 134.808 477.187C133.985 449.737 132.026 422.283 132.281 394.814C127.107 394.271 113.08 394.605 110.871 389.296C110.148 384.236 111.844 379.088 112.228 374.035C111.135 373.269 110.069 372.468 109.031 371.641C107.107 373.075 105.122 374.428 103.082 375.687C98.2024 379.194 94.4291 379.756 91.4092 373.99C82.6717 360.196 74.2418 346.204 66.2874 331.945C58.9097 318.267 49.7655 304.612 47.8928 288.865C45.1707 260.52 78.4687 215.155 95.1402 192.125C105.385 179.746 118.638 166.563 135.567 165.594L136.081 165.568C138.351 165.454 141.65 165.703 143.543 164.17C143.901 159.053 149.158 159.078 153.066 158.232C153.876 157.616 155.104 157.47 156.139 157.519C157.542 153.496 157.861 149.047 159.61 145.154ZM111.341 671.601C107.054 669.373 101.937 669.193 97.4269 670.959C91.8335 681.311 84.6694 690.76 76.5345 699.248C73.5623 703.39 62.4058 708.85 67.9709 714.44L68.7243 714.578C77.2672 716.131 85.9407 717.354 94.6457 716.654C100.333 715.082 104.924 710.872 108.541 706.326C113.032 700.51 116.742 694.111 120.85 688.021C124.539 681.779 126.483 681.694 123.591 674.279C123.586 674.424 123.551 674.571 123.477 674.72C122.456 676.777 119.321 676.588 117.551 675.812C115.245 674.8 113.569 672.774 111.341 671.601ZM70.8285 716.361L70.958 716.42L71.0895 716.479L71.2819 716.482L70.8285 716.361ZM233.416 679.09C227.055 676.249 215.4 667.968 208.902 669.226C204.104 670.692 199.68 673.315 194.565 673.695L194.345 673.703C190.694 673.858 184.205 675.075 182.833 670.786C181.017 674.252 180.42 678.544 180.447 682.466C180.371 685.808 181.903 688.452 185.46 688.723L188.753 689.55C209.62 694.782 230.681 699.777 252.185 701.325C257.829 697.804 257.968 693.176 251.983 689.96C245.939 686.102 239.719 682.506 233.416 679.09ZM110.518 598.348C106.781 621.704 104.271 645.192 100.652 668.558C113.284 665.405 116.993 676.717 121.696 673.561C118.407 669.237 118.801 665.98 119.775 660.948C121.705 643.999 128.025 627.876 135.86 612.827C136.753 611.109 137.67 609.4 138.598 607.696C128.523 608.614 117.678 605.744 110.518 598.348ZM188.334 664.948C187.468 666.289 187.125 667.906 186.849 669.456C186.707 670.257 186.785 671.438 186.5 672.336C191.92 672.5 197.371 671.238 202.255 668.916L202.017 668.9C198.036 668.655 189.811 669.214 188.334 664.948ZM184.964 668.404C184.436 668.779 183.98 669.212 183.586 669.693C183.453 670.44 183.84 671.253 184.467 671.717C184.592 670.624 184.745 669.49 184.964 668.404ZM195.551 652.766C195.568 656.147 195.774 659.479 195.736 662.856C195.731 664.027 196.079 665.506 195.361 666.501L196.502 666.621C199.361 666.919 202.277 667.164 205.134 666.84C205.226 662.443 205.229 658.025 205.519 653.633C201.995 653.61 199.02 653.019 195.551 652.766ZM206.468 666.228C206.463 666.363 206.46 666.505 206.465 666.638C206.876 666.562 207.285 666.47 207.688 666.363C207.356 666.329 207.018 666.386 206.691 666.273C206.616 666.262 206.539 666.252 206.468 666.228ZM194.162 665.702C193.801 666.111 193.097 666.184 192.652 665.913C192.562 665.93 192.471 665.941 192.376 665.946C192.35 665.949 192.321 665.946 192.296 665.946L192.605 666.024C193.25 666.183 193.749 666.286 194.412 666.38C194.295 666.169 194.217 665.941 194.162 665.702ZM208.99 665.685C208.907 665.839 208.793 665.967 208.653 666.074L208.972 665.967C209.025 665.949 209.078 665.93 209.13 665.91C209.088 665.832 209.04 665.759 208.99 665.685ZM190.307 664.756C190.367 664.896 190.501 665.11 190.654 665.223C190.518 665.083 190.4 664.927 190.307 664.756ZM206.378 662.581C206.38 662.661 206.383 662.742 206.388 662.825C206.431 662.779 206.483 662.737 206.544 662.709C206.487 662.666 206.43 662.623 206.378 662.581ZM191.846 644.157C189.189 645.018 190.12 648.349 192.131 649.44C194.318 650.881 197.622 650.656 200.132 650.872C202.702 650.927 205.677 651.97 207.991 650.471C209.197 649.659 209.208 647.814 207.931 647.103C207.907 647.161 207.882 647.215 207.855 647.27C207.872 647.4 207.86 647.547 207.803 647.72C206.345 650.338 197.199 648.825 194.879 647.527L194.7 647.45C193.129 646.783 191.656 646.474 191.846 644.157ZM195.095 605.632C195.67 608.207 195.482 610.888 195.845 613.472C196.073 614.221 195.781 614.719 195.313 614.975C198.332 615.876 201.374 616.323 204.518 615.622C204.177 612.602 205.037 609.237 205.473 606.201L195.095 605.632ZM206.62 606.265C206.671 606.65 206.664 607.071 206.708 607.471C206.714 607.461 206.72 607.453 206.728 607.445L206.741 607.433C207.121 607.104 207.465 606.682 207.829 606.317C207.43 606.309 207.022 606.286 206.62 606.265ZM190.882 528.111C188.959 532.69 186.788 537.143 184.354 541.48L184.453 542.505C185.096 549.22 185.581 555.943 184.49 562.645L184.387 563.22C182.705 572.611 180.609 582.39 184.689 591.48L184.874 591.957C186.332 595.689 187.866 599.391 188.26 603.399C194.891 603.873 201.543 604.534 208.183 604.767C209.9 605.058 210.735 604.078 210.888 602.468C216.068 580.785 220.612 558.953 226.226 537.378L226.284 537.267C226.892 536.104 227.349 534.767 226.218 534.36C224.085 533.989 221.994 536.267 219.968 536.849C209.096 541.131 200.861 529.756 190.882 528.111ZM190.625 536.942C197.227 546.701 193.635 561.525 192.877 573.116C192.316 577.385 192.975 581.756 192.527 586.003C192.465 586.334 191.941 586.396 191.796 586.097C190.239 582.186 190.878 577.689 191.014 573.574C191.986 561.404 194.736 548.839 190.625 536.942ZM209.927 403.284C209.902 403.125 209.678 403.182 209.664 403.32C209.593 432.592 207.752 461.78 204.841 490.906C204.8 491.537 205.834 491.686 205.956 491.057C208.05 480.239 208.896 469.216 209.605 458.231L209.685 456.987C210.607 442.231 210.9 427.436 210.503 412.657C210.417 409.551 210.405 406.358 209.927 403.284ZM269.8 360.649C269.543 360.952 269.263 361.135 268.978 361.227C268.98 368.067 267.598 374.798 263.811 380.724C262.147 382.92 261.254 385.456 260.457 388.066C260.686 388.774 260.398 389.589 259.863 389.998C256.363 400.627 256.002 412.01 257.294 423.051C261.23 417.282 262.792 410.395 263.893 403.607C263.953 403.266 264.518 403.27 264.58 403.607C265.886 410.868 263.672 418.115 260.813 424.748C259.228 426.088 259.568 429.125 259.383 431.024C288.404 435.244 278.311 379.574 282.028 362.429C282.097 361.955 282.498 361.614 282.954 361.467C278.601 360.806 274.192 360.755 269.8 360.649ZM152.385 159.456L151.882 159.582C146.587 160.903 145.183 160.933 144.847 167.154C143.529 175.929 138.663 183.593 136.476 192.08C135.601 195.078 136.524 200.602 140.674 199.795C142.018 199.382 143.066 201.191 142.049 202.153C139.045 204.99 136.129 207.917 133.196 210.827C144.973 250.55 160.274 289.242 178.91 326.258C179.649 327.726 177.433 329.02 176.699 327.548C158.169 290.412 142.761 251.732 130.802 212.001L130.44 210.796C129.912 209.335 136.665 204.093 137.895 202.38C125.581 196.455 142.731 175.705 143.232 165.732C139.665 167.125 135.712 166.648 131.989 167.256C124.835 168.505 118.558 172.64 112.977 177.093C90.3109 197.095 75.8231 224.787 61.3327 250.887C51.4636 267.922 46.7072 288.736 56.6098 306.852C68.0995 330.077 81.4326 352.465 95.5226 374.199C97.0727 376.208 99.4509 373.899 101.082 373.051C110.455 367.425 118.583 359.767 124.834 350.813C108.444 330.282 93.1962 307.848 84.6997 282.866C84.021 276.789 92.5466 269.75 95.6582 264.468C102.528 254.997 108.946 245.206 115.075 235.247C114.882 234.262 115.29 233.183 116.334 233.211L116.94 232.2C121.621 224.426 122.142 224.125 117.495 233.635C119.853 268.717 119.461 304.476 120.48 339.78C123.238 343.425 126.076 347.011 128.98 350.54C138.403 344.054 149.486 339.822 160.868 338.512L161.452 338.454C166.27 337.962 174.418 336.935 175.058 343.274C174.199 351.034 158.341 346.628 153.214 351.031C161.577 354.396 171.162 355.348 178.841 360.426C181.304 361.858 186.132 366.439 181.415 368.188C179.357 368.366 177.231 367.561 175.174 367.389C177.489 368.167 179.618 369.49 180.974 371.558C181.95 372.978 182.662 375.921 180.33 376.531C175.013 376.675 169.719 374.953 164.482 374.085L164.948 374.274C168.767 375.838 174.698 378.639 169.558 382.779C164.41 385.438 158.179 380.911 153.052 379.701C139.237 376.497 129.031 385.29 114.871 375.765C114.473 379.96 113.203 384.276 113.593 388.476C116.999 391.657 127.599 391.552 132.341 391.972L132.335 391.81C132.266 389.232 132.954 389.495 133.084 392.003C145.088 392.37 157.12 392.147 169.099 391.287C174.24 390.908 179.373 390.396 184.485 389.733L185.443 389.606C188.07 389.256 190.815 389.023 193.394 388.397C196.033 388.044 196.037 385.23 195.757 383.165C192.135 306.777 161.08 234.95 152.385 159.456ZM201.195 165.765C201.806 166.67 202.483 167.535 203.214 168.353C204.34 166.613 207.08 165.627 207.86 168.225C208.738 170.895 209.993 173.638 210.03 176.468C227.979 234.971 228.435 297.18 228.086 357.864C228.623 367.49 225.637 376.91 225.913 386.485C235.746 387.898 245.72 388.019 255.592 386.974C255.884 386.208 256.214 385.452 256.589 384.712C271.366 366.702 263.532 344.126 256.414 324.616C252.111 324.794 247.783 324.526 243.476 324.576C244.806 328.694 245.15 333.05 245.858 337.308C246.34 340.342 246.955 343.353 247.662 346.342L247.852 347.139C248.119 348.241 248.473 349.431 248.085 350.524C247.705 351.602 246.394 352.038 245.525 351.199C243.958 349.413 244.127 346.751 243.62 344.534L243.527 343.838C242.664 337.481 241.529 330.877 243.105 324.576C241.557 324.239 237.328 325.464 237.106 323.383C237.171 319.95 234.678 312.505 237.453 310.242C239.103 308.983 241.941 309.381 243.877 309.303C246.114 309.213 248.349 309.13 250.584 309.144C232.624 265.754 237.619 252.393 239.441 209.209L239.495 207.891C239.49 207.609 239.949 207.538 239.999 207.824C242.745 225.513 239.084 243.424 240.819 261.166C243.899 294.883 265.266 323.829 268.839 357.383C276.545 356.492 284.338 357.584 291.807 359.521C291.964 358.158 292.085 356.79 292.17 355.42C293.587 330.379 284.799 306.051 274.542 283.592C268.396 271.664 264.597 258.943 263.007 245.635C259.919 228.305 252.991 211.979 246.085 195.882C241.721 183.842 232.283 181.004 220.579 179.606C224.526 186.148 228.45 192.703 232.366 199.264C233.24 201.246 230.562 202.666 229.393 203.885C243.769 211.729 235.375 235.927 235.672 249.496C234.605 261.954 234.202 274.495 232.321 286.87C232.183 287.726 230.867 287.476 230.855 286.671C231.029 268.126 233.24 249.654 234.211 231.141L234.329 229.792C235.086 221.026 235.825 208.381 225.284 205.973C223.862 205.744 223.752 203.629 224.894 202.994C226.415 202.148 227.747 201.112 228.939 199.885C222.924 190.226 217.679 180.057 211.35 170.612L211.086 170.275C206.862 164.929 207.156 166.861 201.195 165.765ZM172.144 342.804C170.975 339.38 159.697 341.612 156.681 341.982C145.571 344.082 134.39 348.997 125.929 356.568C125.406 357.034 124.789 357.027 124.302 356.774C120.509 361.613 116.136 366 111.335 369.856C112.214 370.546 113.116 371.219 114.045 371.859C114.489 371.907 114.89 372.137 115.071 372.551C128.277 382.115 137.995 374.654 151.713 376.379C156.836 377.41 161.553 380.668 166.831 380.804C170.705 379.923 167.294 378.304 165.485 377.678C160.296 375.201 154.978 373.004 149.677 370.779C148.032 370.089 148.597 367.603 150.435 368.036C153.653 368.795 156.881 369.518 160.11 370.224C166.321 371.494 172.681 373.118 178.958 373.732C177.564 369.857 162.756 365.665 158.455 364.128C156.828 363.356 152.192 363.508 152.722 360.985C153.15 358.644 158.086 361.326 159.728 361.518C166.443 363.218 173.296 364.255 180.138 365.289C172.788 357.921 161.398 357.281 152.012 353.832L151.702 353.761C150.057 353.37 147.859 352.648 149.114 350.814L149.155 350.754C153.983 343.642 172.949 347.248 172.144 342.804ZM158.257 303.228C161.678 300.412 163.515 306.19 163.297 308.869C163.459 311.092 163.632 313.318 163.777 315.543C163.564 317.286 165.42 323.627 162.938 323.685C152.094 323.139 141.267 323.269 130.419 322.623C130.405 324.808 130.298 326.993 130.41 329.186C130.351 331.922 131.302 334.662 130.747 337.365C130.407 338.611 128.714 338.777 128.053 337.716C126.071 333.056 127.435 327.044 128.837 322.329C120.643 320.247 124.592 313.651 124.593 307.888C124.581 307.736 124.733 307.658 124.857 307.686C126.888 310.523 124.243 314.307 125.403 317.392C126.602 320.764 131.693 320.454 134.569 320.509L134.656 320.511C143.613 320.666 152.564 321.035 161.521 321.208C161.138 318.193 161.034 315.105 160.804 312.09C160.513 309.926 160.933 307.358 159.83 305.418C154.849 307.034 149.664 307.681 144.428 307.578C138.187 307.746 131.624 308.309 125.524 307.563C134.272 306.214 143.935 306.41 152.85 304.698C154.621 304.239 156.429 303.311 158.257 303.228ZM115.201 238.145C109.805 248.436 103.602 258.234 96.993 267.771C95.5775 269.81 94.1241 271.82 92.6472 273.815L92.3739 274.165C89.4228 277.912 86.3578 281.02 89.1463 285.993C96.4548 303.733 106.235 320.395 117.569 335.857L117.375 326.974C116.732 297.362 116.124 267.748 115.201 238.145ZM250.784 309.665C237.238 312.508 236.979 307.187 239.242 322.234C244.676 322.271 250.108 322.149 255.543 322.236C253.99 318.034 252.38 313.851 250.784 309.665ZM210.112 180.983C207.056 186.233 201.98 189.604 195.867 189.653C185.142 190.268 174.274 189.563 163.823 187.022C162.286 186.636 160.45 186.304 159.035 185.465C167.094 229.129 180.139 271.668 189.315 315.081L189.616 316.513L189.866 316.463C196.112 315.355 202.908 315.816 209.33 315.422C214.483 315.348 219.688 315.899 224.805 315.133L224.646 309.737C223.355 266.545 221.554 222.837 210.112 180.983ZM205.631 168.502C205.063 168.494 204.195 168.832 203.617 168.791C204.795 170.05 206.099 171.185 207.471 172.173C206.843 170.998 206.353 169.588 205.631 168.502Z" fill="black"/>
<path fill-rule="evenodd" clip-rule="evenodd" d="M226.32 88.7898C221.65 60.5436 185.993 55.451 162.757 61.3962C162.329 55.9629 158.906 51.1621 154.635 48.0042C136.493 34.9475 115.013 57.1151 119.314 76.22C120.085 82.0075 124.711 88.6118 131.183 87.6213C123.048 103.019 119.869 134.068 137.794 143.666C139.523 144.897 139.81 147.397 141.141 149C143.301 151.585 152.532 154.877 157.526 152.239C159.095 153.681 160.906 155.084 163.022 155.583C173.956 164.336 189.936 166.311 203.25 162.699C211.453 161.307 219.957 157.606 224.177 150.045C227.753 144.291 226.105 137.549 224.466 131.458C223.757 128.108 223.296 124.731 223.012 121.325C223.594 120.646 223.626 119.703 223.771 118.845C224.401 115.801 225.777 112.977 226.465 109.942C228.005 103.053 227.738 95.6929 226.32 88.7898Z" fill="#D08B5B"/>
<path fill-rule="evenodd" clip-rule="evenodd" d="M124.932 58.1799C128.966 50.4973 136.873 46.1628 144.782 46.7572C152.873 47.3655 159.065 52.9443 160.499 61.9524L160.541 62.2264L160.627 62.8112L160.549 62.8379L160.587 62.9043L160.654 63.0178C160.735 63.1485 160.833 63.2975 160.968 63.4918L161.148 63.7486L161.753 64.5984L161.796 64.6593L161.925 64.8452L162.185 64.7533C174.863 60.3258 188.985 60.3714 201.607 65.0791L201.99 65.2232L202.341 65.359L202.54 65.4107C210.279 67.4574 216.463 72.3796 220.697 79.4272L220.824 79.6414L220.953 79.8614C224.818 86.4985 226.799 94.7024 226.66 102.939L226.655 103.191L226.653 103.231L226.631 103.48C226.448 105.456 225.95 107.223 224.921 109.917L224.79 110.259L224.586 110.78L223.951 112.387L223.796 112.787L221.976 117.566L222.313 112.77C222.351 112.236 222.372 111.768 222.389 111.053L222.393 110.924L222.434 108.894L222.446 108.441C222.452 108.23 222.459 108.039 222.467 107.854L222.48 107.577L222.504 107.147L222.51 107.057L222.498 106.96C222.111 103.912 220.712 101.309 218.303 98.8428L218.178 98.7154L218.051 98.5882L217.899 98.4384C216.124 96.7031 214.33 95.3762 210.614 92.9412L210.454 92.8362L208.294 91.4311L207.486 90.9011C205.704 89.7272 204.618 88.967 203.469 88.0803L203.222 87.8882L203.029 87.736C201.04 86.1622 199.488 84.6158 198.295 82.9475L198.184 82.7908L197.949 82.4541L198.117 82.0947L198.115 82.0996L198.114 82.098L198.122 82.0598L198.134 81.9955L198.145 81.9176C198.166 81.7633 198.185 81.5619 198.197 81.3344C198.202 81.2521 198.206 81.168 198.209 81.0828L198.213 80.9543L198.215 80.8433L198.171 80.9743C195.868 87.6195 190.413 93.1641 182.723 97.2558L182.49 97.3793L182.225 97.5171C174.646 101.44 165.375 103.692 157.336 103.756L157.078 103.757L156.822 103.757L156.624 103.595C155.886 102.987 154.529 103.743 154.776 104.826C157.06 114.842 157.54 125.209 156.144 135.199L156.095 135.547L156.09 135.58L156.036 135.862C155.99 136.114 155.946 136.373 155.898 136.67L155.823 137.15L155.532 139.095L155.4 139.928L155.343 140.266C154.852 143.101 154.229 145.03 153.098 146.693L152.99 146.85L152.879 146.957L152.77 147.066C152.547 147.295 152.407 147.481 152.339 147.611L152.324 147.64L152.316 147.657L152.336 147.665C152.695 147.794 153.431 147.768 154.044 147.6L154.12 147.578L154.191 147.556L154.688 147.395L155.034 147.881L155.137 148.025C155.327 148.287 155.525 148.552 155.773 148.875L156.065 149.254L156.74 150.121L156.121 150.549C154.03 151.993 151.108 151.706 148.002 150.352L147.881 150.299L147.837 150.278C146.357 149.494 145.387 148.547 143.79 146.528L143.603 146.29L142.891 145.379L142.621 145.037C142.432 144.801 142.27 144.605 142.108 144.416L142.054 144.353L141.865 144.137L141.823 144.053C141.041 142.48 139.924 141.434 137.968 140.308L137.692 140.152L137.515 140.031C132.552 136.589 129.622 131.16 128.39 124.118C127.427 118.614 127.527 112.421 128.409 105.467L128.452 105.135L128.497 104.789C129.261 98.9363 131.007 93.4712 133.654 88.4958L133.792 88.2389L133.916 88.0103L133.295 87.5175L133.04 87.3192C132.829 87.1572 132.675 87.0458 132.536 86.954L132.461 86.9057L132.391 86.8627L132.372 86.8975L131.898 86.8469C129.897 86.633 127.925 85.7686 126.319 84.4362L126.186 84.3246L126.058 84.1955C122.954 81.0388 121.429 76.6624 121.428 71.6649C121.427 67.2474 122.639 62.5464 124.711 58.5914L124.814 58.3975L124.932 58.1799Z" fill="#E8E1E1"/>
<path fill-rule="evenodd" clip-rule="evenodd" d="M225.945 103.175C225.676 106.581 224.232 109.646 223.024 112.82C223.156 110.941 223.094 108.987 223.225 107.037C221.82 94.8255 205.215 91.6173 198.769 82.3837C199.013 81.8622 199.101 77.2 198.139 78.5112C194.411 94.8281 172.25 103.014 157.077 103.046C155.93 102.1 153.654 103.099 154.084 104.984C156.353 114.932 156.85 125.338 155.393 135.445C154.706 139.015 154.59 143.309 152.449 146.385C150.176 148.546 152.909 148.72 154.412 148.232C154.832 148.821 155.274 149.394 155.718 149.964C153.558 151.456 150.407 150.642 148.171 149.649C145.684 148.333 144.263 145.782 142.461 143.737C141.477 141.757 139.985 140.619 138.067 139.546C127.396 132.293 127.671 116.381 129.203 104.881C133.667 70.6604 171.646 54.1487 202.125 66.0371C218.586 70.2466 226.298 87.2668 225.945 103.175ZM126.669 83.8012C120.16 77.3181 121.47 65.9842 125.562 58.5104C133.761 42.8945 157.05 43.4019 159.839 62.33C147.962 66.3988 137.941 75.1233 131.975 86.1398C130.032 85.9322 128.154 85.0669 126.669 83.8012ZM226.319 88.795C221.65 60.5489 185.993 55.4563 162.757 61.4016C162.329 55.9682 158.906 51.1673 154.635 48.0092C136.492 34.9527 115.013 57.1203 119.313 76.2252C120.085 82.0128 124.711 88.617 131.183 87.6266C123.047 103.024 119.869 134.073 137.793 143.671C139.523 144.902 139.81 147.402 141.141 149.005C143.301 151.59 152.532 154.883 157.526 152.244C158.713 153.701 165.453 158.131 164.961 153.788C164.465 152.618 162.934 152.313 161.914 151.734C159.77 150.551 157.907 148.883 156.444 146.923C161.04 133.962 160.69 119.53 158.115 106.184C173.503 105.409 191.609 98.6641 198.396 83.8522C202.984 94.6314 217.213 96.0186 220.807 108.07C221.024 114.4 219.666 120.636 220.651 126.969C220.94 133.172 224.218 139.334 222.323 145.496C217.027 158.934 197.963 160.906 185.368 160.344C182.376 160.097 179.893 158.48 177.433 156.945C175.959 156.246 174.205 157.709 175.108 159.271C178.556 164.084 185.649 164.505 191.096 164.331C205.23 163.493 225.658 159.317 226.392 141.861C225.925 134.942 223.21 128.32 223.012 121.33C223.594 120.651 223.626 119.708 223.771 118.85C224.401 115.806 225.777 112.982 226.465 109.947C228.005 103.058 227.738 95.6984 226.319 88.795Z" fill="black"/>
<path fill-rule="evenodd" clip-rule="evenodd" d="M181.252 133.626C183.846 132.067 193.541 133.21 201.157 133.626C207.205 133.956 211.525 133.301 212.907 134.23C216.031 136.328 214.513 146.474 209.131 147.861C203.749 149.248 183.797 151.186 180.356 147.861C176.916 144.536 176.599 136.422 181.252 133.626Z" fill="white"/>
<path fill-rule="evenodd" clip-rule="evenodd" d="M184.612 130.942C188.683 130.449 192.629 131.693 196.609 132.32C198.71 132.651 200.814 132.898 202.94 132.99C203.368 133.009 203.796 133.019 204.224 133.028C204.264 132.652 204.475 132.307 204.932 132.1C205.868 131.676 206.618 131.485 207.646 131.526C208.587 131.563 209.532 131.66 210.459 131.829C212.142 132.137 213.833 132.836 215.064 134.05C217.913 136.859 217.479 141.372 215.278 144.432C210.729 150.755 202.428 151.048 195.318 150.965L194.662 150.957C188.188 150.865 178.926 151.828 175.985 144.477C174.903 141.774 175.053 138.641 176.378 136.049C177.957 132.956 181.282 131.346 184.612 130.942ZM204.834 141.47L204.776 141.472C201.791 141.587 198.807 141.668 195.82 141.721C195.91 142.486 196.001 143.252 196.105 144.015C196.187 144.616 196.275 145.217 196.366 145.816C196.404 146.07 196.546 146.464 196.506 146.716L196.492 146.815C196.645 146.884 196.784 146.996 196.888 147.158C196.924 147.214 196.95 147.27 196.976 147.326C199.294 147.344 201.79 147.299 204.153 146.879L204.158 146.828C204.201 146.526 204.326 146.323 204.493 146.184C204.659 145.223 204.644 144.199 204.708 143.246C204.748 142.654 204.792 142.062 204.834 141.47ZM193.539 141.761C191.388 141.798 189.236 141.826 187.085 141.8L186.108 141.785C186.315 142.889 186.539 143.989 186.725 145.1C186.92 146.259 185.898 146.995 185.014 146.965C185.114 146.981 185.213 146.998 185.312 147.012C188.074 147.402 190.943 147.299 193.746 147.296C193.595 146.417 193.656 145.426 193.634 144.692L193.63 144.579C193.587 143.639 193.557 142.7 193.539 141.761ZM178.926 141.559C179.001 142.133 179.146 142.695 179.363 143.218C180.282 145.428 182.387 146.459 184.615 146.893C184.228 146.76 183.921 146.44 183.844 145.892C183.651 144.529 183.581 143.143 183.576 141.76C182.024 141.745 180.461 141.712 178.926 141.559ZM212.93 141.087C211.824 141.347 210.54 141.228 209.455 141.277C208.44 141.323 207.423 141.363 206.407 141.404C206.455 142.096 206.502 142.788 206.552 143.48C206.618 144.374 206.624 145.319 206.796 146.209C208.84 145.513 210.672 144.396 212.047 142.61C212.389 142.165 212.696 141.643 212.93 141.087ZM184.145 134.568C182.305 135.003 180.563 135.922 179.628 137.602C179.072 138.599 178.828 139.781 178.875 140.945C180.43 140.764 182.012 140.696 183.586 140.639C183.591 140.356 183.598 140.074 183.606 139.792L183.631 139.069C183.673 137.69 183.695 135.959 184.145 134.568ZM193.668 134.737L192.858 134.646C190.608 134.39 188.36 134.121 186.11 134.275C185.784 134.298 185.454 134.333 185.123 134.382C185.52 135.814 185.487 137.496 185.653 138.913C185.717 139.461 185.798 140.005 185.888 140.546L186.278 140.528C188.692 140.398 191.109 140.317 193.525 140.222C193.525 139.769 193.527 139.316 193.534 138.863L193.543 138.41C193.571 137.252 193.496 135.948 193.668 134.737ZM204.966 134.553C202.609 134.932 200.174 135.013 197.86 135.016C196.935 135.017 196.011 134.96 195.088 134.879C195.148 135.369 195.179 135.866 195.224 136.35C195.316 137.328 195.42 138.304 195.533 139.279L195.634 140.133C198.604 139.999 201.573 139.853 204.542 139.703L204.961 139.68L205.078 138.04C205.158 136.946 205.246 135.853 205.37 134.764L205.277 134.73C205.168 134.685 205.064 134.624 204.966 134.553ZM205.989 134.96C206.119 136.506 206.19 138.059 206.286 139.609L208.243 139.504C208.569 139.487 208.896 139.468 209.222 139.45C210.49 139.377 212.12 138.993 213.374 139.351C213.469 138.213 213.143 137.105 212.115 136.341C210.309 134.999 208.009 135.477 205.989 134.96ZM199.302 121.134C202.216 119.469 209.529 117.766 209.992 123C210.205 125.409 208.411 127.405 206.315 128.296L206.237 128.328C204.271 129.135 200.788 130.045 199.088 128.297C197.672 126.842 199.549 124.232 201.308 125.425C202.212 126.037 204.115 125.586 205.123 125.294L205.187 125.276C206.275 124.957 207.726 123.935 207.276 122.598C206.878 121.414 205.183 121.198 204.122 121.16C202.537 121.103 200.996 121.47 199.426 121.59C199.177 121.609 199.1 121.249 199.302 121.134ZM211.374 112.717C215.33 112.533 217.79 116.843 216.881 120.374C216.724 120.984 216.041 121.582 215.381 121.514L215.215 121.498C215.131 121.49 215.046 121.48 214.968 121.458C214.342 121.285 213.781 120.635 213.826 119.962L213.839 119.765C213.931 118.097 213.75 116.175 211.763 115.771C210.078 115.428 209.137 117.047 209.117 118.536C209.113 118.801 208.816 118.986 208.581 118.843C207.363 118.104 207.152 116.632 207.617 115.365C208.207 113.759 209.683 112.796 211.374 112.717ZM182.02 113.642C184.899 112.683 188.004 114.215 189.398 116.755C189.887 116.896 190.376 117.272 190.308 117.848C190.21 118.676 190.062 119.199 189.486 119.827C188.586 120.81 186.899 120.307 186.525 119.097L186.509 119.043C186.084 117.479 184.359 116.447 182.788 116.994C180.952 117.634 181.005 119.569 179.717 120.696C179.566 120.828 179.385 120.85 179.203 120.762C177.835 120.103 178.081 118.117 178.569 116.981C179.208 115.49 180.451 114.164 182.02 113.642ZM178.1 104.918C180.432 102.543 186.515 100.244 188.111 104.631C188.415 105.466 187.767 106.593 186.896 106.766C185.469 107.049 184.202 106.431 182.784 106.542C181.637 106.632 180.439 107.015 179.522 107.725C176.98 109.69 176.421 113.014 174.65 115.515C174.564 115.637 174.397 115.586 174.381 115.442C173.977 111.801 175.545 107.52 178.1 104.918ZM208.521 102.58C210.069 102.034 211.822 102.081 213.378 102.565C214.945 103.053 216.384 103.979 217.493 105.189C217.996 105.738 218.461 106.345 218.834 106.99C219.033 107.332 219.241 108.039 219.467 108.459C220.686 109.162 221.207 110.763 220.116 111.902L220.066 111.952L219.92 112.096C219.333 112.676 218.449 112.927 217.648 112.696C215.855 112.178 215.637 110.769 215.017 109.274C214.607 108.286 213.904 107.412 213.053 106.77C211.041 105.253 207.741 104.77 205.319 105.484C205.19 105.523 205.038 105.359 205.13 105.24C205.589 104.646 205.854 104.159 206.468 103.68C207.092 103.194 207.773 102.843 208.521 102.58Z" fill="black"/>
<path fill-rule="evenodd" clip-rule="evenodd" d="M230.587 102.917C230.392 102.885 230.196 102.854 230 102.826C229.848 102.739 229.668 102.672 229.46 102.632C228.984 102.512 228.511 102.43 228.039 102.387C221.263 100.865 205.587 103.026 204.94 108.796C202.782 109.515 200.915 108.871 198.414 108.935C196.51 100.994 163.598 102.115 162.015 106.903C162.009 106.901 162.003 106.9 161.997 106.898C160.476 106.428 158.234 106.541 156.493 106.467C152.776 106.389 149.055 106.72 145.418 107.502C138.608 108.582 129.314 109.847 134.051 118.334C134.051 118.335 134.052 118.337 134.053 118.338L134.054 118.337C134.87 119.172 136.256 118.5 136.307 117.37C134.715 113.349 138.311 112.866 141.079 111.711C147.964 109.242 154.974 108.9 162.096 109.664C162.631 110.293 163.444 110.842 164.304 111.129C169.065 111.918 166.556 115.443 169.565 115.955C169.013 128.242 183.96 134.949 192.621 126.872C196.079 123.498 196.904 118.5 197.706 113.995C198.129 113.9 198.399 113.668 198.556 113.362C199.576 112.346 200.217 111.408 202.233 111.129C204.249 110.85 205.801 111.41 206.011 111.581C206.064 111.688 206.12 111.794 206.186 111.901C206.278 112.06 206.404 112.187 206.546 112.287C204.555 124.522 214.073 132.26 223.682 125.914C227.857 121.995 228.739 115.994 228.914 110.638C229.479 110.297 229.838 109.637 229.642 108.806C229.372 107.662 230.005 106.67 231.013 106.173C232.324 105.526 232.092 103.166 230.587 102.917ZM189.3 108.722C188.107 108.46 187.598 110.295 188.794 110.558C189.642 110.744 190.36 111.17 190.845 111.892L190.896 111.971C191.547 113.005 193.193 112.05 192.537 111.01C191.8 109.839 190.654 109.019 189.3 108.722ZM224.231 107.584C223.811 107.288 223.175 107.508 222.931 107.926C222.662 108.386 222.838 108.898 223.232 109.198L223.272 109.228C223.633 109.482 223.985 109.937 224.029 110.404L224.033 110.462C224.08 111.683 225.982 111.69 225.934 110.462C225.888 109.262 225.191 108.259 224.231 107.584Z" fill="black"/>
</svg>
