<svg width="391" height="780" viewBox="0 0 391 780" fill="none" xmlns="http://www.w3.org/2000/svg">
<path fill-rule="evenodd" clip-rule="evenodd" d="M273.952 718.54C275.386 712.756 273.277 708.143 267.22 704.737C266.699 703.361 254.994 698.899 245.692 692.349C237.336 686.464 231.275 678.386 231.021 677.938C231.021 677.938 229.142 673.576 228.928 671.607C227.901 662.164 228.495 655.974 227.86 653.037C232.134 652.477 242.641 375.464 240.942 366.282C243.725 365.672 246.677 365.028 249.33 363.462C249.542 363.408 249.194 362.794 249.204 362.678C255.86 349.636 245.649 305.288 239.249 293.01C244.331 292.878 251.025 292.188 254.172 287.953C255.661 287.464 256.6 286.611 257.323 285.242C258.156 283.937 258.928 282.568 259.624 281.165C263.01 274.145 265.099 266.349 263.97 258.614C264.185 258.546 265.293 258.539 265.349 258.229C265.457 256.328 265.108 254.652 264.535 252.856C258.72 232.626 251.72 212.709 242.468 193.664C237.831 183.47 228.239 179.75 218.299 175.923C213.518 174.048 208.734 171.884 203.744 170.656C203.681 170.307 203.979 169.247 203.325 169.334C202.517 169.502 202.676 170.798 202.377 171.525C190.837 162.098 198.155 157.239 191.197 152.076C183.998 148.346 175.217 148.195 167.279 149.002C164.351 149.086 162.007 150.404 161.317 153.346C158.799 159.433 152.901 163.914 146.466 165.287C145.934 164.343 144.472 161.633 143.653 162.489C134.359 162.805 120.268 166.21 111.57 168.758C102.837 170.984 94.0031 175.047 91.7184 184.517C87.573 201.392 94.1681 270.744 104.986 284.1L105.337 284.106C107.255 286.064 109.862 287.5 112.816 288.462C112.75 294.706 110.778 300.802 109.796 306.909C107.587 317.983 105.889 329.07 103.428 340.203C103.417 341.443 98.7343 358.418 103.351 355.014C104.304 355.482 105.471 355.991 106.497 356.428C101.593 367.585 99.3482 385.585 99.6959 399.366C99.7828 407.573 99.4427 414.763 97.5982 423.168C83.9513 494.38 71.9192 653.659 71.6363 655.789C71.3763 657.824 73.1031 668.871 71.6363 671.785C70.3345 674.372 64.7821 672.844 63.72 673.842C60.9615 678.326 62.2244 681.183 59.9619 685.659C58.8015 686.696 56.2072 688.962 55.356 690.556C53.633 692.212 25.0974 710.901 26.254 713.736C26.254 713.736 26.1238 715.097 26.0801 715.393C23.6473 729.52 27.6984 729.403 40.8054 731.481C59.9523 734.852 74.262 728.367 90.4436 719.702C95.8208 716.083 103.464 709.173 100.976 700.988C100.907 700.488 99.4317 691.88 98.8466 687.509C98.8466 687.509 100.432 684.009 94.2948 684.445C95.3041 683.339 97.5215 669.015 96.7651 667.12C96.2846 662.238 97.0306 657.808 96.7945 652.784C99.3656 652.974 144.504 439.391 172.817 426.118C172.993 427.537 172.653 430.178 174.54 430.442C183.297 498.631 204.353 651.39 205.32 651.657C203.868 659.444 203.912 677.496 203.885 685.226C203.663 685.433 202.644 686.341 202.48 686.562C202.446 686.505 201.782 687.166 201.748 687.184L201.658 686.978C198.676 693.691 194.329 700.603 198.171 707.182C195.32 706.974 195.777 712.451 195.65 714.97C197.274 719.902 243.442 733.207 253.759 733.839C257.149 734.43 272.935 729.418 275.973 728.698C279.91 727.963 276.048 720.661 273.952 718.54Z" fill="#D08B5B"/>
<path fill-rule="evenodd" clip-rule="evenodd" d="M202.78 686.281C201.904 689.549 203.495 691.183 207.552 691.183C213.638 691.183 217.496 681.849 220.506 680.78L221.676 680.356C223.436 679.712 226.42 678.597 230.63 677.012C230.754 677.312 230.884 677.62 231.021 677.938C231.275 678.386 237.336 686.464 245.692 692.349C254.994 698.899 266.699 703.361 267.22 704.737C273.277 708.143 275.386 712.756 273.953 718.54C276.048 720.661 279.91 727.963 275.974 728.698C272.936 729.418 257.149 734.43 253.759 733.839C243.442 733.207 197.274 719.902 195.65 714.97L195.66 714.736C195.753 712.127 195.405 706.98 198.171 707.181C194.406 700.735 198.505 693.967 201.478 687.381L201.658 686.978L201.748 687.183C201.782 687.166 202.446 686.505 202.48 686.562C202.522 686.506 202.62 686.404 202.746 686.281L202.78 686.281ZM80.4713 680.244L80.5128 680.385C81.2145 682.802 83.1345 691.183 85.3998 691.183C86.9408 691.183 88.842 690.23 91.1035 688.324L91.3647 688.084C93.3504 686.267 94.9534 685.043 96.1737 684.411C98.8315 684.543 99.7224 685.576 98.8466 687.509L98.9209 688.053C99.5475 692.556 100.91 700.508 100.976 700.988C103.464 709.172 95.8208 716.082 90.4436 719.702C74.262 728.367 59.9523 734.852 40.8054 731.481L39.6502 731.3C27.4612 729.397 23.7203 729.096 26.0801 715.392L26.0966 715.267C26.1498 714.826 26.254 713.736 26.254 713.736C25.0974 710.9 53.633 692.212 55.356 690.556C56.2072 688.962 58.8015 686.695 59.9619 685.659C62.2244 681.183 60.9615 678.326 63.72 673.842C64.466 673.141 67.4273 673.686 69.5749 673.176C73.1969 673.768 79.8271 678.101 80.4713 680.244Z" fill="white"/>
<path fill-rule="evenodd" clip-rule="evenodd" d="M146.193 164.803L146.466 165.288C153.017 184.366 163.756 194.633 178.681 196.09C193.606 197.546 201.306 192.769 201.781 181.758L203.44 169.331C203.942 169.381 203.685 170.33 203.743 170.656C208.734 171.884 213.518 174.048 218.299 175.923L219.787 176.497C229.185 180.138 238.063 183.98 242.468 193.664C251.72 212.709 258.72 232.626 264.535 252.856C265.107 254.652 265.457 256.328 265.348 258.229C265.293 258.539 264.185 258.546 263.97 258.614C265.099 266.349 263.01 274.145 259.624 281.166C258.928 282.569 258.156 283.937 257.323 285.242C256.6 286.612 255.661 287.464 254.172 287.953C251.025 292.188 244.331 292.878 239.249 293.01C245.649 305.289 255.86 349.636 249.203 362.678C249.193 362.794 249.338 366.126 249.126 366.18C246.473 367.747 241.697 368.651 238.914 369.261L233.927 369.972C234.106 371.196 241.168 372.118 241.073 379.161L103.308 383.245C104.292 373.451 104.223 366.882 107.345 359.781L103.545 358.359C102.637 357.969 104.167 355.415 103.351 355.014C98.7342 358.418 103.417 341.444 103.428 340.203C105.889 329.07 107.587 317.983 109.796 306.909C110.778 300.803 112.749 294.706 112.816 288.463C109.923 287.52 107.364 286.124 105.458 284.227L105.337 284.106L104.986 284.1C94.168 270.744 87.5729 201.393 91.7183 184.518C94.0029 175.048 102.837 170.984 111.57 168.758L112.098 168.604C120.83 166.076 134.545 162.799 143.653 162.489C144.357 161.753 145.538 163.656 146.193 164.803ZM157.854 239.425C150.758 239.425 143.216 240.261 135.229 241.933L133.974 243.696L135.229 254.316C140.142 253.804 145.318 254.491 150.756 256.377L151.015 256.467C156.547 258.422 160.502 259.923 162.878 260.969L171.492 268.207L168.729 281.13L169.396 281.161C180.184 281.645 186.248 281.105 187.586 279.539C188.951 277.942 189.557 276.325 189.403 274.69L189.138 274.059C184.86 263.823 182.991 257.242 183.53 254.316C184.081 251.33 184.081 248.99 183.53 247.296L182.931 246.984C173.167 241.945 164.808 239.425 157.854 239.425Z" fill="#9DDADB"/>
<path fill-rule="evenodd" clip-rule="evenodd" d="M163.237 151.689C164.732 151.642 165.017 153.519 163.996 154.297L163.953 154.328C163.083 154.945 162.674 155.496 162.201 156.479C159.897 162.566 153.399 166.057 147.043 164.764C149.251 168.874 150.733 172.852 152.943 176.892C163.118 197.811 196.534 204.616 200.53 175.914C194.407 174.733 190.779 160.991 194.708 156.892L194.814 157.391C195.946 162.773 196.721 168.283 200.809 172.342C200.934 172.378 201.053 172.389 201.17 172.389C201.326 171.652 201.505 170.924 201.729 170.209C202.273 168.465 204.996 168.793 204.92 170.679C213.073 173.159 220.909 176.671 228.708 180.064C235.192 182.887 240.493 187.936 243.514 194.33C251.982 211.821 258.448 230.283 264.085 248.856C264.463 251.366 268.678 260.694 265.277 261.591C266.112 269.276 263.978 277.048 260.682 283.949C259.152 286.542 258.073 290.136 255 291.217C251.81 295.216 245.976 296.254 241.12 296.536C247.652 311.883 256.527 350.973 250.525 366.223C251.058 368.725 244.142 369.913 242.291 370.484C243.783 379.379 243.457 388.542 242.814 397.501C236.791 473.916 235.648 550.751 241.985 627.185C242.358 631.949 242.759 636.713 243.184 641.475L243.441 644.33C243.779 648.131 244.065 651.918 243.977 655.75C243.949 657.079 242.845 657.878 241.74 657.947C238.031 660.309 233.05 660.328 228.759 660.898C229.517 665.026 229.942 671.467 231.268 674.94C234.029 674.22 235.808 676.789 233.057 678.24C236.444 680.116 238.187 683.707 240.898 686.227C248.347 683.208 249.734 687.719 243.647 688.748C245.302 690.127 247.059 691.4 248.875 692.61L249.004 692.592C251.151 692.267 255.199 690.494 256.216 692.841C256.672 694.54 254.57 695.08 253.048 695.287C254.399 696.137 255.754 696.982 257.11 697.827C258.296 697.305 259.473 696.655 260.682 696.237C263.66 695.576 263.917 699.432 260.031 699.65C262.465 701.444 265.825 700.41 267.381 702.943C273.074 705.237 275.765 712.166 274.436 717.702C276.435 719.477 277.839 722.136 278.001 724.808C278.386 727.671 276.103 730.364 273.011 731.118C269.527 732.275 265.994 733.331 262.47 734.324L262.1 734.451C259.196 735.439 256.024 736.324 253.003 736.151C235.089 735.085 211.201 727.741 196.863 718.603C193.287 715.92 192.662 709.285 197.583 707.164C195.315 703.06 196.399 700.078 197.36 695.609C198.028 692.694 198.934 689.703 200.575 687.006C200.721 686.767 201.071 686.839 201.09 687.074C201.305 690.124 201.02 693.244 200.792 696.315L200.767 696.656C200.564 699.488 200.104 700.53 200.874 703.211C202.716 710.053 220.48 713.469 227.461 716.291C232.941 717.984 238.505 719.502 244.147 720.836L244.561 720.925C249.323 721.971 254.227 723.554 259.243 722.732C261.845 720.843 265.749 721.375 268.305 719.214C272.161 715.059 269.129 708.968 266.428 705.192C263.815 706.024 261.582 703.785 259.659 702.602L259.588 702.558C257.624 701.319 255.665 702.187 253.698 700.95L253.254 701.034C246.028 702.409 240.434 703.976 251.958 699.863C250.06 698.679 248.157 697.485 246.313 696.229C242.528 696.685 238.381 698.668 234.864 698.848C237.231 696.647 240.461 695.428 243.504 694.217C241.732 692.875 240.046 691.438 238.538 689.857L237.098 690.216C228.247 692.409 224.768 693.043 236.683 687.694C234.34 685.097 233.959 681.252 231.383 678.81C227.24 679.676 223.433 681.494 220.058 683.843C218.694 684.818 217.666 686.036 216.585 687.256C211.463 693.832 203.529 694.846 201.106 686.317C201.064 686.142 201.339 686.033 201.416 686.181L201.425 686.202C202.584 688.822 206.325 690.946 209.449 689.318L209.543 689.267C212.599 687.678 214.018 684.436 216.425 682.227C219.672 679.3 223.744 677.338 227.944 675.866C226.926 672.152 226.582 665.392 226.698 661.035C219.625 661.368 212.506 661.028 205.559 659.686C206.672 667.786 205.94 678.326 206.452 685.549C207.191 687.972 202.692 689.487 202.214 687.073C201.95 679.258 202.716 667.986 203.908 659.265L203.409 659.143C202.938 659.027 202.443 658.885 202.039 658.658C197.581 659.162 198.797 647.855 198.048 644.674C193.018 574.547 182.422 505.05 173.417 435.385C172.168 434.908 171.947 433.378 171.74 432.1C160.393 439.766 158.132 455.085 153.052 466.959C130.869 528.444 120.958 593.312 105.583 656.627L105.668 656.649C105.728 656.667 105.729 656.676 105.602 656.667L105.573 656.665V656.669C106.523 656.795 107.272 657.79 106.692 658.717C104.961 662.203 100.163 660.97 97.0047 660.748C97.3113 666.117 96.1592 677.703 96.8893 682.486C100.785 682.558 101.033 686.838 101.549 689.382L101.589 689.643C102.277 693.989 104.591 702.139 102.863 705.652C105.535 708.825 103.613 713.136 100.841 715.303C97.8723 717.492 94.1774 718.775 90.8219 720.461C75.0291 726.829 59.7502 739.106 40.3972 734.381L39.5547 734.204C25.9908 731.343 22.0938 730.073 24.7875 716.675C23.6813 713.952 23.6739 710.97 25.2304 708.562C28.0062 705.007 32.67 703.062 36.381 700.361C42.6667 696.146 49.3565 692.46 55.4958 688.073C55.2676 687.875 55.5844 687.802 55.7706 687.836C60.1034 684.45 59.698 678.59 62.7207 674.408C63.4767 672.253 67.2938 671.728 69.8077 672.027C69.0223 668.01 72.8589 649.729 73.3463 662.642L73.3461 662.827C73.3556 664.821 73.6827 671.476 73.0945 672.779C81.4385 675.324 83.2377 683.324 85.0234 689.784L85.1383 689.815C85.7083 689.961 86.4718 690.08 86.7568 690.638C89.44 688.937 90.1897 685.586 92.7883 683.784C92.0595 683.215 92.021 682.129 92.3929 681.287C93.6031 676.859 94.3287 665.588 96.1569 660.642C87.5671 659.357 78.8164 658.704 70.4273 656.373C69.3372 657.442 67.1001 657.063 67.1879 655.133C69.7861 613.097 74.2547 571.191 79.8877 529.457C84.5192 490.392 92.667 451.824 98.3423 412.964L98.3903 407.63C98.5435 391.597 98.9727 375.324 104.963 360.229C104.436 359.999 103.913 359.762 103.398 359.513C96.9024 362.2 102.02 345.872 102.259 342.93C105.451 325.869 109.211 308.811 111.609 291.644C109.096 290.737 106.775 289.45 104.839 287.579C93.103 278.045 86.2994 200.829 90.5649 185.303C92.7914 175.537 102.227 170.739 111.219 168.532L112.547 168.157C122.591 165.337 132.808 162.783 143.265 162.155C143.637 161.818 144.732 161.915 144.876 162.196C145.531 162.589 146.152 163.358 146.678 164.17C161.192 162.505 157.266 153.037 163.237 151.689ZM197.96 707.781C195.928 712.387 198.628 715.89 203.155 717.826C218.831 725.08 236.332 730.909 254.298 732.022C259.78 730.699 265.21 728.513 270.765 727.16L271.004 727.117C272.96 726.758 273.878 726.399 273.711 724.372L273.782 723.552C273.907 722.096 274.013 720.642 273.912 719.186C272.203 723.265 267.087 725.507 262.603 726.33C255.493 729.698 247.53 726.273 240.545 724.831C229.198 721.388 204.651 715.978 197.96 707.781ZM99.4774 707.877L99.2427 707.949C97.2078 708.577 95.1386 709.347 92.8579 708.78C82.6696 712.227 72.7527 716.137 62.9104 720.207C52.2909 725.282 35.1911 731.181 25.9884 718.918C27.3115 725.35 25.441 727.55 34.2274 729.154C48.169 733.691 59.3711 731.368 70.9397 725.169C79.4155 721.056 88.5318 717.786 96.7358 713.317L96.8466 713.239C98.4603 712.089 100.407 709.992 99.4774 707.877ZM78.3167 680.188C75.6566 675.29 68.4982 672.601 63.1744 674.406C62.6327 679.13 64.036 684.418 61.0308 688.519C63.6919 688.985 66.3445 689.521 68.9932 690.077L71.4169 690.588C72.6065 690.848 74.1202 691.293 73.9215 692.552C73.7017 693.944 71.8714 693.519 70.6533 693.169L70.1813 693.031C66.7605 692.026 63.3454 691.001 59.968 689.852C58.1878 691.807 55.798 693.341 53.4803 694.822L54.4416 694.931C57.8095 695.309 61.21 695.651 64.5376 696.332C65.9915 696.762 65.6778 698.74 64.1901 698.582C60.2174 697.548 56.2551 696.378 52.2143 695.636C50.2391 696.94 48.2731 698.25 46.2932 699.547C50.1873 700.109 54.0985 700.16 57.9907 700.492C60.5107 700.724 60.51 704.161 57.9905 703.962C53.4437 703.546 48.8999 702.204 44.5709 700.678L42.2894 702.175C39.6265 703.921 36.9578 705.663 34.2624 707.368C32.6406 708.399 30.546 709.38 29.4127 710.873C25.8337 716.642 34.7766 722.155 40.8198 722.063C49.998 722.161 57.6423 717.405 65.6823 714.558C70.1297 713.459 92.7413 702.161 94.7989 705.135C96.0926 704.515 97.8918 704.291 98.8232 703.269C99.0118 698.545 98.0146 693.596 97.1776 688.832C97.0071 688 96.5996 687.003 96.554 686.149C92.7874 687.536 91.7149 692.782 86.7571 692.336C85.9812 693.573 83.5916 692.997 82.5134 692.014C81.34 690.945 81.1927 689.44 80.9127 688.099L80.7829 687.483C80.2565 685.014 79.6255 682.483 78.3167 680.188ZM189.928 279.539L189.322 279.692C183.152 281.233 176.699 282.348 170.358 281.934C169.262 286.072 169.834 295.916 165.376 297.489C163.853 298.062 161.561 297.597 160.863 296.045C151.642 295.881 142.356 295.059 133.135 294.512C126.193 293.967 118.991 293.988 112.309 291.885C113.119 295.954 113.397 299.949 112.944 304.11C111.385 321.857 106.254 339.149 104.534 356.82L104.455 357.662L104.405 357.634C104.405 357.667 104.403 357.7 104.4 357.733C104.901 357.878 105.402 358.03 105.901 358.184C106.079 358.094 106.322 358.181 106.45 358.352C143.174 369.752 182.155 374.703 220.43 369.686C227.133 368.851 233.788 367.681 240.396 366.294C240.338 365.704 241.24 365.55 241.398 366.107C242.865 365.852 244.331 365.572 245.79 365.384C245.614 364.889 245.583 364.353 245.763 363.87C248.608 355.351 247.308 345.64 246.411 336.806C245.267 323.242 242.415 309.938 240.111 296.558C229.205 296.064 218.363 294.287 207.404 294.509C206.25 297.496 202.225 300.004 199.074 298.297C196.85 297.097 196.191 294.483 195.298 292.323C193.533 288.052 191.73 283.795 189.928 279.539ZM143.715 162.56C132.262 165.936 120.529 168.348 109.18 172.095C99.7483 174.441 93.3097 180.346 92.9121 190.418C92.1339 211.994 94.504 233.679 98.0816 254.941L98.2683 255.901C100.253 266.148 102.033 276.575 105.781 286.342C111.253 288.881 117.466 289.604 123.453 289.898C132.19 290.342 140.926 290.797 149.655 291.368L156.499 291.811C158.484 291.939 161.245 291.6 162.738 293.141C162.87 293.358 163.139 293.331 163.343 293.466L163.383 293.495C163.601 293.643 163.821 294.001 164.135 293.932C164.645 293.774 164.841 292.758 164.961 292.273L164.972 292.229C165.637 289.633 166.118 286.982 166.732 284.372C168.131 279.237 168.734 273.81 170.861 268.895C167.817 266.956 164.949 264.739 162.49 262.109L159.525 261.067C152.432 258.583 145.259 256.176 137.866 254.687C137.689 256.307 135.36 257.233 134.491 255.538C133.052 251.22 132.785 246.532 131.792 242.082C129.538 228.804 126.861 215.575 125.302 202.192C129.6 214.045 131.826 228.594 135.11 241.404C135.262 241.316 135.473 241.368 135.48 241.577C147.108 237.189 160.018 237.367 171.493 242.025C174.368 243.175 177.287 244.208 180.147 245.395C181.123 245.945 183.068 245.912 183.396 247.115C183.748 246.298 184.22 245.533 184.847 245.017C185.042 244.615 187.265 243.897 187.482 244.693C200.519 246.479 213.195 252.139 226.609 251.183C225.021 245.4 225.209 239.154 225.103 233.181L225.135 232.509C225.411 226.625 225.611 219.342 227.609 214.5C226.331 226.69 227.259 238.9 228.82 250.977C238.281 249.759 233.925 255.158 227.623 254.955C214.906 255.869 203.169 250.256 191.465 246.166C185.073 243.615 184.348 245.775 184.633 251.837C184.639 259.73 188.22 266.933 191.464 273.935L192.922 277.206C195.344 282.648 197.733 288.055 200.087 293.563C210.369 290.16 221.946 292.027 232.599 292.647C240.727 293.666 246.563 293.304 253.44 288.612C255.92 283.882 259.188 279.397 260.466 274.063C261.948 269.174 262.442 264.053 262.874 258.986L262.484 257.569C257.473 239.378 251.927 221.277 244.348 203.951L243.938 202.997C241.369 196.997 238.759 190.7 233.561 186.497C224.837 180.069 214.048 177.218 204.878 171.498L204.819 171.916C203.889 178.478 202.281 185.28 198.073 190.559C190.298 200.087 175.617 200.355 165.667 194.167C155.316 188.455 149.105 177.821 146.084 166.705L146.049 166.582C145.766 165.592 144.978 162.592 143.715 162.56ZM171.826 269.496C171.82 272.99 171.129 276.435 170.661 279.884C176.043 278.824 181.408 278.085 186.701 276.652C181.545 274.708 176.535 272.366 171.826 269.496ZM158.868 241.314C151.021 239.781 142.988 240.698 135.229 241.933C136.072 245.844 137.035 249.721 137.84 253.637C140.618 253.51 166.977 258.169 164.002 261.908C167.893 263.985 171.578 266.426 175.451 268.547C179.347 270.681 183.402 272.514 187.586 274.004L187.365 273.514C183.764 265.486 180.4 256.452 183.175 247.678C179.444 249.172 174.351 245.962 170.737 244.761C166.9 243.224 162.948 242.012 158.868 241.314ZM102.377 210.228C102.403 208.763 106.936 212.963 107.527 213.399L107.885 213.722C112.235 217.661 116.532 221.995 118.955 227.401C119.132 232.713 111.199 219.844 110.099 219.057C107.699 215.975 104.776 213.298 102.377 210.228ZM227.806 222.733C226.58 223.136 229.927 218.985 231.232 219.288C231.752 219.212 232.203 219.963 231.627 220.222L231.341 220.347C230.001 220.927 228.632 221.422 227.806 222.733Z" fill="black"/>
<path fill-rule="evenodd" clip-rule="evenodd" d="M226.717 117.761C228.185 107.166 225.05 96.9407 220.989 87.2574C220.766 86.6677 220.412 86.157 219.957 85.7939C208.496 62.6908 191.654 60.5987 168.16 62.1898C167.465 62.1744 167.424 62.1867 166.897 61.9509C166.81 52.5658 156.092 47.5945 147.936 50.691C111.764 67.5019 123.138 114.829 130.336 145.727C132.904 157.688 135.473 169.648 138.041 181.608C138.128 182.008 138.31 182.354 138.551 182.645C138.178 182.787 137.805 182.92 137.439 183.044C136.603 183.329 136.935 184.575 137.805 184.373C138.657 184.175 139.479 183.91 140.291 183.621C141.558 183.896 142.621 183.068 143.615 182.407C155.262 177.801 160.152 162.663 163.139 151.511C175.285 160.082 194.693 166.5 208.58 158.794C221.593 150.957 226.279 134.609 225.354 120.18C226.304 119.743 226.687 118.79 226.712 117.797H226.718C226.718 117.785 226.717 117.773 226.717 117.761Z" fill="#D08B5B"/>
<path fill-rule="evenodd" clip-rule="evenodd" d="M161.862 156.048C161.782 156.233 161.698 156.427 161.612 156.629C160.823 158.468 159.771 160.972 158.72 163.637C157.923 165.658 157.128 167.766 156.449 169.742C155.553 171.4 154.565 172.986 153.471 174.456C153.708 173.443 154.033 172.314 154.408 171.133C155.206 168.62 156.268 165.767 157.325 163.086C158.383 160.404 159.44 157.885 160.233 156.038C160.63 155.114 160.96 154.357 161.192 153.831C161.285 153.619 161.362 153.444 161.421 153.311L159.342 148.516L149.337 134.467C149.307 134.46 149.276 134.454 149.243 134.446C148.991 134.39 148.636 134.3 148.213 134.165C147.368 133.896 146.237 133.442 145.1 132.703C142.804 131.212 140.493 128.553 140.493 124.011C140.493 119.746 141.048 117.57 141.71 116.442C142.004 115.941 142.333 115.623 142.663 115.438L141.146 99.8866L141.134 99.7621L141.163 99.6403L141.893 99.8138C141.163 99.6403 141.163 99.6402 141.163 99.64L141.163 99.6392L141.164 99.6363L141.167 99.6251L141.177 99.5816L141.218 99.4127C141.254 99.265 141.307 99.0482 141.375 98.7714C141.512 98.2177 141.712 97.4234 141.963 96.4597C142.464 94.5328 143.17 91.9253 143.99 89.2064C144.809 86.4901 145.744 83.6498 146.705 81.262C147.185 80.0684 147.676 78.9764 148.167 78.0644C148.651 77.164 149.161 76.3907 149.692 75.8736C151.526 74.088 155.194 71.2142 158.367 68.8114C159.961 67.6042 161.442 66.5068 162.524 65.7113C163.066 65.3134 163.508 64.9909 163.814 64.7678L164.042 64.6021L164.06 64.4916C164.101 64.2279 164.158 63.8492 164.221 63.3918C164.345 62.4755 164.489 61.2504 164.568 60.0042C164.648 58.7494 164.66 57.5106 164.534 56.5525C164.47 56.0712 164.377 55.702 164.265 55.449C164.149 55.1879 164.057 55.1485 164.055 55.1476C162.973 54.717 160.543 53.5301 158.42 52.4702C157.351 51.9364 156.347 51.4287 155.611 51.0545C155.243 50.8674 154.941 50.7137 154.732 50.6066L154.563 50.5201L148.592 50.461C151.639 49.479 154.984 49.5752 157.972 50.5678C158.33 50.7478 158.706 50.9363 159.09 51.1281C159.958 51.5611 160.86 52.0073 161.695 52.4119C163.664 53.7728 165.243 55.6239 166.125 57.8805C166.138 58.6024 166.112 59.3621 166.065 60.0994C165.983 61.3936 165.834 62.6568 165.707 63.5938C165.643 64.0631 165.585 64.4522 165.542 64.7247C165.52 64.861 165.503 64.9682 165.491 65.0417L165.476 65.1262L165.473 65.1484L165.472 65.1544L165.471 65.156L165.471 65.1565C165.471 65.1567 165.471 65.1568 164.732 65.0285C165.171 65.6366 165.171 65.6367 165.171 65.6367L165.171 65.637L165.169 65.638L165.163 65.6422L165.14 65.659L165.049 65.7253C164.968 65.7836 164.849 65.8698 164.697 65.9807C164.392 66.2026 163.952 66.5237 163.413 66.92C162.334 67.7126 160.859 68.8055 159.272 70.0072C156.084 72.4219 152.494 75.2394 150.738 76.9483C150.372 77.3049 149.949 77.9181 149.487 78.7753C149.032 79.6209 148.565 80.6576 148.096 81.8218C147.16 84.1497 146.239 86.9417 145.426 89.6393C144.614 92.3343 143.913 94.9222 143.414 96.8374C143.165 97.7946 142.967 98.583 142.831 99.1317C142.763 99.4061 142.711 99.6204 142.676 99.766L142.652 99.8665L144.216 115.91L144.314 116.914L143.416 116.737C143.37 116.758 143.208 116.853 143.003 117.201C142.552 117.97 141.993 119.808 141.993 124.011C141.993 127.937 143.948 130.166 145.917 131.446C146.913 132.092 147.914 132.495 148.669 132.736C149.045 132.856 149.356 132.934 149.571 132.982C149.678 133.007 149.761 133.023 149.815 133.033C149.842 133.038 149.862 133.042 149.874 133.044L149.887 133.046L149.887 133.046L149.888 133.046L149.888 133.046L149.889 133.046L150.201 133.094L150.384 133.352L160.609 147.71L160.655 147.774L160.687 147.847L162.807 152.737C162.74 152.982 162.672 153.229 162.602 153.478C162.368 154.32 162.122 155.178 161.862 156.048ZM164.732 65.0285L165.471 65.1568L165.419 65.4578L165.171 65.6366L164.732 65.0285ZM138.448 184.21C139.074 184.039 139.685 183.836 140.291 183.621C141.179 183.813 141.965 183.465 142.699 183.012C142.239 183.113 141.806 183.2 141.411 183.276C140.739 183.405 140.18 183.499 139.79 183.561C139.595 183.592 139.442 183.615 139.339 183.629L139.279 183.638L139.222 183.646L139.193 183.65L139.186 183.651L139.185 183.651L138.905 183.688L138.719 183.901L138.448 184.21Z" fill="#A55728"/>
<path fill-rule="evenodd" clip-rule="evenodd" d="M144.599 51.5736C147.284 49.834 150.73 49.1865 153.894 49.3133C155.582 49.3808 157.157 49.8015 158.712 50.4334C160.154 51.0193 161.426 51.8609 162.829 52.5022C162.915 52.5411 162.85 52.6608 162.77 52.6444C161.107 52.3089 159.155 52.5116 157.47 52.7518L157.302 52.776C155.645 53.0165 153.959 53.141 152.326 53.5228C149.318 54.226 146.52 55.7583 144.869 58.4234C142.713 61.9042 142.16 66.4097 142.391 70.4256C142.507 72.4575 142.908 74.4565 143.531 76.3935C143.906 77.5561 144.776 78.7257 145.182 79.9456C145.492 79.3683 145.811 78.7966 146.141 78.2318C144.635 77.522 144.213 75.5491 144.135 73.7687C143.903 73.5445 143.754 73.22 143.749 72.9221C143.736 72.1212 143.924 71.3962 144.244 70.7328C144.427 68.8538 144.815 66.9805 145.482 65.2197C148.102 58.3068 155.012 52.0763 162.849 52.6918C165.002 52.8611 167.098 53.7757 168.212 55.7201C169.106 57.2815 169.112 59.1651 168.495 60.8258C168.312 61.3188 168.074 61.7639 167.795 62.1699C168.641 61.9551 169.49 61.7492 170.336 61.5451C173.274 60.8369 176.227 60.2821 179.235 59.9735C183.331 59.5535 187.512 60.1889 191.265 61.8241C192.295 62.0888 193.319 62.3732 194.338 62.6771C198.819 64.0133 203.416 65.7587 207.036 68.8088C208.701 70.2121 209.893 71.8446 210.86 73.6374C214.484 76.868 217.948 80.5303 220.394 84.7197C225.433 93.3514 226.637 104.028 226.844 113.841C227.034 122.856 226.242 131.963 224.553 140.82C223.786 144.84 222.547 148.575 220.039 151.872C217.246 155.543 213.521 158.435 209.342 160.376C200.833 164.327 190.301 164.902 182.03 160.007C179.543 158.535 181.783 154.697 184.295 156.131C192.461 160.791 202.882 159.727 210.738 154.787C214.057 152.7 216.918 149.846 218.735 146.351C220.061 143.799 220.631 140.871 221.124 138.021L221.386 136.497C222.908 127.733 223.596 118.743 223.23 109.852C222.865 100.983 221.458 91.3773 216.435 83.8373C213.786 79.8603 210.407 76.3762 206.858 73.1994C206.609 72.9761 206.359 72.7538 206.109 72.5322C204.722 71.6986 203.284 70.9708 201.87 70.3496L201.569 70.2194C200.755 69.8725 199.617 69.4245 198.561 69.0661C197.052 68.554 195.518 68.0989 193.979 67.6889C193.171 67.4739 192.36 67.2767 191.547 67.0883C191.831 67.3483 192.112 67.6107 192.389 67.8797C193.701 69.1541 194.741 70.6686 195.985 72.0048C196.125 72.1556 195.948 72.3755 195.769 72.2838C193.878 71.3135 191.781 70.6854 189.807 69.8992C187.94 69.156 186.126 68.3004 184.293 67.4803C183.833 67.2746 183.375 67.0549 182.919 66.8375C181.115 66.856 179.312 66.8985 177.513 67.0011C179.688 68.5495 181.675 70.3794 183.32 72.3862C183.456 72.5514 183.332 72.8161 183.104 72.7576C179.659 71.8755 176.384 70.5792 173.11 69.2207L171.544 68.5687C170.392 68.5104 169.239 68.4831 168.086 68.5002L167.527 68.5095C166.317 68.5326 165.108 68.5805 163.908 68.764C163.623 68.8073 163.343 68.8486 163.066 68.8865C161.377 69.5757 159.752 70.4067 158.29 71.5019L158.671 71.4794C160.983 71.3478 163.34 71.5469 165.578 72.1437C169.928 73.3039 173.639 76.0975 176.34 79.6595C176.421 79.7662 176.264 79.9146 176.158 79.842C172.76 77.5158 168.819 76.344 164.782 75.7076C162.83 75.3998 160.82 75.2938 158.85 75.4472C157.219 75.574 155.531 76.1487 153.908 75.8698C153.465 76.4208 153.04 76.9884 152.631 77.5686C152.846 77.5549 153.062 77.5423 153.28 77.5321C155.611 77.4226 157.984 77.5722 160.26 78.1088C164.807 79.1813 168.606 81.9107 172.081 84.9072C172.149 84.9664 172.061 85.0721 171.986 85.0295C168.218 82.8542 163.837 82.2041 159.568 81.8116C157.418 81.6139 155.244 81.5243 153.089 81.6959C152.102 81.7744 151.126 81.9372 150.142 82.0384C150.062 82.0467 149.979 82.0488 149.897 82.0526C149.184 83.3979 148.537 84.7673 147.954 86.1328C149.734 85.655 151.656 85.4042 153.494 85.5279C157.229 85.7794 160.933 87.4918 163.914 89.682C164.007 89.7505 163.955 89.933 163.828 89.8851C160.584 88.6591 157.367 88.6491 153.981 89.1222C152.393 89.344 150.821 89.645 149.288 90.1171C148.517 90.3546 147.754 90.6137 147.022 90.9547C146.69 91.1093 146.367 91.2894 146.04 91.4593C145.778 92.3476 145.544 93.2442 145.333 94.1463C150.868 94.4585 156.083 97.0713 160.621 100.07C160.73 100.142 160.662 100.344 160.526 100.293C157.817 99.2709 154.87 98.7983 151.997 98.5232C149.484 98.2826 147.019 98.4134 144.521 98.4836C144.387 99.4328 144.278 100.385 144.2 101.339C144.602 101.451 144.996 101.573 145.375 101.687C146.621 102.061 147.865 102.565 149.028 103.15C151.39 104.337 153.304 105.942 155.23 107.726C155.331 107.819 155.226 108.022 155.09 107.967C152.854 107.063 150.412 106.485 148.058 105.972C146.841 105.707 145.622 105.463 144.396 105.238C144.277 105.217 144.156 105.198 144.036 105.18C144.024 107.355 144.147 109.531 144.419 111.689L144.471 112.093C144.618 113.185 144.498 114.241 143.775 114.996C144.775 114.331 145.919 113.871 147.187 113.694C150.527 113.229 153.619 114.564 155.72 117.145C155.819 117.265 155.667 117.424 155.548 117.317C153.508 115.503 150.366 115.181 147.833 116.036C145.488 116.827 143.725 118.715 143.019 121.078C142.268 123.589 142.612 126.361 143.981 128.599C144.663 129.714 145.648 130.711 146.881 131.201C147.033 131.262 147.188 131.313 147.345 131.356C148.089 131.084 148.89 131.208 149.655 131.552L149.754 131.599C150.243 131.596 150.729 131.581 151.201 131.586C152.12 131.594 152.562 132.57 152.176 133.297C152.395 133.698 152.555 134.148 152.747 134.541C153.095 135.249 153.458 135.953 153.824 136.653C154.341 137.246 154.834 137.86 155.169 138.576C155.307 138.869 155.437 139.187 155.536 139.506C155.823 139.939 156.115 140.368 156.414 140.796C157.381 142.177 158.4 143.486 159.529 144.74C160.208 145.493 160.989 146.166 161.707 146.889C161.925 146.918 162.138 147.066 162.206 147.279L162.264 147.483C162.496 147.744 162.718 148.013 162.917 148.299C163.36 148.934 163.238 149.578 162.85 150.043C163.466 153.886 163.046 157.975 162.222 161.702C161.689 164.11 161.067 166.516 160.232 168.839C159.808 170.019 159.294 171.154 158.584 172.191C158.194 172.759 157.687 173.421 157.118 173.962C157.032 174.592 156.919 175.216 156.759 175.828C154.851 183.08 147.04 185.287 140.501 186.214C139.239 186.392 137.99 186.087 137.302 184.911C137.143 184.64 137.037 184.347 136.979 184.047C136.694 183.971 136.42 183.837 136.175 183.646C136.134 184.1 136.086 184.556 136.026 185.017C135.877 186.169 134.321 186.516 133.932 185.3C132.286 180.171 131.393 174.763 130.265 169.492C129.14 164.232 127.884 159 126.722 153.749L125.25 147.121C121.658 130.891 118.295 114.454 119.12 97.7621C119.571 88.6505 121.243 79.5626 124.821 71.1426C127.801 64.1283 132.832 56.2479 140.958 54.8138C141.014 54.8041 141.063 54.8098 141.11 54.8216C142.075 53.5666 143.228 52.4615 144.599 51.5736ZM149.502 139.795C150.158 141.969 150.626 144.198 150.88 146.472C151.304 150.263 151.094 154.147 150.91 157.948C150.74 161.44 150.338 164.962 149.653 168.391C148.996 171.684 147.966 174.912 146.435 177.907C146.187 178.392 145.921 178.863 145.642 179.326C146.488 179.044 147.253 178.715 148.049 178.26C149.051 177.686 149.969 176.947 150.47 176.167C151.276 174.915 151.546 173.525 151.664 172.034C151.966 168.199 152.107 164.352 152.3 160.51L152.343 159.674C152.655 153.671 153.064 147.516 152.453 141.507C151.592 141.281 150.816 140.837 150.099 140.28C149.902 140.126 149.702 139.964 149.502 139.795ZM142.958 132.526C143.138 134.352 143.311 136.178 143.468 138.006C144.024 144.493 144.367 151.016 144.051 157.526C143.887 160.916 143.556 164.315 142.985 167.662C142.728 169.171 142.417 170.679 142.069 172.171L141.952 172.668C141.599 174.146 141.374 175.993 140.244 177.068L140.253 177.291C141.046 176.087 141.78 174.733 142.305 173.473C144.646 167.859 145.074 161.747 145.497 155.76C145.758 152.07 145.951 148.376 146.252 144.69L146.399 142.916C146.567 140.851 146.712 138.802 146.692 136.739C146.241 136.067 145.875 135.36 145.647 134.634C145.611 134.517 145.586 134.399 145.568 134.281C144.614 133.829 143.716 133.212 142.958 132.526ZM155.772 145.373C156.243 146.938 156.627 148.523 156.9 150.115C157.336 152.65 157.597 155.2 157.712 157.758L157.952 156.854C158.558 154.593 159.201 152.329 159.998 150.135C158.737 149.253 157.684 147.867 156.768 146.708C156.425 146.275 156.093 145.829 155.772 145.373ZM137.721 75.7536C137.237 77.3174 136.813 78.8989 136.376 80.4755C135.347 84.1791 134.68 87.984 134.217 91.7961C132.369 107.016 133.908 122.298 135.921 137.419C136.755 143.684 137.662 149.94 138.44 156.213C138.461 155.597 138.478 154.982 138.489 154.367C138.726 141.053 136.485 127.925 135.588 114.68L135.534 113.873C135.127 107.68 134.878 101.372 135.614 95.2014C135.993 92.0255 136.66 88.9175 137.548 85.8486L138.077 84.046C138.434 82.8339 138.814 81.5896 139.265 80.3829C139.204 80.2672 139.147 80.1506 139.094 80.0337C138.47 78.6629 138.036 77.2219 137.721 75.7536ZM139.282 57.8121C134.631 63.8092 130.728 70.1798 128.366 77.5072C122.962 94.2771 124.168 112.209 127.3 129.303C128.776 137.357 130.679 145.317 132.415 153.316C130.557 138.953 128.16 124.622 127.778 110.121C127.57 102.207 127.979 94.2557 129.437 86.4638L129.523 86.0056C130.148 82.7126 130.922 79.2237 132.506 76.2643C133.366 74.6574 134.316 73.1578 135.442 71.7225C135.917 71.1172 136.45 70.6318 137.016 70.1878C136.85 66.0537 137.475 61.5706 139.282 57.8121ZM146.871 121.709C149.185 121.8 151.497 122.446 153.319 123.95C154.745 125.126 152.712 127.114 151.298 125.971C149.76 124.728 148.381 123.316 146.742 122.186C146.547 122.051 146.601 121.699 146.871 121.709ZM143.032 115.543C142.518 115.809 142.006 115.862 141.424 115.719C141.402 115.714 141.382 115.708 141.362 115.702L141.243 115.663C141.294 116.215 141.347 116.766 141.4 117.318C141.87 116.656 142.416 116.056 143.032 115.543ZM140.729 82.2459C140.524 83.9571 140.39 85.6766 140.319 87.3987C140.25 89.0764 140.221 90.7593 140.214 92.4427L140.211 93.1642L140.215 93.1505C141.01 89.756 142.135 86.4153 143.572 83.2186C143.325 83.2598 143.074 83.2532 142.826 83.2233C142.26 83.1548 141.718 82.9038 141.232 82.6102C141.055 82.503 140.889 82.3781 140.729 82.2459ZM164.332 62.4115C163.343 62.8585 162.388 63.3724 161.395 63.8092C159.427 64.6757 157.501 65.683 155.68 66.8266C153.837 67.9839 152.061 69.2024 150.428 70.6457C150.237 70.815 150.047 70.9861 149.858 71.157C149.82 71.5303 149.792 71.905 149.779 72.2828C149.772 72.4859 149.772 72.6983 149.775 72.9165C152.856 69.099 156.582 66.0871 161.308 64.1924C162.128 63.8639 162.961 63.5715 163.801 63.3008C164.001 63.023 164.18 62.7282 164.332 62.4115ZM164.243 58.7496C163.693 58.02 162.114 58.0795 161.118 58.2421C159.507 58.5052 158.088 59.0683 156.708 59.8837C155.076 60.8469 153.669 62.1518 152.568 63.6867C153.11 63.381 153.662 63.0925 154.225 62.8247L154.612 62.6423C156.747 61.6412 159.06 60.6894 161.396 60.379C162.477 60.2354 163.639 60.0275 164.731 60.1446C164.677 59.6139 164.519 59.1162 164.243 58.7496Z" fill="black"/>
<path fill-rule="evenodd" clip-rule="evenodd" d="M181.252 133.626C183.846 132.067 193.541 133.21 201.157 133.626C207.205 133.956 211.525 133.301 212.907 134.23C216.031 136.328 214.513 146.474 209.131 147.861C203.749 149.248 183.797 151.186 180.356 147.861C176.916 144.536 176.599 136.422 181.252 133.626Z" fill="white"/>
<path fill-rule="evenodd" clip-rule="evenodd" d="M184.612 130.942C188.683 130.449 192.629 131.693 196.609 132.32C198.71 132.651 200.814 132.898 202.94 132.99C203.368 133.008 203.796 133.019 204.224 133.028C204.264 132.652 204.475 132.307 204.932 132.1C205.868 131.676 206.618 131.485 207.646 131.526C208.587 131.563 209.532 131.66 210.459 131.829C212.142 132.137 213.833 132.836 215.064 134.05C217.913 136.859 217.479 141.372 215.278 144.431C210.729 150.754 202.428 151.048 195.318 150.965L194.662 150.957C188.188 150.864 178.926 151.828 175.985 144.477C174.903 141.774 175.053 138.641 176.378 136.048C177.957 132.956 181.282 131.346 184.612 130.942ZM204.834 141.47L204.776 141.472C201.791 141.587 198.807 141.668 195.82 141.72C195.91 142.486 196.001 143.251 196.105 144.015C196.187 144.616 196.275 145.216 196.366 145.816C196.404 146.07 196.546 146.464 196.506 146.715L196.492 146.815C196.645 146.884 196.784 146.996 196.888 147.157C196.924 147.213 196.95 147.27 196.976 147.326C199.294 147.344 201.79 147.299 204.153 146.879L204.158 146.827C204.201 146.526 204.326 146.323 204.493 146.184C204.659 145.223 204.644 144.199 204.708 143.246C204.748 142.654 204.792 142.062 204.834 141.47ZM193.539 141.761C191.388 141.797 189.236 141.826 187.085 141.799L186.108 141.784C186.315 142.888 186.539 143.989 186.725 145.1C186.92 146.258 185.898 146.995 185.014 146.965C185.114 146.981 185.213 146.998 185.312 147.012C188.074 147.402 190.943 147.298 193.746 147.295C193.595 146.417 193.656 145.425 193.634 144.692L193.63 144.579C193.587 143.639 193.557 142.7 193.539 141.761ZM178.926 141.558C179.001 142.132 179.146 142.694 179.363 143.217C180.282 145.427 182.387 146.459 184.615 146.893C184.228 146.76 183.921 146.44 183.844 145.892C183.651 144.529 183.581 143.143 183.576 141.759C182.024 141.745 180.461 141.712 178.926 141.558ZM212.93 141.086C211.824 141.347 210.54 141.227 209.455 141.277C208.44 141.323 207.423 141.363 206.407 141.404C206.455 142.096 206.502 142.788 206.552 143.48C206.618 144.374 206.624 145.319 206.796 146.209C208.84 145.512 210.672 144.396 212.047 142.61C212.389 142.165 212.696 141.643 212.93 141.086ZM184.145 134.568C182.305 135.003 180.563 135.921 179.628 137.602C179.072 138.599 178.828 139.78 178.875 140.945C180.43 140.764 182.012 140.696 183.586 140.639C183.591 140.356 183.598 140.073 183.606 139.791L183.631 139.069C183.673 137.69 183.695 135.959 184.145 134.568ZM193.668 134.736L192.858 134.645C190.608 134.39 188.36 134.121 186.11 134.275C185.784 134.297 185.454 134.333 185.123 134.381C185.52 135.813 185.487 137.495 185.653 138.913C185.717 139.461 185.798 140.005 185.888 140.546L186.278 140.528C188.692 140.397 191.109 140.317 193.525 140.221C193.525 139.769 193.527 139.316 193.534 138.863L193.543 138.409C193.571 137.252 193.496 135.948 193.668 134.736ZM204.966 134.552C202.609 134.932 200.174 135.013 197.86 135.016C196.935 135.017 196.011 134.96 195.088 134.878C195.148 135.369 195.179 135.866 195.224 136.349C195.316 137.327 195.42 138.304 195.533 139.279L195.634 140.133C198.604 139.998 201.573 139.853 204.542 139.703L204.961 139.68L205.078 138.04C205.158 136.946 205.246 135.852 205.37 134.764L205.277 134.73C205.168 134.685 205.064 134.623 204.966 134.552ZM205.989 134.96C206.119 136.506 206.19 138.059 206.286 139.608L208.243 139.504C208.569 139.486 208.896 139.468 209.222 139.449C210.49 139.376 212.12 138.993 213.374 139.351C213.469 138.213 213.143 137.105 212.115 136.341C210.309 134.998 208.009 135.476 205.989 134.96ZM199.302 121.134C202.216 119.468 209.529 117.766 209.992 123C210.205 125.409 208.411 127.405 206.315 128.295L206.237 128.328C204.271 129.135 200.788 130.045 199.088 128.297C197.672 126.841 199.549 124.232 201.308 125.424C202.212 126.037 204.115 125.586 205.123 125.294L205.187 125.276C206.275 124.956 207.726 123.935 207.276 122.597C206.878 121.414 205.183 121.198 204.122 121.16C202.537 121.103 200.996 121.47 199.426 121.59C199.177 121.608 199.1 121.249 199.302 121.134ZM211.374 112.717C215.33 112.532 217.79 116.843 216.881 120.374C216.724 120.984 216.041 121.582 215.381 121.513L215.215 121.498C215.131 121.49 215.046 121.479 214.968 121.458C214.342 121.285 213.781 120.635 213.826 119.961L213.839 119.765C213.931 118.097 213.75 116.175 211.763 115.771C210.078 115.428 209.137 117.046 209.117 118.536C209.113 118.801 208.816 118.985 208.581 118.843C207.363 118.103 207.152 116.632 207.617 115.365C208.207 113.759 209.683 112.796 211.374 112.717ZM182.02 113.642C184.899 112.683 188.004 114.214 189.398 116.754C189.887 116.896 190.376 117.272 190.308 117.848C190.21 118.676 190.062 119.199 189.486 119.827C188.586 120.81 186.899 120.307 186.525 119.097L186.509 119.043C186.084 117.479 184.359 116.447 182.788 116.994C180.952 117.634 181.005 119.569 179.717 120.696C179.566 120.828 179.385 120.849 179.203 120.762C177.835 120.102 178.081 118.117 178.569 116.981C179.208 115.49 180.451 114.164 182.02 113.642ZM178.1 104.918C180.432 102.543 186.515 100.244 188.111 104.63C188.415 105.466 187.767 106.592 186.896 106.766C185.469 107.049 184.202 106.431 182.784 106.542C181.637 106.632 180.439 107.015 179.522 107.724C176.98 109.69 176.421 113.014 174.65 115.515C174.564 115.637 174.397 115.586 174.381 115.442C173.977 111.8 175.545 107.519 178.1 104.918ZM208.521 102.58C210.069 102.034 211.822 102.081 213.378 102.565C214.945 103.052 216.384 103.979 217.493 105.189C217.996 105.738 218.461 106.344 218.834 106.99C219.033 107.332 219.241 108.038 219.467 108.459C220.686 109.162 221.207 110.763 220.116 111.902L220.066 111.952L219.92 112.096C219.333 112.676 218.449 112.927 217.648 112.696C215.855 112.178 215.637 110.769 215.017 109.273C214.607 108.286 213.904 107.411 213.053 106.769C211.041 105.253 207.741 104.769 205.319 105.484C205.19 105.522 205.038 105.358 205.13 105.239C205.589 104.646 205.854 104.159 206.468 103.68C207.092 103.194 207.773 102.843 208.521 102.58Z" fill="black"/>
</svg>
