<svg width="391" height="780" viewBox="0 0 391 780" fill="none" xmlns="http://www.w3.org/2000/svg">
<path fill-rule="evenodd" clip-rule="evenodd" d="M84.3017 364.501C84.3418 367.224 84.6152 373.479 85.2999 376.115C77.672 363.909 66.2422 350.568 64.5039 335.619C65.0456 335.471 67.4493 335.249 67.869 334.935C71.8155 336.765 71.0688 331.132 71.6521 328.527C73.2272 323.011 76.5364 317.585 77.9742 312.032C81.7538 310.401 74.1638 309.709 73.0611 309.677C77.6455 304.581 79.7543 297.576 83.0185 291.632C87.8147 281.53 92.1103 271.203 95.9459 260.714C96.7843 267.286 96.9346 273.93 96.4238 280.538C94.8465 308.845 84.1948 336.062 84.3017 364.501ZM349.042 314.218C346.669 314.616 342.714 314.993 340.346 315.187C343.454 313.337 352.642 309.812 346.852 306.645C345.067 305.994 343.151 306.922 341.351 307.209C333.874 308.438 324.643 308.373 317.079 307.754C319.836 305.495 323.466 302.241 326.157 299.903C327.587 298.661 328.974 298.19 327.365 296.335C324.53 293.699 319.459 295.64 316.181 296.798C307.138 301.856 296.928 307.342 287.222 311.234C287.121 309.876 287.183 308.121 285.872 307.209C282.027 305.4 279.195 305.929 275.103 305.447C270.334 304.733 266.094 303.922 261.371 302.662C258.282 300.31 256.398 293.373 251.458 294.149C255.833 283.157 249.164 271.689 246.659 261.164C243.533 250.393 241.891 239.206 241.846 228.007C241.815 210.076 231.412 196.317 216.38 187.116C210.454 183.121 206.474 173.403 199.138 171.457C198.204 167.883 198.148 166.313 197.328 162.711C196.917 161.677 196.611 156.063 195.577 156.254C194.436 150.694 188.623 148.463 183.592 147.299C177.051 145.946 167.923 144.306 162.043 148.125C160.34 149.54 159.592 151.909 159.467 154.025C158.814 156.843 157.455 159.762 155.87 162.207C153.167 161.295 154.697 159.596 152.023 159.2C127.609 155.588 100.508 173.469 84.6677 190.913C55.9541 220.35 33.0156 260.536 36.7704 302.49C35.7606 302.342 31.2847 301.641 31.3493 303.053C31.5685 309.193 32.7 314.314 33.0123 320.448C32.7019 328.576 41.1594 329.555 47.269 331.559C46.8928 355.139 55.4734 378.724 68.9034 398.107C72.1661 401.921 77.0619 415.156 83.0174 409.884C83.7192 409.064 78.2764 403.387 77.3081 401.985C74.0017 397.829 65.2434 377.254 71.4332 373.144C72.8093 377.586 86.1339 398.943 88.5091 386.821C91.6638 388.649 96.8768 389.896 100.648 389.707C107.738 393.541 114.636 397.682 121.444 401.985C124.616 408.203 129.267 414.175 133.164 420.145C106.194 482.341 79.8689 584.71 45.1612 643.291C42.135 647.117 58.7827 653.619 61.7232 655.023C56.1 664.139 55.3959 674.702 51.1179 684.518C50.303 684.386 49.481 684.559 48.746 684.952C43.4688 688.52 41.4774 701.293 41.1765 707.591C41.4201 710.4 40.3771 714.649 42.6537 716.718C42.3355 717.062 42.098 717.482 41.9289 717.91C40.3267 719.156 40.5241 721.907 41.3805 723.613C44.3938 729.857 66.4196 729.278 73.5673 730.614C98.886 732.755 120.136 733.092 145.452 730.752C148.559 730.102 146.209 725.262 144.675 723.949C145.384 723.519 145.837 722.733 145.527 721.723C139.772 705.291 118.971 706.403 106.385 697.628C109.694 695.717 107.558 696.327 105.479 697.07C103.272 695.685 101.125 694.127 99.1367 692.406C100.664 691.464 99.9107 690.842 98.2584 691.631C95.6543 689.546 93.626 686.323 90.3087 685.312C87.0595 684.518 87.0595 683.13 87.0595 682.256C88.9932 674.493 91.1054 666.533 92.191 658.66C93.3491 660.365 103.341 646.702 105.479 643.291C113.786 630.156 113.763 617.213 119.577 602.929C131.514 571.822 155.967 506.627 170.879 476.877C205.771 533.642 188.776 610.414 210.301 670.945C211.257 672.763 213.056 679.583 215.548 677.616C216.516 677.842 217.545 677.964 218.468 678.094C218.201 684.711 217.705 691.311 216.604 697.858C215.578 698.129 214.706 698.667 214.254 699.607C212.527 698.34 209.219 717.025 208.936 718.928C208.932 721.383 206.812 726.85 208.748 728.309C205.959 729.449 205.503 733.661 207.465 735.827C213.29 743.643 241.685 741.495 252.161 742.806C265.408 742.477 320.826 747.429 324.674 734.883C325.439 732.019 324.128 728.403 321.461 727.301C322.528 724.813 319.972 722.412 318.409 720.666C309.189 711.091 295.011 709.583 282.736 705.416C283.193 704.948 266.711 696.516 263.138 694.432C263.374 691.601 257.481 694.44 257.465 694.432C254.655 689.475 252.665 681.761 250.781 676.413C254.258 675.337 262.635 674.381 264.187 670.945C269.177 669.274 264.172 662.049 263.138 658.66C233.889 585.595 261.639 493.433 218.468 424.471C226.381 419.946 235.46 410.044 227.643 401.737C226.079 399.74 222.252 393.523 222.315 394.609C220.861 388.689 217.615 378.492 216.604 372.507C212.89 350.53 215.324 329.948 218.468 307.754C222.832 324.454 237.875 338.368 253.178 345.999C259.15 348.459 267.037 353.537 273.593 351.935C279.511 350.187 290.259 338.058 291.525 332.233C308.776 334.281 326.688 332.637 343.174 327.223C345.291 326.424 347.795 326.492 347.141 323.493C346.488 320.948 341.835 321.597 339.834 322.07C342.892 320.377 350.832 319.934 350.771 315.509C350.668 314.586 349.986 314.06 349.042 314.218Z" fill="#D08B5B"/>
<path fill-rule="evenodd" clip-rule="evenodd" d="M121.578 403.796L124.672 405.898L125.768 406.639C132.902 411.451 139.026 415.307 145.08 418.709L145.695 419.054L146.311 419.395C154.707 424.036 162.616 427.569 170.276 429.959C188.23 435.561 204.377 434.73 218.988 426.183L219.43 425.921L220.126 425.506L220.724 426.88L221.29 428.187C224.398 435.392 226.648 441.02 228.583 446.594L228.67 446.843L228.832 447.316C234.463 462.902 238.167 479.61 240.565 498.753L240.725 500.046C242.372 513.518 243.23 525.878 244.277 547.908L244.378 550.047L244.862 560.464C245.28 569.303 245.568 574.762 245.931 580.389L246.023 581.801L246.174 584.042L246.251 585.142C246.949 594.999 247.802 603.76 248.918 612.086L249.067 613.181C251.906 633.828 256.412 651.712 263.366 668.278L263.577 668.779L263.783 669.264L263.379 669.601C263.212 669.74 263.084 669.996 263.061 670.26L263.058 670.313L263.038 670.938L262.414 670.998C260.844 671.15 259.377 671.498 256.917 672.238L255.446 672.683L254.879 672.852C253.436 673.279 252.511 673.52 251.538 673.71L251.355 673.745L251.046 673.802L250.48 673.932L249.907 674.06C240.632 676.111 231.03 676.903 217.608 677.086L216.615 677.098L216.507 677.054L216.498 677.052L216.462 677.046C216.387 677.037 216.272 677.039 216.085 677.054L215.975 677.063L214.989 677.155L214.733 676.159C214.122 673.809 213.495 671.655 212.442 668.251L212.256 667.648L210.97 663.525C208.898 656.847 207.914 653.284 207.109 649.179L207.031 648.776L206.948 648.342L206.944 648.317C204.805 634.059 203.05 620.57 201.382 606.032L201.162 604.106C200.63 599.386 199.691 590.689 198.897 583.279L197.515 570.341L197.407 569.358C194.509 543.081 191.996 528.36 187.25 512.978C183.634 501.257 178.774 489.865 172.077 477.607L171.828 477.153L171.745 477.003L171.527 477.18C169.395 478.911 168.136 480.081 167.836 480.577L167.822 480.601L167.453 481.298L167.141 481.881L165.271 485.338C165.075 485.702 164.905 486.021 164.747 486.32L164.455 486.875L164.038 487.683L163.738 488.273L163.531 488.684L163.298 489.152L162.812 489.878L162.595 490.203L162.184 490.824L161.98 491.139C158.809 496.068 156.325 501.38 153.056 509.778L152.634 510.867L151.965 512.618L149.963 517.906L149 520.433L148.539 521.63C148.088 522.796 147.664 523.876 147.246 524.924L147.037 525.445L146.695 526.29L146.162 527.6L145.79 528.516C141.513 539.083 137.093 550.783 132.359 563.963L131.452 566.495L130.792 568.346C128.149 575.775 125.455 583.524 122.336 592.627L121.548 594.932L120.397 598.303L112.558 621.339L111.254 625.158L110.085 628.565L109.746 629.295L109.415 630.002C105.453 638.438 101.773 645.073 97.5533 651.047L97.4058 651.255L97.3223 651.409L97.2443 651.545C96.9525 652.041 96.5912 652.512 96.0024 653.199L95.9206 653.294L95.2543 654.061L95.1045 654.237C93.9876 655.561 93.5792 656.288 93.5261 657.179L93.5113 657.518L92.3458 658.66L91.8861 658.42L91.7845 658.369C90.863 657.921 89.3182 657.605 86.7623 657.286L86.4686 657.249L85.7871 657.169L83.5747 656.919C81.6103 656.691 80.5047 656.519 79.6848 656.28L79.5794 656.249L79.471 656.214L79.1342 656.148C68.3172 653.993 57.8808 650.115 48.3362 644.696L47.9997 644.505L47.664 644.311L47.0942 643.982L47.7022 642.712C49.3233 639.317 50.9637 635.798 52.6249 632.153C63.2043 608.938 74.2177 581.637 87.3929 546.632L87.7928 545.569L88.8044 542.874L89.6312 540.66C96.3194 522.715 113.644 475.44 119.778 458.905L120.849 456.026L121.141 455.245L125.666 444.099L125.937 443.439C126.077 443.102 126.222 442.753 126.376 442.385L126.78 441.42L128.251 437.935L128.86 436.481C130.03 433.671 130.775 431.783 131.482 429.812L131.569 429.57L131.827 428.838C132.096 428.065 132.058 425.614 131.638 423.065L131.596 422.818L131.551 422.566C130.906 419.057 129.662 415.847 127.838 413.475L127.773 413.391L127.75 413.371L127.073 412.386C125.617 410.258 124.536 408.619 123.538 407.003L123.455 406.868L121.578 403.796Z" fill="#78E185"/>
<path fill-rule="evenodd" clip-rule="evenodd" d="M262.635 692.787C263.697 693.837 271.846 700.082 282.851 705.342C289.577 708.557 297.774 710.218 304.7 713.4C312.173 716.834 318.258 721.792 321.975 725.378L325.802 735.587C325.22 739.288 308.014 741.633 289.957 742.23C263.504 743.105 230.637 740.571 227.496 740.237C222.079 739.74 205.199 740.294 208.31 731.466C209.194 731.745 209.473 726.069 210.095 725.522L210.63 721.195C212.167 708.849 213.069 702.205 213.335 701.263C213.404 701.155 213.475 701.049 213.553 700.949C214.468 699.768 216.016 699.437 217.442 699.524C217.557 699.532 217.674 699.546 217.791 699.564C217.985 699.664 218.172 699.783 218.349 699.925L218.499 699.945C218.524 699.949 218.549 699.953 218.574 699.957C218.626 699.965 218.672 699.979 218.715 699.996C218.75 699.937 218.781 699.873 218.813 699.809C219.696 700.079 220.594 700.442 221.456 700.483L222.078 700.757L222.885 701.115L225.212 702.16L225.733 702.391C228.733 703.705 236.264 706.524 243.191 705.579C249.898 704.663 255.531 698.01 257.605 696.258C259.112 694.877 261.23 694.234 262.635 692.787ZM89.4433 684.824C90.1025 684.997 93.0149 686.764 95.5238 689.158C97.8942 691.42 99.7768 694.242 103.309 696.809C108.41 700.518 128.001 707.599 138.683 714.398C144.222 717.923 147.753 729.423 147.845 729.954C114.231 731.879 74.1415 731.503 40.8491 726.199C40.216 726.015 40.4861 711.41 41.9905 701.608L42.0365 701.313C43.1217 694.428 44.3553 690.643 44.4305 690.481L44.5155 690.339C45.8975 688.088 49.6779 685.67 52.1261 687.315L52.1491 687.335L52.6073 687.748C54.7943 689.708 63.933 697.561 70.2777 695.655C72.3552 694.981 74.0801 693.635 75.8874 692.461C80.7507 689.326 83.9563 686.709 89.4433 684.824ZM90.4159 684.39C90.8623 684.677 91.2871 685.001 91.6975 685.348C91.1633 685.028 90.5971 684.763 89.9873 684.574C90.1204 684.525 90.2493 684.471 90.3733 684.411L90.4159 684.39Z" fill="white"/>
<path fill-rule="evenodd" clip-rule="evenodd" d="M344.483 318.412C338.969 320.754 333.275 323.006 327.265 323.603C325.894 323.74 325.877 325.895 327.265 325.761C332.258 325.276 337.264 324.814 342.191 323.846C342.81 323.723 346.034 322.584 346.213 323.663C345.502 326.244 332.523 328.881 329.637 329.408C312.542 333.627 295.367 330.298 278.204 330.11C276.49 329.601 274.728 329.628 273.078 330.157C272.167 330.186 271.256 330.226 270.345 330.28C273.687 323.151 278.466 316.798 284.126 311.36C288.255 313.242 299.612 307.583 303.874 305.759C310.992 302.663 317.366 295.919 325.706 297.295C321.684 300.899 317.3 304.042 313.211 307.566C312.162 308.478 313.037 310.18 314.305 310.202C323.186 310.811 332.086 310.871 340.881 309.273C347.115 308.08 347.214 308.274 341.842 311.742C339.001 313.552 335.676 315.267 332.196 314.883C330.296 314.83 330.422 317.52 332.196 317.749C337.351 317.933 342.601 317.783 347.696 316.918C346.622 317.615 345.069 318.153 344.483 318.412ZM269.083 333.707C269.01 333.785 268.937 333.859 268.864 333.933C268.83 333.947 268.796 333.961 268.762 333.976C268.905 333.614 269.044 333.257 269.178 332.91C269.182 332.909 269.187 332.908 269.191 332.907C269.1 333.168 269.067 333.438 269.083 333.707ZM228.111 447.579C253.867 518.881 233.183 598.969 262.87 669.078C262.547 669.348 262.31 669.813 262.295 670.313C258.446 670.684 254.697 672.452 250.851 673.127C239.664 675.734 228.151 676.275 216.7 676.408C216.697 676.407 216.694 676.405 216.691 676.404C216.379 676.305 215.924 676.373 215.477 676.414C213.056 666.979 209.398 657.851 207.597 648.234C189.064 524.69 207.921 512.053 121.848 404.891C149.645 423.936 186.641 446.315 219.744 426.554C222.755 433.467 225.666 440.444 228.111 447.579ZM253.663 692.346C254.077 693.457 254.434 694.61 255.051 695.549C242.272 710.303 235.89 702.92 220.53 698.493C220.92 691.765 220.175 685.099 218.986 678.475C229.258 680.06 239.772 679.321 249.95 677.403C250.437 682.532 251.897 687.522 253.663 692.346ZM263.138 694.433C265.72 696.986 268.512 699.382 271.638 701.282C269.637 702.929 265.156 704.124 264.872 706.949C264.918 709.501 269.02 709.709 268.036 707.31C269.767 705.536 271.954 704.27 273.803 702.606C275.685 703.714 277.614 704.711 279.581 705.628C277.748 707.089 275.026 708.236 274.623 710.752C274.481 711.981 275.83 712.552 276.8 712.407C279.299 711.519 280.68 708.536 282.924 707.104C296.507 712.569 312.088 715.939 321.204 728.404C320.876 728.571 320.64 728.815 320.488 729.101C316.932 728.546 313.289 729.921 309.73 730.255C298.721 731.905 287.613 732.898 276.488 733.3C257.801 733.872 239.058 732.814 220.513 730.537C217.826 730.09 215.141 729.383 212.553 728.454C213.07 721.973 213.81 715.378 214.084 708.81C214.39 708.564 214.571 708.138 214.502 707.704C214.288 706.376 214.344 704.478 214.788 702.909C214.856 702.801 214.927 702.695 215.006 702.594C215.921 701.414 217.469 701.083 218.895 701.17C219.01 701.177 219.127 701.191 219.244 701.209C219.437 701.31 219.625 701.429 219.802 701.571C219.877 701.582 219.95 701.59 220.027 701.603C220.079 701.611 220.124 701.625 220.167 701.642C220.203 701.583 220.234 701.519 220.266 701.455C221.149 701.724 222.047 702.088 222.909 702.129C229.827 705.148 236.8 708.959 244.534 707.518C250.422 706.564 253.848 701.502 258.108 697.903C259.615 696.523 261.733 695.879 263.138 694.433ZM321.686 731.938C339.483 744.882 234.252 739.416 228.475 738.801C223.058 738.305 206.178 738.858 209.289 730.031C210.225 730.326 211.282 730.057 211.892 729.438C230.976 740.762 300.808 739.885 321.686 731.938ZM167.127 480.316C165.919 482.616 164.638 484.878 163.451 487.189C163.173 487.73 162.9 488.273 162.629 488.816C162.261 489.364 161.896 489.912 161.535 490.459C154.912 500.626 151.304 513.016 145.816 526.456C132.15 559.924 119.175 599.908 109.371 628.322C105.748 636.153 101.755 643.859 96.7447 650.906C95.6349 653.048 92.8627 654.788 92.7599 657.23C92.73 657.259 92.6998 657.289 92.6699 657.318C92.5017 657.483 92.3341 657.648 92.1655 657.812C89.5552 656.447 82.1804 656.409 79.6016 655.548C68.4956 653.379 57.7604 649.376 47.9696 643.718C73.9552 589.481 100.293 512.767 121.75 455.535C123.198 451.982 124.632 448.423 126.078 444.87C128.209 439.634 130.59 434.432 132.448 429.093C133.028 427.427 133.457 425.64 133.399 423.869C145.365 441.395 157.903 458.643 168.424 477.096C168.153 478.229 167.642 479.335 167.127 480.316ZM89.758 664.101C87.7831 670.157 85.673 676.238 84.1576 682.427C84.0918 682.71 84.0773 682.977 84.102 683.225C84.0863 683.266 84.0709 683.307 84.0552 683.348C83.793 684.035 83.4458 684.625 83.5356 685.281C68.5735 691.825 71.2647 699.641 55.6816 687.951C55.1639 687.655 54.6148 687.361 54.046 687.108C54.071 687.041 54.0935 686.972 54.1104 686.895C54.4726 685.272 54.7082 683.629 54.8177 681.973C55.3853 679.53 55.9284 677.079 56.5449 674.649C57.3588 672.309 58.1838 669.972 58.9709 667.63C59.0519 667.435 59.1324 667.241 59.2143 667.046C60.4074 664.231 61.5612 661.205 61.8105 658.153C61.9587 657.561 62.0977 656.969 62.2321 656.375C62.6092 656.259 62.8709 655.995 63.016 655.675C71.9437 658.765 81.3274 661.287 90.8142 661.409C90.4401 662.298 90.0741 663.19 89.758 664.101ZM91.3726 686.469C94.1859 687.211 95.669 689.977 97.4456 692.204C95.3997 693.615 93.7133 695.652 92.542 697.859C91.7649 698.576 91.0391 699.342 90.3943 700.172C89.5897 701.376 91.4241 702.789 92.4049 701.721C94.4459 699.041 96.5304 696.279 99.3676 694.36C100.736 695.855 102.196 697.262 103.713 698.612C102.341 699.593 101.15 700.783 100.205 702.18C98.4087 703.52 96.9538 705.051 97.699 706.261C98.4227 707.428 99.8103 706.792 100.486 705.95C101.973 703.878 103.628 701.816 105.728 700.345C110.568 704.45 116.069 707.644 122.045 709.787C129.953 712.721 140.307 715.074 143.346 723.986C129.986 724.148 116.602 724.31 103.244 723.604C83.7256 722.965 64.413 719.936 44.9873 718.34C45.1127 718.178 45.1538 717.963 45.0087 717.773C44.6081 717.248 44.0131 717.012 43.5959 716.511C44.1267 714.349 43.1292 711.109 43.503 709.126C43.4401 703.295 45.5236 691.39 45.6492 691.175C47.0084 688.847 49.6573 687.282 52.1555 688.961C52.3284 689.077 63.1135 699.462 70.307 697.3C72.3846 696.627 74.1095 695.281 75.9168 694.107C80.7801 690.972 85.8856 688.355 91.3726 686.469ZM145.973 729.703C112.36 731.629 78.4284 731.198 45.136 725.894C44.0428 725.577 43.0589 725.05 42.2894 724.357C42.2163 723.518 42.1635 722.677 42.1386 721.835C42.126 721.403 41.8835 719.945 42.3512 719.675C42.6145 719.523 42.7924 719.328 42.9014 719.113C54.8082 723.182 67.8464 723.858 80.2903 725.491C101.576 727.249 123.337 729.136 144.587 727.332C145.166 728.076 145.819 728.811 145.973 729.703ZM43.0261 717.714C43.1595 717.902 43.312 718.077 43.4851 718.22C43.3191 718.207 43.1529 718.193 42.9866 718.18C42.96 718.078 42.9239 717.978 42.8769 717.882C42.9296 717.828 42.979 717.772 43.0261 717.714ZM58.2563 661.441C58.461 660.553 58.6973 659.625 58.9115 658.681C58.7607 659.867 58.4594 661.046 58.0772 662.208C58.1364 661.952 58.1972 661.697 58.2563 661.441ZM120.063 403.896C120.097 403.87 120.129 403.841 120.156 403.806C120.426 403.978 120.697 404.149 120.966 404.322C121.827 406.042 122.799 407.742 123.833 409.43C122.572 407.602 121.348 405.718 120.063 403.896ZM88.4734 385.434C88.42 384.915 88.3331 384.391 88.2302 383.871C88.514 384.294 88.8247 384.697 89.156 385.072C89.4402 385.394 89.7435 385.697 90.0622 385.983C89.5364 385.79 89.0078 385.604 88.4734 385.434ZM88.5343 386.662C88.5386 386.385 88.5288 386.104 88.5086 385.82C88.8003 386.012 89.0938 386.201 89.3907 386.384C89.0983 386.455 88.8124 386.547 88.5343 386.662ZM84.4765 352.535C83.8324 359.755 83.0971 367.196 84.9424 374.297C77.3145 361.864 67.6651 351.951 65.9267 336.723C66.4684 336.572 66.9721 336.347 67.3917 336.027C71.3383 337.891 72.0166 332.153 72.5996 329.499C74.1749 323.881 76.0589 318.354 77.4969 312.699C81.2761 311.037 73.6864 310.332 72.5837 310.299C72.6284 310.263 72.6721 310.225 72.7155 310.183C77.1718 304.957 79.3203 297.941 82.5407 291.919C87.3368 281.629 91.6325 271.11 95.4677 260.426C99.1944 291.611 87.6282 321.817 84.4765 352.535ZM77.4626 381.447C75.5777 378.905 73.9858 376.131 72.7615 373.214C72.5803 372.782 72.1678 372.272 71.619 372.346C68.5069 372.762 67.4826 375.727 67.5396 378.535C68.9163 388.996 73.6481 398.983 79.7328 407.538C60.1817 387.644 53.1651 359.649 48.2552 333.042C53.3168 334.439 58.2956 336.428 63.5422 336.983C66.6086 361.89 85.333 369.346 85.9495 387.431C85.063 391.196 78.4199 382.705 77.4626 381.447ZM264.174 304.514C264.128 304.526 264.083 304.542 264.041 304.567C264.002 304.59 263.964 304.615 263.925 304.638C263.855 304.535 263.781 304.434 263.703 304.337C263.86 304.396 264.016 304.457 264.174 304.514ZM286.186 311.174C285.566 311.27 284.964 311.26 284.419 311.077C284.543 310.958 284.665 310.836 284.791 310.718C284.883 310.632 285.11 310.393 285.391 310.13C285.534 310.559 285.812 310.94 286.186 311.174ZM351.473 315.032C351.369 314.093 350.687 313.556 349.743 313.717C347.37 314.123 345.006 314.417 342.637 314.614C345.746 312.73 352.445 308.964 346.655 305.737C344.87 305.074 342.747 305.774 340.948 306.066C333.471 307.317 325.884 307.841 318.32 307.211C321.077 304.909 323.931 302.725 326.622 300.344C328.052 299.078 329.676 297.391 328.068 295.502C325.232 292.817 318.974 294.794 315.697 295.974C306.654 301.126 297.937 306.602 288.232 310.566C288.13 309.183 288.599 307.508 287.288 306.579C283.443 304.735 278.712 305.274 274.62 304.784C269.85 304.057 265.612 302.989 260.888 301.706C257.799 299.31 257.34 292.968 252.4 293.758C256.775 282.563 248.682 271.605 246.177 260.885C243.051 249.913 241.408 238.519 241.364 227.111C241.335 208.85 230.929 194.831 215.898 185.461C215.646 185.254 215.396 185.043 215.145 184.833C214.495 184.149 213.86 183.449 213.239 182.726C211.93 181.202 210.663 179.639 209.335 178.132C208.73 177.192 208.09 176.276 207.342 175.441C206.68 174.624 205.937 173.886 204.985 173.308C204.911 173.263 204.833 173.223 204.758 173.18C203.172 172.098 201.378 171.343 199.481 170.968C198.583 167.517 197.627 164.082 196.848 160.603C196.491 159.728 196.028 153.384 195.068 154.089C193.862 157.137 194.962 184.714 200.845 181.112C201.424 188.284 201.537 198.591 193.615 201.761C179.732 206.078 161.871 175.086 156.124 164.604C157.711 165.215 159.057 161.531 159.731 157.741C160.013 156.844 160.244 155.928 160.433 155.008C160.634 154.024 160.922 152.989 160.692 151.998C160.617 151.673 160.367 151.458 160.074 151.367C159.968 150.768 159.789 150.37 159.527 150.264C159.316 150.732 159.147 151.218 158.999 151.715C158.987 151.735 158.973 151.752 158.962 151.772C158.551 152.561 158.508 153.465 158.337 154.333C158.185 154.942 158.019 155.545 157.807 156.126C157.269 157.605 156.507 158.923 155.764 160.264C154.333 158.718 152.079 157.936 149.949 157.695C147.895 157.462 145.795 157.447 143.73 157.382C141.745 157.319 139.611 157.239 137.68 157.74C137.585 157.765 137.567 157.858 137.604 157.928C94.9391 160.227 51.5918 223.913 41.0654 259.248C37.0558 273.057 34.8078 287.645 36.2956 302.014C35.2856 301.862 30.8099 301.149 30.8742 302.587C31.0934 308.84 32.2248 315.022 32.5371 321.271C32.2267 329.549 40.6842 330.547 46.7934 332.588C46.4172 356.606 54.9979 380.63 68.427 400.373C71.6896 404.257 77.9413 416.049 83.8968 410.679C84.5984 409.844 84.4388 408.851 83.5788 408.216C82.1745 407.179 81.1778 405.499 80.2098 404.07C76.9032 399.837 66.667 379.132 70.957 374.946C73.1157 379.549 80.9486 393.343 87.0941 390.298C88.0182 389.483 88.4148 388.386 88.5117 387.173C88.7542 387.234 88.9981 387.29 89.2432 387.339C91.3879 389.237 97.6838 392.043 99.9627 391.845C100.723 392.219 101.483 392.594 102.242 392.971C104.346 394.153 106.433 395.363 108.507 396.595C110.149 397.682 111.836 398.687 113.55 399.647C114.543 400.259 115.532 400.877 116.519 401.499C117.285 403.484 118.626 405.386 119.68 407.103C120.338 408.175 121.076 409.506 121.959 410.668C122.93 412.237 124.015 413.731 125.127 415.13C126.598 416.978 128.437 418.608 129.742 420.576C131.2 422.776 130.994 425.181 130.226 427.599C129.429 430.108 128.29 432.524 127.279 434.953C126.186 437.58 125.093 440.207 124 442.834C121.874 447.942 119.749 453.05 117.623 458.159C116.41 461.074 115.217 464.001 114.042 466.932C113.64 467.936 113.274 468.949 112.928 469.968C90.7631 521.932 67.1213 593.292 42.9688 643.417C40.583 646.516 52.1388 651.293 58.5225 653.864C58.551 653.952 58.5759 654.039 58.6018 654.127C57.6466 656.18 57.1719 658.602 56.62 660.751C55.927 663.446 55.2185 666.138 54.4944 668.825C53.7699 671.515 53.0465 674.22 52.353 676.931C51.4185 679.318 50.4778 681.693 49.4875 684.025C49.4487 684.124 49.4084 684.223 49.3687 684.322C48.0948 684.394 46.9808 684.932 46.1329 685.783C46.0339 685.813 45.9379 685.877 45.8586 685.979C41.0034 692.471 39.3918 700.978 38.9845 708.912C39.2115 711.288 38.2989 716.007 40.1544 717.878C39.6962 718.414 39.4386 719.097 39.3077 719.847C38.1801 721.242 38.4176 723.668 39.1883 725.232C42.1369 733.852 108.781 734.173 120.054 734.063C129.247 733.896 138.378 733.355 147.531 732.503C148.95 732.202 149.23 731.014 148.972 729.684C149.253 728.109 148.678 726.054 147.43 724.912C147.698 724.483 147.796 723.938 147.606 723.306C141.851 706.569 120.576 707.702 107.99 698.764C108.162 698.662 108.316 698.57 108.459 698.482C108.735 698.387 109.013 698.297 109.293 698.217C110.615 697.838 110.041 695.75 108.725 696.16C107.706 696.478 106.726 696.874 105.8 697.347C104.046 696.157 102.342 694.856 100.742 693.445C101.217 693.147 101.698 692.862 102.181 692.58C102.877 692.451 103.597 692.383 104.344 692.379C105.297 692.374 105.56 691.431 105.191 690.812C105.267 690.766 105.342 690.723 105.417 690.676C105.307 690.658 105.192 690.651 105.073 690.651C104.904 690.46 104.662 690.322 104.344 690.291C102.269 690.087 100.327 690.57 98.5941 691.503C96.5438 689.492 94.6755 687.076 91.9145 686.219C94.1326 685.411 95.1716 682.961 92.3655 682.252C91.1293 682.141 89.8606 682.601 88.6654 683.106C90.3867 676.068 91.6815 668.87 92.7112 661.717C93.0048 661.767 93.2955 661.799 93.5804 661.807C94.7422 661.836 95.5236 660.952 96.0864 659.901C96.1491 659.892 96.2114 659.883 96.271 659.873C98.3799 658.987 99.3574 656.559 100.814 654.91C105.371 648.635 109.205 641.844 112.466 634.817C124.453 600.443 142.328 543.259 156.807 510.795C161.444 500.4 165.583 490.93 170.399 480.606C205.29 538.426 188.296 609.382 209.82 671.037C210.754 672.846 212.492 679.511 214.894 677.954C214.909 677.964 214.922 677.975 214.939 677.985C215.389 678.238 215.84 678.547 216.33 678.714C216.56 678.793 216.766 678.714 216.911 678.566C217.128 679.439 217.079 680.453 217.121 681.307C217.178 682.467 217.208 683.628 217.222 684.789C217.248 687.089 217.19 689.388 217.039 691.683C216.824 693.635 216.574 695.584 216.269 697.528C215.132 697.738 214.085 698.318 213.329 699.258C212.219 700.638 211.826 702.402 211.561 704.114C211.497 704.529 211.443 704.941 211.416 705.343C209.997 710.776 208.633 718.698 208.455 719.913C208.451 722.414 206.331 727.982 208.267 729.468C205.478 730.629 205.022 734.919 206.984 737.125C212.809 745.087 241.203 742.899 251.679 744.234C264.925 743.9 323.904 748.943 327.751 736.164C328.517 733.247 327.205 729.564 324.538 728.441C325.605 725.908 323.05 723.461 321.486 721.684C312.266 711.931 298.765 708.607 286.49 704.362C286.947 703.886 289.72 702.155 289.357 701.707C287.34 701.795 285.384 702.438 283.55 703.318C281.137 702.433 278.739 701.489 276.4 700.41C283.06 694.939 279.167 696.625 274.557 699.523C274.05 699.257 273.54 698.992 273.031 698.728C273.081 698.505 273.03 698.263 272.826 698.073C272.18 697.469 271.339 697.228 270.548 696.862C269.698 696.469 268.873 696.019 268.079 695.523C266.611 694.606 265.376 693.15 263.841 692.388C263.607 692.272 263.366 692.204 263.125 692.174C262.133 691.278 259.734 692.127 258.615 692.949C258.596 692.941 258.58 692.934 258.564 692.927C255.754 687.877 253.66 682.489 251.776 677.042C255.253 675.946 263.076 675.533 264.629 672.032C269.618 670.33 265.996 662.779 264.962 659.327C235.714 584.903 263.596 496.382 220.426 426.138C228.206 421.608 236.904 410.778 229.768 402.374C229.568 401.983 229.349 401.602 229.128 401.235C228.055 399.458 226.901 397.741 225.847 395.954C225.793 395.727 225.746 395.498 225.713 395.261C225.651 394.829 225.38 394.616 225.061 394.565C224.002 392.624 223.062 390.632 222.171 388.609C216.665 362.658 215.183 336.068 218.85 309.692C223.214 326.703 237.393 339.524 252.695 347.296C258.667 349.802 266.553 354.975 273.11 353.342C279.028 351.562 289.775 339.208 291.041 333.275C308.292 335.361 326.203 333.686 342.689 328.172C344.805 327.358 348.929 326.124 348.275 323.069C347.622 320.477 344.53 321.026 342.529 321.507C345.587 319.783 351.534 319.54 351.473 315.032Z" fill="black"/>
<path fill-rule="evenodd" clip-rule="evenodd" d="M195.211 77.067C167.936 76.0715 141.873 94.404 133.099 120.316C132.461 122.349 134.445 124.247 136.447 123.904C134.4 134.215 138.875 148.094 150.532 149.557C152.92 149.858 155.32 149.685 157.711 149.904C159.842 150.099 171.444 156.627 175.788 158.156C184.935 161.351 207.952 160.766 217.108 158.156C217.441 158.914 224.552 129.751 226.171 120.709C226.762 116.792 221.366 113.891 221.764 109.854C222.275 104.668 228.34 98.3457 226.482 93.4088C221.584 80.8435 207.369 77.3374 195.211 77.067Z" fill="#D08B5B"/>
<path fill-rule="evenodd" clip-rule="evenodd" d="M181.665 54.2249C182.89 54.3268 184.122 54.4998 185.333 54.7273C189.014 54.1253 192.822 54.7937 196.391 55.9527C204.75 58.6664 212.796 63.3782 219.095 69.5286C222.337 72.6951 224.989 76.3427 226.621 80.5851C227.451 82.7372 227.918 85.0338 228.053 87.3352L228.068 87.6141C228.106 88.3776 228.123 89.2932 228.032 90.2002C228.323 92.0311 228.583 93.8769 228.603 95.7286C228.612 96.5864 228.557 97.4427 228.452 98.2933L228.488 98.3742C228.337 99.3897 228.156 100.401 227.951 101.407L227.899 101.474C227.871 101.678 227.839 101.882 227.808 102.086C227.696 102.604 227.579 103.12 227.455 103.634C227.187 104.747 226.89 105.853 226.57 106.952C226.514 107.145 226.568 107.297 226.673 107.396C226.44 108.233 226.185 109.064 225.903 109.885C226.041 110.604 226.181 111.322 226.33 112.039C227.105 115.765 227.761 119.514 228.643 123.218C230.43 130.736 233.146 138.134 233.892 145.862C234.473 151.856 233.508 158.41 229.783 163.306C226.572 167.525 221.742 170.016 216.526 170.68C214.03 171 211.471 170.853 209.03 170.222L208.764 170.152C207.541 169.823 205.986 169.308 204.849 168.478C203.617 168.044 202.453 167.243 201.752 166.461C200.794 165.392 199.749 163.565 200.01 162.045C198.586 162.162 197.152 162.195 195.742 162.19C192.268 162.183 188.763 161.908 185.421 160.898C182.44 159.998 178.965 158.493 177.202 155.777C177.119 155.649 177.257 155.464 177.401 155.513C178.826 156.014 180.157 156.689 181.627 157.071C183.072 157.445 184.518 157.798 186.009 157.952C188.923 158.253 191.881 158.212 194.805 158.068L195.809 158.016C198.938 157.848 202.172 157.609 205.098 156.438C206.246 155.979 207.309 155.337 208.278 154.575L208.43 154.454C208.949 154.032 209.485 153.677 210.03 153.34C210.108 153.241 210.186 153.141 210.264 153.039C211.504 151.449 212.836 149.915 213.952 148.235C216.17 144.9 217.026 141.435 217.142 137.458C217.263 133.26 217.278 129.056 217.328 124.857L217.346 123.458C217.41 118.656 217.419 113.838 217.789 109.048C217.959 106.822 218.202 104.607 218.574 102.408L218.656 101.937L219.258 98.5458C219.403 97.7288 219.488 96.8869 219.673 96.0735C219.465 95.7322 219.224 95.4037 218.945 95.0909C218.688 94.8024 218.427 94.5225 218.166 94.2445L217.978 94.0786C217.549 93.6954 217.18 93.3296 216.834 92.8024L216.751 92.6719C216.379 92.2237 216.029 91.7549 215.719 91.2399L215.662 91.1399C215.585 91.043 215.508 90.9458 215.428 90.85C215.18 90.5516 214.92 90.2698 214.651 89.9999C213.708 91.8225 212.373 93.4012 210.484 94.3881C209.801 94.7451 208.967 94.4393 208.743 93.6799C208.178 91.763 207.32 89.9804 206.184 88.3662C204.287 91.5227 201.28 93.9916 197.736 95.1963C196.85 95.4973 196.07 94.5682 196.278 93.7385C196.918 91.188 197.045 88.5944 196.669 86.0304C195.331 86.9865 193.952 87.8869 192.535 88.7217C189.382 91.1589 186.042 93.3521 182.368 94.9271C181.519 95.2911 180.241 94.6794 180.627 93.5889C180.952 92.6707 181.219 91.7372 181.39 90.7785L181.427 90.5569C181.429 90.5502 181.429 90.5436 181.43 90.5367C172.921 102.276 152.285 113.589 150.701 113.698L150.658 113.698C151.647 114.643 152.446 115.811 152.968 117.152C153.517 118.562 151.28 119.175 150.701 117.828L150.683 117.783C149.793 115.496 147.592 113.858 145.197 113.47C143.749 113.733 142.381 114.431 141.448 115.49C139.611 117.573 139.595 120.085 140.848 122.455L141.032 122.801C141.711 124.067 142.426 125.336 142.808 126.726C143.275 128.433 142.922 130.163 143.228 131.867L143.244 131.957C143.389 132.715 143.702 133.577 144.604 133.37C144.674 133.354 144.741 133.332 144.809 133.309C144.999 133.461 145.228 133.586 145.513 133.669C146.212 133.873 146.984 133.774 147.679 133.609C148.351 133.451 149.003 133.202 149.631 132.91C149.7 133.082 149.743 133.261 149.747 133.434C149.768 134.315 149.403 135.041 148.842 135.631C149.738 136.764 150.503 138.01 151.366 139.167C152.605 140.826 153.873 142.449 155.222 144.021C156.625 145.659 158.153 147.206 159.739 148.669C160.85 149.693 162.687 150.788 163.383 152.274C164.184 152.522 164.865 153.136 165.113 154.146C165.566 155.976 165.699 160.263 165.343 162.124C164.99 163.968 163.644 165.117 162.156 166.089C161.743 166.359 161.277 166.331 160.897 166.129C160.563 166.454 160.186 166.753 159.755 167.018C158.163 168.002 156.312 168.359 154.477 168.566C152.001 169.357 149.33 169.566 146.69 169.073C145.827 169.175 144.965 169.267 144.1 169.343C135.251 170.113 126.254 169.457 117.623 167.35C113.663 166.383 109.924 164.625 106.44 162.368C100.435 158.477 97.8936 147.555 101.378 137.114L101.654 136.291C103.224 131.627 104.917 126.987 107.186 122.635L107.457 122.118C109.543 118.149 111.838 114.184 114.886 110.873C116.412 109.216 118.185 107.711 120.188 106.659C120.948 106.259 121.835 105.983 122.703 105.669L122.72 105.452L122.739 105.235C122.796 104.539 122.869 103.845 122.963 103.153C123.313 100.562 123.808 98.0106 124.51 95.4909C125.213 92.968 126.077 90.4874 127.118 88.0832C128.853 84.072 131.032 80.2671 133.548 76.6967C133.727 76.328 133.91 75.9606 134.096 75.5961C136.217 71.4508 138.964 67.4974 142.507 64.4376C146.574 60.9251 151.472 58.7447 156.584 57.2136C161.886 55.628 167.417 54.5425 172.941 54.1775C175.849 53.9855 178.762 53.9831 181.665 54.2249ZM142.893 120.82C145.554 119.078 149.18 120.272 150.529 123.103C151.503 125.153 148.282 126.307 147.773 124.264C147.265 122.216 145.087 120.749 142.995 121.062C142.85 121.086 142.76 120.905 142.893 120.82Z" fill="black"/>
<path fill-rule="evenodd" clip-rule="evenodd" d="M181.252 133.626C183.846 132.067 193.541 133.21 201.157 133.626C207.205 133.956 211.524 133.301 212.907 134.23C216.03 136.328 214.513 146.474 209.131 147.861C203.749 149.248 183.796 151.186 180.356 147.861C176.916 144.536 176.599 136.422 181.252 133.626Z" fill="white"/>
<path fill-rule="evenodd" clip-rule="evenodd" d="M184.612 130.942C188.683 130.449 192.629 131.693 196.609 132.32C198.71 132.651 200.814 132.898 202.94 132.99C203.368 133.008 203.796 133.019 204.224 133.028C204.264 132.652 204.475 132.307 204.932 132.1C205.868 131.676 206.618 131.485 207.646 131.526C208.587 131.563 209.532 131.66 210.459 131.829C212.142 132.137 213.832 132.836 215.063 134.05C217.913 136.859 217.479 141.372 215.277 144.431C210.729 150.754 202.427 151.048 195.317 150.965L194.661 150.957C188.188 150.864 178.925 151.828 175.984 144.477C174.903 141.774 175.053 138.641 176.377 136.048C177.957 132.956 181.282 131.346 184.612 130.942ZM204.833 141.47L204.775 141.472C201.791 141.587 198.806 141.668 195.82 141.72C195.909 142.486 196.001 143.251 196.105 144.015C196.187 144.616 196.274 145.216 196.366 145.816C196.404 146.07 196.546 146.464 196.506 146.715L196.491 146.815C196.645 146.884 196.784 146.996 196.887 147.157C196.923 147.213 196.949 147.27 196.976 147.326C199.294 147.344 201.789 147.299 204.153 146.879L204.158 146.827C204.201 146.526 204.326 146.323 204.493 146.184C204.659 145.223 204.644 144.199 204.708 143.246C204.748 142.654 204.792 142.062 204.833 141.47ZM193.539 141.761C191.388 141.797 189.235 141.826 187.085 141.799L186.108 141.784C186.314 142.888 186.539 143.989 186.725 145.1C186.92 146.258 185.898 146.995 185.014 146.965C185.113 146.981 185.212 146.998 185.312 147.012C188.074 147.402 190.943 147.298 193.746 147.295C193.595 146.417 193.656 145.425 193.634 144.692L193.629 144.579C193.586 143.639 193.556 142.7 193.539 141.761ZM178.926 141.558C179.001 142.132 179.146 142.694 179.363 143.217C180.282 145.427 182.387 146.459 184.614 146.893C184.228 146.76 183.921 146.44 183.844 145.892C183.65 144.529 183.581 143.143 183.576 141.759C182.023 141.745 180.46 141.712 178.926 141.558ZM212.929 141.086C211.824 141.347 210.54 141.227 209.455 141.277C208.439 141.323 207.423 141.363 206.407 141.404C206.455 142.096 206.502 142.788 206.552 143.48C206.618 144.374 206.624 145.319 206.795 146.209C208.84 145.512 210.672 144.396 212.047 142.61C212.389 142.165 212.696 141.643 212.929 141.086ZM184.144 134.568C182.305 135.003 180.563 135.921 179.627 137.602C179.072 138.599 178.828 139.78 178.874 140.945C180.43 140.764 182.011 140.696 183.586 140.639C183.591 140.356 183.598 140.073 183.606 139.791L183.63 139.069C183.673 137.69 183.695 135.959 184.144 134.568ZM193.668 134.736L192.858 134.645C190.608 134.39 188.36 134.121 186.11 134.275C185.784 134.297 185.454 134.333 185.122 134.381C185.52 135.813 185.487 137.495 185.653 138.913C185.717 139.461 185.798 140.005 185.888 140.546L186.278 140.528C188.692 140.397 191.109 140.317 193.525 140.221C193.524 139.769 193.527 139.316 193.534 138.863L193.543 138.409C193.571 137.252 193.496 135.948 193.668 134.736ZM204.965 134.552C202.609 134.932 200.174 135.013 197.859 135.016C196.935 135.017 196.011 134.96 195.087 134.878C195.148 135.369 195.179 135.866 195.224 136.349C195.315 137.327 195.42 138.304 195.533 139.279L195.634 140.133C198.604 139.998 201.573 139.853 204.542 139.703L204.961 139.68L205.078 138.04C205.158 136.946 205.246 135.852 205.37 134.764L205.277 134.73C205.168 134.685 205.064 134.623 204.965 134.552ZM205.989 134.96C206.118 136.506 206.19 138.059 206.286 139.608L208.243 139.504C208.569 139.486 208.895 139.468 209.221 139.449C210.49 139.376 212.119 138.993 213.373 139.351C213.469 138.213 213.143 137.105 212.114 136.341C210.308 134.998 208.009 135.476 205.989 134.96ZM199.302 121.134C202.216 119.468 209.529 117.766 209.992 123C210.205 125.409 208.41 127.405 206.315 128.295L206.236 128.328C204.271 129.135 200.788 130.045 199.087 128.297C197.672 126.841 199.549 124.232 201.308 125.424C202.212 126.037 204.115 125.586 205.123 125.294L205.186 125.276C206.275 124.956 207.726 123.935 207.276 122.597C206.877 121.414 205.183 121.198 204.121 121.16C202.537 121.103 200.995 121.47 199.425 121.59C199.177 121.608 199.1 121.249 199.302 121.134ZM211.374 112.717C215.329 112.532 217.79 116.843 216.881 120.374C216.723 120.984 216.04 121.582 215.381 121.513L215.215 121.498C215.131 121.49 215.046 121.479 214.968 121.458C214.342 121.285 213.781 120.635 213.826 119.961L213.838 119.765C213.931 118.097 213.749 116.175 211.763 115.771C210.078 115.428 209.137 117.046 209.117 118.536C209.113 118.801 208.815 118.985 208.581 118.843C207.363 118.103 207.152 116.632 207.617 115.365C208.207 113.759 209.683 112.796 211.374 112.717ZM182.02 113.642C184.899 112.683 188.004 114.214 189.398 116.754C189.887 116.896 190.375 117.272 190.307 117.848C190.209 118.676 190.062 119.199 189.486 119.827C188.586 120.81 186.899 120.307 186.525 119.097L186.509 119.043C186.084 117.479 184.359 116.447 182.787 116.994C180.952 117.634 181.005 119.569 179.717 120.696C179.566 120.828 179.384 120.849 179.203 120.762C177.835 120.102 178.081 118.117 178.569 116.981C179.208 115.49 180.451 114.164 182.02 113.642ZM178.099 104.918C180.432 102.543 186.515 100.244 188.11 104.63C188.414 105.466 187.767 106.592 186.896 106.766C185.468 107.049 184.202 106.431 182.784 106.542C181.636 106.632 180.439 107.015 179.522 107.724C176.98 109.69 176.421 113.014 174.65 115.515C174.564 115.637 174.396 115.586 174.38 115.442C173.977 111.8 175.545 107.519 178.099 104.918ZM208.521 102.58C210.069 102.034 211.821 102.081 213.377 102.565C214.945 103.052 216.384 103.979 217.492 105.189C217.995 105.738 218.461 106.344 218.834 106.99C219.033 107.332 219.241 108.038 219.466 108.459C220.686 109.162 221.207 110.763 220.115 111.902L220.066 111.952L219.92 112.096C219.333 112.676 218.448 112.927 217.647 112.696C215.855 112.178 215.637 110.769 215.016 109.273C214.606 108.286 213.904 107.411 213.053 106.769C211.041 105.253 207.741 104.769 205.318 105.484C205.19 105.522 205.038 105.358 205.13 105.239C205.589 104.646 205.854 104.159 206.468 103.68C207.092 103.194 207.773 102.843 208.521 102.58Z" fill="black"/>
<path fill-rule="evenodd" clip-rule="evenodd" d="M223.024 117.422C222.352 119.246 221.33 121.145 220.08 122.68C215.023 126.954 210.109 124.588 207.614 118.796C206.666 114.702 209.183 110.293 211.851 107.282C215.703 103.429 221.989 105.451 223.76 110.031C223.868 110.625 223.933 111.217 223.964 111.807C223.927 113.724 223.696 115.363 223.024 117.185M174.414 113.744C181.076 105.835 193.54 105.412 193.222 117.584C191.791 132.991 167.692 129.209 174.414 113.744ZM225.119 107.146C224.886 106.752 224.627 106.37 224.344 106.005C224.239 105.943 224.179 105.392 223.795 105.351C218.659 99.6962 209.636 102.905 206.376 108.539C205.78 109.252 205.295 110.086 204.936 110.967C201.724 110.379 197.979 110.493 194.992 111.704C192.029 103.984 183.06 103.295 177.15 106.593C173.474 108.398 171.09 112.176 167.515 114.252C159.111 114.856 150.09 112.977 141.838 115.081C135.329 116.431 140.77 119.72 141.861 117.525C149.642 115.231 158.86 117.17 166.939 116.653C167.779 118.071 169.39 119.231 170.995 119.181C172.729 134.521 195.145 131.977 195.918 118.342C196.795 116.958 197.886 115.633 199.447 114.771C200.045 114.647 200.622 114.487 201.15 114.239C202.052 114.112 203.441 114.493 204.271 115.243C207.114 132.264 223.49 130.281 226.416 115.37C226.475 115.311 226.637 115.089 226.762 114.732C227.764 113.41 230.216 112.919 229.824 110.687C229.476 108.455 226.651 108.482 225.119 107.146Z" fill="black"/>
</svg>
