<svg width="391" height="780" viewBox="0 0 391 780" fill="none" xmlns="http://www.w3.org/2000/svg">
<path fill-rule="evenodd" clip-rule="evenodd" d="M90.4969 292.697C98.3264 310.073 108.006 325.437 119.469 340.78C118.665 304.526 117.973 268.076 116.788 231.489C109.529 245.627 101.794 258.421 91.4689 272.456C83.3741 281.092 87.1485 284.677 90.4969 292.697ZM64.8295 716.853C63.9223 715.572 64.4593 713.942 65.7142 713.111C63.0422 707.36 71.0938 702.92 75.0568 698.591C84.0645 688.835 98.255 674.852 99.5182 662.534C103.814 634.588 106.269 606.544 113.148 578.926C117.235 561.384 128.582 547.308 133.652 530.076C142.468 484.536 131.079 438.867 133.048 392.873C108.199 390.44 111.417 393.533 114.079 372.901C112.416 371.748 110.796 370.527 109.281 369.298C105.314 371.411 100.631 376.591 96.2629 376.317C94.8803 375.994 93.8835 374.264 92.935 372.778C85.92 361.735 79.399 350.94 73.0148 339.812C37.7104 284.24 45.6957 271.656 78.627 218.385C92.4956 197.811 109.53 167.873 135.951 165.796C139.14 165.798 142.503 165.629 145.251 163.626C145.27 160.437 146.903 159.408 151.043 158.825C153.375 158.586 155.205 157.229 157.481 157.783C159.105 152.37 158.779 148.018 160.541 142.662C166.578 133.522 186.16 138.082 193.331 140.949C202.242 144.042 193.765 157.886 199.581 164.208C200.849 164.915 202.168 165.253 203.858 165.253C211.063 163.651 214.574 172.288 217.98 177.984C227.729 179.184 235.035 180.629 239.52 184.137C243.633 187.237 246.657 192.223 250.677 202.534C259.095 220.923 264.615 239.187 267.053 256.805C269.175 268.743 275.07 279.075 279.802 289.919C291.419 318.153 296.434 336.853 293.653 361.704C290.704 361.176 287.73 360.106 284.625 359.706L283.371 362.67C283.291 362.611 283.258 362.545 283.253 362.526C279.61 387.399 289.604 438.048 256.999 431.383C254.122 458.756 244.947 483.089 233.906 505.978C229.441 514.589 224.951 523.69 225.026 533.801L226.707 533.839C226.992 533.845 227.084 533.903 227.085 533.904C227.405 533.982 227.033 536.473 226.675 537.883C221.4 556.485 216.839 575.085 212.744 593.912C211.879 596.449 211.506 603.278 209.505 604.437C209.593 605.369 206.834 607.197 206.62 607.137C207.101 610.73 205.359 612.337 205.418 615.984C205.409 615.898 207.865 616.025 207.758 615.952C209.224 615.952 210.886 619.06 210.906 621.166C211.04 623.703 208.892 626.089 208.141 628.578C206.977 634.041 207.158 639.579 206.64 645.076C211.529 646.183 210.432 651.371 206.145 651.627C206.145 651.627 205.364 658.875 205.518 662.489C208.459 662.841 209.766 665.457 210.737 667.487C214.355 667.528 217.74 669.171 221.099 670.883C228.929 674.714 236.619 678.726 243.594 682.79C249.747 686.874 263.16 691.365 256.196 699.955C256.302 700.177 254.702 704.163 252.543 703.8C241.894 704.832 201.4 696.053 192.032 694.106C188.852 693.352 174.938 691.543 180.717 686.854C178.563 680.85 178.468 669.459 184.964 668.068C185.594 662.427 190.351 660.447 195.095 662.534C195.065 658.476 195.318 654.964 195.361 650.904C193.077 650.604 190.549 649.758 189.889 648.029C189.263 647.074 189.506 643.826 191.857 643.802C191.926 643.797 193.625 643.878 193.693 643.877C193.421 637.309 193.995 631.735 193.01 625.156C192.482 622.971 190.753 622.615 189.622 621.491C188.56 618.223 191.826 615.584 194.619 615.034C195.33 611.711 193.829 608.192 194.619 604.932C192.798 604.872 191.376 604.778 190.192 603.674C189.679 603.172 188.838 603.324 188.184 603.28C187.551 596.42 183.264 590.562 182.313 583.963C180.974 576.152 183.498 568.002 184.403 560.042C185.135 553.421 183.968 546.646 183.384 540.144C159.379 578.389 126.964 615.246 121.16 661.802C120.542 665.385 120.167 669.394 123.478 672.904L123.62 672.944C124.462 674.631 124.991 677.847 125.594 679.587C128.721 682.052 125.851 686.787 123.593 688.921C122.908 689.7 122.324 690.604 121.698 691.42C109.902 705.485 108.567 721.377 85.9224 720.304C80.3554 719.957 67.3286 720.133 64.8295 716.853Z" fill="#D08B5B"/>
<path fill-rule="evenodd" clip-rule="evenodd" d="M229.846 315.552L247.923 315.715L253.19 315.75L253.437 315.751L255.367 315.756L256.579 315.754L257.855 315.747L258.743 315.739C260.888 315.716 262.452 315.67 263.344 315.602L263.566 315.583L263.711 315.569L266.122 315.279L265.413 321.305L264.986 324.948L264.578 328.442C258.062 384.431 255.058 416.345 255.589 423.658L255.607 423.876L255.648 424.335L255.651 424.354C255.708 424.616 256.251 424.909 257.105 424.941L257.184 424.944L257.261 424.944L259.02 424.945L259.042 426.699C259.048 427.123 259.024 427.56 258.975 428.059L258.957 428.237C258.951 428.296 258.944 428.356 258.937 428.419L258.83 429.319C258.698 430.472 258.702 430.95 258.785 431.129L258.792 431.142L258.805 431.163L259.179 431.707L259.1 432.43L259.024 433.095L258.914 433.399L258.824 433.655C258.396 434.897 258.043 436.215 257.634 438.022L257.549 438.403L257.396 439.101L256.928 441.288C253.116 458.982 247.872 475.822 241.155 491.629L240.924 492.172L240.84 492.39L240.729 492.676C239.537 495.728 238.213 498.553 235.899 503.129L235.791 503.341L233.878 507.105L233.312 508.231C231.192 512.459 230.02 515.014 228.942 517.849L228.758 518.338L228.578 518.828C226.872 523.518 225.984 527.819 225.951 532.117L225.95 532.36L225.95 533.34L225.12 533.863C222.063 535.788 219.126 536.768 216.181 536.897L216.018 536.903L215.669 536.91C212.315 536.939 209.246 535.937 205.332 533.854L205.139 533.75C204.709 533.519 204.267 533.275 203.772 532.996L203.606 532.901L203.067 532.594L201.281 531.568L200.743 531.261C197.047 529.165 194.743 528.103 192.146 527.462L191.898 527.403L191.806 527.381L191.572 527.756C190.049 530.202 187.933 533.76 185.245 538.389L184.614 539.476L183.507 541.393L182.822 542.496L182.12 543.618C178.618 549.191 175.173 554.321 169.034 563.205L168.199 564.412L163.038 571.867C159.578 576.878 157.341 580.168 155.123 583.53L154.323 584.747L153.337 586.258C149.018 592.906 145.389 598.942 142.196 604.881L141.606 605.982L140.804 606.159C138.881 606.582 136.902 606.806 134.874 606.839L134.584 606.842H134.268C126.079 606.811 117.463 603.605 110.287 598.245L110.07 598.082L109.262 597.471L109.376 596.465C110.283 588.471 112.298 580.539 115.428 571.987L115.657 571.365L115.8 570.981C118.063 564.917 120.465 559.462 124.822 550.213L125.241 549.325L128.134 543.205C129.405 540.508 130.314 538.551 131.178 536.645L131.288 536.402L132.045 534.718L132.136 534.451C134.47 527.6 135.871 520.211 136.532 511.932L136.564 511.524L136.612 510.877L136.646 510.392C137.078 504.074 137.101 497.571 136.816 488.977L136.77 487.639L136.733 486.636L136.675 485.131L136.611 483.58L136.541 482.135C136.127 473.885 135.39 462.628 133.35 433.439L132.48 421.016L130.236 389.096C129.806 382.945 187.617 384.43 187.617 384.43C187.617 384.43 167.871 321.731 182.155 313.09C191.206 307.615 229.846 315.552 229.846 315.552Z" fill="#9DDADB"/>
<path fill-rule="evenodd" clip-rule="evenodd" d="M125.263 674.232L125.378 674.529L125.491 674.827C126.946 678.711 127.149 679.998 126.206 682.295L126.17 682.38C125.836 683.171 125.428 683.867 124.641 685.064L123.824 686.298L123.548 686.721C123.194 687.267 122.871 687.781 122.555 688.31L122.369 688.621L121.743 689.554L121.337 690.167C120.766 691.031 120.155 691.972 119.334 693.248L117.075 696.765L116.128 698.227C113.755 701.877 112.217 704.108 110.411 706.477L109.945 707.085L109.702 707.388L109.46 707.685C105.179 712.908 100.553 716.468 95.3088 717.969L95.1337 718.018L94.9701 718.064L94.8009 718.077C87.473 718.667 80.1426 718.037 70.2021 716.295L69.5641 716.183L68.7927 716.044L67.1131 715.738L66.7196 715.343C64.4201 713.034 64.1044 710.371 65.5158 707.717C66.4402 705.978 67.8604 704.475 70.4087 702.26L72.3969 700.542C74.2282 698.952 74.5317 698.64 74.9853 698.019L75.1718 697.759L75.2597 697.668C83.4875 689.088 90.3604 680.822 95.665 671.091L95.8709 670.712L96.1811 670.138L96.7899 669.9C101.774 667.955 107.356 668.173 112.029 670.549L112.183 670.628L112.332 670.707L112.486 670.791C113.272 671.23 113.93 671.705 115.073 672.607L115.714 673.113L116.014 673.346C117.007 674.111 117.583 674.479 118.28 674.784C119.63 675.376 121.233 675.277 121.774 674.696L121.803 674.663L121.829 674.63L122.545 672.634L125.263 674.232ZM185.492 667.288C185.726 668.021 184.828 670.924 185.48 671.923C186.068 672.824 188.138 672.577 189.573 672.562L189.866 672.557L190.164 672.548C190.633 672.533 191.129 672.504 191.777 672.458L193.678 672.319L193.838 672.309C193.888 672.306 193.939 672.303 193.992 672.301L194.289 672.286L194.477 672.279L194.548 672.274C196.899 672.09 198.833 670.806 202.608 669.322L204.366 668.625C206.128 667.93 207.118 667.569 208.31 667.203L208.482 667.151L208.574 667.133C211.935 666.479 216.136 667.746 221.841 670.591L222.202 670.772L222.59 670.969C223.502 671.435 224.461 671.944 225.541 672.531L227.212 673.45C228.375 674.092 229.813 674.888 230.32 675.165L230.803 675.427L231.242 675.663C232.336 676.247 233.209 676.688 233.968 677.034L234.218 677.147L234.278 677.179C240.815 680.719 246.82 684.217 252.458 687.798L252.901 688.08L253.05 688.161C259.836 691.925 259.93 698.001 253.539 702.225L253.344 702.352L253.14 702.481L252.648 702.788L252.069 702.746C242.202 702.037 231.999 700.585 220.793 698.39L219.694 698.173C211.302 696.504 203.021 694.585 191.275 691.66L188.956 691.08L185.177 690.13L185.079 690.121C180.956 689.695 178.671 686.604 178.675 682.341L178.677 682.099L178.677 681.897C178.672 677.423 180.62 673.297 182.279 669.956L182.366 669.784L182.454 669.613L185.492 667.288Z" fill="white"/>
<path fill-rule="evenodd" clip-rule="evenodd" d="M129.622 391.885C130.63 391.93 131.542 391.971 132.303 392.023L132.637 392.046L132.649 392.139L133.056 392.151C150.313 392.65 167.638 392.069 184.768 389.844L185.834 389.704C186.36 389.636 186.891 389.572 187.424 389.507L187.431 389.506C189.456 389.261 191.509 389.012 193.468 388.539C194.733 388.361 195.474 387.695 195.892 386.813C196.411 385.715 196.395 384.239 196.239 382.972L196.216 382.798C194.216 340.677 183.886 299.94 173.555 259.212L173.547 259.181C165.099 225.879 156.653 192.582 152.781 158.536L151.752 158.795L150.049 159.219C148.39 159.64 147.216 160.02 146.371 160.699C145.603 161.315 145.085 162.17 144.75 163.545C144.555 164.391 144.432 165.445 144.359 166.777C143.611 171.738 143.519 168.873 143.692 165.428C143.704 165.186 143.707 164.937 143.702 164.681C143.487 164.781 143.267 164.875 143.044 164.963C140.857 165.821 138.52 165.948 136.185 166.075L136.11 166.079C134.695 166.156 133.281 166.234 131.893 166.461C124.815 167.701 118.578 171.716 113.025 176.113L112.657 176.405C91.4486 195.115 77.3804 220.538 63.7904 245.117C63.1167 246.335 62.4442 247.551 61.772 248.765L60.9048 250.328C50.9554 267.5 46.2006 288.48 56.1691 306.735C67.6683 329.977 81.0068 352.38 95.1318 374.16C95.7688 374.987 96.521 375.216 97.3143 375.127C98.2709 375.019 99.3147 374.377 100.276 373.763L100.293 373.752C100.642 373.53 100.979 373.314 101.313 373.132C110.743 367.469 118.92 359.766 125.209 350.758C125.276 350.663 125.342 350.567 125.409 350.471C125.34 350.378 125.267 350.287 125.194 350.196L125.191 350.192C108.847 329.717 93.6363 307.353 85.1539 282.444C84.7467 278.515 88.3189 274.208 91.5993 270.252C91.6793 270.156 91.7593 270.059 91.839 269.963C93.4732 267.991 95.0299 266.109 96.0367 264.408C102.731 255.183 108.997 245.643 115 235.923C115.155 235.63 115.31 235.338 115.464 235.044L115.541 234.898C115.53 234.85 115.521 234.801 115.513 234.752C115.459 234.399 115.494 234.035 115.641 233.754C115.742 233.562 115.9 233.412 116.131 233.371C116.204 233.358 116.274 233.358 116.342 233.369L116.358 233.337L116.371 233.724L117.332 232.12L118 231.014C118.119 230.818 118.235 230.627 118.348 230.443C118.14 230.871 117.916 231.332 117.675 231.826L117.457 232.276L116.998 233.216C118.562 256.414 118.92 279.91 119.278 303.375L119.278 303.388C119.462 315.437 119.645 327.478 119.991 339.466L119.996 339.615C120.026 339.657 120.056 339.698 120.087 339.738C122.848 343.39 125.69 346.982 128.599 350.516L128.876 350.853C128.944 350.806 129.012 350.76 129.079 350.713C129.131 350.677 129.183 350.641 129.236 350.605C138.593 344.161 149.6 339.958 160.904 338.656L161.335 338.613L162.55 338.488C165.352 338.206 168.914 337.91 171.478 338.919C172.352 339.262 173.106 339.761 173.653 340.482C174.137 341.12 174.456 341.93 174.566 342.948C174.379 344.632 173.369 345.661 171.91 346.328C169.753 347.316 166.654 347.547 163.539 347.78L163.391 347.791C159.231 348.102 155.087 348.459 152.89 350.344C152.703 350.504 152.526 350.679 152.356 350.868C152.577 350.962 152.799 351.053 153.022 351.143C156.148 352.402 159.445 353.326 162.749 354.251L162.821 354.271C168.301 355.805 173.803 357.345 178.587 360.508C179.986 361.323 182.214 363.194 182.791 364.934C182.959 365.441 182.98 365.938 182.719 366.374C182.476 366.78 182.012 367.119 181.296 367.393C180.124 367.481 178.929 367.242 177.74 367.003L177.67 366.989C176.842 366.823 176.016 366.659 175.2 366.589L175.008 367.511C177.222 368.256 179.265 369.511 180.594 371.537C181.088 372.276 181.512 373.445 181.38 374.413C181.336 374.738 181.225 375.04 181.013 375.279C180.832 375.483 180.579 375.637 180.246 375.731C176.668 375.823 173.101 375.053 169.554 374.288L169.496 374.276C167.841 373.918 166.19 373.563 164.545 373.292C163.311 373.089 162.058 372.93 160.799 372.783L164.754 374.388L164.984 374.482C167.136 375.372 169.928 376.627 170.82 378.341C171.097 378.872 171.164 379.45 170.918 380.076C170.675 380.696 170.148 381.349 169.284 382.051C165.874 383.787 161.98 382.215 158.29 380.726L158.045 380.627C156.352 379.945 154.699 379.281 153.147 378.915C147.584 377.621 142.599 378.247 137.708 378.868L137.636 378.878C130.465 379.79 123.491 380.676 115.122 375.045C114.894 374.891 114.67 374.736 114.451 374.581C114.431 374.852 114.409 375.123 114.384 375.393C114.249 376.812 114.014 378.245 113.778 379.682L113.775 379.698C113.309 382.536 112.845 385.39 113.106 388.193C113.111 388.251 113.117 388.309 113.123 388.367C113.166 388.411 113.21 388.454 113.254 388.495C116.16 391.214 124.214 391.641 129.613 391.884L129.622 391.885ZM292.265 359.247C292.422 357.876 292.544 356.5 292.63 355.122C294.052 330.001 285.248 305.6 274.95 283.047C268.83 271.175 265.048 258.503 263.46 245.227C260.521 228.727 254.111 213.136 247.543 197.785L246.513 195.381C244.508 189.859 241.452 186.239 237.617 183.792C232.961 180.822 227.141 179.589 220.621 178.81C220.3 178.772 219.98 178.735 219.661 178.699C219.826 178.974 215.439 175.556 211.711 169.995C208.285 165.608 207.553 165.562 205.012 165.402L204.917 165.396L204.912 165.395C204.011 165.338 202.868 165.266 201.267 164.971C200.875 164.899 200.514 164.824 200.179 164.748C200.374 165.071 200.576 165.389 200.787 165.701C201.409 166.627 202.099 167.509 202.845 168.343C202.862 168.362 202.958 168.447 203.116 168.587C204.37 169.696 209.518 174.248 209.562 176.282C227.138 233.57 227.92 294.414 227.616 353.893L227.596 357.55C227.875 362.512 227.209 367.419 226.542 372.32L226.536 372.365C225.912 376.958 225.291 381.547 225.424 386.171C225.428 386.304 225.432 386.436 225.438 386.569C225.523 386.582 225.609 386.594 225.695 386.607C225.74 386.613 225.786 386.62 225.831 386.627C235.702 388.047 245.717 388.169 255.628 387.117C255.725 387.107 255.822 387.097 255.919 387.086C255.93 387.058 256.111 386.867 256.364 386.601C256.921 386.017 257.823 385.068 258.015 384.687C269.358 367.676 268.402 357.583 268.402 357.583L268.402 357.585C268.561 357.566 268.72 357.547 268.88 357.528C276.528 356.641 284.262 357.733 291.674 359.652C291.775 359.678 291.877 359.705 291.979 359.731C292.053 359.751 292.126 359.77 292.2 359.79C292.215 359.666 292.23 359.542 292.245 359.418C292.251 359.361 292.258 359.304 292.265 359.247Z" fill="#E86BBB"/>
<path fill-rule="evenodd" clip-rule="evenodd" d="M159.61 144.818C161.521 143.524 158.799 154.75 158.795 155.83C158.327 158.166 157.498 160.961 155.501 162.478C156.391 169.754 157.499 177.008 158.864 184.209L159.666 184.314C171.569 185.89 183.55 188.056 195.653 186.927C202.175 186.979 206.488 182.522 209.121 176.997L208.577 175.051C200.303 169.977 194.027 159.705 197.76 150.001C198.002 149.371 199.011 149.627 198.79 150.286C197.224 154.665 197.883 159.601 200.106 163.62C201.495 164.357 202.975 164.307 204.464 164.26C211.648 163.211 215.769 171.354 218.863 176.428L221.569 176.828C231.923 178.364 241.907 180.182 247.02 190.774L247.487 191.765C254.719 207.142 261.479 222.955 265.418 239.522C267.38 248.242 268.09 257.227 270.968 265.731C276.943 281.523 285.364 296.363 289.929 312.711C292.762 318.61 300.735 363.014 292.869 363.351C290.041 362.505 287.16 361.82 284.249 361.334C284.697 361.675 284.861 362.256 284.776 362.849C283.759 369.966 283.683 377.176 283.688 384.353C284.104 401.581 284.047 438.002 258.348 433.364C256.242 454.432 249.048 474.815 241.051 494.32C236.299 506.891 227.085 518.359 226.622 532.168C229.804 532.216 228.572 536.26 228.18 538.21C227.11 542.983 225.716 547.681 224.306 552.366C219.337 569.16 216.373 586.516 212.118 603.501C211.888 604.319 211.501 604.876 211.007 605.253C210.924 607.016 208.246 608.038 206.737 607.445C206.95 609.586 206.891 611.748 206.92 613.895L206.927 614.297L207.39 614.292C209.406 613.774 211.444 617.032 212.014 618.708C213.927 623.391 209.489 626.826 209.159 631.284C208.858 635.521 208.458 639.717 208.276 643.966C213.813 646.124 211.359 653.346 205.939 653.274C206.192 655.907 206.226 658.564 206.338 661.201C208.697 661.819 210.464 663.805 211.624 665.878C216.391 666.2 220.741 669.016 224.988 671.009C231.554 674.244 238.014 677.702 244.351 681.369C250.518 685.474 264.25 690.123 258.248 699.611C259.759 700.911 258.704 703.461 257.327 704.524L257.279 704.56C255.911 705.629 254.102 705.629 252.42 705.453C232.888 705.942 212.307 699.885 192.884 695.93L190.925 695.581C186.829 694.841 182.668 693.974 179.036 691.987C177.438 690.685 177.047 687.515 178.682 686.237C177.006 680.18 178.518 669.543 185.151 667.202C185.94 662.708 189.575 659.491 194.204 660.858C194.227 657.982 194.461 655.14 194.513 652.264C192.219 651.833 190.103 650.941 188.997 648.765C187.78 646.599 189.1 642.961 191.863 643.082C191.956 638.6 191.702 634.195 191.666 629.722L191.662 629.452C191.647 628.004 191.706 626.406 191.091 625.076C190.459 623.704 188.778 623.569 188.032 622.266C186.396 618.761 189.671 614.649 193.045 613.707C193.468 611.36 193.25 608.875 193.675 606.507C191.877 606.402 190.345 605.985 189.044 604.966C188.143 604.829 186.552 605.23 186.45 603.938C186.085 598.669 183.422 593.974 181.746 589.06C178.283 579.498 181.425 569.513 182.629 559.842C183.197 554.907 182.598 549.954 182.092 545.012C159.244 580.743 129.94 615.296 123.169 658.405C122.793 663.255 120.809 667.249 124.295 671.433C125.468 671.781 126.461 677.251 126.914 678.641C130.486 681.94 127.371 687.826 124.266 690.38C122.779 692.942 120.789 695.191 118.928 697.485L118.328 698.49C114.385 705.077 110.174 711.682 104.828 717.201C95.832 723.854 80.7619 721.962 70.1708 720.765L69.3363 720.629C67.1037 720.26 64.6042 719.736 63.3145 717.745C62.2126 716.045 62.3598 713.841 63.7301 712.566C62.3703 708.656 65.4685 704.81 68.3825 702.41C79.6756 692.411 89.4113 680.652 96.9953 667.617C99.9017 646.539 102.886 625.467 106.117 604.435C108.725 587.037 112.698 569.611 121.086 554.002L121.835 552.58C125.766 545.124 129.706 537.798 131.935 529.597C136.554 512.417 135.448 494.437 134.808 476.85C133.985 449.405 132.026 421.947 132.281 394.48C127.109 393.938 113.079 394.267 110.872 388.96C110.148 383.902 111.844 378.752 112.228 373.699C111.135 372.935 110.069 372.132 109.031 371.307C107.108 372.741 105.122 374.092 103.082 375.353C98.2024 378.861 94.4282 379.421 91.4095 373.654C82.6701 359.862 74.2416 345.867 66.2876 331.608C58.9098 317.929 49.766 304.278 47.8931 288.529C45.1706 260.189 78.468 214.818 95.1402 191.791C105.489 179.288 118.905 165.962 136.081 165.232L136.301 165.222C138.56 165.134 141.71 165.321 143.543 163.836C143.899 158.72 149.159 158.742 153.066 157.899C153.876 157.28 155.104 157.132 156.14 157.185C157.542 153.161 157.862 148.71 159.61 144.818ZM111.342 671.267C107.054 669.037 101.939 668.861 97.4271 670.622C91.834 680.976 84.6718 690.426 76.5349 698.912C73.5656 703.054 62.4055 708.516 67.9713 714.104L69.1017 714.311C77.5225 715.833 86.069 717.011 94.6461 716.32C100.333 714.746 104.924 710.539 108.542 705.99C113.034 700.176 116.743 693.777 120.85 687.687C124.539 681.443 126.484 681.36 123.591 673.943C123.587 674.088 123.551 674.237 123.477 674.384C122.456 676.441 119.321 676.254 117.552 675.479C115.246 674.467 113.569 672.438 111.342 671.267ZM70.828 716.024C70.9135 716.065 71.0014 716.105 71.0892 716.143C71.1534 716.143 71.2175 716.145 71.2816 716.147L70.828 716.024ZM233.417 678.756C227.059 675.915 215.398 667.629 208.903 668.892C204.105 670.356 199.681 672.983 194.566 673.358L194.346 673.366C190.696 673.526 184.207 674.736 182.834 670.452C181.017 673.92 180.42 678.209 180.447 682.132C180.372 685.472 181.903 688.12 185.46 688.386L188.753 689.214C209.62 694.448 230.682 699.442 252.185 700.988C257.829 697.472 257.969 692.838 251.983 689.626C245.939 685.767 239.719 682.17 233.417 678.756ZM110.519 598.014C106.782 621.369 104.272 644.858 100.653 668.224C113.274 665.065 117.005 676.386 121.697 673.225C118.406 668.905 118.803 665.64 119.776 660.614C121.707 643.666 128.026 627.541 135.861 612.493C136.754 610.773 137.671 609.064 138.599 607.362C128.525 608.277 117.68 605.407 110.519 598.014ZM188.334 664.614C187.467 665.954 187.126 667.573 186.85 669.122C186.707 669.923 186.786 671.104 186.501 672.002C191.92 672.161 197.373 670.905 202.256 668.579C198.378 668.302 189.841 668.96 188.334 664.614ZM184.963 668.068C184.436 668.442 183.98 668.876 183.586 669.357C183.453 670.104 183.84 670.919 184.467 671.381C184.593 670.287 184.745 669.154 184.963 668.068ZM195.551 652.43C195.568 655.808 195.774 659.143 195.736 662.519C195.731 663.693 196.079 665.171 195.361 666.167L196.501 666.286C199.361 666.581 202.276 666.83 205.134 666.503C205.226 662.108 205.228 657.691 205.518 653.297C201.995 653.275 199.019 652.684 195.551 652.43ZM206.469 665.892C206.464 666.029 206.462 666.169 206.467 666.304C206.878 666.226 207.286 666.136 207.69 666.027C207.358 665.995 207.017 666.051 206.692 665.937C206.617 665.928 206.54 665.918 206.469 665.892ZM194.162 665.368C193.8 665.775 193.096 665.85 192.651 665.577C192.561 665.596 192.471 665.607 192.376 665.612L192.295 665.61L192.604 665.689C193.249 665.85 193.749 665.948 194.411 666.044C194.295 665.835 194.216 665.607 194.162 665.368ZM208.99 665.349C208.907 665.503 208.793 665.633 208.653 665.738C208.812 665.685 208.973 665.633 209.13 665.574C209.087 665.498 209.04 665.423 208.99 665.349ZM190.307 664.422C190.368 664.561 190.501 664.776 190.653 664.889C190.518 664.747 190.399 664.591 190.307 664.422ZM206.378 662.244C206.38 662.327 206.383 662.408 206.387 662.489C206.431 662.447 206.481 662.399 206.544 662.375C206.487 662.332 206.43 662.289 206.378 662.244ZM191.846 643.821C189.19 644.684 190.119 648.014 192.131 649.104C194.318 650.545 197.622 650.32 200.133 650.538C202.83 650.727 209.905 652.2 208.656 647.495C208.466 647.156 208.212 646.94 207.931 646.768C207.908 646.827 207.881 646.881 207.855 646.936C207.746 650.222 196.773 648.443 194.879 647.192L194.759 647.139C193.164 646.453 191.654 646.171 191.846 643.821ZM195.094 605.298C195.67 607.874 195.481 610.552 195.845 613.136C196.073 613.885 195.781 614.385 195.313 614.641L195.648 614.739C198.557 615.571 201.49 615.963 204.518 615.286C204.181 612.578 204.936 609.512 205.316 606.774C205.378 606.461 205.404 606.151 205.473 605.867L195.094 605.298ZM206.62 605.928C206.671 606.315 206.664 606.736 206.708 607.137C206.718 607.123 206.727 607.109 206.741 607.099C207.121 606.77 207.466 606.345 207.829 605.98C207.431 605.974 207.022 605.95 206.62 605.928ZM189.865 316.129L189.615 316.179C193.958 337.896 197.376 359.89 198.559 382.041L198.575 382.366C198.693 384.545 198.988 386.955 197.536 388.768C196.004 390.68 193.617 390.922 191.354 391.271C172.206 394.177 152.784 395.159 133.428 394.53C135.664 424.306 136.492 454.17 137.912 483.994L137.975 485.557C138.648 502.419 138.806 519.739 133.225 535.866C124.306 555.868 113.194 574.893 110.667 597.164C118.846 603.347 129.821 607.147 139.942 604.921C151.973 582.432 168.127 562.596 181.498 540.981C206.573 497.509 204.095 444.93 203.459 396.724C203.369 396.389 203.707 396.272 203.687 396.665C203.946 396.641 204.216 396.762 204.266 397.059C205.792 407.162 205.248 417.446 205.183 427.628C205.16 435.224 205.686 443.113 205.126 450.571C204.333 476.189 201.127 502.157 191.565 526.111C203.395 528.754 210.692 541.047 223.69 532.858C223.693 517.907 233.635 505.504 238.795 492C245.761 475.717 250.98 458.715 254.708 441.413L255.103 439.564C255.588 437.302 256.12 434.957 256.946 432.785C255.96 431.587 256.808 429.277 256.782 427.22C255.375 427.22 253.569 426.636 253.397 425.016L253.391 424.94C252.356 413.555 252.268 401.853 254.405 390.591L254.103 390.609C248.76 390.922 223.197 391.991 222.503 387.699C221.551 380.501 223.852 373.365 224.322 366.219C225.166 350.072 224.963 333.863 224.852 317.696C219.723 318.375 214.798 317.397 209.724 317.234C203.284 316.758 196.651 317.191 190.289 316.197L189.865 316.129ZM269.8 360.315C269.544 360.616 269.264 360.798 268.979 360.891C268.981 367.733 267.599 374.462 263.811 380.387C262.148 382.586 261.254 385.12 260.458 387.73C260.686 388.439 260.399 389.256 259.864 389.661C256.363 400.293 256.002 411.675 257.294 422.717C261.231 416.947 262.793 410.062 263.894 403.273C263.953 402.932 264.519 402.936 264.58 403.273C265.887 410.53 263.673 417.781 260.814 424.414C259.227 425.751 259.569 428.794 259.384 430.688C288.403 434.914 278.312 379.239 282.029 362.092C282.098 361.621 282.499 361.277 282.955 361.133C278.602 360.469 274.192 360.42 269.8 360.315ZM152.385 159.119L151.883 159.246C146.59 160.57 145.183 160.598 144.847 166.817C143.529 175.598 138.663 183.256 136.476 191.746C135.601 194.744 136.527 200.27 140.675 199.459C142.019 199.046 143.066 200.857 142.05 201.817C139.045 204.656 136.129 207.583 133.196 210.491C144.974 250.214 160.273 288.905 178.91 325.922C179.649 327.392 177.433 328.683 176.699 327.214C158.172 290.079 142.762 251.4 130.802 211.667L130.441 210.463C129.912 209 136.667 203.757 137.896 202.047C125.58 196.118 142.732 175.372 143.232 165.395C139.667 166.795 135.712 166.311 131.99 166.919C124.836 168.173 118.558 172.302 112.978 176.759C90.3095 196.76 75.8233 224.452 61.3329 250.553C51.4643 267.583 46.7076 288.4 56.61 306.516C68.1009 329.742 81.4302 352.129 95.5231 373.862C97.0713 375.871 99.4509 373.565 101.083 372.717C110.456 367.089 118.583 359.432 124.834 350.479C108.444 329.946 93.1964 307.515 84.7002 282.532C84.0212 276.455 92.5476 269.412 95.6584 264.131C102.529 254.666 108.947 244.868 115.076 234.913C114.883 233.929 115.29 232.846 116.334 232.877L116.939 231.868C121.607 224.11 122.132 223.818 117.496 233.301C119.854 268.382 119.461 304.142 120.481 339.444C123.238 343.091 126.076 346.677 128.981 350.206C138.402 343.718 149.486 339.487 160.868 338.175L161.303 338.133C166.1 337.647 174.411 336.536 175.059 342.94C174.275 350.656 158.316 346.318 153.214 350.694C161.578 354.063 171.162 355.012 178.841 360.09C181.304 361.526 186.133 366.101 181.416 367.852C179.357 368.028 177.232 367.229 175.175 367.053C177.489 367.832 179.619 369.152 180.974 371.222C181.95 372.641 182.663 375.588 180.331 376.195C175.014 376.345 169.719 374.612 164.483 373.751L164.948 373.94C168.766 375.501 174.699 378.306 169.558 382.443C164.411 385.105 158.179 380.576 153.053 379.367C139.243 376.156 129.028 384.955 114.871 375.429C114.474 379.625 113.203 383.941 113.593 388.14C116.994 391.321 127.602 391.216 132.341 391.638L132.345 391.605C132.393 391.145 132.164 388.957 132.873 389.901C132.94 390.491 133.011 391.079 133.084 391.669C150.317 392.166 167.617 391.587 184.721 389.365L185.444 389.27C188.07 388.92 190.816 388.689 193.395 388.063C196.032 387.709 196.037 384.899 195.757 382.831C192.135 306.442 161.08 234.614 152.385 159.119ZM201.196 165.429C201.806 166.336 202.483 167.201 203.214 168.019C204.339 166.277 207.084 165.293 207.86 167.889C208.738 170.559 209.994 173.305 210.03 176.134C227.98 234.638 228.436 296.847 228.086 357.53C228.624 367.155 225.638 376.577 225.914 386.149C235.746 387.564 245.72 387.685 255.593 386.637C255.885 385.871 256.215 385.118 256.589 384.378C271.368 366.365 263.53 343.791 256.414 324.28C252.112 324.461 247.783 324.189 243.476 324.242C244.807 328.36 245.15 332.716 245.858 336.974C246.34 340.008 246.956 343.019 247.663 346.007L247.853 346.803C248.119 347.905 248.473 349.094 248.086 350.187C247.706 351.266 246.395 351.702 245.525 350.863C243.958 349.077 244.127 346.415 243.621 344.2L243.496 343.271C242.638 336.984 241.548 330.471 243.106 324.239C241.558 323.907 237.328 325.127 237.106 323.047C237.171 319.612 234.679 312.17 237.453 309.908C239.104 308.649 241.942 309.047 243.877 308.969C246.115 308.879 248.349 308.796 250.584 308.81C232.624 265.417 237.619 252.06 239.441 208.875L239.496 207.557C239.491 207.273 239.949 207.202 239.999 207.488C242.746 225.177 239.085 243.087 240.819 260.832C243.899 294.548 265.268 323.495 268.84 357.049C276.546 356.155 284.339 357.251 291.807 359.184C291.964 357.822 292.085 356.454 292.171 355.086C293.588 330.041 284.799 305.718 274.543 283.255C268.397 271.332 264.597 258.607 263.007 245.301C259.92 227.97 252.992 211.645 246.086 195.546C241.72 183.509 232.282 180.67 220.58 179.272C224.527 185.814 228.45 192.37 232.367 198.93C233.24 200.914 230.561 202.33 229.393 203.552C243.769 211.39 235.375 235.596 235.672 249.159C234.605 261.623 234.203 274.157 232.321 286.534C232.183 287.392 230.868 287.14 230.855 286.337C231.029 267.792 233.241 249.322 234.212 230.808L234.353 229.18C235.101 220.427 235.716 208.021 225.284 205.64C223.862 205.407 223.753 203.293 224.895 202.658C226.415 201.812 227.747 200.778 228.939 199.549C222.925 189.894 217.68 179.722 211.351 170.278C206.852 164.516 207.274 166.548 201.196 165.429ZM172.145 342.47C170.981 339.045 159.694 341.276 156.681 341.648C145.572 343.745 134.391 348.661 125.929 356.231C125.407 356.698 124.789 356.691 124.302 356.437C120.512 361.278 116.135 365.665 111.335 369.52C112.214 370.212 113.116 370.883 114.045 371.525C114.489 371.573 114.89 371.803 115.071 372.215C128.278 381.783 137.994 374.32 151.713 376.043C156.836 377.076 161.553 380.333 166.832 380.47C170.705 379.589 167.295 377.97 165.485 377.344C161.115 375.258 156.655 373.369 152.189 371.497L149.678 370.445C148.032 369.755 148.597 367.269 150.435 367.702C153.653 368.461 156.881 369.181 160.111 369.89C166.322 371.157 172.682 372.782 178.958 373.398C177.563 369.521 162.759 365.333 158.455 363.792C156.83 363.024 152.193 363.17 152.723 360.651C153.15 358.307 158.083 360.991 159.728 361.182C166.443 362.885 173.296 363.917 180.138 364.955C172.789 357.584 161.398 356.948 152.012 353.496L151.755 353.437C150.085 353.049 147.799 352.316 149.156 350.42C153.978 343.312 172.952 346.909 172.145 342.47ZM158.258 302.892C161.682 300.084 163.515 305.852 163.298 308.533C163.459 310.758 163.633 312.984 163.778 315.209C163.566 316.95 165.421 323.293 162.939 323.351C152.095 322.8 141.268 322.939 130.42 322.286C130.406 324.474 130.299 326.659 130.411 328.849C130.352 331.588 131.303 334.323 130.748 337.031C130.408 338.275 128.715 338.443 128.054 337.382C126.072 332.721 127.434 326.709 128.838 321.995C120.686 319.968 124.573 313.284 124.594 307.554C124.582 307.402 124.734 307.324 124.858 307.353C126.889 310.187 124.244 313.973 125.404 317.056C126.567 320.325 131.389 320.133 134.303 320.171L134.657 320.177C143.614 320.331 152.565 320.7 161.522 320.874C161.139 317.859 161.035 314.769 160.805 311.756C160.515 309.59 160.933 307.023 159.831 305.082C154.85 306.7 149.665 307.345 144.429 307.244C138.188 307.412 131.628 307.973 125.525 307.229C134.272 305.878 143.937 306.076 152.851 304.361C154.622 303.903 156.431 302.979 158.258 302.892ZM115.201 237.809C109.804 248.104 103.601 257.9 96.9929 267.438C95.5775 269.473 94.1241 271.484 92.6474 273.479L92.4653 273.712C89.4868 277.512 86.3292 280.633 89.1463 285.656C96.4526 303.398 106.235 320.059 117.569 335.521C116.851 302.95 116.216 270.37 115.201 237.809ZM250.784 309.331C237.234 312.17 236.981 306.854 239.242 321.9C244.677 321.937 250.108 321.815 255.543 321.902C253.99 317.7 252.38 313.517 250.784 309.331ZM205.63 168.168C205.063 168.16 204.194 168.493 203.616 168.457C204.729 169.644 205.954 170.722 207.243 171.673L207.47 171.839L207.367 171.642C206.821 170.575 206.369 169.347 205.749 168.352L205.63 168.168Z" fill="black"/>
<path fill-rule="evenodd" clip-rule="evenodd" d="M218.815 83.8258C211.001 72.7561 191.364 71.5092 178.953 71.5793C154.443 71.3752 149.311 99.5498 148.031 119.293C145.417 119.737 142.875 120.649 141.15 122.703C139.049 125.205 138.324 129.5 140.293 132.298C141.601 134.156 143.666 134.777 145.827 134.88C152.982 134.197 154.449 140.575 157.973 145.358C167.015 157.575 182.68 161.538 197.048 161.599C201.928 161.728 207.806 162.095 210.932 157.503C220.803 140.391 221.018 117.698 221.626 98.3064C221.71 93.3421 221.689 88.0866 218.815 83.8258Z" fill="#D08B5B"/>
<path fill-rule="evenodd" clip-rule="evenodd" d="M235.681 93.4279C235.78 93.6154 235.853 93.823 235.894 94.0489C236.023 94.7658 235.758 95.314 235.412 95.8463C235.457 96.2175 235.482 96.5773 235.502 96.8937C235.613 98.6703 235.205 101.106 233.639 101.831C233.615 101.86 233.59 101.889 233.564 101.919C233.443 102.115 233.259 102.285 233.016 102.41C232.956 102.452 232.895 102.491 232.834 102.526C232.824 102.534 232.814 102.542 232.804 102.549C232.785 102.563 232.765 102.577 232.746 102.592C232.779 102.557 232.81 102.521 232.843 102.487C231.976 102.832 231.139 102.904 230.246 102.799C229.694 102.998 229.141 103.147 228.674 103.263C227.216 103.623 225.336 103.911 223.915 103.297C223.501 103.118 223.158 102.882 222.9 102.599C222.921 103.699 222.953 104.798 223.001 105.898C223.098 108.678 223.093 111.456 223.072 114.239C223.048 117.369 222.961 120.503 222.792 123.631C222.714 125.203 222.589 126.772 222.42 128.336C222.278 129.86 222.112 131.381 221.92 132.898C221.468 136.017 220.721 139.16 219.811 142.175C219.415 143.483 218.982 144.808 218.489 146.102C218.28 146.697 218.06 147.285 217.82 147.868C216.557 150.923 214.984 153.871 212.858 156.417C211.697 157.806 210.415 159.055 208.983 160.105C207.834 161.001 206.59 161.759 205.222 162.356C202.284 163.641 199.004 163.93 195.826 163.883C194.613 163.866 193.328 163.652 192.126 163.452L192.053 163.439C191.114 163.285 190.164 163.079 189.223 162.837C188.389 162.643 187.564 162.418 186.751 162.155C185.773 161.897 184.834 161.524 183.941 161.043L182.358 160.448C181.696 160.2 181.054 159.903 180.431 159.564L178.71 158.761C177.997 158.417 177.303 158.04 176.625 157.626C176.554 157.588 176.473 157.524 176.442 157.453C176.369 157.412 176.295 157.372 176.222 157.332C176.119 157.277 176.016 157.221 175.914 157.163C175.885 157.149 175.907 157.066 175.945 156.986C175.914 156.922 175.919 156.851 176.004 156.787C176.068 156.737 176.17 156.751 176.276 156.784C176.267 156.777 176.26 156.77 176.253 156.763C176.134 156.699 176.018 156.637 175.902 156.573C175.783 156.509 175.764 156.343 175.876 156.256C175.907 156.232 175.942 156.22 175.978 156.218C175.975 156.218 175.973 156.215 175.971 156.215C175.949 156.201 175.966 156.135 175.997 156.061C175.937 155.985 175.919 155.893 176.023 155.812C176.166 155.7 176.486 155.884 176.636 155.97C176.647 155.976 176.658 155.983 176.667 155.988C176.761 156.04 176.855 156.089 176.948 156.139C177.005 156.169 177.061 156.199 177.118 156.23C177.127 156.208 177.146 156.189 177.177 156.17C176.957 156.054 176.739 155.936 176.52 155.817C176.385 155.746 176.21 155.597 176.388 155.457C176.53 155.343 176.897 155.538 177.073 155.637C177.094 155.62 177.118 155.613 177.146 155.609C177.116 155.591 177.084 155.575 177.053 155.558C177.006 155.533 176.959 155.508 176.914 155.481C176.701 155.362 176.845 154.992 177.066 155.116C177.092 155.132 177.118 155.146 177.144 155.163C177.295 155.15 177.503 155.267 177.611 155.327L177.627 155.336C178.369 155.803 179.142 156.211 179.943 156.561C180.483 156.817 181.026 157.071 181.571 157.317C182.106 157.583 182.658 157.813 183.225 158.007C184.649 158.562 186.088 159.078 187.54 159.557C189.576 160.114 191.683 160.562 193.797 160.738C194.072 160.759 194.347 160.778 194.622 160.787C194.921 160.785 195.221 160.783 195.52 160.781C195.822 160.78 196.124 160.778 196.425 160.775C197.486 160.666 198.546 160.558 199.605 160.45L199.928 160.418C200.335 160.361 200.734 160.29 201.127 160.207C201.333 160.157 201.539 160.105 201.743 160.045C201.791 160.039 201.838 160.031 201.885 160.022C201.909 160.018 201.933 160.014 201.956 160.01C202.456 159.877 202.947 159.718 203.438 159.534C203.746 159.408 204.051 159.275 204.355 159.135C205.357 158.668 206.343 158.052 207.272 157.346C207.854 156.766 208.436 156.188 209.018 155.609C209.599 155.03 210.181 154.451 210.763 153.871L211.827 152.421C213.202 150.456 214.289 148.266 215.192 146.031L216.628 141.893C216.778 141.395 216.92 140.897 217.055 140.397C217.328 139.279 217.6 138.16 217.873 137.044C217.963 136.634 218.05 136.226 218.136 135.818C218.659 133.28 218.949 130.704 219.197 128.127C219.652 123.439 219.776 118.737 219.809 114.03C219.83 111.217 219.806 108.403 219.75 105.592C219.716 103.962 219.693 102.331 219.669 100.701C219.638 98.9704 219.605 97.2378 219.56 95.5076C219.558 95.4697 219.572 95.4365 219.591 95.4081C219.586 95.2043 219.584 95.0004 219.581 94.7942C219.579 94.6592 219.631 94.5999 219.707 94.5881C219.693 93.3532 219.683 92.1208 219.681 90.8883C219.681 90.8077 219.719 90.7556 219.769 90.7248V90.4119C219.562 89.554 219.283 88.7126 218.92 87.9115C218.797 87.6223 218.659 87.3403 218.508 87.0653C218.321 86.653 218.076 86.2785 217.778 85.9348C217.529 85.5153 217.223 85.1432 216.868 84.8114C216.796 84.7593 216.723 84.7072 216.65 84.6551C216.577 84.6029 216.504 84.5507 216.432 84.4985C216.311 84.4345 216.133 84.3231 215.977 84.1952C215.836 84.1086 215.695 84.0214 215.555 83.9343C215.414 83.8472 215.274 83.7602 215.133 83.6737C214.969 83.5884 215.076 83.3751 215.192 83.3182V83.3111C215.166 83.2993 215.138 83.285 215.107 83.259C214.766 82.9366 214.41 82.6333 214.04 82.3489C213.974 82.3749 213.896 82.3654 213.837 82.3157C213.619 82.1118 213.396 81.9151 213.168 81.7255C212.659 81.3913 212.126 81.0856 211.569 80.8154C210.675 80.3935 209.76 80.0309 208.822 79.7228C208.64 79.6628 208.456 79.6085 208.273 79.5545L208.213 79.5367C208.103 79.5315 207.992 79.5259 207.882 79.5204C207.704 79.5115 207.526 79.5025 207.348 79.4948C196.609 79.0236 185.842 79.2215 175.128 80.0859C172.489 80.299 169.852 80.5528 167.221 80.8469C166.724 80.9024 166.207 80.9456 165.68 80.9897C163.745 81.1512 161.673 81.3243 160 82.1578C159.91 82.2029 159.824 82.2505 159.741 82.2996C159.885 83.2241 160.231 84.1298 160.568 85.0095C160.619 85.1432 160.67 85.2764 160.72 85.4089C161.303 86.958 161.826 88.5369 161.774 90.2145C161.738 91.3844 161.486 92.5092 161.124 93.6085C160.939 95.1758 160.45 96.6896 159.932 98.1769C157.38 105.494 155.991 112.986 156.134 120.754C156.138 120.962 156.09 121.143 156.007 121.298L156.012 121.329C156.057 121.658 156.102 121.988 156.155 122.316C156.368 123.625 154.642 124.276 154.047 123.408C154.007 123.448 153.951 123.475 153.9 123.48C153.748 123.494 153.499 123.245 153.428 123.131C153.336 122.961 153.239 122.795 153.134 122.636C153.12 122.629 153.108 122.624 153.097 122.619C153.128 122.684 153.159 122.749 153.191 122.814C153.224 122.882 153.257 122.949 153.289 123.015C153.393 123.224 152.992 123.326 152.874 123.134C152.767 122.965 152.66 122.804 152.554 122.65C152.492 122.695 152.424 122.707 152.378 122.633C151.997 122.003 151.556 121.463 151.073 121.003C150.312 120.382 149.48 120.005 148.535 119.785C147.79 119.678 147.027 119.673 146.29 119.759C145.444 119.858 144.553 120.069 143.788 120.455C143.164 120.884 142.539 121.313 141.913 121.742C141.759 121.903 141.612 122.072 141.475 122.247C141.041 122.809 140.693 123.408 140.406 124.046L140.406 124.047C140.394 124.087 140.382 124.127 140.37 124.165C140.195 124.7 140.081 125.25 140.031 125.814C140.028 126.171 140.025 126.527 140.022 126.883C140.019 127.239 140.016 127.595 140.012 127.952C140.107 128.879 140.344 129.779 140.707 130.635C140.877 131.14 141.145 131.59 141.508 131.988C141.702 132.325 141.923 132.631 142.169 132.915C142.669 133.247 143.214 133.529 143.795 133.752C143.937 133.79 144.079 133.827 144.224 133.856C144.97 134.143 145.743 134.297 146.541 134.318C147.551 134.387 148.539 134.299 149.506 134.055C150.103 133.948 150.682 133.775 151.241 133.536C151.777 133.266 152.281 132.941 152.753 132.562C152.805 132.529 152.883 132.548 152.969 132.59C152.987 132.577 153.005 132.564 153.023 132.551C153.109 132.488 153.195 132.426 153.279 132.358C153.326 132.325 153.369 132.365 153.39 132.408L153.419 132.386C153.606 132.258 154.12 132.659 153.888 132.896C153.988 132.958 154.087 133.031 154.177 133.107C154.59 133.124 155.421 133.882 155.265 134C155.033 134.202 154.789 134.387 154.54 134.562C154.76 134.726 155.049 134.979 154.914 135.081C154.673 135.311 154.409 135.51 154.13 135.681C153.94 135.825 153.746 135.963 153.542 136.089C153.322 136.219 153.097 136.33 152.864 136.435C153.27 137.219 153.656 138.011 154.016 138.816C154.255 139.388 154.533 139.94 154.853 140.471C155.26 141.279 155.748 142.037 156.32 142.744C156.784 143.526 157.329 144.244 157.952 144.901C158.723 145.777 159.55 146.602 160.429 147.365C160.78 147.614 161.138 147.856 161.51 148.079C162.46 148.795 163.472 149.408 164.545 149.92C164.671 149.989 164.771 150.141 164.624 150.259C164.622 150.26 164.621 150.261 164.619 150.261C164.616 150.262 164.613 150.263 164.609 150.266C164.96 150.466 165.313 150.662 165.669 150.857L165.681 150.863C165.824 150.941 166.09 151.084 165.882 151.252C165.745 151.366 165.32 151.162 165.067 151.03C165.102 151.049 165.14 151.07 165.178 151.091C165.182 151.093 165.186 151.096 165.191 151.098C165.296 151.155 165.694 151.368 165.429 151.506C165.29 151.53 165.157 151.506 165.029 151.437C164.896 151.387 164.763 151.333 164.633 151.276C164.638 151.319 164.614 151.359 164.545 151.392C164.491 151.402 164.439 151.402 164.387 151.397C164.676 151.561 164.965 151.722 165.256 151.88C165.342 151.926 165.745 152.148 165.479 152.286C165.349 152.312 165.223 152.291 165.102 152.224C164.882 152.141 164.664 152.044 164.453 151.937C164.423 151.92 164.392 151.903 164.362 151.887C164.342 151.876 164.323 151.865 164.304 151.854C164.28 151.854 164.255 151.852 164.231 151.849C164.218 151.847 164.204 151.845 164.19 151.843C164.422 151.968 164.657 152.089 164.894 152.208C165.034 152.283 165.268 152.437 165.067 152.594C164.927 152.701 164.55 152.509 164.327 152.383C164.313 152.4 164.297 152.418 164.273 152.437C164.128 152.548 163.782 152.348 163.608 152.248C163.583 152.234 163.562 152.221 163.545 152.212C162.37 151.582 161.235 150.93 160.142 150.183C159.474 149.755 158.822 149.304 158.185 148.814C156.964 147.87 155.855 146.773 154.838 145.616C154.144 144.825 153.767 144.379 153.094 143.419C152.014 141.874 151.198 140.262 150.414 138.553C150.402 138.527 150.426 138.461 150.461 138.395C150.3 137.999 150.144 137.598 149.987 137.183C149.58 137.238 149.17 137.276 148.764 137.3C147.809 137.354 146.883 137.269 145.985 137.072C144.897 136.932 143.821 136.624 142.868 136.141C142.297 135.854 141.747 135.548 141.226 135.207C140.759 134.958 140.309 134.674 139.877 134.342C138.041 132.939 137.043 130.761 136.799 128.499C136.612 127.504 136.571 126.48 136.683 125.492C136.763 124.774 136.924 124.063 137.159 123.378C137.593 121.858 138.401 120.453 139.572 119.389C139.768 119.187 139.975 118.995 140.195 118.815C140.847 118.282 141.586 117.853 142.373 117.54C142.525 117.467 142.679 117.398 142.833 117.334L142.645 116.903C142.579 116.922 142.349 116.884 142.321 116.803C142.274 116.676 142.229 116.548 142.185 116.42C142.157 116.34 142.129 116.259 142.1 116.18C142.058 116.206 142.003 116.22 141.944 116.222V116.462C141.946 116.53 141.816 116.957 141.745 116.734C141.7 116.61 141.658 116.483 141.615 116.357C141.588 116.276 141.562 116.196 141.534 116.116C141.475 116.078 141.43 116.033 141.413 115.981C141.406 115.959 141.399 115.938 141.389 115.917C141.387 115.915 141.384 115.915 141.381 115.914C141.378 115.914 141.375 115.913 141.373 115.912V115.985C141.375 116.03 141.257 116.372 141.235 116.305C140.825 115.177 140.491 114.025 140.23 112.854C140.053 112.21 139.913 111.558 139.806 110.897C139.69 110.302 139.588 109.705 139.501 109.103L139.479 108.953C139.478 108.947 139.477 108.942 139.476 108.937C139.474 108.931 139.473 108.926 139.472 108.92C139.465 108.856 139.458 108.79 139.448 108.726C139.354 108.045 139.275 107.363 139.216 106.676C139.091 105.263 139.041 103.843 139.055 102.426C139.036 102.433 139.017 102.443 138.999 102.452C138.988 102.458 138.976 102.463 138.965 102.469C138.349 102.731 137.699 102.945 137.037 103.116C135.898 104.761 134.08 105.875 131.901 105.992C131.164 106.032 130.39 105.942 129.674 105.734C129.6 105.751 129.523 105.765 129.443 105.775C129.069 105.824 128.768 105.744 128.456 105.661C128.282 105.615 128.104 105.567 127.908 105.541C127.837 105.532 127.767 105.523 127.698 105.514C126.915 105.413 126.247 105.328 125.728 104.861C125.553 104.865 125.386 104.84 125.228 104.793C123.728 105.152 122.135 104.359 121.608 102.699C120.708 102.171 119.992 101.39 119.51 100.482C118.582 99.2925 117.84 97.8337 117.38 96.3009C117.377 96.2951 117.374 96.2895 117.371 96.2837C117.366 96.2751 117.362 96.2665 117.358 96.2575C117.124 95.7513 117.013 95.2083 117.004 94.6637C116.755 93.1122 116.821 91.5588 117.293 90.1934C117.273 89.4532 117.447 88.6818 117.766 87.9819C118.152 87.1331 118.74 86.1574 119.504 85.5914C119.506 84.7216 119.88 83.764 120.37 83.1151C121.347 81.8189 122.765 81.1337 124.299 81.0346C125.079 79.0345 127.443 78.5674 129.482 79.2331C130.329 78.3676 131.57 77.9542 132.808 78.1014C133.855 78.2258 134.75 78.7266 135.491 79.4168C135.686 79.4725 135.881 79.5306 136.075 79.591C136.724 79.3064 137.48 79.2419 138.173 79.4204C139.373 79.7297 140.155 80.6388 140.697 81.6817C140.87 81.8006 141.038 81.9234 141.203 82.0516C141.384 82.1327 141.548 82.241 141.697 82.3685C141.914 82.4839 142.098 82.6738 142.21 82.9492C142.515 83.2644 142.8 83.5979 143.052 83.9555C143.24 83.5197 143.434 83.0869 143.635 82.6572C143.962 82.7556 144.357 82.6283 144.521 82.1917L144.563 82.0806C145.614 79.2908 147.486 74.3238 149.251 72.0185C147.163 73.4399 144.615 74.1891 142.083 74.1137C141.975 74.1104 141.866 74.1059 141.755 74.1C140.395 74.3346 139.012 74.3564 137.743 74.1019C136.889 73.7916 136.056 73.4219 135.249 73.0035C135.053 72.9016 134.858 72.7945 134.664 72.6864C134.604 72.6352 134.546 72.5797 134.488 72.5243C134.466 72.5025 134.443 72.4807 134.42 72.4591C134.254 72.4712 134.079 72.4582 133.893 72.4089C133.195 72.2243 132.548 71.7595 132.143 71.1622C132.068 71.0511 132.007 70.9366 131.953 70.8212C131.514 70.3912 131.133 69.9042 130.853 69.3346C130.523 68.6686 130.322 67.9197 130.301 67.1707C130.163 66.436 130.173 65.6799 130.429 64.9784C130.447 64.9306 130.466 64.8838 130.486 64.8367C130.498 64.809 130.51 64.7813 130.521 64.7532C130.527 64.7338 130.532 64.714 130.537 64.6942C130.544 64.6655 130.552 64.6367 130.561 64.6087C130.636 64.3586 130.731 64.1358 130.847 63.9249C130.89 63.708 130.96 63.493 131.059 63.2838C131.07 63.1826 131.084 63.0814 131.1 62.9806C130.347 61.5598 130.614 59.7016 131.742 58.5466C131.586 57.8001 131.744 57.0085 132.199 56.346C132.532 55.8592 132.996 55.475 133.522 55.2084C133.576 55.1806 133.721 55.133 133.895 55.0782C134.089 54.9064 134.294 54.7438 134.519 54.6007C134.572 53.2118 135.958 52.4106 137.158 51.717C137.216 51.6835 137.274 51.6502 137.331 51.6172C137.722 51.3902 138.005 51.0641 138.289 50.7378C138.587 50.3952 138.885 50.0524 139.308 49.824C140.048 49.4247 140.956 49.3328 141.809 49.2467C141.998 49.2276 142.184 49.2089 142.364 49.1871C144.717 48.9037 147.222 48.6847 149.587 48.9409C150.899 49.0831 151.986 49.7171 152.436 50.7557C153.565 50.8891 154.572 51.7039 155.368 52.542C156.362 53.5879 157.208 54.7014 157.5 56.0758C157.694 56.1808 157.871 56.3093 158.03 56.4543C158.024 57.4208 157.898 58.389 157.631 59.3013C157.71 59.8466 157.546 60.3674 157.268 60.8395C157.31 61.2865 157.28 61.7266 157.186 62.1653C157.727 63.124 157.221 64.5729 156.464 65.5235L156.458 66.0596C156.503 66.0362 156.547 66.0084 156.588 65.9736C158.765 64.1207 160.981 63.61 163.374 63.0583C164.757 62.7398 166.198 62.4075 167.725 61.7953C171.488 61.0689 175.329 60.6065 179.183 60.4527C179.161 60.4494 179.14 60.4466 179.118 60.4438C179.089 60.4399 179.06 60.4361 179.03 60.4314C177.088 60.1133 175.223 59.3143 173.618 58.1665C173.193 58.0589 172.791 57.8671 172.43 57.5465C172.08 57.235 171.838 56.8757 171.698 56.4903C171.635 56.4223 171.572 56.3538 171.51 56.2841C170.306 55.9884 169.389 54.9462 169.542 53.5763C168.78 52.6735 168.499 51.5589 168.757 50.3982C168.331 49.6784 168.294 48.7709 168.612 48.0108C167.942 47.1974 167.89 46.0427 168.415 45.1224C167.936 44.441 167.83 43.538 168.421 42.731C168.7 42.3499 169.087 42.1095 169.508 41.9934C169.627 41.5542 169.869 41.1463 170.25 40.8313C170.445 40.6695 170.65 40.5493 170.859 40.4597C170.938 40.0063 171.194 39.5764 171.687 39.2382C171.911 39.0848 172.14 38.9857 172.367 38.9307C172.582 38.3975 172.958 37.9299 173.487 37.6262C174.125 37.2601 174.868 37.2115 175.545 37.4035C176.428 36.0681 178.367 35.5505 179.711 36.541C180.83 35.8484 182.237 35.9944 183.243 36.8365C184.459 36.1177 185.97 36.4078 186.924 37.4101C188.452 36.5749 190.469 37.1918 191.287 38.7743C192.83 38.6032 194.283 39.6129 194.694 41.0743C194.761 41.1285 194.827 41.1844 194.893 41.2402L194.911 41.2549C195.835 41.2992 196.713 41.6613 197.231 42.5207C197.489 42.95 197.609 43.4543 197.591 43.9485C198.144 44.2471 198.59 44.737 198.781 45.372C198.96 45.9673 198.893 46.5563 198.657 47.0694C199.427 47.8878 199.63 49.1634 199.085 50.1913C199.31 50.5781 199.428 51.0353 199.409 51.5105C199.382 52.2142 199.056 52.7814 198.612 53.2656C199.17 54.2729 198.952 55.5651 198.045 56.2714C197.524 58.1191 196.205 59.3485 194.184 60.1026C193.169 60.4814 192.107 60.7731 191.025 60.9874C195.356 61.5702 199.616 62.5945 203.709 64.1218C203.932 64.205 204.121 64.1726 204.265 64.0756C204.304 64.0965 204.344 64.1166 204.384 64.1367C204.434 64.1623 204.485 64.188 204.535 64.2152C205.663 64.8338 206.767 65.5045 207.843 66.2227C207.843 66.1042 207.846 65.9857 207.85 65.8648C207.829 64.8895 207.932 63.9289 208.191 63.0029C207.852 62.541 207.599 62.0143 207.461 61.4716C207.116 60.1173 207.771 58.1902 208.948 57.7275C209.36 56.5837 210.298 55.7561 211.448 55.4304C211.539 55.3482 211.636 55.2683 211.744 55.1941C211.986 55.0278 212.251 54.9142 212.523 54.8483C212.664 54.2286 213.01 53.6581 213.584 53.2578C214.393 52.6925 215.35 52.6311 216.191 52.9395C216.351 52.8857 216.513 52.839 216.677 52.7984C218.031 51.6461 220.141 51.731 221.332 53.0793C222.149 52.7055 223.113 52.6889 223.95 53.1919C224.62 53.5943 225.037 54.2433 225.2 54.9555C226.467 54.9943 227.627 55.8357 227.993 57.0914C229.161 57.2237 230.117 58.138 230.32 59.289C231.065 59.3928 231.754 59.7431 232.172 60.4396C232.366 60.7617 232.471 61.1142 232.498 61.4671C232.875 61.6479 233.213 61.9217 233.468 62.2793C233.915 62.906 234.002 63.6376 233.837 64.3261C233.853 64.3573 233.869 64.3882 233.885 64.4192C233.908 64.4638 233.931 64.5085 233.952 64.5541C234.074 64.813 234.171 65.0905 234.258 65.3723C234.651 65.939 234.833 66.6318 234.797 67.3276C234.88 67.622 234.961 67.9171 235.028 68.2136C235.294 69.3773 235.393 70.6169 235.211 71.8019C235.121 72.3755 234.99 72.9396 234.805 73.487C234.786 73.5913 234.756 73.6885 234.72 73.7809C234.618 74.2123 234.488 74.6365 234.322 75.0513C233.924 75.5798 233.507 76.0942 233.068 76.5919C232.699 77.1465 232.277 77.6584 231.8 78.1277C231.457 78.4666 231.08 78.7819 230.679 79.0663C229.884 79.7036 228.995 80.2006 228.046 80.5239C227.876 80.4883 227.706 80.4606 227.535 80.4333C226.457 81.0268 224.761 81.0939 223.724 81.0899C222.582 81.0856 221.535 80.7969 220.665 80.2516C220.766 80.4523 220.866 80.6533 220.967 80.8547C220.942 80.8692 220.915 80.8822 220.893 80.8991C220.705 80.5874 220.495 80.3106 220.248 80.1115C219.91 79.8392 219.365 79.8147 219.131 80.2553C219.127 80.2629 219.123 80.2707 219.119 80.2786C218.994 80.5134 219.012 80.7388 219.107 80.9228C219.142 80.9728 219.176 81.0233 219.211 81.0735C219.214 81.0775 219.218 81.0816 219.221 81.0856C219.23 81.0961 219.239 81.1066 219.249 81.1162L219.242 81.1169C219.566 81.3773 219.884 82.0154 220.186 82.6356C220.391 82.998 220.585 83.3656 220.767 83.7396C220.874 83.8965 221.062 84.0342 221.263 84.0743C221.224 84.3729 221.362 84.6817 221.587 84.8349C221.646 84.7154 221.718 84.5931 221.811 84.467C222.83 83.0833 224.831 82.4863 226.338 83.1187C226.638 83.0679 226.94 83.026 227.245 83.0021C228.24 82.9364 229.248 83.0146 230.231 83.2206C230.536 83.4035 230.827 83.6095 231.099 83.8444C231.329 84.0435 231.542 84.252 231.741 84.4677C231.895 84.5831 232.047 84.7054 232.195 84.833C232.798 85.1569 233.24 85.7784 233.612 86.397C233.907 86.8139 234.164 87.2569 234.387 87.7261C235.42 89.4942 236.613 91.6894 235.681 93.4279ZM152.813 127.596C153.192 128.035 153.488 128.523 153.701 129.061C153.787 129.234 153.682 129.338 153.507 129.308C153.429 129.296 153.322 129.239 153.213 129.163C153.221 129.183 153.23 129.202 153.239 129.221C153.248 129.24 153.257 129.259 153.265 129.279C153.358 129.462 153.279 129.592 153.069 129.523C153.057 129.516 153.045 129.509 153.035 129.502C153.144 129.696 153.244 129.895 153.329 130.104C153.422 130.289 153.339 130.417 153.13 130.346C153.021 130.284 152.917 130.213 152.817 130.135C152.83 130.162 152.842 130.189 152.854 130.216C152.888 130.288 152.921 130.359 152.95 130.433C153.045 130.621 152.936 130.718 152.751 130.675C152.592 130.588 152.445 130.483 152.308 130.362C152.3 130.356 152.292 130.35 152.285 130.343C152.272 130.332 152.26 130.321 152.249 130.31C152.31 130.464 152.194 130.559 152.04 130.528C151.822 130.486 151.412 130.118 151.312 129.924C151.309 129.918 151.306 129.912 151.303 129.906C151.3 129.9 151.297 129.894 151.293 129.888C151.177 129.81 151.052 129.701 150.957 129.597C150.881 129.706 150.734 129.786 150.668 129.654C150.469 129.111 150.158 128.646 149.734 128.255C149.492 127.902 149.198 127.601 148.855 127.352C148.67 127.196 148.478 127.047 148.281 126.904C147.933 126.746 147.57 126.625 147.191 126.544C147.148 126.531 147.104 126.52 147.061 126.51C147.027 126.502 146.994 126.494 146.961 126.485L146.933 126.48C146.775 126.451 146.618 126.422 146.459 126.4C145.774 126.305 145.087 126.288 144.399 126.35C144.276 126.355 144.158 126.26 144.106 126.151C143.952 126.158 143.8 126.165 143.646 126.179C143.392 126.189 143.447 125.831 143.639 125.795C143.88 125.75 144.122 125.717 144.359 125.689C144.354 125.667 144.352 125.643 144.357 125.625C143.923 125.603 143.492 125.613 143.056 125.658C142.866 125.667 143.091 125.316 143.196 125.297C143.243 125.288 143.29 125.283 143.34 125.274C143.335 125.267 143.333 125.262 143.331 125.255H143.319C143.058 125.267 142.88 124.852 143.193 124.795C143.231 124.788 143.268 124.782 143.304 124.777C143.344 124.771 143.384 124.764 143.423 124.757C143.409 124.717 143.406 124.681 143.421 124.648C143.286 124.646 143.153 124.646 143.018 124.646C143.053 124.643 143.084 124.569 143.117 124.49C143.152 124.406 143.188 124.318 143.233 124.312C143.302 124.302 143.373 124.293 143.442 124.283C143.447 124.195 143.579 123.992 143.636 123.98C144.087 123.904 144.527 123.852 144.964 123.835C145.006 123.736 145.068 123.603 145.127 123.603C145.622 123.596 146.099 123.6 146.573 123.65C146.592 123.636 146.611 123.629 146.627 123.631C146.705 123.65 146.776 123.667 146.852 123.686C147.115 123.724 147.378 123.778 147.646 123.856C148.279 124.044 148.912 124.34 149.459 124.707C149.976 125.053 150.49 125.414 150.94 125.845C151.099 125.98 151.248 126.127 151.391 126.279C151.621 126.468 151.843 126.663 152.057 126.855C152.317 127.094 152.571 127.34 152.813 127.596Z" fill="black"/>
<path fill-rule="evenodd" clip-rule="evenodd" d="M185.666 136.607C189.644 133.947 209.778 134.467 211.636 136.508C213.495 138.549 217.79 144.374 208.59 147.235C199.391 150.096 188.003 149.094 185.036 145.591L184.861 145.382C182.056 141.976 181.767 139.214 185.666 136.607Z" fill="white"/>
<path fill-rule="evenodd" clip-rule="evenodd" d="M203.01 120.962C204.803 122.05 207.536 124.587 205.606 127.284C203.335 129.662 200.066 126.935 198.455 125.702C196.961 124.746 195.282 127.204 196.668 128.32C208.311 136.923 213.036 121.247 203.917 119.683C202.913 119.511 202.54 120.626 203.01 120.962ZM186.806 100.215L187.252 100.137L187.481 100.099C188.817 99.8782 190.4 99.7308 191.322 100.777C191.84 101.364 192.018 102.455 191.322 103.016C190.099 104.005 188.746 103.622 187.28 103.705C186.071 103.775 184.91 103.974 183.746 104.306C181.193 105.034 179.112 106.364 176.931 107.824C176.645 108.016 176.353 107.65 176.489 107.383C177.748 104.922 180.188 102.901 182.632 101.669C183.936 101.011 185.364 100.465 186.806 100.215ZM198.619 134.212C202.521 134.495 210.978 132.636 214.49 135.424C227.724 151.917 175.256 156.157 180.922 137.911C184.531 132.011 192.833 134.382 198.619 134.212ZM197.949 144.168C196.984 144.09 195.813 144.853 195.53 145.442C195.246 146.032 195.356 147.278 195.364 147.494C197.052 147.664 198.754 147.69 200.446 147.579C200.006 146.128 199.992 144.388 197.949 144.168ZM205.74 146.603C205.469 144.802 204.178 144.375 203.133 144.646C202.064 144.922 201.437 146.15 201.505 147.243C201.509 147.319 201.466 147.383 201.437 147.443C202.89 147.272 204.329 146.99 205.74 146.603ZM193.772 144.495C193.164 143.571 191.71 143.125 190.779 143.288C189.258 143.607 189.078 145.536 189.078 145.929C190.48 146.462 191.968 146.816 193.391 147.098C193.677 147.154 193.964 147.205 194.25 147.252L194.269 147.018C194.304 146.517 194.329 145.34 193.772 144.495ZM210.974 144.342C209.415 141.935 206.063 143.658 206.34 146.288C206.638 146.195 206.935 146.097 207.23 145.994C208.455 145.568 209.798 145.062 210.974 144.342ZM198.699 136.048C196.601 135.859 194.881 135.923 193.513 136.176L193.471 136.632C193.32 138.213 193.125 139.768 193.957 140.404C194.632 140.92 196.875 140.871 198.379 140.497C198.75 140.404 199.233 137.125 198.699 136.048ZM201.942 135.859C201.606 137.418 201.448 139.31 202.123 139.872C202.836 140.465 205.13 140.385 205.73 139.989C206.256 139.643 206.242 138.052 206.047 136.266C204.885 135.992 202.862 135.859 201.942 135.859ZM192.585 136.192L191.899 136.198L191.51 136.203C190.527 136.22 189.466 136.277 188.464 136.495C186.472 140.791 193.745 141.532 192.622 136.351L192.585 136.192ZM206.972 136.295L206.96 136.539C206.9 137.745 206.939 139.334 207.609 139.763C208.595 140.394 210.445 140.272 211.448 137.353C211.116 136.482 207.597 136.359 206.972 136.295ZM187.67 110.684C188.091 110.684 188.494 110.826 188.861 111.09C189.222 111.35 189.549 111.729 189.821 112.202C190.336 113.097 190.658 114.333 190.658 115.699C190.658 117.065 190.336 118.301 189.821 119.196C189.549 119.669 189.222 120.048 188.861 120.307C188.494 120.571 188.091 120.714 187.67 120.714C187.249 120.714 186.846 120.571 186.479 120.307C186.118 120.048 185.792 119.669 185.519 119.196C185.004 118.301 184.682 117.065 184.682 115.699C184.682 114.333 185.004 113.097 185.519 112.202C185.792 111.729 186.118 111.35 186.479 111.09C186.846 110.826 187.249 110.684 187.67 110.684ZM214.326 110.684C214.747 110.684 215.15 110.826 215.517 111.09C215.878 111.35 216.204 111.729 216.477 112.202C216.992 113.097 217.314 114.333 217.314 115.699C217.314 117.065 216.992 118.301 216.477 119.196C216.204 119.669 215.878 120.048 215.517 120.307C215.15 120.571 214.747 120.714 214.326 120.714C213.905 120.714 213.502 120.571 213.135 120.307C212.774 120.048 212.447 119.669 212.175 119.196C211.66 118.301 211.338 117.065 211.338 115.699C211.338 114.333 211.66 113.097 212.175 112.202C212.447 111.729 212.774 111.35 213.135 111.09C213.502 110.826 213.905 110.684 214.326 110.684ZM210.699 99.1128L211.041 99.1825L211.267 99.2304C214.948 100.021 219.615 101.578 221.338 105.145C221.405 105.66 221.334 105.77 221.276 105.842L221.257 105.866C221.21 105.928 221.172 106.013 220.948 106.083C220.886 106.068 220.824 106.052 220.76 106.036C219.954 105.825 219.316 105.534 218.699 105.233L218.03 104.904C217.253 104.524 216.469 104.158 215.639 103.887C213.867 103.31 212.044 102.904 210.193 102.687C209.792 102.64 209.405 102.505 209.1 102.273C208.811 102.053 208.59 101.749 208.489 101.344C208.359 100.821 208.396 100.425 208.678 99.9522C208.889 99.5975 209.192 99.3516 209.54 99.2104C209.895 99.0665 210.298 99.0326 210.699 99.1128Z" fill="black"/>
</svg>
