<svg width="391" height="780" viewBox="0 0 391 780" fill="none" xmlns="http://www.w3.org/2000/svg">
<path fill-rule="evenodd" clip-rule="evenodd" d="M124.965 390.844C124.743 391.942 124.409 393.131 124.061 394.196C125.795 395.862 128.25 398.095 130.012 399.709C128.269 388.967 133.572 379.052 136.817 368.891C135.593 367.324 131.33 365.721 131.467 363.984C131.796 357.55 132.281 350.369 132.981 342.314C135.351 317.159 137.708 290.927 132.116 265.695C131.734 262.953 131.154 260.069 127.468 260.005C116.582 303.245 125.403 346.78 125.163 390.292L125.48 390.575L124.965 390.844ZM108.663 745.121C99.7183 745.124 91.4955 743.502 83.5348 740.216C81.2376 739.41 78.3839 738.408 77.9859 736.785C77.3313 732.344 77.7845 727.978 78.264 723.357C79.0223 715.43 78.9467 709.268 81.0903 700.732C83.3845 692.805 85.3397 686.61 83.1009 678.413C82.9214 675.973 84.8336 673.49 86.0968 671.208C87.8851 667.877 88.7926 664.409 90.213 660.993C87.4225 660.506 84.5249 659.839 81.8458 659.012L81.396 660.628C81.2972 660.983 81.0248 661.163 80.5868 661.163C80.3159 661.163 79.6226 661.033 79.5215 660.455C79.9418 654.213 80.5508 648.003 81.1903 641.662C87.831 580.577 97.8865 530.222 114.773 480.001C118.829 468.239 122.972 455.995 123.001 443.216C120.695 442.723 118.128 442.439 115.777 442.764C99.0322 438.891 102.342 403.541 103.008 392.961C101.827 392.607 100.506 392.107 99.5259 391.436L99.1296 391.629C82.502 350.446 89.3303 282.355 93.1337 236.58C95.6292 220.126 92.1191 190.404 106.738 182.273C118.541 178.102 130.292 175.757 142.626 173.006C144.91 171.698 147.729 170.951 150.278 170.104L148.961 168.257C147.234 165.829 147.464 161.066 149.723 159.393C151.111 159.47 153.062 160.861 154.388 161.515C156.296 157.577 158.063 153.458 159.331 148.727L159.786 148.889C161.12 135.506 178.508 133.171 188.313 137.643C199.015 143.506 193.441 156.77 198.307 166.344L200.07 163.998C202.794 163.948 208.555 167.511 209.942 168.849C210.935 169.311 210.217 172.42 210.361 173.671C224.719 176.915 244.371 177.805 248.935 193.888C256.528 224.128 255.46 255.131 264.075 285.264C273.094 309.69 286.34 339.579 286.451 361.948C286.708 366.141 287.274 389.852 283.796 388.899L281.501 391.184C284.628 396.165 282.146 403.619 280.948 409.516C277.997 422.028 272.23 435.51 259.913 429.514C246.665 502.516 213.368 576.158 224.727 651.454C224.863 651.894 224.587 652.377 224.114 652.185L223.555 651.928C222.11 652.373 220.277 652.529 218.768 652.866C220.052 657.668 220.741 662.407 221.407 667.718C222.215 668.199 221.838 669.471 221.879 670.24C233.932 669.664 240.692 682.26 249.336 689.187C255.044 694.268 261.543 699.106 268.656 703.567C274.534 706.9 279.494 710.716 278.601 717.011C278.686 717.001 280.499 716.721 280.588 716.713C283.322 725.792 274.345 727.67 265.099 728.764C242.504 731.031 223.19 726.021 197.031 716.527C193.823 716.907 191.323 712.147 190.896 708.919C190.473 706.756 191.674 704.556 190.758 702.229C187.603 695.54 185.961 677.833 190.409 669.889C191.97 668.089 193.972 666.427 193.712 663.32C193.639 660.207 193.346 657.096 193.61 654.038C188.265 653.522 182.973 652.373 178.31 650.509C177.484 650.826 176.547 650.436 176.489 649.404C175.594 635.171 174.523 619.617 174.291 605.046C173.217 573.334 180.484 542.39 186.045 511.634C186.431 501.767 188.256 492.236 188.831 482.364C189.45 473.003 189.56 463.838 190.098 454.49L186.889 453.795C160.243 522.349 139.377 590.96 124.772 658.095C125.103 658.377 126.042 658.694 126.002 659.267C125.991 659.572 125.998 659.592 125.789 659.623C122.26 660.331 118.769 660.85 115.272 661.254C116.258 669.631 110.999 679.314 115.653 687.16C116.889 689.051 116.942 689.447 116.185 690.747C122.966 703.342 127.168 713.823 129.892 725.082L131.646 723.601C134.19 725.445 134.243 728.929 134.299 732.61C134.118 734.755 135.167 737.002 133.56 738.807C129.69 743.32 116.205 745.096 108.663 745.121Z" fill="#D08B5B"/>
<path fill-rule="evenodd" clip-rule="evenodd" d="M117.558 688.04C117.697 688.615 115.254 688.876 115.396 689.394C116.875 694.339 121.062 696.389 122.955 701.153L123.841 703.386C126.232 709.419 128.549 715.479 129.982 721.878L130.221 722.945C130.221 722.945 134.844 727.369 134.972 730.429C134.972 730.429 135.464 738.217 133.974 739.341C123.111 746.73 108.421 746.518 95.8645 744.577C90.8588 743.666 85.9721 742.144 81.3322 740.061C79.5784 739.468 78.2666 738.84 77.4642 737.808C76.7828 736.933 76.5009 735.769 76.6115 734.153C76.323 731.411 76.5347 728.792 76.7761 726.178L76.8894 724.956C77.0919 722.75 77.2669 720.54 77.1575 718.316C77.4955 709.693 80.234 701.131 82.1717 692.714L84.2534 689.394C84.2534 689.394 87.6112 684.471 91.9088 684.485C91.9088 684.485 99.271 680.693 104.971 681.404C110.67 682.115 117.558 688.04 117.558 688.04ZM194.288 667.837C196.716 675.986 200.331 680.061 205.133 680.061C212.335 680.061 213.29 670.575 218.936 670.575C218.936 670.575 223.513 670.343 228.42 669.961C233.29 671.699 237.305 675.65 241.157 679.694L243.23 681.88C245.38 684.143 247.516 686.336 249.745 688.124C255.715 693.44 262.176 698.17 268.947 702.416L269.481 702.731C272.111 704.291 274.989 706.128 276.974 708.514C278.417 710.249 279.38 712.282 279.355 714.724L279.346 715.562C279.346 715.562 281.633 717.739 281.655 718.661L281.663 718.972C281.669 719.221 280.438 724.501 278.448 725.818C275.65 727.669 265.356 729.3 264.998 729.357C242.183 731.798 219.087 725.72 197.937 717.415L197.116 717.092C197.059 717.102 197 717.111 196.941 717.119C195.242 717.343 193.78 716.439 192.624 715.131C191.027 713.325 189.987 710.713 189.738 708.686C189.549 707.833 190.049 703.416 189.7 702.331C186.758 695.657 186.372 688.398 186.793 681.286C186.683 672.922 188.506 670.263 190.102 668.33L190.513 667.837L194.288 667.837Z" fill="white"/>
<path fill-rule="evenodd" clip-rule="evenodd" d="M149.892 158.127L149.958 158.137L191.422 181.981L202.042 166.221L205.009 164.283L205.288 164.425C207.281 165.451 209.155 166.727 210.142 167.628C210.686 167.988 210.935 168.346 211.065 168.75C211.235 169.281 211.228 169.872 211.192 170.472L211.161 170.953C211.139 171.297 211.116 171.641 211.112 171.976C211.11 172.173 211.113 172.372 211.12 172.572L211.689 172.683C212.302 172.802 212.921 172.92 213.546 173.037L217.348 173.745C225.87 175.342 234.88 177.232 241.439 181.865C246.371 185.348 249.886 190.403 250.708 198.087C253.314 209.192 254.697 220.412 255.979 231.637L256.235 233.862L256.922 239.844C258.86 256.609 261.024 273.408 266.241 289.515L266.709 290.658C266.942 291.224 267.172 291.783 267.401 292.34L268.866 295.895C276.913 315.445 284.832 335.293 286.764 356.526C287.856 367.096 287.689 377.775 285.877 388.252C285.771 388.817 285.323 389.213 284.812 389.421C284.251 389.649 283.577 389.67 283.074 389.353L282.092 390.335C285.387 395.509 283.112 404.294 281.147 411.104L280.351 413.845C280.16 414.506 279.98 415.137 279.818 415.731C278.26 420.888 275.739 426.503 271.779 429.482C270.281 430.61 268.573 431.35 266.629 431.515C264.844 431.666 262.864 431.333 260.671 430.398C260.396 430.28 260.13 430.159 259.873 430.036L259.693 430.908C259.439 432.143 259.183 433.376 258.925 434.609L238.067 407.153L215.956 386.509L187.895 403.132L133.231 365.8L132.96 366.951L132.739 366.807C131.967 366.299 131.224 365.763 130.746 365.084C130.382 364.569 130.194 363.962 130.32 363.135C130.663 356.952 131.085 350.771 131.591 344.599L132.328 336.459C134.293 314.584 135.937 292.507 132.006 270.768C131.852 269.89 131.678 269.02 131.499 268.151L131.392 267.63C131.247 266.929 131.103 266.228 130.968 265.525L130.942 265.375L130.853 264.821C130.728 264.069 130.529 263.047 130.173 262.276C129.806 261.48 129.268 260.97 128.624 260.858C128.396 260.819 128.165 260.83 127.933 260.889L127.85 261.222C127.837 261.278 127.823 261.335 127.809 261.391C120.876 289.888 122.529 318.954 124.275 347.971L124.515 351.961C125.259 364.406 125.947 376.836 125.901 389.202L125.899 389.597C125.983 389.623 126.063 389.667 126.135 389.732C126.21 389.799 126.262 389.878 126.296 389.962C123.045 392.506 118.813 393.949 113.598 394.29L113.129 394.319C108.244 394.61 104.456 394.374 101.765 393.611L101.792 393.264C101.615 393.215 101.44 393.161 101.264 393.103C100.675 392.906 100.11 392.664 99.5974 392.36L99.1763 392.11L98.7918 392.413C98.6057 392.421 98.4966 392.311 98.3754 392.182C97.8793 391.657 97.3888 390.701 96.9005 389.528L96.797 389.276C95.1451 385.193 93.6775 378.812 93.1977 376.71L93.1349 376.435C84.17 335.887 87.228 294.113 90.5809 252.987L90.8925 249.173C91.14 246.146 91.3872 243.124 91.6296 240.106C92.3487 234.726 92.64 229.223 92.9158 223.705L93.0523 220.984C93.6137 209.973 94.3798 198.97 98.7317 188.854C101.7 181.308 109.851 179.324 117.047 177.715L118.548 177.379C121.76 176.424 124.987 175.651 128.214 174.908L131.886 174.067C137.235 172.837 142.553 171.539 147.653 169.533C147.959 169.412 148.263 169.29 148.567 169.165C148.35 168.943 148.15 168.707 147.97 168.457C146.978 167.078 146.589 165.273 146.691 163.483C146.797 161.625 147.432 159.773 148.521 158.401C148.91 158.115 149.361 158.062 149.823 158.118L149.892 158.127Z" fill="#9DDADB"/>
<path fill-rule="evenodd" clip-rule="evenodd" d="M158.222 146.71C160.072 148.205 158.142 158.991 156.652 161.192C166.732 167.671 176.918 174.001 187.316 179.935L188.392 180.548L188.359 180.538C188.791 180.732 189.522 180.903 189.95 180.818L190.244 180.721C190.305 180.702 190.34 180.693 190.323 180.707C190.497 180.614 190.665 180.517 190.829 180.406C193.794 177.706 195.954 173.131 198.277 169.572C194.322 166.09 196.293 159.304 196.453 154.669C197.2 154.65 197.288 157.018 197.502 157.705L197.623 158.36C197.908 159.894 198.233 161.457 198.821 162.884C200.531 160.721 209.189 165.831 210.811 167.475C212.578 168.599 212.036 170.599 212.013 172.357C228.444 175.548 249.397 177.793 251.605 198.383C254.203 209.428 255.591 220.67 256.875 231.927L257.084 233.724C259.328 253.094 261.32 272.704 267.657 291.251L270.077 297.015C275.316 309.516 280.426 322.119 283.77 335.273C286.364 340.886 293.269 394.458 282.882 390.325C286.434 396.11 283.775 403.722 282.542 409.907C279.987 420.058 274.886 436.647 261.161 431.755C250.813 486.97 230.315 540.166 225.132 596.342C223.449 614.6 223.485 633.078 226.343 651.224C226.729 652.948 225.078 654.471 223.391 653.715C222.544 653.957 221.648 654.029 220.779 654.193C221.779 658.211 222.365 662.406 222.898 666.513L222.957 666.969L222.959 666.971C223.374 667.431 223.578 668.014 223.56 668.672C229.83 668.695 235.076 672.736 239.253 677.029C246.497 684.598 254.146 691.813 262.815 697.753C269.02 702.789 279.906 705.741 280.256 715.103C283.423 714.568 282.665 721.478 282.103 723.303C281.445 725.349 279.534 726.527 277.7 727.438C251.333 736.26 222.291 727.668 197.222 718.196C192.829 718.776 189.689 712.971 189.219 709.144C188.741 707.032 189.865 704.979 189.209 702.92L188.993 702.355C188.204 700.286 187.459 698.263 187.009 696.071L186.944 695.614C185.875 688.041 185.014 675.216 189.078 668.881C193.819 664.824 191.365 660.937 191.841 655.533C187.16 655 182.531 653.942 178.152 652.259C176.425 652.627 174.919 651.23 174.805 649.559L174.636 646.885C173.752 632.97 172.832 619.041 172.602 605.097C171.521 573.459 178.702 542.497 184.357 511.594C184.913 499.681 187.191 487.917 187.511 475.974C187.751 468.778 188.05 461.601 188.411 454.418C162.767 520.388 141.72 588.199 126.614 657.353C128.004 658.294 128.156 660.861 126.087 661.273C123.061 661.875 120.014 662.368 116.956 662.74C117.445 670.166 113.02 680.21 117.119 686.505L117.283 686.757C118.061 687.963 118.822 689.341 118.027 690.743C123.354 700.724 127.972 711.139 130.813 722.133C134.059 720.803 135.909 727.389 135.813 729.769C135.604 732.888 137.288 738.146 134.594 740.279C120.442 749.385 101.231 747.973 85.8062 742.93C82.9452 741.706 79.6664 740.872 77.2141 738.915C76.1026 737.789 76.1786 735.938 76.0882 734.476L76.0605 733.719C75.915 729.51 75.9292 725.221 77.0835 721.076C76.7747 715.069 77.6724 708.983 78.8551 703.108C79.6125 698.365 81.7934 693.859 82.0869 689.072C83.6351 684.789 80.8429 680.784 81.5934 676.503C82.2058 673.894 84.1255 671.641 85.2369 669.211L85.3149 669.037C86.3206 666.828 87.0412 664.539 87.913 662.273C86.2434 661.956 84.5953 661.564 82.9708 661.095C82.1938 663.906 77.6962 663.112 77.8292 660.247C81.5231 614.036 88.8637 568.082 100.226 523.125C105.527 496.536 119.217 471.745 121.28 444.61C119.638 444.303 117.767 444.224 116.157 444.409L115.965 444.433C114.937 444.56 113.949 444.741 112.846 444.222C98.699 435.5 100.153 408.775 101.227 394.149C100.588 393.935 99.9775 393.672 99.4217 393.343C98.9301 393.708 98.1844 393.729 97.897 393.056C97.1727 391.357 96.2417 389.698 95.6119 387.97C79.2197 331.707 89.687 272.417 92.9874 215.063C94.2734 203.281 94.2832 187.283 106.01 180.79C109.945 178.929 114.386 178.13 118.58 177.057C128.205 174.192 138.258 172.908 147.58 169.243C145.411 166.235 145.927 161.849 147.734 158.824C149.167 156.646 151.919 158.312 153.619 159.238C155.582 155.234 156.929 150.965 158.222 146.71ZM131.406 724.702L131.493 725.105C131.952 727.26 132.349 729.525 132.118 731.717C138.215 737.65 110.121 738.401 107.02 738.387C99.9263 738.314 79.069 735.954 78.0374 727.418L78.0492 727.622C78.1872 730.338 77.726 735.408 79.2058 737.415C90.3901 743.223 103.404 745.52 115.922 744.089L116.372 744.03C121.362 743.345 130.84 741.33 133.302 737.178C132.757 733.312 134.094 727.774 131.406 724.702ZM111.176 686.353C104.329 678.914 93.0826 684.352 85.8624 688.501C85.5898 691.759 83.3018 692.957 83.2092 696.374C81.6707 706.812 78.126 718.612 82.6421 728.691C96.1049 735.884 112.115 735.397 126.68 732.3C127.061 731.805 127.543 731.656 128.23 731.468C128.664 728.41 127.788 725.336 127.209 722.367C125.753 716.128 123.869 710.001 122.194 703.819C119.191 701.883 118.094 697.817 116.527 694.751C116.102 693.891 115.667 693.03 115.211 692.177C112.767 691.377 112.127 688.464 111.176 686.353ZM191.441 706.874C190.704 714.376 198.036 717.367 203.963 719.168C210.634 721.535 217.469 723.5 224.342 725.199C238.423 728.82 253.102 730.406 267.535 728.136L267.786 728.092C271.95 727.36 279.41 726.481 280.357 721.668L280.367 721.558C280.431 720.77 280.554 717.801 280.257 717.041C280.148 717.039 280.041 717.016 279.939 716.966C278.732 720.817 274.336 723.159 270.099 723.763C268.101 725.766 264.42 725.023 261.756 725.138C244.174 724.964 227.271 719.531 210.61 714.48C205.309 712.641 194.742 711.323 191.441 706.874ZM192.949 668.255C189.897 667.182 189.318 675.714 188.928 677.798C187.945 686.607 187.967 700.344 195.112 706.592C202.567 709.779 210.613 711.242 218.303 713.749L220.123 714.283C234.699 718.543 249.678 722.526 264.977 721.898C266.132 719.593 273.457 721.509 276.251 717.402C279.998 710.881 270.536 706.68 266.058 703.902C257.458 698.392 249.426 691.985 242.183 684.789C238.777 681.407 235.661 677.534 231.662 674.816L231.454 674.676C228.027 672.408 223.629 671.002 219.605 672.491C215.686 673.939 214.247 678.407 210.96 680.715C203.636 685.454 196.135 677.964 193.756 671.186L193.685 670.981C193.6 670.77 193.832 670.642 194.008 670.699C193.991 670.633 193.98 670.564 193.965 670.497C193.042 670.256 192.954 669.108 192.949 668.255ZM88.7768 662.432C89.7336 667.83 87.0379 672.673 85.0263 677.449C84.4848 680.614 86.475 683.649 86.0148 686.87C92.5994 681.71 102.565 677.135 110.509 681.848C110.552 677.297 112.121 672.88 113.485 668.578L114.039 666.87C114.47 665.544 114.909 664.224 115.395 662.92C106.549 663.842 97.5926 663.934 88.7768 662.432ZM218.343 654.563C210.6 655.629 202.773 656.242 194.978 655.812L195.864 669.23C195.9 669.779 195.667 670.161 195.323 670.379C196.472 674.738 200.09 678.618 204.575 679.561C211.503 680.455 212.435 671.285 218.319 669.59C217.192 667.064 217.999 663.743 217.889 660.993C217.951 658.83 218.062 656.687 218.343 654.563ZM192.847 666.705C192.697 667.013 192.522 667.3 192.329 667.577C192.533 667.596 192.731 667.658 192.916 667.769C192.894 667.416 192.871 667.06 192.847 666.705ZM123.12 393.331C116.344 395.675 108.95 396.154 101.97 394.374C103.501 405.829 105.039 432.963 114.794 439.579C116.442 439.342 118.097 439.226 119.762 439.392C120.753 439.49 121.732 439.65 122.714 439.801C123.083 439.853 123.818 439.891 124.287 439.858L124.367 439.851C124.243 439.86 124.146 439.859 124.276 439.85L124.476 439.839L124.579 439.832C127.961 439.528 131.014 434.759 134.361 437.048C134.852 436.305 135.595 435.829 136.166 435.168C138.706 430.727 136.007 425.012 137.705 420.331C137.063 419.457 137.275 418.146 138.282 417.397C139.851 415.958 143.168 417.03 144.072 414.963C144.01 415.075 144.005 414.945 144.029 414.878L144.035 414.864L143.876 414.732C136.943 409.002 130.24 402.599 125.697 394.649L125.545 394.381C124.676 395.223 123.248 394.58 123.12 393.331ZM281.411 389.444C276.637 392.051 271.498 393.94 266.166 395.032C265.071 405.5 263.812 415.972 262.096 426.353L262.502 426.426C264.883 426.861 267.391 427.447 269.448 425.808C276.22 419.238 278.661 406.023 281.32 397.099L281.425 396.693C281.984 394.504 282.625 391.476 281.411 389.444ZM211.998 173.09C211.287 176.643 215.21 215.327 208.056 208.71C203.215 201.119 197.676 194.016 192.726 186.504C192.044 189.19 194.04 192.381 193.097 194.657C205.695 257.68 214.834 321.674 218.221 385.875C223.789 389.778 228.671 394.511 233.458 399.306C234.949 400.573 236.032 402.643 237.885 403.371C245.405 394.882 254.091 387.523 261.997 379.404C261.923 378.847 261.84 378.293 261.745 377.738C261.351 375.432 264.322 374.264 265.469 375.678C267.867 369.601 268.091 362.456 267.497 355.935C266.331 344.974 262.235 334.501 259.308 323.937C250.873 291.621 245.035 257.719 247.798 224.265C247.838 223.954 248.251 223.95 248.288 224.265C250.58 259.608 254.152 295.05 264.797 329.021L265.05 329.86C269.209 343.591 274.354 358.146 270.794 372.545C271.089 374.484 270.157 376.416 268.749 377.809C268.122 379.324 267.424 380.824 266.595 382.237C266.881 385.516 266.742 388.802 266.452 392.065C271.924 390.897 277.028 388.66 281.908 385.965C282.198 384.32 282.452 382.67 282.649 381.014C286.437 350.29 274.883 320.412 263.322 292.521C252.307 260.018 254.458 224.745 245.252 191.865C239.428 179.044 223.519 178.036 211.998 173.09ZM149.558 170.707L149.179 170.84C146.527 171.772 143.868 172.853 141.032 172.933C132.133 175.889 123.009 178.159 113.962 180.626L113.087 180.865C109.225 181.925 105.326 183.136 102.721 186.374C100.222 189.478 99.1772 193.477 98.3608 197.295C94.5348 230.659 92.367 264.36 90.4232 297.923C89.4701 325.868 90.0133 354.28 97.1681 381.473C98.1781 385.199 99.4071 388.937 99.8422 392.764C100.362 392.771 100.885 392.807 101.41 392.859C101.417 392.609 101.798 392.65 101.771 392.895C108.723 393.99 115.949 393.342 122.473 390.65C120.861 341.696 110.387 288.564 134.112 243.149C134.209 242.977 134.504 243.095 134.437 243.287L133.852 244.971C131.971 250.399 130.132 255.835 128.809 261.432C130.694 261.153 132.07 265.561 132.426 266.642C142.709 297.808 136.376 331.064 135.067 363.072C152.771 375.922 170.649 388.562 189.048 400.405C197.405 394.985 204.89 387.875 213.476 382.959C211.022 316.834 197.506 251.409 190.159 186.101C187.434 189.482 184.659 192.823 181.888 196.165C178.323 200.533 174.877 205.015 171.362 209.425C170.635 210.34 169.051 209.985 168.534 209.063C161.611 196.575 157.209 182.782 149.558 170.707ZM128.689 261.931C118.476 303.903 126.962 347.127 126.801 389.577C127.561 390.248 127.279 391.52 126.393 391.98C126.262 392.565 126.108 393.146 125.927 393.727C126.64 394.402 127.357 395.073 128.081 395.737C127.53 386.496 132.19 378.101 134.89 369.424C132.949 367.696 129.312 366.624 129.796 363.468C130.171 356.604 130.651 349.745 131.232 342.898L131.592 339.064C133.855 314.762 135.778 290.064 130.456 266.031L130.424 265.848C130.251 264.797 129.919 262.144 128.689 261.931ZM281.868 389.195L281.785 389.24L281.971 389.396C281.933 389.333 281.899 389.264 281.868 389.195ZM220.777 374.894C218.409 372.579 222.064 368.907 224.401 371.277C226.766 373.597 223.109 377.269 220.777 374.894ZM219.217 347.356C218.694 345.987 220.149 343.814 221.687 344.725L221.735 344.754L221.756 344.725C223.212 345.583 222.675 347.361 221.82 348.42C220.873 349.394 219.693 348.238 219.217 347.356ZM216.994 315.651C212.876 310.267 221.527 308.059 220.11 314.687C219.807 315.926 217.317 317.734 216.994 315.651ZM210.902 285.653C208.717 282.987 213.416 280.692 214.398 283.875C214.961 285.998 212.307 287.307 210.902 285.653ZM232.769 219.52C234.063 219.72 240.605 218.386 238.922 221.105C241.554 234.233 248.957 250.249 238.388 261.72L238.293 261.812C236.734 263.367 234.242 267.061 231.856 265.538C226.561 261.08 219.739 257.895 215.693 252.19C213.992 247.714 215.44 242.712 214.99 238.03C214.798 232.107 213.81 226.239 213.598 220.326C213.589 220.039 213.9 219.946 214.095 220.067C220.304 219.575 226.546 219.684 232.769 219.52ZM214.307 220.481C217.116 229.608 217.18 239.366 217.105 248.825C217.148 249.801 217.321 250.75 217.831 251.495C221.847 256.221 227.568 259.182 232.335 263.108C234.265 261.849 235.793 260.241 237.161 258.417C245.537 247.477 237.947 233.707 237.956 221.525L236.883 221.527C229.364 221.537 221.774 221.438 214.307 220.481ZM207.986 254.376L208.059 254.377C210.94 254.384 210.279 259.257 207.56 258.589C205.268 258.047 205.618 254.406 207.986 254.376ZM202.336 229.505C200.34 226.11 206.926 224.797 206.233 228.718L206.248 228.557C206.251 228.526 206.254 228.499 206.257 228.474L206.207 228.841C205.967 230.575 202.537 231.818 202.336 229.505ZM197.912 201.391C199.743 200.907 201.093 203.474 199.523 204.623C197.188 206.381 195.179 202.002 197.912 201.391ZM153.03 161.628L152.807 161.422C150.418 159.232 148.627 158.137 148.097 162.599C147.728 164.775 148.045 167.52 150.135 168.807C160.141 178.681 163.934 192.779 170.381 204.925C176.203 197.887 181.621 190.561 187.252 183.381C179.495 178.663 171.661 173.981 164.009 169.058C160.352 166.631 156.417 164.422 153.03 161.628ZM203.401 167.449C200.392 172.352 197.613 177.655 193.776 181.994C193.286 182.484 192.778 182.873 192.253 183.169C193.005 182.953 193.998 183.514 193.904 184.336C199.49 189.893 204.056 196.359 208.419 202.901C209.254 192.079 207.664 181.212 208.279 170.373C206.861 169.072 205.173 168.181 203.401 167.449Z" fill="black"/>
<path fill-rule="evenodd" clip-rule="evenodd" d="M226.683 76.7546C226.603 73.9204 222.481 72.7437 221.29 75.5506C221.216 75.6257 221.136 75.698 221.061 75.7627C221.433 75.443 220.654 75.972 220.527 76.0374C220.419 76.0934 220.308 76.1438 220.197 76.196C219.431 69.016 216.831 61.2757 210.112 57.6718C200.74 53.1268 189.912 52.2397 179.63 52.6912C174.422 53.0003 168.408 53.8331 163.78 51.1981C162.339 50.3771 161.183 49.0846 159.554 48.5772C154.41 47.1857 152.077 52.4677 152.778 56.8114C150.584 56.8287 148.408 58.0434 147.461 60.0433C146.905 61.2269 146.915 62.5041 146.435 63.692C144.964 66.7044 142.86 68.8698 144.05 72.5221C141.957 74.9038 143.15 78.5094 144.839 80.7897C145.673 81.9757 146.666 83.1143 147.277 84.4418C147.87 85.7129 146.975 87.2203 146.477 88.4252C142.794 97.1588 143.004 106.777 144.986 115.887C141.009 117.612 139.816 123.007 142.409 126.403C143.301 127.604 144.39 128.05 145.624 128.788C147.186 129.648 145.91 133.092 146.411 134.756C147.09 138.816 150.787 141.317 154.443 138.68C156.763 138.329 158.634 145.079 160.318 146.773C161.356 148.138 162.508 149.364 163.761 150.495C167.493 160.1 186.62 164.971 196.076 164.415C205.979 163.378 212.659 154.967 218.222 147.503C221.078 143.526 222.936 139.074 223.612 134.219C224.29 129.339 223.993 124.451 223.534 119.565C222.571 109.185 221.05 94.231 220.068 83.7388C223.616 83.4466 226.79 80.4254 226.683 76.7546Z" fill="#D08B5B"/>
<path fill-rule="evenodd" clip-rule="evenodd" d="M155.943 49.9586C156.632 49.2786 157.761 49.9763 158.508 50.5227L158.673 50.6453L159.147 51.0052C160.22 51.8327 161.224 52.7319 162.384 53.4476C163.649 54.2293 165.023 54.8507 166.419 55.3603C169.125 56.3484 172.036 56.7918 174.906 56.9319C186.645 57.505 200.309 51.3363 210.963 58.7026C213.489 60.4487 215.232 63.0017 216.131 65.9217C217.146 69.2145 216.798 72.6246 217.628 75.9287C217.988 77.3629 220.47 77.5619 220.747 75.9858L220.765 75.8637L220.982 75.7275L221.068 75.6763C221.156 75.6256 221.197 75.6111 221.12 75.6824L221.103 75.6976L221.137 75.6684C221.163 75.6453 221.189 75.6216 221.214 75.5973L221.29 75.5233C221.819 74.2766 222.926 73.8158 224.001 73.937L223.97 74.0112L223.651 74.8355L223.549 75.0943C223.172 76.0386 222.758 76.9325 222.043 77.7417C221.03 78.8867 219.771 79.8198 218.352 80.3943C218.06 80.5123 218.104 80.9079 218.426 80.9399C221.595 81.2554 225.166 79.3297 226.656 76.411C226.671 76.5139 226.68 76.6194 226.683 76.7273C226.693 77.0829 226.673 77.4324 226.624 77.7738C226.448 77.8395 226.277 77.9368 226.118 78.0686C225.089 78.9239 224.583 80.3221 223.616 81.2765C222.601 82.2767 221.356 83.2041 220.005 83.6687C219.983 83.676 219.966 83.6867 219.95 83.6985C219.848 83.3117 219.74 82.927 219.617 82.5483C219.569 82.3995 219.37 82.4367 219.356 82.5839C219.328 82.8466 215.61 80.2013 212.746 80.6287C207.363 81.4321 206.12 84.5755 198.385 84.1113C194.61 83.8848 186.637 80.348 179.663 80.0821C173.336 79.8409 162.028 83.4523 159.045 85.5334C157.494 86.6152 161.873 90.1876 161.08 91.8117C158.83 96.4189 159.742 102.514 157.389 106.157L157.298 106.294C155.791 108.508 156.732 114.4 156.145 116.216C155.085 119.495 153.331 118.059 153.596 118.499C153.68 118.637 153.904 118.547 153.86 118.387C153.136 115.757 151.157 113.77 148.64 113.046C148.749 112.422 148.551 111.639 148.163 111.128L148.004 110.388L147.858 109.695C147.521 108.079 147.219 106.464 147.057 104.803C146.813 102.313 146.805 99.8049 146.965 97.3087C147.175 94.0288 147.85 90.8689 148.593 87.7111L148.673 87.3727L149.257 84.9173C150.717 85.3326 152.214 85.595 153.67 85.7251C155.365 85.8763 157.043 85.8623 158.708 85.7284C160.184 89.7374 160.128 94.3025 158.304 98.2179C156.171 102.798 150.941 107.173 152.377 112.727C153.003 115.149 156.665 114.654 156.751 112.21L156.753 112.135C156.767 109.719 157.588 107.73 158.673 105.654L158.822 105.37L159.07 104.907C160.368 102.478 161.468 100.082 161.833 97.3187C162.364 93.3049 161.533 89.1603 159.545 85.6511C166.625 84.9126 173.477 82.1095 180.39 80.6035L180.707 80.5357L181.026 80.4702C186.133 79.4402 191.762 79.3186 196.392 82.0076C196.48 82.0588 196.55 81.9305 196.47 81.8732C189.75 77.0261 181.047 77.7141 173.341 79.4223L172.897 79.5218L172.461 79.6216C165.334 81.2679 157.867 83.6859 150.581 81.5558C148.688 81.0022 146.85 80.0928 145.367 78.7757L145.243 78.6648C144.616 78.0989 143.901 77.3665 143.78 76.5075C143.738 76.2051 143.751 75.9979 143.929 75.7586C144.115 75.5092 144.44 75.5104 144.253 75.4203C146.435 76.4722 148.306 73.4497 146.256 72.1402L146.111 72.0508C143.489 70.3893 144.799 66.6079 147.808 66.6256L147.961 66.6283C149.665 66.6334 150.187 64.6208 149.271 63.4427L149.183 63.3327C147.487 61.1486 150.342 58.514 152.562 59.7488L152.684 59.8187C153.738 60.4017 154.847 59.7526 155.245 58.723C156.101 56.5137 155.663 54.2327 155.613 51.9462L155.61 51.7971L155.606 51.5483L155.606 51.3519L155.608 51.2217C155.619 50.7398 155.681 50.2171 155.943 49.9586ZM220.03 84.013L220.051 84.0178L220.097 84.0198L220.138 84.4648L220.085 84.2387L220.03 84.013ZM147.227 84.3086L147.176 84.2042L147.342 84.271L147.262 84.3829L147.227 84.3086ZM193.714 71.5954C193.538 71.5451 193.41 71.8198 193.586 71.8999C197.945 73.8941 201.252 77.0767 203.832 81.0646C204.077 81.4422 204.446 81.5529 204.871 81.487C205.079 81.4546 205.196 81.3535 205.308 81.2147L205.335 81.1793L205.42 81.0646C205.604 80.812 205.58 80.3917 205.42 80.1365C202.8 75.9525 198.416 72.9383 193.714 71.5954ZM204.091 70.2892C203.899 70.2898 203.797 70.5832 203.944 70.7079C205.195 71.7735 206.418 72.9545 207.307 74.3486C207.739 75.0253 208.099 75.7467 208.36 76.5066C208.645 77.3357 208.737 78.1951 209.144 78.9791C209.825 80.2931 211.65 79.5591 211.742 78.2752C211.88 76.3386 210.263 74.1609 208.981 72.8412C207.681 71.502 206.086 70.5783 204.245 70.3085L204.116 70.2908L204.091 70.2892ZM156.039 68.7731C155.505 68.638 155.068 69.3202 155.488 69.7202C157.796 71.9189 160.915 72.9387 164.02 73.384L164.178 73.4062C167.086 73.8048 171.314 74.031 173.507 71.6658C173.971 71.165 173.826 70.2051 173.081 70.0504C172.06 69.8383 171.013 69.9165 169.978 70.044L169.682 70.0816L168.948 70.1791C167.498 70.3684 166.043 70.4839 164.579 70.441C161.649 70.3547 158.858 69.4868 156.039 68.7731ZM206.823 61.777C206.516 61.6583 206.191 62.0806 206.384 62.3482C207.268 63.5745 208.328 64.647 209.233 65.8545C210.142 67.0659 210.901 68.3389 211.976 69.4165C212.552 69.9948 213.535 69.4066 213.331 68.6275C212.559 65.6784 209.624 62.8597 206.823 61.777ZM160.816 63.108C160.493 62.9938 160.267 63.4408 160.491 63.6653C163.467 66.6364 168.821 68.1926 172.762 66.4764C173.649 66.0901 173.106 64.8486 172.308 64.7996C170.335 64.678 168.355 64.906 166.392 64.6059C164.477 64.3128 162.639 63.7539 160.816 63.108ZM165.817 59.1254C165.391 58.9479 165.213 59.584 165.526 59.8158C167.21 61.0606 169.276 61.6003 171.336 61.1521C172.007 61.0061 171.863 59.9241 171.174 59.9519C169.31 60.0263 167.554 59.8485 165.817 59.1254ZM179.63 52.6639C182.181 52.5519 184.766 52.5223 187.354 52.6105L186.205 52.763L185.44 52.8629C182.504 53.2415 179.565 53.5618 176.601 53.5488C174.598 53.5401 172.598 53.3786 170.642 52.9837C173.638 53.1644 176.757 52.8345 179.63 52.6639Z" fill="#ECDCBF"/>
<path fill-rule="evenodd" clip-rule="evenodd" d="M149.333 70.514C149.33 70.5287 149.335 70.5399 149.338 70.5555C149.339 70.551 149.339 70.5486 149.341 70.5432C149.338 70.5313 149.336 70.5235 149.333 70.514Z" fill="#4F66AF"/>
<path fill-rule="evenodd" clip-rule="evenodd" d="M149.332 70.6649C149.319 70.6512 149.3 70.641 149.282 70.6273C149.281 70.6277 149.281 70.6282 149.281 70.6287C149.298 70.64 149.315 70.6531 149.332 70.6649Z" fill="#4F66AF"/>
<path fill-rule="evenodd" clip-rule="evenodd" d="M226.118 78.096C227.283 77.1276 229.119 78.0192 228.725 79.6136C228.295 81.3499 226.434 82.5364 224.898 83.2498C223.317 83.9838 221.777 84.1253 220.051 84.0452L220.03 84.0404C220.509 85.9609 220.781 87.9573 221.147 89.8894C221.612 92.3405 222.069 94.7929 222.52 97.2464C222.956 99.6179 223.507 101.993 223.842 104.376C224.179 106.782 224.504 109.189 224.835 111.596C225.389 115.615 225.836 119.653 226.307 123.684L226.532 125.592C227.004 129.631 227.384 133.674 226.489 137.693C225.651 141.46 223.763 144.973 221.572 148.118C219.427 151.196 217.031 154.157 214.401 156.835C209.327 161.999 203.071 166.136 195.735 166.903C192.576 167.233 189.202 166.866 186.232 165.717L186.035 165.64C183.029 164.453 179.348 162.421 178.565 159.086C178.085 157.04 180.193 155.443 182.041 156.414C182.897 156.864 183.541 157.377 184.244 158.022L184.369 158.137C184.944 158.671 185.165 158.835 185.828 159.252C187.187 160.107 188.206 160.512 189.75 160.901C192.598 161.617 195.67 161.504 198.561 160.657C204.697 158.858 209.458 154.166 213.536 149.46C215.751 146.905 217.852 144.225 219.473 141.247C221.174 138.122 221.959 134.842 221.912 131.286C221.859 127.275 221.305 123.248 220.941 119.256C220.57 115.185 220.228 111.117 219.926 107.041C219.643 103.219 219.615 99.3791 219.517 95.5449L219.497 94.8261C219.439 92.7906 219.399 90.7545 219.353 88.7185C219.307 86.6886 219.146 84.6327 219.355 82.6113C219.37 82.4641 219.568 82.4269 219.617 82.5757C219.74 82.9545 219.848 83.3391 219.95 83.7259C219.965 83.7141 219.983 83.7034 220.004 83.6961C221.356 83.2315 222.601 82.3041 223.615 81.3039C224.583 80.3495 225.089 78.9514 226.118 78.096ZM152.16 49.6554C153.009 46.1675 156.83 45.3885 159.656 47.0682C161.015 47.8759 162.103 49.0408 163.373 49.9666C164.635 50.8871 166.03 51.6264 167.502 52.1485C170.426 53.1856 173.511 53.5627 176.601 53.5762C184.123 53.6092 191.492 51.4951 199.025 51.7309C204.854 51.9134 211.041 53.6362 215.269 57.8502C217.546 60.1203 219.014 63.0389 219.801 66.1373C220.169 67.5854 220.443 69.0686 220.66 70.5484L220.713 70.9183C220.834 71.7831 221.028 72.6987 221.046 73.5728C221.063 74.3578 220.864 75.1792 220.756 75.9561C220.53 77.5939 217.993 77.4074 217.629 75.9561C216.799 72.652 217.146 69.2419 216.132 65.9491C215.232 63.0291 213.489 60.4761 210.964 58.73C200.309 51.3638 186.645 57.5324 174.906 56.9593C172.037 56.8192 169.125 56.3758 166.419 55.3877C165.023 54.8781 163.649 54.2567 162.384 53.475C161.225 52.7593 160.22 51.8601 159.147 51.0326L158.674 50.6728C157.938 50.1192 156.686 49.2538 155.943 49.986C155.62 50.3047 155.601 51.0254 155.607 51.5758L155.61 51.8245C155.644 54.1609 156.12 56.4931 155.246 58.7504C154.847 59.78 153.739 60.4292 152.684 59.8461L152.63 59.8148C150.4 58.4882 147.471 61.1539 149.183 63.3601L149.237 63.4268C150.201 64.5982 149.687 66.6609 147.962 66.6558L147.9 66.6547C144.826 66.5587 143.463 70.3999 146.112 72.0782L146.193 72.1284C148.344 73.4156 146.458 76.5103 144.253 75.4478C144.44 75.5378 144.115 75.5366 143.93 75.786C143.751 76.0254 143.738 76.2325 143.78 76.5349C143.909 77.4512 144.715 78.2234 145.367 78.8031C146.85 80.1202 148.688 81.0296 150.582 81.5832C158.168 83.8012 165.95 81.0881 173.342 79.4497C181.047 77.7415 189.75 77.0535 196.47 81.9006C196.55 81.958 196.48 82.0862 196.392 82.035C191.569 79.234 185.663 79.4826 180.391 80.6309C173.478 82.1369 166.625 84.94 159.545 85.6785C161.533 89.1877 162.365 93.3323 161.834 97.3461C161.468 100.109 160.369 102.506 159.07 104.934L158.822 105.397C157.665 107.577 156.768 109.637 156.753 112.162C156.739 114.671 153.009 115.201 152.377 112.755C150.942 107.2 156.171 102.826 158.305 98.2453C160.128 94.3299 160.184 89.7648 158.709 85.7558C157.044 85.8897 155.366 85.9037 153.671 85.7525C152.215 85.6224 150.717 85.36 149.257 84.9448L148.673 87.4001C147.899 90.6707 147.183 93.9391 146.965 97.3361C146.805 99.8323 146.814 102.341 147.057 104.831C147.268 106.981 147.712 109.056 148.164 111.155C148.551 111.667 148.75 112.45 148.641 113.073C151.157 113.798 153.137 115.784 153.86 118.415C153.904 118.575 153.68 118.665 153.596 118.526C151.88 115.679 147.461 114.631 144.666 116.512C141.997 118.308 140.944 121.934 142.455 124.805C143.249 126.314 144.428 127.375 145.947 128.105L146.253 128.249C147.049 128.626 147.78 129.036 148.292 129.793C148.956 130.775 148.979 131.813 148.916 132.934L148.889 133.389C148.847 134.141 148.837 134.915 149.061 135.638L149.112 135.799C149.171 135.98 149.233 136.139 149.341 136.311C149.374 136.362 149.676 136.659 149.775 136.766L149.899 136.804L150.038 136.809C150.192 136.812 150.394 136.745 150.328 136.791L150.346 136.781C150.404 136.745 150.458 136.706 150.503 136.672L150.589 136.605C150.79 136.314 151.043 136.074 151.352 135.89L151.647 135.759C152.415 134.948 153.73 135.374 154.281 136.182C154.677 136.762 154.89 137.353 154.907 137.935C154.969 137.836 155.107 137.781 155.194 137.893L155.716 138.557C157.712 141.108 159.674 143.675 161.942 146C163.192 147.282 164.536 148.486 165.941 149.595C167.141 150.542 169.416 151.453 169.451 153.177C169.462 153.737 169.065 154.134 168.578 154.324C166.996 154.942 165.04 152.839 163.897 151.815L163.803 151.733C162.404 150.507 161.127 149.162 159.949 147.723C157.66 144.929 155.747 141.712 154.903 138.174C154.864 138.791 154.599 139.396 154.083 139.967C153.396 140.727 152.457 141.26 151.453 141.479C149.179 141.976 146.959 141.158 145.606 139.263C144.463 137.661 144.126 135.546 144.273 133.611L144.292 133.378C144.312 133.068 144.339 132.498 144.419 132.256L143.703 131.863C142.825 131.396 142.012 130.783 141.282 130.11C138.347 127.404 136.875 123.007 138.216 119.159C139.055 116.752 140.819 114.658 143.077 113.569C142.699 112.697 142.573 111.661 142.431 110.744L142.407 110.593C142.165 109.089 141.963 107.567 141.886 106.045C141.742 103.203 141.917 100.335 142.364 97.5262C143.089 92.964 144.59 88.1257 147.342 84.2984C145.243 83.4646 143.31 82.2575 141.819 80.5814C140.26 78.8299 139.266 76.3223 140.472 74.098C140.779 73.5311 141.179 73.0544 141.639 72.6759C140.841 71.1695 140.583 69.3891 141.075 67.6873C141.664 65.6528 143.261 64.0661 145.19 63.3252C144.721 61.3976 145.104 59.3242 146.536 57.7178C147.956 56.1241 150.161 55.5437 152.202 55.9079C152.313 53.8578 151.668 51.6773 152.16 49.6554ZM146.436 121.635C148.307 120.719 150.525 120.865 152.394 121.733L152.521 121.793C154.562 122.783 157.264 125.095 156.616 127.554C156.236 128.992 154.638 129.483 153.399 128.863C152.364 128.344 152.128 127.416 151.609 126.485C151.242 125.826 150.788 125.311 150.255 124.781C149.132 123.665 147.87 122.836 146.436 122.173C146.229 122.077 146.237 121.733 146.436 121.635ZM193.585 71.9273C193.41 71.8472 193.537 71.5725 193.714 71.6228C198.416 72.9657 202.8 75.98 205.42 80.1639C205.579 80.4192 205.604 80.8394 205.42 81.092L205.335 81.2067C205.215 81.3636 205.096 81.4793 204.87 81.5144C204.446 81.5803 204.077 81.4696 203.832 81.092C201.251 77.1041 197.945 73.9215 193.585 71.9273ZM225.063 72.717C225.461 72.0422 226.518 72.178 226.728 72.9346L226.758 73.0004C226.872 73.2583 226.82 73.3111 226.608 73.1652C227.133 73.597 227.37 74.2403 227.21 74.9319C226.344 78.6671 222.114 81.3344 218.426 80.9673C218.104 80.9353 218.06 80.5398 218.352 80.4217C219.771 79.8472 221.03 78.9141 222.043 77.7691C223.027 76.6561 223.441 75.3827 223.97 74.0386C224.169 73.534 224.478 73.1706 224.913 72.9723C224.971 72.8926 225.021 72.8078 225.063 72.717ZM204.09 70.3166L204.116 70.3182C206.011 70.563 207.65 71.4983 208.981 72.8687C210.262 74.1883 211.88 76.366 211.741 78.3026C211.65 79.5865 209.824 80.3205 209.143 79.0065C208.737 78.2225 208.645 77.3631 208.36 76.534C208.099 75.7742 207.738 75.0527 207.306 74.376C206.417 72.982 205.195 71.8009 203.943 70.7353C203.797 70.6106 203.899 70.3173 204.09 70.3166ZM155.487 69.7476C155.067 69.3476 155.504 68.6655 156.039 68.8006C158.857 69.5142 161.648 70.3821 164.579 70.4684C166.042 70.5113 167.498 70.3959 168.948 70.2065L169.682 70.109C170.812 69.9614 171.962 69.8455 173.08 70.0778C173.825 70.2326 173.971 71.1925 173.506 71.6933C171.314 74.0584 167.085 73.8323 164.178 73.4336C161.02 73.0004 157.834 71.9836 155.487 69.7476ZM206.385 62.3756C206.192 62.108 206.517 61.6857 206.824 61.8044C209.625 62.8871 212.56 65.7058 213.332 68.655C213.536 69.434 212.553 70.0223 211.977 69.444C210.902 68.3663 210.143 67.0933 209.234 65.8819C208.329 64.6744 207.269 63.6019 206.385 62.3756ZM160.491 63.6927C160.266 63.4682 160.492 63.0212 160.815 63.1355C162.639 63.7813 164.476 64.3402 166.392 64.6334C168.354 64.9334 170.335 64.7054 172.307 64.827C173.105 64.8761 173.649 66.1175 172.762 66.5039C168.82 68.22 163.467 66.6638 160.491 63.6927ZM165.527 59.8433C165.214 59.6115 165.392 58.9753 165.818 59.1528C167.555 59.876 169.311 60.0537 171.175 59.9793C171.864 59.9516 172.008 61.0335 171.337 61.1795C169.277 61.6277 167.211 61.088 165.527 59.8433Z" fill="black"/>
<path fill-rule="evenodd" clip-rule="evenodd" d="M215.317 131.935C213.751 131.641 212.132 131.724 210.576 131.382C209.059 131.048 207.853 130.056 206.387 129.594C205.097 129.187 203.585 129.463 202.58 130.251C201.646 129.82 200.585 129.727 199.523 129.87C197.913 130.085 196.41 130.765 194.975 131.501C194.809 131.586 194.642 131.668 194.476 131.75C191.825 131.684 189.108 131.689 186.506 132.256C184.203 132.758 182.025 133.927 180.652 135.88C179.115 138.065 178.837 140.848 178.6 143.431C178.449 145.07 180.73 145.402 181.503 144.215C182.305 142.985 183.139 141.751 184.207 140.732C185.42 139.573 186.896 139.117 188.55 139.012C192.199 138.778 195.873 138.974 199.527 138.813C201.644 138.719 204.002 137.906 204.856 136.069C205.767 137.494 207.831 138.341 209.529 138.469C211.323 138.605 213.145 138.28 214.921 138.653C216.618 139.009 218.635 140.271 218.258 142.288C218.036 143.473 219.537 144.172 220.228 143.117C223.049 138.808 220.27 132.864 215.317 131.935Z" fill="black"/>
<path fill-rule="evenodd" clip-rule="evenodd" d="M204.248 143.544C202.73 143.556 201.024 142.987 199.883 142.542L199.585 142.425C198.597 142.03 197.583 141.577 196.826 140.816C196.585 140.569 196.327 140.289 196.196 139.995C196.119 139.823 196.088 139.645 196.162 139.467C196.435 139.441 196.695 139.406 196.94 139.361C197.057 139.34 197.169 139.317 197.255 139.317C197.571 139.315 197.884 139.355 198.197 139.395C198.243 139.4 198.288 139.406 198.333 139.412C198.577 139.442 198.819 139.474 199.061 139.507C199.765 139.601 200.465 139.694 201.179 139.729C201.695 139.753 202.235 139.724 202.78 139.695C204.195 139.618 205.657 139.513 206.747 140.502C207.032 140.761 207.152 141.087 207.152 141.419C207.152 141.823 206.981 142.234 206.722 142.556C206.133 143.286 205.228 143.536 204.248 143.544ZM212.525 130.811C211.865 131.8 210.765 132.436 209.257 132.367C206.261 132.23 202.685 131.102 200.175 129.471C199.522 129.046 199.098 128.367 199.022 127.639L198.887 126.345L198.156 127.423C198.08 127.535 198.003 127.647 197.926 127.759C197.715 128.068 197.503 128.376 197.304 128.692C196.538 129.906 195.837 131.132 195.199 132.418C194.748 133.329 194.418 134.347 194.087 135.375C193.529 137.11 192.989 138.816 191.796 140.035C191.616 140.219 191.338 140.285 191.085 140.253C190.861 140.224 190.642 140.115 190.534 139.897C189.108 137.003 191.026 133.517 192.582 131.093L192.746 130.839C194.188 128.649 196.544 125.75 199.242 125.356L199.551 125.848L200 125.549C200.734 125.06 201.704 125.083 202.553 125.465L203.401 125.847C204.981 126.555 206.54 127.208 208.25 127.566C208.374 127.592 208.499 127.616 208.623 127.639C208.74 127.66 208.858 127.68 208.977 127.698C208.951 127.582 208.924 127.466 208.897 127.351C208.868 127.229 208.839 127.106 208.807 126.984C208.775 126.858 208.74 126.733 208.706 126.608C208.569 126.11 208.414 125.617 208.231 125.134C207.541 123.319 206.439 121.621 205.366 120.002L205.24 119.811C205.086 119.579 204.918 119.337 204.744 119.087C203.908 117.885 202.98 116.581 202.915 115.272C204.025 115.342 204.953 116.03 205.771 116.629C206.893 117.451 207.933 118.39 208.876 119.411C210.706 121.392 212.348 123.924 213.068 126.541C213.48 128.04 213.299 129.653 212.525 130.811ZM183.251 115.88L183.251 115.826C183.254 114.315 184.136 110.864 186.316 110.864C187.678 110.864 188.505 113.213 188.648 115.634L188.653 115.732C188.716 117.237 188.303 120.527 186.316 120.527C184.309 120.527 183.272 117.411 183.251 115.88ZM215.349 115.406L215.349 115.352C215.346 113.841 214.464 110.39 212.284 110.39C210.956 110.39 210.137 112.623 209.964 114.978L209.952 115.16C209.866 116.614 210.253 120.053 212.284 120.053C214.291 120.053 215.328 116.937 215.349 115.406ZM190.594 105.651C190.305 105.685 190.017 105.729 189.73 105.775C188.892 105.908 188.058 106.068 187.23 106.255C185.657 106.609 184.097 107.057 182.566 107.562C181.134 108.035 179.724 108.57 178.315 109.105C178.24 109.134 178.165 109.162 178.089 109.191C177.592 109.38 177.096 109.591 176.598 109.803C175.841 110.127 175.08 110.452 174.304 110.697C176.349 107.875 179.5 105.784 182.532 104.288C184.262 103.434 186.098 102.746 187.944 102.182L188.972 101.874C190.486 101.428 192.141 101.016 193.563 101.905C194.126 102.256 194.485 102.803 194.598 103.394C194.709 103.973 194.582 104.594 194.181 105.112C193.832 105.564 193.397 105.821 192.934 105.909C192.422 106.007 191.881 105.9 191.387 105.637C190.992 105.608 190.876 105.618 190.759 105.631L190.594 105.651ZM213.368 105.938C212.355 105.719 211.352 105.63 210.312 105.662C209.842 105.676 209.387 105.749 208.934 105.822C208.229 105.935 207.528 106.052 206.769 105.914C206.373 105.843 206.035 105.611 205.775 105.31C205.47 104.957 205.269 104.506 205.204 104.078C205.138 103.635 205.204 103.248 205.368 102.906C205.562 102.502 205.889 102.161 206.284 101.863C207.478 100.96 209.528 101.177 210.939 101.36C212.332 101.541 213.718 101.972 214.95 102.657C216.165 103.333 217.221 104.243 218.046 105.356C218.74 106.295 219.068 107.375 219.406 108.474C217.816 107.143 215.383 106.375 213.368 105.938Z" fill="black"/>
</svg>
