<svg width="391" height="780" viewBox="0 0 391 780" fill="none" xmlns="http://www.w3.org/2000/svg">
<path fill-rule="evenodd" clip-rule="evenodd" d="M287.893 712.827C289.564 705.063 281.92 702.438 277.101 700.711C273.65 698.476 260.86 690.738 250.964 681.186C242.867 673.369 237.354 663.351 235.06 662.396C235.06 662.396 232.698 661.029 232.452 660.013C231.015 654.061 232.214 648.514 232.452 644.905C237.059 643.698 240.751 642.192 243.512 640.087C244.317 640.355 245.524 640.697 245.883 639.522C248.378 622.909 249.455 606.492 251.486 589.866C259.17 526.541 260.037 452.562 246.817 394.724C246.678 391.857 246.928 389.268 247.185 386.805C248.972 386.612 250.053 384.885 251.513 383.853C253.778 382.056 256.46 380.676 256.35 377.535C256.888 377.128 256.825 376.9 256.56 376.382C258.288 368.966 250.58 361.151 248.4 355.037C252.363 316.358 246.971 279.808 249.979 241.12C253.778 239.533 251.224 229.617 250.964 225.527C248.86 199.178 235.135 173.126 210.42 164.518C209.007 164.233 206.883 162.621 205.714 163.703C203.454 162.81 200.448 164.571 198.7 162.543L198.717 162.53C197.245 160.493 196.585 157.902 196.101 155.453C196.182 156.143 196.317 156.828 196.483 157.497C192.223 145.513 191.149 142.308 177.433 141.744C171.254 141.661 163.109 141.846 159.506 147.728C158.03 150.462 158.481 153.601 157.565 156.479C155.883 161.759 148.623 159.207 144.811 161.95C114.306 171.714 89.2846 191.645 81.0601 223.635C79.3787 227.49 77.4716 231.328 76.0659 235.307C75.8484 235.898 75.2499 237.896 76.6872 238.816L77.3823 239.261C68.2262 281.97 67.6187 317.959 98.3799 346.432C100.688 358.666 94.7499 375.374 97.0327 387.253C95.7319 389.095 97.3813 390.579 99.0442 390.697C99.2045 390.786 99.8524 391.069 100.029 391.15C97.3827 428.434 108.493 478.681 113.391 498.513C114.058 510.421 109.985 520.202 101.608 526.692C92.3525 532.381 74.0539 558.076 77.4462 585.029C73.4818 585.805 69.5461 586.231 65.7427 587.718C49.1009 584.786 49.2659 616.804 48.2056 628.061C46.4097 646.911 45.2935 674.231 63.2365 686.297C67.9635 689.719 77.5481 693.726 82.4596 688.248C84.0691 686.319 84.4721 684.455 83.8389 682.484C91.9492 671.049 89.7636 656.091 90.5086 642.679C92.8605 642.537 95.3211 643.638 97.596 643.237C99.931 641.184 91.4127 641.743 90.5293 641.623C90.6197 639.554 90.7865 637.376 91.0016 635.291C92.3377 635.558 94.0493 636.198 95.3341 636.247C96.0946 636.432 96.632 635.387 96.173 634.845C95.1703 633.891 92.6137 634.039 91.175 633.903C91.4179 632.158 91.715 630.323 92.0451 628.634C93.8052 628.571 95.6227 629.69 97.2892 629.461C96.0278 628.621 93.6603 628.877 92.1228 628.322C93.1226 622.885 95.1598 617.724 97.0538 612.638C101.701 614.551 105.71 614.626 110.247 614.053C112.103 614.338 113.007 613.959 113.308 611.642L113.189 611.496C116.785 590.022 128.388 569.551 149.941 546.336C154.198 541.581 159.009 535.983 162.215 529.723C168.656 516.697 169.756 502.322 174.719 488.794C179.352 475.196 185.687 462.189 191.636 449.299C192.508 455.905 193.68 462.682 194.898 469.16C200.259 492.115 199.739 516.607 195.794 539.689C189.957 572.018 192.77 604.501 191.472 637.058C191.49 638.936 191.723 640.642 191.447 642.597C191.41 642.747 191.482 642.925 191.66 642.921L191.997 642.93C194.803 644.98 198.678 645.351 201.975 646.463C203.359 647.557 202.969 649.289 203.096 650.64C203.458 656.464 203.921 662.31 203.347 668.312C200.803 673.177 197.643 672.172 196.997 679.029C196.431 686.858 195.431 695.183 199.251 702.155L197.806 702.403C195.661 706.896 196.97 709.812 202.012 711.712C226.9 721.451 261.922 730.293 287.893 722.942C288.365 723.409 289.052 722.924 289.588 722.19C290.104 721.485 290.482 720.549 290.398 720.005C289.954 717.621 290.564 713.268 287.893 712.827Z" fill="#D08B5B"/>
<path fill-rule="evenodd" clip-rule="evenodd" d="M99.2337 348.531L101.115 350.476L102.016 351.402L103.331 352.747C106.146 355.617 109.08 358.544 113.34 362.748L124.333 373.574L126.451 375.674L127.486 376.703L123.222 377.233L122.326 377.348L121.63 377.439L120.937 377.532C116.469 378.145 113.512 378.743 110.575 379.706C106.278 381.116 102.93 383.152 100.43 386.082L100.312 386.222L99.2897 387.445L99.0599 385.869C98.8274 384.275 98.7342 382.623 98.7411 380.686L98.7482 379.934L98.7596 379.334L98.7727 378.841C98.7808 378.564 98.7908 378.261 98.803 377.914L98.898 375.318L98.9215 374.548L98.9304 374.184C98.9344 374.007 98.9375 373.837 98.9399 373.668L98.9454 373.141L98.9223 372.582L98.8947 371.851L98.8767 371.329C98.6918 365.701 98.7872 360.324 99.1336 351.142L99.2337 348.531ZM146.376 162.038L146.178 163.183C145.073 169.596 147.964 174.899 154.173 178.777C159.855 182.328 168.054 184.458 176.839 184.795C185.551 185.13 194.049 183.669 200.255 180.675C206.906 177.467 210.529 172.753 210.385 166.889L210.38 166.711L210.338 165.587L211.373 166.031C224.349 171.595 234.414 182.211 240.735 196.136C246.508 208.853 248.818 223.717 247.339 237.655L247.293 238.077L247.201 238.901L246.399 238.685C244.969 238.299 241.293 239.394 235.592 241.997L235.114 242.217L232.503 244.029L232.458 245.37C230.715 300.086 235.965 339.115 248.175 362.433L248.547 363.135L248.931 363.841C249.151 364.254 249.4 364.683 249.713 365.195L250.078 365.784L250.632 366.668L250.933 367.153L251.08 367.394C251.674 368.373 252.033 369.04 252.374 369.814C252.916 371.041 253.219 372.207 253.261 373.388L253.265 373.536L253.266 373.584L253.29 373.63C253.469 373.994 253.459 374.432 253.26 374.804L253.229 374.859L253.217 374.877L253.168 375.26L252.842 375.323L252.798 375.366C252.322 375.807 251.683 376.09 250.852 376.296L250.737 376.324L250.625 376.35C250.45 376.389 250.269 376.425 250.062 376.463L249.288 376.597L248.355 376.78L247.183 377.008L246.864 377.073L246.531 377.142C244.573 377.556 243.259 377.961 242.035 378.58C235.868 381.811 229.754 383.364 223.297 383.545C218.152 383.689 213.053 383.011 206.397 381.5L205.042 381.186L204.254 381L203.286 380.765C202.983 380.691 202.658 380.611 202.297 380.522L197.615 379.356L196.139 378.994L195.281 378.787C191.941 377.986 189.685 377.514 187.112 377.084C182.607 376.33 178.505 376.023 174.466 376.213L174.155 376.229L173.974 376.238L173.81 376.16C165.505 372.197 158.685 366.441 152.486 358.632L152.068 358.101L151.806 357.766C147.556 352.301 144.342 347.065 138.237 336.227L136.641 333.392L135.518 331.41L134.787 330.126C131.582 324.519 129.512 321.149 126.964 317.438C122.853 311.453 118.676 306.596 113.983 302.559L113.744 302.354L113.715 302.328C112.784 301.444 112.156 300.645 111.76 299.75L111.715 299.646L111.646 299.481L111.769 298.223L111.898 296.875C112.933 285.929 114.028 270.992 115.183 252.064L115.391 248.623L109.755 246.439L107.151 245.439L106.586 245.225L105.919 244.975L105.24 244.723L104.572 244.477C101.702 243.424 99.124 242.543 96.6464 241.782L96.0874 241.612C90.0616 239.794 84.977 238.816 80.7543 238.797L80.5601 238.797L79.6719 238.799L79.7034 238.656L79.6767 238.653C79.4721 238.627 79.2809 238.588 79.1039 238.531L79.0167 238.502L78.9318 238.469C78.2065 238.174 77.8546 237.524 78.1358 236.747L78.1585 236.687L78.3079 236.147C83.5288 217.368 90.5962 202.64 100.383 190.952L100.68 190.599L100.985 190.24C111.838 177.56 126.091 168.443 144.699 162.561L145.264 162.384L146.376 162.038Z" fill="#78E185"/>
<path fill-rule="evenodd" clip-rule="evenodd" d="M243.427 723.118C238.956 722.313 213.266 716.481 198.542 708.897C195.534 707.348 196.275 703.688 197.254 701.311C197.703 700.222 198.765 699.403 198.542 699.18C193.834 694.481 197.354 682.115 197.354 679.745C197.354 676.222 203.076 671.452 202.104 669.553C200.982 667.361 202.362 674.859 205.191 679.034C207.658 682.673 211.529 682.954 211.913 682.795L211.982 682.765L212.032 682.739C213.097 682.157 229.176 659.041 235.827 662.443C238.958 664.044 240.64 671.126 244.14 674.057C251.988 680.629 255.777 691.121 284.988 704.631C288.114 706.077 288.142 709.17 287.504 711.589C287.269 712.481 290.45 712.452 289.975 712.926C288.768 714.131 292.116 721.051 289.5 722.17C279.209 726.572 252.487 724.747 243.427 723.118ZM76.476 585.415C76.476 585.415 78.164 587.524 78.1334 588.496C77.8814 596.506 75.9723 602.407 75.9127 606.346L75.909 606.612L75.9156 606.709C76.0311 608.307 78.4766 614.444 83.8331 615.752C86.8585 616.491 95.7076 613.145 95.7076 613.145C95.7076 613.145 90.6522 627.082 89.7704 639.69C89.0778 649.592 89.6367 660.822 88.3454 669.553C87.6405 674.32 85.0879 679.623 82.1707 683.3C81.4558 684.201 84.5636 685.907 83.8331 686.618C82.4652 687.951 79.0833 692.543 68.6338 688.988C65.5921 687.953 56.7423 682.203 51.7721 671.213C48.1415 663.184 47.7999 651.488 47.2598 641.112C46.6629 629.645 48.8809 611.751 51.7721 602.006C54.9871 591.169 58.9843 589.051 59.8127 588.451C60.0062 588.311 66.0233 587.125 66.6026 587.06L66.7038 587.049L66.7837 587.042L66.8277 587.024C69.1901 586.112 71.8909 585.673 75.4426 585.469L75.6611 585.457L76.476 585.415Z" fill="white"/>
<path fill-rule="evenodd" clip-rule="evenodd" d="M289.079 720.626C266.715 730.649 226.104 718.002 204.129 710.685C198.204 708.552 196.23 708.134 197.89 701.317C200.997 707.299 207.677 708.744 214.077 709.944C235.758 714.876 257.861 723.983 281.047 719.539C284.451 719.005 287.818 717.166 288.808 713.772C289.419 715.21 289.041 717.158 289.286 718.74C289.331 719.37 289.345 720.052 289.079 720.626ZM198.627 683.346C199.03 679.328 199.676 675.084 201.968 671.533C201.719 677.276 205.174 687.036 212.745 683.784C214.89 682.65 216.092 680.366 217.472 678.532C222.057 672.497 227.938 667.258 234.581 663.45C238.276 664.084 239.865 670.828 242.246 673.651C239.591 674.832 234.78 677.522 234.293 680.305C237.608 679.192 240.66 677.12 244.137 676.391C245.251 677.925 246.431 679.413 247.671 680.85C246.051 681.562 239.52 684.857 239.563 686.501C243.094 685.929 246.516 684.203 250.067 683.494C251.646 685.057 253.083 686.74 254.655 688.308C252.28 689.284 249.772 690.374 248.476 692.649C248.414 692.752 248.566 692.867 248.649 692.768C250.428 690.628 253.489 690.235 256.142 689.753C260.212 693.578 264.77 696.952 269.871 699.477C274.975 702.262 282.731 702.899 284.762 708.94C286.386 714.98 281.321 715.625 276.647 716.052C271.918 716.723 267.157 716.825 262.459 716.433C247.775 715.822 233.894 711.508 220.017 707.739C203.051 704.622 197.546 702.099 198.627 683.346ZM203.601 648.025C203.561 648.291 203.525 648.556 203.487 648.824C203.439 648.542 203.406 648.258 203.337 647.98C203.425 647.995 203.513 648.011 203.601 648.025ZM231.012 661.515C224.512 666.312 218.166 671.658 213.651 678.35C210.664 683.794 206.688 680.48 205.7 676.119C204.9 666.381 205.589 657.973 204.651 648.177C213.64 649.4 222.873 648.646 231.653 646.482C230.596 650.855 230.112 652.515 230.078 657.001C230.136 658.479 230.114 660.284 231.012 661.515ZM245.563 303.102C245.755 317.434 245.845 331.771 245.346 346.098C232.705 313.49 236.574 278.107 234.778 243.833C238.514 242.591 242.527 242.048 246.377 241.517C244.831 262.792 245.23 281.795 245.563 303.102ZM174.118 375.509C143.079 360.698 138.785 322.724 114.207 301.803C113.414 301.05 112.756 300.275 112.373 299.362C114.136 281.593 114.007 266.015 116.09 248.265C118.418 244.051 119.337 239.157 121.07 234.672C121.978 231.942 123.08 229.238 123.341 226.372C123.559 225.429 122.082 225.019 121.807 225.91C118.527 232.272 116.895 239.346 114.447 246.054C114.102 246.191 113.644 246.082 113.509 245.722C113.488 245.81 113.464 245.897 113.442 245.985C102.905 241.875 92.0396 238.048 80.5594 238.076C80.5668 238.04 80.5763 238.002 80.5834 237.967C79.8754 237.988 78.3911 237.931 78.8352 236.908C88.9262 200.183 107.044 175.01 145.477 163.053C140.563 191.549 212.081 193.198 211.093 166.674C238.034 178.226 249.64 210.67 246.586 237.988C244.026 237.299 237.359 240.012 234.759 241.588C234.229 230.496 235.545 217.11 234.771 207.191C230.672 257.764 223.022 318.278 248.303 364.165C249.944 367.242 252.621 370.185 252.554 373.797C252.751 373.996 252.77 374.345 252.53 374.601C252.53 374.617 252.53 374.634 252.528 374.651C252.516 374.653 252.502 374.653 252.488 374.653C251.754 375.525 250.21 375.698 249.148 375.89C246.641 376.395 244.002 376.779 241.706 377.94C217.237 390.76 198.045 374.234 174.118 375.509ZM181.852 398.812C183.034 401.066 185.02 402.879 187.374 404.012C187.084 404.58 186.984 405.22 186.953 405.82C182.714 406.685 183.906 408.693 181.042 409.65C179.168 410.167 177.366 410.387 175.746 411.52C170.234 416.644 168.866 416.267 162.95 411.759C163.031 411.352 154.98 403.504 152.486 399.117C150.408 395.458 148.233 391.772 145.048 388.942C129.452 373.006 112.837 357.965 97.7402 341.588C67.4843 311.499 73.2574 277.382 80.2066 239.799C91.423 241.136 102.701 243.821 112.802 248.751C109.24 265.339 109.011 280.375 107.477 297.208C107.014 299.289 107.537 303.297 110.491 302.372C137.648 323.89 140.804 368.109 176.442 380.896C190.967 386.788 184.837 391.571 189.637 402.696C186.996 402.213 184.64 400.004 183.505 397.89C182.942 396.84 181.303 397.764 181.852 398.812ZM99.7653 385.757C99.1505 381.541 99.63 377.343 99.6585 373.12C99.3286 365.429 99.5851 357.932 99.8819 350.215C108.398 359.02 117.252 367.526 125.949 376.168C116.686 377.334 106.004 378.293 99.7653 385.757ZM99.6087 391.959C99.7538 391.912 99.8961 391.848 100.027 391.77C99.9935 395.079 100.046 398.387 100.167 401.691C99.9341 398.449 99.7489 395.204 99.6087 391.959ZM89.1904 627.144C86.6922 626.953 76.0074 626.585 74.7252 628.258C76.1691 628.868 78.1543 628.531 79.7074 628.6C82.7238 628.723 85.7328 628.988 88.718 629.41C88.4945 630.572 88.2927 631.731 88.1267 632.894C85.1153 633.181 79.2515 633.311 77.3399 635.414C80.75 635.957 84.3005 635.468 87.7227 636.146C87.5565 637.739 87.4353 639.334 87.3453 640.929C85.9819 641.074 77.9645 642.398 77.9716 643.657C80.9733 644.055 84.1532 643.531 87.2123 643.828C86.5495 653.386 88.7964 682.252 75.7057 684.017C64.2611 683.415 59.2406 664.905 57.6853 656.024C54.2367 635.333 54.8283 613.272 61.6632 593.328C64.1044 587.782 70.7496 586.82 76.3686 586.533C76.5821 587.471 76.7934 588.393 77.0309 589.322C74.5943 594.835 73.8179 601.043 73.7512 607.008C74.2666 615.583 84.8681 621.959 92.5675 616.294C91.1283 619.802 90.0171 623.452 89.1904 627.144ZM74.046 688.831C51.3774 683.968 47.6583 657.769 49.2165 638.504C50.4868 625.094 48.96 596.822 61.3638 588.943C45.3333 603.548 46.7252 702.974 82.251 685.62C81.3652 688.421 76.8101 689.229 74.046 688.831ZM78.4888 595.355C78.5292 595.009 78.5741 594.665 78.6216 594.319C81.1366 601.138 85.4446 607.618 91.8594 611.566C89.4036 614.624 84.6205 615.534 81.3931 613.031C75.7646 608.819 78.1112 601.199 78.4888 595.355ZM155.757 159.744C155.713 159.823 155.665 159.901 155.617 159.977C155.304 159.998 154.988 160.026 154.667 160.062C155.031 159.953 155.394 159.851 155.757 159.744ZM198.834 162.247C198.822 162.212 198.81 162.176 198.801 162.143C198.829 162.159 198.858 162.178 198.888 162.197C198.865 162.212 198.85 162.228 198.834 162.247ZM291.281 716.476C291.219 714.78 291.195 712.589 289.205 711.987C290.107 704.678 284.027 700.517 277.644 698.492C272.201 695.169 266.028 692.847 261.027 688.841C263.349 688.406 265.672 687.88 267.736 686.871C269.294 686.111 268.543 683.578 266.855 683.812C263.865 684.206 261.179 685.723 258.369 686.778C256.773 685.469 255.227 684.103 253.767 682.657C255.586 682.306 257.899 682.435 258.958 680.633C259.288 680.069 259.141 679.485 258.742 679.05C256.899 677.188 253.246 679.047 250.957 679.59C249.858 678.325 248.796 677.035 247.753 675.729C249.482 675.57 253.98 675.885 253.099 673.037C251.411 670.81 247.78 672.146 245.338 672.605C242.241 668.804 241.244 662.974 236.404 660.883C236.23 659.961 235.024 660.032 234.219 660.306C233.034 654.659 233.124 651.789 233.471 646.001C237.064 645.008 240.629 643.705 243.616 641.567C244.989 641.97 246.654 641.505 246.939 639.896C247.793 634.226 248.271 627.681 248.87 621.888H249.088C250.225 611.322 251.142 600.726 252.43 590.188C259.799 529.274 261.404 454.924 247.763 394.744C247.656 392.464 247.818 390.182 248.048 387.919C249.675 387.485 250.644 385.899 251.99 384.982C254.493 382.946 257.039 381.806 257.27 378.253C257.775 377.772 257.835 377.045 257.557 376.414C258.205 372.766 257.25 369.145 255.305 365.993C253.173 362.402 251.159 358.778 249.38 355.01C253.27 317.026 247.993 280.214 250.879 242.041C254.579 240.086 252.256 229.221 251.912 225.6C249.751 201.816 238.624 175.555 214.968 165.662C213.308 164.264 210.99 163.79 208.962 163.02C207.591 162.347 205.361 161.764 204.423 163.33C203.428 162.868 200.225 162.515 199.127 161.714C198.923 161.564 198.792 161.401 198.762 161.218C198.681 161.221 198.586 161.204 198.484 161.183C197.472 159.756 196.508 149.818 195.261 150.527C193.9 153.94 194.843 157.796 196.145 161.242C197.042 164.29 198.273 172.13 203.041 170.125C203.863 169.718 203.355 168.658 202.618 168.573C200.358 167.928 199.854 164.612 198.98 162.669C200.016 163.527 204.732 164.814 205.248 165.086C215.479 188.522 153.62 187.292 148.756 171.135C145.288 165.553 148.281 162.529 154.463 161.633C149.92 166.672 155.672 167.791 157.859 162.849C159.951 159.31 160.903 155.011 160.189 150.939C160.557 149.51 160.868 147.6 158.726 147.984C158.652 147.794 158.536 147.943 158.581 148.079C157.799 149.321 158.344 151.105 158.066 152.539C157.831 154.886 157.163 157.185 156.03 159.261C153.929 159.661 151.836 160.09 149.754 160.56C148.504 158.026 140.401 163.079 138.226 163.674C109.325 172.194 87.3482 194.886 79.6775 223.507C77.9652 227.318 76.1173 231.148 74.7161 235.078C74.0892 236.78 74.0892 238.891 75.811 239.993C67.4205 278.406 65.3733 318.427 97.0713 347.238C97.7906 350.357 97.3111 353.666 97.2897 356.842C97.5555 364.075 91.3618 388.867 98.5556 392.073C96.4535 424.188 104.336 467.886 111.976 498.868C112.541 509.517 109.323 519.203 100.662 525.922C84.1943 538.209 77.2573 558.717 75.3312 578.261C75.0581 580.264 75.3265 582.302 75.778 584.27C72.2083 584.933 68.867 585.364 65.4018 586.67C46.291 583.016 47.6545 623.992 46.1915 636.151C45.0466 654.126 45.7614 675.672 62.3121 687.442C67.8764 691.396 77.699 695.193 83.1211 689.206C84.6551 687.374 85.4913 685.231 84.8878 682.889C92.6608 671.529 90.825 657.01 91.4069 644.084C93.4422 644.155 95.6603 645.06 97.665 644.562C99.2087 644.155 99.4058 642.178 98.0996 641.391C96.2137 640.325 93.6512 640.73 91.5423 640.659C91.6066 639.422 91.6992 638.185 91.818 636.947C93.8198 637.436 96.6887 638.609 97.2848 635.817C97.5249 633.274 94.3066 633.079 92.3025 632.97C92.4426 632.01 92.5993 631.055 92.7774 630.103C94.3116 630.257 95.9311 631.233 97.4394 630.766C98.2941 630.43 98.591 629.567 97.9664 628.868C96.8053 627.732 94.8196 627.96 93.2833 627.607C94.2164 623.044 95.9028 618.681 97.5272 614.318C100.467 615.337 103.652 616.01 106.789 615.754C108.416 615.413 110.193 615.315 111.836 615.536C113.664 615.052 114.087 613.102 114.327 611.509C114.292 611.452 114.256 611.398 114.215 611.348C118.44 586.794 133.597 565.581 150.592 547.305C155.273 542.077 159.863 536.64 163.043 530.43C169.503 517.452 170.662 502.849 175.604 489.366C179.767 477.122 185.332 465.381 190.787 453.622C192.974 469.109 197.059 484.341 197.527 500.046C198.239 519.914 193.853 539.494 191.981 559.203C189.277 580.046 190.718 600.994 190.546 621.888H190.663C190.618 626.926 190.481 632.183 190.167 637.206C190.179 639.043 190.416 640.773 190.155 642.61C190.01 643.626 190.742 644.264 191.511 644.285C194.337 646.136 197.888 646.793 201.137 647.584C202.037 648.272 201.647 649.964 201.806 651C202.155 656.818 202.616 661.209 202.048 667.076C198.871 671.765 196.582 671.016 195.698 678.143C195.211 685.584 194.14 693.63 197.398 700.384C195.94 700.715 195.387 705.156 195.605 706.331C195.976 709.646 198.904 710.694 201.735 711.838C222.423 719.574 266.38 732.309 287.637 723.551C289.16 724.411 290.858 722.726 291.349 721.369C292 719.717 291.401 718.117 291.281 716.476Z" fill="black"/>
<path fill-rule="evenodd" clip-rule="evenodd" d="M221.495 107.826C219.868 87.9947 214.915 70.4299 191.642 69.6809C181.139 69.7748 170.418 72.0062 160.76 76.1349C137.284 87.9063 129.836 130.919 150.518 148.234C150.395 148.304 150.366 148.506 150.511 148.603C154.784 151.478 159.533 153.844 164.29 155.831C176.961 161.189 191.877 163.516 204.8 157.704C224.52 149.312 224.816 125.961 221.495 107.826Z" fill="#D08B5B"/>
<path fill-rule="evenodd" clip-rule="evenodd" d="M260.312 98.5828C261.122 97.8529 261.727 96.8953 262.032 95.8217C262.312 94.8428 262.331 93.7739 262.035 92.7974C261.717 91.7498 261.032 90.9156 261.186 89.8253C261.203 89.7187 261.224 89.6073 261.257 89.4959C261.85 87.4434 263.307 85.9621 262.786 83.6868C262.639 83.0445 262.362 82.4662 261.976 82.0111C262.018 81.5181 262.056 81.0204 262.087 80.5227C262.942 78.52 262.912 76.1404 261.999 74.1684C261.888 73.1588 261.72 72.1586 261.483 71.175C261.592 70.3052 261.44 69.3477 261.16 68.5869C260.669 67.2482 260.062 65.929 259.403 64.6316C259.481 64.2768 259.446 63.9019 259.25 63.5684C258.894 62.9624 258.424 62.4296 257.943 61.9089C257.603 61.3014 257.26 60.6989 256.921 60.1043C256.763 59.831 256.59 59.5279 256.398 59.2067C256.92 58.2383 257.199 57.2945 256.647 56.1557C256.439 55.7279 255.869 55.4124 255.4 55.4404C254.887 55.471 254.369 55.4939 253.848 55.5136C252.875 54.3385 251.772 53.2836 250.591 52.6764C249.394 51.662 248.18 50.6665 247 49.6498C246.666 49.3606 246.33 49.0715 245.995 48.7823C245.993 48.7752 245.991 48.7657 245.988 48.7586C245.742 47.8603 245.465 46.9739 245.187 46.0828C245.014 45.5305 244.962 44.9522 244.424 44.6512C243.301 44.0231 241.573 43.9236 240.284 43.8169C240.156 43.7032 240.028 43.5918 239.9 43.478C240.485 41.9185 240.381 40.2618 239.644 38.6999C239.393 38.169 238.521 37.9296 238.042 38.2804C236.938 39.091 235.627 39.3777 234.331 39.2592C232.425 37.7945 224.74 31.171 223.552 30.4719C223.538 30.4467 223.526 30.4216 223.51 30.3967C222.843 29.3307 222.032 28.4746 221.12 27.7882C220.99 27.6524 220.86 27.5163 220.73 27.3803C220.845 26.5676 221.146 25.7828 221.631 25.1263C221.683 25.0505 221.742 24.977 221.801 24.9059C222.65 23.8962 221.614 22.5974 220.429 23.126C220.344 23.1639 220.259 23.2018 220.173 23.2421C219.262 23.6483 218.254 24.0899 217.205 24.4625C216.821 24.3186 216.429 24.1882 216.072 24.0446L212.248 22.5071C211.618 22.254 210.953 22.0395 210.344 21.7421C210.132 20.3297 208.716 19.4035 207.247 19.4518C207.331 19.1807 207.458 18.9174 207.637 18.6678C207.689 18.5943 207.746 18.5232 207.805 18.4545C208.561 17.5752 207.551 15.9446 206.471 16.7267C206.395 16.7812 206.316 16.8357 206.241 16.8902C205.94 17.1009 205.633 17.2986 205.322 17.4901C204.825 17.273 204.265 17.2235 203.678 17.4531C202.38 17.9615 201.183 18.4784 200.04 19.2753C199.994 19.3077 199.946 19.335 199.899 19.3656C199.331 18.6801 198.431 18.2218 197.619 18.2267C197.603 18.2267 197.59 18.2265 197.575 18.2263C196.969 17.3022 195.857 16.7651 194.784 16.8957C194.856 15.5696 193.529 14.3862 192.32 14.2424C190.908 14.0746 189.636 14.8944 189.212 16.2719C189.094 16.6554 188.976 17.0391 188.858 17.4228C187.762 16.8694 186.605 16.4454 185.396 16.2337C182.644 15.7516 179.953 16.265 177.301 17.0291C177.036 17.1054 176.771 17.1839 176.507 17.2621C176.128 16.8239 175.774 16.3752 175.435 15.9564C174.849 15.2335 173.444 15.8118 173.539 16.7409C173.604 17.382 173.344 17.8433 172.925 18.171C172.464 18.2383 172.019 18.2587 171.348 18.2452C170.461 18.2272 170.057 18.1995 169.13 17.8378C168.698 17.6695 168.159 17.227 167.908 16.8298C166.942 15.3065 164.489 14.8963 163.32 16.3487C162.091 15.8104 160.539 16.5527 159.856 17.5994C159.499 18.1466 158.754 18.4526 157.816 18.7157C157.112 18.9129 156.392 19.0622 155.669 19.1928C155.346 18.7555 154.667 18.4623 154.17 18.829C153.832 19.0781 153.505 19.3338 153.182 19.5959C150.691 19.9391 148.213 19.9515 145.838 18.9802C143.828 18.1578 141.982 20.4039 142.313 22.2896C141.731 22.5927 141.099 22.7944 140.524 23.112C139.269 23.8055 138.239 24.9016 137.611 26.1896C137.498 26.4202 137.397 26.6543 137.3 26.8897C136.831 27.2715 136.367 27.6635 135.914 28.0771C135.161 27.6908 134.409 27.3045 133.656 26.9181C133.092 26.629 132.141 26.8304 132.03 27.5794C131.848 28.8118 131.404 29.8334 130.772 30.689C128.715 31.7697 126.736 32.9832 124.842 34.3318C122.664 35.0144 120.349 35.4126 118.446 35.8605C117.794 36.0146 117.439 36.8654 117.806 37.4319C118.195 38.0315 118.583 38.6312 118.97 39.2308C117.887 40.2879 116.87 41.3923 115.91 42.5347C113.239 45.7107 111.004 49.1923 109.004 52.8802C108.213 53.2002 107.421 53.5178 106.63 53.8377C105.867 54.1458 105.523 55.0323 106.141 55.684C106.435 55.9945 106.698 56.3216 106.924 56.6653C105.803 58.521 104.483 60.2133 102.636 61.3225C102.075 61.6591 101.653 62.1876 101.428 62.7872C101.236 62.9152 101.046 63.0527 100.859 63.1925C100.338 63.5859 100.022 64.4439 100.634 64.9535C101.063 65.3137 101.466 65.7404 101.807 66.212C101.88 66.4798 101.956 66.75 102.032 67.0179C100.316 68.5963 98.8896 70.4308 97.8184 72.488C97.5649 72.4478 97.3042 72.4738 97.0933 72.6302C95.1784 74.0452 95.1215 76.2992 95.8917 78.3138C95.4272 81.3498 95.7258 84.4618 96.6217 87.4031C95.4438 88.5787 94.7352 90.2756 94.4461 91.911C93.9366 94.7836 93.901 99.2014 93.7683 102.133C92.4838 103.373 91.5691 104.977 91.0595 106.703C90.6306 106.916 90.2016 107.129 89.7727 107.343C89.3911 107.532 89.1115 108.032 89.1352 108.454C89.2442 110.495 90.0855 112.107 91.2017 113.567C91.5975 114.692 92.1829 115.731 92.9507 116.726C93.4816 117.409 94.0006 118.063 94.4579 118.8C94.5053 118.873 94.5338 118.942 94.5551 118.989C94.375 119.184 94.2257 119.506 94.0954 119.736C93.0005 121.665 92.9839 123.926 94.5385 125.607C93.9532 126.085 93.9342 127.052 94.4508 127.645C97.8137 131.487 100.617 136.158 105.284 138.199C105.305 138.235 105.324 138.27 105.34 138.306C104.395 140.581 104.267 141.764 105.039 144.115C105.044 144.136 105.051 144.155 105.058 144.176C105.471 145.409 106.229 147.383 107.597 147.767C108.028 147.888 108.452 147.943 108.872 147.94C109.957 148.985 111.04 150.033 112.123 151.081C112.218 151.6 112.277 152.123 112.296 152.652C112.327 153.536 113.159 154.252 114.055 153.991C114.37 153.899 116.114 152.204 116.434 152.213C116.595 152.375 116.751 152.536 116.908 152.699C117.484 153.304 118.282 154.257 118.349 154.889C118.477 156.081 119.259 157.447 120.522 157.688C120.996 158.17 121.754 158.314 122.335 157.686C122.373 157.646 122.411 157.605 122.451 157.57C122.513 157.563 122.572 157.556 122.634 157.549C122.913 158.383 123.193 159.217 123.475 160.049C124.027 161.689 126.136 162.744 127.634 161.786C127.876 161.931 128.113 162.085 128.35 162.239C128.71 162.469 129.075 162.704 129.449 162.924C129.471 162.986 129.492 163.047 129.511 163.106C129.753 163.844 130.757 164.239 131.376 163.815C131.568 163.877 131.765 163.926 131.964 163.967C133.009 164.173 134.061 164.116 135.071 163.768C135.793 163.521 136.483 163.05 137.26 162.986C137.309 162.982 137.359 162.985 137.408 162.983C138.042 164.283 139.492 165.402 140.634 165.783C142.13 166.281 143.661 166.103 145.023 165.493C145.39 166.228 145.852 166.923 146.403 167.567C146.709 167.923 147.261 167.847 147.577 167.567C148.175 167.036 148.77 166.503 149.364 165.969C149.794 165.803 150.228 165.605 150.68 165.42C152.096 164.841 153.648 164.602 154.958 163.766C155.579 163.369 156.164 162.863 156.645 162.276C157.553 161.753 158.386 161.1 159.137 160.352C159.511 160.355 159.902 160.267 160.281 160.075C161.867 159.269 162.701 157.629 162.775 155.951C164.059 152.929 164.817 149.706 165.026 146.407C165.092 145.324 165.104 144.231 165.021 143.148C164.964 142.385 164.772 141.875 164.483 141.185C164.386 140.96 164.298 140.754 164.23 140.527C164.246 139.797 164.256 139.067 164.265 138.339C164.462 137.725 164.813 137.154 165.301 136.673C166.057 135.929 166.403 134.383 165.716 133.464C165.268 132.869 164.822 132.274 164.374 131.679C164.5 129.126 165.111 125.064 163.756 124.637C163.81 124.258 163.926 123.884 163.993 123.507C164.31 121.696 164.121 120.077 163.159 118.494C162.957 118.165 162.786 117.873 162.647 117.589C162.559 117.067 162.471 116.546 162.384 116.024C162.248 115.221 162.116 114.41 162.002 113.595C161.943 112.557 161.888 111.519 161.829 110.478C161.775 109.521 161.713 108.563 161.649 107.603C161.675 107.174 161.713 106.745 161.767 106.316C162.092 103.759 163.137 102.813 164.948 101.036C165.232 100.991 165.514 100.941 165.791 100.884C167.083 100.616 168.434 100.202 169.763 100.351C171.207 100.512 172.498 101.135 173.901 100.339C174.314 100.102 175.221 99.4479 175.299 98.9289C175.304 98.8957 175.311 98.8673 175.321 98.8459C175.418 98.8317 175.544 98.8199 175.622 98.8175C176.736 98.7796 177.8 99.218 178.923 99.0972C180.252 98.955 181.442 98.3648 182.224 97.4902C183.227 97.7367 184.25 97.8481 185.291 97.7106C186.163 97.5969 186.945 97.3125 187.718 96.8906C188.279 96.5872 188.102 96.4995 188.713 96.746C190.104 97.3101 191.363 98.0543 192.929 97.668C193.742 97.4689 194.443 97.0304 195.033 96.4403C195.173 96.3028 195.41 96.0966 195.569 95.9023C196.313 96.2791 198.185 97.13 198.493 97.2058C199.366 97.4191 200.29 97.3859 201.138 97.1015C201.762 96.893 202.525 96.3241 203.072 96.208C203.781 96.0563 205.354 97.0423 206.2 97.3812C207.684 97.9761 209.255 98.123 210.758 97.5092C211.274 97.2982 212.279 96.4569 212.665 96.464C213.293 97.239 215.047 101.479 215.573 103.027C217.704 109.284 218.256 128.821 217.272 133.805C217.235 133.952 217.194 134.096 217.154 134.243C215.945 138.578 214.687 142.987 212.665 147.025C210.758 150.832 208.12 154.259 204.335 156.337C200.411 158.494 195.804 159.061 191.391 158.769C188.549 158.584 185.755 158.013 183.006 157.297C181.57 156.925 180.146 156.51 178.729 156.079C178.11 155.892 177.482 155.716 176.875 155.498C175.804 155.112 175.243 155.081 174.216 155.577C173.283 156.027 173.043 157.357 173.529 158.193C174.321 159.558 175.771 159.653 177.172 160.051C178.598 160.457 180.03 160.845 181.471 161.194C184.232 161.857 187.037 162.367 189.867 162.602C194.934 163.026 200.155 162.372 204.767 160.16C205.288 159.909 205.79 159.641 206.276 159.352C206.096 159.603 205.914 159.855 205.729 160.104C205.217 160.793 205.596 161.966 206.314 162.343C206.542 162.462 206.769 162.576 206.999 162.687C207.03 162.76 207.063 162.834 207.101 162.907C207.757 164.225 209.132 165.003 210.533 165.339C212.196 165.737 214.059 165.455 215.751 165.405C217.32 165.358 218.889 165.311 220.455 165.263C220.825 165.254 221.195 165.242 221.564 165.23C223.427 165.173 225.287 165.119 227.148 165.062C228.807 165.012 228.728 165.14 230.285 164.476C230.98 164.178 231.549 163.756 232.027 163.194C232.326 163.061 232.615 162.91 232.892 162.737C233.783 162.182 234.575 161.438 235.305 160.618C236.544 161.009 238.281 160.646 238.523 159.089C238.912 156.598 242.149 155.534 243.661 153.733C244.882 152.28 245.754 150.377 245.709 148.549C248.785 147.061 250.458 143.138 250.849 139.811C251.031 138.268 251.003 136.616 251.266 135.047C251.382 134.921 251.486 134.788 251.574 134.646C252.347 133.397 253.02 132.11 253.612 130.793C254.418 130.212 255.387 129.854 256.402 129.795C258.895 129.65 259.364 126.287 256.987 125.476C256.975 125.472 256.966 125.469 256.954 125.465C257.598 123.853 257.544 121.945 256.762 120.419C256.795 120.253 256.826 120.089 256.857 119.923C258.191 118.489 258.956 116.496 258.871 114.555C259.48 114.126 260.163 113.794 260.909 113.588C262.063 113.27 262.07 111.863 261.217 111.232C260.874 110.978 260.589 110.682 260.352 110.355C260.942 108.582 260.71 106.532 259.504 105.077C260.269 104.096 261.035 103.114 261.8 102.133C262.307 101.484 262.575 100.382 261.8 99.7655C261.305 99.3697 260.81 98.9763 260.312 98.5828Z" fill="black"/>
<path fill-rule="evenodd" clip-rule="evenodd" d="M215.317 131.935C213.751 131.641 212.132 131.724 210.576 131.382C209.059 131.048 207.853 130.056 206.387 129.594C205.097 129.187 203.585 129.463 202.58 130.251C201.646 129.82 200.585 129.727 199.523 129.87C197.913 130.085 196.41 130.765 194.975 131.501C194.809 131.586 194.642 131.668 194.476 131.75C191.825 131.684 189.108 131.689 186.506 132.256C184.203 132.758 182.025 133.927 180.652 135.88C179.115 138.065 178.837 140.848 178.6 143.431C178.449 145.07 180.73 145.402 181.503 144.215C182.305 142.985 183.139 141.751 184.207 140.732C185.42 139.573 186.896 139.117 188.55 139.012C192.199 138.778 195.873 138.974 199.527 138.813C201.644 138.719 204.002 137.906 204.856 136.069C205.767 137.494 207.831 138.341 209.529 138.469C211.323 138.605 213.145 138.28 214.921 138.653C216.618 139.009 218.635 140.271 218.258 142.288C218.036 143.473 219.537 144.172 220.228 143.117C223.049 138.808 220.27 132.864 215.317 131.935Z" fill="black"/>
<path fill-rule="evenodd" clip-rule="evenodd" d="M197.255 143.848C195.659 143.198 194.235 142.114 193.193 140.729C192.831 140.247 192.737 139.739 192.813 139.274C192.899 138.751 193.208 138.277 193.631 137.959C194.055 137.64 194.586 137.483 195.099 137.563C195.544 137.633 195.988 137.876 196.339 138.381L196.412 138.482C197.031 139.318 197.838 140.004 198.757 140.446C199.643 140.872 200.634 141.071 201.66 140.955C203.613 140.735 204.959 139.681 206.39 138.25C206.567 138.069 206.745 137.882 206.923 137.693C207.036 137.521 207.192 137.411 207.365 137.353C207.558 137.289 207.776 137.292 207.976 137.362C208.168 137.429 208.34 137.556 208.456 137.725C208.565 137.886 208.628 138.085 208.607 138.313C208.476 139.796 207.699 141.12 206.595 142.16C205.369 143.314 203.744 144.113 202.214 144.393C200.528 144.702 198.811 144.481 197.255 143.848ZM203.009 120.962C204.803 122.05 207.535 124.587 205.606 127.284C203.335 129.662 200.065 126.935 198.454 125.702C196.96 124.746 195.282 127.204 196.668 128.32C208.31 136.923 213.035 121.247 203.916 119.683C202.912 119.511 202.539 120.626 203.009 120.962ZM182.146 110.955C182.344 108.501 186.09 107.943 186.462 110.372C186.796 112.548 186.403 114.547 185.421 116.506C184.483 118.377 182.124 117.504 181.946 115.8C181.707 113.516 182.022 112.482 182.146 110.955ZM210.66 109.869C211.182 109.186 211.936 108.72 212.839 108.983C215.662 109.806 214.83 113.806 213.839 115.752C213.3 116.809 211.559 117.077 210.772 116.146C209.49 114.629 208.876 111.598 210.506 110.102C210.55 110.025 210.599 109.947 210.66 109.869ZM185.381 100.215L185.827 100.137C187.207 99.8989 188.922 99.6701 189.897 100.777C190.415 101.364 190.593 102.454 189.897 103.016C188.674 104.004 187.321 103.621 185.855 103.705C184.646 103.774 183.485 103.974 182.321 104.306C179.768 105.034 177.687 106.364 175.506 107.824C175.22 108.015 174.928 107.65 175.064 107.383C176.323 104.922 178.763 102.901 181.207 101.668C182.511 101.011 183.938 100.465 185.381 100.215ZM208.086 99.1125L208.428 99.1822C212.141 99.9569 216.966 101.504 218.725 105.145C218.792 105.66 218.721 105.77 218.664 105.842L218.644 105.866C218.597 105.927 218.559 106.012 218.336 106.082C218.273 106.068 218.211 106.052 218.148 106.035C217.341 105.825 216.704 105.534 216.086 105.233L215.417 104.904C214.64 104.524 213.856 104.157 213.026 103.887C211.254 103.31 209.431 102.904 207.58 102.687C207.179 102.64 206.792 102.505 206.488 102.273C206.198 102.053 205.977 101.749 205.876 101.344C205.746 100.821 205.783 100.424 206.065 99.9519C206.277 99.5972 206.579 99.3514 206.927 99.2102C207.282 99.0662 207.685 99.0323 208.086 99.1125Z" fill="black"/>
</svg>
