<svg width="37" height="10" viewBox="0 0 37 10" fill="none" xmlns="http://www.w3.org/2000/svg">
<path d="M1.07661e-06 1.692C1.07661e-06 1.596 0.104001 1.484 0.312001 1.356C0.520001 1.22 0.812001 1.1 1.188 0.996C1.572 0.892 1.988 0.84 2.436 0.84C2.884 0.84 3.212 0.904 3.42 1.032C3.628 1.16 3.74 1.3 3.756 1.452L4.176 5.82H4.344L4.716 1.56C4.74 1.336 5.012 1.16 5.532 1.032C6.052 0.904 6.536 0.84 6.984 0.84C7.432 0.84 7.764 0.88 7.98 0.96C8.196 1.032 8.332 1.108 8.388 1.188C8.452 1.268 8.484 1.344 8.484 1.416C8.484 1.48 8.424 1.668 8.304 1.98C8.192 2.284 8.072 2.612 7.944 2.964C7.52 4.084 6.804 6.092 5.796 8.988C5.708 9.236 5.02 9.36 3.732 9.36C3.332 9.36 3.068 9.332 2.94 9.276C2.812 9.22 2.724 9.124 2.676 8.988C2.204 7.628 1.64 6.084 0.984001 4.356C0.328001 2.628 1.07661e-06 1.74 1.07661e-06 1.692ZM10.7011 9.468C9.97309 9.468 9.40109 9.296 8.98509 8.952C8.81709 8.808 8.66909 8.596 8.54109 8.316C8.42109 8.036 8.36109 7.708 8.36109 7.332C8.36109 6.956 8.44909 6.628 8.62509 6.348C8.80909 6.068 9.02909 5.852 9.28509 5.7C9.54109 5.548 9.84109 5.424 10.1851 5.328C10.7051 5.192 11.2771 5.124 11.9011 5.124H12.2971C12.2971 4.796 12.1851 4.564 11.9611 4.428C11.8651 4.372 11.7171 4.344 11.5171 4.344C11.3251 4.344 11.0891 4.396 10.8091 4.5C10.5371 4.604 10.3091 4.712 10.1251 4.824C9.94109 4.928 9.81709 4.98 9.75309 4.98C9.60909 4.98 9.41309 4.792 9.16509 4.416C8.91709 4.032 8.79309 3.684 8.79309 3.372C8.79309 3.268 8.94109 3.132 9.23709 2.964C9.53309 2.796 9.94909 2.644 10.4851 2.508C11.0291 2.364 11.5571 2.292 12.0691 2.292C12.5811 2.292 13.0211 2.336 13.3891 2.424C13.7651 2.504 14.0691 2.604 14.3011 2.724C14.5411 2.844 14.7411 3.004 14.9011 3.204C15.0691 3.404 15.1931 3.584 15.2731 3.744C15.3611 3.904 15.4251 4.112 15.4651 4.368C15.5211 4.664 15.5491 5.028 15.5491 5.46V9.072C15.5491 9.16 15.3331 9.232 14.9011 9.288C14.4771 9.336 14.0531 9.36 13.6291 9.36C13.2131 9.36 12.9411 9.348 12.8131 9.324C12.6931 9.3 12.6211 9.272 12.5971 9.24C12.5731 9.208 12.5531 9.152 12.5371 9.072L12.4411 8.388H12.3451C12.1451 9.108 11.5971 9.468 10.7011 9.468ZM12.3091 7.476V6.072C12.1011 6.072 11.9331 6.16 11.8051 6.336C11.6771 6.512 11.6131 6.712 11.6131 6.936C11.6131 7.464 11.7331 7.728 11.9731 7.728C12.0771 7.728 12.1571 7.704 12.2131 7.656C12.2771 7.6 12.3091 7.54 12.3091 7.476ZM18.8018 9.468C17.9058 9.468 17.2778 9.236 16.9178 8.772C16.5658 8.308 16.3898 7.5 16.3898 6.348V3.084C16.3898 2.924 16.6258 2.772 17.0978 2.628C17.5698 2.476 18.0658 2.4 18.5858 2.4C19.2818 2.4 19.6298 2.58 19.6298 2.94V5.988C19.6298 6.596 19.6538 7.04 19.7018 7.32C19.7498 7.592 19.8698 7.728 20.0618 7.728C20.3178 7.728 20.4458 7.62 20.4458 7.404V3.084C20.4458 2.916 20.6938 2.76 21.1898 2.616C21.6858 2.472 22.2258 2.4 22.8098 2.4C23.3938 2.4 23.6858 2.556 23.6858 2.868V9.048C23.6858 9.16 23.4338 9.24 22.9298 9.288C22.4258 9.336 21.9298 9.36 21.4418 9.36C20.9538 9.36 20.7058 9.296 20.6978 9.168L20.5778 8.388H20.4818C20.4098 8.676 20.2658 8.912 20.0498 9.096C19.9378 9.192 19.7698 9.28 19.5458 9.36C19.3298 9.432 19.0818 9.468 18.8018 9.468ZM27.7627 0.552V9.072C27.7627 9.16 27.5347 9.232 27.0787 9.288C26.6227 9.336 26.1507 9.36 25.6627 9.36C25.1827 9.36 24.8707 9.34 24.7267 9.3C24.5907 9.252 24.5227 9.176 24.5227 9.072V0.768C24.5227 0.592 24.7467 0.42 25.1947 0.252C25.6507 0.0840001 26.1387 2.38419e-07 26.6587 2.38419e-07C27.3947 2.38419e-07 27.7627 0.184 27.7627 0.552ZM33.3168 9.252C33.1728 9.388 32.8448 9.456 32.3328 9.456C31.8208 9.456 31.3968 9.424 31.0608 9.36C30.7248 9.288 30.4048 9.152 30.1008 8.952C29.5168 8.56 29.2248 7.744 29.2248 6.504V4.632H28.6248C28.5368 4.632 28.4608 4.54 28.3968 4.356C28.3328 4.172 28.3008 3.92 28.3008 3.6C28.3008 3.28 28.3488 3 28.4448 2.76C28.5488 2.512 28.6808 2.388 28.8408 2.388H29.2248V0.936C29.2248 0.688 29.4648 0.488 29.9448 0.336C30.4328 0.184 30.9088 0.108 31.3728 0.108C32.1008 0.108 32.4648 0.288 32.4648 0.648V2.388H33.3528C33.5608 2.388 33.6648 2.688 33.6648 3.288C33.6648 3.68 33.6168 4.004 33.5208 4.26C33.4328 4.508 33.3168 4.632 33.1728 4.632H32.4648V6.828C32.4648 7.044 32.5568 7.2 32.7408 7.296C32.9248 7.384 33.0848 7.428 33.2208 7.428C33.3648 7.428 33.4528 7.496 33.4848 7.632C33.5168 7.768 33.5328 7.972 33.5328 8.244C33.5328 8.78 33.4608 9.116 33.3168 9.252ZM37.0058 8.232C37.0058 8.704 36.8978 9.028 36.6818 9.204C36.4658 9.38 36.1458 9.468 35.7218 9.468C35.3058 9.468 34.9898 9.38 34.7738 9.204C34.5578 9.028 34.4498 8.704 34.4498 8.232C34.4498 7.76 34.5578 7.448 34.7738 7.296C34.9978 7.136 35.3178 7.056 35.7338 7.056C36.1498 7.056 36.4658 7.136 36.6818 7.296C36.8978 7.448 37.0058 7.76 37.0058 8.232Z" fill="black"/>
</svg>
